<?xml version="1.0" encoding="UTF-8" standalone="no"?>
<!-- Generator: Adobe Illustrator 17.0.0, SVG Export Plug-In . SVG Version: 6.00 Build 0)  -->

<svg
   xmlns:dc="http://purl.org/dc/elements/1.1/"
   xmlns:cc="http://creativecommons.org/ns#"
   xmlns:rdf="http://www.w3.org/1999/02/22-rdf-syntax-ns#"
   xmlns:svg="http://www.w3.org/2000/svg"
   xmlns="http://www.w3.org/2000/svg"
   xmlns:sodipodi="http://sodipodi.sourceforge.net/DTD/sodipodi-0.dtd"
   xmlns:inkscape="http://www.inkscape.org/namespaces/inkscape"
   version="1.1"
   id="Layer_1"
   x="0px"
   y="0px"
   width="86.908272"
   height="21.75264"
   viewBox="0 0 86.908274 21.75264"
   xml:space="preserve"
   sodipodi:docname="ilovepdf.svg"
   inkscape:version="0.92.4 (5da689c313, 2019-01-14)"><metadata
   id="metadata23"><rdf:RDF><cc:Work
       rdf:about=""><dc:format>image/svg+xml</dc:format><dc:type
         rdf:resource="http://purl.org/dc/dcmitype/StillImage" /><dc:title></dc:title></cc:Work></rdf:RDF></metadata><defs
   id="defs21" /><sodipodi:namedview
   pagecolor="#ffffff"
   bordercolor="#666666"
   borderopacity="1"
   objecttolerance="10"
   gridtolerance="10"
   guidetolerance="10"
   inkscape:pageopacity="0"
   inkscape:pageshadow="2"
   inkscape:window-width="640"
   inkscape:window-height="480"
   id="namedview19"
   showgrid="false"
   fit-margin-top="0"
   fit-margin-left="0"
   fit-margin-right="0"
   fit-margin-bottom="0"
   inkscape:current-layer="g16" />
<g
   id="g16"
   transform="translate(-0.45799999,-0.326)">
	<path
   d="M 27.730527,0.97021912 C 26.340094,1.6411719 25.297197,2.7718244 24.535583,4.05387 23.311073,1.9953907 21.364466,0.326 18.416227,0.326 c -2.949402,0 -6.565399,2.503069 -6.565399,6.7313204 0,4.2808476 3.572119,6.3099766 5.34147,7.4557396 1.891105,1.223639 5.118011,3.448331 7.342993,7.56558 2.225855,-4.116958 5.452182,-6.341941 7.343867,-7.56558 1.329121,-0.861573 3.677309,-2.222077 4.761759,-4.6629609 z M 27.623883,10.093025 V 2.048567 l 8.044458,8.044168 h -8.044458 z"
   id="path2"
   inkscape:connector-curvature="0"
   style="fill:#e5322d;stroke-width:0.29058149" />
	<g
   id="g12"
   style="fill:#000000;fill-opacity:1"
   transform="matrix(0.29058149,0,0,0.29058149,0.32491367,0.23127043)">
		<path
   d="M 0.458,59.164 H 3.89 c 1.088,0 2.344,-1.507 2.344,-2.511 V 20.24 c 0,-1.004 -1.256,-2.427 -2.344,-2.427 H 0.458 v -8.79 h 27.54 v 8.79 h -3.516 c -1.088,0 -2.26,1.423 -2.26,2.427 v 36.413 c 0,1.005 1.172,2.511 2.26,2.511 h 3.516 v 8.455 H 0.458 Z"
   id="path4"
   style="fill:#e5e4e4;fill-opacity:1"
   inkscape:connector-curvature="0" />
		<path
   d="m 133.383,59.164 h 2.846 c 1.172,0 2.427,-1.507 2.427,-2.511 V 20.24 c 0,-1.004 -1.256,-2.427 -2.427,-2.427 h -2.846 v -8.79 h 26.619 c 15.654,0 24.192,5.525 24.192,18.583 0,12.724 -9.041,18.499 -24.778,18.499 h -4.855 v 13.059 h 6.78 v 8.455 h -27.958 z m 25.783,-21.68 c 7.031,0 8.873,-4.018 8.873,-9.626 0,-5.525 -1.842,-9.459 -8.873,-9.459 h -4.855 v 19.086 h 4.855 z"
   id="path6"
   style="fill:#e5e4e4;fill-opacity:1"
   inkscape:connector-curvature="0" />
		<path
   d="m 189.3,59.164 h 2.846 c 1.172,0 2.427,-1.507 2.427,-2.511 V 20.24 c 0,-1.004 -1.255,-2.427 -2.427,-2.427 H 189.3 v -8.79 h 25.531 c 20.843,0 31.725,9.041 31.725,28.963 0,19.588 -11.049,29.633 -32.144,29.633 H 189.3 Z m 25.112,-0.418 c 10.547,0 15.737,-6.278 15.737,-20.341 0,-13.979 -5.106,-20.007 -15.737,-20.007 h -3.934 v 40.347 h 3.934 z"
   id="path8"
   style="fill:#e5e4e4;fill-opacity:1"
   inkscape:connector-curvature="0" />
		<path
   d="m 251.912,59.164 h 2.846 c 1.172,0 2.427,-1.507 2.427,-2.511 V 20.24 c 0,-1.004 -1.255,-2.427 -2.427,-2.427 h -2.846 v -8.79 h 47.63 v 18.081 h -9.375 l -1.423,-8.622 H 273.09 v 16.407 h 7.617 l 0.67,-5.525 H 290 v 20.341 h -8.622 l -0.67,-5.776 h -7.617 v 15.235 h 6.781 v 8.455 h -27.959 v -8.455 z"
   id="path10"
   style="fill:#e5e4e4;fill-opacity:1"
   inkscape:connector-curvature="0" />
	</g>
	<polygon
   points="121.63,33.938 93.946,33.938 93.946,6.254 "
   id="polygon14"
   style="fill:#ffffff"
   transform="matrix(0.29058149,0,0,0.29058149,0.32491367,0.23127043)" />
</g>
</svg>