<svg xmlns:osb="http://www.openswatchbook.org/uri/2009/osb" xmlns="http://www.w3.org/2000/svg" xmlns:xlink="http://www.w3.org/1999/xlink" width="145" viewBox="5 7 122 20">
    <defs>
        <linearGradient id="a" osb:paint="solid">
            <stop offset="0" stop-color="#c678c5"/>
        </linearGradient>
        <linearGradient id="c" osb:paint="solid">
            <stop offset="0" stop-color="#6d6d6d"/>
        </linearGradient>
        <linearGradient id="b" osb:paint="solid">
            <stop offset="0" stop-color="#f1007e"/>
        </linearGradient>
        <linearGradient xlink:href="#b" id="d" gradientUnits="userSpaceOnUse" x1="3241.684" y1="-1355.433" x2="3254.953" y2="-1355.433"/>
        <linearGradient xlink:href="#c" id="h" gradientUnits="userSpaceOnUse" x1="3225.76" y1="-1355.433" x2="3239.03" y2="-1355.433"/>
        <linearGradient xlink:href="#b" id="f" gradientUnits="userSpaceOnUse" x1="3241.684" y1="-1355.433" x2="3254.953" y2="-1355.433"/>
        <linearGradient xlink:href="#b" id="g" gradientUnits="userSpaceOnUse" x1="3241.684" y1="-1355.433" x2="3254.953" y2="-1355.433"/>
        <linearGradient xlink:href="#b" id="e" gradientUnits="userSpaceOnUse" x1="3241.684" y1="-1355.433" x2="3254.953" y2="-1355.433"/>
        <linearGradient xlink:href="#c" id="i" gradientUnits="userSpaceOnUse" x1="3225.76" y1="-1355.433" x2="3239.03" y2="-1355.433" gradientTransform="matrix(3.70008 0 0 3.70008 -11935.582 4544.663)"/>
        <linearGradient xlink:href="#c" id="j" gradientUnits="userSpaceOnUse" gradientTransform="matrix(3.5812 0 0 3.5812 -11532.084 4918.192)" x1="3269.126" y1="-1354.622" x2="3322.194" y2="-1354.622"/>
        <linearGradient xlink:href="#b" id="k" gradientUnits="userSpaceOnUse" gradientTransform="matrix(3.5812 0 0 3.5812 -11528.758 4918.192)" x1="3323.995" y1="-1356.536" x2="3349.068" y2="-1356.536"/>
    </defs>
    <g transform="matrix(.25 0 0 .25 -588.554 242.464)" fill="url(#e)" fill-rule="evenodd">
        <path d="M2450.431-937.137l51.962 30v12l-51.962 30v-12l41.57-24-41.57-24z" fill="url(#f)"/>
        <path d="M2450.431-913.137l20.785 12-20.785 12z" fill="url(#g)"/>
    </g>
    <path transform="matrix(.26458 0 0 .26458 8.467 141.68)" d="M49.098-504.566L0-476.221v11.338l39.277-22.676v45.354l9.82 5.67zm-19.639 34.015l-19.64 11.338 19.64 11.338z" fill="url(#i)" fill-rule="evenodd"/>
    <g>
        <g color="#000" font-weight="700" font-stretch="condensed" font-size="8.522" font-family="PT Sans Narrow" letter-spacing=".223" word-spacing="2.6">
            <path transform="matrix(.26458 0 0 .26458 0 0)" d="M263.227 34.35c-1.667 0-2.953.477-3.858 1.43-.905.904-1.357 2.069-1.357 3.497 0 1.429.453 2.596 1.357 3.5.905.857 2.191 1.285 3.858 1.285 1.666 0 2.998-.428 3.998-1.285s1.5-2.024 1.5-3.5-.5-2.665-1.5-3.57c-1-.905-2.332-1.357-3.998-1.357zm43.95 0c-1.666 0-2.95.477-3.855 1.43-.904.904-1.357 2.069-1.357 3.497 0 1.429.453 2.596 1.357 3.5.905.857 2.19 1.285 3.856 1.285s3-.428 4-1.285 1.5-2.024 1.5-3.5-.5-2.665-1.5-3.57c-1-.905-2.334-1.357-4-1.357zm-118.46.357l-14.499 50.352h8.928l2.927-11.286h11.786l3.07 11.286h9.428l-14.57-50.352zm58.71 5.285l-8.497 2.643v6.713h-3.928v7.57h3.928v18.713c0 3.714.667 6.356 2 7.928 1.38 1.57 3.428 2.355 6.142 2.355 1.524 0 2.975-.19 4.356-.57 1.38-.334 2.595-.762 3.642-1.285L254 77.273c-.667.286-1.286.5-1.857.643a7.976 7.976 0 0 1-1.93.215c-1.048 0-1.784-.43-2.213-1.287-.38-.857-.572-2.308-.572-4.356v-15.57h6.927v-7.57h-6.927zm80.233 0l-8.498 2.643v6.713h-3.93v7.57h3.93v18.713c0 3.714.665 6.356 1.998 7.928 1.38 1.57 3.429 2.355 6.143 2.355 1.523 0 2.976-.19 4.357-.57 1.38-.334 2.595-.762 3.643-1.285l-1.073-6.786c-.666.286-1.286.5-1.857.643a7.96 7.96 0 0 1-1.928.215c-1.047 0-1.784-.43-2.213-1.287-.38-.857-.572-2.308-.572-4.356v-15.57h6.928v-7.57h-6.928zm-135.659 6.856h.285l1.145 7.857 2.855 11.64h-8.283l2.785-11.57zm31.946 1.572c-4.332 0-7.62 1.57-9.857 4.713-2.238 3.142-3.356 7.833-3.356 14.07 0 2.857.214 5.452.643 7.785.476 2.286 1.238 4.262 2.285 5.928 1.048 1.619 2.381 2.88 4 3.785 1.667.857 3.712 1.285 6.14 1.285 1.667 0 3.334-.238 5-.715 1.667-.476 3.096-1.19 4.286-2.142l-1.785-6.57c-.714.476-1.5.881-2.358 1.214-.81.286-1.81.428-3 .428-2.237 0-3.88-1.023-4.927-3.07-1-2.047-1.5-4.69-1.5-7.928 0-3.856.5-6.641 1.5-8.355 1-1.762 2.5-2.643 4.5-2.643 1.095 0 2.023.117 2.785.356.81.19 1.643.5 2.5.93l2-7.071c-1.048-.571-2.262-1.049-3.643-1.43-1.333-.38-3.07-.57-5.213-.57zm35.065.928v35.71h8.5v-35.71zm11.054 0l12.643 36.066h5.713l11.998-36.066h-9.14l-4.428 18.57-.788 5.713h-.285l-.857-5.643-4.928-18.64zm32.899 0v35.71h8.498v-35.71zm33.531 0l12.428 35.71c-.286 1.572-.644 2.833-1.072 3.786-.429.952-.93 1.642-1.5 2.07-.524.476-1.119.715-1.786.715a4.223 4.223 0 0 1-1.857-.287l-1.428 7.285c.667.38 1.453.642 2.358.785.952.19 1.928.287 2.927.287 1.429 0 2.643-.43 3.643-1.287 1.047-.81 1.976-1.999 2.785-3.57.81-1.571 1.571-3.475 2.285-5.713a281.038 281.038 0 0 0 2.285-7.57l8.928-32.211h-8.713l-4.142 19.998-.643 5.642h-.357l-.928-5.572-5-20.068z" style="line-height:2.53632545px;-inkscape-font-specification:'PT Sans Narrow Bold Condensed';isolation:auto;mix-blend-mode:normal;solid-color:#000;solid-opacity:1" overflow="visible" fill="url(#j)"/>
            <path transform="matrix(.26458 0 0 .26458 0 0)" d="M386.908 34.35c-2.047 0-4.095.119-6.142.357-2.048.19-3.927.477-5.641.857V85.06h8.998V67.846c.19.047.5.095.928.142l1.43.143h2.285c2.047 0 4.023-.309 5.927-.928a13.327 13.327 0 0 0 5.143-3c1.476-1.38 2.641-3.165 3.498-5.355.905-2.19 1.357-4.858 1.357-8 0-3.476-.522-6.286-1.57-8.428-1.047-2.19-2.406-3.88-4.072-5.07-1.667-1.19-3.57-1.977-5.713-2.358a31.993 31.993 0 0 0-6.428-.642zm51.725.714V83.63c1.143.571 2.76 1.096 4.855 1.572 2.143.476 4.477.713 7 .713 4.619 0 8.26-1.57 10.926-4.713 2.666-3.19 4-8.165 4-14.926 0-6.237-.953-10.76-2.857-13.57-1.857-2.81-4.475-4.215-7.856-4.215-3.19 0-5.641 1.048-7.355 3.143h-.215V35.064zm-50.867 7.286c1 0 1.952.142 2.857.427a5.715 5.715 0 0 1 2.356 1.428c.714.619 1.261 1.477 1.642 2.572.429 1.095.643 2.43.643 4 0 1.857-.214 3.403-.643 4.641-.428 1.19-1.023 2.143-1.785 2.857a6.24 6.24 0 0 1-2.5 1.428c-.952.286-1.95.43-2.998.43-.286 0-.833-.025-1.643-.072-.761-.096-1.286-.19-1.572-.286V42.707c.952-.238 2.167-.357 3.643-.357zm20.318 6.998v23.21c0 2.667.214 4.882.643 6.643.428 1.714 1.046 3.07 1.855 4.07.81 1 1.787 1.692 2.93 2.073 1.142.428 2.451.642 3.927.642 2.286 0 4.19-.547 5.713-1.642a11.923 11.923 0 0 0 3.715-4.143h.213l1.5 4.858h6.428c-.381-1.524-.643-3.216-.785-5.073a77.33 77.33 0 0 1-.215-5.785V49.348h-8.498V73.2c-.381 1.38-1.025 2.573-1.93 3.572-.905.953-2.022 1.428-3.355 1.428-1.381 0-2.334-.547-2.858-1.642-.524-1.095-.785-3.047-.785-5.856V49.348zm43.832 6.927c1.619 0 2.809.859 3.57 2.573.762 1.666 1.143 4.307 1.143 7.925 0 4.095-.476 7.024-1.428 8.786-.952 1.714-2.333 2.572-4.142 2.572-1.62 0-2.928-.264-3.928-.787V59.99c.81-2.476 2.404-3.715 4.785-3.715z" style="line-height:2.53632545px;-inkscape-font-specification:'PT Sans Narrow Bold Condensed';isolation:auto;mix-blend-mode:normal;solid-color:#000;solid-opacity:1" overflow="visible" fill="url(#k)"/>
        </g>
    </g>
</svg>