<svg width="130" viewBox="0 0 840 148">
  <path fill="#fcb400" d="M79 1.9L13 29.2a4.4 4.4 0 0 0 .1 8.2l66.2 26.2a24.6 24.6 0 0 0 18.2 0l66.2-26.2a4.4 4.4 0 0 0 0-8.2l-66-27.3a24.6 24.6 0 0 0-18.7 0"/>
  <path fill="#18bfff" d="M94.3 78v65.6c0 3.1 3.1 5.2 6 4l73.8-28.6a4.4 4.4 0 0 0 2.8-4V49.2c0-3.1-3.1-5.2-6-4.1L97 73.9a4.4 4.4 0 0 0-2.8 4"/>
  <path fill="#f82b60" d="M77 81.3L55.1 92 53 93 6.7 115.2c-3 1.4-6.7-.8-6.7-4V49.6c0-1.2.6-2.2 1.4-3a5 5 0 0 1 1.1-.8c1.1-.7 2.7-.9 4-.3l70.2 27.8c3.5 1.4 3.8 6.4.3 8"/>
  <path fill="#060" d="M279.8 80.5l-16.2-43.2a2 2 0 0 0-3.9 0l-16.2 43.2a2 2 0 0 0 2 2.7H278a2 2 0 0 0 1.9-1.8 2 2 0 0 0-.2-.9m7.6 24.3H236a2 2 0 0 0-1.9 1.3l-10.2 27a2 2 0 0 1-1.9 1.3h-22.3a2 2 0 0 1-2-2.8L249 5.6a2 2 0 0 1 2-1.3h21.3a2.1 2.1 0 0 1 1.9 1.3l51.3 126a2 2 0 0 1-1.9 2.8h-22.3a2 2 0 0 1-2-1.3l-10.1-27a1.8 1.8 0 0 0-1.8-1.3m48.7-56.3h19.2a2.1 2.1 0 0 1 2 2v82a2 2 0 0 1-2 2H336a2 2 0 0 1-2-2v-82a2 2 0 0 1 2-2m90.9 20a2.1 2.1 0 0 1-2 2h-.6c-9.5 0-16.4 2.1-20.8 6.6-4.4 4.5-6.6 11.8-6.6 22v33.2a2.1 2.1 0 0 1-2 2h-19a2.1 2.1 0 0 1-2-2V50.6a2.1 2.1 0 0 1 2-2h18.8a2.1 2.1 0 0 1 2 2v16h.5A31.3 31.3 0 0 1 408 51.3a29.7 29.7 0 0 1 18.2-5.4h1v22.6zm52.2-.9a2 2 0 0 0-2 2v34c-.3 2.7.4 5.4 2 7.5 1.4 1.5 3.7 2.2 7.1 2.2h2a2.1 2.1 0 0 1 2 2v17.1a2 2 0 0 1-2 2H480c-8.4 0-14.8-2.1-19.4-6.3-4.5-4.4-6.7-10.6-6.7-19.1V69.7a2 2 0 0 0-2-2h-12a2.1 2.1 0 0 1-2.1-2.1v-15a2.1 2.1 0 0 1 2-2h12a2 2 0 0 0 2-2.1V16a2 2 0 0 1 2.2-2h19a2 2 0 0 1 2.2 2v30.4a2 2 0 0 0 2 2h13.8a2.1 2.1 0 0 1 2 2v15a2.1 2.1 0 0 1-2 2.1zm87.4 41.2a23.8 23.8 0 0 0 6.4-17.5 24.3 24.3 0 0 0-6.4-17.4 25.3 25.3 0 0 0-34.2 0 23.8 23.8 0 0 0-6.4 17.4 24.3 24.3 0 0 0 6.4 17.5 22.8 22.8 0 0 0 17.1 6.7 22.1 22.1 0 0 0 17-6.7m-44 23a38.3 38.3 0 0 1-15.1-15.8 58 58 0 0 1 0-49.3A39.2 39.2 0 0 1 522.5 51a42.2 42.2 0 0 1 21.2-5.5 36.6 36.6 0 0 1 17.5 4 29.7 29.7 0 0 1 11.6 11h.4v-10a2.1 2.1 0 0 1 2-2.1h19a2.1 2.1 0 0 1 2 2v81.9a2.1 2.1 0 0 1-2.1 2h-18.8a2.1 2.1 0 0 1-2.1-2v-10h-.4a29.7 29.7 0 0 1-11.6 11 37 37 0 0 1-17.5 3.9 42.2 42.2 0 0 1-21.2-5.5m152.3-22.9a23.8 23.8 0 0 0 6.4-17.5 24.3 24.3 0 0 0-6.4-17.4 25.3 25.3 0 0 0-34.2 0 23.8 23.8 0 0 0-6.4 17.4 24.3 24.3 0 0 0 6.4 17.5 22.8 22.8 0 0 0 17.1 6.7 22.1 22.1 0 0 0 17-6.7zm-28.6 24.4a29.7 29.7 0 0 1-11.6-11h-.4v10a2.1 2.1 0 0 1-2 2.1H613a2.1 2.1 0 0 1-2.1-2V6.3a2.1 2.1 0 0 1 2-2.1h19.2a2.1 2.1 0 0 1 2 2v54.4h.5a29.7 29.7 0 0 1 11.5-11 37 37 0 0 1 17.5-4 42.2 42.2 0 0 1 21.2 5.5A38.3 38.3 0 0 1 700 66.8a51.1 51.1 0 0 1 5.6 24.7A53.2 53.2 0 0 1 700 116c-3.5 6.6-8.8 12-15.2 15.8a42.2 42.2 0 0 1-21.2 5.4 38 38 0 0 1-17.5-4.1m91.6 1.1h-19.2a2.1 2.1 0 0 1-2-2V6.3a2.1 2.1 0 0 1 2-2h19.2a2.1 2.1 0 0 1 2 2v126a2 2 0 0 1-1.2 1.8 2 2 0 0 1-.8.2zm45-66a18.2 18.2 0 0 0-6.5 10.6 2 2 0 0 0 2 2.4h36.4a2 2 0 0 0 2-2.3 16.8 16.8 0 0 0-5.6-10.4 21.3 21.3 0 0 0-14-4.6 23.7 23.7 0 0 0-14.3 4.3zm46.5-10.6q11.2 12 11.1 33.9v2.5a2.1 2.1 0 0 1-2 2h-60.7a2.1 2.1 0 0 0-2 2.4 21.4 21.4 0 0 0 7.2 13 25.6 25.6 0 0 0 17 5.4 35.5 35.5 0 0 0 24.3-10.1 2 2 0 0 1 3 .4l9.3 13.1a2.2 2.2 0 0 1-.3 2.7 73.3 73.3 0 0 1-15 10 50.1 50.1 0 0 1-21.3 4.3 51.6 51.6 0 0 1-24.8-5.7 40 40 0 0 1-16.4-16 48 48 0 0 1-6-23.9 49.8 49.8 0 0 1 5.7-24 39.9 39.9 0 0 1 15.9-16 47.7 47.7 0 0 1 23.8-5.9c13.5-.1 23.8 4 31.2 12zM359.8 18.2a14 14 0 1 1-14.2-13.9 14.1 14.1 0 0 1 14.2 13.9z"/>
</svg>