<svg width="32" viewBox="0 0 999.5 914.3">
    <path fill="#00D2FF" d="M18 894.3v-.4c2.2-25 4.6-38.7 6.6-51.7 14.3-87.5 51-160.6 107-228.6A724.3 724.3 0 0 1 481 380.5a24.5 24.5 0 0 1 31.1 24.9v.2c-2.7 38.5-10.3 76-27.2 111.2-11.8 24.6-27.8 40.7-57.5 45.7A524.9 524.9 0 0 0 176 675.4c-68.2 56.1-122.6 139-140.2 187.7-7.4 19.6-10.8 29.4-12.7 32.6-1.3 2.5-5.1 1.4-5.1-1.4z"/>
    <path fill="#00D2FF" d="M297 665.3c.1-9.6 8.4-14 15.3-18.1a298.7 298.7 0 0 1 114.4-38.7 69 69 0 0 1 63.3 22.8c67 69.6 146 120.9 239.3 148.2 84.9 24.7 167.5 24.7 253.3 4.8 0 0 2-.5 3.9-.1 1.1.2 1.6.9 1.8 1.7.2 1 .2 2.2-.2 3.3-.4 1-1.4 2-2.3 2.3-19.7 9.7-39.1 19.7-59.6 27.6-113.3 44.2-228.2 41.1-343.6 9.4a745.4 745.4 0 0 1-248.5-120.4c-10.7-8-20.7-17.1-30.5-26.2a21 21 0 0 1-6.6-16.6z"/>
    <path fill="#00D2FF" d="M650.5 684.5a18.2 18.2 0 0 1-27.2 10.6 282.5 282.5 0 0 1-93.8-91.8 66.4 66.4 0 0 1-5.8-62c30-78.4 43-160 35.8-243.9-8.6-100-45.9-189-108.2-267.6a43.2 43.2 0 0 1-6.6-10.3c-.6-1.5 1-3 2.5-2.1 3.1 2 6.3 3.8 9.2 6a481.2 481.2 0 0 1 150.1 175.4c19.2 38 31.9 78.4 43.5 119.4 20.3 72 26.2 145.4 23.1 219.5-1.4 33.7-7.9 67.2-12.8 100.7a449.2 449.2 0 0 1-9.7 45.8l-.1.3z"/>
</svg>