<svg height="26" viewBox="0 0 147.7 40.1" xmlns="http://www.w3.org/2000/svg">
  <path d="M7.6 31.3l4.4-6.8h13.7v13.8h8.2V2.6h-8.5l-2.8 4.2L6.3 31c-4.2 6-4.4 6.6-4 7l.7.2 4.6-6.9zm7.3-11a2270.5 2270.5 0 0 0 10.5-15c.2 0 .3 3.8.3 9v9H12.9zm44.4 17.5c0-.5-.2-.5-6.6-.6h-6.5L46 19.8V2.7h-8.2l-.2 17.8v17.8h10.8c10.7 0 10.9 0 10.9-.5zm10-17V3.5h4.2c4-.1 4.2-.2 4.2-.7 0-.5-.2-.5-12.6-.6H52.6l.1.6c0 .5.2.6 4.3.6H61v35h8.2zM84 36.3V34h-2l-2.1.1-.1 2v2.1h4.2zm19.4-3.1v-5.2l3.5-.2c4-.2 5.8-.8 8.6-2.6a12.1 12.1 0 0 0 3.3-16.3 16.2 16.2 0 0 0-8.9-6.2c-.6-.1-4.3-.3-8.1-.3h-7v36h8.5zm-.1-18V3.7h2.7c4.5 0 7.3 1 9.7 3.5 4.2 4.1 4.8 9.5 1.8 14-2.4 3.7-6.4 5.6-11.6 5.6h-2.6zm42 22.7c0-.5-.2-.5-6.6-.6h-6.7V19.8l-.1-17.3h-8.2v35.8h10.8c10.7 0 10.9-.1 10.9-.6z" fill="#c7c7c7"/>
</svg>