<svg xmlns="http://www.w3.org/2000/svg" width="105" height="24" viewBox="0 0 210 48">
   <path fill="#5a2b83" d="M81.868 31.256c.002-8.405.108-15.18.241-15.39.13-.206.873-.49 1.65-.63 1.94-.35 10.006-.53 10.666-.24 1.586.701 3.51 1.727 3.975 2.12 3.007 2.543 4.439 7.536 3.549 12.376-.509 2.764-1.333 4.409-3.038 6.064-2.498 2.424-3.059 2.635-6.993 2.635-2.85 0-3.793-.168-5.369-.96-.26-.13-.588-.167-.727-.081-.146.09-.254 2.063-.254 4.639v4.482h-3.704l.004-15.015zm12.636 3.536c1.038-.536 2.325-2.04 3.028-3.534.498-1.06.575-1.684.575-4.68.001-3.871-.263-4.71-2.134-6.78-1.145-1.268-2.09-1.732-4.188-2.055-2.213-.34-5.124-.07-5.887.545-.25.202-.33 2.052-.33 7.597 0 7.264.005 7.334.595 7.872.818.744 1.614 1.127 2.923 1.405 1.513.321 4.473.12 5.418-.37zm14.347-3.836V15.641l.595-.16c.328-.087.976-.16 1.44-.162.464-.002.918-.123 1.008-.269.206-.333 8.69-.358 9.33-.027.253.13.995.458 1.65.727 2.536 1.043 4.852 3.702 5.445 6.248.093.402.276.796.405.876.43.266.279 6.721-.19 8.043-1.855 5.238-4.824 7.417-10.108 7.417-2.362 0-3.202-.189-4.914-1.105-.363-.195-.56-.17-.724.088-.123.196-.226 2.29-.229 4.655l-.004 4.3h-3.704zm11.54 4.168c1.292-.326 3.095-1.879 3.6-3.1.99-2.405 1.248-3.5 1.256-5.35.015-3.536-1.338-6.447-3.656-7.866-1.877-1.148-4.08-1.523-6.589-1.12-1.127.182-2.137.466-2.244.632-.107.167-.196 3.66-.199 7.766l-.004 7.463 1.23.72c1.893 1.11 4.337 1.426 6.605.855zm-97.265 9.33c-1.284-.166-2.08-.377-4.1-1.088C14.887 41.911 9.9 37.761 7.891 34.1c-.28-.509-.598-.965-.707-1.014-.11-.048-.198-.31-.198-.58 0-.27-.109-.558-.24-.64-.133-.081-.441-.832-.686-1.669-.245-.836-.614-2.079-.818-2.76-.205-.683-.367-1.874-.36-2.647.015-1.403.015-1.404.459-.744 1.14 1.699 3.565 3.905 5.14 4.68 2.846 1.397 3.171 1.481 6.237 1.611 3.79.16 7.173-.557 10.44-2.214.69-.35 1.434-.637 1.654-.637.22 0 .399-.12.399-.265 0-.145.117-.264.26-.264.143 0 .841-.357 1.55-.794.71-.437 1.467-.794 1.683-.794.216 0 .857.557 1.426 1.238.568.68 1.153 1.367 1.298 1.526.243.265 1.007 1.57 1.48 2.528.108.218.4 1.094.648 1.946.496 1.697.43 4.994-.11 5.534-.164.164-.298.507-.298.76 0 .432-.717 1.93-1.604 3.35-.413.663-1.237 1.1-3.29 1.742-1.508.472-6.928.745-9.129.46zM38 40.78c.171-.4.4-.851.51-1.002 1.15-1.59 1.112-9.121-.053-10.296a1.02 1.02 0 0 1-.25-.625c0-1.08-4.175-6.018-6.647-7.862-1.884-1.405-2.502-1.794-4.608-2.903-.829-.436-1.568-.949-1.642-1.139-.14-.36.311-1.578 1.486-4.002 1.502-3.101 5.56-6.368 7.91-6.368a5.24 5.24 0 0 0 1.566-.286c1.264-.485 4.4.208 5.423 1.2 1.266 1.224 3.775 4.696 4.438 6.138 1.91 4.16 1.969 4.44 1.969 9.484 0 4.522-.07 4.97-1.173 7.673-.783 1.918-1.874 3.943-2.707 5.027-1.182 1.538-2.57 3.018-3.596 3.837-.456.364-1.157.929-1.558 1.256-1.038.848-1.464.795-1.068-.132zm23.226-2.894c-2.247-1.002-3.969-2.274-3.969-2.932 0-.134-.193-.631-.429-1.105-.325-.65-.4-1.363-.31-2.922.106-1.832.22-2.2 1.025-3.305.498-.685 1.203-1.395 1.566-1.579.364-.184 1.037-.53 1.496-.77.46-.238 1.197-.434 1.638-.434.442 0 .878-.119.967-.265.09-.146 1.277-.264 2.646-.264 1.37 0 2.556.118 2.646.264.227.368 1.547.332 1.932-.052.846-.846-.006-4.428-1.356-5.701-1.758-1.658-4.17-1.997-7.91-1.113-.831.197-1.57.3-1.64.229-.072-.071-.208-.616-.303-1.21-.164-1.03-.13-1.103.716-1.527.718-.36 1.679-.446 5.006-.449 3.93-.003 4.178.028 5.424.686 2.258 1.192 3.268 2.678 3.794 5.582.166.916.29 4.797.29 9.062v7.458l-.727.003c-.4.002-1.383.179-2.183.394-2.065.554-9.04.52-10.319-.05zm9.044-2.754c.453-.243.49-.575.422-3.874l-.073-3.608-.926-.236c-.51-.13-1.04-.345-1.178-.479-.67-.65-4.877.104-6.69 1.2-.927.56-1.657 1.821-1.657 2.863 0 3.355 2.146 4.743 6.986 4.52 1.441-.066 2.843-.24 3.116-.386zm82.502 2.804c-.364-.208-.857-.382-1.096-.388-.239-.005-1.046-.559-1.794-1.231-1.238-1.114-1.724-1.89-2.629-4.202-.22-.56-.29-3.16-.24-8.863l.07-8.07 1.786-.078 1.786-.079v7.62c0 6.758.056 7.763.488 8.9.627 1.651 1.525 2.746 2.687 3.276 1.347.614 6.736.549 7.442-.09.467-.423.496-.99.496-9.647 0-5.058.072-9.386.16-9.616.118-.307.522-.417 1.522-.414.748.002 1.51.099 1.694.215.262.167.319 2.58.265 11.175l-.07 10.963-1.454.176c-.8.097-1.872.306-2.38.463-1.41.438-7.92.355-8.733-.11zM135.574 26.44V15.05h1.715c1.559 0 1.728.055 1.86.596.079.327.11 5.417.07 11.31l-.073 10.716-1.786.079-1.786.078zm38.023 11.2c-.103-.104-.188-5.097-.188-11.096 0-12.137-.15-11.229 1.859-11.229.561 0 1.094-.119 1.184-.265.098-.158 1.886-.264 4.473-.264 4.573 0 5.082.108 6.923 1.47.872.645 1.111.604 3.33-.57.386-.204.944-.371 1.24-.371.297 0 .613-.119.703-.265.094-.152 1.497-.264 3.309-.264 2.856 0 3.262.062 4.416.67 3.572 1.886 4.389 4.93 4.257 15.866l-.076 6.35-1.786.079-1.786.078-.016-6.56c-.009-3.61-.128-7.157-.265-7.884-.138-.728-.324-1.766-.415-2.307-.092-.548-.552-1.436-1.038-2.004-1.208-1.411-3.092-1.879-5.622-1.396-.975.186-2.23.633-2.791.994-.938.603-1.003.721-.817 1.493.112.461.213 4.589.226 9.173l.023 8.334-1.786.078-1.786.079-.015-7.884c-.016-8.591-.092-9.106-1.634-11.038-.551-.69-1.015-.934-2.302-1.207-1.775-.377-4.083-.24-5.231.31l-.74.354-.132 9.654-.133 9.654-1.598.077c-.88.043-1.683-.007-1.786-.11zM13.072 27.764c0-.153-.25-.28-.555-.28-.57 0-1.94-.67-2.568-1.256-.195-.182-.438-.33-.541-.33-.103 0-.54-.33-.973-.731-1.973-1.832-3.435-4.65-3.178-6.125.26-1.496 1.218-4.501 1.486-4.667.134-.083.244-.382.244-.664 0-.283.119-.514.264-.514.146 0 .265-.159.265-.353 0-.539 2.044-3.317 3.552-4.829 2.15-2.155 5.345-4.219 7.957-5.14 3.067-1.082 3.7-1.173 7.92-1.143 3.346.025 4.42.122 5.045.455.436.233 1.055.425 1.375.425.32.001 1.14.3 1.825.664.684.363 1.392.661 1.573.661.181 0 .392.163.468.362.107.279-.328.405-1.877.545-4.442.403-8.686 3.504-10.833 7.917-1.797 3.692-2.394 6.665-2.434 12.116l-.02 2.552-1.124.185c-2.07.34-7.871.45-7.871.15zM135.587 9.32c-.77-.98-.899-1.703-.454-2.56.539-1.04 1.222-1.48 2.31-1.49 2.075-.018 3.2 2.73 1.69 4.129-.994.92-2.79.88-3.546-.08z"/>
</svg>