<svg width="120" viewBox="0 0 360 64.821">
    <defs>
        <style>.logo-outline{fill:#fff;}</style>
        <style class="darkreader darkreader--sync" media="screen"></style>
    </defs>
    <g id="logo-layer" data-name="logo-layer">
        <g id="Logo_Main" data-name="Logo Main">
            <path class="logo-outline" d="M124.543,52.439l-2.809-8.219h-15.4c-.416,1.248-.832,2.7-1.352,4.162l-1.249,4.057H96.243L110.081,14.15h8.011l13.422,38.289ZM113.931,22.474c-.937,2.6-1.873,5.1-2.706,7.595s-1.768,5-2.809,7.8h11.029Z"></path>
            <path class="logo-outline" d="M153.884,14.254H139.838V52.439h6.451v-12.9h7.595c7.7,0,11.445-3.226,11.445-9.885v-5.41c0-6.659-3.745-9.885-11.445-9.989m-7.595,6.139h7.387c4.37,0,5.1,1.145,5.1,3.954v5.306c0,2.7-.729,3.954-5.1,3.954h-7.387Z"></path>
            <path class="logo-outline" d="M186.971,14.254H172.925V52.439h6.451v-12.9h7.595c7.7,0,11.445-3.226,11.445-9.885v-5.41c0-6.659-3.745-9.885-11.445-9.989m-7.595,6.139h7.387c4.37,0,5.1,1.145,5.1,3.954v5.306c0,2.7-.728,3.954-5.1,3.954h-7.387Z"></path>
            <polygon class="logo-outline" points="217.665 48.694 235.249 48.694 235.249 52.543 213.815 52.543 213.815 14.358 217.665 14.358 217.665 48.694"></polygon>
            <path class="logo-outline" d="M269.064,41.41c0,6.347-3.954,11.55-13.839,11.55s-13.838-5.2-13.838-11.55V25.179c0-6.347,3.954-11.549,13.838-11.549s13.839,5.2,13.839,11.549Zm-24.035,0c0,5.515,3.329,8.532,10.405,8.532s10.4-3.121,10.4-8.532V25.179c0-5.514-3.329-8.532-10.4-8.532s-10.4,3.122-10.4,8.532Z"></path>
            <polygon class="logo-outline" points="274.994 14.358 278.74 14.358 291.121 48.694 303.503 14.358 307.353 14.358 293.619 52.543 288.624 52.543 274.994 14.358"></polygon>
            <rect class="logo-outline" x="315.364" y="14.358" width="3.85" height="38.185"></rect>
            <polygon class="logo-outline" points="337.734 18.936 337.734 52.543 334.092 52.543 334.092 14.358 339.711 14.358 356.358 47.029 356.358 14.358 360 14.358 360 52.543 355.422 52.543 337.734 18.936"></polygon>
            <path class="logo-outline" d="M67.318,47.445a8.636,8.636,0,1,0,8.636,8.636,8.615,8.615,0,0,0-8.636-8.636m5.2,8.74a5.15,5.15,0,1,1-10.3-.1,5.15,5.15,0,1,1,10.3.1h0"></path>
            <path class="logo-outline" d="M8.636,47.445A8.7,8.7,0,0,0,0,56.185a8.636,8.636,0,0,0,17.272,0,8.7,8.7,0,0,0-8.636-8.74m5.2,8.74a5.2,5.2,0,0,1-5.2,5.1,5.2,5.2,0,0,1-5.1-5.2,5.15,5.15,0,1,1,10.3.1h0"></path>
            <path class="logo-outline" d="M37.977,0a8.636,8.636,0,1,0,8.636,8.636A8.615,8.615,0,0,0,37.977,0m5.2,8.636a5.1,5.1,0,1,1-5.1-5.1,5.106,5.106,0,0,1,5.1,5.1h0"></path>
            <path class="logo-outline" d="M64.2,48.486,45.052,13.942l-.208-.312-.208.312a7.381,7.381,0,0,1-2.393,1.977l-.208.1.1.208L59.1,46.821A100.116,100.116,0,0,0,38.289,44.74a93.034,93.034,0,0,0-21.434,2.081l16.96-30.486.1-.208-.208-.1a7.381,7.381,0,0,1-2.393-1.977l-.208-.312-.208.312L11.757,48.486l-.1.208.312.1c.937.312,1.769,1.456,2.6,2.185l.1.1.1-.1h.1a92.646,92.646,0,0,1,23.41-2.6,88.571,88.571,0,0,1,22.786,2.6l.1.208.208-.208h0c.833-.729,1.665-1.873,2.6-2.185l.313-.1Z"></path>
        </g>
    </g>
</svg>