<svg width="60" viewBox="0 0 135.6 96.9" xmlns="http://www.w3.org/2000/svg">
  <path fill="#aaa" d="M54.3 96.5c-1.6-.6-1.7-4.3-.2-5.9.9-1 .9-1 .9-8.8 0-4.4 0-8 .2-8.2.8-1.1 3.8-1.6 5-.7.7.4 1 21 .3 21.8-1.6 2-4.1 2.7-6.2 1.8zm68.3 0c-1.6-.9-1.8-4.4-.3-5.8.8-.8.8-.8 1-9 0-4.5.2-8.2.2-8.3 1.5-1 4.1-1.3 5.2-.4 1.2 1 .3 21.3-1 22.6-1.4 1.3-3.7 1.7-5.1.9zM43 93.7c-2.2-.4-3.8-2.2-5-5.7-3-9.7 2.2-18.8 9-15.5 3 1.5 3.8 3.2 4 8 .1 4.1-.3 4.6-4.4 4.6-2.6 0-2.7 0-3.1.7-1.2 1.8 2.3 3.6 4.5 2.2 1.2-.7 2.4-.1 2.8 1.4 1 3.2-2.6 5.2-7.8 4.3zm2.3-13.2c1-.7.9-2.1-.1-3.1-1.1-1.2-1.2-1.2-1.7 0-1 2.3.1 4.4 1.8 3.1zm20.4 13.2c-2.8-1-2.3-5.6.7-5.6 2.9 0 3.2-1.6.8-4.1-1-1-1.6-1.8-1.6-1.9l-.7-1.1c-1.1-1.5-1.1-4.9 0-6.1l.7-1.1c0-1.6 6.3-3 7.5-1.6 1.4 1.5.5 5-1.3 5-2.2 0-2 2 .5 4.5.8.9 1.5 1.7 1.5 1.9l.5 1.5c.7 1.3.6 4.2 0 5-.3.3-.5.7-.6 1-.6 2-5.2 3.4-8 2.6zm45.4 0c-1-.2-3.8-2.5-4-3.4l-1-2.5c-1.3-3.7-.8-9 1.2-13.2 2-4 8.8-3.4 10.9.8 2.8 5.6 1.4 9.7-3.3 9.7-2.6 0-2.8 0-3.2.7-1.1 1.8 1.9 3.4 4.2 2.3 1.7-.8 3-.2 3.3 1.7.5 3-3.2 4.8-8.1 4zm2.4-13.3c.9-1 .9-1.8 0-3-1-1.2-1.2-1.2-1.9 0-.8 1.6-.3 3.5 1 3.5.2 0 .7-.2 1-.5zM4.8 92.2c-.7-1.2-.9-1.7-1-4.1-.1-1.6-.5-3.9-.8-5.1a31 31 0 0 1-.8-4.5c0-1.2-.4-3.3-.8-4.6C0 67.8.1 66.6 3.2 66.6c3.4 0 3.5.3 3.8 7.3.1 5.2.5 6.5 1.6 6.5 1.6 0 2.2-6.2 1-10.1-1.1-3.3-.9-3.7 2.6-3.7 2.5 0 2.5 0 2.7 3.3.5 7.9 1.6 11.7 2.4 8 .4-1.9.6-4.3.8-6.8.1-4.1.5-4.5 3.8-4.5 2.7 0 3 1.3 1.8 5.9a34 34 0 0 0-1 4.6c-.1 1.3-.4 3-.6 3.8-.7 2.3-1 3.5-1 4.7 0 1.5-1.2 6.6-1.7 7.4-.5.7-3.9 1-4.3.3-.5-.8-1.6-4.6-1.7-5.6-.1-4.2-1.3-4.3-2-.2-.9 6.4-4.2 8.7-6.6 4.7zm23.5 1a54 54 0 0 1 .5-20.4c1.3-.5 3.7-.4 4.5.3.6.6.8 17.4.2 19.2-.4 1.3-3.7 2-5.2.9zm51.5-.2c-1-1.2-.6-25.3.3-26.2.9-.8 2.1-1 3.5-.2.9.4.9.4 1 6 .1 4.6.2 5.7.5 6 .5.2 1-.4 1.3-1.8 0-.5.3-1.3.5-1.7l.4-1c0-1 1.5-2 2.9-2 2.6 0 3.2 1.8 1.6 5.2l-.8 2c0 .2-.3.9-.7 1.5-.7 1.3-.7 1.9.2 3.6.3.5.5 1.2.5 1.4l.6 1.9c2 4.2 1.7 6-1.4 6-2 0-3.3-1.8-3.8-5.1-.7-4-1.8-3.4-1.8 1.1 0 3.6-.1 4-2.6 4-1.6 0-1.9-.2-2.2-.7zm16.7.2c-1.1-.8-.7-19.9.5-20.4 1.3-.5 3.8-.4 4.5.3 1 .8.7 19.3-.2 20-.7.6-4 .7-4.8.1zM28.9 70c-1.5-.9-1.6-2.7-.1-3.4 1.6-.8 4.4-.4 4.9.7 1 2.5-2.1 4.2-4.8 2.7zm27-.3c-2-1.7-.5-3.7 2.5-3.3 2.1.2 2.5.5 2.4 2-.2 2.2-3 3-4.8 1.3zm41.5.5c-2.6-1.2-1.5-4 1.6-4 1.1-.1 2.7.5 3 1.1.8 2.3-2 4-4.6 2.9zm27.4 0l-1-.7c-1.7-1.2.2-3.6 2.8-3.3 3.8.3 3.2 4.4-.7 4.4l-1-.3zm-68-6.7c-1.7-.5-1.8-3.5-.2-5 1.4-1.1 1.6-4.1.4-7.6-.4-1-.7-2.6-.8-3.6 0-1-.5-2.9-.9-4.3-.8-3.2-.6-3.6 1.9-3.8 3-.2 3.2.2 3.6 8.2.4 7.9 1.3 7.6 2-.7.6-7.2.7-7.6 3.2-7.6 2.8 0 3.2.8 2.1 4.6l-1 4.3a20 20 0 0 1-.7 3.4 16 16 0 0 0-.7 3.1c-.3 3-.8 4.8-2 7.3-.8 1.5-4.5 2.4-6.8 1.7zm-29.4-3c-2.6-.7-3-2-3-11.5-.1-9.7-.2-9.5 2.1-9.8 2.8-.4 3 .3 3.1 8.2 0 6.1.2 7.2 1.5 7.7 1.6.6 2-1.5 1.9-8.6-.2-7.3 0-7.6 3.3-7.3 2.5.1 2.3-.6 2.3 10.6 0 11.6.3 10.7-3.2 10.5l-3.3-.1c-.6 0-1.6 0-2.4.2-.8.2-1.6.2-2.3 0zm-25-.4A89 89 0 0 1 2 34c1.7-1.7 6.1-.5 6.7 1.8a110.3 110.3 0 0 0 1.4 5.7c0 2 1.4 1.8 1.7-.3l.8-3 .8-2.7c.3-1.5.9-2 3.4-2 3.8-.2 4.5.7 4 5.5-.3 2.3-.4 4-.1 7 .3 4.5.4 11.7 0 13-.1 1.2-1.4 1.8-3.6 1.6-2.2-.3-2.2-.2-2.2-6.7 0-6.8-.6-8.7-1.6-4.9-.3 1.2-1.4 3.3-2 4-.5.4-.8 0-1-1l-.8-1.7c-.4-.5-.8-1.4-1.1-2-1-2-1.3-.8-1.5 5.9 0 4.9-.2 6-.5 6.2-.6.4-3 .3-3.9-.2zm40.8.2c-1.3-.3-1.7-3-.6-4.7a8 8 0 0 0 .8-2.2c.1-.8.6-2 .9-2.5.3-.6.6-1.4.7-2 .1-.4.5-1.2.9-1.7 1.1-1.7.8-2.8-.9-2.8-2.6 0-4-3.4-1.8-4.7 4.7-2.8 11.2.4 9 4.5l-.8 2.2a11 11 0 0 1-1 2.5c-.4.8-.7 1.7-.7 2 0 .4-.2 1-.5 1.5-.8 1.4.3 3 2 2.8 1.6-.2 2.6 3.7 1.3 4.8-.4.4-8 .6-9.3.3zm30 0c-1.3-.2-1.3.2-1.3-13 0-14.3 0-13.7 2-14 3.2-.6 3.3-.4 3.1 6.3-.1 6.2 0 6.5 1.5 5.3 1-.7 1.3-1.5 1.4-2.5 0-1.8.2-2.4 1.3-2.9 2.6-1.1 5.2.2 4.1 2.3-.2.4-.5 1.3-.6 2a7 7 0 0 1-.9 2.2c-1 1.5-1.1 5.7-.1 6.8.4.5.8 1.7 1 2.9l.9 2c1 2.1.5 2.8-2 2.8-2.7 0-3.4-.5-3.7-3a7 7 0 0 0-.7-2.3l-1-1.5c-.8-1.4-1.1-.7-1.1 2.7 0 3.8-.7 4.6-3.8 4zm17.6 0a4 4 0 0 1-1-.4c-.4-.3-.2-19.8.1-20 1.2-.7 4.8-.5 5.4.4.6 1 .2 19.2-.5 19.6-.8.5-2.8.7-4 .4zm.1-23c-2.5-1.6-1.9-3.8 1.1-4.1 3.3-.4 4.7 1.7 2.5 3.7-1.4 1.4-2.2 1.5-3.6.5zm6-9.9c-2.8-1.5-2.8-1.8-2.8-11.6 0-10-.1-9.5 2.4-9.5 2.8 0 2.7-.3 2.7 7.2 0 6.8.1 7.7 1.5 8.4 1.4.8 1.5.2 1.7-7.7.1-8.4 0-8 3.3-7.8 3 0 2.7-.7 2.7 10.3 0 10.7.2 10-1.7 10.8-.9.3-1.4.3-4.1-.3-1.5-.3-1.7-.3-2.7.2-1.4.7-1.6.7-3 0zM.6 27c-.6-.7-.7-1-.5-1.8a552.8 552.8 0 0 0 2.1-12.3L3 9c.4-1.2.7-2.7.7-3.4 0-4.3 1-5.3 4.6-5.2 1.4 0 2.6.1 2.7.2.4.5 2 5.7 2.2 7.7l.5 3c.4 1.2.8 3.4 1.1 5.9.1 1.2.5 3.2 1 4.5 1.2 4.3.9 5.4-1.8 5.9-2.2.4-3.7-.5-3.7-2.3 0-3.3-3.8-3-4 .3-.2 2-4.1 3-5.7 1.5zm8-10.1c1.7-.6 1.7-4.1-.1-6.9-1-1.5-1.4-.7-1.6 3-.2 3.8.1 4.4 1.7 3.9zm13 10.6c-2.1-.1-2 .2-2-10.9 0-7.2 0-9.7.3-10 .4-.4 3.6-.4 4.5 0 .5.2.8.2 1.5-.2 1.7-.8 3 4.7 1.4 6.1-1.8 1.6-2.5 2.5-2.5 3v5.7c0 5.4-.3 6.6-1.6 6.5l-1.6-.2zm13.8-.2c-3-1-4.5-4.3-4.5-10.3C31 9.5 32.6 6.4 37.1 6c2.7-.3 3.7 3.4 1.4 5.3-1.4 1.2-1.8 2-1.8 4.8 0 3.9 0 3.7 1.5 5.2 3.3 3.3 1.4 7.4-2.8 6.1zm9.4.2c-1.5-.3-1.4.2-1.4-13.4C43.4-.5 43.2.4 45.8.3c2.2-.1 2.4 0 2.5 3 .2 3 1 3.7 3.7 2.7 4.6-1.7 8.7 18.6 4.2 21.1-3.5 2-4.3.7-4.4-7.4-.1-8.4-.4-9.3-2.4-7.5-1 1-1 1-1 7.7 0 8-.2 8.5-3.6 7.6zm17.5-.5c-1-1-1.1-19.6-.1-20.3.7-.5 4.2-.6 4.7 0 .6.5.4 19.8-.2 20.4-1 .8-3.5.8-4.4 0zM83 27c-1.1-.7-1.3-1-1.3-2.5 0-4-1.8-3.7-1.8.3 0 2.8-5.7 4.2-6.2 1.6l-.7-3.6-1-6.6c-.1-2-.4-4.5-.7-5.4-.9-4-.8-4.2 1.5-4.4 2.9-.3 3.4.8 3.9 8 .2 4.9.9 5.7 2 2.6.7-1.7.8-3 .3-5-1.2-4.3-.7-5.7 1.8-5.7 2.4 0 2.5 0 2.5 4.7 0 5.4.4 6.8 1.5 6.1 1-.6 1.4-2.4 1.4-6.6 0-4 .2-4.2 2.5-4.2 2.8 0 3.2 3.3 1.4 9.8l-.7 4c-.7 6.9-3 9.3-6.4 7zm31.6.5c-1.9-.5-2-.8-2-10.7 0-11.3-.3-10.5 5-10.5h5.3c1.9 0 2 0 3.7 1.2.2.2.5 0 1-.3 2.3-2.2 6-1.5 7.5 1.3.6 1.2.7 17.7 0 18.3-3.1 3.2-5 .5-5-7.1 0-6.7-.1-7.7-1.4-8.2-1-.4-1.3.9-1.5 8-.1 7.5-.3 8-2.9 8-2.7 0-2.7-.2-2.9-8-.2-8.4-.3-8.8-2.1-7.6-1 .6-1 .6-1 7.7-.2 8.6-.3 8.7-3.7 7.9zM62.4 4C60.7 2 62-.3 65 0c2.2.3 3.2 2.3 1.9 4-.7 1-3.6 1-4.4 0z"/>
</svg>