<svg width="120" viewBox="0 0 34 8.5" xmlns="http://www.w3.org/2000/svg">
    <path d="M3.71.321l-3.46.822.204.194h6.529l.136-.24zm7.013.043v.104c.416.08.484.061.484.5v2.571h.305V.855h.01l1.598 2.684h.465V.364h-.305v2.567h-.01L11.746.364zm3.667 0l-.02.685h.136c.03-.345.14-.463.523-.463h.334v2.953h.533V.586h.33c.372 0 .527.113.527.476h.136l-.02-.698zm3.284 0v.104c.446.07.46.07.46.538v2.533h1.932l.015-.684h-.135c-.03.368-.16.463-.436.463h-.538c-.242 0-.305-.01-.305-.274V1.992h.586c.29 0 .397.151.397.406h.136v-.991h-.136c-.03.155-.063.363-.397.363h-.586V.831c0-.226.063-.245.305-.245h.378c.32 0 .523.099.523.476h.136l-.015-.698zm3.192 0v.104c.45.07.46.07.46.538v2.533h.533V2.072h.3l.858 1.467h.557l-.892-1.552c.383-.061.741-.24.741-.778 0-.845-1.002-.845-1.365-.845zm3.493 0v.104c.416.08.484.061.484.5v2.571h.305V.855h.01l1.599 2.684h.464V.364h-.305v2.567h-.01L25.381.364zm3.647 0v.104c.446.07.46.07.46.538v2.533H30.4l.015-.684h-.136c-.03.368-.16.463-.436.463h-.538c-.242 0-.305-.01-.305-.274V1.992h.586c.291 0 .397.151.397.406h.136v-.991h-.136c-.03.155-.062.363-.397.363H29V.831c0-.226.063-.245.305-.245h.378c.32 0 .523.099.523.476h.136l-.015-.698zm3.212 0l-.02.685h.136c.03-.345.14-.463.523-.463h.334v2.953h.533V.586h.33c.372 0 .527.113.527.476h.136l-.02-.698zM8.58.397v.118c.344 0 .412.071.412.439v2.029c0 .368-.068.438-.412.438v.118h1.357v-.118c-.34 0-.412-.07-.412-.438V.953c0-.367.073-.438.412-.438V.397zm13.573.189h.03c.407 0 .707.141.707.651 0 .528-.44.613-.755.613h-.277v-.84c0-.329 0-.419.295-.424zM.528 1.521v.646h6.499v-.646zm.248.831l-.08.036-.036.625L.62 4.031v.973L.66 6.21l.045.817.116.033h.388l.11-.033.006-.817.039-1.212v-.973l-.039-1.012-.039-.622-.077-.039zm1.67 0l-.08.036-.035.625-.039 1.018v.973l.039 1.206.045.817.116.033h.388l.11-.033.006-.817.039-1.212v-.973l-.039-1.012-.039-.622-.077-.039zm2.136 0l-.08.036-.036.625-.039 1.018v.973l.039 1.206.045.817.117.033h.387l.11-.033.006-.817.04-1.212v-.973l-.04-1.012-.038-.622-.078-.039zm1.764 0l-.08.036-.036.625-.039 1.018v.973l.04 1.206.044.817.116.033h.388l.11-.033.006-.817.039-1.212v-.973l-.039-1.012-.039-.622-.077-.039zm12.066 2.51l-.86.114v.109c.386.05.41.094.41.486v2.681h.45v-1.62h1.113v1.62h.45V4.916h-.45V6.4h-1.113zm-2.496.04c-.912 0-1.14.733-1.14 1.635 0 1.115.318 1.765 1.206 1.765.421 0 .647-.114.785-.189v-.341a1.03 1.03 0 0 1-.716.252c-.568 0-.793-.704-.793-1.487 0-.62.098-1.397.7-1.397.441 0 .666.485.683.738h.118l-.024-.828a2.178 2.178 0 0 0-.819-.148zm-6.766.014v.11c.164.03.315.034.315.232 0 .035-.045.209-.07.293l-.814 2.701h.254l.307-1.03h1.043l.307 1.03h.425L9.92 4.916zm2.553 0v.11c.38.074.389.074.389.565v2.661h.45V6.711h.253l.725 1.541h.47l-.753-1.63c.323-.065.626-.253.626-.818 0-.887-.847-.888-1.154-.888zm10.988 0v.11c.327.074.364.074.495.525l.802 2.701h.356l.998-3.336h-.266l-.781 2.717h-.009l-.801-2.717zm3.437 0v.11c.376.074.388.074.388.565v2.661h1.632l.013-.719h-.115c-.025.387-.135.486-.368.486h-.454c-.205 0-.258-.01-.258-.287V6.626h.495c.246 0 .336.16.336.427h.114V6.012h-.114c-.025.164-.054.381-.336.381h-.495v-.986c0-.238.053-.257.258-.257h.319c.27 0 .442.103.442.5h.115l-.013-.734zm-5.368.035v.124c.29 0 .348.074.348.461v2.131c0 .387-.057.461-.348.461v.124h1.146v-.124c-.287 0-.348-.074-.348-.46V5.535c0-.387.061-.46.348-.46V4.95zm-7.97.199h.026c.343 0 .597.148.597.684 0 .555-.372.644-.638.644h-.234v-.882c0-.346 0-.44.25-.446zm-3.141.39l.466 1.448h-.904zM.529 7.337v.461h6.498v-.461zm-.28.554v.369h7.056V7.89z" fill="#7b7b79" fill-rule="evenodd"/>
</svg>