<svg width="120" height="24,977" viewBox="0 0 79.205 16.486" xmlns="http://www.w3.org/2000/svg">
   <g stroke-width=".265">
      <path d="M35.396 2.778c-.507 0-.53.177-.53 4.234v4.233l1.654-.001c2.043-.001 3.186-.613 3.624-1.94.632-1.915-.849-3.615-3.147-3.615h-1.072V4.234c0-1.28-.064-1.456-.53-1.456zm26.855 0c-.304 0-.397.335-.397 1.423v1.422l-1.5.124c-1.27.105-1.614.253-2.249.963-1.245 1.395-.762 3.587.942 4.276.307.124 1.243.233 2.08.242l1.52.017V7.012c0-3.587-.06-4.234-.396-4.234zm-50.932.3a.92.92 0 0 0-.331.054c-.182.073-.033.134.33.134.365 0 .513-.06.331-.134a.92.92 0 0 0-.33-.055zm50.411.214c-.034 0-.057.341-.058.942-.002.872.046 1.262.107.864.06-.397.061-1.112.002-1.587-.018-.149-.036-.22-.05-.22zm-50.488.035c-.5-.019-.96.2-1.424.664-.621.62-.668.813-.515 2.114.143 1.218.088 1.511-.364 1.963-.292.292-.746.531-1.01.531-.632 0-1.59.913-1.789 1.702-.17.68.248 1.674.923 2.192.67.515 1.7.391 2.667-.321-.154.137-.263.256-.263.296 0 .217.217.078.563-.363.08-.101.137-.177.176-.231.396-.215.813-.364 1.06-.364.35 0 .992.297 1.424.661.957.805 2.027.845 2.959.113.984-.775.984-2.362 0-3.137-.384-.301-.86-.548-1.059-.548-.198 0-.606-.246-.907-.546-.46-.461-.522-.76-.392-1.918.165-1.464-.053-1.965-1.095-2.52-.339-.18-.654-.277-.954-.288zm20.295.237c-.205-.003-.375.226-.375.73 0 .918-.425 1.395-1.243 1.395-.425 0-.609.154-.609.512 0 .385.215.533.86.595l.86.083.051 1.45c-.052-.41-.094.034-.094 1.064 0 1.091.046 1.538.104.992.022-.217.034-.492.038-.775.065 1.437.157 1.635.563 1.635.453 0 .516-.234.585-2.183l.076-2.183.86-.083c.635-.061.86-.212.86-.578s-.225-.518-.86-.579c-.76-.073-.875-.19-.992-1.006-.097-.678-.42-1.065-.684-1.069zm-.515.217c-.04-.01-.069.152-.072.453-.006.436.049.646.121.467.073-.179.077-.536.01-.794-.02-.08-.041-.12-.06-.126zm31.784.536c-.03-.024-.05.969-.05 2.695 0 2.4.04 3.383.089 2.183.049-1.201.049-3.166 0-4.366-.014-.338-.027-.503-.039-.512zm-15.24 1.141a.92.92 0 0 0-.33.055c-.182.073-.033.134.33.134.364 0 .513-.06.331-.134a.92.92 0 0 0-.33-.055zm6.35 0a.92.92 0 0 0-.33.055c-.182.073-.033.134.33.134.364 0 .513-.06.331-.134a.92.92 0 0 0-.33-.055zm12.7 0a.92.92 0 0 0-.33.055c-.182.073-.033.134.33.134.364 0 .513-.06.331-.134a.92.92 0 0 0-.33-.055zm.146.19c-1.432-.028-2.791 1.098-2.791 2.63 0 1.137.74 2.324 1.69 2.708.307.124 1.124.233 1.815.242 1.086.014 1.257-.055 1.257-.512 0-.464-.176-.53-1.436-.53-1.374 0-2.268-.424-2.268-1.077 0-.135.953-.245 2.117-.245 1.957 0 2.116-.041 2.116-.543 0-.765-.705-2.037-1.308-2.36a2.628 2.628 0 0 0-1.192-.313zm-40.891.014v2.791c0 2.305.069 2.792.397 2.792.316 0 .398-.391.4-1.918.003-1.055.093-2.058.202-2.228.108-.17.612-.349 1.12-.397.606-.057.923-.224.923-.484 0-.298-.38-.417-1.52-.476zm15.61 0v2.791c0 2.305.07 2.792.397 2.792.317 0 .397-.394.397-1.952 0-2.13.176-2.444 1.455-2.589.49-.055.794-.241.794-.486 0-.298-.38-.417-1.521-.476zm6.209.026c-1.18-.037-2.337.751-2.635 2.11-.25 1.134.476 2.6 1.51 3.048.478.208 1.444.382 2.146.388 1.075.009 1.262-.062 1.188-.452-.069-.361-.407-.481-1.538-.545-1.345-.076-2.382-.577-2.382-1.15 0-.123 1.025-.223 2.277-.223 1.968 0 2.256-.057 2.117-.419a2.742 2.742 0 0 1-.16-.814c0-.218-.348-.744-.774-1.17a2.571 2.571 0 0 0-1.75-.773zm-25.007 0c-1.996 0-3.08.531-3.593 1.76-.522 1.25-.093 2.588 1.053 3.287.586.357 1.323.508 2.487.509l1.653.001V5.69zm31.198 0c-2.745 0-3.725 3.876-1.287 5.094.509.254 1.491.462 2.182.463 1.081 0 1.257-.075 1.257-.53 0-.465-.176-.529-1.455-.529-1.156 0-1.577-.122-2.05-.595l-.596-.595 2.315-.076c2.474-.082 2.569-.15 2.067-1.469-.415-1.093-1.34-1.762-2.433-1.762zm16.44 0v2.779c0 2.583.037 2.778.519 2.778.466 0 .526-.218.595-2.18l.076-2.178.996-.161c2-.324 1.578-1.037-.614-1.037zm-41.442.028c-.06-.021-.038.08.052.315.099.26.247.407.329.326.081-.081 0-.295-.181-.474-.098-.098-.164-.154-.2-.167zm17.09.236c-.032.009-.137.088-.32.232-.255.2-.464.408-.464.463 0 .218.218.078.564-.363.185-.236.263-.342.22-.332zm3.185 0c-.014.015.067.122.231.332.2.254.408.463.463.463.218 0 .078-.217-.363-.563-.21-.165-.317-.245-.33-.231zm3.175 0c-.014-.013-.12.067-.33.232-.255.2-.464.408-.464.463 0 .218.218.077.564-.363.164-.21.244-.317.23-.331zm-4.63.53c.728 0 1.831.93 1.582 1.333a.137.137 0 0 1-.032.033c-.046-.157-1.689-.126-2.873.064-.291.047.208.102 1.109.122.489.01.942-.007 1.268-.041-.937.139-2.774.075-2.774-.188 0-.505 1.062-1.322 1.72-1.322zm6.085 0c.658 0 1.72.818 1.72 1.323-.002.263-1.837.327-2.773.188.326.034.779.052 1.268.04 1.71-.037 1.447-.151-.652-.283-.626-.04-1.098.004-1.114.097a.134.134 0 0 1-.03-.032c-.25-.404.853-1.332 1.581-1.332zm-5.975.033a.729.729 0 0 0-.292.051c-.211.085-.148.147.16.16.28.011.435-.051.347-.14-.044-.043-.123-.067-.215-.07zm6.086 0a.729.729 0 0 0-.293.051c-.21.085-.148.147.16.16.28.011.436-.051.348-.14-.044-.043-.123-.067-.215-.07zm12.64.02c.821-.026 1.67.474 1.67 1.225 0 .202-.552.31-1.588.31-1.71 0-2.018-.322-1.104-1.15a1.58 1.58 0 0 1 1.022-.385zm-42.101.176c-.03.018-.051.655-.052 1.756 0 1.6.043 2.29.096 1.53a26.68 26.68 0 0 0 .001-2.91c-.016-.263-.032-.383-.045-.376zm1.323 0c-.03.018-.051.655-.052 1.756 0 1.6.043 2.29.096 1.53a26.68 26.68 0 0 0 .001-2.91c-.016-.263-.032-.383-.045-.376zm15.61 0c-.03.018-.05.655-.051 1.756 0 1.6.042 2.29.095 1.53a26.68 26.68 0 0 0 .002-2.91c-.017-.263-.032-.383-.046-.376zm-3.65.036c1.476 0 2.184 1.844 1.118 2.91-1.128 1.13-2.91.372-2.91-1.236 0-1 .721-1.674 1.792-1.674zm22.326 0a1.75 1.75 0 0 1 1.776 1.795.724.724 0 0 0-.049-.257c-.084-.211-.147-.149-.16.16-.01.279.052.435.14.347.03-.03.05-.077.061-.133a1.646 1.646 0 0 1-.486.999c-1.091 1.09-2.977.336-2.977-1.191 0-.925.784-1.72 1.695-1.72zm-38.375.011c.416-.002.82.143 1.12.473.58.642.556 1.972-.047 2.518-1.065.963-2.956.143-2.956-1.282 0-.996.968-1.706 1.883-1.709zm-10.626.783c.565 0 1.216.072 1.446.16.57.219.524 1.118-.108 2.155-.749 1.228-1.589 1.16-2.349-.192-.795-1.416-.458-2.123 1.011-2.123zm.277.03c-.216 0-.432.016-.596.047-.327.063-.06.115.596.115.654 0 .922-.051.595-.115a3.337 3.337 0 0 0-.595-.047zm55.298.263c-.312 0-.624.015-.86.044-.473.059-.086.107.86.107.945 0 1.332-.048.86-.107a7.43 7.43 0 0 0-.86-.044zm-39.807.16c-.032.006-.054.466-.055 1.267 0 1.164.045 1.673.102 1.13a13.22 13.22 0 0 0 .002-2.116c-.018-.194-.034-.285-.049-.281zm15.61 0c-.031.006-.053.466-.054 1.267-.001 1.164.044 1.673.101 1.13a13.22 13.22 0 0 0 .002-2.116c-.017-.194-.034-.285-.048-.281zm29.103.175c-.033.028-.055.474-.055 1.224 0 1.091.047 1.538.104.992.057-.546.057-1.439 0-1.984-.018-.17-.035-.244-.05-.232zm-2.666 2.14c-.048-.018-.082.134-.082.407 0 .364.06.513.133.33.074-.181.074-.479 0-.66-.018-.046-.035-.071-.051-.077zm-60.47 2.556a.728.728 0 0 0-.293.051c-.211.085-.148.147.16.16.28.011.435-.051.348-.14-.044-.043-.124-.067-.215-.07zm6.085 0a.728.728 0 0 0-.293.051c-.21.085-.148.147.16.16.28.011.436-.051.348-.14-.044-.043-.123-.067-.215-.07z" fill="#f0eefb"/>
      <path d="M5.586 16.049C-1.397 13.625-1.978 3.996 4.662.735L6.16 0H73.1l1.497.735c1.727.849 3.214 2.376 4.018 4.127.787 1.714.787 4.966 0 6.68-.804 1.752-2.29 3.278-4.018 4.127l-1.498.735-33.073.06c-31.21.056-33.15.033-34.44-.415zm3.654-3.237c.292-.156.76-.513 1.04-.793.677-.677.962-.642 2.335.289 1.465.993 2.241.996 3.222.015 1.04-1.04 1.04-2.175 0-3.215-.425-.426-1.006-.774-1.29-.774-.86 0-1.2-.671-1.017-2.006.203-1.481-.284-2.551-1.364-2.999-1-.414-2.044-.133-2.726.734-.45.573-.52.93-.39 2.02.19 1.604.07 1.813-1.378 2.391-1.281.513-1.645 1.023-1.645 2.306 0 1.733 1.729 2.826 3.213 2.032zm1.492-2.56c-1.42-1.627-1.235-2.447.55-2.447 1.655 0 1.9.482.967 1.894-.758 1.144-.942 1.212-1.517.554zm13.816-1.785V5.689h-2.137c-2.01 0-2.183.046-2.91.773-.634.633-.774.997-.774 2.005s.14 1.371.774 2.004c.727.728.9.774 2.91.774h2.137zm-3.44 1.536c-.598-.214-1.058-.903-1.058-1.587 0-.695.856-1.67 1.467-1.67.535 0 1.708 1.182 1.708 1.72 0 .443-1.148 1.735-1.51 1.7a3.434 3.434 0 0 1-.607-.163zm5.821-.69c0-1.15.129-2.06.318-2.249.33-.33 2.505-.436 3.233-.157.332.128.418.59.418 2.25 0 2.05.012 2.088.662 2.088.645 0 .661-.048.661-1.932 0-2.068.241-2.566 1.244-2.566.432 0 .608-.153.608-.53 0-.346-.176-.528-.51-.528-.703 0-1.342-.703-1.342-1.475 0-.509-.138-.642-.661-.642-.549 0-.662.127-.662.74 0 1.183-.416 1.377-2.963 1.377h-2.329v5.556h.662c.645 0 .661-.048.661-1.932zm12.72 1.158c.634-.633.774-.996.774-2.004s-.14-1.372-.773-2.005c-.67-.67-.971-.773-2.25-.773h-1.475V4.233c0-1.278-.064-1.455-.529-1.455-.507 0-.53.177-.53 4.233v4.234h2.006c1.862 0 2.059-.055 2.778-.774zm-3.058-.918c-.835-.835-.84-1.334-.016-2.157.787-.787 1.298-.818 1.996-.12.934.935.555 2.389-.723 2.768-.431.128-.771-.005-1.257-.49zm5.949-.26c0-2.13.176-2.444 1.453-2.589.498-.056.824-.261.879-.552.077-.406-.144-.463-1.784-.463h-1.871v5.556h.661c.646 0 .662-.047.662-1.952zm7.408 1.423c0-.456-.176-.53-1.264-.53-1.215 0-2.44-.538-2.44-1.073 0-.137.952-.25 2.117-.25 2.07 0 2.116-.014 2.116-.648 0-2.188-2.215-3.438-4.238-2.391-1.008.52-1.318 1.144-1.318 2.646 0 1.005.14 1.369.773 2.001.698.698.943.774 2.514.774 1.564 0 1.74-.054 1.74-.53zm-3.44-3.44c.347-.647 1.632-.712 2.23-.113.23.228.416.466.416.529 0 .062-.659.113-1.464.113-1.383 0-1.449-.03-1.182-.529zm9.525 3.472c0-.412-.253-.517-1.494-.62-1.065-.088-1.602-.27-1.865-.628-.354-.483-.282-.507 1.76-.581l2.129-.077-.006-.849c-.019-2.623-3.965-3.544-5.174-1.208-.653 1.264-.488 2.802.397 3.686.698.698.943.774 2.513.774 1.526 0 1.74-.061 1.74-.497zM52.33 7.692c0-.063.187-.3.416-.53.599-.598 1.884-.533 2.23.114.267.5.201.53-1.181.53-.806 0-1.465-.052-1.465-.114zm10.584-.68V2.777h-.662c-.625 0-.661.08-.661 1.455V5.69l-1.39.006c-1.467.006-2.268.432-2.813 1.498-.609 1.191-.25 2.683.86 3.583.425.344 1.073.459 2.615.463l2.05.006zm-3.849 2.525c-.823-.823-.819-1.322.017-2.157.722-.722 1.559-.682 2.178.106.652.829.375 1.86-.644 2.396-.775.408-.805.401-1.55-.345zm9.934 1.179c0-.458-.176-.53-1.308-.53-1.014 0-1.475-.146-2.05-.653l-.743-.653 2.348-.008 2.348-.008-.169-.846c-.37-1.849-1.594-2.766-3.322-2.49-1.804.287-2.867 2.353-2.128 4.136.46 1.11 1.42 1.558 3.37 1.57 1.481.01 1.654-.044 1.654-.518zm-3.704-3.122c0-.429.654-.847 1.323-.847.669 0 1.323.418 1.323.847 0 .116-.596.211-1.323.211-.728 0-1.323-.095-1.323-.211zm6.35 1.562c0-2.232.109-2.41 1.477-2.41.463 0 .64-.145.64-.528 0-.475-.177-.53-1.72-.53h-1.72v5.557h.661c.65 0 .662-.037.662-2.089z" fill="#3a384a"/>
   </g>
</svg>