<svg width="100" viewBox="0 0 268.23 62.99">
    <path d="M32.98 50.16h-9a12.74 12.74 0 0 1-.9-3q-3.37 3.72-10.76 3.73a14.25 14.25 0 0 1-8.42-2.35 9.21 9.21 0 0 1-3.86-8c0-5 2-8.46 5.9-10.35q2.7-1.3 11-2.35c3.94-.5 5.9-1.56 5.9-3.17a4 4 0 0 0-1.78-3.41 6.86 6.86 0 0 0-4.13-1.27 6.71 6.71 0 0 0-4.16 1.31 5.56 5.56 0 0 0-2.23 4.07h-9.3a15.61 15.61 0 0 1 2.1-7.24 11.27 11.27 0 0 1 5.7-4.28 23.25 23.25 0 0 1 8.27-1.38q15.66.14 15.67 15zM22.7 32.26a12.05 12.05 0 0 1-5.11 1.86 21.44 21.44 0 0 0-5.38 1.45 4.69 4.69 0 0 0-2.55 4.55c0 2.76 1.44 4.14 4.34 4.14a10.31 10.31 0 0 0 4.14-1 8.62 8.62 0 0 0 3.24-2.24 8.28 8.28 0 0 0 1.45-5.31c0-.42 0-1-.07-1.8s-.06-1.32-.06-1.65zM58.02 22.42a17.87 17.87 0 0 0-2.69-.2q-8.87.04-8.87 8.83v19.11H36.7V13.38h9.18v2.88a6.6 6.6 0 0 0 .07 1.59 1 1 0 0 1 .2-.14 20.78 20.78 0 0 1 4.31-3.77 12.57 12.57 0 0 1 6.28-1.38h1.31zM90.46 31.46a47.54 47.54 0 0 1-.55 8.35 14.65 14.65 0 0 1-3.26 7.45q-3.93 4.27-11 4.28a17 17 0 0 1-8-1.87 12 12 0 0 1-5.59-5.72 18.85 18.85 0 0 1-1.45-7.52V3.52h9.66v9.86h20.19v7H70.23v15.08a16.94 16.94 0 0 0 .41 4.28q1 3.31 5.11 3.31a4.77 4.77 0 0 0 3.71-1.45c1.3-1.34 2-4.34 2-8.9v-6.69h9z" fill="#bf311a"/>
    <path d="M103.21 9.04h-9.75v-9h9.73zm0 41.12h-9.75V13.38h9.73zM140.74 50.16h-9.73V27.94q0-3.85-1.17-5.45c-1-1.24-2.69-1.86-5.18-1.86q-7.51 0-7.52 8.48v21.05h-9.68V13.38h9.38v3.45a10.52 10.52 0 0 0 .07 2s0-.07.07-.07a11.85 11.85 0 0 1 4.91-4.73 14.31 14.31 0 0 1 6.78-1.69q7.29 0 10.59 5.73a13.55 13.55 0 0 1 1.52 6.62zM163.78 20.35h-6.32v29.81h-9.59V20.35h-5.38v-7h5.38q0-13.38 15.6-13.38v7.87q-3.66 0-4.83 1.17c-.79.78-1.18 2.23-1.18 4.34h6.28zM202.46 31.77q0 8.75-5 14t-13.66 5.26q-8.76 0-13.83-5.33t-5.08-13.95q0-8.67 5-14t13.87-5.34q8.83 0 13.87 5.44 4.83 5.32 4.83 13.92zm-9.86 0q0-11.19-8.83-11.18t-8.9 11.18q0 11.17 8.9 11.17t8.85-11.13zM215.94 50.02h-10.42V39.95h10.42zM255.75 32.05q0 7.84-3.54 13a13.46 13.46 0 0 1-11.65 6h-.1a12.38 12.38 0 0 1-10.75-5.72v17.66h-9.66V13.38h9.41v2.88a8.54 8.54 0 0 0 .07 1.73l.07-.07a11.22 11.22 0 0 1 10.21-5.66 14.76 14.76 0 0 1 8.59 2.76 15.29 15.29 0 0 1 5.66 7 27.08 27.08 0 0 1 1.69 10.03zm-10 0q0-11.28-8.35-11.28-8.13 0-8.14 11.83a11.65 11.65 0 0 0 2.56 7.91 7.24 7.24 0 0 0 5.64 2.68 7.07 7.07 0 0 0 5.66-2.75c1.75-2.07 2.62-4.86 2.62-8.39zM268.23 50.16h-9.77V.55h9.73z" fill="#e7ac93"/>
</svg>