<svg width="40" viewBox="0 0 85 107">
    <path d="M28 91c-5-4-7-14-5-20 4 4 9 5 14 6 7 1 15 1 22-3l3-1v6c0 5-3 8-7 11l-4 3c-5 4-7 8-5 13v1l-5-5c-2-2-2-5-3-7v-4c0-4-2-5-4-5-3 0-6 2-6 4v1z" fill="#fff"/>
    <path d="M28 91c-5-4-7-14-5-20 4 4 9 5 14 6 7 1 15 1 22-3l3-1v6c0 5-3 8-7 11l-4 3c-5 4-7 8-5 13v1l-5-5c-2-2-2-5-3-7v-4c0-4-2-5-4-5-3 0-6 2-6 4v1z" fill="url(#astro_pl_1)"/>
    <path d="M0 70s14-7 29-7l10-34 3-3c2 0 3 2 3 3l11 34c17 0 29 7 29 7L60 3c0-2-1-3-3-3H28c-2 0-3 1-4 3L0 70z" fill="#fff"/>
    <defs>
        <linearGradient id="astro_pl_1" x1="22.5" y1="107" x2="69.1" y2="84.9" gradientUnits="userSpaceOnUse">
            <stop stop-color="#D83333"/>
            <stop offset="1" stop-color="#F041FF"/>
        </linearGradient>
    </defs>
</svg>