<svg width="110" viewBox="0 0 105.5 28.5" xmlns="http://www.w3.org/2000/svg">
  <path d="M27.4 26.5c-1.6-1.7-1.8-2-1.8-3 0-.8.1-1.1.9-1.9l1-1c0-.2-1.5-.3-3.2-.3h-3l-3.6-3A27785.3 27785.3 0 0 0 0 2C.2 2 13.3 4.7 15.3 5.2c1.4.5 3.2 1.5 8.5 5 3.7 2.5 7 4.6 7.3 4.6.3 0 1.3-1.4 3.4-4.7A100 100 0 0 1 41.1 0c.3 0 .2 5.4 0 7.5-.2.8-1.4 3-4.4 8.1l-4 7 .2 2.3.5 3c.1.6.1.6-2 .6h-2zm25.1-12.4V9.7h3.1c3.4.2 4.2.5 4.5 1.6.3 1 .1 1.7-.5 2.2l-.5.5.7.5c.6.5.7.8.6 1.7-.1 1.7-.9 2.1-4.7 2.2l-3.2.1zm5.8 3c.8-.3.9-.4.8-1.2 0-1.2-.5-1.3-3.3-1.4h-2v2.9h1.9c1 0 2.2-.1 2.6-.3zm.4-4.2c1-1.3-.3-2.1-3.2-2.1H54v2.6H56c2 0 2.3 0 2.6-.5zm6 1.2V9.7H66v8.8H64.7zm6 4l-.1-4.3v-4H74c3.3 0 3.4 0 3.4.5s-.2.5-2.8.5H72v2.6h2.5c2.2.2 2.6.2 2.7.6 0 .4-.2.5-2.6.5H72v2.9h2.7c2.6 0 2.8 0 2.8.5s-.2.6-3.3.6c-2.5 0-3.4-.1-3.5-.4zm11-4V9.7h.5c.6.2.6.3.7 3.8v3.6h2.7c2.7 0 2.7 0 2.7.7v.7H81.6zm10 0V9.7H93v8.8H91.7zm5.8 0V9.7h.6c.5.2.6.3.7 2l.2 1.7 2.4-1.8c2-1.6 2.6-1.9 3.3-1.8.8 0 .7.2-1.9 2l-2.6 2.2 2.8 2.3c2.7 2 2.8 2 2 2.1-.7 0-1.3-.2-3.3-1.8L99 14.8s-.2.8-.2 1.7c0 1.7-.1 1.8-.7 2h-.6z" fill="#f56954"/>
</svg>