<svg width="60" height="auto" viewBox="0 0 379 134" xmlns="http://www.w3.org/2000/svg" fill-rule="evenodd" clip-rule="evenodd" stroke-linejoin="round" stroke-miterlimit="1.414">
    <g fill="#2a3f90" fill-rule="nonzero">
        <path d="M378.7 31.5H359l-11.4 48.1-1.6 6.6c-1.1.3-2.2.6-3.3.8-2 .4-4.1.6-6.3.6-2.5 0-4.5-.4-6-1.1-1.4-.7-2.5-1.7-3.1-3.1-.6-1.3-.8-2.9-.7-4.7.1-1.8.5-3.8 1-5.8l6-25 3.9-16.6h-20.1l-9.1 38.4c-1.1 4.6-1.7 9-1.9 13.2-.2 4.2.5 7.8 1.9 11.1 1.4 3.2 3.9 5.7 7.3 7.6 3.4 1.9 8.3 2.8 14.5 2.8 4.3 0 8.1-.4 11.3-1.1.1 0 .3-.1.4-.1-.9 4-2.7 7.2-5.5 9.7-2.9 2.5-7.1 3.8-12.7 3.8-2.4 0-4.6-.1-6.6-.4l-3.9 16.3c2.6.3 5.5.5 8.7.5 6 0 11.2-.7 15.7-2 4.5-1.4 8.3-3.4 11.6-6.2 3.2-2.8 5.9-6.3 8.1-10.4 2.2-4.2 3.9-9.1 5.2-14.9L376 42.4l2.7-10.9zM296.2 72.6c-1.2 5-1.6 10.1-1.1 15.1.5 5.1 2.5 12.8 4.4 16.7h-19c-2.3-3.9-2.2-5.8-2.7-7-2.5 2-5.2 3.7-8.2 5-3 1.3-6.3 2-10.1 2-4.4 0-8.2-.8-11.3-2.3-3.1-1.5-5.7-3.6-7.7-6.2s-3.4-5.6-4.3-9.1c-.9-3.5-1.3-7.2-1.3-11.2 0-6.1 1.1-11.8 3.2-17.2 2.2-5.4 5.2-10.1 9-14.1s13.1-12.9 28.3-12.9h30.5l-9.7 41.2zm-13.9-24.5c-9.2 0-10.9 0-14.7 1.9-2.7 1.4-4.9 3.5-6.8 5.9-1.9 2.4-3.5 5.2-4.6 8.4-1.1 3.2-1.7 6.5-1.7 9.9 0 4.2.7 7.6 2.1 10.1 1.4 2.5 4 3.7 7.8 3.7 2 0 3.9-.4 5.5-1.2 1.6-.8 3.4-2.1 5.2-4 .2-2.2.5-4.5.9-6.9.4-2.4.9-4.7 1.3-6.7l5-21.1M229.5 60.4c0 6.5-1.1 12.4-3.2 17.8s-5.1 10-8.9 13.9c-3.8 3.9-8.3 6.9-13.6 9.1-5.3 2.2-11 3.3-17.2 3.3-3 0-6-.3-9.1-.8l-6 24.1h-19.7l22.9-96.2H201c5 0 9.3.8 12.8 2.3 3.6 1.5 6.5 3.6 8.9 6.2 2.3 2.6 4 5.7 5.1 9.2 1.2 3.4 1.7 7.1 1.7 11.1zm-48.3 27.3c1.5.4 3.4.5 5.6.5 3.5 0 6.6-.6 9.5-1.9 2.8-1.3 5.3-3.1 7.3-5.4 2-2.3 3.5-5.1 4.7-8.3 1.1-3.2 1.7-6.8 1.7-10.7 0-3.8-.8-7.1-2.5-9.7-1.7-2.7-4.6-4.1-8.8-4.1h-7.8l-9.7 39.6zM139.8 87.7c-2.5 0-4.5-.4-6-1.1-1.4-.7-2.5-1.7-3.1-3.1-.6-1.3-.8-2.9-.7-4.7.1-1.8.5-3.8 1-5.8l6-25h22.4l4.1-16.6H141l5.2-21-21 3.3-13.3 56.2c-1.1 4.6-1.7 9-1.9 13.2-.2 4.2.5 7.8 1.9 11.1 1.4 3.2 3.9 5.7 7.3 7.6 3.4 1.9 8.3 2.8 14.5 2.8 4.3 0 8.1-.4 11.3-1.1.3-.1.8-.2 1.1-.3l4.1-17.1c-1.4.5-2.8.8-4.1 1-2 .4-4.1.6-6.3.6zM89.7 31.5l-17.4 73H92l17.3-73H89.7zM111.4 23.1l3-12.7H94.7l-3 12.7h19.7zM46.1 31.6c4.2 0 7.9.8 11 2.3 3.1 1.5 5.6 3.5 7.7 6.1 2 2.6 3.5 5.6 4.5 9 1 3.4 1.5 7.1 1.5 11.1 0 6.1-1.1 11.8-3.4 17.3-2.3 5.4-5.3 10.2-9.2 14.2-3.9 4-8.5 7.2-13.8 9.5-5.3 2.3-11 3.5-17.2 3.5-.8 0-2.2 0-4.2-.1-2 0-4.3-.2-6.8-.6-2.6-.4-5.3-.9-8.1-1.6-2.9-.7-5.6-1.7-8.1-2.9L22.9 3.2 43.4 0l-8.1 34.1c1.8-.8 3.4-1.4 5.2-1.8 1.7-.5 3.6-.7 5.6-.7zM28.9 88.2c3.1 0 6-.7 8.7-2.3 2.7-1.5 5.1-3.5 7.1-6s3.6-5.4 4.7-8.5c1.1-3.2 1.7-6.5 1.7-9.9 0-4.2-.7-7.5-2.1-9.9-1.4-2.4-4.3-3.5-8.1-3.5-1.2 0-2.5.1-4.5.6-2 .4-3.7 1.4-5.3 2.8l-8.6 36.3c2.6.4 5.4.4 6.4.4z"/>
    </g>
</svg>