<svg width="120" height="29.09" viewBox="0 0 198 48" fill="none">
    <path d="M64.1094 34.6275V13.5003H74.1867C76.2704 13.5003 77.8963 13.9829 79.0646 14.9483C80.2721 15.9531 80.8756 17.3025 80.8756 18.9965C80.8756 21.0058 79.9019 22.3848 77.9546 23.1333V23.2221C79.1035 23.5767 80.014 24.2168 80.6856 25.1426C81.3573 26.0686 81.6933 27.1519 81.6933 28.3929C81.6933 30.4416 80.9824 32.0175 79.561 33.1209C78.2952 34.1254 76.5817 34.6278 74.4202 34.6278H64.1094V34.6275ZM69.2212 30.4315H73.8363C74.6736 30.4315 75.3406 30.2051 75.8372 29.7518C76.3339 29.2988 76.582 28.6979 76.582 27.9491C76.582 27.1415 76.3192 26.516 75.7933 26.0728C75.2674 25.6296 74.5958 25.4078 73.7778 25.4078H69.2212V30.4313V30.4315ZM69.2212 21.8623H73.4272C74.1866 21.8623 74.7951 21.6752 75.2528 21.301C75.7102 20.9268 75.9391 20.4045 75.9391 19.7349C75.9391 19.0847 75.7152 18.5726 75.2671 18.1984C74.8194 17.8241 74.2156 17.637 73.4562 17.637H69.2209V21.8626L69.2212 21.8623ZM83.4463 34.6272V13.5H88.2657V34.6272H83.4463ZM95.539 30.4313C96.0843 31.2584 96.8633 31.6723 97.8759 31.6723C98.8885 31.6723 99.6722 31.2587 100.227 30.4313C100.782 29.6038 101.06 28.4909 101.06 27.0921C101.06 25.6935 100.782 24.5756 100.227 23.7384C99.6725 22.9012 98.8888 22.4825 97.8759 22.4825C96.8633 22.4825 96.0843 22.8961 95.539 23.7236C94.9938 24.5508 94.7211 25.6737 94.7211 27.0921C94.7211 28.4906 94.9938 29.6038 95.539 30.4313ZM103.659 32.8248C102.199 34.3415 100.281 35.1 97.9052 35.1C95.5294 35.1 93.6017 34.3415 92.1217 32.8248C90.6418 31.3079 89.9019 29.3971 89.9019 27.0924C89.9019 24.7876 90.642 22.8769 92.1217 21.3599C93.6017 19.8429 95.5294 19.0847 97.9052 19.0847C100.281 19.0847 102.204 19.8429 103.674 21.3599C105.144 22.8769 105.879 24.7876 105.879 27.0924C105.879 29.3971 105.139 31.3082 103.659 32.8248ZM114.759 35.1C112.383 35.1 110.465 34.3415 109.005 32.8248C107.544 31.3079 106.814 29.3971 106.814 27.0924C106.814 24.7876 107.535 22.8769 108.976 21.3599C110.417 19.8429 112.306 19.0847 114.642 19.0847C116.629 19.0847 118.255 19.6164 119.52 20.6802C120.786 21.7439 121.526 23.1427 121.74 24.8761H117.154C116.823 23.379 116.005 22.6306 114.701 22.6306C113.688 22.6306 112.924 23.0246 112.408 23.8124C111.892 24.6005 111.634 25.6938 111.634 27.0924C111.634 28.4714 111.896 29.5499 112.422 30.3279C112.948 31.106 113.708 31.495 114.701 31.495C116.219 31.495 117.086 30.6281 117.3 28.8947H121.857C121.798 30.6873 121.122 32.1697 119.827 33.3417C118.532 34.5138 116.843 35.1 114.759 35.1H114.759ZM123.376 34.6272V13.5H128.079V24.6103L132.519 19.4983H138.01L132.752 25.1716L138.623 34.6272H133.102L129.51 28.4515L128.078 29.9881V34.6272H123.375H123.376ZM145.371 34.8045C143.852 34.8045 142.679 34.4943 141.851 33.8738C141.023 33.2532 140.61 32.1747 140.61 30.6382V22.5124H138.623V19.4986H140.61V14.7117H145.254V19.4986H147.971V22.5124H145.254V29.6041C145.254 30.1556 145.395 30.5399 145.678 30.7563C145.96 30.973 146.374 31.0814 146.919 31.0814C147.075 31.0814 147.279 31.0763 147.532 31.0666C147.786 31.0568 147.932 31.0518 147.971 31.0518V34.568C147.425 34.7255 146.559 34.8042 145.371 34.8042V34.8045ZM154.397 35.0115C152.858 35.0115 151.622 34.6077 150.687 33.8C149.752 32.9924 149.285 31.8597 149.285 30.4019C149.285 28.8654 149.791 27.7475 150.804 27.0483C151.816 26.349 153.218 25.8812 155.01 25.6447C156.47 25.4673 157.468 25.2654 158.004 25.0389C158.539 24.8125 158.807 24.4528 158.807 23.9604C158.807 22.8769 158.125 22.3351 156.762 22.3351C155.302 22.3351 154.493 22.9852 154.338 24.2852H149.956C150.015 22.7881 150.623 21.547 151.782 20.562C152.941 19.5771 154.591 19.0847 156.733 19.0847C158.875 19.0847 160.491 19.4983 161.582 20.3258C162.848 21.2518 163.481 22.6898 163.481 24.6399V32.2635C163.481 33.4652 163.656 34.184 164.006 34.4206V34.6275H159.391C159.196 34.3519 159.031 33.7903 158.895 32.9433H158.836C157.882 34.322 156.402 35.0118 154.396 35.0118L154.397 35.0115ZM155.915 31.9385C156.811 31.9385 157.537 31.6874 158.092 31.185C158.647 30.6829 158.924 30.0277 158.924 29.2201V27.4174C158.457 27.6537 157.639 27.9198 156.47 28.2153C155.516 28.432 154.844 28.6881 154.455 28.9836C154.065 29.279 153.871 29.7027 153.871 30.2542C153.871 31.3768 154.552 31.9385 155.915 31.9385ZM165.788 34.6275V19.4986H170.374V21.5671H170.462C171.611 19.8927 173.149 19.0554 175.077 19.0554C176.693 19.0554 177.964 19.5824 178.889 20.6363C179.814 21.6903 180.276 23.074 180.276 24.7879V34.6275H175.515V25.7628C175.515 24.9356 175.316 24.2805 174.916 23.7979C174.517 23.3153 173.938 23.074 173.178 23.074C172.399 23.074 171.767 23.3695 171.28 23.9604C170.793 24.5513 170.549 25.3196 170.549 26.2652V34.6275H165.788ZM182.438 34.6275V13.5003H187.14V24.6106L191.58 19.4986H197.072L191.814 25.1719L197.685 34.6275H192.164L188.571 28.4518L187.14 29.9884V34.6275H182.437H182.438Z" fill="white"/>
    <g clip-path="url(#clipblocktank)">
        <path fill-rule="evenodd" clip-rule="evenodd" d="M31.6007 27.3168C30.8471 27.5664 29.9591 27.7536 28.9847 27.7536C27.1703 27.7536 25.0679 27.1056 22.9799 25.0176C21.2183 23.256 19.3607 22.728 17.3063 23.4144C15.7271 23.9424 14.6327 25.0032 14.6231 25.0176L13.6055 26.0352V30L23.9975 36L34.3895 30V25.8576C33.7223 26.3424 32.7623 26.928 31.5959 27.3168H31.6007Z" fill="#FFAE00"/>
        <path fill-rule="evenodd" clip-rule="evenodd" d="M16.3982 20.6832C18.563 19.9632 21.8126 19.776 25.019 22.9824C26.7806 24.744 28.6382 25.272 30.6926 24.5856C32.2718 24.0576 33.3662 22.9968 33.3758 22.9824L34.3934 21.9648V18L24.0014 12L13.6094 18V22.1376C14.2766 21.6528 15.2366 21.072 16.3982 20.6832Z" fill="white"/>
        <path fill-rule="evenodd" clip-rule="evenodd" d="M26.5257 0.135603C13.3509 -1.2588 1.52974 8.2788 0.135344 21.474C-1.25906 34.6488 8.27854 46.47 21.4737 47.8644C34.6485 49.2588 46.4697 39.7212 47.8641 26.526C49.2585 13.3512 39.7209 1.53 26.5257 0.135603ZM42.8529 26.0004C41.7621 36.3672 32.3649 43.9644 21.9993 42.8532C11.6325 41.7624 4.03534 32.3652 5.14654 21.9996C6.23734 11.6328 15.6345 4.0356 26.0001 5.1468C36.3669 6.2376 43.9641 15.6348 42.8529 26.0004Z" fill="#FFAE00"/>
    </g>
    <defs>
        <clipPath id="clipblocktank">
            <rect width="48" height="48" fill="white"/>
        </clipPath>
    </defs>
</svg>