<svg width="170" viewBox="0 0 180 32" xmlns="http://www.w3.org/2000/svg">
    <g fill="none" fill-rule="evenodd">
        <path d="M31 15.5a15.5 15.5 0 1 1-31 0 15.5 15.5 0 0 1 31 0" fill="#ECB360"/>
        <path d="M26.9 14c0 7.7-6 14-13.5 14C6 28 0 21.6 0 14S6 0 13.4 0C21 0 27 6.3 27 14" fill="#D76835"/>
        <path d="M28 12.4c0 6.9-5.4 12.4-12 12.4-6.5 0-11.9-5.5-11.9-12.4C4.1 5.6 9.5 0 16.1 0c6.5 0 11.8 5.6 11.8 12.4" fill="#D33A41"/>
        <path d="M26.9 13.4c0 6.3-4.9 11.4-10.9 11.4s-10.8-5-10.8-11.4C5.2 7.2 10 2.1 16 2.1 22 2 27 7 27 13.4" fill="#B6CB46"/>
        <path d="M25.9 14.5a10.3 10.3 0 1 1-20.7 0 10.3 10.3 0 0 1 20.7 0" fill="#66AD4A"/>
        <path d="M21.7 12.4a8.3 8.3 0 1 1-16.5 0 8.3 8.3 0 0 1 16.5 0" fill="#AED7DC"/>
        <path d="M22.8 11.4a7.2 7.2 0 1 1-14.5 0 7.2 7.2 0 0 1 14.5 0" fill="#5BB1CF"/>
        <path d="M22.8 11.9c0 3.7-2.8 6.7-6.2 6.7-3.5 0-6.3-3-6.3-6.7s2.8-6.7 6.3-6.7c3.4 0 6.2 3 6.2 6.7" fill="#25A8C3"/>
        <path d="M20.7 13c0 3-2.3 5.6-5.2 5.6-2.8 0-5.2-2.5-5.2-5.7 0-3.1 2.4-5.7 5.2-5.7 2.9 0 5.2 2.6 5.2 5.7"/>
        <path d="M15.5 18.6c-2.8 0-5.2-2.5-5.2-5.7 0-3.1 2.4-5.7 5.2-5.7 2.9 0 5.2 2.6 5.2 5.7 0 3.2-2.3 5.7-5.2 5.7z" fill="#1B1A18"/>
        <path d="M18.3 11.3c-.5.8-1.4 1.3-2.1 1-.7-.2-.9-1-.4-1.9.5-.8 1.5-1.3 2.2-1 .7.2.8 1 .3 1.9" fill="#FFFFFE"/>
        <g fill="#FFF">
            <path d="M157.7 21.3c-.3-.7-.4-1.5-.4-2.7 0-1.2.1-2 .4-2.8.7-2 2.5-3 4.9-3 1.8 0 3.2.6 4.1 1.7v.3l-1.6 1.3h-.3c-.6-.7-1.2-1-2.2-1-1 0-1.9.5-2.2 1.4-.2.6-.3 1.2-.3 2 0 1 0 1.6.3 2.2.3 1 1.1 1.4 2.2 1.4 1 0 1.6-.3 2.2-1h.3l1.6 1.3v.3c-1 1-2.3 1.7-4.1 1.7-2.4 0-4.2-1-5-3M176.4 24.2c-.2 0-.3-.1-.4-.3l-3-4.6-1.6 1.7v3s-.1.2-.3.2h-2.3c-.1 0-.2-.1-.2-.3V8.7c0-.2 0-.3.2-.3h2.3c.2 0 .3.1.3.3v9l4-4.5.5-.2h2.5c.2 0 .2.1.1.2l-3.8 4.1 4.4 6.6-.1.3h-2.6M43.8 21.8h3.5c1.6 0 2.6-1 2.6-2.2 0-1.3-1-2.2-2.6-2.2h-3.5l-.2.1v4.1c0 .1 0 .2.2.2zm3.4-6.8c1.4 0 2.4-.9 2.4-2 0-1.3-1-2.2-2.4-2.2h-3.4c-.1 0-.2 0-.2.2v3.8c0 .1 0 .2.2.2h3.4zm-6.5-6.3c0-.2.1-.3.3-.3h6.2c3.6 0 5.3 1.7 5.3 4.2 0 1.8-1 2.8-2 3.3 1 .5 2.3 1.7 2.3 3.6 0 3.2-2.1 4.7-5.8 4.7h-6c-.2 0-.3-.1-.3-.3V8.7zM54.8 24.2c-.1 0-.2-.1-.2-.3V13.2c0-.1 0-.2.2-.2h2.3l.2.2v1c.6-.9 1.6-1.4 3.2-1.4.9 0 1.8.3 2.5.9v.3l-1.3 1.6h-.4c-.5-.3-1-.5-1.7-.5-1.6 0-2.3 1-2.3 2.8v6c0 .2 0 .3-.2.3h-2.3M70.6 20.6a6 6 0 0 0 .3-2c0-1 0-1.5-.3-2-.3-1-1.1-1.5-2.2-1.5s-2 .5-2.3 1.4a6 6 0 0 0-.2 2c0 1 0 1.6.2 2.1.4 1 1.2 1.5 2.3 1.5 1 0 1.9-.5 2.2-1.5zm-7.1.7c-.3-.8-.4-1.5-.4-2.7 0-1.2 0-2 .4-2.8.6-2 2.5-3 4.9-3 2.4 0 4.2 1 4.9 3 .2.8.4 1.6.4 2.8 0 1.2-.2 2-.4 2.7-.7 2-2.5 3.1-5 3.1-2.3 0-4.2-1.1-4.8-3zM85.7 24.2c-.2 0-.3-.1-.3-.3L83 16.8l-2.4 7.1c0 .2-.2.3-.3.3h-2c-.2 0-.3-.1-.3-.3l-3.8-10.7c0-.1 0-.2.2-.2h2.4c.1 0 .2 0 .3.2l2.3 7.4 2.3-7.4.3-.2H84c.2 0 .3.1.3.2l2.5 7.4 2.2-7.4c0-.1.1-.2.3-.2h2.4l.2.2L88 24c0 .2-.2.3-.3.3h-2M92.2 22.7a.2.2 0 0 1 0-.4l1.4-1.4h.4c.9.8 2.2 1.3 3.5 1.3 1.4 0 2.2-.5 2.2-1.3 0-.7-.4-1-2-1.2l-1.3-.1c-2.4-.3-3.6-1.4-3.6-3.3 0-2.2 1.6-3.5 4.6-3.5 1.8 0 3.4.5 4.5 1.3v.3l-1.2 1.4c-.1.1-.2.1-.4 0a6 6 0 0 0-3-.9c-1.3 0-1.9.5-1.9 1.2 0 .6.4 1 2 1.2h1.3c2.5.3 3.7 1.5 3.7 3.3 0 2.3-1.8 3.8-5 3.8-2.5 0-4.2-.9-5.2-1.7M111.4 16.4c-.3-1-1.2-1.5-2.3-1.5-1.1 0-2 .6-2.3 1.5l-.2 1h5c0-.5 0-.7-.2-1zm-7.2 5c-.2-.8-.4-1.7-.4-2.8 0-1.2.2-2 .4-2.8.7-2 2.5-3 4.9-3 2.4 0 4.2 1.1 4.9 3 .3.8.4 1.6.4 3.4 0 .1-.1.2-.3.2h-7.3c-.1 0-.2 0-.2.2l.2.8c.4 1.1 1.3 1.7 2.7 1.7 1.3 0 2.2-.5 2.8-1 0-.2.2-.2.3-.1l1.5 1.2v.3a6.5 6.5 0 0 1-4.9 2c-2.5 0-4.3-1.2-5-3.2zM116.4 24.2c-.1 0-.2-.1-.2-.3V13.2c0-.1 0-.2.2-.2h2.3c.2 0 .3.1.3.2v1c.6-.9 1.6-1.4 3-1.4 1 0 2 .3 2.6.9v.3l-1.3 1.6h-.3c-.6-.3-1.1-.5-1.8-.5-1.5 0-2.2 1-2.2 2.8v6c0 .2-.1.3-.3.3h-2.3M125 22.3V22l1.5-1.7c.1-.1.3-.1.4 0 1 .8 2.7 1.7 4.6 1.7 2 0 3.1-1 3.1-2.3 0-1.1-.7-1.9-3-2.2l-1-.1c-3.2-.4-5-1.9-5-4.5 0-2.8 2.2-4.7 5.7-4.7 2 0 4 .6 5.4 1.5.1.1.2.2 0 .4l-1.1 1.7c-.1.1-.2.1-.4 0a7.4 7.4 0 0 0-4-1.2c-1.7 0-2.6.9-2.6 2.1 0 1.1.8 1.9 3 2.2h1c3.2.5 5 2 5 4.6 0 2.8-2.2 5-6.4 5-2.4 0-4.8-1-6.2-2.2M142.7 24.4c-2.4 0-3.3-1.1-3.3-3.3v-5.9l-.2-.1h-.8c-.1 0-.2-.1-.2-.3v-1.5c0-.1 0-.2.2-.2h.8c.1 0 .2 0 .2-.2v-3c0-.2 0-.3.2-.3h2.3c.1 0 .2.1.2.3v3c0 .1 0 .2.2.2h1.6c.1 0 .2 0 .2.2v1.5c0 .2 0 .3-.2.3h-1.6l-.2.1V21c0 .8.4 1 1.2 1h.6c.1 0 .2.1.2.3V24c0 .2 0 .3-.2.3h-1.2M152.9 20.4v-.8c0-.1 0-.2-.2-.2h-2c-1.7 0-2.5.5-2.5 1.5s.7 1.4 2 1.4c1.7 0 2.7-.6 2.7-1.9zm.3 3.8c-.2 0-.3-.1-.3-.3v-.8c-.6.8-1.7 1.3-3.4 1.3-2.1 0-4-1-4-3.4s1.9-3.5 4.8-3.5h2.4c.1 0 .2 0 .2-.2v-.5c0-1.3-.7-1.9-2.7-1.9-1.3 0-2.1.4-2.7.8h-.3l-1-1.6.1-.3c1-.6 2.3-1 4.2-1 3.7 0 5 1.1 5 3.8V24c0 .2-.1.3-.3.3h-2z"/>
        </g>
    </g>
</svg>