<svg height="44" viewBox="0 0 53.71 46.78" ><path d="M5.88 12.17l5.2-4.5 12.04-6.54L27.4 1 33 3.77l9.79 6 6.38 7.26L50.9 25l-2.03 9.55-9.47 6.62-8.98 1.87-12.2.19-9.66-4.59-6.57-8.82L.95 21.3l2-6.2z" fill="#f9eedd" paint-order="markers fill stroke"/><path d="M20.8 28.34l1.23 2.84 2.6-1.35 1.9.02 2.78 1.12 1.13-2.7z" fill="#b71422" paint-order="markers fill stroke"/><path d="M22.2 31.16l1.44 1.32 1.9.55 2.28-.6 1.5-1.47-3.02-1.15-1.6.08z" fill="#ff6164" paint-order="markers fill stroke"/><path d="M20.82 28.31h9.61s-1.03 4.84-4.82 4.83c-3.92-.02-4.79-4.83-4.79-4.83z" fill="none" stroke="#000" stroke-width=".57" stroke-linecap="round" stroke-linejoin="round" paint-order="markers fill stroke"/><path d="M27.42 11.38c1.23-2.47 1.02-4.45-.79-7.25-.78-1.2-1.16-1.58-1.36-1.38-.21.21-.1.73.42 1.88.85 1.9 1.14 4.41.72 6.34-.48 2.27-.01 2.46 1.01.41zm-5.73-.24a6.06 6.06 0 0 0 2.55-4.1c.3-1.59.08-4-.4-4.16-.18-.06-.36.47-.46 1.36a11.65 11.65 0 0 1-2.26 5.66c-1.7 2.04-1.76 2.16-1.16 2.16.29 0 1.07-.41 1.73-.92zm10.67-.56a7.76 7.76 0 0 0-.65-4.27 9.63 9.63 0 0 0-3.45-3.36c-1.73-.9-1.8-.31-.14 1.22 1.74 1.6 2.8 3.57 3.4 6.37.2.92.62.94.84.04zm-14.63-.5A8.17 8.17 0 0 0 22 4.59c.26-1.19-.43-.85-1.3.64-.98 1.66-3.53 3.79-5.23 4.35-.78.26-1.26.57-1.26.83 0 .34.24.38 1.32.26a8.6 8.6 0 0 0 2.2-.57z" fill="#ccbea7"/><path d="M13.28 28.72c-1.06-.4-1.99-1.25-1.99-1.84 0-.6.87-1.54 1.75-1.9.82-.35.94-.33 1.87.3.82.55 1.26.67 2.44.61 1.7-.08 2.18.35 1.68 1.46-.64 1.4-3.7 2.13-5.75 1.37zm20.7.02c-1.7-.64-2.34-1.51-1.81-2.5.22-.41.5-.47 1.66-.38 1.19.1 1.56 0 2.4-.57.94-.64 1.08-.66 1.86-.33 1.33.57 1.92 1.37 1.63 2.22-.53 1.48-3.66 2.34-5.74 1.56z" fill="#fcbace"/><path d="M17.18 18.43a3.84 3.84 0 0 0-3.84 3.84 3.84 3.84 0 0 0 3.84 3.84 3.84 3.84 0 0 0 3.84-3.84 3.84 3.84 0 0 0-3.84-3.84zm-1.15.89a1.55 1.6 0 0 1 1.55 1.6 1.55 1.6 0 0 1-1.55 1.6 1.55 1.6 0 0 1-1.55-1.6 1.55 1.6 0 0 1 1.55-1.6z" paint-order="markers fill stroke"/><path d="M23.13 46.43a29.7 29.7 0 0 1-11.35-4.4c-2.16-1.46-6.84-6-8.3-8.03-3.63-5.12-4.43-10.65-2.35-16.21 1.29-3.45 4.62-7.45 8.05-9.64C13.34 5.48 20.84 1.19 22.32.63a8.67 8.67 0 0 1 6.5 0c.83.35 3.1 1.58 5.03 2.74 1.92 1.16 4.52 2.68 5.75 3.37 2.96 1.66 3.84 2.36 7.1 5.54 5.17 5.04 7.02 8.85 7.01 14.44-.02 9.55-8.78 17.95-20.54 19.7a35 35 0 0 1-10.04 0zm5.93-4.1c3.2-.32 5.4-.93 8.48-2.35 4.6-2.11 8.2-5.35 10.18-9.17 1.35-2.59 1.8-4.87 1.6-8.18-.36-5.98-3.8-10.74-10.51-14.56a355.9 355.9 0 0 1-6.11-3.61C25.87.34 24.86.4 16.45 5.56c-.73.45-2.68 1.6-4.34 2.58C4.1 12.87.46 19.37 1.88 26.48c1.26 6.28 5.64 11.13 12.59 13.96 4.77 1.93 8.8 2.45 14.59 1.88z"/><path d="M33.96 18.43a3.84 3.84 0 0 0-3.84 3.84 3.84 3.84 0 0 0 3.84 3.84 3.84 3.84 0 0 0 3.84-3.84 3.84 3.84 0 0 0-3.84-3.84zm-1.15.89a1.55 1.6 0 0 1 1.55 1.6 1.55 1.6 0 0 1-1.55 1.6 1.55 1.6 0 0 1-1.55-1.6 1.55 1.6 0 0 1 1.55-1.6z" paint-order="markers fill stroke"/><path d="M22.13 31.09s1.87-1.35 3.43-1.34c1.56.02 3.58 1.17 3.58 1.17" fill="none" stroke="#000" stroke-width=".57" stroke-linejoin="round" paint-order="markers fill stroke"/></svg>