<svg viewBox="0 0 128 32.01">
    <g fillRule="evenodd">
        <path class="cls-3" d="m0,32.01h128V0H0v32.01Z"/>
        <path fill="#fff" d="m42.44,25.21l-4.8.03c-.07,0-.13-.02-.19-.05,0,0-.03-.03-.05-.22l-.76-3.1c0-.08-.05-.11-.05-.11h-6.85c-.13,0-.22.11-.22.11,0,0-.11.08-.19.27l-1.35,2.89c-.05.11-.08.13-.08.13,0,0-.08.05-.16.05h-5.58c-.16.03-.19-.05-.19-.05,0,0-.03-.08.03-.19L31.68,5.5c.03-.06.07-.11.13-.13h6.36c.11,0,.19.08.19.08,0,0,.03.03.05.11l4.15,19.52c0,.08-.05.11-.05.11,0,0-.03.03-.08.03m21.57.05h-5.1l-.05-.05-6.85-12.16c-.05-.05-.08-.05-.08-.05,0,0-.05,0-.05.08l-1.7,11.95c-.03.13-.06.16-.06.16,0,0-.05.03-.13.03h-4.91c-.08,0-.13-.05-.13-.05,0,0-.11-.11-.08-.22l2.7-19.33c.03-.11.08-.13.08-.13,0,0,.08-.08.16-.08h5.47c.08,0,.13.05.13.05,0,0,.05.03.08.11l6.17,10.84c.11.22.19.19.19.19,0,0,.08,0,.13-.24l1.56-10.79c0-.08.05-.11.05-.11,0,0,.03-.05.11-.05l5.15.05c.11,0,.13.03.13.03,0,0,.03.03.03.08l-2.78,19.5c-.02.07-.05.13-.08.19,0,0-.03.03-.16.03m23.11.03h-4.93c-.11.05-.19-.06-.19-.06,0,0-.03-.02-.05-.19l-.65-3.05c-.05-.16-.11-.24-.11-.24,0,0-.13-.08-.3-.08h-6.42c-.13,0-.21.08-.21.08,0,0-.11.11-.16.27l-1.46,3.1c-.03.08-.08.11-.08.11,0,0-.11.03-.16.03h-5.56c-.13.03-.19-.05-.19-.05,0,0-.03-.05.05-.16l9.79-19.55c.05-.03.11-.11.11-.11,0,0,.05-.03.21-.03h6.07c.13,0,.22.08.22.08,0,0,.03.03.05.11l4.07,19.63c0,.05-.03.08-.03.08,0,0,0,.03-.08.03m14.16-.3c-.03.16-.05.22-.05.22,0,0-.03.05-.16.05h-11.11c-.32,0-.4-.08-.4-.08,0,0-.05-.11-.03-.35l2.75-19.14c.03-.24.08-.32.08-.32h5.34c.13,0,.19.03.19.03,0,0,.02.08,0,.19l-2.08,14.97c-.03.16.05.19.05.19,0,0,.05.03.27.03h5.5c.06,0,.12.02.16.05,0,0,.03.03.03.16l-.54,4.02h0Zm21.38-7.58s-.03.05-.11.05h-6.9c-.11,0-.16.05-.16.05,0,0-.08.03-.08.16v7.36c0,.11-.05.13-.05.13,0,0-.03.05-.11.05h-5.47c-.08,0-.13-.05-.13-.05,0,0-.03-.03-.03-.16v-7.36c0-.08-.08-.13-.08-.13,0,0-.03-.05-.11-.05h-7.07c-.13,0-.16-.03-.16-.03,0,0-.05-.05-.05-.21v-5.4c0-.05.05-.13.05-.13,0,0,.03-.03.08-.03h7.23c.06,0,.06-.03.06-.03,0,0,.05-.03.05-.08v-6.44c0-.08.03-.13.03-.13,0,0,.05-.03.21-.03h5.37c.11,0,.13.03.13.03,0,0,.05.06.05.16v6.47h7.01c.19,0,.24.03.24.03,0,0,.08.03.08.19v5.45c0,.05-.08.13-.08.13"/>
        <path fill="#03151c" d="m34.24,11.08s-.03,0-.05.05l-2.7,6.12c-.05.08-.03.13-.03.13,0,0,.03.03.16.03l3.96.03s.05-.03.05-.03c0,0,.03-.03,0-.11l-1.37-6.18c0-.05-.03-.05-.03-.05"/>
        <path fill="#fff" d="m20.44,24.54c-.02.13-.06.26-.13.38,0,0-.11.11-.3.16-2.59,1.05-5.47.7-5.47.7-4.66-.51-7.63-3.37-8.57-7.07-1.4-5.53,1.37-9.46,2.05-10.3,1.64-1.97,4.21-3.37,6.71-3.69,2.2-.32,4.45-.11,6.55.62,0,0,1.08.35,1.89.89.4.27.46.38.46.38,0,0,.03.05-.08.49l-.76,3.96c-.01.09-.06.18-.13.24,0,0-.05.03-.43-.22-2.43-1.73-5.26-1.51-5.26-1.51-2.16.13-4.66,1.27-5.42,4.13-.67,2.53.03,4.66,1.54,5.93,1.02.89,2.62,1.35,4.29,1.27,1.83-.13,3.29-.86,3.18-.81l.16-.05c.38-.19.46-.16.46-.16,0,0,.08.08.03.32,0,0-.75,4.34-.75,4.34Z"/>
        <path fill="#03151c" d="m79.01,11s-.03,0-.05.11l-2.7,6.09c-.05.19-.03.21-.03.21,0,0,.08.05.13.05l3.99-.03h.06s.03-.03,0-.11l-1.35-6.26c-.03-.08-.05-.08-.05-.08"/>
    </g>
</svg>