<svg width="141" height="20" viewBox="0 0 623 88" fill="none" xmlns="http://www.w3.org/2000/svg">
    <path fill-rule="evenodd" clip-rule="evenodd" d="M0 88h88V0H0v88zm79-9V9H9v70h70z" fill="#fff"/>
    <path d="M179.17 51.747h-9.479c-1.377 8.587-7.129 13.529-15.068 13.529-10.532 0-17.418-8.182-17.418-21.225 0-12.882 6.643-21.226 16.851-21.226 8.263 0 13.691 4.861 15.23 13.61h9.478c-1.863-12.8-12.151-21.144-25.032-21.144-15.474 0-26.168 12.8-26.168 28.76 0 16.445 10.937 28.759 26.411 28.759 12.881 0 23.25-8.263 25.195-21.063z" fill="#fff"/>
    <path fill-rule="evenodd" clip-rule="evenodd" d="M222.663 51.747c0-10.937-7.535-21.064-19.849-21.064-12.313 0-19.848 10.127-19.848 21.064 0 10.936 7.535 21.063 19.848 21.063 12.314 0 19.849-10.127 19.849-21.063zm-30.38 0c0-8.669 3.807-14.502 10.531-14.502 6.806 0 10.613 5.833 10.613 14.502 0 8.587-3.807 14.501-10.613 14.501-6.724 0-10.531-5.914-10.531-14.501zM257.122 63.493h-.243c-1.944 5.59-6.643 9.317-12.8 9.317-11.018 0-17.013-9.721-17.013-21.063 0-11.342 6.238-21.064 17.013-21.064 6.157 0 10.856 3.646 12.8 9.236h.243V16.1h8.668V72h-8.668v-8.507zm-10.208-26.248c-6.724 0-10.531 5.833-10.531 14.502 0 8.587 3.807 14.501 10.531 14.501 6.806 0 10.532-5.914 10.532-14.501 0-8.669-3.726-14.502-10.532-14.502zM309.372 59.443h-8.83c-.972 3.24-3.241 6.805-8.507 6.805-6.157 0-10.45-4.294-10.855-11.666h28.921c1.215-14.096-6.724-23.899-18.795-23.899-12.071 0-18.957 9.884-18.957 21.064s7.048 21.063 19.119 21.063c9.884 0 16.203-5.347 17.904-13.367zm-18.066-22.197c5.914 0 9.398 4.212 9.965 10.774h-20.01c.567-6.562 4.131-10.775 10.045-10.775z" fill="#fff"/>
    <path d="M344.284 39.838c10.532 2.43 15.798 7.94 15.798 16.77 0 9.316-9.074 16.202-22.036 16.202-14.825 0-22.845-10.37-23.737-20.496h9.479c.567 7.29 6.481 12.962 14.339 12.962 7.129 0 12.395-3.079 12.395-8.263 0-4.537-3.402-6.968-10.613-8.669l-8.101-1.863c-10.937-2.593-16.364-7.696-16.364-15.474 0-9.397 9.235-15.716 20.496-15.716 14.258 0 21.549 7.777 22.521 17.418h-9.478c-.729-6.643-6.319-9.884-12.881-9.884-6.4 0-11.018 2.755-11.018 7.534 0 3.808 2.836 5.59 11.099 7.535l8.101 1.944z" fill="#fff"/>
    <path fill-rule="evenodd" clip-rule="evenodd" d="M394.158 63.493h.243V72h8.668V31.494h-8.668v8.425h-.243c-1.945-5.59-6.644-9.236-12.801-9.236-10.774 0-17.012 9.722-17.012 21.064s5.995 21.063 17.012 21.063c6.157 0 10.856-3.727 12.801-9.317zm-20.497-11.746c0-8.669 3.889-14.502 10.451-14.502 6.562 0 10.613 5.833 10.613 14.502 0 8.587-4.051 14.501-10.613 14.501-6.481 0-10.451-5.914-10.451-14.501z" fill="#fff"/>
    <path d="M420.727 47.696V72h-8.831V31.494h8.587v7.939h.162c1.702-5.671 5.914-8.75 11.828-8.75 8.912 0 13.286 6.076 13.286 14.988V72h-8.83V48.263c0-7.534-2.673-10.936-8.101-10.936-5.428 0-8.101 3.726-8.101 10.37z" fill="#fff"/>
    <path fill-rule="evenodd" clip-rule="evenodd" d="M481.879 63.493h.243V72h8.668V16.1h-8.668V39.92h-.243c-1.944-5.59-6.643-9.236-12.8-9.236-10.775 0-17.013 9.722-17.013 21.064s5.995 21.063 17.013 21.063c6.157 0 10.856-3.727 12.8-9.317zm-20.496-11.746c0-8.669 3.807-14.502 10.531-14.502 6.806 0 10.532 5.833 10.532 14.502 0 8.587-3.726 14.501-10.532 14.501-6.724 0-10.531-5.914-10.531-14.501zM521.329 30.683c10.775 0 17.013 9.722 17.013 21.064s-5.995 21.063-17.013 21.063c-6.157 0-10.856-3.727-12.8-9.317h-.243V72h-8.668V16.1h8.668V39.92h.243c1.944-5.59 6.643-9.236 12.8-9.236zm-2.835 6.563c-6.805 0-10.532 5.832-10.532 14.5 0 8.588 3.727 14.502 10.532 14.502 6.724 0 10.531-5.914 10.531-14.501 0-8.669-3.807-14.502-10.531-14.502zM582.489 51.747c0-10.937-7.535-21.064-19.849-21.064s-19.848 10.127-19.848 21.064c0 10.936 7.534 21.063 19.848 21.063s19.849-10.127 19.849-21.063zm-30.38 0c0-8.669 3.807-14.502 10.531-14.502 6.805 0 10.613 5.833 10.613 14.502 0 8.587-3.808 14.501-10.613 14.501-6.724 0-10.531-5.914-10.531-14.501z" fill="#fff"/>
    <path d="M602.259 56.283L591.484 72h-9.964l15.554-21.792-13.529-18.714h9.964l8.75 12.638 8.749-12.638h9.884l-13.448 18.633L622.917 72h-9.884l-10.774-15.717z" fill="#fff"/>
</svg>