<svg width="161" viewBox="0 0 190 44" fill="none">
    <path d="M32.7725 26.651C31.0317 26.651 29.4607 26.2795 28.0595 25.5365C26.6796 24.7934 25.5863 23.7319 24.7796 22.352C23.9941 20.9721 23.6013 19.3587 23.6013 17.5117C23.6013 15.6859 24.0047 14.0831 24.8114 12.7032C25.6181 11.302 26.7221 10.2299 28.1232 9.4869C29.5244 8.74386 31.0954 8.37234 32.8362 8.37234C34.577 8.37234 36.148 8.74386 37.5492 9.4869C38.9503 10.2299 40.0542 11.302 40.861 12.7032C41.6677 14.0831 42.0711 15.6859 42.0711 17.5117C42.0711 19.3374 41.6571 20.9509 40.8291 22.352C40.0224 23.7319 38.9078 24.7934 37.4855 25.5365C36.0843 26.2795 34.5133 26.651 32.7725 26.651ZM32.7725 21.938C33.8127 21.938 34.6938 21.5559 35.4156 20.7917C36.1586 20.0274 36.5301 18.9341 36.5301 17.5117C36.5301 16.0893 36.1692 14.996 35.4474 14.2317C34.7468 13.4674 33.8764 13.0853 32.8362 13.0853C31.7747 13.0853 30.8937 13.4674 30.1931 14.2317C29.4925 14.9747 29.1422 16.0681 29.1422 17.5117C29.1422 18.9341 29.4819 20.0274 30.1613 20.7917C30.8618 21.5559 31.7322 21.938 32.7725 21.938Z" fill="#045AE8"/>
    <path d="M51.4562 26.651C49.7154 26.651 48.1444 26.2795 46.7432 25.5365C45.3633 24.7934 44.27 23.7319 43.4632 22.352C42.6778 20.9721 42.285 19.3587 42.285 17.5117C42.285 15.6859 42.6884 14.0831 43.4951 12.7032C44.3018 11.302 45.4058 10.2299 46.8069 9.4869C48.2081 8.74386 49.779 8.37234 51.5199 8.37234C53.2607 8.37234 54.8317 8.74386 56.2328 9.4869C57.634 10.2299 58.7379 11.302 59.5447 12.7032C60.3514 14.0831 60.7547 15.6859 60.7547 17.5117C60.7547 19.3374 60.3408 20.9509 59.5128 22.352C58.7061 23.7319 57.5915 24.7934 56.1692 25.5365C54.768 26.2795 53.197 26.651 51.4562 26.651ZM51.4562 21.938C52.4964 21.938 53.3775 21.5559 54.0993 20.7917C54.8423 20.0274 55.2138 18.9341 55.2138 17.5117C55.2138 16.0893 54.8529 14.996 54.1311 14.2317C53.4305 13.4674 52.5601 13.0853 51.5199 13.0853C50.4584 13.0853 49.5774 13.4674 48.8768 14.2317C48.1762 14.9747 47.8259 16.0681 47.8259 17.5117C47.8259 18.9341 48.1656 20.0274 48.8449 20.7917C49.5455 21.5559 50.4159 21.938 51.4562 21.938Z" fill="#045AE8"/>
    <path d="M72.9103 26.3963L67.4968 18.9447V26.3963H62.0514V2.83142H67.4968V15.8558L72.8785 8.6271H79.5976L72.2098 17.5435L79.6613 26.3963H72.9103Z" fill="#045AE8"/>
    <path d="M82.8828 6.78012C81.9275 6.78012 81.142 6.50414 80.5264 5.95217C79.9319 5.37897 79.6347 4.6784 79.6347 3.85044C79.6347 3.00126 79.9319 2.30068 80.5264 1.74871C81.142 1.17552 81.9275 0.888916 82.8828 0.888916C83.8169 0.888916 84.5812 1.17552 85.1756 1.74871C85.7913 2.30068 86.0991 3.00126 86.0991 3.85044C86.0991 4.6784 85.7913 5.37897 85.1756 5.95217C84.5812 6.50414 83.8169 6.78012 82.8828 6.78012ZM85.5896 8.6271V26.3963H80.1442V8.6271H85.5896Z" fill="#045AE8"/>
    <path d="M104.694 17.2251C104.694 17.7346 104.662 18.2653 104.598 18.8173H92.2745C92.3594 19.9212 92.7097 20.7704 93.3253 21.3648C93.9622 21.938 94.7371 22.2246 95.65 22.2246C97.0087 22.2246 97.9534 21.6514 98.4841 20.5051H104.28C103.983 21.6727 103.441 22.7235 102.656 23.6576C101.891 24.5917 100.925 25.3242 99.7579 25.8549C98.5902 26.3856 97.2846 26.651 95.841 26.651C94.1002 26.651 92.5504 26.2795 91.1917 25.5365C89.833 24.7934 88.7716 23.7319 88.0073 22.352C87.243 20.9721 86.8609 19.3587 86.8609 17.5117C86.8609 15.6647 87.2324 14.0513 87.9755 12.6713C88.7397 11.2914 89.8012 10.2299 91.1599 9.4869C92.5186 8.74386 94.079 8.37234 95.841 8.37234C97.5606 8.37234 99.0891 8.73325 100.427 9.45505C101.764 10.1769 102.804 11.2065 103.547 12.544C104.312 13.8814 104.694 15.4418 104.694 17.2251ZM99.121 15.7921C99.121 14.858 98.8025 14.1149 98.1657 13.563C97.5288 13.011 96.7327 12.735 95.7773 12.735C94.8645 12.735 94.0896 13.0004 93.4527 13.5311C92.837 14.0619 92.4549 14.8155 92.3063 15.7921H99.121Z" fill="#045AE8"/>
    <path d="M0 17.3104C0 15.1026 0.477666 13.1388 1.433 11.4192C2.38833 9.67841 3.71518 8.33033 5.41354 7.375C7.13314 6.39844 9.07564 5.91016 11.2411 5.91016C13.8948 5.91016 16.1663 6.61073 18.0558 8.01188C19.9452 9.41304 21.2083 11.3237 21.8452 13.7439H15.8585C15.4127 12.8098 14.7758 12.0986 13.9478 11.6103C13.1411 11.122 12.2176 10.8779 11.1774 10.8779C9.50024 10.8779 8.14154 11.4617 7.10129 12.6293C6.06104 13.7969 5.54092 15.3573 5.54092 17.3104C5.54092 19.2636 6.06104 20.8239 7.10129 21.9916C8.14154 23.1592 9.50024 23.743 11.1774 23.743C12.2176 23.743 13.1411 23.4989 13.9478 23.0106C14.7758 22.5223 15.4127 21.8111 15.8585 20.877H21.8452C21.2083 23.2972 19.9452 25.2078 18.0558 26.609C16.1663 27.9889 13.8948 28.6789 11.2411 28.6789C9.07564 28.6789 7.13314 28.2012 5.41354 27.2459C3.71518 26.2693 2.38833 24.9212 1.433 23.2016C0.477666 21.4821 0 19.5183 0 17.3104Z" fill="#045AE8"/>
    <path d="M114.321 26.6514C112.771 26.6514 111.391 26.386 110.181 25.8552C108.971 25.3245 108.015 24.6027 107.315 23.6898C106.614 22.7557 106.222 21.7155 106.137 20.5691H111.518C111.582 21.1847 111.869 21.6836 112.378 22.0658C112.888 22.4479 113.514 22.639 114.257 22.639C114.936 22.639 115.456 22.5116 115.817 22.2568C116.199 21.9808 116.39 21.6306 116.39 21.206C116.39 20.6965 116.125 20.3249 115.594 20.0914C115.064 19.8367 114.204 19.5607 113.015 19.2635C111.741 18.9662 110.68 18.6584 109.831 18.34C108.981 18.0003 108.249 17.4802 107.633 16.7796C107.018 16.0578 106.71 15.0918 106.71 13.8818C106.71 12.8627 106.986 11.9392 107.538 11.1113C108.111 10.2621 108.939 9.59338 110.022 9.1051C111.126 8.61682 112.431 8.37268 113.938 8.37268C116.168 8.37268 117.919 8.92465 119.193 10.0286C120.488 11.1325 121.231 12.5974 121.422 14.4231H116.39C116.306 13.8075 116.03 13.3192 115.563 12.9583C115.117 12.5974 114.522 12.4169 113.779 12.4169C113.142 12.4169 112.654 12.5443 112.314 12.799C111.975 13.0326 111.805 13.3616 111.805 13.7862C111.805 14.2957 112.07 14.6779 112.601 14.9326C113.153 15.1874 114.002 15.4421 115.149 15.6969C116.465 16.0366 117.537 16.3762 118.365 16.7159C119.193 17.0344 119.915 17.5651 120.53 18.3081C121.167 19.0299 121.496 20.0065 121.517 21.2378C121.517 22.2781 121.22 23.2122 120.626 24.0401C120.053 24.8468 119.214 25.4837 118.11 25.9508C117.027 26.4178 115.764 26.6514 114.321 26.6514Z" fill="#150A7D"/>
    <path d="M140.007 17.2254C140.007 17.7349 139.975 18.2657 139.911 18.8176H127.588C127.672 19.9216 128.023 20.7708 128.638 21.3652C129.275 21.9384 130.05 22.225 130.963 22.225C132.322 22.225 133.266 21.6518 133.797 20.5054H139.593C139.296 21.673 138.754 22.7239 137.969 23.658C137.205 24.5921 136.239 25.3245 135.071 25.8552C133.903 26.386 132.598 26.6514 131.154 26.6514C129.413 26.6514 127.863 26.2798 126.505 25.5368C125.146 24.7938 124.085 23.7323 123.32 22.3524C122.556 20.9724 122.174 19.359 122.174 17.512C122.174 15.665 122.545 14.0516 123.289 12.6717C124.053 11.2917 125.114 10.2303 126.473 9.48723C127.832 8.7442 129.392 8.37268 131.154 8.37268C132.874 8.37268 134.402 8.73358 135.74 9.45539C137.077 10.1772 138.117 11.2068 138.86 12.5443C139.625 13.8818 140.007 15.4421 140.007 17.2254ZM134.434 15.7924C134.434 14.8583 134.116 14.1153 133.479 13.5633C132.842 13.0113 132.046 12.7354 131.09 12.7354C130.178 12.7354 129.403 13.0007 128.766 13.5315C128.15 14.0622 127.768 14.8159 127.619 15.7924H134.434Z" fill="#150A7D"/>
    <path d="M146.733 11.589C147.37 10.6124 148.166 9.84814 149.121 9.29617C150.076 8.72297 151.138 8.43637 152.305 8.43637V14.2002H150.809C149.45 14.2002 148.431 14.4974 147.752 15.0918C147.072 15.665 146.733 16.6841 146.733 18.1489V26.3966H141.287V8.62744H146.733V11.589Z" fill="#150A7D"/>
    <path d="M162.901 21.3015L166.754 8.62744H172.55L166.245 26.3966H159.526L153.22 8.62744H159.048L162.901 21.3015Z" fill="#150A7D"/>
    <path d="M190 17.2254C190 17.7349 189.968 18.2657 189.904 18.8176H177.581C177.666 19.9216 178.016 20.7708 178.632 21.3652C179.268 21.9384 180.043 22.225 180.956 22.225C182.315 22.225 183.26 21.6518 183.79 20.5054H189.586C189.289 21.673 188.747 22.7239 187.962 23.658C187.198 24.5921 186.232 25.3245 185.064 25.8552C183.896 26.386 182.591 26.6514 181.147 26.6514C179.406 26.6514 177.857 26.2798 176.498 25.5368C175.139 24.7938 174.078 23.7323 173.314 22.3524C172.549 20.9724 172.167 19.359 172.167 17.512C172.167 15.665 172.539 14.0516 173.282 12.6717C174.046 11.2917 175.107 10.2303 176.466 9.48723C177.825 8.7442 179.385 8.37268 181.147 8.37268C182.867 8.37268 184.395 8.73358 185.733 9.45539C187.07 10.1772 188.111 11.2068 188.854 12.5443C189.618 13.8818 190 15.4421 190 17.2254ZM184.427 15.7924C184.427 14.8583 184.109 14.1153 183.472 13.5633C182.835 13.0113 182.039 12.7354 181.084 12.7354C180.171 12.7354 179.396 13.0007 178.759 13.5315C178.143 14.0622 177.761 14.8159 177.613 15.7924H184.427Z" fill="#150A7D"/>
    <path d="M109.845 33.8337C110.4 33.8337 110.895 33.9698 111.33 34.2419C111.772 34.5058 112.118 34.8852 112.368 35.38C112.625 35.8748 112.754 36.4644 112.754 37.1488C112.754 37.7756 112.625 38.3281 112.368 38.8064C112.118 39.2847 111.78 39.6599 111.354 39.9321C110.935 40.1959 110.464 40.3279 109.941 40.3279C109.483 40.3279 109.072 40.2042 108.71 39.9568C108.356 39.7094 108.074 39.4208 107.865 39.0909V40.1423H106.875V31.2361H107.865V34.7862C108.123 34.4893 108.428 34.2584 108.782 34.0935C109.145 33.9203 109.499 33.8337 109.845 33.8337ZM109.664 34.8357C109.294 34.8357 108.968 34.9264 108.686 35.1078C108.404 35.281 108.135 35.5284 107.877 35.85L107.865 37.0375C107.865 37.4746 107.945 37.8663 108.106 38.2127C108.275 38.559 108.505 38.8311 108.795 39.0291C109.092 39.227 109.422 39.3259 109.784 39.3259C110.179 39.3259 110.521 39.227 110.811 39.0291C111.1 38.8311 111.326 38.5673 111.487 38.2374C111.647 37.9075 111.728 37.5447 111.728 37.1488C111.728 36.7448 111.643 36.3696 111.474 36.0232C111.314 35.6686 111.08 35.3841 110.774 35.1697C110.468 34.947 110.098 34.8357 109.664 34.8357Z" fill="#150A7D"/>
    <path d="M114.722 33.9574L116.834 38.5095L118.887 33.9574H120.07L115.627 43.1111H114.48L116.207 39.7712L113.539 33.9574H114.722Z" fill="#150A7D"/>
    <path d="M127.836 30.7716C130.016 30.7716 131.647 31.9254 132.175 33.8133H129.73C129.356 33.0581 128.651 32.7015 127.814 32.7015C126.448 32.7015 125.5 33.6665 125.5 35.2188C125.5 36.7711 126.448 37.736 127.814 37.736C128.651 37.736 129.356 37.3584 129.73 36.6242H132.175C131.647 38.5122 130.016 39.6659 127.836 39.6659C125.126 39.645 123.231 37.8199 123.231 35.1978C123.231 32.5756 125.126 30.7716 127.836 30.7716Z" fill="#404041"/>
    <path d="M136.626 39.6871C134.489 39.6871 132.881 38.3235 132.881 36.1209C132.881 33.9183 134.533 32.5548 136.67 32.5548C138.807 32.5548 140.459 33.9183 140.459 36.1209C140.459 38.3235 138.763 39.6871 136.626 39.6871ZM136.626 37.8411C137.419 37.8411 138.168 37.2747 138.168 36.1209C138.168 34.9462 137.441 34.4008 136.648 34.4008C135.833 34.4008 135.128 34.9462 135.128 36.1209C135.15 37.2747 135.811 37.8411 136.626 37.8411Z" fill="#404041"/>
    <path d="M144.887 39.6871C142.75 39.6871 141.142 38.3235 141.142 36.1209C141.142 33.9183 142.794 32.5548 144.931 32.5548C147.068 32.5548 148.72 33.9183 148.72 36.1209C148.72 38.3235 147.024 39.6871 144.887 39.6871ZM144.887 37.8411C145.68 37.8411 146.429 37.2747 146.429 36.1209C146.429 34.9462 145.702 34.4008 144.909 34.4008C144.094 34.4008 143.389 34.9462 143.389 36.1209C143.389 37.2747 144.072 37.8411 144.887 37.8411Z" fill="#404041"/>
    <path d="M149.513 30.772H151.738V35.4709L153.941 32.6599H156.694L153.676 36.1212L156.739 39.5824H153.985L151.76 36.6666V39.5824H149.535V30.772H149.513Z" fill="#404041"/>
    <path d="M157.222 30.7924C157.222 30.1421 157.751 29.6387 158.544 29.6387C159.337 29.6387 159.866 30.1421 159.866 30.7924C159.866 31.4217 159.337 31.9252 158.544 31.9252C157.751 31.9252 157.222 31.4217 157.222 30.7924ZM157.443 32.6384H159.668V39.5609H157.443V32.6384Z" fill="#404041"/>
    <path d="M164.162 39.6871C162.025 39.6871 160.483 38.3235 160.483 36.1209C160.483 33.9183 162.003 32.5548 164.162 32.5548C166.277 32.5548 167.797 33.8974 167.797 36.016C167.797 36.2048 167.775 36.4356 167.753 36.6454H162.708C162.796 37.5474 163.369 37.9669 164.096 37.9669C164.713 37.9669 165.065 37.6732 165.263 37.2957H167.643C167.268 38.6382 165.99 39.6871 164.162 39.6871ZM162.73 35.4497H165.528C165.528 34.6945 164.911 34.254 164.162 34.254C163.413 34.254 162.862 34.6735 162.73 35.4497Z" fill="#404041"/>
    <path d="M178.084 39.6871C175.947 39.6871 174.405 38.3235 174.405 36.1209C174.405 33.9183 175.925 32.5548 178.084 32.5548C180.199 32.5548 181.719 33.8974 181.719 36.016C181.719 36.2048 181.697 36.4356 181.675 36.6454H176.63C176.718 37.5474 177.291 37.9669 178.018 37.9669C178.635 37.9669 178.987 37.6732 179.185 37.2957H181.565C181.19 38.6382 179.89 39.6871 178.084 39.6871ZM176.63 35.4497H179.428C179.428 34.6945 178.811 34.254 178.062 34.254C177.335 34.254 176.762 34.6735 176.63 35.4497Z" fill="#404041"/>
    <path d="M185.751 39.6871C183.812 39.6871 182.512 38.6592 182.402 37.3166H184.605C184.649 37.7991 185.112 38.1138 185.729 38.1138C186.301 38.1138 186.61 37.862 186.61 37.5474C186.61 36.4356 182.645 37.2327 182.645 34.6945C182.645 33.5198 183.702 32.5548 185.597 32.5548C187.469 32.5548 188.526 33.5407 188.659 34.9043H186.588C186.522 34.4428 186.147 34.1281 185.508 34.1281C184.98 34.1281 184.693 34.3169 184.693 34.6525C184.693 35.7643 188.637 34.9672 188.681 37.5684C188.703 38.7641 187.579 39.6871 185.751 39.6871Z" fill="#404041"/>
    <path d="M170.109 32.7642H167.796L169.911 36.4981H172.224L170.109 32.7642Z" fill="#0056A7"/>
    <path d="M169.867 36.3935L169.933 36.4984H172.246L170.726 33.8762L169.867 36.3935Z" fill="#2E3191"/>
    <path d="M174.096 29.6177L169.932 36.4982H172.245L176.409 29.6177H174.096Z" fill="#0056A7"/>
    <path d="M169.932 37.526H172.179V39.6867H169.932V37.526Z" fill="#0056A7"/>
</svg>