<svg width="105" viewBox="0 0 711 138">
    <path fill="#a5b1b9" d="M2 19l9-19h1l9 19-1 1h-2l-1-1-1-3H7l-1 3-1 1H3l-1-1zm12-6l-3-6-2 6h5zM26 1l1-1h6a6 6 0 1 1 0 13h-3v6l-1 1h-2l-1-1V1zm7 8l3-2c0-2-2-3-3-3h-3v5h3zM42 19l8-19h2l8 19v1h-3v-1l-2-3h-8l-1 3-1 1h-3v-1zm12-6l-3-6-3 6h6zM74 0c3 0 5 1 7 3l-2 2-5-1c-3 0-6 3-6 6a6 6 0 0 0 11 5l2 2c-2 2-4 3-7 3-5 0-10-4-10-10S69 0 74 0zM88 1V0h3v8h9V1l1-1h2l1 1v18l-1 1h-2v-8H91v8h-3V1zM112 1l1-1h11l1 1v2l-1 1h-8v4h7v4h-7v4h8l1 1v2l-1 1h-11l-1-1V1z"/>
    <g>
        <path fill="#fff" d="M687 43h-10l-1 1v2l1 1h3v13l1 1h2l1-1V47h4l1-1v-2l-2-1zM711 60l-3-16-1-1-1 1-5 10-5-10-1-1-1 1-3 16v1h3l1-1 1-7 4 8h2l3-8 2 7 1 1h3v-1z"/>
        <g>
            <path fill="#fff" d="M73 111l-3-2-3 1c-5 5-12 7-18 7-15 0-27-12-27-27 0-16 12-28 27-28 6 0 13 2 18 7l3 1 3-1 8-8 1-4-1-3c-10-8-20-12-33-12a48 48 0 1 0 33 83l1-3-1-3-8-8zM140 42a48 48 0 0 0-48 48c0 27 21 48 48 48a48 48 0 0 0 49-48c-1-27-22-48-49-48zm0 75a27 27 0 1 1 0-55 27 27 0 0 1 0 55zM285 73c0-17-13-30-30-30h-42c-2 0-4 2-4 4v85c0 3 2 5 4 5h12c3 0 5-2 5-5v-31h15l17 33c1 1 2 3 4 3h13l4-2v-5l-16-31c11-5 18-15 18-26zm-21 0c0 6-5 11-10 11h-24V62h24c6 0 10 5 10 11zM342 43h-31c-2 0-4 2-4 4v85c0 3 2 5 4 5h31c26 0 47-22 47-47 0-26-21-47-47-47zm25 47c0 16-11 27-27 27h-12V63h12c16 0 27 11 27 27zM452 42a48 48 0 0 0-48 48c0 27 21 48 48 48a48 48 0 0 0 48-48c0-27-21-48-48-48zm0 75a27 27 0 1 1 0-55 27 27 0 0 1 0 55zM594 45l-4-2h-13l-4 2-23 53-23-52c-1-2-2-3-4-3h-13l-4 2v4l39 87 4 2h2l4-3 39-86v-4zM673 131l-40-87s-1-2-4-2h-1l-4 2-40 87v4l4 2h11c3 0 5-2 6-4l6-13h35l6 13c1 2 2 4 6 4h11l4-2v-4zm-35-29h-19l9-22 10 22z"/>
        </g>
    </g>
    <script id="bw-fido2-page-script"/>
</svg>