<svg width="170" viewBox="0 0 1205.9 193.5" xmlns="http://www.w3.org/2000/svg">
  <g paint-order="stroke fill markers">
    <path d="M73 20.8l41.1 28.5-41 28.5-41.2-28.5z" fill="#05ae49"/>
    <path d="M114.1 49.3l41.2 28.5-41.2 28.5-41-28.5z" fill="#137039"/>
    <path d="M155.3 20.8l41 28.5-41 28.5L114 49.3z" fill="#005f33"/>
    <path d="M155.3 77.8v71.8L114 178v-71.7z" fill="#21813a"/>
    <path d="M196.4 49.3v71.8l-41.1 28.5V77.8z" fill="#116a2a"/>
    <path d="M73 77.8v71.8l41.1 28.4v-71.7z" fill="#29a545"/>
    <path d="M32 49.3v71.8l41 28.5V77.8z" fill="#31ba50"/>
  </g>
  <g fill="#ccc">
    <path d="M713.5 34.4c-.5 0-8.7 13.6-18.2 30.3a123624.8 123624.8 0 0 1-41.5 73.2 295 295 0 0 0-8.5 15.5c0 .3 5.8.6 12.8.6h12.8l1.7-3.1a93127.5 93127.5 0 0 1 33.5-59c3.7-6.5 7-11.8 7.3-11.8 1 0 1.8 1.4 15.7 25.9a236.5 236.5 0 0 1 13 24.7c-.3.3-9 .7-19.2.8l-18.5.2-5.6 9.8c-3.1 5.5-5.9 10.5-6.1 11.2-.5 1.2 2 1.3 44.1 1.3 24.5 0 44.6-.2 44.6-.4 0-.8-2.2-5-10.2-19L754.5 105c-27.9-49.8-40-70.6-41-70.6zM381 34.2c-6.3 0-7.1.4-7.2 1-.2.7-.2 27.7 0 60l.1 58.8h22v-16.7a14818.7 14818.7 0 0 0 .6-77.5v-2.4h34c33.6 0 33.8 0 36.6 1.7 3.4 2 6.3 6.8 6.3 10.7 0 4.3-2.8 9-6.6 10.8-3.2 1.7-3.5 1.7-34.8 1.7-17.4 0-31.8.2-32 .5-.4.6 4.2 5.4 44.2 46.1l24.6 25.1 16-.2 15.9-.2-23-23.3c-12.6-12.8-23-23.6-23.2-24-.1-.3 2-.6 4.5-.6 10.6 0 19.5-3.6 26.5-10.6a35.8 35.8 0 0 0-13.6-59.3c-3-1.3-5.6-1.4-50.6-1.6-22-.1-34-.2-40.2 0zM939.4 34l.2 11.5.2 11.5 22.7.2 23.6.2c.7 0 .9 10.2.9 48.3V154H1009.7V57.4h47.9l9.1 11.2 25.5 30.8 6 7.3V154H1120.9v-47.4l19.8-24c36.3-44.1 38.7-47 38.7-47.8 0-.5-4.9-.8-14.2-.8H1151l-10 12.3a26274 26274 0 0 0-18 21.7c-12.7 15.4-13.6 16.3-14.7 15a8034 8034 0 0 0-37.8-46l-2.5-3h-64.3zM916.8 34c-9.6 0-11 .1-11.1 1.2-.2.7-.2 27.7 0 60l.1 58.8 11.1-.2 11.2-.2-.1-25.6-.2-59.8V34zM793 34l.3 55.8.2 55.9 1.8 2.6c1 1.5 3 3.3 4.4 4.1 2.5 1.5 3.6 1.5 47.4 1.6h44.8V131.3l-37.9-.2-37.8-.2-.2-48.4-.2-48.5h-11.4z"/>
    <path d="M633.7 34l-38.3.2c-42.8.2-42.2.1-53.6 5.7a60.2 60.2 0 0 0 15.4 113.6c.8.2 18.3.3 39 .4h37.4v-22.6h-34.2c-18.8 0-36.2-.3-38.6-.7-6.4-1-14.4-5.3-19.3-10.2a39.8 39.8 0 0 1-8.8-13.9c0-.6 14-.8 50.4-.8h50.5V83l-50-.2c-27.6 0-50.3-.4-50.6-.7-1-1 3.4-8.6 7.5-13 4.3-4.7 8-7.1 14.3-9.8 3.7-1.5 5-1.5 41.1-1.9l37.4-.4.2-11.5zM358.5 33.9l-39 .3c-36.6.3-39.2.4-44.2 1.8a60.3 60.3 0 0 0 2.3 116.9c3.4.7 13.9 1 42.7 1h38.3l-.2-11-.2-11.2-37.7-.4c-36.6-.4-37.8-.5-42-2a38 38 0 0 1-15.4-10.6 30.7 30.7 0 0 1-8.5-15.7 36.4 36.4 0 0 1 26-44.2c4-1.3 7.4-1.4 40-1.4a811 811 0 0 0 36.8-.4c1-.4 1.1-2.2 1.1-11.8z"/>
  </g>
</svg>