<svg xmlns="http://www.w3.org/2000/svg" fill="none" width="120" viewBox="0 0 140 42">
    <defs>
        <clipPath id="a-creatie">
            <rect width="140" height="42" rx="0"/>
        </clipPath>
        <clipPath id="b-creatie">
            <rect y="1" width="140" height="40" rx="0"/>
        </clipPath>
    </defs>
    <g clip-path="url(#a-creatie)">
        <g clip-path="url(#b-creatie)">
            <path d="M52.1 30.1a9.4 9.4 0 0 1-8.2-4.6c-.8-1.4-1.2-3-1.2-4.7a9.1 9.1 0 0 1 4.6-8 9.6 9.6 0 0 1 10.5.6c.2.1.2.3.2.4l-.1.3-1.8 2.4-.4.2-.3-.1a6.5 6.5 0 0 0-3.3-1 5 5 0 0 0-2.6.6 5.3 5.3 0 0 0-2.6 4.6 5.3 5.3 0 0 0 5.2 5.4 5.3 5.3 0 0 0 3.3-1.1l.3-.1c.2 0 .3 0 .4.2l1.8 2.3.1.4c0 .1 0 .2-.2.3a9.2 9.2 0 0 1-5.7 2zm16.5-16c1 0 2 .3 3.1 1 .2 0 .3.2.3.4l-.1.2-1.3 2.4c-.1.2-.2.3-.4.3h-.3a4 4 0 0 0-1.9-.6 3 3 0 0 0-1.6.5c-.5.3-1 .8-1.2 1.4a5 5 0 0 0-.5 2.3v7.3c0 .4-.2.5-.5.5h-3c-.3 0-.5-.1-.5-.5V15c0-.3.2-.5.6-.5h2.2c.3 0 .5.1.6.4l.5 1.5c.5-.7 1-1.2 1.7-1.6.7-.4 1.4-.5 2.3-.5zM80 30.3a8 8 0 0 1-7-4 8.4 8.4 0 0 1 0-8 7.3 7.3 0 0 1 6.7-4c1.5 0 2.9.3 4 1 1.2.7 2 1.6 2.7 2.9a9 9 0 0 1 .9 5c0 .3-.2.4-.6.4H76c.2.7.5 1.2 1 1.7a4.1 4.1 0 0 0 3.2 1.5 5 5 0 0 0 3-1l.4-.1c.1 0 .2 0 .3.2l1.4 2 .2.3-.2.3a8.6 8.6 0 0 1-5.3 1.8zm3.4-9.6a4 4 0 0 0-1.3-2.3c-.6-.5-1.4-.8-2.4-.8-.9 0-1.7.3-2.3.9a4 4 0 0 0-1.4 2.2h7.4zm18.2-5.8c.1-.3.3-.4.6-.4h2.2c.3 0 .5.2.5.5v14.4c0 .4-.2.5-.5.5H102c-.3 0-.5-.1-.6-.4l-.2-1a5.7 5.7 0 0 1-4.3 1.8 7.8 7.8 0 0 1-7-4 8 8 0 0 1-1-4 7.9 7.9 0 0 1 4-7c1.2-.7 2.5-1 4-1 1.7 0 3.2.5 4.3 1.7l.3-1zM97 26.4c.8 0 1.5-.2 2.2-.5a4 4 0 0 0 1.5-1.5c.3-.7.5-1.4.5-2.2 0-.8-.2-1.5-.5-2.2A4 4 0 0 0 97 18a4 4 0 0 0-3.6 2.1c-.3.7-.5 1.4-.5 2.2 0 .8.2 1.5.5 2.2a3.9 3.9 0 0 0 3.5 2zm15.9 3c0 .3-.2.4-.5.4h-3c-.3 0-.5-.1-.5-.5V18h-1.4c-.3 0-.5-.1-.5-.5V15c0-.3.2-.5.5-.5h1.4v-2.7c0-.4.2-.6.5-.6l3-.6.4.1.1.4v3.4h2.6c.3 0 .5.2.5.5v2.6c0 .4-.2.5-.5.5h-2.6v11.3zm5.5-16.8c-.3 0-.5-.2-.5-.6V9.4c0-.4.2-.5.5-.5h3c.3 0 .5.1.5.5V12c0 .4-.2.6-.5.6h-3zm3.5 16.7c0 .4-.2.5-.5.5h-3c-.3 0-.5-.1-.5-.5V15c0-.3.2-.5.5-.5h3c.3 0 .5.2.5.5v14.4zm10.8 1a8 8 0 0 1-7-4 8.4 8.4 0 0 1 0-8 7.3 7.3 0 0 1 6.7-4 6.8 6.8 0 0 1 6.8 3.9 9 9 0 0 1 .8 4.9c0 .3-.3.4-.6.4h-10.7c.2.7.5 1.2.9 1.7a4.1 4.1 0 0 0 3.3 1.5 5 5 0 0 0 3-1l.4-.1c.1 0 .2 0 .3.2l1.4 2 .1.3c0 .1 0 .2-.2.3a8.6 8.6 0 0 1-5.2 1.8zm3.4-9.7a4 4 0 0 0-1.3-2.3c-.7-.5-1.4-.8-2.4-.8-.9 0-1.7.3-2.3.9a4 4 0 0 0-1.4 2.2h7.4z" fill="currentColor" style="--darkreader-inline-fill:currentColor"/>
            <g>
                <path d="M30.8 11c0-1.3-1-2.5-2.4-2.5A13 13 0 0 0 15 21.1c0 7 6 12.5 13.3 12.5 1.4 0 2.4-1.1 2.4-2.5v-20z" fill="#FFC75D" style="--darkreader-inline-fill:var(--darkreader-text-ffc75d, #ffc65b)" opacity=".9"/>
                <path d="M22.3 7.1a2.8 2.8 0 0 0-3.6-1.7 14.7 14.7 0 0 0-9.8 19A16 16 0 0 0 29 33.4c1.4-.5 2-2 1.5-3.3l-8.3-23z" fill="#60C6AD" style="--darkreader-inline-fill:var(--darkreader-text-60c6ad, #6acab2)" opacity=".9"/>
                <path d="M11.7 6.2C10.8 5 9.1 4.6 8 5.4l-.6.4c-8 5.7-9.7 16.6-3.7 24.3a19 19 0 0 0 26.2 3c1.2-.9 1.3-2.5.3-3.6L11.7 6.2z" fill="#827FFC" style="--darkreader-inline-fill:var(--darkreader-text-827ffc, #74a4fc)" opacity=".9"/>
            </g>
        </g>
    </g>
</svg>