<svg width="88" viewBox="0 0 883.8 231.5" fill="#822ef5" xmlns="http://www.w3.org/2000/svg">
    <path d="M 555.61597,8.2231104 V 212.16061 h 43.88476 V 8.2231104 Z m -441.7461,9.0546876 c -2.50662,0 -4.98532,0.12259 -7.42968,0.363281 -2.44436,0.240691 -4.85398,0.600411 -7.224607,1.070313 -2.370629,0.469902 -4.70285,1.050647 -6.98828,1.738281 -2.28544,0.687634 -4.52412,1.481114 -6.7129,2.375 -2.18877,0.893886 -4.327549,1.887904 -6.408198,2.976563 -2.08065,1.088658 -4.103395,2.27297 -6.064453,3.544921 -1.961059,1.271952 -3.859451,2.632408 -5.689453,4.076172 -1.830003,1.443765 -3.591816,2.970121 -5.279297,4.574219 -1.687482,1.604098 -3.30049,3.286111 -4.833985,5.039063 -1.533494,1.752952 -2.987425,3.57647 -4.355468,5.466796 -1.368043,1.890327 -2.650671,3.847061 -3.841797,5.863282 -1.191126,2.016221 -2.290225,4.09202 -3.292969,6.222656 -1.002744,2.130636 -1.908041,4.315257 -2.710938,6.548828 -0.802896,2.233572 -1.504119,4.51677 -2.095703,6.841797 -0.591583,2.325027 -1.074553,4.692653 -1.443359,7.097656 -0.368806,2.405004 -0.62325,4.846813 -0.757812,7.320313 l -0.03516,0.220703 c -1.264875,0.842687 -2.50322,1.723107 -3.71289,2.638672 -1.20967,0.915564 -2.389731,1.866271 -3.541016,2.851562 -1.151285,0.985291 -2.273561,2.004774 -3.363281,3.056641 -1.08972,1.051867 -2.1469,2.136664 -3.171875,3.251953 -1.024976,1.11529 -2.017559,2.26193 -2.97461,3.43749 -0.95705,1.17557 -1.879679,2.37864 -2.765625,3.61133 -0.885945,1.23269 -1.735214,2.49459 -2.546875,3.78125 -0.811661,1.28666 -1.586116,2.59807 -2.320312,3.93555 -0.734196,1.33748 -1.42848,2.70078 -2.082031,4.08594 -0.653552,1.38515 -1.266211,2.79298 -1.835938,4.22265 -0.5697269,1.42968 -1.0954019,2.88052 -1.5781249,4.35157 -0.482722,1.47104 -0.921915,2.96144 -1.3144529,4.4707 -0.392538,1.50926 -0.7398902,3.0377 -1.0390622,4.58203 -0.299174,1.54433 -0.551278,3.1054 -0.753907,4.68164 -0.202629,1.57625 -0.35608,3.16843 -0.458984,4.77344 -0.102905,1.60501 -0.154297,3.22289 -0.154297,4.85351 0,2.5905 0.131538,5.15005 0.388672,7.67383 0.257134,2.52378 0.639057,5.01267 1.140625,7.45703 0.5015682,2.44437 1.1221671,4.84501 1.8554691,7.19727 0.733301,2.35226 1.5808679,4.65488 2.5332029,6.90234 0.952335,2.24747 2.0093,4.44033 3.167969,6.57032 1.158667,2.12998 2.419182,4.19746 3.771484,6.19726 1.352302,1.99981 2.796843,3.93213 4.330078,5.78906 1.533235,1.85694 3.154001,3.63847 4.855469,5.33985 1.701468,1.70137 3.484796,3.32234 5.341797,4.85547 1.857,1.53312 3.787276,2.9779 5.787109,4.33007 1.999833,1.35218 4.069253,2.61099 6.199219,3.76954 2.129965,1.15854 4.320961,2.2177 6.568359,3.16992 2.247398,0.95222 4.550214,1.79805 6.902344,2.53125 2.35213,0.7332 4.753105,1.35397 7.197265,1.85547 2.444163,0.50149 4.931585,0.88353 7.455079,1.14062 2.523493,0.25709 5.083703,0.38867 7.673828,0.38867 1.51075,0 3.011561,-0.0442 4.500001,-0.13281 1.48843,-0.0886 2.964,-0.22186 4.42773,-0.39648 1.46374,-0.17463 2.91492,-0.39238 4.35157,-0.65039 1.43664,-0.25802 2.85846,-0.55576 4.265623,-0.89454 1.40717,-0.33877 2.800477,-0.71784 4.175777,-1.13476 1.3753,-0.41692 2.73317,-0.8728 4.07422,-1.36524 1.34105,-0.49244 2.66435,-1.02059 3.96875,-1.58593 1.3044,-0.56535 2.59009,-1.16711 3.85547,-1.80274 l -0.0195,-0.0117 -0.13086,-0.0684 c 1.27012,0.64175 2.56132,1.24943 3.87109,1.82032 1.30977,0.57088 2.63745,1.10422 3.98438,1.60156 1.34693,0.49734 2.71215,0.95777 4.09375,1.37891 1.3816,0.42113 2.77958,0.80423 4.19336,1.14648 1.41378,0.34225 2.84363,0.6436 4.28711,0.9043 1.44347,0.26069 2.90041,0.47978 4.37109,0.65625 1.47068,0.17646 2.95578,0.31082 4.45117,0.40039 1.4954,0.0896 3.00191,0.13476 4.51953,0.13476 2.59063,0 5.15188,-0.13158 7.67578,-0.38867 2.52391,-0.25709 5.01059,-0.63913 7.45508,-1.14062 2.44449,-0.5015 4.84684,-1.12227 7.19922,-1.85547 2.35238,-0.7332 4.65475,-1.57903 6.90235,-2.53125 2.24757,-0.95222 4.44022,-2.01138 6.57031,-3.16992 2.13009,-1.15855 4.19735,-2.41736 6.19726,-3.76954 1.99991,-1.35217 3.93203,-2.79695 5.78907,-4.33007 1.85703,-1.53313 3.63837,-3.1541 5.33984,-4.85547 1.70146,-1.70138 3.32226,-3.48291 4.85547,-5.33985 1.5332,-1.85693 2.97978,-3.78925 4.33203,-5.78906 1.35225,-1.9998 2.61092,-4.06728 3.76953,-6.19726 1.15861,-2.12999 2.21765,-4.32285 3.16992,-6.57032 0.95227,-2.24746 1.79801,-4.55008 2.53125,-6.90234 0.73324,-2.35226 1.35395,-4.7529 1.85547,-7.19727 0.50152,-2.44436 0.88352,-4.93325 1.14063,-7.45703 0.2571,-2.52378 0.38867,-5.08333 0.38867,-7.67383 0,-1.63206 -0.0532,-3.25294 -0.15625,-4.85937 -0.10306,-1.60643 -0.25606,-3.19775 -0.45899,-4.77539 -0.20292,-1.57764 -0.45429,-3.13986 -0.7539,-4.68555 -0.29962,-1.54568 -0.6479,-3.07537 -1.04102,-4.58594 -0.39311,-1.51056 -0.83102,-3.00234 -1.31445,-4.4746 -0.48343,-1.47228 -1.01147,-2.92465 -1.58203,-4.35547 -0.57057,-1.43083 -1.18338,-2.84035 -1.83789,-4.22657 -0.65451,-1.38621 -1.35067,-2.74945 -2.08594,-4.08789 -0.73527,-1.33843 -1.51137,-2.65195 -2.32422,-3.93945 -0.81284,-1.2875 -1.66355,-2.54981 -2.55078,-3.7832 -0.88724,-1.23339 -1.81109,-2.43912 -2.76953,-3.61524 -0.95844,-1.17611 -1.9501,-2.32181 -2.97656,-3.43749 -1.02646,-1.115689 -2.08644,-2.199866 -3.17774,-3.251956 -1.09129,-1.052089 -2.21424,-2.073265 -3.36719,-3.058593 -1.15294,-0.985328 -2.33546,-1.936161 -3.54687,-2.851563 -1.21141,-0.915402 -2.45206,-1.794406 -3.71875,-2.636719 -0.12869,-2.479062 -0.3782,-4.927319 -0.74219,-7.33789 -0.36398,-2.410571 -0.84193,-4.782729 -1.42969,-7.113282 -0.58775,-2.330551 -1.28593,-4.618414 -2.08593,-6.857421 -0.80001,-2.239008 -1.7024,-4.43047 -2.70313,-6.566407 -1.00072,-2.135936 -2.09914,-4.216943 -3.28906,-6.238281 -1.18992,-2.021338 -2.47225,-3.98174 -3.83984,-5.876953 -1.3676,-1.895213 -2.81978,-3.72486 -4.35352,-5.482422 -1.53374,-1.757562 -3.14757,-3.44435 -4.83594,-5.052734 -1.68836,-1.608384 -3.45174,-3.138259 -5.2832,-4.585938 -1.83146,-1.447679 -3.73228,-2.812443 -5.69531,-4.08789 -1.96304,-1.275448 -3.98724,-2.461045 -6.07032,-3.552735 -2.08308,-1.091689 -4.22441,-2.089923 -6.41601,-2.986328 -2.1916,-0.896405 -4.43406,-1.691266 -6.72266,-2.380859 -2.2886,-0.689594 -4.62398,-1.272885 -6.99804,-1.744141 -2.37407,-0.471256 -4.78636,-0.830875 -7.23438,-1.072265 -2.44802,-0.241393 -4.93097,-0.365235 -7.44141,-0.365235 z m 231.60157,6.246094 c -3.26479,1.79e-4 -6.48792,0.171222 -9.65625,0.5 -3.16829,0.328882 -6.28037,0.814604 -9.33789,1.457031 -3.05752,0.642429 -6.05591,1.440036 -8.98829,2.38086 -2.93234,0.940822 -5.79894,2.027915 -8.59179,3.251953 -2.79289,1.224039 -5.51524,2.586026 -8.1543,4.078125 -2.63904,1.492074 -5.19713,3.116346 -7.66797,4.861328 -2.47085,1.744957 -4.85037,3.607156 -7.13867,5.589844 -2.28834,1.982714 -4.48473,4.083826 -6.57617,6.289062 -2.09145,2.205236 -4.07876,4.51902 -5.95899,6.931641 -1.88022,2.412637 -3.65395,4.922488 -5.30859,7.527343 -1.65466,2.604839 -3.19462,5.300146 -4.60937,8.082032 -1.41477,2.781921 -2.70086,5.647996 -3.86133,8.591796 -1.16053,2.943765 -2.19403,5.966148 -3.08594,9.056641 -0.89188,3.090516 -1.64499,6.250598 -2.25391,9.472652 -0.60893,3.22205 -1.07507,6.50917 -1.38672,9.84766 -0.31163,3.33844 -0.46875,6.73026 -0.46875,10.16992 0,3.35013 0.16097,6.65616 0.47461,9.91211 0.31353,3.25596 0.7782,6.46292 1.39063,9.60937 0.61242,3.14644 1.37281,6.23041 2.26953,9.25196 0.89674,3.0216 1.92924,5.97807 3.0957,8.85937 1.1664,2.88134 2.46518,5.68836 3.88672,8.41406 1.4215,2.72572 2.96692,5.37302 4.62891,7.92774 1.66196,2.55474 3.44224,5.01638 5.33008,7.38476 1.88784,2.36839 3.88527,4.63994 5.98437,6.80664 2.09907,2.16668 4.29995,4.23198 6.5957,6.18164 2.29574,1.94961 4.68627,3.78476 7.16407,5.50196 2.47776,1.71721 5.04424,3.31573 7.68945,4.78515 2.64519,1.4694 5.36997,2.81135 8.16797,4.01758 2.79802,1.20627 5.66537,2.27344 8.60156,3.20117 2.93622,0.92775 5.94022,1.71574 9,2.34961 3.05982,0.63383 6.17886,1.11874 9.34766,1.44336 3.16877,0.32459 6.38725,0.48828 9.65039,0.48828 3.54956,0 7.05091,-0.26031 10.51172,-0.73047 3.46086,-0.47017 6.88225,-1.15162 10.25976,-1.98632 3.37746,-0.8347 6.71417,-1.82242 10.01367,-2.91602 3.29951,-1.09359 6.56026,-2.2922 9.78711,-3.53906 v -49.18945 c -2.58149,1.596 -5.44921,3.15799 -8.52148,4.60351 -3.07223,1.44553 -6.35072,2.77299 -9.74609,3.90234 -3.39536,1.12935 -6.91017,2.05953 -10.46094,2.70704 -3.5508,0.64753 -7.13525,1.01367 -10.67383,1.01367 -3.40627,0 -6.69663,-0.32807 -9.84766,-0.96289 -3.15103,-0.63482 -6.16272,-1.57456 -9.00976,-2.79297 -2.84706,-1.21837 -5.53299,-2.71601 -8.02735,-4.4668 -2.49436,-1.75076 -4.79964,-3.75832 -6.89257,-5.99023 -2.09296,-2.23194 -3.97442,-4.6897 -5.61719,-7.35157 -1.64282,-2.66188 -3.04552,-5.52579 -4.18945,-8.5664 -1.14392,-3.0406 -2.02479,-6.25689 -2.6211,-9.625 -0.59634,-3.36813 -0.9082,-6.88683 -0.9082,-10.53125 0,-3.75185 0.30581,-7.36827 0.89258,-10.82617 0.58678,-3.45792 1.45596,-6.75716 2.58593,-9.87109 1.12996,-3.113921 2.52076,-6.043733 4.15039,-8.763674 1.62962,-2.719965 3.49635,-5.231851 5.58204,-7.507813 2.08567,-2.275978 4.38851,-4.317638 6.88672,-6.099609 2.49819,-1.782005 5.18951,-3.304957 8.05664,-4.542969 2.86716,-1.237994 5.90905,-2.189968 9.10156,-2.833984 3.19256,-0.643966 6.53932,-0.978516 10.01367,-0.978516 3.96516,0 7.91464,0.366495 11.73242,1.023438 3.81782,0.656959 7.50503,1.602192 10.93555,2.767578 3.43051,1.165386 6.6049,2.54892 9.4082,4.074218 2.80329,1.52533 5.23381,3.194947 7.16992,4.931641 V 32.969204 c -3.87224,-1.668931 -7.52569,-3.092767 -11.03711,-4.291015 -3.51143,-1.198275 -6.87922,-2.172329 -10.17968,-2.935547 -3.30048,-0.763217 -6.53796,-1.319812 -9.77735,-1.683594 -3.23941,-0.36381 -6.48237,-0.535156 -9.81054,-0.535156 z M 113.87183,33.16647 c 2.0455,0 4.06773,0.103625 6.06054,0.306641 1.99282,0.203015 3.95662,0.506335 5.88672,0.902343 1.93011,0.396009 3.82622,0.885866 5.6836,1.464844 1.85737,0.578978 3.67654,1.246122 5.45117,1.998047 1.77463,0.751925 3.50369,1.587104 5.18554,2.501953 1.68187,0.914849 3.31547,1.908813 4.89454,2.976563 1.57906,1.06775 3.10405,2.209293 4.57031,3.419922 1.46625,1.210627 2.87337,2.4905 4.2168,3.833984 1.34342,1.343483 2.62341,2.750481 3.83398,4.216797 1.21057,1.466315 2.35223,2.99314 3.41992,4.572265 1.06769,1.579125 2.06177,3.210667 2.97656,4.892578 0.9148,1.681912 1.75008,3.412825 2.50196,5.1875 0.75188,1.774676 1.4191,3.593757 1.99804,5.451172 0.57895,1.857416 1.07082,3.753461 1.4668,5.683594 0.39598,1.930133 0.69739,3.893891 0.90039,5.886719 0.203,1.992828 0.30664,4.015047 0.30664,6.060547 0,2.159249 -0.11571,4.29245 -0.34179,6.392578 -0.22609,2.100123 -0.56165,4.168013 -1.00196,6.197263 -0.44031,2.02925 -0.98622,4.02018 -1.6289,5.96679 -0.64269,1.94662 -1.3836,3.84895 -2.2168,5.70118 -0.83321,1.85223 -1.75766,3.6543 -2.76953,5.40039 -1.01187,1.74608 -2.11038,3.43626 -3.28906,5.06445 -1.17869,1.62819 -2.43784,3.19287 -3.77149,4.69141 -1.33364,1.49853 -2.742,2.92998 -4.21875,4.28711 l -8.28125,-4.7461 -15.91797,9.12305 25.56641,14.6582 c 2.0405,-1.35412 4.01151,-2.80477 5.90625,-4.3457 1.89473,-1.54093 3.71342,-3.17216 5.44922,-4.88672 1.73579,-1.71456 3.38944,-3.51169 4.95312,-5.38672 1.56368,-1.87503 3.03763,-3.82727 4.41602,-5.84961 1.37839,-2.02233 2.65991,-4.11501 3.83984,-6.27148 1.17993,-2.15647 2.25827,-4.37686 3.22656,-6.6543 0.9683,-2.27744 1.82683,-4.61281 2.57032,-6.99805 0.74348,-2.38524 1.37145,-4.8209 1.87695,-7.30078 1.47487,1.35575 2.88123,2.78447 4.21289,4.28125 1.33166,1.49679 2.58894,3.06139 3.76563,4.6875 1.17668,1.62611 2.27324,3.31488 3.2832,5.0586 1.00996,1.74371 1.93219,3.54297 2.76367,5.39257 0.83148,1.84961 1.57165,3.74959 2.21289,5.69336 0.64124,1.94378 1.1838,3.9308 1.62305,5.95704 0.43925,2.02623 0.7745,4.09052 1,6.1875 0.2255,2.09696 0.34179,4.22681 0.3418,6.38281 0,2.04344 -0.10383,4.06389 -0.30665,6.05469 -0.20281,1.99079 -0.50477,3.9527 -0.90039,5.88085 -0.39561,1.92816 -0.88449,3.82225 -1.46289,5.67774 -0.5784,1.85549 -1.24687,3.67249 -1.99804,5.44531 -0.75118,1.77282 -1.58606,3.5015 -2.5,5.18164 -0.91394,1.68015 -1.90597,3.31122 -2.97266,4.88867 -1.06669,1.57746 -2.20659,3.10165 -3.41602,4.56641 -1.20942,1.46476 -2.48792,2.86889 -3.83007,4.21094 -1.34216,1.34204 -2.74803,2.62075 -4.21289,3.83008 -1.46487,1.20932 -2.98885,2.34942 -4.56641,3.41601 -1.57757,1.0666 -3.21037,2.06076 -4.89063,2.97461 -1.68025,0.91386 -3.40871,1.7489 -5.18164,2.5 -1.77292,0.75111 -3.58972,1.41775 -5.44531,1.99609 -1.85559,0.57835 -3.74949,1.06732 -5.67773,1.46289 -1.92824,0.39558 -3.88999,0.6976 -5.88086,0.9004 -1.99088,0.20279 -4.01119,0.30664 -6.05469,0.30664 -1.77431,0 -3.53026,-0.0791 -5.26562,-0.23243 -1.73537,-0.15336 -3.45079,-0.38147 -5.14063,-0.68164 -1.68984,-0.30017 -3.35446,-0.6709 -4.99219,-1.11132 -1.63772,-0.44043 -3.24714,-0.94931 -4.82617,-1.52344 -1.57903,-0.57413 -3.12687,-1.21473 -4.64062,-1.91602 -1.51376,-0.70128 -2.99366,-1.46327 -4.43555,-2.28515 -1.44189,-0.82189 -2.84749,-1.70274 -4.21094,-2.63868 -1.36345,-0.93593 -2.68446,-1.92726 -3.96289,-2.9707 -1.27843,-1.04344 -2.51435,-2.13882 -3.70117,-3.2832 -1.18682,-1.14439 -2.32544,-2.3374 -3.41406,-3.57617 -1.08863,-1.23878 -2.12552,-2.52494 -3.109377,-3.85157 -0.98385,-1.32662 -1.91461,-2.69365 -2.787109,-4.10156 -0.872501,-1.40791 -1.686841,-2.85524 -2.441401,-4.33789 -0.75457,-1.48265 -1.45004,-3.00189 -2.08008,-4.55273 -0.63004,-1.55085 -1.19638,-3.13362 -1.69531,-4.7461 -0.49895,-1.61248 -0.92977,-3.25431 -1.29102,-4.92187 l 8.45703,-4.87891 v -18.24609 l -25.568359,14.69336 c 0.07123,1.30432 0.175104,2.60077 0.3125,3.88672 0.137396,1.28594 0.307916,2.56224 0.509766,3.82812 0.4037,2.53177 0.934711,5.02143 1.585937,7.46289 0.651227,2.44146 1.423564,4.83416 2.308594,7.17188 0.88503,2.33771 1.883168,4.61929 2.988281,6.83984 1.105113,2.22055 2.317429,4.3788 3.628911,6.46875 1.31147,2.08995 2.72244,4.11268 4.22656,6.05859 1.50411,1.94592 3.10017,3.81507 4.7832,5.60352 1.68303,1.78845 3.45255,3.49572 5.30078,5.11328 -1.40482,0.44345 -2.83149,0.83488 -4.27734,1.17383 -1.44585,0.33894 -2.91082,0.62527 -4.39453,0.85547 -1.48372,0.2302 -2.98549,0.40426 -4.50391,0.52148 -1.51842,0.11722 -3.053553,0.17774 -4.603514,0.17774 -2.0435,0 -4.063855,-0.10385 -6.054688,-0.30664 -1.990833,-0.2028 -3.952701,-0.50481 -5.880859,-0.9004 -1.928159,-0.39557 -3.822257,-0.88454 -5.677735,-1.46289 -1.855477,-0.57834 -3.672523,-1.24498 -5.445312,-1.99609 -1.77279,-0.7511 -3.501546,-1.58614 -5.181641,-2.5 -1.680094,-0.91385 -3.311279,-1.90801 -4.888672,-2.97461 -1.577393,-1.06659 -3.099768,-2.20669 -4.564453,-3.41601 -1.464684,-1.20933 -2.870921,-2.48804 -4.21289,-3.83008 -1.34197,-1.34205 -2.620832,-2.74618 -3.830078,-4.21094 -1.209248,-1.46476 -2.349498,-2.98895 -3.416016,-4.56641 -1.066518,-1.57745 -2.058874,-3.20852 -2.972656,-4.88867 -0.913783,-1.68014 -1.748961,-3.40882 -2.5,-5.18164 -0.75104,-1.77282 -1.417804,-3.58982 -1.996094,-5.44531 -0.57829,-1.85549 -1.067357,-3.74958 -1.462891,-5.67774 -0.395533,-1.92815 -0.69762,-3.89006 -0.90039,-5.88085 -0.202771,-1.9908 -0.306641,-4.01125 -0.306641,-6.05469 0,-2.0435 0.103878,-4.0638 0.306641,-6.05469 0.202763,-1.99089 0.50487,-3.95259 0.90039,-5.88086 0.395521,-1.92826 0.884618,-3.82211 1.462891,-5.67773 0.578273,-1.85563 1.245074,-3.67234 1.996094,-5.44532 0.75102,-1.77297 1.586238,-3.50329 2.5,-5.18359 0.913761,-1.6803 1.906158,-3.31105 2.972656,-4.88867 1.066497,-1.57762 2.206787,-3.10148 3.416016,-4.56641 1.209228,-1.46492 2.488124,-2.87068 3.830078,-4.21289 1.341953,-1.34221 2.746264,-2.62059 4.210937,-3.83008 1.464674,-1.20948 2.989018,-2.35122 4.566406,-3.41796 1.577389,-1.06675 3.208575,-2.058669 4.888672,-2.972657 1.680098,-0.913992 3.40884,-1.748777 5.181641,-2.5 1.772801,-0.751222 3.589813,-1.419608 5.445312,-1.998047 1.8555,-0.578438 3.749542,-1.06725 5.677735,-1.46289 1.928192,-0.395641 3.889979,-0.697564 5.880859,-0.900391 1.99088,-0.202827 4.011125,-0.306641 6.054688,-0.306641 1.551751,0 3.089884,0.05983 4.611324,0.177735 1.52145,0.11791 3.02679,0.294343 4.51368,0.52539 1.48688,0.231047 2.95427,0.516059 4.40234,0.855469 1.44807,0.33941 2.87625,0.732781 4.28125,1.175781 l 0.0371,9.626951 15.857417,9.0625 V 83.998501 c -1.25,-0.6355 -2.52501,-1.237406 -3.82227,-1.802734 -1.29724,-0.565328 -2.61675,-1.093429 -3.95703,-1.585938 -1.34028,-0.492508 -2.70097,-0.948192 -4.08007,-1.365234 -1.37911,-0.417042 -2.775727,-0.795838 -4.189457,-1.134766 -1.41373,-0.338927 -2.84492,-0.638317 -4.28906,-0.896484 -1.44414,-0.258167 -2.9027,-0.475632 -4.37305,-0.650391 -1.47034,-0.174758 -2.95297,-0.307781 -4.44531,-0.396484 -1.49234,-0.0887 -2.993781,-0.132813 -4.503906,-0.132813 -2.13875,0 -4.257878,0.09095 -6.353515,0.267579 -2.095637,0.176626 -4.168541,0.439363 -6.212891,0.785156 -2.044349,0.345793 -4.060035,0.773749 -6.044922,1.28125 -1.984887,0.507501 -3.93822,1.094109 -5.855468,1.755859 l 0.03711,-0.169922 c 0.361187,-1.669375 0.792276,-3.313461 1.291015,-4.927734 0.498741,-1.614273 1.06557,-3.199346 1.695313,-4.751953 0.629743,-1.552607 1.321976,-3.072265 2.076172,-4.556641 0.754195,-1.484376 1.569308,-2.932216 2.441406,-4.341797 0.872098,-1.40958 1.801707,-2.781154 2.785156,-4.109375 0.98345,-1.32822 2.021124,-2.613219 3.109375,-3.853515 1.088251,-1.240296 2.227561,-2.436225 3.414063,-3.582031 1.186502,-1.145808 2.421015,-2.242356 3.699219,-3.28711 1.278203,-1.044753 2.599536,-2.037474 3.96289,-2.974609 1.363354,-0.937135 2.768984,-1.817673 4.210934,-2.640625 1.44196,-0.822953 2.92155,-1.586858 4.43555,-2.289063 1.514,-0.702205 3.06112,-1.343074 4.64063,-1.917969 1.5795,-0.574893 3.18967,-1.084373 4.828119,-1.52539 1.638447,-0.441017 3.305237,-0.814659 4.996087,-1.115234 1.69086,-0.300576 3.40588,-0.528071 5.14258,-0.681641 1.7367,-0.15357 3.49549,-0.232422 5.27149,-0.232422 z m 520.22656,14.8125 v 38.722656 h -18.07031 v 36.140624 h 18.07031 v 90.35156 h 43.88477 v -90.35156 h 28.39648 V 86.701626 H 677.98316 V 47.97897 Z m 137.78125,34.445313 c -4.10293,0 -8.01357,0.273415 -11.7168,0.80664 -3.70325,0.533243 -7.20144,1.327203 -10.47265,2.365234 -3.27123,1.038017 -6.31422,2.323507 -9.1211,3.837891 -2.80685,1.514407 -5.37345,3.256417 -7.68359,5.21875 -2.31016,1.962344 -4.36537,4.141571 -6.14649,6.523432 -1.78114,2.38185 -3.2861,4.96728 -4.50585,7.74023 -1.21976,2.77295 -2.15327,5.73156 -2.7793,8.86719 -0.62604,3.13561 -0.94727,6.44814 -0.94727,9.91797 0,2.64344 0.27658,5.13002 0.81055,7.4668 0.534,2.33679 1.32419,4.5217 2.34961,6.57031 1.02542,2.04862 2.28743,3.95939 3.76172,5.73828 1.47429,1.77887 3.16234,3.42749 5.04297,4.95508 1.4527,1.18683 3.27415,2.35461 5.27343,3.45898 1.99931,1.10438 4.17595,2.14489 6.34766,3.08204 4.34336,1.87435 8.6573,3.33035 11.44531,4.02734 5.68702,1.38369 9.2259,2.35737 11.58594,3.22656 1.18004,0.43459 2.06844,0.84466 2.7793,1.26563 0.71085,0.42098 1.24513,0.85191 1.72851,1.33593 0.5589,0.56276 1.0424,1.46996 1.38672,2.51172 0.34429,1.04175 0.54883,2.21811 0.54883,3.33203 0,1.38818 -0.34608,2.67079 -0.98242,3.81641 -0.63636,1.14563 -1.5614,2.15292 -2.72266,2.98633 -1.16125,0.83341 -2.56004,1.49378 -4.13476,1.94531 -1.57474,0.45154 -3.3264,0.69531 -5.20313,0.69531 -2.42726,0 -5.04758,-0.29153 -7.78906,-0.85546 -2.74147,-0.56392 -5.60383,-1.40047 -8.52149,-2.47657 -2.91765,-1.07609 -5.888,-2.39516 -8.84375,-3.93164 -2.95574,-1.53652 -5.89619,-3.28921 -8.75195,-5.23437 l -15.29297,31.38672 c 3.96646,2.43243 7.9165,4.55297 11.86328,6.36328 3.9468,1.81033 7.88859,3.3083 11.84961,4.50586 3.96098,1.19754 7.94016,2.09337 11.94922,2.6875 4.00908,0.59411 8.04962,0.88867 12.14063,0.88867 4.34011,0 8.48672,-0.29206 12.41797,-0.85742 3.93127,-0.56539 7.64862,-1.4038 11.13281,-2.50196 3.4842,-1.09815 6.73154,-2.45438 9.73047,-4.05273 2.99901,-1.59833 5.74907,-3.43995 8.22461,-5.50586 2.47555,-2.06592 4.6798,-4.35652 6.59375,-6.85742 1.91394,-2.50085 3.53741,-5.21393 4.85156,-8.11719 1.31413,-2.90327 2.31797,-5.99844 2.99414,-9.27148 0.67617,-3.27302 1.02344,-6.72183 1.02344,-10.33204 6.3e-4,-3.05971 -0.32817,-5.91044 -0.9375,-8.55664 -0.60928,-2.64623 -1.49892,-5.08875 -2.61133,-7.33007 -1.1124,-2.24131 -2.45035,-4.28198 -3.95899,-6.12696 -1.50862,-1.84501 -3.18829,-3.49392 -4.98632,-4.95117 -1.46304,-1.17846 -3.02839,-2.21904 -4.66797,-3.15039 -1.63961,-0.9314 -3.35165,-1.75625 -5.10743,-2.50195 -3.51152,-1.49124 -7.19645,-2.66866 -10.81054,-3.78516 -2.63312,-0.69442 -6.31311,-1.59934 -9.78711,-2.67773 -1.737,-0.53919 -3.42124,-1.12153 -4.90039,-1.74414 -1.47916,-0.62263 -2.75083,-1.28478 -3.66016,-1.98243 -0.69829,-0.55502 -1.31542,-1.31811 -1.75976,-2.18359 -0.44432,-0.86554 -0.71485,-1.83214 -0.71485,-2.80664 0,-1.32173 0.32554,-2.55838 0.94141,-3.66602 0.61585,-1.10764 1.52136,-2.08826 2.66797,-2.90429 1.14664,-0.81598 2.53661,-1.46533 4.1289,-1.91211 1.59231,-0.44678 3.38695,-0.68946 5.33985,-0.68946 1.79994,0 3.6381,0.13881 5.50586,0.41211 1.86774,0.27338 3.76382,0.6826 5.6914,1.22071 1.9276,0.53811 3.88585,1.20188 5.86524,1.99609 1.97943,0.79418 3.98066,1.71813 6.0039,2.75977 l 14.16407,-28.896483 c -3.05712,-1.387552 -6.1701,-2.584576 -9.32422,-3.59961 -3.15413,-1.015056 -6.3525,-1.846254 -9.58399,-2.505859 -3.23155,-0.659623 -6.49195,-1.145536 -9.78125,-1.466797 -3.28934,-0.321276 -6.60605,-0.480468 -9.93359,-0.480468 z m -367.5332,4.277343 v 79.898434 c 0,4.20332 0.31793,8.16057 0.95703,11.86523 0.63909,3.70465 1.59709,7.15714 2.8789,10.35547 0.64093,1.59919 1.36566,3.13625 2.16797,4.60742 0.80227,1.47118 1.68434,2.87851 2.64844,4.22071 0.96411,1.34219 2.00839,2.61976 3.13477,3.83203 1.1264,1.21225 2.33781,2.35807 3.62695,3.43945 1.28914,1.08142 2.65508,2.09535 4.10742,3.04492 1.45231,0.94957 2.98753,1.83557 4.60352,2.65235 3.23195,1.63356 6.79038,2.99706 10.67968,4.09375 3.88929,1.09669 8.10988,1.92244 12.66016,2.47461 4.55028,0.55217 9.43157,0.83203 14.64648,0.83203 5.20491,0 10.07506,-0.27986 14.61133,-0.83203 4.53626,-0.55217 8.73855,-1.37792 12.61133,-2.47461 3.87276,-1.09669 7.41254,-2.46019 10.62695,-4.09375 1.60722,-0.81678 3.13454,-1.70278 4.57813,-2.65235 1.44359,-0.94957 2.80335,-1.9635 4.08398,-3.04492 1.28061,-1.08138 2.4833,-2.2272 3.60157,-3.43945 1.11829,-1.21227 2.15277,-2.48984 3.10937,-3.83203 0.95659,-1.3422 1.83725,-2.74953 2.63281,-4.22071 0.79556,-1.47117 1.50744,-3.00823 2.14258,-4.60742 1.27031,-3.19833 2.22092,-6.65082 2.85352,-10.35547 0.63257,-3.70466 0.94922,-7.66191 0.94922,-11.86523 V 86.701626 h -41.30469 v 71.574214 c 0,1.94484 -0.11246,3.76896 -0.33789,5.4707 -0.22563,1.70177 -0.56744,3.28158 -1.01367,4.74024 -0.44625,1.4587 -0.9964,2.79808 -1.65821,4.01367 -0.66177,1.2156 -1.4324,2.30875 -2.30469,3.28125 -0.87227,0.9725 -1.8461,1.8214 -2.92382,2.55078 -1.07774,0.7294 -2.26097,1.3399 -3.53907,1.82617 -1.27812,0.48625 -2.65154,0.85065 -4.125,1.09375 -1.47346,0.24318 -3.04522,0.36328 -4.70898,0.36328 -1.77478,0 -3.43043,-0.11501 -4.9668,-0.34375 -1.53638,-0.22871 -2.95312,-0.57292 -4.25586,-1.03711 -1.30271,-0.46418 -2.49064,-1.04381 -3.56445,-1.75 -1.07376,-0.7062 -2.03325,-1.53539 -2.88281,-2.49023 -0.84957,-0.95483 -1.58865,-2.03796 -2.21875,-3.24805 -0.63008,-1.21007 -1.15302,-2.5515 -1.56836,-4.02343 -0.41534,-1.47195 -0.72244,-3.07406 -0.92774,-4.81446 -0.20523,-1.7404 -0.30859,-3.61732 -0.30859,-5.63281 V 86.701626 Z m 449.62304,92.443354 a 17.977478,17.977478 0 0 0 -8.98632,2.41016 17.977478,17.977478 0 0 0 -6.57813,6.58008 17.977478,17.977478 0 0 0 -2.41016,8.98437 17.977478,17.977478 0 0 0 2.4043,8.99023 17.977478,17.977478 0 0 0 6.58008,6.58008 17.977478,17.977478 0 0 0 8.99023,2.41016 17.977478,17.977478 0 0 0 4.00196,-0.44922 17.977478,17.977478 0 0 0 3.79687,-1.33203 17.977478,17.977478 0 0 0 3.4082,-2.14258 17.977478,17.977478 0 0 0 2.84961,-2.84766 17.977478,17.977478 0 0 0 2.14258,-3.4082 17.977478,17.977478 0 0 0 1.33008,-3.79687 17.977478,17.977478 0 0 0 0.44922,-4.00391 17.977478,17.977478 0 0 0 -2.41016,-8.99023 17.977478,17.977478 0 0 0 -6.58008,-6.58008 17.977478,17.977478 0 0 0 -8.98828,-2.4043 z"/>
</svg>