<svg viewBox="0 0 250 250" width="41" height="auto" >
    <path fill-rule="evenodd" clip-rule="evenodd" fill="#EA9123" d="M114.356 61.667a30.376 30.376 0 0 1-3.332 11.074l29.379 29.998a33.643 33.643 0 0 1 13.461-3.313l12.234-40.312a30.668 30.668 0 0 1-7.828-8.522l-43.914 11.075zm-4.897-19.942l44.544-11.234c1.999-14.976 14.836-26.465 30.272-26.465 16.865 0 30.544 13.68 30.544 30.544 0 16.445-13.008 29.861-29.291 30.518l-12.07 39.768a33.786 33.786 0 0 1 15.383 28.34 33.734 33.734 0 0 1-11.236 25.16l13.215 26.378c1.416-.201 2.848-.3 4.281-.3 16.865 0 30.544 13.679 30.544 30.544 0 16.863-13.679 30.543-30.544 30.543s-30.544-13.68-30.544-30.543a30.47 30.47 0 0 1 8.233-20.859l-13.714-27.372c-1.335.159-2.68.24-4.026.24a33.648 33.648 0 0 1-19.033-5.872L120.49 174.79c.105.803.157 1.613.157 2.427 0 10.289-8.345 18.636-18.635 18.636s-18.636-8.347-18.636-18.636c0-10.291 8.346-18.638 18.636-18.638 1.776 0 3.534.252 5.227.745l16.175-14.243a33.63 33.63 0 0 1-1.766-6.774l-38.559-5.194a30.557 30.557 0 0 1-26.901 16.071c-16.865 0-30.543-13.68-30.543-30.543 0-16.864 13.678-30.542 30.543-30.542 14.838 0 27.367 10.642 30.023 24.91l38.552 5.194c.256-.517.527-1.028.81-1.533L96.115 86.588a30.466 30.466 0 0 1-12.145 2.514c-16.864 0-30.543-13.679-30.543-30.543 0-16.864 13.679-30.543 30.543-30.543a30.537 30.537 0 0 1 25.489 13.709z"/>
</svg>