<svg width="85" height="20" viewBox="0 0 85 20" xmlns="http://www.w3.org/2000/svg">
    <g fill="#0062FF" fill-rule="evenodd">
        <path d="M0 18.198C0 19.29.71 20 1.803 20h5.268c3.143 0 5.713-1.063 7.461-2.924H0v1.122zM7.071 0H1.803C.709 0 0 .71 0 1.802v1.122h14.532C12.784 1.063 10.214 0 7.071 0zm4.597 12.85c0 .884.577 1.458 1.465 1.458h3.157c.358-.888.598-1.863.71-2.916h-3.867c-.888 0-1.465.573-1.465 1.458zM7.293 7.157c0 .885.576 1.459 1.465 1.459H17a10.838 10.838 0 0 0-.71-2.917H8.758c-.889 0-1.465.574-1.465 1.458zm1.464 5.693c0-.885-.576-1.458-1.465-1.458H0v2.916h7.292c.889 0 1.465-.574 1.465-1.458zM4.382 7.157c0-.884-.577-1.458-1.465-1.458H0v2.917h2.917c.888 0 1.465-.574 1.465-1.459zM37.072 9.699c.235-1.141.993-1.722 1.99-1.722.988 0 1.71.607 1.94 1.722h-3.93zM39.116 6C36.578 6 35 8.032 35 10.517 35 13.091 36.687 15 39.193 15c1.73 0 2.778-.801 3.427-1.81l-1.614-1.033c-.406.555-1.055.849-1.75.849-1.139 0-1.901-.534-2.161-1.603h4.26l-.001.005 1.552.009c.06-.281.094-.572.094-.9C43 8.352 41.67 6 39.116 6zM28.5 13c-1.561 0-2.5-1.12-2.5-2.5S26.957 8 28.5 8c1.543 0 2.5 1.12 2.5 2.5s-.939 2.5-2.5 2.5zm2.33-5.679c-.624-.748-1.509-1.207-2.608-1.207-2.456 0-4.222 1.989-4.222 4.443C24 13.01 25.75 15 28.222 15c1.1 0 1.984-.459 2.608-1.208v.99H33V3h-2.17v4.321zM49.636 10.352c.59.412.963 1.03.963 1.843 0 1.646-1.11 2.788-3.184 2.788-1.952 0-2.998-1-3.415-2.01l1.792-1.046s.24 1.091 1.591 1.091c.836 0 1.094-.37 1.094-.695 0-.152-.049-.43-.643-.665-1.195-.472-3.506-.684-3.506-2.838 0-1.763 1.383-2.704 3.087-2.704 1.595 0 2.619.992 3.007 1.764L48.67 8.904s-.338-.857-1.238-.857c-.9 0-.981.521-.981.672 0 .441.45.622 1.415.907.571.169 1.158.322 1.772.725l-.002.001zM85 8.434h-1.817v3.493c0 1.091 1.061.856 1.817.856v1.965s-.398.067-1.093.067c-1.544 0-2.798-.47-2.798-2.888V8.434H79.71V6.35h1.4V4h2.073v2.351H85v2.083zm-29.245 4.433c.86 0 1.523-.429 1.857-1.132l1.798 1.077C58.706 14.102 57.393 15 55.755 15c-2.484 0-4.22-1.985-4.22-4.434 0-2.448 1.752-4.433 4.22-4.433 1.614 0 2.922.883 3.634 2.156l-1.794 1.102c-.341-.695-.998-1.125-1.84-1.125-1.255 0-2.146 1.03-2.146 2.3 0 1.271.883 2.301 2.146 2.301zM74.822 12.844c-1.351 0-2.163-1.053-2.163-2.352 0-1.3.827-2.353 2.163-2.353 1.335 0 2.163 1.053 2.163 2.353 0 1.299-.812 2.352-2.163 2.352m.258-6.757c2.28 0 3.92 1.972 3.92 4.405 0 2.432-1.624 4.405-3.92 4.405-1.02 0-1.843-.456-2.421-1.198V18h-2.015V6.32h2.015v.964c.578-.742 1.4-1.197 2.42-1.197zm-8.31 8.593V6.337h2.015v8.343H66.77zm-3.755-6.918c.389-1.01 1.181-1.59 2.374-1.592v2.403c-1.399-.141-2.41.602-2.372 2.357l-.002-.004v3.754H61V6.337h2.015v1.425zm3.755-2.538V3h2.081v2.224H66.77z"/>
    </g>
</svg>