<svg width="110" viewBox="0 0 267.8 57">
  <path d="M39.3 23.7c-.3-.2-.8-.6-1-1-1.7-2-1.3-5.5.8-6.7 2.4-1.5 5.2.4 5.2 3.7 0 1.6-.5 2.6-1.6 3.5-.9.8-2.2 1-3.4.5zm2.2-5.7c.4-1.3-.6-2.3-2-1.9-1.7.7-1.1 2.9.8 2.7.7 0 1-.2 1.2-.8z"/>
  <path fill="#efcb2c" d="M19.2 56.4A19.6 19.6 0 0 1 4.6 39c0-.7-.3-1.2-1.3-2.2-.7-.7-1.6-2-2-2.7-1-2-1.5-5.3-1.2-7.4.4-2.5.4-2.5 1.4-1.7 3 2.2 4.8 2.5 14.1 2.5h7.5l-.8-1.8a13.4 13.4 0 0 1-1.4-7.7l.5-2.5c.1-.5 0-.7-1-1-1.5-.8-3.5-2.9-4.5-4.7-.7-1.6-1.5-5.4-1.2-5.7.1-.1.8 0 1.6.4l2.6 1 1.2.3L20 4c-.1-1.9 0-3.3.4-4 .2-.3.5-.1 1.5.7 2.4 2 4 2.6 11.3 4 2.9.6 5.9 1.3 6.7 1.6a14 14 0 0 1 7.7 7c2 4.2 1.9 6.4-.5 9.3-1 1.2-3.6 3-5.4 3.5-1.9.6-2.5 1.4-1.8 2.3.5.8 1.5 1.4 2.9 1.7 2.8.5 5.8 5.5 6.2 10.3.5 7.5-4.3 14.1-11.5 16-1.8.4-3 .5-9 .5a33 33 0 0 1-9.3-.6zm14.6-7.7l2.7-1.1c.5-.4.4-.4-.6-.3-3.7.5-7.6.8-9.5.6-4.7-.3-8.2-2.7-10.6-7.2l-.7-1.3h1.3c2.6-.2 2.7-.3.8-1.5-1.5-1-2.8-2.4-2.5-2.7l3 .4c3 .5 9 .7 8.3.2a79.7 79.7 0 0 1-13.2-2.6c-.2.5.6 2.8 1.2 3.8l.7 1-1-.1-1-.2.2 1c.3 1.7 2.2 5.2 3.7 6.7 1.7 1.8 3.2 2.8 5.6 3.6 1.7.5 2.2.6 5.7.5 3.2-.1 4.2-.2 6-.8zM43 23.3c2-2 2-5 .2-7a3.4 3.4 0 0 0-5.3.5c-.4.6-.7 1.3-.7 2.5-.2 2 .4 3.3 1.7 4.3 1.3.8 3 .7 4-.3z"/>
  <path fill="#e86523" d="M43.3 30.2c-2-.5-3.2-1.2-3.4-2-.3-1 0-1.3 1.8-1.9 1.8-.6 4.4-2.2 5.4-3.4.4-.4 1-1.4 1.4-2.2l.8-1.6.7.8c1 1.1 1.5 1.2 2.9.6l1.2-.6.7.5c1 .7 1 1.3.4 3.1a10.1 10.1 0 0 1-12 6.7z"/>
  <path fill="#eeb330" d="M22.2 49c-2.4-.8-3.9-1.8-5.6-3.6-1.5-1.5-3.4-5-3.7-6.7l-.2-1 1 .2 1 .1-.7-1c-.6-1-1.4-3.3-1.2-3.8A79.7 79.7 0 0 0 26 35.8c.7.5-5.2.3-8.3-.2a18 18 0 0 0-3-.4c-.3.3 1 1.6 2.5 2.7 1.9 1.2 1.8 1.3-.8 1.4l-1.3.1.7 1.3c2.4 4.5 5.9 6.9 10.6 7.2 1.9.2 5.8-.1 9.5-.6 1-.1 1-.1.6.3l-2.7 1.1c-1.7.6-2.7.7-6 .8-3.4 0-4 0-5.6-.5z"/>
  <path fill="#b4b5b5" d="M117.4 50a16 16 0 0 1-12.1-16.7c0-2.7 0-3.5.7-5.4.8-2.8 2.7-5.8 4.6-7.4 1.6-1.3 4.7-3 7-3.6 2.5-.7 7.4-.7 10 0 7.6 2.3 12 8.3 12 16.7 0 7.4-3.9 13.2-10.5 15.7-2 .9-2.4 1-6.1 1-3 0-4.4 0-5.6-.3zm8.5-8.7c1.6-.8 2.4-1.8 3.4-3.8.5-1 .6-1.7.6-4 0-2.5-.1-3-.7-4.3l-1.4-2.3c-2.1-2.4-7-2.8-9.8-.8-2.3 1.8-3.4 5.4-2.9 9.1.6 3.7 2.2 5.7 5.4 6.7 1.2.5 4 .1 5.4-.6zM76.3 50l-2.3-.3-1.4-.2v-32h.6c1.3-.3 6.5-.7 9.5-.7 7.1 0 11.7 1.5 15 4.9 1.8 1.8 2.7 3.4 3.6 6 1 3 1 7.5.2 10.6a15.8 15.8 0 0 1-11.2 11c-1.7.6-2.7.6-7.5.7h-6.5zm10.5-8.5a7.5 7.5 0 0 0 4.4-3.6c.8-1.3.8-1.6.8-4.5 0-2.6 0-3.1-.6-4.2a6.6 6.6 0 0 0-2.8-3c-1.3-.8-4.6-1.4-6-1.1l-1 .2v16.6h2c1 0 2.5-.2 3.2-.4zM242 50l-2.3-.3-1.4-.2v-16c0-13.3 0-15.9.4-16 1-.4 8.2-.8 11.6-.6 4.5.2 6.5.6 9.4 2 4.3 2.2 7 5.9 7.9 11 1.4 7.8-1.8 14.8-8.2 18.1-3 1.6-4.8 2-11 2H242zm11.7-9c2.8-1.3 4.2-4 4.2-7.6 0-3.5-1.2-6-3.7-7.3-1.4-.7-4.6-1.3-6-1l-.9.2V42l2.5-.1c2-.1 2.7-.3 4-.9zm-108.5 8.7l-.8-.1v-32l.8-.1a34 34 0 0 1 7-.4c.8.2 1 .6 6 8.4a1494 1494 0 0 1 6.4 10v-8.9l-.1-9 .6-.1c.8-.2 6.5-.2 7.6 0l.8.1v15.9c0 12.3 0 15.8-.3 16-.2.1-2.2.3-4.5.3h-4l-5.5-8.2-5.7-8.8c-.2-.3-.2 2.3-.2 8.1l.1 8.6-1.2.2a44 44 0 0 1-7 0zm32.8-.1l-1.5-.4 4.8-13 3-7.6a92.8 92.8 0 0 1 4.3-11c.6-.4 8-.3 8.5 0a56019 56019 0 0 0 11.2 29.2l.9 2.4-2.2.4c-2.3.3-5.2.3-6.2 0-.4 0-.8-.7-1.5-2.7l-1-2.6h-5.7l-5.7.1-.9 2.6c-.7 2-1 2.6-1.5 2.7-.8.2-4.8.1-6.5-.1zM194.1 33c-.7-2.3-1.4-4.2-1.5-4.2l-.4 1.1a79 79 0 0 1-2.4 7c0 .2 1.3.3 2.9.3h2.9zm18.2.5V17.4l2.3-.2c2-.2 6 0 6.5.3 0 0 .2 5.5.2 12.1v12h6.2c4 0 6.2.1 6.3.3.3.4.3 6.4 0 7.1l-.1.6h-21.4z"/>
  <path fill="#fff" d="M41.5 18c.4-1.3-.6-2.3-2-1.9-1.7.7-1.1 2.9.8 2.7.7 0 1-.2 1.2-.8z"/>
</svg>