<svg width="120" viewBox="35 10 90 13">
    <path fill="#F9FAFB" d="M41.5 21H38V10.8h3.5c1 0 1.9.2 2.6.6a4 4 0 0 1 1.7 1.8c.4.7.6 1.6.6 2.7 0 1-.2 2-.6 2.7a4 4 0 0 1-1.7 1.8c-.7.4-1.6.6-2.6.6zm-1.7-1.6h1.6c.7 0 1.3-.1 1.7-.4.5-.2.9-.6 1.1-1.2.2-.5.4-1.1.4-1.9 0-.8-.2-1.4-.4-2-.2-.5-.6-.8-1-1.1-.5-.3-1.1-.4-1.8-.4h-1.6v7zM48 21v-7.6h1.8v1.2a1.9 1.9 0 0 1 2-1.3 4.2 4.2 0 0 1 .6 0V15l-.3-.1h-.5c-.3 0-.6 0-.9.2a1.6 1.6 0 0 0-.8 1.4V21H48zM56.7 21.1a4 4 0 0 1-2-.4c-.6-.3-1-.8-1.3-1.4-.3-.6-.4-1.3-.4-2 0-.9.1-1.5.4-2.1a3.4 3.4 0 0 1 3.2-2c.5 0 .9.1 1.3.3.4.1.8.4 1.1.7.4.3.6.7.8 1.2.2.5.3 1 .3 1.7v.6h-6.3v-1.2h4.6c0-.4-.1-.7-.3-1l-.6-.6c-.2-.2-.5-.2-.9-.2s-.7 0-1 .2c-.2.2-.5.4-.6.7a2 2 0 0 0-.2 1v1c0 .5 0 .9.2 1.2l.7.7c.3.2.6.2 1 .2h.7l.6-.4.3-.5 1.7.2c-.1.4-.3.8-.6 1.1a3 3 0 0 1-1.1.8c-.5.2-1 .2-1.6.2zM63.8 21.2c-.5 0-1-.1-1.3-.3-.4-.2-.7-.4-1-.8-.1-.3-.3-.7-.3-1.2s.1-.8.3-1.1c.1-.3.4-.5.6-.7l1-.4 1-.2a42.7 42.7 0 0 0 1.7-.3c.2 0 .2-.2.2-.4 0-.4 0-.6-.3-.9-.2-.2-.5-.3-1-.3-.4 0-.8.1-1 .3-.3.2-.4.4-.5.7l-1.7-.2a2.7 2.7 0 0 1 1.8-1.9c.4-.2.9-.2 1.4-.2h1.1l1 .5.8.8.2 1.3V21h-1.7v-1a2.2 2.2 0 0 1-1.3 1 3 3 0 0 1-1 .2zm.5-1.4c.3 0 .6 0 .9-.2.3-.1.5-.3.6-.6.2-.2.2-.5.2-.7v-1c0 .1-.1.2-.3.2a13.8 13.8 0 0 1-1.4.2l-.6.2-.5.4c-.2.1-.2.3-.2.5 0 .4.1.6.3.8l1 .2zM69.6 21v-7.6h1.8v1.3c.2-.5.5-.8.8-1 .4-.3.8-.4 1.4-.4.5 0 1 0 1.3.3.3.3.6.6.7 1h.1c.2-.4.5-.7.9-1 .4-.2.8-.3 1.4-.3.7 0 1.3.2 1.7.6.5.5.7 1.1.7 2V21h-1.8v-4.8c0-.5-.2-.9-.4-1-.3-.3-.6-.4-1-.4s-.7.1-1 .4c-.2.3-.3.6-.3 1V21H74v-5l-.3-.9c-.3-.2-.6-.3-1-.3-.2 0-.5 0-.7.2l-.5.5-.2.9V21h-1.8zM87.8 13.6c0-.4-.2-.8-.6-1a2.5 2.5 0 0 0-2.3-.2c-.3.1-.5.3-.6.5a1.1 1.1 0 0 0-.1 1.2l.4.4.6.3.6.2 1 .2 1 .4 1 .5.7.9.2 1.1a2.8 2.8 0 0 1-1.7 2.7c-.6.2-1.3.4-2.1.4s-1.5-.2-2.1-.4a3 3 0 0 1-1.4-1c-.3-.6-.5-1.1-.5-1.8h1.8c0 .3.2.6.4.9l.7.5 1 .2c.5 0 .8 0 1.1-.2.3-.1.6-.3.7-.5.2-.2.3-.5.3-.8 0-.2 0-.5-.2-.6L87 17l-1-.3-1.1-.3c-.8-.2-1.5-.5-2-1-.5-.4-.7-1-.7-1.7 0-.6.1-1.1.5-1.6.3-.4.7-.8 1.3-1 .6-.3 1.2-.4 2-.4.6 0 1.3.1 1.8.4.6.2 1 .6 1.3 1 .3.4.5 1 .5 1.5h-1.8zM95.1 13.4v1.4h-4.4v-1.4h4.4zm-3.3-1.9h1.8v7.2l.1.6.3.2h.4a1.8 1.8 0 0 0 .5 0l.3 1.4a4 4 0 0 1-1 .2 3 3 0 0 1-1.2-.2c-.4-.2-.7-.4-.9-.7-.2-.3-.3-.7-.3-1.2v-7.5zM101.5 17.8v-4.4h1.8V21h-1.8v-1.4c-.2.5-.5.8-.9 1-.4.4-.9.5-1.4.5-.5 0-1-.1-1.4-.3l-.9-1c-.2-.4-.3-1-.3-1.6v-4.8h1.8v4.5c0 .5.1 1 .4 1.2.3.3.6.4 1 .4.3 0 .6 0 .8-.2.3 0 .5-.3.6-.5.2-.3.3-.6.3-1zM108 21.1a2.9 2.9 0 0 1-2.8-1.8 5 5 0 0 1-.4-2.1c0-.9.2-1.6.4-2.2.3-.5.7-1 1.2-1.3a3 3 0 0 1 2.7-.2l.7.5.4.6v-3.8h1.8V21h-1.7v-1.2h-.1l-.5.6a2.2 2.2 0 0 1-1.7.7zm.5-1.4c.3 0 .7-.1 1-.4l.6-.8.2-1.3-.2-1.3c-.2-.4-.4-.7-.7-.9-.2-.2-.5-.3-1-.3-.3 0-.7.1-1 .4l-.5.8c-.2.4-.2.8-.2 1.3s0 .9.2 1.3c.1.3.3.6.6.8.2.3.6.4 1 .4zM114 21v-7.6h1.7V21H114zm.9-8.7a1 1 0 0 1-.8-.3 1 1 0 0 1-.3-.7c0-.3.1-.5.3-.7.2-.2.5-.3.8-.3.2 0 .5.1.7.3.2.2.3.4.3.7 0 .3-.1.5-.3.7a1 1 0 0 1-.7.3zM121 21.1c-.8 0-1.5-.1-2-.4-.6-.4-1-.8-1.3-1.4-.3-.6-.4-1.3-.4-2 0-.9.1-1.6.4-2.2.3-.6.7-1 1.3-1.3.5-.4 1.2-.5 2-.5.7 0 1.3.1 1.9.5.5.3 1 .7 1.2 1.3.3.6.5 1.3.5 2.1s-.2 1.5-.5 2c-.3.7-.7 1.1-1.2 1.5-.6.3-1.2.4-2 .4zm0-1.4c.3 0 .7-.1 1-.3l.6-1 .2-1.2-.2-1.3a2 2 0 0 0-.6-.9c-.3-.2-.7-.3-1-.3-.5 0-.8.1-1 .3a2 2 0 0 0-.7 1l-.2 1.2c0 .5 0 .9.2 1.3l.6.9c.3.2.6.3 1 .3z" style="--darkreader-inline-fill:#e5e3df"/>
    <path fill="url(#paint0_linear_1292_13516)" d="M138 9.7V17h-1.2l-3.2-4.6V17H132V9.7h1.3l3.2 4.6V9.7h1.6z"/>
    <path fill="url(#paint1_linear_1292_13516)" d="M141.8 17.1a3 3 0 0 1-1.4-.3c-.4-.3-.8-.6-1-1-.2-.4-.3-1-.3-1.5 0-.6.1-1 .3-1.5.2-.4.6-.7 1-1 .3-.2.8-.3 1.4-.3l1 .1A2.2 2.2 0 0 1 144 13l.2 1.2v.5h-4.6v-1h3.2c0-.2 0-.4-.2-.6a1 1 0 0 0-.3-.4l-.6-.1a1.2 1.2 0 0 0-1 .6l-.2.6v.9l.1.7.5.4.6.2h.5l.4-.3.2-.4 1.4.1c0 .4-.2.7-.5 1l-.8.5-1.2.2z"/>
    <path fill="url(#paint2_linear_1292_13516)" d="M146.5 11.5l1 2 1-2h1.5l-1.5 2.8L150 17h-1.6l-1-1.9-1 1.9h-1.7l1.7-2.7-1.6-2.8h1.6z"/>
    <path fill="url(#paint3_linear_1292_13516)" d="M153.8 11.5v1.2h-3.2v-1.2h3.2zm-2.5-1.3h1.5v5.5l.3.1h.2a1.3 1.3 0 0 0 .4 0l.2 1.1a4.2 4.2 0 0 1-.8.2c-.3 0-.7 0-1-.2-.2 0-.4-.3-.6-.5l-.2-.9v-5.3z"/>
</svg>