<svg width="55" viewBox="0 0 224 201">
   <g fill-rule="evenodd">
      <path d="M112 152h-11c-1 2 0 3 1 5 5 6 16 6 21-2 1-2 0-3-2-3h-9zm18-18h-9c-3 0-4 2-3 4 1 3 8 6 11 6 5 0 10-3 12-7 0-2-1-3-2-3h-9zm-36 10c4 0 10-3 11-7 1-2 0-3-1-3H85c-2 0-3 2-2 4 3 3 6 6 11 6zm29-52l2 2c7 10 16 15 29 14 13 0 27-11 29-24l1-23c0-7-2-14-6-19s-8-11-9-18c-1-5-3-5-7-1l-2 2c-1 1-1 2-2 1l-1-2-2-7c-2-4-4-4-7-1l-19 22c-8 8-24 9-32 2L75 16c-3-3-4-3-6 1l-3 9-5-5c-3-2-4-1-6 1-2 3-2 6-2 9 0 2 0 3-2 5-5 3-8 8-10 14-3 11-3 23-1 34 4 17 22 28 39 24 9-3 16-8 21-17 1 3 1 5 3 7 3 4 7 6 12 5 5-2 7-6 8-11zm-7 99h-8a81 81 0 0 1-57-28c-2-2-3-2-5-1-11 4-23 6-35 4-10-1-14-7-9-17l28-49 1-6V29C31 7 50-6 70 2l29 11c9 3 17 3 26 0l28-10c20-9 39 4 39 26a11843 11843 0 0 1 2 71l27 49c5 9 2 16-9 17-12 2-24 0-35-4-2-1-3-1-4 1-7 8-15 14-24 19-11 5-22 8-33 9" fill="#78ca2c"/>
      <path d="M75 182c10 5 21 8 33 9-1 7-5 10-11 10H84c-5 0-10-1-12-6s-1-9 3-13M116 191c11-1 22-4 33-9 3 4 5 8 3 13s-7 6-12 6h-12c-8 0-11-3-12-10" fill="#eb9720"/>
      <path d="M128 68v7c1 12 10 22 22 22s22-9 22-22V61c0-10-7-19-16-21-11-2-20 3-25 12-3 5-3 11-3 16zm-33 2v-9c-1-11-9-21-21-21-11-1-21 7-23 18v20c2 11 11 19 21 19s20-7 22-17l1-10zm5 21c-5 9-12 14-21 17-17 4-35-7-39-24-2-11-2-23 1-34 2-6 5-11 10-14 2-2 2-3 2-5 0-3 0-6 2-9 2-2 3-3 6-1l5 5 3-9c2-4 3-4 6-1l22 24c8 7 24 6 32-2l19-22c3-3 5-3 7 1l2 7 1 2c1 1 1 0 2-1l2-2c4-4 6-4 7 1 1 7 5 13 9 18s6 12 6 19l-1 23c-2 13-16 24-29 24-13 1-22-4-29-14l-2-2v-1c4-1 5-2 3-5-3-6-8-9-14-9-7 0-11 3-15 8-2 4-1 5 3 6" fill="#8ed12a"/>
      <path d="M123 91v1c-1 5-3 9-8 11-5 1-9-1-12-5-2-2-2-4-3-7 8 2 15 2 23 0" fill="#ea9620"/>
      <path d="M94 144c-5 0-8-3-11-6-1-2 0-4 2-4h19c1 0 2 1 1 3-1 4-7 7-11 7M130 134h9c1 0 2 1 2 3-2 4-7 7-12 7-3 0-10-3-11-6-1-2 0-4 3-4h9M112 152h9c2 0 3 1 2 3-5 8-16 8-21 2-1-2-2-3-1-5h11" fill="#8cd02a"/>
      <path d="M73 53c2 6 1 11-3 12-5 0-4 3-4 5v6c1 5 6 9 11 8 5 0 9-4 10-10V63c-1-8-7-12-14-10zm22 17l-1 10c-2 10-12 17-22 17s-19-8-21-19V58c2-11 12-19 23-18 12 0 20 10 21 21v9M157 68v-6c0-7-6-11-12-9-2 0-3 0-2 3 2 3 0 7-3 8-4 1-4 3-4 6l1 5c0 6 5 10 11 9 5 0 9-4 9-10v-6zm-29 0c0-5 0-11 3-16 5-9 14-14 25-12 9 2 16 11 16 21v14c0 13-10 22-22 22s-21-10-22-22v-7" fill="#fbfcfb"/>
      <path d="M112 79l-4 1c-1 0-2 1-2 3 1 1 2 2 3 1h5c2 0 3 0 3-2 0-1 0-2-2-3h-3zm11 12c-8 2-15 2-23 0-4-1-5-2-3-6 4-5 8-8 15-8 6 0 11 3 14 9 2 3 1 4-3 5" fill="#f3bf14"/>
      <path d="M73 53c7-2 13 2 14 10v11c-1 6-5 10-10 10-5 1-10-3-11-8v-6c0-2-1-5 4-5 4-1 5-6 3-12M157 68v6c0 6-4 10-9 10-6 1-11-3-11-9l-1-5c0-3 0-5 4-6 3-1 5-5 3-8-1-3 0-3 2-3 6-2 12 2 12 9v6" fill="#575e61"/>
      <path d="M112 79h3c2 1 2 2 2 3 0 2-1 2-3 2h-5c-1 1-2 0-3-1 0-2 1-3 2-3l4-1" fill="#f5d617"/>
   </g>
</svg>