<svg width="111" height="15" viewBox="0 0 111 15" fill="none" xmlns="http://www.w3.org/2000/svg">
    <path d="M17.308 13.9766H1.3289C0.509457 13.9766 0.00163537 12.8109 0.422896 11.8992L5.62229 0.669401C5.8185 0.253911 6.15897 0 6.53406 0H17.308V13.9766Z" fill="#EC2C40"/>
    <path d="M19.1367 0H35.11C35.9294 0 36.4373 1.16568 36.016 2.07745L30.8166 13.3072C30.6262 13.7169 30.2799 13.9709 29.9106 13.9709H19.1367V0Z" fill="#00A9E5"/>
    <path d="M46.2209 14.088C44.2883 14.088 42.726 13.4829 41.5249 12.2638C40.3148 11.0446 39.7188 9.42813 39.7188 7.3962V7.01691C39.7188 5.66229 39.9806 4.45217 40.5044 3.38654C41.0282 2.32091 41.7597 1.49008 42.7079 0.894046C43.6562 0.298015 44.7038 0 45.8687 0C47.72 0 49.1469 0.587001 50.1493 1.77003C51.1608 2.95306 51.6575 4.61473 51.6575 6.77308V8.00127H42.7892C42.8795 9.12108 43.2588 10.0061 43.909 10.6653C44.5683 11.3156 45.3901 11.6407 46.3835 11.6407C47.7833 11.6407 48.9211 11.0717 49.7971 9.94288L51.4407 11.5142C50.8989 12.327 50.1674 12.9592 49.2643 13.4017C48.3612 13.8622 47.3498 14.088 46.2209 14.088ZM45.8507 2.45637C45.0108 2.45637 44.3425 2.74535 43.8278 3.33236C43.313 3.91936 42.9879 4.73213 42.8434 5.7797H48.6502V5.55393C48.587 4.53345 48.3071 3.76583 47.8375 3.24205C47.3588 2.71826 46.6996 2.45637 45.8507 2.45637Z" fill="#231F1F"/>
    <path d="M61.139 3.04412C60.7416 2.9809 60.3262 2.94478 59.8927 2.94478C58.493 2.94478 57.5538 3.4776 57.0661 4.55226V13.8359H54.0137V0.262627H56.9216L56.9938 1.7798C57.7253 0.596766 58.7548 0.00976562 60.0553 0.00976562C60.4888 0.00976562 60.85 0.0639499 61.13 0.18135L61.139 3.04412Z" fill="#231F1F"/>
    <path d="M70.9311 13.8359C70.7956 13.574 70.6782 13.1586 70.5789 12.5716C69.6126 13.5831 68.4205 14.0888 67.0117 14.0888C65.6481 14.0888 64.5373 13.7005 63.6703 12.9238C62.8124 12.1472 62.3789 11.1809 62.3789 10.034C62.3789 8.58904 62.9208 7.47824 63.9954 6.70159C65.0701 5.92494 66.6053 5.53662 68.6102 5.53662H70.4795V4.64257C70.4795 3.93817 70.2809 3.37826 69.8925 2.95381C69.4952 2.52936 68.8992 2.32165 68.0954 2.32165C67.4 2.32165 66.8311 2.49324 66.3886 2.84544C65.9461 3.18861 65.7203 3.63112 65.7203 4.17297H62.6679C62.6679 3.43244 62.9117 2.72804 63.4084 2.08685C63.9051 1.43663 64.5734 0.930906 65.4223 0.560643C66.2712 0.19038 67.2194 0.00976562 68.267 0.00976562C69.8564 0.00976562 71.1207 0.40712 72.069 1.21086C73.0172 2.00557 73.4958 3.13442 73.5229 4.57935V10.7022C73.5229 11.9214 73.6945 12.8967 74.0377 13.6282V13.845H70.9311V13.8359ZM67.5807 11.6414C68.1857 11.6414 68.7456 11.497 69.2784 11.1989C69.8113 10.91 70.2086 10.5126 70.4795 10.0159V7.46018H68.8359C67.7071 7.46018 66.8582 7.65886 66.2892 8.04719C65.7203 8.44454 65.4404 8.99542 65.4404 9.71789C65.4404 10.3049 65.639 10.7655 66.0274 11.1177C66.4066 11.4699 66.9214 11.6414 67.5807 11.6414Z" fill="#231F1F"/>
    <path d="M84.3228 10.1514C84.3228 9.60952 84.097 9.1941 83.6545 8.90511C83.203 8.62516 82.4624 8.37229 81.4239 8.15555C80.3853 7.93882 79.5184 7.65886 78.823 7.32472C77.2968 6.59323 76.5382 5.51856 76.5382 4.12781C76.5382 2.95381 77.0349 1.97848 78.0193 1.1928C79.0036 0.407119 80.2589 0.00976562 81.7851 0.00976562C83.4107 0.00976562 84.7201 0.40712 85.7225 1.21086C86.725 2.0146 87.2217 3.05315 87.2217 4.33552H84.1693C84.1693 3.74852 83.9525 3.26086 83.519 2.87253C83.0856 2.48421 82.5076 2.28553 81.7851 2.28553C81.1168 2.28553 80.566 2.43905 80.1505 2.7461C79.7261 3.05315 79.5184 3.46856 79.5184 3.99235C79.5184 4.46195 79.7171 4.82319 80.1054 5.08508C80.5027 5.34697 81.2975 5.60887 82.4895 5.87076C83.6816 6.13265 84.6208 6.44873 85.3071 6.80996C85.9844 7.1712 86.4992 7.61371 86.8243 8.11943C87.1584 8.63419 87.321 9.24828 87.321 9.97978C87.321 11.1989 86.8153 12.1923 85.8038 12.9509C84.7924 13.7095 83.4648 14.0888 81.8303 14.0888C80.7195 14.0888 79.7261 13.8901 78.8591 13.4837C77.9922 13.0864 77.3149 12.5265 76.8272 11.8311C76.3395 11.1267 76.0957 10.3681 76.0957 9.56436H79.0578C79.103 10.2868 79.3739 10.8377 79.8706 11.226C80.3763 11.6144 81.0356 11.813 81.8664 11.813C82.6701 11.813 83.2842 11.6595 83.6996 11.3525C84.1151 11.0364 84.3228 10.639 84.3228 10.1514Z" fill="#231F1F"/>
    <path d="M95.9541 14.0888C94.0215 14.0888 92.4592 13.4837 91.2581 12.2646C90.057 11.0454 89.4609 9.4289 89.4609 7.406V7.0267C89.4609 5.67208 89.7228 4.46196 90.2466 3.39632C90.7704 2.33068 91.5019 1.49985 92.4501 0.903815C93.3984 0.307782 94.4459 0.00976562 95.6109 0.00976562C97.4622 0.00976562 98.8891 0.596766 99.8915 1.7798C100.903 2.96284 101.4 4.62451 101.4 6.78287V8.01106H92.5314C92.6217 9.13088 93.001 10.0159 93.6512 10.6751C94.3105 11.3254 95.1323 11.6505 96.1257 11.6505C97.5255 11.6505 98.6633 11.0815 99.5393 9.95269L101.183 11.524C100.641 12.3368 99.9096 12.969 99.0065 13.4115C98.1034 13.863 97.0829 14.0888 95.9541 14.0888ZM95.5929 2.45711C94.753 2.45711 94.0847 2.7461 93.57 3.3331C93.0552 3.92011 92.7301 4.73288 92.5856 5.78045H98.3924V5.55468C98.3292 4.5342 98.0492 3.76658 97.5796 3.24279C97.101 2.71901 96.4418 2.45711 95.5929 2.45711Z" fill="#231F1F"/>
    <path d="M110.871 3.04412C110.474 2.9809 110.059 2.94478 109.625 2.94478C108.225 2.94478 107.286 3.4776 106.799 4.55226V13.8359H103.746V0.262627H106.654L106.726 1.7798C107.458 0.596766 108.487 0.00976562 109.788 0.00976562C110.221 0.00976562 110.582 0.0639499 110.862 0.18135L110.871 3.04412Z" fill="#231F1F"/>
</svg>