<svg width="130" viewBox="0 0 375 75" height="24" fill="#aaa">
    <defs>
        <clipPath id="aexcelformulabot">
            <path d="M10.84 9.559h43.5v56.25h-43.5zm0 0"/>
        </clipPath>
        <clipPath id="bexcelformulabot">
            <path d="M10.84 20H36v23H10.84zm0 0"/>
        </clipPath>
    </defs>
    <path d="M76.085 42.771c0 .594-.039 1.215-.11 1.86H61.602c.093 1.292.504 2.28 1.234 2.968.727.68 1.629 1.016 2.703 1.016 1.582 0 2.68-.672 3.297-2.016h6.766a9.425 9.425 0 0 1-1.89 3.688c-.9 1.086-2.028 1.937-3.392 2.562-1.355.617-2.875.922-4.562.922-2.031 0-3.84-.43-5.422-1.297-1.586-.863-2.824-2.098-3.719-3.703-.886-1.613-1.328-3.5-1.328-5.656 0-2.157.438-4.035 1.313-5.64.875-1.614 2.101-2.852 3.687-3.72 1.594-.863 3.414-1.297 5.469-1.297 2 0 3.781.422 5.344 1.266a8.948 8.948 0 0 1 3.656 3.594c.883 1.562 1.328 3.383 1.328 5.453zm-6.5-1.672c0-1.082-.375-1.945-1.125-2.594-.742-.644-1.668-.968-2.781-.968-1.063 0-1.961.312-2.688.937-.73.617-1.183 1.492-1.36 2.625zm0 0M91.678 53.474l-3.984-5.75-3.328 5.75h-6.875l6.828-10.578-7.016-10.14h7.125l3.985 5.718 3.344-5.719h6.859l-6.938 10.438 7.125 10.281zm0 0M99.998 43.115c0-2.157.437-4.035 1.312-5.64.875-1.614 2.098-2.852 3.672-3.72 1.57-.863 3.375-1.297 5.406-1.297 2.602 0 4.774.684 6.516 2.047 1.75 1.356 2.895 3.274 3.438 5.75h-6.75c-.575-1.582-1.68-2.375-3.313-2.375-1.168 0-2.102.453-2.797 1.36-.687.898-1.031 2.187-1.031 3.875 0 1.68.344 2.968 1.031 3.875.695.906 1.629 1.36 2.797 1.36 1.633 0 2.738-.79 3.313-2.376h6.75c-.543 2.43-1.696 4.336-3.454 5.719-1.761 1.387-3.93 2.078-6.5 2.078-2.03 0-3.836-.43-5.406-1.297-1.574-.863-2.797-2.098-3.672-3.703-.875-1.613-1.312-3.5-1.312-5.656zm0 0M143.26 42.771c0 .594-.038 1.215-.109 1.86h-14.375c.094 1.292.504 2.28 1.235 2.968.726.68 1.629 1.016 2.703 1.016 1.582 0 2.68-.672 3.297-2.016h6.765a9.425 9.425 0 0 1-1.89 3.688c-.899 1.086-2.028 1.937-3.39 2.562-1.356.617-2.876.922-4.563.922-2.032 0-3.84-.43-5.422-1.297-1.586-.863-2.824-2.098-3.719-3.703-.887-1.613-1.328-3.5-1.328-5.656 0-2.157.437-4.035 1.312-5.64.875-1.614 2.102-2.852 3.688-3.72 1.594-.863 3.414-1.297 5.469-1.297 2 0 3.781.422 5.343 1.266a8.948 8.948 0 0 1 3.657 3.594c.883 1.562 1.328 3.383 1.328 5.453zm-6.5-1.672c0-1.082-.374-1.945-1.124-2.594-.742-.644-1.668-.968-2.781-.968-1.063 0-1.961.312-2.688.937-.73.617-1.184 1.492-1.36 2.625zm0 0M152.948 25.99v27.484h-6.36V25.99zm0 0M182.71 53.771c-2.03 0-3.859-.43-5.484-1.297a9.475 9.475 0 0 1-3.812-3.703c-.93-1.613-1.39-3.5-1.39-5.656 0-2.133.468-4.008 1.405-5.625a9.52 9.52 0 0 1 3.86-3.735c1.633-.863 3.469-1.297 5.5-1.297s3.863.434 5.5 1.297a9.543 9.543 0 0 1 3.86 3.735c.937 1.617 1.405 3.492 1.405 5.625 0 2.125-.48 4-1.437 5.625-.95 1.625-2.246 2.87-3.89 3.734-1.65.867-3.485 1.297-5.516 1.297zm0-5.5c1.22 0 2.255-.441 3.11-1.328.852-.895 1.281-2.172 1.281-3.828 0-1.657-.418-2.93-1.25-3.828-.836-.895-1.855-1.344-3.062-1.344-1.242 0-2.274.445-3.094 1.328-.812.875-1.219 2.156-1.219 3.844 0 1.656.399 2.933 1.203 3.828.813.887 1.82 1.328 3.032 1.328zm0 0M203.287 36.208c.738-1.144 1.664-2.046 2.781-2.703 1.114-.656 2.352-.984 3.719-.984v6.734h-1.75c-1.586 0-2.773.34-3.562 1.016-.793.68-1.188 1.871-1.188 3.578v9.625h-6.36V32.755h6.36zm0 0M239.274 32.521c2.57 0 4.617.781 6.14 2.344 1.52 1.562 2.282 3.73 2.282 6.5v12.11h-6.312v-11.25c0-1.345-.356-2.38-1.063-3.11-.7-.727-1.668-1.094-2.906-1.094-1.242 0-2.215.367-2.922 1.094-.7.73-1.047 1.765-1.047 3.11v11.25h-6.312v-11.25c0-1.345-.356-2.38-1.063-3.11-.71-.727-1.684-1.094-2.922-1.094-1.242 0-2.215.367-2.922 1.094-.699.73-1.047 1.765-1.047 3.11v11.25h-6.359v-20.72h6.36v2.594c.644-.863 1.484-1.55 2.515-2.062 1.04-.508 2.219-.766 3.531-.766 1.563 0 2.953.34 4.172 1.016a7.244 7.244 0 0 1 2.89 2.859c.72-1.145 1.696-2.078 2.938-2.797a7.917 7.917 0 0 1 4.047-1.078zm0 0M272.615 32.755v20.72h-6.344v-2.829c-.648.918-1.523 1.656-2.625 2.219-1.105.554-2.324.828-3.656.828-1.586 0-2.984-.348-4.203-1.047-1.211-.707-2.153-1.727-2.828-3.063-.668-1.343-1-2.914-1-4.718v-12.11h6.328v11.25c0 1.387.351 2.465 1.062 3.235.72.761 1.688 1.14 2.907 1.14 1.238 0 2.218-.379 2.937-1.14.719-.77 1.078-1.848 1.078-3.235v-11.25zm0 0M283.534 25.99v27.484h-6.36V25.99zm0 0M286.88 43.068c0-2.125.398-3.988 1.202-5.594.801-1.613 1.895-2.851 3.282-3.719 1.382-.863 2.93-1.297 4.64-1.297 1.469 0 2.75.297 3.844.891 1.102.594 1.953 1.371 2.547 2.328v-2.922h6.36v20.72h-6.36v-2.938c-.617.968-1.477 1.75-2.578 2.343-1.106.594-2.387.891-3.844.891-1.688 0-3.227-.438-4.61-1.313-1.386-.882-2.48-2.132-3.28-3.75-.805-1.625-1.204-3.503-1.204-5.64zm15.515.047c0-1.582-.445-2.832-1.328-3.75-.875-.914-1.946-1.375-3.203-1.375-1.262 0-2.336.453-3.22 1.36-.874.898-1.312 2.136-1.312 3.718 0 1.594.438 2.855 1.313 3.781.883.93 1.957 1.39 3.219 1.39 1.257 0 2.328-.456 3.203-1.374.883-.914 1.328-2.164 1.328-3.75zm0 0M319.703 35.677c.593-.957 1.445-1.734 2.562-2.328 1.114-.594 2.39-.89 3.828-.89 1.707 0 3.254.433 4.641 1.296 1.383.868 2.477 2.106 3.281 3.72.801 1.605 1.203 3.468 1.203 5.593 0 2.137-.402 4.015-1.203 5.64-.804 1.618-1.898 2.868-3.281 3.75-1.387.875-2.934 1.313-4.64 1.313-1.47 0-2.75-.293-3.844-.875-1.086-.582-1.934-1.352-2.547-2.313v2.891h-6.36V25.99h6.36zm9.062 7.39c0-1.581-.445-2.82-1.328-3.718-.875-.906-1.96-1.36-3.25-1.36-1.262 0-2.336.462-3.219 1.376-.875.918-1.312 2.168-1.312 3.75 0 1.586.437 2.836 1.312 3.75.883.918 1.957 1.375 3.22 1.375 1.269 0 2.347-.461 3.233-1.39.895-.927 1.344-2.188 1.344-3.782zm0 0M347.995 53.771c-2.031 0-3.86-.43-5.484-1.297a9.475 9.475 0 0 1-3.813-3.703c-.93-1.613-1.39-3.5-1.39-5.656 0-2.133.468-4.008 1.406-5.625a9.52 9.52 0 0 1 3.86-3.735c1.632-.863 3.468-1.297 5.5-1.297 2.03 0 3.862.434 5.5 1.297a9.543 9.543 0 0 1 3.858 3.735c.938 1.617 1.407 3.492 1.407 5.625 0 2.125-.48 4-1.438 5.625-.949 1.625-2.246 2.87-3.89 3.734-1.649.867-3.485 1.297-5.516 1.297zm0-5.5c1.219 0 2.254-.441 3.11-1.328.85-.895 1.28-2.172 1.28-3.828 0-1.657-.417-2.93-1.25-3.828-.835-.895-1.855-1.344-3.062-1.344-1.242 0-2.273.445-3.094 1.328-.812.875-1.218 2.156-1.218 3.844 0 1.656.398 2.933 1.203 3.828.812.887 1.82 1.328 3.031 1.328zm0 0M373.774 48.083v5.391h-3.234c-2.305 0-4.101-.562-5.39-1.687-1.282-1.125-1.922-2.961-1.922-5.516v-8.25h-2.532v-5.266h2.532v-5.062h6.343v5.062h4.157v5.266h-4.157v8.328c0 .617.145 1.059.438 1.328.3.274.8.406 1.5.406zm0 0"/>
    <path d="M159.39 57.527c-.667-.136-1.171-.476-1.515-1.015a2.29 2.29 0 0 1-.312-1.735l3.422-16.843-.766-.157a2.234 2.234 0 0 1-1.531-1.062c-.356-.57-.47-1.164-.344-1.781.133-.664.473-1.172 1.016-1.516.55-.352 1.16-.461 1.828-.328l.765.156.39-1.984c.321-1.176.759-2.164 1.313-2.97.551-.8 1.18-1.425 1.891-1.874a6.145 6.145 0 0 1 2.219-.875 6.304 6.304 0 0 1 2.328.031 6.646 6.646 0 0 1 1.61.578c.57.282 1.085.621 1.546 1.016.457.398.8.852 1.031 1.36.239.5.301 1.03.188 1.593-.125.617-.461 1.106-1 1.469-.543.367-1.11.484-1.703.36a2.045 2.045 0 0 1-.86-.391 8.236 8.236 0 0 1-.671-.579c-.211-.195-.407-.382-.594-.562a1.192 1.192 0 0 0-.625-.344c-.438-.094-.79-.023-1.047.203-.25.22-.469.543-.656.97-.18.417-.325.89-.438 1.42-.105.524-.203 1.028-.297 1.517l2.375.484c.664.137 1.176.469 1.532 1 .363.531.476 1.133.343 1.797-.125.617-.465 1.12-1.015 1.515a2.271 2.271 0 0 1-1.828.375l-2.375-.484-3.422 16.844c-.125.625-.465 1.113-1.016 1.469a2.261 2.261 0 0 1-1.781.343zm0 0M17.934 17.887H39.57a6.15 6.15 0 0 1 2.395.48c.383.156.742.352 1.086.578.34.23.656.492.949.785.29.29.55.61.777.954.23.34.422.703.578 1.086.16.382.278.773.36 1.18.078.405.117.812.117 1.226V58.62c0 .414-.039.824-.117 1.23a6.318 6.318 0 0 1-.938 2.266c-.226.344-.488.66-.777.953a6.47 6.47 0 0 1-.95.782 6.05 6.05 0 0 1-1.085.582 6.45 6.45 0 0 1-1.172.359 6.455 6.455 0 0 1-1.223.121H17.934c-.41 0-.817-.043-1.22-.121a6.395 6.395 0 0 1-1.175-.36 6.05 6.05 0 0 1-1.086-.581 6.47 6.47 0 0 1-.95-.782 6.277 6.277 0 0 1-1.355-2.039 6.027 6.027 0 0 1-.355-1.18 6.2 6.2 0 0 1-.121-1.23V24.176c0-.414.039-.82.121-1.227.078-.406.195-.797.355-1.18.157-.382.348-.746.579-1.085a6.09 6.09 0 0 1 .777-.954c.293-.293.61-.554.95-.785a6.288 6.288 0 0 1 1.085-.578c.379-.16.77-.277 1.176-.36a6.083 6.083 0 0 1 1.219-.12zm0 0" fill="#32936f"/>
    <g clip-path="url(#aexcelformulabot)">
        <path transform="matrix(.2364 0 0 .23734 10.843 9.559)" fill="none" d="M29.993 35.089h91.528c1.735 0 3.453.165 5.172.51 1.702.346 3.354.84 4.957 1.514 1.62.659 3.14 1.482 4.594 2.436a27.458 27.458 0 0 1 4.015 3.308 25.683 25.683 0 0 1 3.288 4.016 24.836 24.836 0 0 1 2.446 4.576 26.174 26.174 0 0 1 1.52 4.97c.33 1.712.496 3.423.496 5.168v145.13c0 1.744-.165 3.472-.496 5.184a26.542 26.542 0 0 1-1.52 4.97 25.942 25.942 0 0 1-2.446 4.576 26.467 26.467 0 0 1-3.288 4.016 27.345 27.345 0 0 1-4.015 3.291 25.622 25.622 0 0 1-4.594 2.452 27.363 27.363 0 0 1-4.957 1.515c-1.719.329-3.437.51-5.172.51H29.993c-1.735 0-3.453-.181-5.155-.51a27.133 27.133 0 0 1-4.974-1.515 25.622 25.622 0 0 1-4.594-2.452 27.345 27.345 0 0 1-4.015-3.291 26.467 26.467 0 0 1-3.288-4.016 25.942 25.942 0 0 1-2.446-4.576 25.318 25.318 0 0 1-1.504-4.97 26.02 26.02 0 0 1-.512-5.185V61.586c0-1.744.165-3.455.512-5.167.33-1.712.826-3.358 1.504-4.97a24.836 24.836 0 0 1 2.446-4.576 25.683 25.683 0 0 1 3.288-4.016 27.458 27.458 0 0 1 4.015-3.308 26.636 26.636 0 0 1 4.594-2.436 25.914 25.914 0 0 1 4.974-1.514c1.702-.345 3.42-.51 5.155-.51zm0 0" stroke="#aaa" stroke-width="7"/>
    </g>
    <path transform="matrix(.2364 0 0 .23734 10.843 9.559)" fill="#aaa" d="M89.117 135.14c-.066-.61-.645-1.07-1.306-1.021-.66.066-1.156.592-1.09 1.201.314 3.72-1.504 6.896-5.007 8.707-4.148 2.14-9.518 1.86-13.352-.724-1.322-.873-2.412-1.992-3.073-3.128-.694-1.168-1.157-3.176-.727-4.41.215-.593-.132-1.218-.777-1.4-.628-.18-1.289.132-1.504.708-.66 1.91-.066 4.543.876 6.14.86 1.464 2.165 2.797 3.784 3.883 2.528 1.696 5.635 2.568 8.725 2.568 2.512 0 5.023-.576 7.238-1.712 4.345-2.254 6.61-6.188 6.213-10.813zm0 0M89.05 98.52c.05.608.628 1.07 1.29 1.02.66-.05 1.156-.593 1.107-1.202-.33-3.72 1.487-6.896 4.99-8.706 4.147-2.14 9.518-1.86 13.368.724 1.305.872 2.396 1.992 3.073 3.144.678 1.152 1.14 3.16.71 4.41-.197.576.15 1.202.778 1.383.627.197 1.305-.132 1.503-.708.678-1.909.066-4.542-.876-6.139-.842-1.448-2.164-2.798-3.784-3.884-2.528-1.695-5.618-2.567-8.724-2.567-2.495 0-5.007.576-7.238 1.711-4.346 2.255-6.61 6.189-6.196 10.813zm0 0" stroke="#aaa" stroke-width="7"/>
    <path fill="#aaa" d="M19.363 32.941a.284.284 0 0 0 .309.243c.156-.012.273-.141.258-.286-.075-.882.355-1.636 1.183-2.066.98-.508 2.25-.441 3.157.172.312.207.57.473.726.746.164.273.274.75.172 1.047-.05.137.031.285.184.328a.287.287 0 0 0 .355-.168c.156-.453.016-1.078-.207-1.457a2.945 2.945 0 0 0-.895-.922 3.72 3.72 0 0 0-2.062-.61c-.594 0-1.188.137-1.711.407-1.027.535-1.562 1.469-1.469 2.566zm0 0"/>
    <g clip-path="url(#bexcelformulabot)">
        <path transform="matrix(.2364 0 0 .23734 10.843 9.559)" fill="none" d="M36.041 98.52c.066.608.645 1.07 1.305 1.02.661-.05 1.157-.593 1.091-1.202-.314-3.72 1.504-6.896 5.007-8.706 4.147-2.14 9.518-1.86 13.351.724 1.322.872 2.413 1.992 3.074 3.144.694 1.152 1.157 3.16.727 4.41-.215.576.132 1.202.777 1.383.628.197 1.288-.132 1.503-.708.661-1.909.066-4.542-.875-6.139-.86-1.448-2.165-2.798-3.785-3.884-2.528-1.695-5.634-2.567-8.724-2.567-2.512 0-5.024.576-7.238 1.711-4.346 2.255-6.61 6.189-6.213 10.813zm0 0" stroke="#aaa" stroke-width="7"/>
    </g>
    <path fill="#aaa" d="M43.805 18.79c.39.058.707.358.785.75l2.11 10.44c.183.91-.91 1.516-1.579.88L32.52 18.843c-.672-.64-.125-1.766.789-1.63zm0 0"/>
</svg>