<svg width="45" viewBox="0 0 710 710">
    <circle id="path825" cx="356.5" cy="355" r="342.1" fill="#034f86" fill-opacity="1" stroke="#034f86" stroke-width="11.3" stroke-linecap="round" stroke-linejoin="round" stroke-miterlimit="4" stroke-dasharray="none" stroke-opacity="1"/>
    <path d="M274 311h-5l-38 3a213 213 0 0 0-100 36c-5 3-23 13-21 26 2 9 6 20 15 25 5 3 12-1 17 3 10 9 21 19 35 21 2 10 4 21 9 30-8 3-16 9-23 14l-24 15c-7 3-23-1-28 3 0 1 10 16 12 16 21 0 28 0 47-6 6-2 6 0 11 0l6 1h3l-1 2-7 6c-6 6-8 11-17 14-7 3-16 3-22 5-1 4 1 7 4 9l6 7 4 2c1 1 7 0 8-1 6-3 30-8 33-11 2-2 13 1 15 1 11 4 37-1 44-6l49 19c33 11 80 7 122-9 16-7 35-20 52-14l8 3c14 7 19-5 34 10 4 4 1 33 3 34 6 3 17-10 19-12 6-6-2-34-4-39-4-8-16-4-22-19 13-6 31-10 41-20h8c2 0 6-1 6 1l16 28c5 2 9-8 11-10 1-1 4-7 2-9l-14-31-3-4c-5-5-26 4-28-8 11-29 4-53-16-69-5-1-4-5 0-7 3-1 13-9 11-14-1-2-4-2-6-3 0 0-22 9-33 6-8-2-19-5-30-6-4 0-5-1-14 1-11 1-22 5-34 9-23 6-48 22-74 17-4-1-13-1-17-4-3-3-8-4-12-7-13-13-24-25-40-30 1-5 11-12 8-18-4-9-18-10-26-10zm-22 34c12 1 28 5 32 12 6 12-32 24-41 20-5-3 3-12 0-16l-5-11v-1c1-3 7-4 14-4zm-79 9c10 0 16 12 11 22-6 12-26 6-26-11 0-4 4-7 8-9l7-2z" id="path820" fill="#fff" fill-opacity="1" stroke="none" stroke-width="9.4" stroke-linecap="butt" stroke-linejoin="miter" stroke-miterlimit="4" stroke-dasharray="none" stroke-opacity="1"/>
    <script id="bw-fido2-page-script"/>
</svg>