<svg width="140" viewBox="0 0 190 35">
    <defs>
        <clipPath id="fontsgoogle-a">
            <path d="M0 0h190v35H0z"/>
        </clipPath>
        <mask id="fontsgoogle-b">
            <path fill="#fff" d="M0 0h190v35H0V0m29-3H14.9v32.8H29V-3"/>
        </mask>
    </defs>
    <g clip-path="url(#fontsgoogle-a)">
        <g display="block">
            <path fill="#5F6368" d="M130.1 19.2v7H128V9.9h9.6v2h-7.5v5.4h6.8v2H130zM138.6 20.6a6 6 0 0 1 1.6-4.3 5.6 5.6 0 0 1 4.2-1.7c1.6 0 3 .6 4.1 1.7a6 6 0 0 1 1.7 4.3c0 1.8-.6 3.2-1.7 4.3a5.5 5.5 0 0 1-4.1 1.7c-1.7 0-3-.5-4.2-1.7a6 6 0 0 1-1.6-4.3zm2 0c0 1.2.4 2.2 1.1 3 .8.7 1.6 1 2.7 1 1 0 1.9-.3 2.6-1 .7-.8 1-1.8 1-3s-.3-2.1-1-2.9a3.5 3.5 0 0 0-2.6-1.1c-1 0-2 .3-2.7 1.1-.7.8-1 1.7-1 3zM152 15h2v1.5c.4-.5.9-1 1.6-1.3.6-.4 1.3-.6 2-.6 1.4 0 2.5.4 3.2 1.2.8.8 1.1 2 1.1 3.4v7h-2v-6.9c-.1-1.8-1-2.8-2.9-2.8-.8 0-1.5.4-2 1-.6.8-1 1.6-1 2.5v6.3h-2V15zM168.5 26.4c-1 0-1.7-.2-2.3-.8-.6-.6-1-1.4-1-2.4V17h-2v-2h2v-3.4h2.2V15h2.7v2h-2.7v5.5c0 .8.1 1.3.4 1.6.3.2.6.4 1 .4a2.1 2.1 0 0 0 1-.2l.6 1.8c-.6.2-1.2.3-2 .3zM180.5 23.1a3 3 0 0 1-1.3 2.5c-.8.7-2 1-3.2 1-1.2 0-2.2-.3-3-.9a4.9 4.9 0 0 1-1.9-2.3l2-.8a3 3 0 0 0 3 2.1 3 3 0 0 0 1.6-.4c.4-.3.6-.6.6-1 0-.8-.5-1.3-1.6-1.6l-2-.5c-2.1-.6-3.2-1.6-3.2-3.2a3 3 0 0 1 1.2-2.4c.9-.7 2-1 3.2-1 1 0 2 .3 2.7.7.8.5 1.4 1.1 1.7 2l-1.9.7c-.2-.5-.5-.8-1-1-.5-.4-1-.5-1.6-.5-.6 0-1 .1-1.5.4-.5.3-.7.6-.7 1 0 .7.6 1.1 1.8 1.4l1.7.4c2.3.6 3.4 1.7 3.4 3.4z"/>
        </g>
        <g display="block">
            <path fill="#5F6368" d="M55.5 26.6a9.5 9.5 0 0 1-9.5-9.3 9.5 9.5 0 0 1 15.9-6.7l-1.8 1.8c-1.1-1-2.6-1.9-4.6-1.9-3.8 0-6.7 3-6.7 6.8s3 6.8 6.7 6.8c2.4 0 3.8-1 4.7-1.9.7-.7 1.2-1.8 1.4-3.2h-6.1v-2.5H64l.1 1.6c0 1.9-.5 4.2-2.2 6a8.6 8.6 0 0 1-6.5 2.5zM77.5 20.6c0 3.5-2.6 6-6 6-3.2 0-5.8-2.5-5.8-6s2.6-6 5.9-6c3.3 0 6 2.5 6 6zm-2.6 0c0-2.1-1.5-3.6-3.3-3.6-1.8 0-3.4 1.5-3.4 3.6 0 2.2 1.6 3.7 3.4 3.7 1.8 0 3.3-1.5 3.3-3.7zM90.8 20.6c0 3.5-2.6 6-6 6-3.2 0-5.8-2.5-5.8-6s2.6-6 5.9-6c3.3 0 6 2.5 6 6zm-2.6 0c0-2.1-1.5-3.6-3.3-3.6-1.8 0-3.3 1.5-3.3 3.6 0 2.2 1.5 3.7 3.3 3.7 1.8 0 3.3-1.5 3.3-3.7zM103.8 15v10.8c0 4.4-2.6 6.2-5.7 6.2-3 0-4.7-2-5.4-3.5l2.3-1c.4 1 1.5 2.1 3 2.1 2 0 3.3-1.2 3.3-3.5v-.8h-.1c-.6.7-1.7 1.3-3.2 1.3a6 6 0 0 1-5.7-6 6 6 0 0 1 5.7-6c1.5 0 2.6.7 3.2 1.4v-1h2.6zm-2.3 5.6c0-2-1.4-3.6-3.2-3.6-1.9 0-3.4 1.5-3.4 3.6s1.5 3.7 3.4 3.7c1.8 0 3.2-1.6 3.2-3.7zM108.4 26.3h-2.6V8.6h2.6v17.7zM118.8 22.6l2 1.4a6 6 0 0 1-5 2.6 5.8 5.8 0 0 1-5.8-6c0-3.5 2.5-6 5.6-6 3.1 0 4.6 2.5 5.1 3.8l.3.7-8 3.3a3 3 0 0 0 2.9 1.9c1.3 0 2.2-.7 3-1.7zm-6.3-2.2l5.4-2.2c-.3-.7-1.2-1.3-2.2-1.3a3.3 3.3 0 0 0-3.2 3.5z"/>
        </g>
        <g mask="url(#fontsgoogle-b)" transform="translate(1.3 5.8)" display="block">
            <path fill="#FBBC04" d="M.3 23.3L14.7.3h9v3.1L11.3 23.3"/>
        </g>
        <path fill="#1A73E8" d="M25 29h-9V6h9v23z" display="block"/>
        <path fill="#34A853" d="M31.5 22.5c0 3.6-3 6.5-6.5 6.5V16c3.6 0 6.5 3 6.5 6.5z" display="block"/>
        <path fill="#0D652D" d="M25 29a6.5 6.5 0 1 1 0-13v13z" display="block"/>
        <path fill="#1A73E8" d="M30 11a5 5 0 0 1-5 5V6a5 5 0 0 1 5 5z" display="block"/>
        <path fill="#174EA6" d="M25 16a5 5 0 1 1 0-10v10z" display="block"/>
        <path fill="#EA4335" d="M2 10.5a4.5 4.5 0 1 1 9 0 4.5 4.5 0 0 1-9 0z" display="block"/>
    </g>
</svg>