<svg xmlns="http://www.w3.org/2000/svg" viewBox="0 0 503.25 318.29" width="100" height="63.247">

    <path fill="#fb7b89" d="M1 309L0 86 496 0v188L52 266 1 309z"/>
    <path fill="#000" d="M81.01 150.79l-2.4 12.42 29.2-5.13-3.6 18.43-29.1 5.12-4.5 23.19-23.6 4.15 14-72.46 56.9-10.01-3.6 18.43-33.3 5.86zM167.01 167.46l11.7 18.34-24.5 4.31-9.9-15.86-5.8 1.02-3.5 18.22-23.6 4.15 14-72.47 31.4-5.52c18.5-3.25 29.1 3.38 29.1 17.88 0 12.5-7 23.33-18.9 29.93zm-13.8-28.97l-7.9 1.39-3.3 16.98 9.7-1.71c6.5-1.14 10.3-5.21 10.3-11.11 0-5-3.4-6.5-8.8-5.55zM199.91 112.08l23.6-4.15-14 72.47-23.6 4.15 14-72.47zM234.91 105.92l31.6-5.56c22.1-3.89 35.7 5.02 35.7 23.42 0 24.7-18.3 43.52-43.8 48l-37.5 6.59 14-72.47zm24.3 47.33c12.5-2.2 19.2-12.38 19.2-23.88 0-8.1-5.1-11.8-14.6-10.13l-9 1.58-6.6 34.36 11-1.93zM353.51 142.87l-26.7 4.7-7 13.43-24.9 4.38 44.6-77.85 23.2-4.08 16.6 67.08-23.5 4.13-2.3-11.8zm-3.3-16.42l-3.4-17.3-10.3 19.71 13.7-2.41zM425.21 117.06l-5 26.28-23.6 4.15 5.1-26.6-17.5-41.23 23.7-4.17 9.5 22.53 19.5-27.63 23.7-4.17-35.4 50.83z"/>
    <path stroke="#fb7b89" stroke-miterlimit="10" stroke-width="14" fill="#000" d="M238.44 309.98v-57.09L489 210.02v79.19l-32.79-16.74-217.77 37.51z"/>
</svg>