<svg xmlns="http://www.w3.org/2000/svg" width="87.148" height="18.98">
    <defs>
        <linearGradient id="afronty" x1=".499" y1="10.371" x2=".499" y2="9.371" gradientUnits="objectBoundingBox">
            <stop offset="0" stop-color="#ff2d55" stop-opacity=".8"/>
            <stop offset="1" stop-color="#ff2676" stop-opacity=".8"/>
        </linearGradient>
        <linearGradient id="bfronty" x1=".5" y1="10.371" x2=".5" y2="9.371" gradientUnits="objectBoundingBox">
            <stop offset="0" stop-color="#007aff" stop-opacity=".8"/>
            <stop offset="1" stop-color="#00b9ff" stop-opacity=".8"/>
        </linearGradient>
        <linearGradient id="cfronty" x1=".5" y1="10.371" x2=".5" y2="9.371" gradientUnits="objectBoundingBox">
            <stop offset="0" stop-opacity=".698"/>
            <stop offset="1" stop-opacity=".698"/>
        </linearGradient>
        <linearGradient id="dfronty" x1=".5" y1="10.371" x2=".5" y2="9.371" gradientUnits="objectBoundingBox">
            <stop offset="0" stop-color="#fc0" stop-opacity=".698"/>
            <stop offset="1" stop-color="#ff8d00" stop-opacity=".698"/>
        </linearGradient>
    </defs>
    <g data-name="Group 7738">
        <path data-name="Path 474" d="M21.472 12.37h5.834l-6.64 7.108a1.747 1.747 0 0 0 0 2.385l6.64 7.106h-5.834a1.747 1.747 0 0 1-1.277-.554l-6.115-6.552a1.747 1.747 0 0 1 0-2.385l6.115-6.552a1.747 1.747 0 0 1 1.277-.556z" transform="translate(-13.608 -12.37)" fill="url(#afronty)"/>
        <path data-name="Path 475" d="M119.329 28.969H113.5l6.64-7.106a1.747 1.747 0 0 0 0-2.385l-6.64-7.108h5.829a1.747 1.747 0 0 1 1.277.556l6.124 6.552a1.747 1.747 0 0 1 0 2.385l-6.124 6.552a1.747 1.747 0 0 1-1.277.554z" transform="translate(-96.046 -12.37)" fill="url(#bfronty)"/>
        <path data-name="Path 476" d="M62.083 12.37l-5.932 7.188a1.747 1.747 0 0 0 0 2.224l5.941 7.186h-5.828l-5.932-7.186a1.747 1.747 0 0 1 0-2.224l5.941-7.188z" transform="translate(-43.586 -12.37)" fill="url(#cfronty)"/>
        <path data-name="Path 477" d="M86 28.969l5.941-7.186a1.747 1.747 0 0 0 0-2.224L86 12.37h5.818l5.941 7.188a1.747 1.747 0 0 1 0 2.224l-5.932 7.186z" transform="translate(-73.352 -12.37)" fill="url(#dfronty)"/>
    </g>
    <g data-name="Layer 1">
        <path data-name="Path 473" fill="#aaa" d="M43.882 2.14V3.6h-5.357v3.937h4.921v1.438h-4.942v5.295h-1.769V2.14zm1.358 12.151V5.232h1.285l.3 1.8a2.961 2.961 0 0 1 2.814-1.927 3.265 3.265 0 0 1 .827.077 3.951 3.951 0 0 1 .59.2l-.331 1.478a3.128 3.128 0 0 0-.515-.2 2.236 2.236 0 0 0-.67-.077 2.515 2.515 0 0 0-1.031.2 2.409 2.409 0 0 0-.827.572 2.481 2.481 0 0 0-.557.945 3.793 3.793 0 0 0-.2 1.288v4.707zm15.037-4.638a5.437 5.437 0 0 1-.352 2.028 4.754 4.754 0 0 1-.946 1.518 4.267 4.267 0 0 1-1.417.943 4.617 4.617 0 0 1-1.752.314 5.06 5.06 0 0 1-1.752-.294 3.865 3.865 0 0 1-1.4-.886 4.009 4.009 0 0 1-.933-1.433 5.97 5.97 0 0 1 .026-3.994 4.6 4.6 0 0 1 .946-1.5 4.045 4.045 0 0 1 1.417-.925 4.638 4.638 0 0 1 1.752-.314 5.05 5.05 0 0 1 1.752.294 3.831 3.831 0 0 1 1.4.866 4.032 4.032 0 0 1 .925 1.438 5.31 5.31 0 0 1 .335 1.943zm-1.77.1a4.341 4.341 0 0 0-.237-1.546 2.954 2.954 0 0 0-.616-1.028 2.1 2.1 0 0 0-.866-.59 2.8 2.8 0 0 0-.984-.178 3.331 3.331 0 0 0-.984.149 1.925 1.925 0 0 0-.845.531 3.228 3.228 0 0 0-.593 1.031 4.831 4.831 0 0 0-.216 1.634 4.539 4.539 0 0 0 .237 1.544 2.816 2.816 0 0 0 .611 1.031 2.347 2.347 0 0 0 .866.59 2.419 2.419 0 0 0 .984.2 3.252 3.252 0 0 0 .984-.16 2.169 2.169 0 0 0 .848-.549 3.134 3.134 0 0 0 .59-1.031 5.511 5.511 0 0 0 .222-1.623zm5.529 4.537h-1.693V5.232h1.34l.258 1.257a5.223 5.223 0 0 1 1.417-1.031 3.945 3.945 0 0 1 1.713-.353 3.005 3.005 0 0 1 2.185.773 2.883 2.883 0 0 1 .788 2.167V14.3h-1.693V8.283a1.9 1.9 0 0 0-.435-1.319 1.646 1.646 0 0 0-1.317-.492 3.487 3.487 0 0 0-2.52 1.219v6.6zm13.269-7.8h-2.646v5.256a1.054 1.054 0 0 0 .335.907 1.482 1.482 0 0 0 .886.234 4.473 4.473 0 0 0 .845-.077 5.907 5.907 0 0 0 .809-.2l.276 1.288a6.315 6.315 0 0 1-2.244.392 2.78 2.78 0 0 1-1.968-.59 2.214 2.214 0 0 1-.611-1.711v-5.5h-1.362V5.2h1.358V2.338h1.672v2.894h2.659zm1.288-1.257h1.8l1.927 5.176.649 2.164h.041l.649-2.164 1.752-5.176h1.731l-3.471 9.827a7.155 7.155 0 0 1-1.458 2.559 5.478 5.478 0 0 1-2.084 1.358l-.729-1.358a5.066 5.066 0 0 0 1.625-1.009 4.205 4.205 0 0 0 1.085-1.8l.175-.515z"/>
    </g>
</svg>