<svg width="130" viewBox="0 0 171 35">
    <path d="M45 26V8h3v18h-3zm2-7v-3h9v3h-9zm0-8V8h10v3H47zM63 26l-3-1-2-2v-9h3v8l1 1h1l2-1v-8h3v9l-2 2-3 1zM72 26V9h3v17h-3zm-3-9v-3h9v3h-9zM84 26l-3-1-2-2v-9h3v8l1 1h1l2-1v-8h3v9l-2 2-3 1zM91 26V14h4v12h-4zm4-7l-2-1 2-3 3-1h1l1 1-2 2h-3v2zM106 26l-3-1-3-2v-3-3l3-3h3a6 6 0 0 1 6 6v1h-10v-2h8l-1 1-1-2-1-1-1-1-2 1-1 1v4l1 1h4l1-1 2 2-2 1-3 1zM119 26l-2-1-1-1-1-2v-4l1-2a5 5 0 0 1 3-2 5 5 0 0 1 5 3l1 3-1 3-2 2-3 1zm0-3h2l1-2v-1-2l-1-1h-2a3 3 0 0 0-3 1v3l1 2h2zm-6 8V14h3v17h-3zM132 26l-3-1-2-2-1-3 1-3 2-3h3a6 6 0 0 1 6 6v1h-10v-2h8l-1 1v-2l-1-1-2-1-2 1-1 1v4l1 1h4l1-1 2 2-2 1-3 1zM144 26l-3-1-2-2-1-3 1-3 2-3h5a4 4 0 0 1 3 4v4l-1 2-2 1-2 1zm1-3h1l1-2 1-1-1-2-1-1h-3a3 3 0 0 0-1 3v1l1 2h2zm6 3h-3v-6l-1-3V8h4v18zM153 26V14h3v12h-3zM163 26l-3-1-2-2-1-3 1-3 2-3h5l2 2 1 2v4l-1 2-2 1-2 1zm1-3l2-1 1-2-1-2-1-1h-3l-1 1v3l1 2h2zm3 3V14h3v12h-3z" fill="#273653"/>
    <circle cx="17.5" cy="17.5" fill="#273653" r="17.5"/>
    <path d="M11 21h1c2 0 4-2 4-4V8h-1c-2 0-4 1-4 4v9z" fill="#fff"/>
    <path d="M11 12c0-3 2-4 4-4h8a3 3 0 0 1 0 5H12l-1-1z" fill="#fff"/>
    <path d="M11 20c0-2 2-4 4-4h5c1 0 2 1 2 3l-2 2h-9v-1z" fill="#49ADFF"/>
    <path d="M11 25c0 1 1 2 3 2l2-2c0-2-1-3-2-3h-3v3z" fill="#fff"/>
    <path d="M157 10a2 2 0 1 1-4 0 2 2 0 0 1 4 0z" fill="#49ADFF"/>
    <path d="M155 12c-2 0-2-1-2-2v2h2z" fill="#49ADFF"/>
</svg>