<svg width="145" viewBox="0 0 44.013 5.225" xmlns="http://www.w3.org/2000/svg">
  <path d="M.621 4.465l.622-.662H.668c-.5 0-.576-.147-.576-1.11C.092 1.05 1.08.1 2.788.1H4.06v1.803c0 1.63-.071 1.87-.742 2.513-.598.573-.993.711-2.03.711H0zm4.416-.081c-.541-.564-.711-1.008-.711-1.852 0-.963.076-1.11.575-1.11h.575L4.855.76 4.233.1h1.32c1.1 0 1.437.123 2.03.742.627.654.711.952.711 2.514v1.771H7.021c-1.05 0-1.398-.13-1.984-.742zm3.522-1.722V.099h1.67c1.485 0 1.75.082 2.381.742 1.028 1.073.994 2.593-.082 3.624l-.794.76v-1.52l-.794.76-.794.76v-1.52l-.793.76-.794.76zm5.738 1.722c-.627-.654-.711-.952-.711-2.514V.1H17.555v1.11c0 .844-.17 1.288-.711 1.852l-.711.742h.71c.583 0 .712.12.712.662 0 .614-.092.661-1.274.661-1.05 0-1.398-.13-1.984-.742zm4.233 0c-.54-.564-.71-1.008-.71-1.852 0-1.008.06-1.11.66-1.11.53 0 .662-.132.662-.662 0-.617.088-.661 1.323-.661h1.323V5.126h-1.273c-1.05 0-1.399-.13-1.985-.742zm4.234 0c-.627-.654-.711-.952-.711-2.514V.1h3.968v1.11c0 .844-.17 1.288-.71 1.852l-.712.742h.711c.582 0 .711.12.711.662 0 .614-.091.661-1.273.661-1.05 0-1.398-.13-1.984-.742zm3.522-1.821V0l.794.76.793.76V.81c0-.677.064-.711 1.323-.711h1.323v1.134c0 1.017-.142 1.274-1.397 2.513-.995.983-1.605 1.38-2.117 1.38h-.719z" fill="#ababab"/>
  <path d="M30.784 2.662V.099h1.67c1.485 0 1.75.082 2.381.742 1.028 1.073.994 2.593-.082 3.624l-.794.76v-1.52l-.794.76-.794.76v-1.52l-.793.76-.794.76zm5.738 1.722c-.54-.564-.711-1.008-.711-1.852 0-.963.076-1.11.575-1.11h.576L36.34.76 35.72.1h1.32c1.1 0 1.437.123 2.03.742.627.654.71.952.71 2.514v1.771h-1.273c-1.05 0-1.398-.13-1.984-.742zm3.522-1.771V.099h1.274c1.707 0 2.695.951 2.695 2.594 0 1.008-.06 1.11-.661 1.11-.53 0-.662.132-.662.662 0 .617-.088.661-1.323.661h-1.323z" fill="#00adef"/>
</svg>