<svg width="180" viewBox="0 0 278.3 40.3" fill="#aaa">
    <path d="M18.7 1.5a18.7 18.7 0 1 0-.1 37.3 18.7 18.7 0 0 0 .1-37.3zM5.2 12.9l1-1.6c0-.2.2-.3.4-.3l.5.2 6.3 6.3c.9.7 2 .9 3 .5l.2-.2c.4-1 .4-2.1-.1-3l-.2-.2-6.4-6.3c-.1-.2-.2-.3-.1-.5l.2-.4 1.6-1c.2-.1.5-.1.7.1l.7.7 5.4 5.4c.5.6 1.2.9 2 .9.8-.1 1 .4 1.1 1.3.2 1.7.7 3.3 1.3 4.9l.2.5c.5 1.3.7 1.6 0 2.2l-2.1 2.1c-.2.2-.4.4-.6.4l-.3-.1-7.1-2.1c-.5-.1-.7-.4-.6-.8.1-.9-.3-1.8-1-2.3l-5.4-5.4-.5-.5c-.3-.3-.4-.6-.2-.8zm28.7 8.9a15.5 15.5 0 0 1-13.5 13.6c-4.4.5-8.7-.9-12-3.8-3.1-3-5-7.2-5-11.6v-.9c0-.2.2-.4.4-.5H4l.4.2.4.4 4 4.1a7 7 0 0 0 3 1.7L22 27.8l3.8 1 .4.1c.5.1 1.1-.2 1.2-.8v-.5l-4.2-15.4c-.2-.6-.5-1.2-.9-1.6L17.8 6l-.5-.5c-.2-.2-.2-.4-.1-.6.1-.2.3-.4.5-.4h.9c8.5.1 15.4 7 15.3 15.5v1.8zm29.6-3.1v8.4a10.7 10.7 0 0 1-9 4.5 11 11 0 0 1-11.1-11.3c0-6.7 5.2-11.6 11.2-11.6 3.3 0 6.5 1.5 8.4 3.4l-3.1 3.1a7.1 7.1 0 0 0-12.2 5.1c0 3.9 2.8 7.1 6.8 7.1 2 0 4.1-.8 5-1.8v-2.9h-4.8v-3.8h8.8zm16.9 6.4h-11c.3 2 1.6 3.2 3.7 3.2 1.4 0 2.7-.5 3.8-2.1l3.1 1.5a7.6 7.6 0 0 1-6.9 3.9c-5.2 0-8.2-3.3-8.2-7.7s3.2-7.8 8-7.8c4.5 0 7.4 3 7.4 7.7l.1 1.3zm-11-2.6h6.9c-.3-1.9-1.5-3-3.4-3s-3.1 1.2-3.5 3zm20.9-2.8h-2.9v11.6h-4.3V19.7h-2.8v-3.2h2.8v-4.2h4.3v4.2h2.9v3.2zm1.1-8.3c0-1.3 1.1-2.4 2.4-2.4 1.3 0 2.5 1.1 2.5 2.4s-1.1 2.4-2.5 2.4c-1.3.1-2.4-1-2.4-2.4zm.2 5H96v14.9h-4.3V16.4zM98.8 9h4.3v22.3h-4.3V9zm7.3 0h4.3v22.3h-4.3V9zm21.3 7.4v14.9h-4.3v-1.5a6 6 0 0 1-10.2-4.2v-9.1h4.3v8.6c0 1.5 1.2 2.8 2.8 2.8 1.7 0 3-1.2 3-2.8v-8.6h4.4zm1.3 13.4l2-3.1a8 8 0 0 0 3.9 1.6c1.2.1 2.1-.3 2.1-1.2 0-2.4-7.4-1.4-7.4-6.2 0-2.7 2.4-4.8 6-4.8 1.5 0 3.8.4 5.6 1.6l-2.1 2.8c-.7-.6-2-1.1-3-1.3-1.1-.1-2.2.2-2.2 1 0 2.3 7.3 1.2 7.3 6.2 0 2.8-2.2 5.1-6.1 5.1-1.9.1-4.5-.5-6.1-1.7z"/>
    <path d="M150.8 19.7h-2.9v11.6h-4.3V19.7h-2.8v-3.2h2.8v-4.2h4.3v4.2h2.9v3.2zm11.2-3.3l-.2 3.7a6 6 0 0 0-1.5-.2c-2.4 0-4.1 1.5-4.1 4v7.4h-4.3V16.4h4.3v2c1-1.4 2.6-2.3 4.3-2.3l1.5.3zm15.7 0v14.9h-4.3V30a7 7 0 0 1-4.5 1.7c-4.2 0-7.4-3.4-7.4-7.7s3.2-7.7 7.4-7.7c1.8 0 3.3.6 4.5 1.7v-1.4h4.3zm-4 7.5a4 4 0 0 0-3.9-4c-2.2 0-3.9 1.8-3.9 4s1.7 3.9 3.9 3.9c2.1 0 3.9-1.7 3.9-3.9zm15.4-4.2h-2.9v11.6h-4.3V19.7h-2.8v-3.2h2.8v-4.2h4.3v4.2h2.9v3.2zm1-8.3c0-1.3 1.1-2.4 2.4-2.4 1.3 0 2.5 1.1 2.5 2.4s-1.1 2.4-2.5 2.4c-1.3.1-2.4-1-2.4-2.4zm.3 5h4.3v14.9h-4.3V16.4zm6 7.5c0-4.3 3.7-7.7 8.3-7.7 4.6 0 8.3 3.4 8.3 7.7 0 4.3-3.6 7.7-8.3 7.7-4.6 0-8.3-3.4-8.3-7.7zm12.2 0a4 4 0 0 0-3.9-4c-2.2 0-3.9 1.8-3.9 4s1.7 3.9 3.9 3.9 3.9-1.7 3.9-3.9zm20.7-2v9.4H225v-8.9c0-1.5-1.1-2.5-2.8-2.5-1.7 0-3.1 1.2-3.1 2.8v8.6h-4.3V16.4h4.3V18a6 6 0 0 1 4.3-1.8c3.5 0 5.9 2.2 5.9 5.7zm.9 7.9l2-3.1a8 8 0 0 0 3.9 1.6c1.2.1 2.1-.3 2.1-1.2 0-2.4-7.4-1.4-7.4-6.2 0-2.7 2.4-4.8 6-4.8 1.5 0 3.8.4 5.6 1.6l-2.1 2.8c-.7-.6-2-1.1-3-1.3-1.1-.1-2.2.2-2.2 1 0 2.3 7.3 1.2 7.3 6.2 0 2.8-2.2 5.1-6.1 5.1-2 .1-4.6-.5-6.1-1.7zm12.5.3c0-.8.6-1.4 1.4-1.4s1.4.7 1.4 1.4c0 .8-.6 1.4-1.4 1.4s-1.4-.6-1.4-1.4zm3.8-3.1c0-2.6 1.9-4.5 4.6-4.5.7 0 1.6.1 2.3.5v2.3a3 3 0 0 0-1.9-.7c-1.4 0-2.4 1-2.4 2.4s1 2.4 2.4 2.4c.8 0 1.5-.3 1.9-.7V31c-.7.4-1.6.5-2.3.5-2.7 0-4.6-1.9-4.6-4.5zm7.4 0c0-2.5 2.1-4.5 4.8-4.5 2.7 0 4.8 2 4.8 4.5s-2.1 4.5-4.8 4.5c-2.6 0-4.8-2-4.8-4.5zm7.2 0c0-1.3-1-2.3-2.3-2.3-1.3 0-2.3 1-2.3 2.3s1 2.3 2.3 2.3c1.2 0 2.3-1 2.3-2.3zm17.2-1.2v5.5h-2.5v-5.2c0-.9-.6-1.4-1.4-1.4-.9 0-1.6.7-1.6 1.6v5h-2.5v-5.2c0-.9-.6-1.4-1.4-1.4-.9 0-1.6.7-1.6 1.6v5h-2.5v-8.7h2.5v.8c.6-.6 1.4-1 2.3-1a3 3 0 0 1 2.7 1.4c.7-.8 1.7-1.4 2.9-1.4 1.8.1 3.1 1.4 3.1 3.4z"/>
</svg>