<svg xmlns:xlink="http://www.w3.org/1999/xlink" width="45" viewBox="0 0 150 150">
    <defs>
        <linearGradient id="lghidra" x1="-155" y1="232.5" x2="25.1" y2="122.5" gradientTransform="rotate(-1 -1284 964)" gradientUnits="userSpaceOnUse">
            <stop offset="0" stop-color="#ce0e2d"/>
            <stop offset=".5" stop-color="#ff9e18"/>
            <stop offset="1" stop-color="#f7be00"/>
        </linearGradient>
        <linearGradient id="lghidra-2" x1="-166.1" y1="235.5" x2="7.8" y2="129.3" xlink:href="#lghidra"/>
        <linearGradient id="lghidra-3" x1="-172.5" y1="242" x2="1.4" y2="135.8" xlink:href="#lghidra"/>
        <linearGradient id="lghidra-4" x1="-166.1" y1="242" x2="7.8" y2="135.8" xlink:href="#lghidra"/>
        <linearGradient id="lghidra-5" x1="-166.1" y1="248.5" x2="7.8" y2="142.3" xlink:href="#lghidra"/>
        <linearGradient id="lghidra-6" x1="-159.9" y1="242" x2="14" y2="135.8" xlink:href="#lghidra"/>
        <linearGradient id="lghidra-7" x1="-185.3" y1="248.5" x2="-11.3" y2="142.3" xlink:href="#lghidra"/>
        <linearGradient id="lghidra-8" x1="-185.3" y1="254.7" x2="-11.3" y2="148.5" xlink:href="#lghidra"/>
        <linearGradient id="lghidra-9" x1="-191.6" y1="260.5" x2="-17.6" y2="154.3" xlink:href="#lghidra"/>
        <linearGradient id="lghidra-10" x1="-172.5" y1="254.7" x2="1.4" y2="148.5" xlink:href="#lghidra"/>
        <linearGradient id="lghidra-11" x1="-159.9" y1="235.5" x2="14" y2="129.3" xlink:href="#lghidra"/>
        <linearGradient id="lghidra-12" x1="-171.9" y1="244.3" x2="8.3" y2="134.3" xlink:href="#lghidra"/>
        <linearGradient id="lghidra-13" x1="-188.7" y1="248" x2="-14.8" y2="141.8" xlink:href="#lghidra"/>
        <linearGradient id="lghidra-14" x1="-188.7" y1="254.5" x2="-14.8" y2="148.3" xlink:href="#lghidra"/>
        <linearGradient id="lghidra-15" x1="-182" y1="254.5" x2="-8" y2="148.3" xlink:href="#lghidra"/>
        <linearGradient id="lghidra-16" x1="-188.7" y1="260.6" x2="-14.8" y2="154.5" xlink:href="#lghidra"/>
        <linearGradient id="lghidra-17" x1="-188.7" y1="266.5" x2="-14.8" y2="160.3" xlink:href="#lghidra"/>
        <linearGradient id="lghidra-18" x1="-194.7" y1="266.5" x2="-20.8" y2="160.3" xlink:href="#lghidra"/>
        <clipPath id="clip-path">
            <circle class="ghidra1" cx="230.5" cy="84.6" r="23"/>
        </clipPath>
        <clipPath id="clip-path-2">
            <circle class="ghidra1" cx="74.9" cy="74.2" r="71.8"/>
        </clipPath>
        <style>.ghidra1{fill:none}.ghidra3{fill:#f2b131}.ghidra6{fill:#672f25}.ghidra7{fill:#e1251b}.ghidra8{fill:#ff7f40}</style>
    </defs>
    <g clip-path="url(#clip-path)">
        <path class="ghidra3" d="M193 90c-6-15-9-20-19-22-17-3-25 12-25 20a23 23 0 0 0 2 11 30 30 0 0 1-1-8c0-8 7-23 25-20 9 1 14 11 21 25l-3-6z"/>
    </g>
    <path d="M102 62s1-7 0-12l-2-5 3 9v6z" fill="#fff"/>
    <g clip-path="url(#clip-path-2)">
        <path class="ghidra6" d="M95 228c19 0 38-5 54-16 8-5 16-11 22-18a64 64 0 0 0 9-12l3-6 3-7a123 123 0 0 0 9-27 89 89 0 0 0 1-29v-1-2l-1-4-1-3-1-4-2-6-3-7a73 73 0 0 0-8-12 47 47 0 0 0-4-5 43 43 0 0 0-6-5h-1l1-1a6 6 0 0 1 3-2 7 7 0 0 1 4 1l3 1a8 8 0 0 0 2 1l-1 2a38 38 0 0 0-13-9 49 49 0 0 0-15-4h-3l2-2a12 12 0 0 1 5-3 20 20 0 0 1 6 0 27 27 0 0 1 5 1 28 28 0 0 1 5 1l-2 3a8 8 0 0 0 0-1 3 3 0 0 0-1-1 1 1 0 0 0 1 0 1 1 0 0 0 1-1 1 1 0 0 0-1-1 3 3 0 0 0 1 1 7 7 0 0 0 1 0l-2 3a52 52 0 0 0-19-12 73 73 0 0 0-24-4h-3l2-2 1-1v-1h1a2 2 0 0 1 1 0 1 1 0 0 1 1 0 2 2 0 0 1 0 1 2 2 0 0 1 1 1 2 2 0 0 1-1 1 3 3 0 0 1-1 1 4 4 0 0 1-1 0l-6 1 4-4a17 17 0 0 1 7-2 24 24 0 0 1 6-1 42 42 0 0 1 13 2l-2 3-3-2-2-2h-2v-1h1a2 2 0 0 0 1 0 2 2 0 0 0 0-1v-1h1l1 1 1 1a22 22 0 0 0 4 2l-2 3a53 53 0 0 0-27-11 48 48 0 0 0-28 5l-5 3 2-5a15 15 0 0 1 4-5 24 24 0 0 1 5-4 30 30 0 0 1 6-2 25 25 0 0 1 6-1l-1 4a35 35 0 0 0-14-2 40 40 0 0 0-14 3 44 44 0 0 0-21 18l-1 2h-2l-5-2a11 11 0 0 0-4 0 4 4 0 0 0-1 1 5 5 0 0 0-2 1 10 10 0 0 0-1 4l-1 1v2a24 24 0 0 1-1 2l-1 2v1a22 22 0 0 1-2 2 28 28 0 0 1-9 7 52 52 0 0 1-10 4h-2a14 14 0 0 0-2 1 12 12 0 0 0-4 3 10 10 0 0 0-1 2l-1 2a22 22 0 0 0-1 4 11 11 0 0 0 2 8l-4 1a21 21 0 0 1 2-7 12 12 0 0 1 3-3 8 8 0 0 1 4-2l4-1-1 4a5 5 0 0 0 0 2 2 2 0 0 0 0 1 6 6 0 0 0 4 2l-3 4a10 10 0 0 1-1-3 11 11 0 0 1-1-4 12 12 0 0 1 3-6l3-4 2 5a6 6 0 0 0 2 2 4 4 0 0 0 3 1l-2 5a6 6 0 0 1-2-3 7 7 0 0 1 0-4 25 25 0 0 1 0-2 17 17 0 0 0 1-2l1-5 3 3a12 12 0 0 0 4 2 3 3 0 0 0 2 0 2 2 0 0 0 1-1 8 8 0 0 0 0-2 16 16 0 0 1 2-3 8 8 0 0 1 2-2 16 16 0 0 1 7-2h6l1 6h-3a2 2 0 0 1-1-1 3 3 0 0 1-1-1 3 3 0 0 1 0-1 3 3 0 0 1 0-1 2 2 0 0 1 0-1 3 3 0 0 1 1 0 3 3 0 0 1 0-1h4v6a10 10 0 0 0-3 0 4 4 0 0 0-2 2v4l3 6a16 16 0 0 1 1 2 14 14 0 0 1 1 2 24 24 0 0 1 0 4l-1 8v3a12 12 0 0 1-1 5 7 7 0 0 1-2 2 7 7 0 0 1-2 1 6 6 0 0 1-1 0 20 20 0 0 1-4 1 51 51 0 0 1-8 0l3-5a30 30 0 0 0 6 6 18 18 0 0 0 7 3h1a4 4 0 0 0 0-1l1-2 2-3 4-10 4-11 5-10 1-3 2 1a5 5 0 0 0 3 0 8 8 0 0 0 3-1 16 16 0 0 0 5-7 27 27 0 0 0 2-8c0-3 0-6-2-8l4-3a16 16 0 0 1 2 4 21 21 0 0 1 1 3 22 22 0 0 1 1 4 16 16 0 0 1 0 4l-3-3a35 35 0 0 1 15 1 48 48 0 0 1 14 7 72 72 0 0 1 11 9l3 3 2 3 2 3 3 3a52 52 0 0 1 9 28 66 66 0 0 1-6 29v-1l-1 4v1a69 69 0 0 1-9 15 56 56 0 0 1-7 6 52 52 0 0 1-7 5 56 56 0 0 1-16 7 52 52 0 0 1-8 1 25 25 0 0 1-9 0v-1a24 24 0 0 0 8 1 51 51 0 0 0 9-2l4-2 4-1a48 48 0 0 0 7-4 51 51 0 0 0 7-6 54 54 0 0 0 6-6 66 66 0 0 0 9-14v-4a63 63 0 0 0 5-28 49 49 0 0 0-8-26l-20-20a44 44 0 0 0-13-5 31 31 0 0 0-13-1h-3v-3a16 16 0 0 0-3-11l4-2a14 14 0 0 1 3 5 21 21 0 0 1 0 5 32 32 0 0 1-2 10 21 21 0 0 1-3 5 20 20 0 0 1-4 4 13 13 0 0 1-5 2 10 10 0 0 1-6 0l3-2-4 11-4 11-4 10-2 3-1 2a10 10 0 0 1-1 2 6 6 0 0 1-2 2 5 5 0 0 1-3 0 8 8 0 0 1-1 0h-1 1a23 23 0 0 1-9-4 36 36 0 0 1-8-6l-4-6 7 1a46 46 0 0 0 7 0 15 15 0 0 0 3 0 1 1 0 0 0 1-1 6 6 0 0 0 0-2v-4l1-7a19 19 0 0 0 0-3 8 8 0 0 0-1-3l-3-6a12 12 0 0 1-1-5v-1-2l1-1a8 8 0 0 1 1-1 9 9 0 0 1 4-3 15 15 0 0 1 4-1v6h-1a4 4 0 0 0 1-1 3 3 0 0 0 1-1 3 3 0 0 0 0-1 3 3 0 0 0-1-2 2 2 0 0 0-1-1h1v6h-6a11 11 0 0 0-4 1v-1a2 2 0 0 0-1 1 11 11 0 0 0 0 2 13 13 0 0 1-2 3 8 8 0 0 1-6 4 9 9 0 0 1-3-1 17 17 0 0 1-5-3l4-1a22 22 0 0 1 0 2 19 19 0 0 0-1 2 2 2 0 0 0 0 1l6 4-7 1a9 9 0 0 1-3 0 9 9 0 0 1-3-1 11 11 0 0 1-4-6l4 1a7 7 0 0 0-1 4 5 5 0 0 0 1 3l4 6-7-2a14 14 0 0 1-4-1 9 9 0 0 1-3-2 8 8 0 0 1-1-4 10 10 0 0 1 0-4l3 3a3 3 0 0 0-2 1 6 6 0 0 0-1 2 17 17 0 0 0-2 5l-1 6-4-5a16 16 0 0 1-2-6 17 17 0 0 1-1-6 26 26 0 0 1 2-5v-1a14 14 0 0 1 1-2 15 15 0 0 1 2-2 17 17 0 0 1 4-4 18 18 0 0 1 3-1h1v-1h2a48 48 0 0 0 9-3 23 23 0 0 0 7-6 17 17 0 0 0 2-2v-1l1-1a19 19 0 0 0 1-2v-1-1a14 14 0 0 1 3-6 10 10 0 0 1 2-2 9 9 0 0 1 3-1 16 16 0 0 1 6 0l5 1-2 1a49 49 0 0 1 23-20 44 44 0 0 1 16-3 39 39 0 0 1 15 2l10 4h-10a20 20 0 0 0-5 1 26 26 0 0 0-5 2 21 21 0 0 0-4 3 11 11 0 0 0-3 3l-3-2a49 49 0 0 1 15-5 55 55 0 0 1 16 0 57 57 0 0 1 29 12l9 7-11-4a25 25 0 0 1-4-3l-2-1-1-1h-1v-1a1 1 0 0 1-1 0v-1a2 2 0 0 1 1-1 2 2 0 0 1 1-1h1v1h1l1 1 2 1 3 3 10 7-11-4a39 39 0 0 0-12-3c-4 0-8 1-11 3l-1-3v1a2 2 0 0 0 1 1h1v1l-2-3a76 76 0 0 1 25 4 55 55 0 0 1 21 13l4 4-6-2a9 9 0 0 1-2-1 4 4 0 0 1-1-1 2 2 0 0 1 0-2 2 2 0 0 1 1-1 2 2 0 0 1 1 0 3 3 0 0 1 1 1 10 10 0 0 1 2 2l3 5-5-3a26 26 0 0 0-9-2 17 17 0 0 0-5 0 9 9 0 0 0-4 2l-1-3a52 52 0 0 1 17 4 40 40 0 0 1 13 10l2 3h-3a10 10 0 0 1-3-2l-3-1a5 5 0 0 0-2-1 4 4 0 0 0-3 1v-2a46 46 0 0 1 6 5 52 52 0 0 1 5 6 75 75 0 0 1 8 12l3 7 2 7 1 3 1 4 1 3v4a90 90 0 0 1-1 29 125 125 0 0 1-9 28l-3 6-4 7a64 64 0 0 1-9 11 102 102 0 0 1-28 22 72 72 0 0 1-7 4 102 102 0 0 1-14 5 105 105 0 0 1-14 3 110 110 0 0 1-14 1z"/>
        <path class="ghidra7" d="M191 91c-9-19-20-28-20-28s-1-1 3 0a17 17 0 0 1 8 2 43 43 0 0 0-14-10c-6-3-15-3-15-3s0-3 7-3a42 42 0 0 1 13 3s-5-7-20-12-25-4-25-4 2-3 9-3a38 38 0 0 1 15 2s-14-11-30-12c-14-1-27 6-27 6s1-3 7-7a23 23 0 0 1 12-4s-12-5-28 0c-14 4-21 16-24 20l-7-1c-2 0-6-1-9 6s-2 10-7 15-21 5-24 9-5 11-4 14a26 26 0 0 0 2 7 20 20 0 0 1 3-7 6 6 0 0 1 5-4s-2 4 0 6l5 3a8 8 0 0 1-1-5 7 7 0 0 1 2-6c2 7 8 6 8 6a6 6 0 0 1-2-5l2-4s5 4 8 3 3-9 8-10a45 45 0 0 0 7-1c-2 1-6 3-5 8 1 7 5 9 5 13s-1 15-2 18-14 2-14 2 5 5 9 7 9 4 10 1l16-38s3 2 9-1 7-13 7-13a29 29 0 0 0 0-9 27 27 0 0 0-1-3 8 8 0 0 0-1-1l1 1a24 24 0 0 1 2 7 12 12 0 0 1 0 4c4 0 14-1 29 9 25 18 35 43 22 77-6 15-25 39-57 36l4 47a100 100 0 0 0 56-16c29-19 38-41 38-41s23-45 5-81z"/>
        <path class="ghidra6" d="M17 70l7-3v2l-7 1zM92 47l7 7a25 25 0 0 1 3 7l-10 4a24 24 0 0 0 1-11c-1-4-6-11-6-11zM103 22l-11 8a29 29 0 0 0-4 5l7-5 11-5-6 1z"/>
        <path class="ghidra3" d="M148 100c4 13 4 28-3 45-6 15-25 40-57 36l1 7c33 5 53-20 59-35 8-21 7-38 0-53z"/>
        <path class="ghidra8" d="M88 50s4 6 3 12-3 9-6 10a31 31 0 0 1-8 1 19 19 0 0 0 10-10 23 23 0 0 0 1-13z"/>
        <path class="ghidra6" d="M54 75c-1-4-2-10 3-10a36 36 0 0 1 8 0 13 13 0 0 0-8-2 27 27 0 0 0-7 3l2 4 2 5zM35 72l7 2 5-6-2 8h-5zM53 104s-6 1-7 2 6 7 6 7l-12-9z"/>
        <path class="ghidra8" d="M49 107l5 3c4 2 5 2 6 1l14-35s-12 31-17 32a25 25 0 0 1-8-1z"/>
        <path class="ghidra6" d="M87 35s3-9 12-14c5-3 15-3 15-3l-12 6zM128 36s5-6 11-6 16 6 16 6-8-3-14-2l-13 2z"/>
        <path class="ghidra8" d="M68 30s13-13 25-14 17 1 17 1-13 0-24 3a66 66 0 0 0-18 10zM87 35s17-13 34-12a70 70 0 0 1 28 9s-19-8-37-5-25 9-25 9M128 36s12-2 27 5 17 10 17 10a102 102 0 0 0-21-10l-23-5z"/>
        <path class="ghidra6" d="M23 87l6 2a13 13 0 0 0 4 0l-5-4-2 1zM34 83l5-2-3-2-2 4zM47 54a36 36 0 0 0 4-6 67 67 0 0 0 3-7v10z"/>
        <path d="M45 90a2 2 0 0 1-1-1 2 2 0 0 1-1 0 2 2 0 0 1 0-1 3 3 0 0 1 0-1 3 3 0 0 1 0-1 3 3 0 0 1 0-1 2 2 0 0 1 1 0 2 2 0 0 1 1-1 2 2 0 0 1 1 1 3 3 0 0 1 1 1 4 4 0 0 1 0 1 3 3 0 0 1 0 1 3 3 0 0 1-1 1 2 2 0 0 1-1 1zm0-1a1 1 0 0 0 1-1 2 2 0 0 0 0-1 2 2 0 0 0 0-1 1 1 0 0 0-1-1 1 1 0 0 0-1 0 1 1 0 0 0 0 1 3 3 0 0 0 0 1 3 3 0 0 0 0 1 1 1 0 0 0 0 1 1 1 0 0 0 1 0z" fill="url(#lghidra)"/>
        <path d="M27 97a2 2 0 0 1-1 0 2 2 0 0 1-1 0 2 2 0 0 1 0-1 3 3 0 0 1-1-1 3 3 0 0 1 1-1 2 2 0 0 1 0-1 2 2 0 0 1 1-1 2 2 0 0 1 1 0 2 2 0 0 1 1 1 3 3 0 0 1 1 1 3 3 0 0 1 0 1 3 3 0 0 1 0 1 3 3 0 0 1-1 1 2 2 0 0 1-1 0zm0 0a1 1 0 0 0 0-1 2 2 0 0 0 1-1 2 2 0 0 0 0-1 2 2 0 0 0-1 0 1 1 0 0 0 0-1 1 1 0 0 0-1 0 1 1 0 0 0 0 1 2 2 0 0 0-1 0 3 3 0 0 0 0 1 2 2 0 0 0 1 1 1 1 0 0 0 1 1z" fill="url(#lghidra-2)"/>
        <path d="M20 104a2 2 0 0 1-1 0 2 2 0 0 1 0-1 3 3 0 0 1-1-1 3 3 0 0 1 0-1 3 3 0 0 1 0-1 3 3 0 0 1 1 0 2 2 0 0 1 0-1 2 2 0 0 1 1 0 2 2 0 0 1 1 0 2 2 0 0 1 1 1 3 3 0 0 1 0 1 3 3 0 0 1 0 1 2 2 0 0 1 0 1 2 2 0 0 1-2 1zm0-1a1 1 0 0 0 1 0 2 2 0 0 0 0-1 2 2 0 0 0 0-1 2 2 0 0 0 0-1 1 1 0 0 0-1 0 1 1 0 0 0-1 0 2 2 0 0 0 0 1 3 3 0 0 0 0 1 2 2 0 0 0 0 1 1 1 0 0 0 1 0z" fill="url(#lghidra-3)"/>
        <path d="M27 104a2 2 0 0 1-1 0 2 2 0 0 1-1-1 2 2 0 0 1 0-1 3 3 0 0 1-1-1 3 3 0 0 1 1-1 3 3 0 0 1 0-1 2 2 0 0 1 2 0 2 2 0 0 1 1 0 3 3 0 0 1 1 1 3 3 0 0 1 0 1 3 3 0 0 1 0 1 3 3 0 0 1-1 1 2 2 0 0 1-1 1zm0-1a1 1 0 0 0 1-1 2 2 0 0 0 0-1 2 2 0 0 0-1-1 1 1 0 0 0-1 0 2 2 0 0 0-1 1 2 2 0 0 0 0 1 2 2 0 0 0 1 1 1 1 0 0 0 1 0z" fill="url(#lghidra-4)"/>
        <path d="M27 110a2 2 0 0 1-1 0 2 2 0 0 1-1 0 2 2 0 0 1 0-1 3 3 0 0 1 0-1 3 3 0 0 1 0-1 3 3 0 0 1 0-1 2 2 0 0 1 1-1 2 2 0 0 1 1 0 2 2 0 0 1 1 1 3 3 0 0 1 1 1 3 3 0 0 1 0 1 3 3 0 0 1 0 1 3 3 0 0 1-1 1 2 2 0 0 1-1 0zm0 0a1 1 0 0 0 0-1 1 1 0 0 0 1 0 2 2 0 0 0 0-1 2 2 0 0 0 0-1 1 1 0 0 0-1-1 1 1 0 0 0-1 0 1 1 0 0 0 0 1 3 3 0 0 0-1 1 2 2 0 0 0 1 0 2 2 0 0 0 0 1 1 1 0 0 0 1 1z" fill="url(#lghidra-5)"/>
        <path d="M33 104a2 2 0 0 1-2-1 2 2 0 0 1 0-1 3 3 0 0 1 0-1 3 3 0 0 1 0-1 3 3 0 0 1 0-1 2 2 0 0 1 2 0 2 2 0 0 1 1 0 3 3 0 0 1 1 1 3 3 0 0 1 0 1 3 3 0 0 1 0 1 2 2 0 0 1-1 1 2 2 0 0 1-1 1zm0-1a1 1 0 0 0 1-1 2 2 0 0 0 0-1 2 2 0 0 0 0-1 1 1 0 0 0-1 0 1 1 0 0 0-1 0 2 2 0 0 0 0 1 2 2 0 0 0 0 1 1 1 0 0 0 0 1 1 1 0 0 0 1 0z" fill="url(#lghidra-6)"/>
        <path d="M8 111a2 2 0 0 1-1-1 2 2 0 0 1-1 0 2 2 0 0 1 0-1 3 3 0 0 1-1-1 3 3 0 0 1 1-1 3 3 0 0 1 0-1 2 2 0 0 1 1 0 2 2 0 0 1 1-1 2 2 0 0 1 0 1 2 2 0 0 1 1 0 2 2 0 0 1 0 1 3 3 0 0 1 1 1 4 4 0 0 1 0 1 3 3 0 0 1-1 1 2 2 0 0 1-1 0 2 2 0 0 1 0 1zm0-1a1 1 0 0 0 0-1 2 2 0 0 0 1 0 3 3 0 0 0 0-1 3 3 0 0 0 0-1 2 2 0 0 0-1 0 1 1 0 0 0 0-1 1 1 0 0 0-1 0 1 1 0 0 0 0 1 2 2 0 0 0-1 0 3 3 0 0 0 0 1 3 3 0 0 0 0 1 2 2 0 0 0 1 0 1 1 0 0 0 0 1 1 1 0 0 0 1 0z" fill="url(#lghidra-7)"/>
        <path d="M8 117a2 2 0 0 1-1-1 2 2 0 0 1-1 0 2 2 0 0 1 0-1 3 3 0 0 1-1-1 3 3 0 0 1 1-1 3 3 0 0 1 0-1 2 2 0 0 1 1 0 2 2 0 0 1 1 0 2 2 0 0 1 1 0 2 2 0 0 1 1 1 3 3 0 0 1 0 1 3 3 0 0 1 0 1 2 2 0 0 1-1 1 2 2 0 0 1 0 1 2 2 0 0 1-1 0zm0-1a1 1 0 0 0 1-1 2 2 0 0 0 0-1 2 2 0 0 0 0-1 2 2 0 0 0-1 0 1 1 0 0 0 0-1 1 1 0 0 0-1 1 2 2 0 0 0-1 0 2 2 0 0 0 0 1 3 3 0 0 0 0 1 2 2 0 0 0 1 0 1 1 0 0 0 0 1 1 1 0 0 0 1 0z" fill="url(#lghidra-8)"/>
        <path d="M1 123a2 2 0 0 1 0-1 2 2 0 0 1-1 0 2 2 0 0 1-1-1 3 3 0 0 1 0-1 3 3 0 0 1 0-1 3 3 0 0 1 1-1 2 2 0 0 1 1 0 2 2 0 0 1 1 0 2 2 0 0 1 1 0 3 3 0 0 1 0 1 3 3 0 0 1 1 1 3 3 0 0 1-1 1 3 3 0 0 1 0 1 2 2 0 0 1-1 0 2 2 0 0 1-1 1zm0-1a1 1 0 0 0 1 0 1 1 0 0 0 0-1 2 2 0 0 0 1 0 2 2 0 0 0 0-1 2 2 0 0 0 0-1 2 2 0 0 0-1 0 1 1 0 0 0 0-1 1 1 0 0 0-1 0 1 1 0 0 0 0 1 2 2 0 0 0-1 0 3 3 0 0 0 0 1 2 2 0 0 0 0 1 2 2 0 0 0 1 0 1 1 0 0 0 0 1z" fill="url(#lghidra-9)"/>
        <path d="M20 117a2 2 0 0 1 0-1 2 2 0 0 1-1 0 2 2 0 0 1-1-1 3 3 0 0 1 0-1 3 3 0 0 1 0-1 3 3 0 0 1 1-1 2 2 0 0 1 1-1 2 2 0 0 1 2 1 2 2 0 0 1 0 1 3 3 0 0 1 0 1 3 3 0 0 1 0 1 2 2 0 0 1 0 1 2 2 0 0 1-1 0 2 2 0 0 1-1 1zm0-1a1 1 0 0 0 1 0 1 1 0 0 0 0-1 2 2 0 0 0 1 0 2 2 0 0 0 0-1 2 2 0 0 0-1-1 1 1 0 0 0 0-1 1 1 0 0 0-1 0 1 1 0 0 0-1 1 2 2 0 0 0 0 1 3 3 0 0 0 0 1 1 1 0 0 0 1 1z" fill="url(#lghidra-10)"/>
        <path d="M33 97a2 2 0 0 1-1 0 2 2 0 0 1-1-1 3 3 0 0 1 0-1 3 3 0 0 1 0-1 2 2 0 0 1 0-1 2 2 0 0 1 2-1 2 2 0 0 1 1 0 2 2 0 0 1 0 1 3 3 0 0 1 1 1 3 3 0 0 1 0 1 3 3 0 0 1 0 1 3 3 0 0 1-1 0 2 2 0 0 1-1 1zm0-1a1 1 0 0 0 1 0 2 2 0 0 0 0-1 3 3 0 0 0 0-1 2 2 0 0 0 0-1 1 1 0 0 0-1 0 1 1 0 0 0-1 0 2 2 0 0 0 0 1 2 2 0 0 0 0 1 2 2 0 0 0 0 1 1 1 0 0 0 1 0z" fill="url(#lghidra-11)"/>
        <path d="M38 91h-1l1-1h1v5h-1z" fill="url(#lghidra-12)"/>
        <path d="M14 100h-1l-1-1h2v5z" fill="url(#lghidra-13)"/>
        <path d="M14 106l-1 1v-1l1-1h1v5h-1z" fill="url(#lghidra-14)"/>
        <path d="M20 106h-1l2-1v5h-1z" fill="url(#lghidra-15)"/>
        <path d="M14 112l-1 1v-1h2v5h-1z" fill="url(#lghidra-16)"/>
        <path d="M14 118l-1 1v-1l1-1h1v5h-1z" fill="url(#lghidra-17)"/>
        <path d="M8 118l-1 1v-1l1-1h1v5H8z" fill="url(#lghidra-18)"/>
    </g>
    <path class="ghidra7" d="M105 57s18 9 18 32c0 18-10 38-42 44-39 8-66-21-66-21s20 35 52 34 50-14 50-14 22-17 24-26l7-20-8-24-30-13z"/>
    <path class="ghidra6" d="M98 62a33 33 0 0 1 11 1 17 17 0 0 1 9 6 27 27 0 0 1 4 10 50 50 0 0 1 1 11 49 49 0 0 1-5 21 36 36 0 0 1-7 10l-2 1-2 2-2 2-2 1a63 63 0 0 1-21 9 53 53 0 0 1-22 0 75 75 0 0 1-11-3l-10-4a159 159 0 0 1-19-11h1l20 7 5 1 5 2a83 83 0 0 0 10 2 64 64 0 0 0 20 0 55 55 0 0 0 19-7l2-1 2-1a33 33 0 0 0 4-3 32 32 0 0 0 7-8 47 47 0 0 0 5-20 48 48 0 0 0 0-10 26 26 0 0 0-3-10 16 16 0 0 0-8-6 32 32 0 0 0-11-2z"/>
    <path d="M85 139c31-6 40-24 42-42 1-20-9-30-15-34 4 3 11 13 11 26 0 18-10 38-42 44-22 4-49-8-60-15 9 9 37 26 64 21z" fill="#ff9e18"/>
    <circle cx="75.3" cy="74.6" r="71.8" stroke="#231f20" stroke-miterlimit="10" stroke-width="4.2" fill="none"/>
    <script id="bw-fido2-page-script"/>
</svg>