<svg width="115" viewBox="0 0 89.53 31.277" xmlns="http://www.w3.org/2000/svg">
      <path stroke-width="5" stroke="#f1f7ee" fill="#f1f7ee" d="M26.385 20.81c-.734-.657-.86-.963-.96-2.347-.137-1.908.43-3.341 1.554-3.923.88-.455 2.18-.499 2.928-.099.672.36 1.283 1.793 1.283 3.013v.935h-2.4c-2.365 0-2.396.008-2.217.595.324 1.063.935 1.521 2.03 1.521.569 0 1.264-.123 1.546-.274.427-.228.512-.186.512.256 0 .707-.766 1.077-2.228 1.077-.95 0-1.382-.16-2.048-.755zm3.622-4.206c-.27-1.072-.635-1.39-1.595-1.39-.931 0-1.274.282-1.698 1.397l-.274.72h3.749zm19.615 4.783c-.097-.097-.176-.368-.176-.602 0-.342.297-.424 1.521-.419 1.443.006 1.522-.027 1.522-.645 0-.516-.305-.822-1.455-1.463-1.36-.758-1.46-.883-1.535-1.898-.068-.92.031-1.174.646-1.658 1.008-.793 3.097-.696 3.218.15.074.518-.014.554-1.069.435-.847-.096-1.24-.019-1.499.292-.527.635-.208 1.091 1.345 1.923 1.317.706 1.412.825 1.487 1.849.107 1.458-.775 2.213-2.585 2.213-.684 0-1.322-.08-1.42-.177zm5.711.001c-.182-.073-.33-.343-.33-.6 0-.399.24-.463 1.653-.44 1.594.024 1.654.001 1.654-.637 0-.528-.284-.813-1.406-1.414-2.062-1.105-2.374-2.68-.744-3.748.956-.626 2.917-.445 3.02.28.07.487-.06.54-1.322.529-1.317-.012-1.405.029-1.48.68-.07.597.093.772 1.19 1.278 1.541.71 1.932 1.175 1.932 2.294 0 1.213-1.011 1.96-2.615 1.932-.672-.011-1.37-.08-1.552-.154zm6.882-.23c-.78-.545-1.124-1.94-1.126-4.556-.001-2.152.008-2.182.66-2.182.66 0 .662.007.662 2.53 0 3.013.217 3.555 1.423 3.555 1.459 0 1.752-.59 1.752-3.526 0-2.553.002-2.56.661-2.56h.662v6.88h-.662c-.364 0-.661-.126-.661-.28 0-.156-.259-.098-.588.133-.75.524-2.039.528-2.783.007zm7.705-.1c-1.336-.814-1.822-3.056-1.06-4.883.865-2.068 3.232-2.698 4.684-1.247.651.652.773.985.773 2.117v1.343h-2.249c-2.073 0-2.249.042-2.249.53 0 .89.938 1.587 2.134 1.587.592 0 1.306-.123 1.588-.274.429-.23.511-.185.511.271 0 1.083-2.678 1.443-4.132.556zm3.339-4.198c0-1.577-1.906-2.203-2.892-.95-.935 1.19-.745 1.42 1.172 1.42 1.471 0 1.72-.068 1.72-.47zm-57.415-.324v-4.762l.728.006c.647.005.996.431 3.175 3.891l2.447 3.886V11.774h1.323V21.299h-.77c-.702 0-.987-.34-3.241-3.861l-2.471-3.86-.074 3.86c-.069 3.642-.102 3.861-.595 3.861-.5 0-.522-.198-.522-4.763zm17.21 1.654c-.49-1.71-.943-3.258-1.008-3.44-.074-.205.12-.33.516-.33.58 0 .689.215 1.274 2.513.351 1.383.708 2.514.791 2.514.084 0 .494-1.137.912-2.527.667-2.222.826-2.517 1.314-2.447.46.066.666.497 1.207 2.526.358 1.347.72 2.448.802 2.448.082 0 .434-1.131.78-2.514.567-2.255.694-2.513 1.235-2.513h.603l-.416 1.389c-.229.764-.673 2.282-.987 3.373-.5 1.742-.652 1.994-1.236 2.063-.631.075-.699-.048-1.283-2.315-.34-1.316-.7-2.394-.8-2.394-.1 0-.503 1.072-.895 2.382-.627 2.095-.785 2.381-1.317 2.381-.544 0-.692-.307-1.493-3.109zm13.482-.33c0-3.264.027-3.44.529-3.44s.529.176.529 3.44c0 3.263-.027 3.439-.53 3.439-.501 0-.528-.176-.528-3.44zm-.164-5.412c-.206-.535.1-.939.708-.939.372 0 .514.183.514.662 0 .488-.14.661-.537.661-.296 0-.604-.173-.685-.384z"/>
      <path fill="#248636" d="M4.57 31.004C2.525 30.229.832 28.448.249 26.458c-.22-.752-.287-4.043-.23-11.377.075-9.34.128-10.41.563-11.284.615-1.235 2.08-2.702 3.316-3.316C4.818.023 6.741 0 44.816 0 82.89 0 84.813.023 85.734.48c1.235.615 2.701 2.082 3.316 3.317.44.886.48 1.862.48 11.813 0 9.952-.04 10.928-.48 11.814-.615 1.235-2.081 2.701-3.316 3.316-.92.458-2.888.483-40.654.528-29.931.036-39.89-.03-40.51-.264zm25.579-9.714c.281-.151.512-.512.512-.803 0-.442-.085-.484-.512-.256-.282.151-.977.274-1.547.274-1.094 0-1.705-.458-2.029-1.521-.179-.587-.148-.595 2.218-.595h2.399v-.935c0-1.22-.61-2.653-1.283-3.013-.748-.4-2.048-.356-2.928.1-1.124.58-1.691 2.014-1.553 3.922.1 1.384.225 1.69.96 2.346.665.595 1.097.755 2.047.755.662 0 1.434-.124 1.716-.274zm-3.435-4.679c.424-1.115.767-1.397 1.698-1.397.96 0 1.326.318 1.595 1.39l.182.726H26.44zm26.282 4.393c.6-.471.698-.73.631-1.653-.075-1.024-.17-1.143-1.487-1.85-1.553-.83-1.872-1.287-1.345-1.922.258-.31.652-.388 1.5-.292 1.054.119 1.142.083 1.068-.435-.12-.846-2.21-.943-3.218-.15-.615.484-.714.738-.646 1.658.074 1.015.175 1.14 1.535 1.898 1.15.641 1.455.947 1.455 1.463 0 .618-.08.652-1.522.645-1.224-.005-1.52.077-1.52.42 0 .655.251.778 1.595.778.865 0 1.46-.17 1.954-.56zm5.807.011c.497-.39.697-.795.697-1.404 0-1.12-.39-1.584-1.932-2.295-1.097-.506-1.26-.681-1.19-1.278.075-.65.163-.691 1.48-.68 1.263.01 1.393-.042 1.323-.53-.104-.724-2.065-.905-3.021-.278-1.63 1.068-1.318 2.642.744 3.747 1.122.601 1.406.886 1.406 1.414 0 .638-.06.661-1.654.636-1.413-.022-1.654.043-1.654.441 0 .587.352.728 1.883.755.858.014 1.428-.142 1.918-.528zm6.195.137c.33-.231.588-.29.588-.133 0 .154.297.28.661.28h.662v-6.88h-.662c-.66 0-.661.007-.661 2.56 0 2.937-.293 3.526-1.752 3.526-1.206 0-1.423-.542-1.423-3.554 0-2.524-.002-2.531-.662-2.531-.652 0-.661.03-.66 2.183.002 2.616.347 4.01 1.126 4.556.744.52 2.033.517 2.783-.007zm8.376.153c.425-.161.678-.461.678-.803 0-.456-.082-.5-.511-.27-.282.15-.996.273-1.588.273-1.196 0-2.134-.697-2.134-1.587 0-.488.176-.53 2.249-.53h2.249v-1.343c0-1.132-.122-1.465-.773-2.116-1.953-1.953-5.048-.104-5.048 3.015 0 2.793 2.266 4.354 4.878 3.361zm-3.555-4.336c0-.736 1.078-1.755 1.856-1.755.81 0 1.584.804 1.584 1.646 0 .402-.249.47-1.72.47-1.277 0-1.72-.093-1.72-.361zm-52.858.469l.074-3.86 2.471 3.86c2.254 3.52 2.54 3.86 3.241 3.86h.77v-9.524h-1.323V19.557l-2.447-3.886c-2.18-3.46-2.528-3.886-3.175-3.891l-.728-.006v4.762c0 4.565.022 4.763.522 4.763.493 0 .526-.219.595-3.861zm18.902 1.48c.392-1.31.795-2.382.895-2.382.1 0 .46 1.078.8 2.394.584 2.267.652 2.39 1.283 2.315.584-.069.736-.321 1.236-2.063.314-1.091.758-2.61.987-3.373l.416-1.39h-.603c-.541 0-.668.259-1.234 2.514-.347 1.383-.699 2.514-.781 2.514-.083 0-.444-1.101-.802-2.448-.541-2.029-.747-2.46-1.207-2.526-.488-.07-.647.225-1.314 2.447-.418 1.39-.828 2.527-.912 2.527-.083 0-.44-1.131-.791-2.514-.585-2.298-.694-2.513-1.274-2.513-.395 0-.59.125-.516.33.065.182.518 1.73 1.007 3.44.801 2.802.949 3.109 1.493 3.109.532 0 .69-.286 1.317-2.381zm11.731-1.059c0-3.263-.027-3.44-.53-3.44-.501 0-.528.177-.528 3.44 0 3.264.027 3.44.529 3.44s.529-.176.529-3.44zm0-5.688c0-.479-.142-.662-.514-.662-.282 0-.59.125-.684.278-.284.458.087 1.045.66 1.045.397 0 .538-.173.538-.661z"/>
</svg>