<svg xmlns:xlink="http://www.w3.org/1999/xlink" width="49.199" height="40.054">
   <defs id="defs29">
      <linearGradient id="linear-gradient" x1="34.057" x2="34.057" y1="1.848" y2="21.494" gradientUnits="userSpaceOnUse">
         <stop id="stop10" offset="0" stop-color="#432fff"/>
         <stop id="stop12" offset="1" stop-color="#4925e1"/>
      </linearGradient>
      <linearGradient id="linear-gradient-2" x1="33.625" x2="38.827" y1="20.336" y2="33.96" gradientUnits="userSpaceOnUse">
         <stop id="stop15" offset="0" stop-color="#ffa9be"/>
         <stop id="stop17" offset="1" stop-color="#9050ff"/>
      </linearGradient>
      <linearGradient id="New_Gradient_Swatch_8" x1="35.22" x2="35.22" y1="26.948" y2="43.196" gradientUnits="userSpaceOnUse">
         <stop id="stop20" offset="0" stop-color="#5019be"/>
         <stop id="stop22" offset="1" stop-color="#5b078a"/>
      </linearGradient>
      <linearGradient id="New_Gradient_Swatch_7" x1="31.834" x2="38.791" y1="41.728" y2="57.112" xlink:href="#linear-gradient-2"/>
      <linearGradient id="linearGradient969" x1="33.625" x2="38.827" y1="20.336" y2="33.96" gradientUnits="userSpaceOnUse" xlink:href="#linear-gradient-2"/>
      <clipPath id="clip-path">
         <path id="path4" fill="none" d="M32.027 52.51a6.467 6.467 0 0 1 .545 3.082 8.518 8.518 0 0 1-2.122.24 14.078 14.078 0 0 1-5.902-.21c-3.882-.823-5.677-4.966-5.677-4.966s.038-.037.112-.1a.883.883 0 0 0-.37-.033 24.798 24.798 0 0 1-5.723.433c-1.91 0-9.465-2.869-11.9-5.945 0 0 3.78-.923 3.78-1.703S.452 41.086.452 41.086s-.654-3.599 3.974-7.192a28.282 28.282 0 0 1 8.05-4.742c-2.404-.321-9.2-3.026-11.486-5.913 0 0 3.78-.923 3.78-1.703S.452 19.314.452 19.314s-.654-3.6 3.974-7.193c4.628-3.594 8.092-5.3 11.984-5.5 3.892-.198 5.197-.2 5.197-.2s3.388-4.573 5.168-4.573c.89 0 13.927 2.77 15.056 4.574a4.676 4.676 0 0 0 2.256 2.105c.577.433.214.087 2.829.671 6.541 1.462 5.65 2.036 10.51 2.923 1.966.36 10.98-4.07 11.831-3.64.396.2.707 4.01-.84 6.509-1.549 2.498 1.241 4.561-.012 7.69-1.252 3.128 1.435 5.445.852 6.504-.583 1.06-10.155-3.465-11.832-3.138-1.5.293-5.762 2.296-14.086 3.829a8.158 8.158 0 0 1 .748.425c.577.432.213.087 2.829.671 6.541 1.462 5.649 2.035 10.51 2.923 1.966.36 10.98-4.07 11.831-3.64.396.2.707 4.01-.841 6.508-1.548 2.499 1.242 4.562-.01 7.69-1.254 3.129 1.434 5.446.85 6.505-.582 1.06-10.154-3.466-11.83-3.138-1.677.327-6.8 2.79-17.185 4.345a42.08 42.08 0 0 1-8.214.347z" clip-rule="evenodd"/>
      </clipPath>
      <clipPath id="clip-path-2">
         <path id="rect7" fill="none" d="M.28.152h69.541V57.82H.28z"/>
      </clipPath>
      <symbol id="New_Symbol" data-name="New Symbol" viewBox="0 0 1.061 1.061">
         <circle id="circle26" cx=".531" cy=".531" r=".531" fill="#fff"/>
      </symbol>
   </defs>
   <g id="g61" clip-path="url(#clip-path)" transform="matrix(.71138 0 0 .739 -.3 -1.366)">
      <g id="g59" clip-path="url(#clip-path-2)">
         <g id="g57" style="isolation:isolate">
            <path id="rect33" fill="url(#linear-gradient)" d="M-1.402 1.848h70.918v19.767H-1.402z"/>
            <path id="polyline35" fill="url(#linearGradient969)" d="M61.469 31.006l8.111-1.112.183-2.604v-5.772l-.632-2.031H42.683v2.031H.449v5.772l5.704 1.88 21.604 1.836h4.707"/>
            <path id="polygon37" fill="url(#New_Gradient_Swatch_8)" fill-rule="evenodd" d="M69.99 41.367H33.354v2.036H.449V29.892l10.262-.737 17.046.132V27.29H52.35v2.649l17.64-.047z"/>
            <path id="path39" fill="#4926e2" d="M27.245 11.988a835.386 835.386 0 0 1 4.573.248c.998.057 1.834.11 2.476.154a81.997 81.997 0 0 1 8.987 1.296 60.67 60.67 0 0 1 13.576 4.665l1.946.866a.715.715 0 0 0 .958-.463.862.862 0 0 0-.413-1.073l-1.948-.867a61.882 61.882 0 0 0-13.86-4.755 83.196 83.196 0 0 0-9.154-1.319 223.98 223.98 0 0 0-2.492-.155l-1.108-.063a840.811 840.811 0 0 0-4.618-.244l-.32-.016-.114-.005a.823.823 0 0 0-.687 1.207l.061.137a22.695 22.695 0 0 1 .7 1.812 16.398 16.398 0 0 1 .605 2.263c.049.266.085.52.11.763a12.637 12.637 0 0 1-.432 3.45 42.137 42.137 0 0 1-.423 1.702 58.225 58.225 0 0 1-.811 2.741l-.056.171-.02.057a.859.859 0 0 0 .432 1.064.717.717 0 0 0 .95-.483l.022-.065.059-.18a60.455 60.455 0 0 0 .838-2.829 44.13 44.13 0 0 0 .44-1.775 13.834 13.834 0 0 0 .468-4.039q-.045-.44-.13-.908a18.153 18.153 0 0 0-.67-2.517 25.45 25.45 0 0 0-.309-.859z"/>
            <path id="path41" fill="#fda8bf" d="M27.254 21.497q.146-.58.268-1.13a14.185 14.185 0 0 0 .468-4.091q-.045-.446-.13-.92a18.577 18.577 0 0 0-.67-2.55c-.1-.298-.204-.59-.309-.87l.364.02a826.102 826.102 0 0 1 4.574.25c.997.059 1.833.112 2.476.157a81.018 81.018 0 0 1 8.987 1.312A60.142 60.142 0 0 1 56.857 18.4l1.946.877a.713.713 0 0 0 .958-.469.878.878 0 0 0-.413-1.087l-1.948-.878a61.344 61.344 0 0 0-13.86-4.817 82.203 82.203 0 0 0-9.154-1.335c-.649-.045-1.49-.098-2.492-.157l-1.109-.064a831.486 831.486 0 0 0-4.617-.247l-.32-.016-.114-.006a.834.834 0 0 0-.687 1.223l.061.139a23.25 23.25 0 0 1 .7 1.835 16.78 16.78 0 0 1 .605 2.293c.048.269.085.527.11.772a12.957 12.957 0 0 1-.432 3.495c-.11.492-.235 1.007-.374 1.539z"/>
            <path id="path43" fill="#4926e2" d="M21.226 12.26c.011.019.036.06.07.121a17.257 17.257 0 0 1 .815 1.632 11.7 11.7 0 0 1 .74 2.232 5.612 5.612 0 0 1 .128 1.129 9.721 9.721 0 0 1-.584 3.093 13.293 13.293 0 0 1-.54 1.327 3.256 3.256 0 0 1-.044.09.778.778 0 0 0 .258 1.009.649.649 0 0 0 .924-.282c.046-.089.122-.245.216-.46.156-.352.311-.743.456-1.164a11.25 11.25 0 0 0 .67-3.614 7.194 7.194 0 0 0-.162-1.457 13.212 13.212 0 0 0-.836-2.537 18.817 18.817 0 0 0-.98-1.937.644.644 0 0 0-.94-.21.784.784 0 0 0-.191 1.028z"/>
            <path id="path45" fill="#fda8bf" d="M23.513 21.497q.077-.208.152-.427a11.55 11.55 0 0 0 .67-3.664 7.393 7.393 0 0 0-.162-1.477 13.53 13.53 0 0 0-.835-2.574 19.118 19.118 0 0 0-.98-1.963.64.64 0 0 0-.94-.212.802.802 0 0 0-.192 1.04l.07.124a17.627 17.627 0 0 1 .815 1.655 11.98 11.98 0 0 1 .74 2.262 5.767 5.767 0 0 1 .128 1.145 9.98 9.98 0 0 1-.584 3.136c-.116.343-.24.663-.364.955z"/>
            <path id="polygon47" fill="url(#New_Gradient_Swatch_7)" d="M33.304 43.403l-.002-2.07h36.299v14.791H.399V43.403z"/>
            <path id="path49" fill="#5c008a" d="M27.245 34.015a818.397 818.397 0 0 1 4.573.248c.998.058 1.834.11 2.476.154a82 82 0 0 1 8.987 1.296 60.67 60.67 0 0 1 13.576 4.665l1.946.867a.715.715 0 0 0 .958-.463.862.862 0 0 0-.413-1.073l-1.948-.867a61.88 61.88 0 0 0-13.86-4.756 83.192 83.192 0 0 0-9.154-1.318 223.98 223.98 0 0 0-2.492-.155l-1.108-.063a858.696 858.696 0 0 0-4.618-.244l-.32-.016-.114-.005a.823.823 0 0 0-.687 1.207l.061.137a22.695 22.695 0 0 1 .7 1.812 16.398 16.398 0 0 1 .605 2.263c.048.266.085.52.11.763a12.637 12.637 0 0 1-.432 3.45 42.178 42.178 0 0 1-.423 1.702 58.225 58.225 0 0 1-.811 2.741l-.056.17-.02.058a.859.859 0 0 0 .432 1.064.717.717 0 0 0 .95-.483l.022-.065.059-.18a60.455 60.455 0 0 0 .838-2.829 44.13 44.13 0 0 0 .44-1.775 13.834 13.834 0 0 0 .468-4.039q-.045-.44-.13-.908a18.154 18.154 0 0 0-.67-2.517 25.45 25.45 0 0 0-.309-.859z"/>
            <path id="path51" fill="#ee9bc7" d="M27.254 43.403q.146-.572.268-1.117a13.834 13.834 0 0 0 .468-4.038q-.045-.44-.13-.909a18.154 18.154 0 0 0-.67-2.516 25.45 25.45 0 0 0-.309-.86l.364.02a818.397 818.397 0 0 1 4.574.247c.997.058 1.833.11 2.476.154a82 82 0 0 1 8.987 1.296 60.67 60.67 0 0 1 13.575 4.665l1.946.867a.715.715 0 0 0 .958-.463.862.862 0 0 0-.413-1.073c-.033-.015-1.515-.676-1.948-.867a61.88 61.88 0 0 0-13.86-4.756 83.192 83.192 0 0 0-9.155-1.318 223.98 223.98 0 0 0-2.49-.156l-1.11-.062a858.696 858.696 0 0 0-4.617-.244l-.321-.016-.114-.006a.823.823 0 0 0-.687 1.208l.062.137a22.695 22.695 0 0 1 .7 1.812 16.398 16.398 0 0 1 .604 2.263c.05.265.086.52.11.763a12.637 12.637 0 0 1-.432 3.45c-.109.485-.234.994-.373 1.52z"/>
            <path id="path53" fill="#5c008a" d="M21.226 34.287c.011.02.036.06.07.122a17.257 17.257 0 0 1 .815 1.632 11.7 11.7 0 0 1 .74 2.23 5.612 5.612 0 0 1 .128 1.13 9.721 9.721 0 0 1-.584 3.093 13.293 13.293 0 0 1-.54 1.327 3.256 3.256 0 0 1-.044.09.778.778 0 0 0 .258 1.01.649.649 0 0 0 .924-.282c.046-.09.122-.246.216-.46.156-.352.311-.744.456-1.165a11.25 11.25 0 0 0 .67-3.614 7.195 7.195 0 0 0-.162-1.456 13.213 13.213 0 0 0-.836-2.538 18.817 18.817 0 0 0-.98-1.937.644.644 0 0 0-.94-.21.784.784 0 0 0-.191 1.028z"/>
            <path id="path55" fill="#ee9bc7" d="M23.513 43.403q.077-.205.152-.422a11.25 11.25 0 0 0 .67-3.613 7.195 7.195 0 0 0-.162-1.457 13.213 13.213 0 0 0-.835-2.538 18.817 18.817 0 0 0-.98-1.936.644.644 0 0 0-.94-.21.784.784 0 0 0-.192 1.027c.011.02.036.06.07.122a17.257 17.257 0 0 1 .815 1.632 11.7 11.7 0 0 1 .74 2.23 5.612 5.612 0 0 1 .128 1.13 9.721 9.721 0 0 1-.584 3.093c-.116.338-.24.654-.364.942z"/>
         </g>
      </g>
   </g>
   <ellipse id="circle65" cx="8.398" cy="10.458" stroke-width=".725" rx="2.134" ry="2.217"/>
   <path id="path67" fill="#fff" fill-rule="evenodd" stroke-width=".725" d="M6.264 10.282v-.028a2.3 2.39 0 1 1 2.3 2.46 2.124 2.206 0 0 1-2.267-2.044 1.678 1.743 0 0 0 1.74 1.532 1.826 1.897 0 1 0-1.773-1.92z"/>
   <ellipse id="circle69" cx="7.184" cy="10.966" fill="#fff" stroke-width=".725" rx=".586" ry=".609"/>
   <ellipse id="circle71" cx="8.398" cy="26.666" stroke-width=".725" rx="2.134" ry="2.217"/>
   <path id="path73" fill="#fff" fill-rule="evenodd" stroke-width=".725" d="M6.264 26.489v-.027a2.3 2.39 0 1 1 2.3 2.46 2.124 2.206 0 0 1-2.267-2.045 1.678 1.743 0 0 0 1.74 1.532 1.826 1.897 0 1 0-1.773-1.92z"/>
   <ellipse id="circle75" cx="7.184" cy="27.174" fill="#fff" stroke-width=".725" rx=".586" ry=".609"/>
</svg>