<?xml version="1.0" encoding="UTF-8" standalone="no"?>
<svg
   xmlns:dc="http://purl.org/dc/elements/1.1/"
   xmlns:cc="http://creativecommons.org/ns#"
   xmlns:rdf="http://www.w3.org/1999/02/22-rdf-syntax-ns#"
   xmlns:svg="http://www.w3.org/2000/svg"
   xmlns="http://www.w3.org/2000/svg"
   xmlns:xlink="http://www.w3.org/1999/xlink"
   xmlns:sodipodi="http://sodipodi.sourceforge.net/DTD/sodipodi-0.dtd"
   xmlns:inkscape="http://www.inkscape.org/namespaces/inkscape"
   id="Layer_1"
   data-name="Layer 1"
   viewBox="0 0 49.198615 40.054348"
   version="1.1"
   sodipodi:docname="glitch.svg"
   width="49.198616"
   height="40.054348"
   inkscape:version="0.92.4 (5da689c313, 2019-01-14)">
  <metadata
     id="metadata162">
    <rdf:RDF>
      <cc:Work
         rdf:about="">
        <dc:format>image/svg+xml</dc:format>
        <dc:type
           rdf:resource="http://purl.org/dc/dcmitype/StillImage" />
        <dc:title>logo-night</dc:title>
      </cc:Work>
    </rdf:RDF>
  </metadata>
  <sodipodi:namedview
     pagecolor="#ffffff"
     bordercolor="#666666"
     borderopacity="1"
     objecttolerance="10"
     gridtolerance="10"
     guidetolerance="10"
     inkscape:pageopacity="0"
     inkscape:pageshadow="2"
     inkscape:window-width="640"
     inkscape:window-height="480"
     id="namedview160"
     showgrid="false"
     fit-margin-top="0"
     fit-margin-left="0"
     fit-margin-right="0"
     fit-margin-bottom="0"
     inkscape:current-layer="Layer_1" />
  <defs
     id="defs29">
    <style
       id="style2">.cls-1,.cls-2{fill:none;}.cls-1{clip-rule:evenodd;}.cls-15,.cls-3{fill:#fff;}.cls-4{clip-path:url(#clip-path);}.cls-5{clip-path:url(#clip-path-2);}.cls-6{isolation:isolate;}.cls-7{fill:url(#linear-gradient);}.cls-8{fill:url(#linear-gradient-2);}.cls-15,.cls-9{fill-rule:evenodd;}.cls-9{fill:url(#New_Gradient_Swatch_8);}.cls-10{fill:#4926e2;}.cls-11{fill:#fda8bf;}.cls-12{fill:url(#New_Gradient_Swatch_7);}.cls-13{fill:#5c008a;}.cls-14{fill:#ee9bc7;}</style>
    <clipPath
       id="clip-path">
      <path
         class="cls-1"
         d="m 32.0274,52.5108 a 6.4666,6.4666 0 0 1 0.5447,3.0807 8.5179,8.5179 0 0 1 -2.1225,0.24 14.0779,14.0779 0 0 1 -5.9019,-0.2094 C 20.666,54.7989 18.8712,50.656 18.8712,50.656 c 0,0 0.0375,-0.0374 0.1117,-0.1007 a 0.883,0.883 0 0 0 -0.37,-0.0324 24.798,24.798 0 0 1 -5.7231,0.4333 c -1.909,0 -9.4651,-2.8688 -11.9,-5.9447 0,0 3.78,-0.9233 3.78,-1.7035 0,-0.7802 -4.3176,-2.2218 -4.3176,-2.2218 0,0 -0.6541,-3.5988 3.974,-7.1926 a 28.282,28.282 0 0 1 8.05,-4.7416 C 10.0719,28.8307 3.2751,26.1261 0.99,23.2391 c 0,0 3.78,-0.9233 3.78,-1.7035 0,-0.7802 -4.3178,-2.2219 -4.3178,-2.2219 0,0 -0.6541,-3.5988 3.974,-7.1926 4.6281,-3.5938 8.0915,-5.3 11.9836,-5.4992 3.8921,-0.1992 5.197,-0.2 5.197,-0.2 0,0 3.3882,-4.5741 5.1682,-4.5741 0.89,0 13.927,2.7708 15.0562,4.5746 a 4.6755,4.6755 0 0 0 2.2559,2.1049 c 0.5771,0.4323 0.2135,0.0866 2.8288,0.6709 6.5416,1.4615 5.6492,2.0353 10.5095,2.9229 1.9671,0.3593 10.9814,-4.0706 11.8317,-3.64 0.3959,0.2 0.7067,4.01 -0.841,6.5085 -1.5477,2.4985 1.2424,4.5617 -0.0106,7.69 -1.253,3.1283 1.4349,5.4457 0.8515,6.5047 -0.5834,1.059 -10.1552,-3.4657 -11.8317,-3.1386 -1.5005,0.2928 -5.7627,2.2963 -14.0861,3.8288 a 8.1581,8.1581 0 0 1 0.7478,0.4257 c 0.5771,0.4323 0.2135,0.0866 2.8288,0.6709 6.5416,1.4615 5.6492,2.0353 10.5095,2.9229 1.9671,0.3592 10.9814,-4.0707 11.8317,-3.64 0.3959,0.2 0.7067,4.01 -0.841,6.5085 -1.5477,2.4985 1.2424,4.5617 -0.0106,7.69 -1.253,3.1283 1.4349,5.4457 0.8515,6.5047 -0.5834,1.059 -10.1552,-3.4658 -11.8317,-3.1386 -1.6765,0.3272 -6.8,2.79 -17.1841,4.3451 a 42.08,42.08 0 0 1 -8.2137,0.3471 z"
         id="path4"
         inkscape:connector-curvature="0"
         style="clip-rule:evenodd;fill:none" />
    </clipPath>
    <clipPath
       id="clip-path-2">
      <rect
         class="cls-2"
         x="0.27959999"
         y="0.1516"
         width="69.540901"
         height="57.667999"
         id="rect7"
         style="fill:none" />
    </clipPath>
    <linearGradient
       id="linear-gradient"
       x1="34.057098"
       y1="1.8478"
       x2="34.057098"
       y2="21.493999"
       gradientUnits="userSpaceOnUse">
      <stop
         offset="0"
         stop-color="#432fff"
         id="stop10" />
      <stop
         offset="1"
         stop-color="#4925e1"
         id="stop12" />
    </linearGradient>
    <linearGradient
       id="linear-gradient-2"
       x1="33.625"
       y1="20.3363"
       x2="38.826599"
       y2="33.9603"
       gradientUnits="userSpaceOnUse">
      <stop
         offset="0"
         stop-color="#ffa9be"
         id="stop15" />
      <stop
         offset="1"
         stop-color="#9050ff"
         id="stop17" />
    </linearGradient>
    <linearGradient
       id="New_Gradient_Swatch_8"
       x1="35.219601"
       y1="26.9485"
       x2="35.219601"
       y2="43.195801"
       gradientUnits="userSpaceOnUse">
      <stop
         offset="0"
         stop-color="#5019be"
         id="stop20" />
      <stop
         offset="1"
         stop-color="#5b078a"
         id="stop22" />
    </linearGradient>
    <linearGradient
       id="New_Gradient_Swatch_7"
       x1="31.834499"
       y1="41.728199"
       x2="38.791302"
       y2="57.112099"
       xlink:href="#linear-gradient-2" />
    <symbol
       id="New_Symbol"
       data-name="New Symbol"
       viewBox="0 0 1.061 1.061">
      <circle
         class="cls-3"
         cx="0.53060001"
         cy="0.53060001"
         r="0.53060001"
         id="circle26"
         style="fill:#ffffff" />
    </symbol>
    <linearGradient
       inkscape:collect="always"
       xlink:href="#linear-gradient-2"
       id="linearGradient969"
       gradientUnits="userSpaceOnUse"
       x1="33.625"
       y1="20.3363"
       x2="38.826599"
       y2="33.9603" />
  </defs>
  <title
     id="title31">logo-night</title>
  <g
     class="cls-4"
     clip-path="url(#clip-path)"
     id="g61"
     transform="matrix(0.71138209,0,0,0.73899906,-0.29908931,-1.3655225)">
    <g
       class="cls-5"
       clip-path="url(#clip-path-2)"
       id="g59">
      <g
         class="cls-6"
         id="g57"
         style="isolation:isolate">
        <rect
           class="cls-7"
           x="-1.4017"
           y="1.8478"
           width="70.917603"
           height="19.7668"
           id="rect33"
           style="fill:url(#linear-gradient)" />
        <polyline
           class="cls-8"
           points="61.469 31.006 69.58 29.894 69.763 27.29 69.763 21.518 69.131 19.487 42.683 19.487 42.683 21.518 0.449 21.518 0.449 27.29 6.153 29.17 27.757 31.006 32.464 31.006"
           id="polyline35"
           style="fill:url(#linearGradient969)" />
        <polygon
           class="cls-9"
           points="69.99,41.367 33.354,41.367 33.354,43.403 0.449,43.403 0.449,29.892 10.711,29.155 27.757,29.287 27.757,27.29 52.35,27.29 52.35,29.939 69.99,29.892 "
           id="polygon37"
           style="fill:url(#New_Gradient_Swatch_8);fill-rule:evenodd" />
        <path
           class="cls-10"
           d="m 27.2448,11.9879 c 1.1822,0.0608 2.3644,0.1237 3.4676,0.1851 0.3851,0.0214 0.7544,0.0424 1.106,0.0627 0.9971,0.0577 1.8337,0.11 2.476,0.1542 a 81.9972,81.9972 0 0 1 8.987,1.2958 60.6692,60.6692 0 0 1 13.5756,4.6652 c 0.4311,0.1911 1.9116,0.8509 1.946,0.8662 a 0.7147,0.7147 0 0 0 0.9583,-0.463 0.8618,0.8618 0 0 0 -0.4134,-1.0731 c -0.0333,-0.0148 -1.515,-0.6751 -1.9476,-0.8669 A 61.8819,61.8819 0 0 0 43.5403,12.0585 83.1962,83.1962 0 0 0 34.3857,10.74 c -0.6483,-0.0451 -1.49,-0.0973 -2.4912,-0.1552 -0.3526,-0.02 -0.7229,-0.0414 -1.1089,-0.0629 -1.1052,-0.0615 -2.2892,-0.1245 -3.4731,-0.1854 -0.4143,-0.0213 -0.7991,-0.0409 -1.1444,-0.0582 l -0.3207,-0.016 -0.1137,-0.0056 a 0.8231,0.8231 0 0 0 -0.687,1.2074 c 0.01,0.0217 0.0311,0.068 0.0615,0.1368 0.0518,0.1173 0.11,0.2529 0.1725,0.4047 0.18,0.4353 0.36,0.91 0.5278,1.4072 a 16.3976,16.3976 0 0 1 0.6044,2.2633 c 0.0486,0.2656 0.0854,0.52 0.11,0.7628 a 12.6368,12.6368 0 0 1 -0.4321,3.45 c -0.1217,0.5419 -0.2639,1.1126 -0.4225,1.7022 -0.1942,0.7221 -0.4025,1.4352 -0.6108,2.107 -0.0728,0.2349 -0.14,0.4477 -0.2009,0.6344 -0.0211,0.065 -0.04,0.122 -0.0558,0.1705 l -0.0189,0.0568 a 0.8587,0.8587 0 0 0 0.4311,1.0644 0.7174,0.7174 0 0 0 0.9505,-0.4827 l 0.0216,-0.0652 c 0.017,-0.0515 0.0367,-0.1116 0.0588,-0.18 0.0628,-0.1938 0.1327,-0.4139 0.2079,-0.6563 0.2146,-0.6922 0.4292,-1.4267 0.63,-2.1726 0.1647,-0.6127 0.3129,-1.2074 0.4405,-1.7755 a 13.8342,13.8342 0 0 0 0.4673,-4.0385 q -0.0444,-0.44 -0.13,-0.9085 a 18.153,18.153 0 0 0 -0.67,-2.5165 c -0.1,-0.295 -0.2031,-0.5823 -0.3082,-0.8592 z"
           id="path39"
           inkscape:connector-curvature="0"
           style="fill:#4926e2" />
        <path
           class="cls-11"
           d="m 27.2542,21.4969 q 0.1455,-0.5795 0.268,-1.1307 a 14.1851,14.1851 0 0 0 0.4673,-4.0906 q -0.0444,-0.4456 -0.13,-0.92 a 18.5771,18.5771 0 0 0 -0.67,-2.5489 c -0.1,-0.2988 -0.2031,-0.59 -0.3082,-0.87 l 0.3638,0.0189 c 1.1822,0.0616 2.3644,0.1253 3.4676,0.1875 0.3851,0.0217 0.7544,0.0429 1.106,0.0635 0.9971,0.0584 1.8337,0.111 2.476,0.1562 a 81.0184,81.0184 0 0 1 8.987,1.3125 A 60.1425,60.1425 0 0 1 56.857,18.4 c 0.4311,0.1936 1.9116,0.8618 1.946,0.8773 a 0.7125,0.7125 0 0 0 0.9583,-0.4689 0.8776,0.8776 0 0 0 -0.4134,-1.087 c -0.0333,-0.015 -1.515,-0.6838 -1.9476,-0.878 a 61.3442,61.3442 0 0 0 -13.86,-4.8169 82.2031,82.2031 0 0 0 -9.1547,-1.3353 c -0.6483,-0.0456 -1.49,-0.0985 -2.4912,-0.1572 -0.3526,-0.0207 -0.7229,-0.0419 -1.1089,-0.0637 -1.1052,-0.0623 -2.2892,-0.1261 -3.4731,-0.1878 -0.4143,-0.0216 -0.7991,-0.0414 -1.1444,-0.059 l -0.3207,-0.0163 -0.1137,-0.0057 a 0.8339,0.8339 0 0 0 -0.687,1.223 c 0.01,0.022 0.0311,0.0689 0.0615,0.1385 0.0518,0.1188 0.11,0.2562 0.1725,0.41 0.18,0.441 0.36,0.922 0.5278,1.4254 a 16.78,16.78 0 0 1 0.6044,2.2925 c 0.0486,0.2691 0.0854,0.5271 0.11,0.7726 a 12.9566,12.9566 0 0 1 -0.4321,3.4941 c -0.1091,0.492 -0.2347,1.0074 -0.3737,1.5391 z"
           id="path41"
           inkscape:connector-curvature="0"
           style="fill:#fda8bf" />
        <path
           class="cls-10"
           d="m 21.2257,12.26 c 0.0115,0.019 0.0358,0.06 0.071,0.1215 0.06,0.105 0.1277,0.2266 0.2006,0.3629 0.2093,0.3911 0.4189,0.8193 0.614,1.2692 a 11.7007,11.7007 0 0 1 0.7388,2.231 5.6123,5.6123 0 0 1 0.1287,1.1291 9.7214,9.7214 0 0 1 -0.5842,3.0929 c -0.13,0.3774 -0.2686,0.7278 -0.4071,1.041 -0.048,0.1086 -0.0923,0.2044 -0.1317,0.2861 -0.0226,0.0469 -0.0378,0.0774 -0.0445,0.09 a 0.7785,0.7785 0 0 0 0.2578,1.0093 0.649,0.649 0 0 0 0.9242,-0.2816 c 0.046,-0.0891 0.1213,-0.2454 0.216,-0.46 0.1556,-0.352 0.3108,-0.7432 0.4556,-1.1648 a 11.25,11.25 0 0 0 0.6707,-3.6135 7.1943,7.1943 0 0 0 -0.1623,-1.4567 13.2124,13.2124 0 0 0 -0.8359,-2.5378 c -0.213,-0.491 -0.4407,-0.9563 -0.6687,-1.3824 -0.1379,-0.2577 -0.2465,-0.4472 -0.3115,-0.5544 a 0.6444,0.6444 0 0 0 -0.94,-0.2091 0.7837,0.7837 0 0 0 -0.1915,1.0273 z"
           id="path43"
           inkscape:connector-curvature="0"
           style="fill:#4926e2" />
        <path
           class="cls-11"
           d="m 23.5132,21.4969 q 0.0773,-0.2079 0.1518,-0.4273 a 11.5491,11.5491 0 0 0 0.6707,-3.6639 7.3925,7.3925 0 0 0 -0.1623,-1.4771 13.5291,13.5291 0 0 0 -0.8359,-2.5733 c -0.213,-0.4979 -0.4407,-0.97 -0.6687,-1.4017 -0.1379,-0.2613 -0.2465,-0.4534 -0.3115,-0.5621 a 0.64,0.64 0 0 0 -0.94,-0.212 0.802,0.802 0 0 0 -0.1914,1.0412 c 0.0115,0.0193 0.0358,0.0609 0.071,0.1232 0.06,0.1065 0.1277,0.23 0.2006,0.3679 0.2093,0.3966 0.4189,0.8308 0.614,1.2869 a 11.9808,11.9808 0 0 1 0.7388,2.2622 5.7668,5.7668 0 0 1 0.1287,1.1448 9.9793,9.9793 0 0 1 -0.5842,3.136 c -0.1162,0.3428 -0.24,0.6637 -0.3639,0.9552 z"
           id="path45"
           inkscape:connector-curvature="0"
           style="fill:#fda8bf" />
        <polygon
           class="cls-12"
           points="33.304,43.403 33.302,41.333 69.601,41.333 69.601,56.124 0.399,56.124 0.399,43.403 "
           id="polygon47"
           style="fill:url(#New_Gradient_Swatch_7)" />
        <path
           class="cls-13"
           d="m 27.2448,34.0154 c 1.1822,0.0608 2.3644,0.1236 3.4676,0.1851 0.3851,0.0214 0.7544,0.0424 1.106,0.0627 0.9971,0.0577 1.8337,0.11 2.476,0.1542 a 82.0009,82.0009 0 0 1 8.987,1.2958 60.67,60.67 0 0 1 13.5756,4.6653 c 0.4311,0.1911 1.9116,0.8509 1.946,0.8662 a 0.7147,0.7147 0 0 0 0.9583,-0.463 0.8618,0.8618 0 0 0 -0.4134,-1.0731 c -0.0333,-0.0148 -1.515,-0.6751 -1.9476,-0.8669 a 61.8808,61.8808 0 0 0 -13.86,-4.7556 83.1915,83.1915 0 0 0 -9.1547,-1.3183 c -0.6483,-0.0451 -1.49,-0.0973 -2.4912,-0.1552 -0.3526,-0.02 -0.7229,-0.0414 -1.1089,-0.0629 -1.1052,-0.0615 -2.2892,-0.1244 -3.4731,-0.1854 -0.4143,-0.0213 -0.7991,-0.0409 -1.1444,-0.0582 l -0.3207,-0.016 -0.1137,-0.0056 a 0.8231,0.8231 0 0 0 -0.687,1.2074 c 0.01,0.0217 0.0311,0.068 0.0615,0.1368 0.0518,0.1173 0.11,0.2529 0.1725,0.4047 0.18,0.4353 0.36,0.91 0.5278,1.4072 a 16.3975,16.3975 0 0 1 0.6044,2.2633 c 0.0486,0.2656 0.0854,0.52 0.11,0.7628 a 12.6368,12.6368 0 0 1 -0.4321,3.45 c -0.1217,0.5419 -0.2639,1.1125 -0.4225,1.7022 -0.1942,0.7221 -0.4025,1.4352 -0.6108,2.107 -0.0728,0.2349 -0.14,0.4477 -0.2009,0.6344 -0.0211,0.065 -0.04,0.122 -0.0558,0.1705 l -0.0189,0.0568 a 0.8587,0.8587 0 0 0 0.4311,1.0644 0.7174,0.7174 0 0 0 0.9505,-0.4827 l 0.0216,-0.0652 c 0.017,-0.0515 0.0367,-0.1116 0.0588,-0.18 0.0628,-0.1938 0.1327,-0.4139 0.2079,-0.6563 0.2146,-0.6922 0.4292,-1.4267 0.63,-2.1726 0.1647,-0.6127 0.3129,-1.2074 0.4405,-1.7755 a 13.8342,13.8342 0 0 0 0.4673,-4.0385 q -0.0444,-0.44 -0.13,-0.9085 a 18.1544,18.1544 0 0 0 -0.67,-2.5165 c -0.1,-0.295 -0.2031,-0.5823 -0.3082,-0.8592 z"
           id="path49"
           inkscape:connector-curvature="0"
           style="fill:#5c008a" />
        <path
           class="cls-14"
           d="m 27.2542,43.4027 q 0.1455,-0.5721 0.268,-1.1163 a 13.8342,13.8342 0 0 0 0.4673,-4.0385 q -0.0444,-0.44 -0.13,-0.9085 a 18.1544,18.1544 0 0 0 -0.67,-2.5165 c -0.1,-0.295 -0.2031,-0.5823 -0.3082,-0.8592 l 0.3638,0.0187 c 1.1822,0.0608 2.3644,0.1236 3.4676,0.1851 0.3851,0.0214 0.7544,0.0424 1.106,0.0627 0.9971,0.0577 1.8337,0.11 2.476,0.1542 a 82.0009,82.0009 0 0 1 8.987,1.2958 60.67,60.67 0 0 1 13.5753,4.6652 c 0.4311,0.1911 1.9116,0.8509 1.946,0.8662 a 0.7147,0.7147 0 0 0 0.9583,-0.463 0.8618,0.8618 0 0 0 -0.4134,-1.0731 c -0.0333,-0.0148 -1.515,-0.6751 -1.9476,-0.8669 A 61.8808,61.8808 0 0 0 43.54,34.053 83.1915,83.1915 0 0 0 34.3853,32.7347 c -0.6483,-0.0451 -1.49,-0.0973 -2.4912,-0.1552 -0.3526,-0.02 -0.7229,-0.0414 -1.1089,-0.0629 C 29.68,32.4551 28.496,32.3922 27.3121,32.3312 26.8978,32.3099 26.513,32.2903 26.1677,32.273 L 25.847,32.257 25.7333,32.2514 a 0.8231,0.8231 0 0 0 -0.687,1.2074 c 0.01,0.0217 0.0311,0.068 0.0615,0.1368 0.0518,0.1173 0.11,0.2529 0.1725,0.4047 0.18,0.4353 0.36,0.91 0.5278,1.4072 a 16.3975,16.3975 0 0 1 0.6044,2.2633 c 0.0486,0.2656 0.0854,0.52 0.11,0.7628 a 12.6368,12.6368 0 0 1 -0.4321,3.45 c -0.1091,0.4858 -0.2347,0.9946 -0.3737,1.5195 z"
           id="path51"
           inkscape:connector-curvature="0"
           style="fill:#ee9bc7" />
        <path
           class="cls-13"
           d="m 21.2257,34.2872 c 0.0115,0.019 0.0358,0.06 0.071,0.1215 0.06,0.105 0.1277,0.2266 0.2006,0.3629 0.2093,0.3911 0.4189,0.8193 0.614,1.2692 a 11.7,11.7 0 0 1 0.7388,2.231 5.6123,5.6123 0 0 1 0.1287,1.1291 9.7214,9.7214 0 0 1 -0.5842,3.0929 c -0.13,0.3774 -0.2686,0.7278 -0.4071,1.041 -0.048,0.1086 -0.0923,0.2044 -0.1317,0.2861 -0.0226,0.0469 -0.0378,0.0774 -0.0445,0.09 a 0.7785,0.7785 0 0 0 0.2578,1.0093 0.649,0.649 0 0 0 0.9242,-0.2816 c 0.046,-0.0891 0.1213,-0.2454 0.216,-0.46 0.1556,-0.352 0.3108,-0.7432 0.4556,-1.1648 a 11.25,11.25 0 0 0 0.6707,-3.6135 7.1946,7.1946 0 0 0 -0.1623,-1.4567 13.2133,13.2133 0 0 0 -0.8359,-2.5378 c -0.213,-0.491 -0.4407,-0.9563 -0.6687,-1.3824 -0.1379,-0.2577 -0.2465,-0.4472 -0.3115,-0.5544 a 0.6444,0.6444 0 0 0 -0.94,-0.2091 0.7837,0.7837 0 0 0 -0.1915,1.0273 z"
           id="path53"
           inkscape:connector-curvature="0"
           style="fill:#5c008a" />
        <path
           class="cls-14"
           d="m 23.5132,43.4027 q 0.0773,-0.205 0.1518,-0.4214 a 11.25,11.25 0 0 0 0.6707,-3.6135 7.1946,7.1946 0 0 0 -0.1623,-1.4567 13.2133,13.2133 0 0 0 -0.8359,-2.5378 c -0.213,-0.491 -0.4407,-0.9563 -0.6687,-1.3824 -0.1379,-0.2577 -0.2465,-0.4472 -0.3115,-0.5544 a 0.6444,0.6444 0 0 0 -0.94,-0.2091 0.7837,0.7837 0 0 0 -0.1914,1.0268 c 0.0115,0.019 0.0358,0.06 0.071,0.1215 0.06,0.105 0.1277,0.2266 0.2006,0.3629 0.2093,0.3911 0.4189,0.8193 0.614,1.2692 a 11.7,11.7 0 0 1 0.7388,2.231 5.6123,5.6123 0 0 1 0.1287,1.1291 9.7214,9.7214 0 0 1 -0.5842,3.0929 c -0.1162,0.3381 -0.24,0.6546 -0.3639,0.9421 z"
           id="path55"
           inkscape:connector-curvature="0"
           style="fill:#ee9bc7" />
      </g>
    </g>
  </g>
  <ellipse
     cx="8.3982658"
     cy="10.458462"
     id="circle65"
     style="stroke-width:0.72505915"
     rx="2.1341462"
     ry="2.2169971" />
  <path
     class="cls-15"
     d="m 6.2641228,10.281767 v -0.02727 a 2.3003963,2.3897013 0 1 1 2.2994,2.459758 2.1237601,2.2062078 0 0 1 -2.2668191,-2.044663 1.6778657,1.7430031 0 0 0 1.7398272,1.532241 1.8260468,1.8969368 0 1 0 -1.7724081,-1.920068 z"
     id="path67"
     inkscape:connector-curvature="0"
     style="fill:#ffffff;fill-rule:evenodd;stroke-width:0.72505915" />
  <ellipse
     class="cls-3"
     cx="7.1838708"
     cy="10.966376"
     id="circle69"
     style="fill:#ffffff;stroke-width:0.72505915"
     rx="0.58632106"
     ry="0.609083" />
  <ellipse
     cx="8.3982658"
     cy="26.665529"
     id="circle71"
     style="stroke-width:0.72505915"
     rx="2.1341462"
     ry="2.2169971" />
  <path
     class="cls-15"
     d="m 6.2641228,26.488831 v -0.02727 a 2.3003963,2.3897013 0 1 1 2.2994,2.459756 2.1237601,2.2062078 0 0 1 -2.2668191,-2.044662 1.6778657,1.7430031 0 0 0 1.7397556,1.532093 1.8260468,1.8969368 0 1 0 -1.7723365,-1.91992 z"
     id="path73"
     inkscape:connector-curvature="0"
     style="fill:#ffffff;fill-rule:evenodd;stroke-width:0.72505915" />
  <ellipse
     class="cls-3"
     cx="7.1838708"
     cy="27.173513"
     id="circle75"
     style="fill:#ffffff;stroke-width:0.72505915"
     rx="0.58632106"
     ry="0.609083" />
</svg>
