<svg height="auto" viewBox="0 0 885 312.233" width="100" xmlns="http://www.w3.org/2000/svg">
    <path d="M435.038 98.735c-16.392 0-29.21 5.16-38.465 15.481-9.264 10.325-13.887 23.727-13.887 40.225 0 19.371 4.732 34.056 14.196 44.059 9.481 10.001 21.93 14.996 37.362 14.996 8.299 0 15.665-.715 22.101-2.153 6.443-1.432 10.725-2.902 12.856-4.39l.64-49.948c0-2.902-7.662-4.222-16.254-4.369-8.594-.133-18.428 1.66-18.428 1.66v16.772h9.89l-.11 7.476c0 2.77-2.746 4.16-8.222 4.16-5.483 0-10.325-2.32-14.526-6.95-4.21-4.636-6.304-11.414-6.304-20.343 0-8.948 2.046-15.544 6.143-19.801 4.089-4.253 9.449-6.387 16.041-6.387 2.77 0 5.637.447 8.619 1.359 2.983.903 4.974 1.75 5.991 2.543 1.008.816 1.967 1.203 2.873 1.203.902 0 2.363-1.056 4.383-3.19 2.024-2.127 3.836-5.352 5.435-9.651 1.592-4.322 2.39-7.635 2.39-9.985 0-2.331-.053-3.938-.156-4.786-2.235-2.446-6.36-4.386-12.378-5.829-6.006-1.437-12.74-2.151-20.189-2.151zm97.93 0c-15.06 0-27.353 4.842-36.875 14.519-9.521 9.689-14.28 23.917-14.28 42.708 0 18.782 4.706 33.068 14.115 42.858 9.421 9.782 21.61 14.674 36.558 14.674 14.955 0 27.159-4.703 36.634-14.11 9.475-9.428 14.209-23.794 14.209-43.109 0-19.3-4.627-33.73-13.894-43.25-9.25-9.538-21.411-14.291-36.467-14.291zm211.7 0c-15.064 0-27.35 4.842-36.882 14.519-9.519 9.689-14.278 23.917-14.278 42.708 0 18.782 4.708 33.068 14.128 42.858 9.414 9.782 21.594 14.674 36.548 14.674 14.949 0 27.162-4.703 36.634-14.11 9.474-9.428 14.208-23.794 14.208-43.109 0-19.3-4.626-33.73-13.886-43.25-9.262-9.538-21.414-14.291-36.472-14.291zm-140.063 1.428c-2.135 0-3.862.779-5.19 2.313-1.335 1.558-1.997 3.659-1.997 6.32v95.764c0 4.9 2.72 7.341 8.143 7.341h27.288c33.415 0 50.13-19.576 50.13-58.739 0-18.306-4.394-31.707-13.18-40.218-8.772-8.514-21.62-12.782-38.537-12.782zm199.15 0c-1.811 0-3.088 2.46-3.83 7.354-.32 2.34-.473 4.74-.473 7.178 0 2.451.153 4.842.473 7.177.742 4.908 2.019 7.35 3.83 7.35h19.151v80.136c0 2.116 5.276 3.188 15.807 3.188 10.54 0 15.802-1.073 15.802-3.188v-80.136h18.676c1.808 0 3.08-2.442 3.834-7.35.313-2.335.475-4.726.475-7.178 0-2.437-.162-4.837-.475-7.177-.753-4.895-2.026-7.354-3.834-7.354zm-271.2 29.22c5.112 0 9.396 2.286 12.85 6.856 3.458 4.575 5.193 11.127 5.193 19.637 0 8.518-1.68 15.061-5.032 19.633-3.352 4.588-7.718 6.874-13.09 6.874-5.375 0-9.707-2.26-13.006-6.794-3.304-4.52-4.953-11.006-4.953-19.479 0-8.454 1.734-15.025 5.185-19.706 3.47-4.677 7.747-7.022 12.853-7.022zm211.7 0c5.112 0 9.39 2.286 12.85 6.856 3.458 4.575 5.19 11.127 5.19 19.637 0 8.518-1.679 15.061-5.032 19.633-3.348 4.588-7.717 6.874-13.09 6.874-5.376 0-9.712-2.26-13.007-6.794-3.294-4.52-4.947-11.006-4.947-19.479 0-8.454 1.726-15.025 5.176-19.706 3.464-4.677 7.753-7.022 12.86-7.022zm-116.199 1.106h1.597c6.81 0 11.787 1.557 14.93 4.644 3.127 3.078 4.7 9.704 4.7 19.872 0 10.164-1.503 17.42-4.544 21.779-3.034 4.363-7.472 6.551-13.33 6.551-1.592 0-2.553-.294-2.87-.88-.32-.59-.483-1.995-.483-4.225zM303.413 210.023s-.46-2.82-.729-2.794l-51.155 4.935a8.314 8.314 0 0 0-7.517 7.718l-1.405 20.143-39.575 2.823-2.692-18.255c-.6-4.06-4.145-7.121-8.25-7.121H138.1c-4.103 0-7.649 3.06-8.248 7.121l-2.694 18.255-39.575-2.823-1.405-20.143a8.315 8.315 0 0 0-7.517-7.72l-51.18-4.933c-.265-.026-.458 2.796-.723 2.796l-.069 11.07 43.345 6.99 1.42 20.323c.287 4.114 3.606 7.44 7.723 7.736l54.504 3.888c.206.014.41.023.614.023 4.095 0 7.636-3.063 8.235-7.123l2.77-18.784h39.593l2.77 18.784c.598 4.06 4.143 7.121 8.244 7.121.2 0 .402-.007.598-.02l54.511-3.889c4.116-.295 7.437-3.622 7.724-7.736l1.418-20.323 43.326-7.02z" fill="#fff" stroke-width="1.25"/>
    <g stroke-width=".938">
        <path d="M133.04 7.497c-14.398 3.201-28.64 7.657-41.995 14.378.306 11.79 1.068 23.089 2.613 34.565-5.186 3.322-10.636 6.174-15.48 10.063-4.921 3.786-9.949 7.41-14.404 11.838-8.903-5.889-18.325-11.423-28.032-16.308C25.28 73.294 15.494 85.449 7.502 99.049c6.013 9.728 12.29 18.845 19.069 27.497h.188v83.474c.153 0 .307.008.458.022l51.174 4.933a5.51 5.51 0 0 1 4.968 5.103l1.578 22.59 44.64 3.186 3.074-20.85a5.51 5.51 0 0 1 5.453-4.706h53.99a5.51 5.51 0 0 1 5.451 4.706l3.075 20.85 44.64-3.186 1.577-22.59a5.513 5.513 0 0 1 4.968-5.103l51.154-4.933c.15-.014.303-.02.455-.022v-6.661l.022-.007v-76.806h.189c6.78-8.653 13.053-17.77 19.069-27.497-7.99-13.601-17.78-25.756-28.242-37.016-9.705 4.885-19.131 10.418-28.034 16.308-4.455-4.428-9.472-8.052-14.4-11.838-4.843-3.89-10.3-6.741-15.477-10.063 1.541-11.476 2.304-22.774 2.611-34.565-13.354-6.722-27.597-11.177-42.002-14.378-5.752 9.667-11.011 20.133-15.592 30.367-5.432-.908-10.89-1.245-16.353-1.31v-.007c-.038 0-.074.007-.106.007-.034 0-.07-.007-.104-.007v.007c-5.475.065-10.928.402-16.36 1.31-4.579-10.233-9.834-20.7-15.594-30.367zM26.673 221.06c.021 4.946.084 10.363.084 11.442 0 48.598 61.65 71.957 138.244 72.226h.188c76.595-.269 138.225-23.628 138.225-72.226 0-1.098.068-6.494.09-11.442l-45.997 4.437-1.586 22.71a5.511 5.511 0 0 1-5.105 5.113l-54.511 3.889a5.512 5.512 0 0 1-5.843-4.695l-3.125-21.198h-44.478l-3.126 21.198a5.507 5.507 0 0 1-5.843 4.695l-54.51-3.89a5.511 5.511 0 0 1-5.106-5.111l-1.584-22.711-46.016-4.437z" fill="#478cbf"/>
        <path d="M92.553 129.607c-17.025 0-30.835 13.796-30.835 30.824 0 17.039 13.809 30.842 30.835 30.842 17.033 0 30.84-13.803 30.84-30.842 0-17.028-13.807-30.824-30.84-30.824zm145.087 0c-17.036 0-30.842 13.796-30.842 30.824 0 17.039 13.806 30.842 30.842 30.842 17.024 0 30.832-13.803 30.832-30.842 0-17.028-13.808-30.824-30.832-30.824zm-72.55 18.037c-5.483 0-9.926 4.045-9.926 9.022v28.39c0 4.981 4.443 9.022 9.926 9.022 5.483 0 9.938-4.04 9.938-9.022v-28.39c0-4.977-4.455-9.022-9.938-9.022z" fill="#fff"/>
        <path d="M95.503 141.794c-11.305 0-20.47 9.17-20.47 20.472 0 11.302 9.165 20.461 20.47 20.461 11.311 0 20.471-9.16 20.471-20.461 0-11.302-9.16-20.472-20.47-20.472zm139.181 0c-11.302 0-20.46 9.17-20.46 20.472 0 11.302 9.159 20.461 20.46 20.461 11.314 0 20.47-9.16 20.47-20.461 0-11.302-9.156-20.472-20.47-20.472z" fill="#414042"/>
    </g>
    <style id="autoconsent-prehide"/>
</svg>