<svg viewBox="0 0 320 312.233" width="35" xmlns="http://www.w3.org/2000/svg">
    <g stroke-width=".938">
        <path d="M133.04 7.497c-14.398 3.201-28.64 7.657-41.995 14.378.306 11.79 1.068 23.089 2.613 34.565-5.186 3.322-10.636 6.174-15.48 10.063-4.921 3.786-9.949 7.41-14.404 11.838-8.903-5.889-18.325-11.423-28.032-16.308C25.28 73.294 15.494 85.449 7.502 99.049c6.013 9.728 12.29 18.845 19.069 27.497h.188v83.474c.153 0 .307.008.458.022l51.174 4.933a5.51 5.51 0 0 1 4.968 5.103l1.578 22.59 44.64 3.186 3.074-20.85a5.51 5.51 0 0 1 5.453-4.706h53.99a5.51 5.51 0 0 1 5.451 4.706l3.075 20.85 44.64-3.186 1.577-22.59a5.513 5.513 0 0 1 4.968-5.103l51.154-4.933c.15-.014.303-.02.455-.022v-6.661l.022-.007v-76.806h.189c6.78-8.653 13.053-17.77 19.069-27.497-7.99-13.601-17.78-25.756-28.242-37.016-9.705 4.885-19.131 10.418-28.034 16.308-4.455-4.428-9.472-8.052-14.4-11.838-4.843-3.89-10.3-6.741-15.477-10.063 1.541-11.476 2.304-22.774 2.611-34.565-13.354-6.722-27.597-11.177-42.002-14.378-5.752 9.667-11.011 20.133-15.592 30.367-5.432-.908-10.89-1.245-16.353-1.31v-.007c-.038 0-.074.007-.106.007-.034 0-.07-.007-.104-.007v.007c-5.475.065-10.928.402-16.36 1.31-4.579-10.233-9.834-20.7-15.594-30.367zM26.673 221.06c.021 4.946.084 10.363.084 11.442 0 48.598 61.65 71.957 138.244 72.226h.188c76.595-.269 138.225-23.628 138.225-72.226 0-1.098.068-6.494.09-11.442l-45.997 4.437-1.586 22.71a5.511 5.511 0 0 1-5.105 5.113l-54.511 3.889a5.512 5.512 0 0 1-5.843-4.695l-3.125-21.198h-44.478l-3.126 21.198a5.507 5.507 0 0 1-5.843 4.695l-54.51-3.89a5.511 5.511 0 0 1-5.106-5.111l-1.584-22.711-46.016-4.437z" fill="#478cbf"/>
        <path d="M92.553 129.607c-17.025 0-30.835 13.796-30.835 30.824 0 17.039 13.809 30.842 30.835 30.842 17.033 0 30.84-13.803 30.84-30.842 0-17.028-13.807-30.824-30.84-30.824zm145.087 0c-17.036 0-30.842 13.796-30.842 30.824 0 17.039 13.806 30.842 30.842 30.842 17.024 0 30.832-13.803 30.832-30.842 0-17.028-13.808-30.824-30.832-30.824zm-72.55 18.037c-5.483 0-9.926 4.045-9.926 9.022v28.39c0 4.981 4.443 9.022 9.926 9.022 5.483 0 9.938-4.04 9.938-9.022v-28.39c0-4.977-4.455-9.022-9.938-9.022z" fill="#fff"/>
        <path d="M95.503 141.794c-11.305 0-20.47 9.17-20.47 20.472 0 11.302 9.165 20.461 20.47 20.461 11.311 0 20.471-9.16 20.471-20.461 0-11.302-9.16-20.472-20.47-20.472zm139.181 0c-11.302 0-20.46 9.17-20.46 20.472 0 11.302 9.159 20.461 20.46 20.461 11.314 0 20.47-9.16 20.47-20.461 0-11.302-9.156-20.472-20.47-20.472z" fill="#414042"/>
    </g>
    <style id="autoconsent-prehide"/>
</svg>