<svg xmlns="http://www.w3.org/2000/svg" xmlns:xlink="http://www.w3.org/1999/xlink" width="130" viewBox="0 0 443 172.5">
    <defs>
        <path id="a-gomobi" d="M-75.5-51.5h595v276h-595z"/>
    </defs>
    <clipPath id="b-gomobi">
        <use xlink:href="#a-gomobi" overflow="visible"/>
    </clipPath>
    <g clip-path="url(#b-gomobi)">
        <defs>
            <path id="c-gomobi" d="M-75.5-51.5h595v276h-595z"/>
        </defs>
        <clipPath id="d-gomobi">
            <use xlink:href="#c-gomobi" overflow="visible"/>
        </clipPath>
        <path clip-path="url(#d-gomobi)" fill="#888" d="M378.6 109.8v59c0 2-.4 3-2.7 2.7h-6.3c-2 .2-2.6-.6-2.3-2.4v-.5V60.8c0-3 0-3 3-3h6c1.9-.1 2.5.6 2.3 2.3v3.4a29.5 29.5 0 0 1 24-5 28 28 0 0 1 17.3 11.7 29 29 0 0 1-.5 33.2c-8.3 10.9-23.8 17.1-40.8 6.4m17.5-40.6a17 17 0 0 0-17.3 17.5c.3 10.9 7.7 17 17.4 17.3 9.5.3 17.4-8 17.4-17.4 0-9.7-7.7-17.4-17.5-17.4M277 109.5v4.3c0 1.2-.6 1.7-1.8 1.7h-8c-1.2 0-1.7-.5-1.6-1.7v-1.6V4.8c0-3.3 0-3.3 3.3-3.3h5.4c2.2-.2 2.7.7 2.7 2.7v59.5c7.3-5.4 15.2-7 23.6-5.3 6.9 1.4 12.7 5.1 17 11a29.6 29.6 0 0 1-.9 35.4c-5 6-11.3 9.2-18.9 10.3a30 30 0 0 1-20.9-5.6m34.9-22.8c.6-8.4-7.2-17.7-17.3-17.5a16.9 16.9 0 0 0-17.4 17.4c.3 10.5 6.9 17.1 17.3 17.4a17 17 0 0 0 17.4-17.3M49.2 63.1l.2-.4c.4-4.9.4-4.9 5.6-4.9 5.8 0 5.8 0 5.8 5.8v104.9c0 3 0 3-3.1 3h-6c-1.8.1-2.3-.5-2.3-2.2V138v-28.4c-7.7 5-15.6 7.2-24.4 4.9A29 29 0 0 1 10.8 67 29.5 29.5 0 0 1 49.2 63m-16 6.2a17.1 17.1 0 0 0-18.6 16.2c-.6 9.6 6.5 18 16.8 18.5 8.7.4 17.1-5.9 18-16.2.8-8.9-6.5-18.4-16.3-18.5M234.1 57.8a28.8 28.8 0 1 1-.5 57.7 28.8 28.8 0 0 1 .5-57.7m17.2 28.9c0-10-7.7-17.6-17.6-17.5-10.4.1-17.3 8-17.2 17.3.2 10.6 7 17.2 17.2 17.4 9.5.3 17.3-6.6 17.6-17.2M92.8 57.8c15.2-.1 28.8 13 28.5 29a29.1 29.1 0 0 1-28.7 28.6 29 29 0 0 1-28.8-28.9 28.6 28.6 0 0 1 29-28.7m-1.2 11.5c-9.4 0-18.1 9-16.3 20 1.5 9.2 8.8 15 17.7 14.6a16.7 16.7 0 0 0 16.9-18c-.4-10.8-9-17.3-18.3-16.6M429.3 58.4V4.5c0-3 0-3 3-3h5.6c2.1-.2 2.9.5 2.9 2.7V112.5c0 3 0 3-3 3h-5c-3.5 0-3.5 0-3.5-3.6V99 58.4M149.8 115.5h-3.6c-1.8 0-2-.7-1.3-2.2l9.3-19.8L170 59.8c.7-1.5 1.6-2.1 3.2-2h6.3c2.6 0 2.8.4 1.7 2.8l-20 42.4c-1.5 3.3-3.2 6.6-4.6 10-.8 1.9-1.8 2.8-3.9 2.5h-2.9M126.8 115.5h-3c-2.8 0-3-.2-1.8-2.8L136 83l10.8-23c.7-1.5 1.5-2.2 3.2-2.1h6.1c3 0 3.1.2 1.9 2.9L139 100.9c-1.8 4-3.8 7.8-5.5 11.8-.9 2.1-2 3.2-4.4 2.8h-2.4M205.4 58.2l-2.4 5.1-23 49.9c-.9 1.8-1.9 2.5-3.8 2.3h-6c-2.6 0-2.8-.3-1.7-2.6l18-38.8c2.2-4.8 4.5-9.5 6.6-14.3.7-1.6 1.6-2.1 3.3-2h6.5c.7 0 1.4.2 2.5.4M337.5 86.7v26.1c0 2.2-.7 2.9-2.8 2.7h-6.5c-1.4 0-2-.4-2-1.9V59.7c0-1.5.5-2 2-2 2.4.2 4.8.2 7.2 0 1.7 0 2.1.7 2.1 2.4v26.6M352.5 115.5c-5.8 0-5.8 0-5.8-5.7 0-5.6 0-5.6 5.5-5.6 6 0 6 0 6 6 0 5.3 0 5.3-5.7 5.3"/>
    </g>
</svg>