<svg width="126.899" height="auto" viewBox="0 0 33.575 8.561" xmlns:xlink="http://www.w3.org/1999/xlink" xmlns="http://www.w3.org/2000/svg">
    <defs>
        <path id="a" d="M0 13.569V.229h11.801v13.34z"/>
        <path id="b" d="M.123.229v13.34h10.986V.229z"/>
        <path id="c" d="M12.114.143H.218v12.959h11.896z"/>
        <mask id="d" fill="#fff">
            <use xlink:href="#a" width="100%" height="100%"/>
        </mask>
        <mask id="e" fill="#fff">
            <use xlink:href="#b" width="100%" height="100%"/>
        </mask>
        <mask id="f" fill="#fff">
            <use xlink:href="#c" width="100%" height="100%"/>
        </mask>
    </defs>
    <g fill-rule="evenodd">
        <path d="M5.83 7.228c0 .487-.335.711-.857.711H4.9c-.517 0-.852-.219-.852-.71v-.866c0-.418.35-.662.847-.662h.08c.487 0 .856.229.856.667zM4.973 5.08h-.079c-.92 0-1.595.442-1.595 1.198v1.035c0 .83.65 1.248 1.6 1.248h.074c.94 0 1.606-.428 1.606-1.248V6.278c0-.746-.71-1.198-1.606-1.198zM10.754 8.511h.753V5.13h-.778L9.365 7.074l-1.34-1.945h-.777v3.382h.748V6.14l1.143 1.7h.453l1.162-1.705zM15.737 8.511h.753V5.13h-.778l-1.364 1.945-1.34-1.945h-.778v3.382h.749V6.14l1.142 1.7h.454l1.162-1.705zM19.735 7.198c0 .498-.429.741-.897.741-.467 0-.881-.229-.881-.74v-2.07h-.749v2.154c0 .86.74 1.278 1.64 1.278.882 0 1.64-.423 1.64-1.278V5.129h-.753zM21.92 5.13h-.709V8.51h.69V6.114l1.871 2.397h.704V5.13h-.69v2.377zM26.007 8.511V5.13h-.743v3.382zM29.789 5.751v-.622h-3.275v.622h1.251v2.76h.749v-2.76zM32.177 7.263l1.398-2.134h-.916l-.861 1.418-.847-1.418h-.911l1.378 2.129V8.51h.759zM1.6 5.721c.414 0 .714.085.98.239l.271-.542c-.364-.249-.729-.338-1.295-.338C.72 5.08 0 5.552 0 6.328v.98c0 .83.665 1.253 1.561 1.253.571 0 .901-.085 1.256-.308l-.247-.557c-.256.154-.59.223-.965.223-.492 0-.852-.189-.852-.656v-.895c0-.418.394-.647.847-.647" fill="#ef4732"/>
        <path fill="#fff" d="M6.223 6.556h5.578v5.45c-1.328.763-3.017 1.563-5.71 1.563C2.656 13.57 0 11.701 0 8.805V4.879C0 2 2.827.229 6.147.229c2.05 0 4.004.553 5.218 1.43l-.683 1.238c-1.062-.724-2.694-1.22-4.459-1.22-2.466 0-4.572 1.258-4.572 3.335v3.66c0 2.153 2.011 3.449 4.44 3.449 1.878 0 3.035-.477 4.06-1.01V7.928H6.223z" mask="url(#d)" transform="matrix(.26458 0 0 .26458 0 -.06)"/>
        <path fill="#fff" d="M4.152 1.684h1.32c.361-.015.723-.192.723-.56V.998c0-.337-.296-.564-.753-.564h-1.29zm1.661.267l.894 1.528h-.482l-.838-1.432H4.152V3.48h-.437V.05h1.752c.708 0 1.17.343 1.17.928V1.1c0 .474-.347.756-.824.852zm3.71.152L8.81.489l-.718 1.614zM9.046.01l1.506 3.47h-.487L9.63 2.47H7.987L7.54 3.48h-.482L8.58.01zm4.318 2.44c0-.368-.362-.56-.834-.56h-1.16v1.226h1.205c.467 0 .789-.156.789-.52zm-1.993-.907h1.14c.42 0 .727-.182.727-.51v-.09c0-.383-.261-.53-.788-.53h-1.08zm1.691.156c.447.121.738.388.738.782v.151c0 .55-.462.847-1.174.847h-1.692V.05H12.5c.728 0 1.175.318 1.175.873v.09c0 .303-.246.585-.613.686z"/>
        <path fill="#fff" d="M3.026 5.165v3.43c0 1.791 1.385 2.516 3.282 2.516 1.442 0 2.732-.267 3.72-.858l.948 2.135c-1.366.857-2.638 1.181-4.838 1.181-3.454 0-6.015-1.62-6.015-4.802V5.013C.123 2.039 2.893.229 6.12.229c2.182 0 3.585.343 4.99 1.296l-1.044 2.077c-1.025-.59-2.182-.915-3.776-.915-1.745 0-3.263.877-3.263 2.478" mask="url(#e)" transform="matrix(.26458 0 0 .26458 14.37 -.06)"/>
        <path fill="#fff" d="M19.865 2.143L19.347.782l-.527 1.36zM19.769.02l1.376 3.46h-.849l-.286-.752h-1.335l-.291.751h-.849L18.921.02z"/>
        <path fill="#fff" d="M9.25 5.574c0-2.115-1.31-3.049-2.98-3.049H3.065v8.194h2.998c1.708 0 3.187-.857 3.187-3.049zM6.27.143c3.415 0 5.844 1.562 5.844 4.954v3.05c0 3.41-2.675 4.955-6.052 4.955H.218V.142z" mask="url(#f)" transform="matrix(.26458 0 0 .26458 21.519 .013)"/>
    </g>
</svg>