<svg width="60" viewBox="-10 0 182 174">
    <ellipse cx="79" cy="70" fill="#8aced4" rx="79" ry="70"/>
    <path fill="#fff" d="M68 17l3-3 3-4c2-2 4-3 7-3s5 2 6 4a8 8 0 0 1 9 2 18 18 0 0 1 21 27l5 7 3 12c4-4 7-10 7-15 1-5 3-10 8-12 4-2 8-1 12 1 5 3 8 9 9 14 2 8 1 17-2 24-5 13-13 22-25 28l12 3c2 1 6 2 6 6 1 3-1 5-3 7l-1 1-23 20-78 19c-1 5-7 8-13 8l-9-3-3 1-6 1c-3-1-4-3-5-5-6-8-9-22-7-32 0-3 1-4 3-5 0-9 3-17 7-25 2-5 6-11 11-15a89 89 0 0 1 10-39l-2-2a21 21 0 0 1 33-24l2 2z"/>
    <path fill="#32547e" d="M135 43c-1 8-6 21-22 24l2 32s30-2 40-30c7-18 2-30-5-34-8-5-14 0-15 8z"/>
    <path fill="#fff" d="M118 95l-1-25c6-2 12-5 16-11 3-4 5-9 6-15 0-2 1-6 3-7s4 0 6 1c3 2 5 6 6 10 2 7 0 14-2 20-4 11-11 18-21 23a51 51 0 0 1-13 4z"/>
    <path fill="#8aced4" d="M118 95l-1-25 11-5c1 6 4 14 13 20l-10 6a51 51 0 0 1-13 4z"/>
    <path fill="#32547e" d="M145 36s1 6-2 13c0 0 1-9-1-13h3zM152 39s1 6-2 13c0 0 2-9 0-13l1-1 1 1zM110 17c-7-4-17-2-21 5l-2 5c0 5 4 10 8 13 6 3 15 5 19-2 5-7 3-16-4-21z"/>
    <path fill="#fff" d="M108 20c5 4 7 11 3 17-5 8-25-4-19-13 3-6 10-7 16-4z"/>
    <path fill="#f7b88a" d="M106 24c3 2 4 6 2 10-4 5-16-3-13-8 3-4 7-5 11-2z"/>
    <path fill="#32547e" d="M105 23c3 2 4 5 4 8-1-2-2-5-4-6-3-2-8-1-10 2v-2c2-3 7-4 10-2z"/>
    <path fill="#32547e" d="M37 43c6-10 16-19 27-22l12-2 13 2c13 4 24 15 30 27 7 14 6 42 8 58l-9 3-4 22-37-11-38 11-4-22-9-3c2-18 1-48 11-63z"/>
    <path fill="#fff" d="M29 103l9 3 4 20 35-10 34 10 4-20 9-3c-2-15-1-41-8-54-8-16-23-27-40-27-15 0-28 9-36 22-10 15-9 42-11 59z"/>
    <path fill="#8aced4" d="M33 84v20l9 3v20l34-10 35 10v-20l7-1 6-2c-1-8-56 10-77 1-7-3-9-14-14-21z"/>
    <path fill="#32547e" d="M79 23l-4 2h-1l-8 6 8-1c1 2 9 2 12 2 4-3 9-8 8-13 0-3-2-6-4-6l-4 2-7 8z"/>
    <path fill="#fff" d="M80 26c5-3 7-6 9-9 3-3 5 3 4 7-1 0-3 7-7 9H76c-2 0 0-5 1-6l3-1z"/>
    <path fill="#32547e" d="M146 113l-22 20-104 24c-5 1-5 2-8-2-5-8-8-20-6-30 0-3 1-3 4-4l105-24 29 8c6 2 6 3 2 8z"/>
    <path fill="#f9b452" d="M10 125l104-24c-1 6 0 20 6 29L16 154c-5-8-8-19-6-29z"/>
    <path fill="#fed463" d="M10 125l104-24v8L9 133l1-8z"/>
    <path fill="#fff" d="M10 125l104-24-1 4z"/>
    <path fill="#dc8446" d="M116 122l4 8-103 24-5-8 104-24z"/>
    <path fill="#32547e" d="M117 120l-25 8 25-4z"/>
    <path fill="#ec6e6f" d="M10 126l19-5c0 7 0 18 6 29l-19 4c-5-8-8-19-6-28z"/>
    <path fill="#dc8446" d="M49 120c-2 7-3 17 2 29l-15 4-1-3-5-26 19-4z"/>
    <path fill="#fff" d="M114 101h1l28 8h1l-1 1-21 20h-2c-6-9-6-23-6-29z"/>
    <path fill="#94a6bd" d="M140 113l-18 17h-2l-4-9 23-9 1 1z"/>
    <path fill="#32547e" d="M135 106l9 2 1 1-1 1-7 6a27 27 0 0 1-2-10zM112 101a53 53 0 0 0 7 30l4-1a50 50 0 0 1-7-30l-4 1z"/>
    <path fill="#fff" d="M138 107c0 2 8 4 8 2s-8-4-8-2z"/>
    <path fill="#32547e" d="M113 107l-25 8 25-4zM46 116s-4 9 0 23c0 0-7-9-4-22l2-1h2z"/>
    <path fill="#fff" d="M123 136s9-14 5-15-21 12-21 12 5-10 2-11c-4-1-27 17-27 17s8-11 3-12c-4 0-28 19-28 19s8-14 5-14-32 21-32 21 5-9 1-10c-3-1-26 15-26 15s5 16 13 16 108-30 105-38z"/>
    <ellipse cx="-7.9" cy="144.1" fill="#fff" rx="5.6" ry="1.4" transform="scale(-1 1) rotate(27)"/>
    <ellipse cx="-29.3" cy="152.6" fill="#fff" rx="4.4" ry="1" transform="scale(-1 1) rotate(27)"/>
    <circle cx="11.5" cy="140" r="1" fill="#fff" transform="scale(-1 1) rotate(27)"/>
    <circle cx="-90.6" cy="119.4" r="1" fill="#fff" transform="scale(-1 1) rotate(-1)"/>
    <circle cx="-65.6" cy="126" r="1" fill="#fff" transform="scale(-1 1) rotate(-1)"/>
    <circle cx="-71.4" cy="131.7" r="1" fill="#fff" transform="scale(-1 1) rotate(-1)"/>
    <circle cx="-108.8" cy="116.1" r="1" fill="#fff" transform="scale(-1 1) rotate(-1)"/>
    <path fill="#32547e" d="M42 144c-5-9-4-27 9-39L31 81s-1-2-3 0c-8 6-22 25-18 50 3 19 14 28 23 28 10 1 13-7 9-15z"/>
    <path fill="#fff" d="M34 79c11 3 19 11 23 23l-10 7c-10 11-14 22-9 36 1 2 2 6 1 8s-4 2-6 2c-4 0-8-3-11-6-5-5-7-12-9-19-3-18 8-40 21-51z"/>
    <path fill="#32547e" d="M37 155s-4-5-5-12c0 0 3 8 7 11l-1 1h-1zM29 156s-5-5-5-12c0 0 3 8 7 12l-1 1-1-1zM64 20l-1 2c-3 4 2 9 6 10l6-2c5-1 9-3 11-9v-3c0-3-1-9-5-9l-5 2-2 4c-3 4-6 5-10 5z"/>
    <path fill="#fff" d="M75 19l4-5c1-2 3 0 3 4 1 7-4 14-9 15l-8 1c-2 0-1-8 0-10 4 0 7-2 10-5z"/>
    <path fill="#32547e" d="M41 16c-7 5-9 14-6 21 3 5 8 6 13 4l10-5c4-4 13-11 5-18-6-6-16-7-22-2z"/>
    <path fill="#fff" d="M42 19a13 13 0 0 0-2 19c4 5 15 3 21-2a11 11 0 0 0-1-16c-4-5-12-5-18-1z"/>
    <path fill="#f7b88a" d="M47 22c-4 3-5 8-2 12 2 3 7 2 10 0 4-3 7-7 4-11-3-3-9-4-12-1z"/>
    <path fill="#32547e" d="M46 23c-4 2-5 6-4 9 0-3 2-5 4-7 4-3 10-2 13 1l-1-2c-3-3-8-4-12-1zM35 77s-8 8-10 12h-1v-4s5-6 11-8zM77 35c-3 0-8 3-8 5 0 3 9 2 10 0 0 0 0-5-2-5zM96 35c2 1 6 4 6 6s-7 1-8-1c-1-1-1-5 2-5zM100 62c2 3-2 9-7 11-3 2-6 1-9-1-4-2-8-7-7-10 3-4 20-4 23 0z"/>
    <path fill="#fff" d="M86 61c-1 2 11 6 12 3 1-4-11-4-12-3z"/>
    <ellipse cx="97" cy="52" fill="#32547e" rx="3.1" ry="4.1"/>
    <circle cx="-80.1" cy="75.4" r="1" fill="#fff" transform="scale(-1 1) rotate(16)"/>
    <ellipse cx="76.2" cy="52.3" fill="#32547e" rx="3.4" ry="4.5"/>
    <circle cx="-53.9" cy="74.5" r="1" fill="#fff" transform="scale(-1 1) rotate(21)"/>
    <ellipse cx="56.5" cy="57.2" fill="#fcc" rx="7.4" ry="5.1"/>
    <ellipse cx="110.4" cy="58.8" fill="#fcc" rx="5.5" ry="3.9"/>
    <path fill="#32547e" d="M60 68l-4 1s1-3 4-3c2-1 5 1 5 2h-5zM108 70l-4-1c0-1 3-2 5-1l2 3c0 3-2 0-3-1z"/>
    <path fill="#32547e" d="M107 70c-6 6-10 11-17 4-4 4-9 5-13 5-6 0-11-6-16-11h-1c0 28 22 31 45 22-8-4 1-15 4-19l-2-1z"/>
    <path fill="#ec6e6f" d="M71 90h1c6 4 15 4 22 2-3-6-17-8-23-2z"/>
    <ellipse cx="-103.6" cy="67.3" fill="#f2968f" rx="5.1" ry="1" transform="scale(-1 1) rotate(-13)"/>
    <path fill="#fff" d="M69 78c0 4 1 6 4 7 1 1 4-1 6-4 0 0-6 1-10-3zM91 78s1 6 5 5c3 0 4-4 4-4s-4 2-9-1zM49 36s0-5 2-5c1-1 2 2 2 2 1-6 3-7 6-1 0 0-6 7-10 4z"/>
</svg>