<svg xmlns="http://www.w3.org/2000/svg" width="100" viewBox="0 0 100 40">
    <path d="M100 40H0V0h100v40z" fill="#FF002B"/><path d="M26.2 27c.1 1.4 1 2.3 2.5 2.3 1.4 0 2.4-.9 2.5-2.2v-2.4c0-1.3-1-2.3-2.5-2.3-1.4 0-2.4 1-2.5 2.3v2.4zm-2.1 3.2c-.6-.7-1-1.6-1-2.6v-3.4c.1-1.4.7-2.6 1.7-3.4 1-1 2.4-1.4 4-1.4h5.4c.8 0 1.5.7 1.5 1.5 0 .7-.7 1.4-1.5 1.4h-.4c.3.6.5 1.2.5 2v3.3a5 5 0 0 1-1.7 3.4c-1 1-2.3 1.4-3.9 1.4-.7 0-1.4-.2-2-.4 0 0-.9.6-.7 1.6 0 .9 1 1.2 1 1.2 1-.7 2.4-1 3.8-1 3.8 0 7 2.7 7 6.1v.1h-3c0-1.8-1.8-3.2-4-3.2-2.3 0-4 1.4-4 3.1v.1h-3c0-1.1.2-2.1.8-3a4.8 4.8 0 0 1-1.6-2.6c-.2-.8-.3-2.5 1.1-4.2zM45 21.2c0 .8-.7 1.5-1.6 1.5l-.8-.1-.8-.1h-.1c-.9 0-1.3.5-1.3 1.5v6.8c0 1-.7 1.6-1.5 1.6-.9 0-1.6-.7-1.6-1.6v-7.4c0-2.4 1.5-4 4.1-4a9 9 0 0 1 2 .2c1 .3 1.5.8 1.5 1.6zM67 29.4c-.2-.2-.5-.3-.8-.3h-.6l-1.4.3c-1 0-1.6-.6-1.6-1.7v-4.9h3c.7 0 1.4-.6 1.4-1.3 0-.9-.7-1.5-1.4-1.5h-3v-1.6c0-.9-.7-1.6-1.5-1.6-1 0-1.6.7-1.6 1.6v9.4c0 2.8 1.4 4.6 4.2 4.6a7 7 0 0 0 2.9-.5c.6-.3 1-.7 1-1.4 0-.4-.2-.8-.6-1.1zM79.8 20c-.2-.4-.6-.6-1-.6-.6 0-1 .3-1.3.6L74 23.8c-.4.4-.8.5-1.2.5h-.3V17c0-.9-.7-1.6-1.5-1.6-1 0-1.6.7-1.6 1.6v13.9c0 .9.7 1.6 1.6 1.6.9 0 1.5-.7 1.5-1.6v-3.5h.3c.5 0 .8.2 1.2.6l3.7 4a1.6 1.6 0 0 0 2.7-1c0-.5-.1-1-.5-1.3l-3.7-3.8L80 22c.5-.5.5-1.4 0-2zM54 23c-.4-.2-1.4-.6-2.4-.6-1.5 0-2.3.8-2.4 2.4v2.4c0 1.4.8 2.3 2.2 2.3 1 0 1.9-.2 2.5-.7v-5.7zm3.1-1.7V30.7c0 1-.7 1.7-1.6 1.7-.6 0-1-.2-1.3-.7l-.3.1c-.8.4-1.8.6-2.8.6-3 0-4.8-1.8-5-4.7v-3.4c0-1.4.6-2.6 1.6-3.5 1-1 2.3-1.4 3.8-1.4 1 0 2 .3 3 .7.2-.2.6-.4 1-.4.8 0 1.6.7 1.6 1.6zM89.2 23c-.3-.2-1.3-.6-2.3-.6-1.5 0-2.3.8-2.4 2.4v2.4c0 1.4.8 2.3 2.2 2.3 1 0 1.9-.2 2.5-.7v-5.7zm3.2-1.7V30.7c0 1-.7 1.7-1.6 1.7-.6 0-1-.2-1.4-.7l-.2.1c-.8.4-1.8.6-2.8.6-3 0-4.8-1.8-5-4.7-.2-1-.2-2.4 0-3.4 0-1.4.6-2.6 1.6-3.5 1-1 2.2-1.4 3.8-1.4 1 0 2 .3 3 .7.2-.2.6-.4 1-.4.8 0 1.6.7 1.6 1.6z" fill="#fff"/>
</svg>