<svg width="105" height="24" viewBox="-169.7 -63.577 437.245 99.346">
    <path fill="#aaa" fill-rule="evenodd" stroke="#aaa" stroke-linecap="round" stroke-width=".25mm" d="M-117.327-41.228l-2.7 6a48.246 48.246 0 0 0-10.171-4.178 38.227 38.227 0 0 0-10.229-1.422 22.38 22.38 0 0 0-5.149.565 16.803 16.803 0 0 0-5.551 2.385q-4.4 2.95-6.4 7.95a48.575 48.575 0 0 0-3.454 14.258 59.061 59.061 0 0 0-.246 5.442A79.199 79.199 0 0 0-160.726-1q.536 4.558 1.646 8.308a30.506 30.506 0 0 0 3.253 7.464q2.1 3.4 5.95 5.7a16.21 16.21 0 0 0 6.328 2.138 20.614 20.614 0 0 0 2.622.162 20.167 20.167 0 0 0 5.918-.832 16.404 16.404 0 0 0 6.232-3.518 13.383 13.383 0 0 0 3.675-5.694q1.175-3.378 1.175-7.956v-8.4l-13.2-.7v-5.8h17.2q3.6 0 3.6 3v12.2a36.392 36.392 0 0 1-.602 6.865q-1.536 7.982-6.998 11.935a25.044 25.044 0 0 1-8.773 3.974q-4.143 1.026-9.127 1.026-5.9 0-11.1-2.55a26.735 26.735 0 0 1-4.392-2.676 20.45 20.45 0 0 1-3.808-3.724 29.537 29.537 0 0 1-3.248-5.267 37.85 37.85 0 0 1-1.652-3.983q-3.2-9.1-3.2-20.6a60.143 60.143 0 0 1 1.103-11.736 49.599 49.599 0 0 1 2.197-7.764 34.593 34.593 0 0 1 2.887-5.78 29.065 29.065 0 0 1 2.213-3.07 21.21 21.21 0 0 1 4.576-4.087 28.08 28.08 0 0 1 3.774-2.113q5.25-2.45 12.05-2.45a47.925 47.925 0 0 1 13.086 1.906 65.278 65.278 0 0 1 10.014 3.794zm309.7 58.8v-30.8a28.026 28.026 0 0 0-.159-3.096q-.364-3.26-1.561-5.205a6.84 6.84 0 0 0-.53-.749q-1.702-2.08-5.264-2.586a17.697 17.697 0 0 0-2.486-.164 25.791 25.791 0 0 0-11.895 3.001 37.15 37.15 0 0 0-6.605 4.4v39.2l7 .7v5.2h-21.9v-5.2l7-.7v-45.3l-7-.8v-5.2h10.6a4.629 4.629 0 0 1 1.208.143q1.596.433 1.845 2.168a4.84 4.84 0 0 1 .047.688v3.9a44.176 44.176 0 0 1 7.903-5.057q6.609-3.243 13.297-3.243a26.528 26.528 0 0 1 4.579.368q5.148.904 7.921 4.032 2.896 3.268 3.641 9.126a34.724 34.724 0 0 1 .259 4.374v29.9q0 5.071 3.654 5.467a5.992 5.992 0 0 0 .646.033q1.8 0 4.2-.6l.9 6a24.976 24.976 0 0 1-5.794 1.22 22.507 22.507 0 0 1-1.906.08 11.574 11.574 0 0 1-4.087-.662q-5.513-2.074-5.513-10.638zm-70.9 0v-1.4q-6.5 12.7-20.4 12.7a17.759 17.759 0 0 1-4.646-.576 13.054 13.054 0 0 1-6.054-3.524 13.627 13.627 0 0 1-3.506-6.578 20.383 20.383 0 0 1-.494-4.622 18.541 18.541 0 0 1 1.078-6.476q1.859-5.023 6.922-8.124a24.833 24.833 0 0 1 5.728-2.477q6.089-1.857 15.405-2.29a128.643 128.643 0 0 1 5.967-.133v-4.2a37.436 37.436 0 0 0-.194-3.962q-.581-5.438-2.906-7.838a9.231 9.231 0 0 0-3.412-2.173q-2.702-1.027-6.638-1.027a24.19 24.19 0 0 0-6.338.903q-2.713.737-5.634 2.075a50.661 50.661 0 0 0-3.578 1.822l-2.6-6a55.503 55.503 0 0 1 9.129-3.364 40.575 40.575 0 0 1 10.471-1.436 31.388 31.388 0 0 1 6.384.6q8.987 1.871 11.716 9.6 1.5 4.2 1.5 10.2v27.4a10.567 10.567 0 0 0 .172 2.004q.626 3.228 3.528 3.476a5.859 5.859 0 0 0 .5.02 9.454 9.454 0 0 0 .89-.047q.972-.093 2.337-.367a44.194 44.194 0 0 0 .873-.186l.9 6a25.362 25.362 0 0 1-5.004 1.143 21.798 21.798 0 0 1-2.596.157 11.345 11.345 0 0 1-4.045-.662q-4.949-1.882-5.408-9.104a24.178 24.178 0 0 1-.047-1.534zm-137.9-21.9v4.9h-39.4q0 8.51 3.29 14.14a19.025 19.025 0 0 0 2.31 3.16 14.474 14.474 0 0 0 8.831 4.662 20.874 20.874 0 0 0 3.219.238q6.932 0 14.81-3.695a53.703 53.703 0 0 0 1.64-.805l2.5 5.8a61.351 61.351 0 0 1-6.678 2.733q-6.121 2.067-11.272 2.067a39.855 39.855 0 0 1-5.281-.329q-2.74-.367-5.031-1.142a19.868 19.868 0 0 1-2.588-1.079 21.724 21.724 0 0 1-5.357-3.757 19.31 19.31 0 0 1-2.593-3.093A35.389 35.389 0 0 1-63.615.8a42.592 42.592 0 0 1-.012-1.027 50.29 50.29 0 0 1 .891-9.723q1.201-6.094 4.019-10.96a31.213 31.213 0 0 1 .49-.817q2.8-4.4 7.65-6.9a22.122 22.122 0 0 1 6.661-2.14 29.443 29.443 0 0 1 4.689-.36 25.14 25.14 0 0 1 7.353 1.022 19.257 19.257 0 0 1 9.397 6.278 25.125 25.125 0 0 1 4.933 9.921q.96 3.727 1.095 8.123a47.451 47.451 0 0 1 .022 1.456zm59.1 0v4.9h-39.4q0 8.51 3.29 14.14a19.025 19.025 0 0 0 2.31 3.16 14.474 14.474 0 0 0 8.831 4.662 20.874 20.874 0 0 0 3.219.238q6.932 0 14.81-3.695a53.703 53.703 0 0 0 1.64-.805l2.5 5.8a61.351 61.351 0 0 1-6.678 2.733q-6.121 2.067-11.272 2.067a39.855 39.855 0 0 1-5.281-.329q-2.74-.367-5.031-1.142a19.868 19.868 0 0 1-2.588-1.079 21.724 21.724 0 0 1-5.357-3.757 19.31 19.31 0 0 1-2.593-3.093A35.389 35.389 0 0 1-4.515.8a42.592 42.592 0 0 1-.012-1.027 50.29 50.29 0 0 1 .891-9.723q1.201-6.094 4.019-10.96a31.213 31.213 0 0 1 .49-.817q2.8-4.4 7.65-6.9a22.122 22.122 0 0 1 6.661-2.14 29.443 29.443 0 0 1 4.689-.36 25.14 25.14 0 0 1 7.353 1.022 19.257 19.257 0 0 1 9.397 6.278 25.125 25.125 0 0 1 4.933 9.921q.96 3.727 1.095 8.123a47.451 47.451 0 0 1 .022 1.456zm224.4 0v4.9h-39.4q0 8.51 3.29 14.14a19.025 19.025 0 0 0 2.31 3.16 14.474 14.474 0 0 0 8.831 4.662 20.874 20.874 0 0 0 3.219.238q6.932 0 14.81-3.695a53.703 53.703 0 0 0 1.64-.805l2.5 5.8a61.351 61.351 0 0 1-6.678 2.733q-6.121 2.067-11.272 2.067a39.855 39.855 0 0 1-5.281-.329q-2.74-.367-5.031-1.142a19.868 19.868 0 0 1-2.588-1.079 21.724 21.724 0 0 1-5.357-3.757 19.31 19.31 0 0 1-2.593-3.093A35.389 35.389 0 0 1 219.885.8a42.592 42.592 0 0 1-.012-1.027 50.29 50.29 0 0 1 .891-9.723q1.201-6.094 4.019-10.96a31.213 31.213 0 0 1 .49-.817q2.8-4.4 7.65-6.9a22.122 22.122 0 0 1 6.661-2.14 29.443 29.443 0 0 1 4.689-.36 25.14 25.14 0 0 1 7.353 1.022 19.257 19.257 0 0 1 9.397 6.278 25.125 25.125 0 0 1 4.933 9.921q.96 3.727 1.095 8.123a47.451 47.451 0 0 1 .022 1.456zm-357.2 3.8v22.1l10 .7v5.2h-24.9v-5.2l7-.7v-45.3l-7-.8v-5.2h10.6a4.463 4.463 0 0 1 1.226.154q1.874.537 1.874 2.946v12.4q2.7-6.9 8.15-11.75a20.278 20.278 0 0 1 12.79-5.133 25.386 25.386 0 0 1 .36-.017v6.9a19.371 19.371 0 0 0-13.882 6.4 24.922 24.922 0 0 0-.368.4 22.35 22.35 0 0 0-5.335 11.07 31.554 31.554 0 0 0-.515 5.83zm157.6-45.9v63.1q0 5.071 3.654 5.467a5.992 5.992 0 0 0 .646.033q1.252 0 3.342-.418a41.75 41.75 0 0 0 .858-.182l.9 6a24.976 24.976 0 0 1-5.794 1.22 22.506 22.506 0 0 1-1.906.08 11.574 11.574 0 0 1-4.087-.662q-5.513-2.074-5.513-10.638v-61.1l-6-.8v-5.2h10.9q2.392 0 2.877 1.972a4.74 4.74 0 0 1 .123 1.128zm-123.1 41.4h31.3a33.622 33.622 0 0 0-.495-5.947q-.912-5.069-3.505-8.603a12.952 12.952 0 0 0-9.46-5.342 18.764 18.764 0 0 0-2.04-.108 15.595 15.595 0 0 0-4.817.705 12.115 12.115 0 0 0-6.483 4.995 25.311 25.311 0 0 0-3.163 6.875q-1.009 3.394-1.337 7.425zm59.1 0h31.3a33.622 33.622 0 0 0-.495-5.947q-.912-5.069-3.505-8.603a12.952 12.952 0 0 0-9.46-5.342 18.764 18.764 0 0 0-2.04-.108 15.595 15.595 0 0 0-4.817.705 12.115 12.115 0 0 0-6.483 4.995 25.311 25.311 0 0 0-3.163 6.875Q3.801-9.059 3.473-5.028zm224.4 0h31.3a33.622 33.622 0 0 0-.495-5.947q-.912-5.069-3.505-8.603a12.952 12.952 0 0 0-9.46-5.342 18.764 18.764 0 0 0-2.04-.108 15.595 15.595 0 0 0-4.817.705 12.115 12.115 0 0 0-6.483 4.995 25.311 25.311 0 0 0-3.163 6.875q-1.009 3.394-1.337 7.425zm-106.4 5.4v-1.2q-27.6 0-27.6 13.8 0 4.6 2.55 7.15a8.343 8.343 0 0 0 3.869 2.161q1.298.341 2.836.383a16.065 16.065 0 0 0 .445.006 15.864 15.864 0 0 0 11.575-4.929 21.664 21.664 0 0 0 .825-.87q4.387-4.894 5.286-13.276a41.022 41.022 0 0 0 .214-3.225z" font-size="16" vector-effect="non-scaling-stroke"/>
</svg>