<svg width="100" height="26.667" viewBox="0 6 180 36" fill="none" xmlns="http://www.w3.org/2000/svg" class="sc-c3c49de9-3 dXGcVl">
    <path fill-rule="evenodd" clip-rule="evenodd" d="M19.188 36.638a18.45 18.45 0 0 1-5.436.828c-2.616 0-4.968-.558-7.056-1.674-2.088-1.116-3.726-2.664-4.914-4.644C.594 29.168 0 26.93 0 24.434c0-2.496.594-4.734 1.782-6.714 1.188-1.98 2.838-3.528 4.95-4.644s4.488-1.674 7.128-1.674c2.208 0 4.212.372 6.012 1.116 1.8.744 3.311 1.824 4.535 3.24l-3.744 3.456c-1.8-1.896-3.971-2.844-6.515-2.844-1.608 0-3.036.336-4.284 1.008a7.232 7.232 0 0 0-2.916 2.844c-.696 1.224-1.044 2.628-1.044 4.212 0 1.56.348 2.952 1.044 4.176a7.383 7.383 0 0 0 2.898 2.862c1.236.684 2.646 1.026 4.23 1.026 1.68 0 3.192-.36 4.535-1.08v-7.38h5.328v10.224c-1.368 1.032-2.951 1.824-4.752 2.376zm19.943-8.352l-5.976 8.748H26.46l9.324-12.816-8.856-12.384h6.624l5.796 8.172 5.688-8.172h6.3L42.55 24.002l9.396 13.032h-6.732l-6.084-8.748z" fill="#fff" style="--darkreader-inline-fill:#181a1b"/>
    <path d="M75.341 46.67c7.697 0 10.425-4.439 10.425-10.67V18.368h-5.334v2.077h-.082c-1.629-1.588-3.787-2.362-5.986-2.362-5.294 0-9.204 4.195-9.204 10.059 0 5.783 4.032 9.774 9.489 9.774 2.362 0 4.357-.815 5.783-2.28h.081v1.995c0 2.361-1.873 4.398-5.58 4.398-2.605 0-4.52-.774-6.474-1.874l-1.263 4.52c2.362 1.345 5.09 1.996 8.145 1.996zm.285-13.56c-2.85 0-5.05-1.996-5.05-5.132 0-3.014 2.077-5.09 5.05-5.09 2.85 0 5.01 2.036 5.01 5.05 0 3.013-2.078 5.171-5.01 5.171zm22.272 4.708c2.502 0 4.418-.938 5.747-2.658l.078.039v2.267h4.887V18.35h-5.121v2.19l-.078.038c-1.369-1.642-3.402-2.502-5.63-2.502-5.122 0-8.992 4.105-8.992 9.891 0 5.904 3.87 9.852 9.11 9.852zm.978-4.613c-2.894 0-4.887-2.15-4.887-5.2 0-3.284 2.11-5.356 4.887-5.356 2.736 0 4.847 2.268 4.847 5.356 0 3.128-2.228 5.2-4.847 5.2zm12.973 4.261h5.122v-9.539c0-3.44 1.72-5.278 4.026-5.278 2.346 0 3.363 1.916 3.363 4.965v9.852h5.121v-9.539c0-3.44 1.759-5.278 3.91-5.278 2.384 0 3.323 1.916 3.323 4.965v9.852h5.121V26.402c0-5.864-2.619-8.327-6.724-8.327-2.737 0-5.122 1.017-6.685 3.01h-.079c-1.133-2.072-3.127-3.01-5.629-3.01-2.111 0-4.184.939-5.708 2.776h-.039v-2.502h-5.122v19.117zm50.94-9.734c0-5.59-3.753-9.657-9.148-9.657-5.669 0-9.695 3.988-9.695 9.813 0 5.982 4.144 9.93 10.008 9.93 4.261 0 6.724-1.564 8.327-3.636l-3.323-3.088c-1.016 1.25-2.502 2.15-4.652 2.15-2.581 0-4.418-1.368-5.044-3.675h13.41a18.93 18.93 0 0 0 .117-1.837zm-9.187-5.2c2.228 0 3.597 1.33 4.105 3.362h-8.405c.586-2.19 2.228-3.362 4.3-3.362zm18.524 15.286c5.004 0 7.388-2.58 7.388-5.942 0-3.793-2.423-4.692-6.567-6.216-1.877-.704-2.815-1.251-2.815-2.033 0-1.017 1.016-1.408 1.798-1.408 1.407 0 3.128.626 4.574 2.033l2.502-3.792c-2.189-1.681-4.339-2.385-6.959-2.385-3.948 0-6.92 2.229-6.92 5.669 0 3.714 2.737 5.2 5.904 6.255 2.463.821 3.44 1.251 3.44 2.072 0 .939-.821 1.564-2.306 1.564-2.112 0-3.754-.743-5.317-2.19l-2.463 3.558c2.072 1.799 4.691 2.815 7.741 2.815z" fill="#fff" style="--darkreader-inline-fill:#181a1b"/>
    <circle cx="59.457" cy="34.208" r="3.258" fill="#fff" style="--darkreader-inline-fill:#e8e6e3"/>
</svg>