<svg width="115" height="24.669" viewBox="0 0 235.415 50.5">
   <path fill="#e4001e" d="M182.94 50.107a23.427 23.427 0 0 0-1.118-.386c-.033-.002-.271-.39-.53-.863-.427-.783-.481-2.089-.602-14.57l-.132-13.708h-3.691c-2.98 0-3.836-.085-4.443-.444-.846-.5-1.618-1.536-1.403-1.884.078-.126-.05-.303-.284-.392-.363-.14-.373-.228-.064-.608.223-.276.239-.372.041-.253-.317.19-1.122-.766-1.234-1.465-.03-.19-.268-.666-.53-1.059-.26-.392-.498-.868-.528-1.058-.03-.19-.263-.657-.517-1.039-.254-.382-.51-.95-.57-1.262l-.11-.566 12.566.014 12.566.015-.079 6.87c-.055 4.861.006 6.869.212 6.869.16 0 .994-.733 1.853-1.627 1.704-1.776 4.117-4.195 4.185-4.195.023 0 1.496-1.423 3.273-3.162 1.777-1.74 3.231-3.096 3.231-3.015 0 .082.387-.334.86-.924.473-.59.947-1.08 1.053-1.087.106-.007.685-.548 1.287-1.2.602-.654 1.218-1.112 1.37-1.018.15.093.2.05.11-.096-.172-.279 1.128-1.574 1.472-1.466.109.034.171-.027.138-.136-.078-.26 4.523-4.776 4.693-4.606.071.071.13.012.13-.132 0-.144.565-.55 1.256-.904 1.233-.63 1.407-.644 9.026-.73 4.273-.047 8.083-.008 8.466.088.64.16.66.203.235.514-.254.186-.463.494-.463.684 0 .19-.074.271-.165.18-.09-.09-1.568 1.272-3.283 3.03-2.06 2.109-3.23 3.124-3.448 2.99-.211-.13-.262-.096-.142.098.203.329-4.678 5.46-5.213 5.48-.174.007-.292.14-.262.296.061.319-1.19 1.581-1.465 1.478-.097-.036-.182.083-.189.265-.007.182-.155.3-.33.265-.176-.037-.29.082-.253.264.036.182-.145.314-.402.293-.298-.024-.442.121-.397.397.04.245-.081.403-.28.362-.192-.04-.286.03-.209.155.199.32-1.805 2.222-2.078 1.974-.124-.113-.15-.074-.06.086.175.306-1.642 2.112-2.018 2.007-.12-.034-.15.047-.069.18.082.132-.028.388-.245.568-.216.18-.401.223-.41.096-.01-.127-.126.04-.259.37-.133.331-.512.71-.843.844-.33.133-.504.249-.384.258.243.019-.069.341-1.362 1.408-.484.399-.797.726-.695.726.101 0 .037.177-.142.394-.18.216-.403.36-.496.317-.092-.041-.488.258-.879.665-.39.407-.636.74-.545.74.09 0-.09.238-.403.53-.313.29-.7.529-.86.529-.16 0-.238.089-.173.198.17.288-1.31 1.661-1.553 1.442-.113-.102-.128-.05-.034.116.204.357-.446.972-.729.689-.108-.108-.156-.06-.108.108.049.167 0 .286-.107.264-.107-.021-.5.41-.874.96-.373.55-.791.93-.929.844-.138-.085-.25.038-.25.273 0 .236-.09.38-.199.323-.109-.059-.407.113-.661.38-.255.269-.388.488-.295.488.092 0-.533.662-1.39 1.471-.856.81-2.396 2.3-3.423 3.315-1.027 1.013-1.969 1.75-2.093 1.637-.125-.113-.146-.065-.048.107.193.335-4.182 4.761-4.598 4.652-.131-.035-.17.114-.088.33.083.217.036.394-.104.394-.14 0-.837.58-1.55 1.29-1.227 1.222-3.164 2.693-3.514 2.667-.089-.006-.638-.183-1.22-.393zM52.234 49.01c-1.374-.18-4.348-1.223-4.195-1.471.081-.131-.014-.216-.21-.19-.651.09-.893-.005-2.285-.903-1.583-1.02-3.615-3.201-3.363-3.61.094-.151.072-.243-.047-.203-.12.04-.219.01-.219-.066s-.254-.411-.566-.746c-.311-.334-.71-1.165-.885-1.846a24.796 24.796 0 0 0-.606-2.004c-.407-1.085-.326-5.29.139-7.171.467-1.892 1.468-4.101 1.86-4.101.153 0 .205-.075.114-.165-.175-.175 1.096-2.012 1.514-2.188.135-.058.493-.371.795-.697.72-.776 2.737-1.892 4.608-2.55 1.998-.7 6.195-.949 7.898-.466.698.197 1.388.37 1.534.382.684.06 1.915.513 2.513.925.364.25.9.53 1.19.622 1.094.344 4.041 3.668 4.197 4.734.033.224.2.576.371.782.474.571 1.114 3.602 1.106 5.235-.004.8-.16 2.11-.347 2.91l-.339 1.456-8.58.063c-4.718.035-8.682.065-8.809.067-.127 0-.087.175.089.387.176.212.23.54.122.728-.108.188-.1.255.017.148.118-.107.516.132.885.53.369.397.738.727.82.732.083.005.448.18.811.39.984.564 9.333.475 10.28-.11.372-.23 2.321-.382 2.595-.203.257.168 1.148 4.86 1.148 6.04 0 .6-1.354 1.238-3.307 1.56-.582.095-1.594.35-2.249.566-1.148.378-6.83.664-8.599.433zm6.637-17.12c.04-.272-.029-.689-.154-.925a6.32 6.32 0 0 1-.37-.894c-.079-.255-.706-.82-1.394-1.256-2.24-1.421-5.2-.93-6.765 1.122-.588.77-.867 1.649-.761 2.39.016.113 2.131.172 4.7.132 4.336-.067 4.677-.107 4.744-.568zm54.879 16.794c-3.376-.929-5.155-1.94-7.229-4.113-4.085-4.28-4.982-11.165-2.179-16.731.353-.7.858-1.518 1.122-1.817.264-.3.608-.768.763-1.04.155-.274.499-.625.764-.78.265-.155.793-.562 1.173-.904.855-.77 1.581-1.15 3.9-2.044 4.005-1.543 11.6-1.039 14.4.956.401.285.835.519.964.519.402 0 3.153 2.719 4.015 3.969.832 1.206 1.726 3.425 2.036 5.058.273 1.434.186 5.332-.147 6.604-.463 1.766-1.12 3.149-1.412 2.969-.143-.089-.178-.028-.078.134.316.51-1.035 2.54-1.5 2.253-.16-.1-.188-.035-.068.16.223.361-1.065 1.872-1.596 1.872-.176 0-.384.168-.463.374-.23.598-3.848 2.243-5.866 2.667-2.53.531-6.456.483-8.6-.106zm7.243-8.721c.418-.238.979-.548 1.246-.689.267-.141.788-.812 1.158-1.49.523-.963.672-1.614.672-2.953 0-3.783-2.022-5.863-5.689-5.852-2.166.006-2.783.113-3.26.564-.192.182-.54.33-.772.33-.232 0-.35.073-.261.161.088.088-.08.416-.376.728-1.395 1.477-1.816 3.71-1.118 5.93.492 1.562.769 1.941 2.125 2.907 1.615 1.15 4.588 1.322 6.275.364zM.16 47.673c-.237-1.169-.2-36.416.04-36.789.165-.258 1.447-.32 5.488-.265l5.272.072.055 7.254c.031 4.201.16 7.318.304 7.408.138.085 3.196.096 6.797.023l6.546-.132.028-7.277.029-7.276 5.49-.071 5.49-.072-.019 18.46c-.01 10.154-.1 18.658-.198 18.899-.16.39-.77.434-5.472.397l-5.291-.042-.05-6.576c-.027-3.617-.098-6.624-.158-6.684-.149-.149-13.161-.182-13.31-.034-.065.066-.147 3.084-.18 6.707l-.06 6.587-5.327.072-5.326.071zm72.498.55c-.1-.1-.182-8.617-.182-18.928V10.548l5.225.072 5.226.071v37.571l-5.044.072c-2.774.04-5.125-.01-5.225-.11zM88.48 47.8c-.08-.327-.112-6.072-.071-12.766l.073-12.17 5.226-.072 5.225-.072v12.677c0 11.316-.045 12.695-.418 12.838-.23.088-2.55.16-5.155.16-4.692 0-4.737-.005-4.88-.595zm48.879.374c-.265-.167-.329-2.973-.302-13.227.018-7.342.136-13.078.27-13.16.55-.34 13.727-1.437 17.258-1.437 2.746 0 5.107.464 6.828 1.342 1.385.707 3.238 2.514 2.99 2.915-.122.197-.089.254.085.146.168-.103.591.448 1.033 1.349l.749 1.524V48.263l-5.073.071-5.073.072-.087-8.142c-.084-7.972-.099-8.162-.698-9.125-.739-1.188-1.288-1.323-4.944-1.213l-2.646.08-.07 9.194-.07 9.195-4.957-.004c-2.727-.002-5.109-.1-5.293-.218zm56.374-.114a.405.405 0 0 1 .462-.245c.266.063.261-.025-.024-.397-.202-.263-.275-.401-.161-.307.113.093.484-.085.825-.397 1.579-1.444.788-1.352 12.835-1.493l11.252-.133.046-11.217c.037-8.986.116-11.26.397-11.439.193-.122.255-.224.139-.226-.117-.002.15-.391.594-.864.443-.473.806-.95.807-1.058 0-.11.187-.199.414-.199.226 0 .338-.119.249-.264-.09-.146-.053-.265.083-.265s.322.372.413.827c.211 1.058.218 27.038.007 27.589-.142.368-1.722.414-14.308.414-11.105 0-14.124-.07-14.03-.326zm38.306-1.936c.013-.308.076-.37.16-.16.077.192.067.42-.02.508-.089.088-.151-.069-.14-.348zm.01-1.991c-.386-1.104-.202-1.288.235-.235.184.445.274.872.198.948-.075.075-.27-.246-.434-.713zM88.526 18.056c-.097-.097-.176-1.824-.176-3.837v-3.66h10.583v7.673H93.82c-2.814 0-5.195-.08-5.292-.176zm92.759-11.388c-.578-.111-.596-.208-.596-3.255V.273l1.125-.163c1.673-.243 28.958-.038 29.214.22.122.12-.434.8-1.234 1.51l-1.456 1.29-12.17.077-12.171.076-.08 1.654c-.05 1.052-.194 1.661-.396 1.675-.175.012-.616.055-.98.096-.363.04-.929.023-1.256-.04z"/>
</svg>