<svg width="190" viewBox="0 0 102.5 11.5">
    <path fill="#eb3e27" d="M13.5 11.2c.1-.2 0-1-.3-1.6-.3-.8-.5-2.3-.6-5.4L12.5 0H1L.9 4.2C1 7.3.7 8.8.3 9.6c-.2.7-.4 1.4-.3 1.6.2.5 13.4.5 13.5 0zM1.8 9.4l.3-.8h9.4l.3.8.2.8H1.5zm.5-5.2v-3h9v3l-.1 3L9.4 5 7.6 2.8c-.1 0-.5.4-.9 1l-.7.9.6.8c1 1.2.2 1.2-.9 0l-1-1.2-1 1.5-1.3 1.5-.1-3zm81 4.2c0-.8-.1-.9-.8-.8-.6 0-.7.2-.8 1 0 .7 0 .8.7.8.8 0 .8 0 .8-1zm4.4-2v-3h1c.9 0 1-.1.8-.8v-.7h-5.1v.7c-.1.7 0 .7.8.7h1v6h1.5zM94.4 9c1-.6 1.3-1.2 1.3-3.5 0-2 0-2.2-.7-2.8-1.5-1.5-3.9-1-4.6 1-.2.7-.3 1.6-.2 2.6.2 1.4.3 1.8 1 2.4.9.8 2 1 3.2.3zm-2.2-1.5c-.4-.4-.5-.8-.5-1.9 0-1.7.4-2.4 1.5-2.2.8 0 .8 0 .8 2 .1 1.7 0 2-.3 2.3-.7.5-.8.5-1.5-.2zm6.4.4V6.5h1.3c1.1 0 1.4-.1 2-.8.8-1 .8-1.6.3-2.7-.5-.9-2-1.3-3.8-1.2H97V9c0 .2.5.4.8.4.7 0 .7 0 .7-1.5zm0-3.7c0-.9 0-.9 1-.9.8 0 1.1.1 1.2.5.3.8-.3 1.4-1.3 1.4-.9 0-1 0-1-1z"/>
    <path fill="#1f186d" d="M19 7.8V6.2h2.3v1.5c.2 1.5.2 1.6.9 1.6l.7.1V5.6L22.8 2H22c-.6 0-.6 0-.7 1.5v1.5H19V3.3c0-1.6 0-1.6-.8-1.5h-.7v3.5V9c0 .2.4.4.8.4.6 0 .7 0 .7-1.6zM28.5 9c1-.6 1.3-1.2 1.3-3.4 0-1.8 0-2.1-.7-2.8-1-1.1-2.3-1.3-3.5-.5-1.1.7-1.5 1.9-1.3 4 .1 1.4.3 1.7 1 2.4 1 .8 2 1 3.2.3zm-2.3-1.5c-.4-.7-.5-3-.1-3.7.3-.6 1.7-.7 2 0l.1 2c0 1.4 0 1.8-.5 2-.7.4-1 .3-1.5-.3zM35 8.9c2-1.2 1-4-1.2-4-.9 0-1.4-.3-1.4-.8 0-.7.8-1 1.7-.8.7.2 1 .2 1.4-.3.5-.5.5-.5-.5-.9-2-.8-4.1.2-4.1 2 0 1 1 2.1 2 2.1 1.5 0 2.2 1 1 1.6-.3.3-.7.3-1.5 0-.8-.2-1.1-.2-1.4 0-.6.5-.5.7.3 1.2 1 .5 2.7.5 3.7-.1zM40 6.3v-3h1c1.1 0 1.2 0 1-.7v-.7H36.8v.7c-.2.7 0 .7.9.7h1L38.6 6v3c.1.2.5.4.8.4h.7zm4.6-.7V1.9l-.7-.1-.7-.1V9.4h.7l.7-.1zm3.1 1.6l.1-2.1 1.4 2.1C50.5 9 51 9.4 51.4 9.4h.6V1.7h-.7c-.7.2-.7.2-.8 2.2V6L49 4c-1-1.7-1.5-2.1-2-2.1h-.7V9c0 .2.4.4.8.4.7 0 .7 0 .7-2.2zm10.4 1.4c.6-.6 1-3.2.6-3.4h-1.5c-1 0-1.2.2-1.2.6 0 .4.2.6.8.6.8.1.9.4.2 1.1-.7.7-1.2.7-1.8 0-.4-.7-.5-3 0-3.7.3-.7 1.6-.7 2 0 .2.3.6.6 1 .6 1.5 0 .2-2.2-1.6-2.6-2.2-.4-3.5 1.4-3.3 4.4.1 1.5.3 1.8 1 2.5.8.7 1 .7 2 .6.8 0 1.5-.3 1.8-.7zm6 .4c1-.5 1.3-1.4 1.3-3.6 0-1.6 0-2-.8-2.7-.6-.7-.9-.8-2-.8-.9 0-1.3.1-1.9.7-.7.7-.7.9-.7 3 0 2.2 0 2.3.9 3 1 .9 2 1 3.2.4zM62 7.6c-.3-.4-.5-1-.5-2 0-1.8.3-2.3 1.2-2.3 1 0 1.2.5 1.2 2.3 0 2.2-.9 3.1-2 2zm7.9-.3l.7-1.9.7 2c.5 1.8.6 2 1.2 2s.7-.3 1.5-3c1-4.1 1.1-4.5.2-4.5-.6 0-.7.1-1.2 2-.6 2.4-.7 2.4-1.4-.6-.6-2.4-1.5-2-2.3.8-.2 1-.5 1.9-.6 1.9l-.5-1.7a12 12 0 0 0-.6-2.1c-.3-.5-1.2-.6-1.4-.2l.8 3.8c1 3.5 1 3.6 1.6 3.5.6 0 .8-.3 1.3-2zm8.8.6c0-1.1.3-1.8 1.1-3.5l1-2.4c0-.2-.2-.3-.6-.3-.5 0-.8.3-1.4 1.5l-.7 1.4-.7-1.4c-.6-1.2-.9-1.5-1.4-1.5-.4 0-.7.1-.7.3l1 2.4c1 1.7 1.1 2.4 1.1 3.5 0 1.4 0 1.5.7 1.5.6 0 .6 0 .6-1.5z"/>
</svg>