<svg width="93" height="24" viewBox="0 0 93 24" fill="none" xmlns="http://www.w3.org/2000/svg">
    <g clip-path="url(#clip1)">
        <path d="M24.3125 18.196V0.026062H27.1355V7.1894C28.0245 5.8653 29.3579 5.20301 31.1355 5.20254C32.6518 5.20254 33.8239 5.65131 34.6519 6.54885C35.4799 7.4464 35.894 8.69696 35.8941 10.3005V18.196H33.071V10.6927C33.071 8.61885 32.1472 7.58181 30.2996 7.58153C29.3756 7.58153 28.6175 7.8604 28.0252 8.41814C27.433 8.97588 27.1365 9.76021 27.136 10.7711V18.1958L24.3125 18.196Z" fill="#323232" style="--darkreader-inline-fill: #c8c4bd;" data-darkreader-inline-fill=""></path>
        <path d="M49.2358 16.6278C47.9809 17.8827 46.4037 18.5101 44.5039 18.5101C42.6042 18.5101 41.0225 17.8827 39.7587 16.6278C38.495 15.3728 37.8632 13.7778 37.8633 11.8427C37.8634 9.90774 38.4952 8.31742 39.7587 7.0718C41.0223 5.82589 42.604 5.2028 44.5039 5.20251C46.4038 5.20223 47.9811 5.82533 49.2358 7.0718C50.4909 8.31817 51.1184 9.90849 51.1183 11.8427C51.1182 13.777 50.4907 15.372 49.2358 16.6278ZM41.8242 15.0328C42.4947 15.8171 43.388 16.2093 44.5039 16.2093C45.6199 16.2093 46.5131 15.8171 47.1836 15.0328C47.8543 14.2485 48.1898 13.1852 48.1901 11.8427C48.1901 10.5183 47.8503 9.46381 47.1706 8.67938C46.4909 7.89495 45.602 7.50278 44.5039 7.50288C43.3883 7.50288 42.495 7.89067 41.8242 8.66625C41.1533 9.44184 40.8178 10.5005 40.8176 11.8422C40.8176 13.1852 41.1531 14.2487 41.8242 15.0328Z" fill="#323232" style="--darkreader-inline-fill: #c8c4bd;" data-darkreader-inline-fill=""></path>
        <path d="M57.653 18.5097C55.0558 18.5097 53.7572 17.1153 53.7572 14.3266V7.89528H51.7969V5.5163H53.8361L54.4898 1.77844H56.6071V5.5163H61.6528V7.89528H56.6073V14.2483C56.6073 15.4162 57.0343 16.0001 57.8883 16C58.6898 16 59.4131 15.2679 60.0582 13.8038L62.2544 14.9281C61.1735 17.3161 59.6397 18.5099 57.653 18.5097Z" fill="#323232" style="--darkreader-inline-fill: #c8c4bd;" data-darkreader-inline-fill=""></path>
        <path d="M63.1619 23.9999C61.907 23.9999 60.8699 23.6513 60.0508 22.9541L61.0966 20.7319C61.6022 21.3242 62.1512 21.6206 62.7437 21.6212C63.5279 21.6212 63.92 21.1158 63.92 20.1049V5.51627H66.7431V20.1565C66.7431 21.516 66.4076 22.4964 65.7365 23.0976C65.0655 23.6989 64.2073 23.9996 63.1619 23.9999ZM65.3318 3.37231C64.8677 3.38806 64.4163 3.21883 64.0769 2.90185C63.9136 2.74799 63.785 2.56121 63.6994 2.35389C63.6138 2.14657 63.5732 1.92342 63.5803 1.69923C63.574 1.4732 63.615 1.24835 63.7005 1.03903C63.786 0.829703 63.9142 0.640498 64.0769 0.483486C64.4182 0.172345 64.8634 -0.00012207 65.3253 -0.00012207C65.7871 -0.00012207 66.2324 0.172345 66.5737 0.483486C66.7398 0.638546 66.8712 0.827086 66.9591 1.03666C67.0469 1.24622 67.0894 1.47205 67.0835 1.69923C67.0876 1.9223 67.0443 2.14369 66.9564 2.34875C66.8685 2.55381 66.7381 2.73786 66.5737 2.88872C66.4087 3.04711 66.2141 3.17136 66.001 3.25434C65.7879 3.33733 65.5605 3.37742 65.3318 3.37231Z" fill="#323232" style="--darkreader-inline-fill: #c8c4bd;" data-darkreader-inline-fill=""></path>
        <path d="M73.7553 18.5098C72.3084 18.5098 71.1362 18.1481 70.2389 17.4249C69.3415 16.7016 68.8928 15.7302 68.8926 14.5105C68.8926 13.3951 69.3588 12.4494 70.2913 11.6733C71.2237 10.8973 72.3958 10.5095 73.8075 10.51C75.2542 10.51 76.4743 10.9719 77.4677 11.8957V10.353C77.4677 9.44699 77.2367 8.74547 76.7748 8.24842C76.3128 7.75138 75.6549 7.503 74.8011 7.50328C73.0756 7.50328 72.0037 8.38341 71.5853 10.1437L68.997 9.59473C69.3452 8.23534 70.0337 7.16348 71.0625 6.37914C72.0913 5.5948 73.3723 5.20264 74.9055 5.20264C76.5789 5.20264 77.8992 5.64275 78.8664 6.52298C79.8336 7.4032 80.3172 8.68854 80.3174 10.379V18.1961H77.5722V16.6011C76.6482 17.8737 75.3759 18.51 73.7553 18.5098ZM74.2775 16.4183C75.5326 16.4183 76.5959 15.7909 77.4676 14.5361V14.1435C76.5958 13.0978 75.5325 12.5749 74.2775 12.575C73.5456 12.575 72.9528 12.7538 72.499 13.1114C72.2845 13.2694 72.1109 13.4764 71.9927 13.7152C71.8744 13.9539 71.815 14.2175 71.8192 14.4838C71.8123 14.753 71.8692 15.02 71.985 15.2631C72.1009 15.5061 72.2726 15.7184 72.486 15.8825C72.9314 16.2398 73.5288 16.4184 74.2781 16.4183H74.2775Z" fill="#323232" style="--darkreader-inline-fill: #c8c4bd;" data-darkreader-inline-fill=""></path>
        <path d="M83.0645 18.196V5.51626H85.8096V7.7123C86.5065 6.10891 87.7091 5.30716 89.4175 5.30707C90.428 5.30707 91.2646 5.63821 91.9273 6.3005C92.59 6.96279 92.921 7.85167 92.9204 8.96715C92.9134 9.63477 92.7987 10.2969 92.5806 10.9279L89.9924 10.6665C90.0455 10.32 90.0803 9.97097 90.0968 9.62083C90.0968 8.31366 89.5566 7.66003 88.4761 7.65994C87.7439 7.65994 87.1295 8.04773 86.6329 8.82331C86.1364 9.5989 85.8879 10.6229 85.8877 11.8954V18.196H83.0645Z" fill="#323232" style="--darkreader-inline-fill: #c8c4bd;" data-darkreader-inline-fill=""></path>
        <path d="M6.68018 7.45632C8.7842 6.28744 11.6658 4.68621 11.6658 0.026062H8.17653C8.17653 2.63343 6.90715 3.33863 4.98564 4.40616C2.88163 5.57547 0 7.176 0 11.8366H3.48929C3.48929 9.22906 4.75867 8.52386 6.68018 7.45632Z" fill="#FF3C00" style="--darkreader-inline-fill: #ff501a;" data-darkreader-inline-fill=""></path>
        <path d="M12.7195 6.38544C12.7195 8.99294 11.4501 9.69814 9.52861 10.7655C7.42516 11.9344 4.54297 13.5354 4.54297 18.1959H8.03212C8.03212 15.5884 9.3015 14.8832 11.223 13.8157C13.327 12.6468 16.2085 11.046 16.2085 6.38544H12.7195Z" fill="#FF3C00" style="--darkreader-inline-fill: #ff501a;" data-darkreader-inline-fill=""></path>
    </g>
    <defs>
        <clipPath id="clip1">
            <rect width="92.9209" height="24" fill="white" style="--darkreader-inline-fill: #e8e6e3;" data-darkreader-inline-fill=""></rect>
        </clipPath>
    </defs>
</svg>