<svg xmlns="http://www.w3.org/2000/svg" width="71" height="29" viewBox="0 0 141.73 58.27">
    <defs>
        <style>.cls-1{fill:#e30613;}</style>
    </defs>
    <g id="Warstwa_2" data-name="Warstwa 2">
        <path class="cls-1" d="M141.73,56.18h-5.29V53.07h4.68v-1.8h-4.68V48.19h5.29V46.35h-7.42V58h7.42ZM128.35,58V48.19h3.37V46.35h-8.81v1.84h3.33V58Zm-10-11.68v7.28c0,1.94-.79,2.89-2.5,2.89s-2.48-1-2.48-2.91V46.35h-2.12v7.83c0,3.07,2.22,4.09,4.6,4.09s4.62-1,4.62-4.09V46.35ZM105.44,58V48.19h3.37V46.35H100v1.84h3.33V58ZM95.09,58h2.12V46.35H95.09Zm-6.17,0V48.19h3.37V46.35h-8.8v1.84h3.33V58ZM73.1,55.29c.45,2.12,1.88,3,4.18,3s4.23-1,4.23-3.38c0-2.2-1.41-3-3.43-3.64-1.53-.54-2.37-.9-2.37-2s.72-1.48,1.71-1.48a1.85,1.85,0,0,1,2,1.8l2.11-.48c-.22-2.22-1.91-3-4.13-3-1.9,0-3.85.87-3.85,3.37,0,2.12,1.43,3,3.53,3.67,1.79.63,2.26,1.07,2.26,2s-.79,1.49-1.92,1.49a2.22,2.22,0,0,1-2.34-2ZM62.41,46.35H60.33V58h2.12V52.38c0-1.57-.12-2.72-.12-2.72h.08a15,15,0,0,0,1.27,2.08L68.16,58h2V46.35H68.06v5.71c0,1.47.08,2.64.08,2.64h-.08a18.3,18.3,0,0,0-1.21-2ZM54,58h2.12V46.35H54Z"/>
        <path class="cls-1" d="M83,29.93A15.39,15.39,0,0,0,84,31.87a13.91,13.91,0,0,0-2.07-.13H74.1l-3.36,8.81H99.37L81.62,1.68H71.38L53.63,40.55H65L75.66,15.42c.39-1,.65-2.08.65-2.08s.26,1,.65,2.08ZM132.4,40.55h9.33V1.68H131.5V22.15c0,1.3.13,3,.13,3s-1.17-1.68-2.21-2.85L112.58,1.68h-9.33V40.55h10.24V21.25c0-1.3-.13-3-.13-3s1.17,1.68,2.2,2.85ZM40.16,33.94a12,12,0,1,1,0-24.09,20.14,20.14,0,0,1,9.72,2.72L55.19,3.5A29.83,29.83,0,0,0,40.29,0c-13.47,0-22.8,8.94-22.8,21.89,0,10.24,6.09,18.27,15.29,18.66H50.91l-2.33-9.07a16.12,16.12,0,0,1-8.42,2.46M0,40.55H10.24V1.68H0Z"/>
    </g>
</svg>