<svg width="86.908" height="21.753">
   <path fill="#e5322d" stroke-width=".291" d="M27.273.644c-1.39.671-2.434 1.802-3.195 3.084C22.853 1.669 20.906 0 17.958 0c-2.95 0-6.565 2.503-6.565 6.731 0 4.281 3.572 6.31 5.341 7.456 1.891 1.224 5.118 3.448 7.343 7.566 2.226-4.117 5.452-6.342 7.344-7.566 1.33-.862 3.677-2.222 4.762-4.663zm-.107 9.123V1.723l8.044 8.044h-8.044z"/>
   <g fill="#e5e4e4">
      <path d="M0 17.097h.997c.316 0 .681-.438.681-.73V5.788c0-.292-.365-.706-.68-.706H0V2.527h8.003v2.554H6.98c-.316 0-.657.414-.657.706v10.58c0 .293.34.73.657.73h1.022v2.457H0zM38.626 17.097h.827c.34 0 .705-.438.705-.73V5.788c0-.292-.365-.706-.705-.706h-.827V2.527h7.735c4.548 0 7.03 1.606 7.03 5.4 0 3.697-2.628 5.376-7.2 5.376h-1.412v3.794h1.97v2.457h-8.123zm7.492-6.3c2.043 0 2.578-1.167 2.578-2.797 0-1.605-.535-2.748-2.578-2.748h-1.411v5.546h1.41zM54.874 17.097h.827c.34 0 .705-.438.705-.73V5.788c0-.292-.364-.706-.705-.706h-.827V2.527h7.419c6.056 0 9.219 2.627 9.219 8.416 0 5.692-3.211 8.611-9.34 8.611h-7.298zm7.297-.121c3.065 0 4.573-1.824 4.573-5.91 0-4.063-1.484-5.815-4.573-5.815h-1.143v11.724h1.143zM73.068 17.097h.827c.34 0 .705-.438.705-.73V5.788c0-.292-.365-.706-.705-.706h-.827V2.527h13.84v5.254h-2.724l-.413-2.505h-4.55v4.767h2.214l.195-1.605h2.506v5.91H81.63l-.195-1.678h-2.213v4.427h1.97v2.457h-8.124v-2.457z"/>
   </g>
   <path fill="#fff" d="M35.21 9.767h-8.044V1.723z"/>
</svg>