<svg width="130" fill="#aaa" viewBox="0 0 1268.2 128.4">
    <path d="M0 126.2V2.3h27.9v123.9H0zM57.2 126.2V2.3h28.7l32.3 61.6 12.2 27.4h.8l-2.2-22c-.8-8.1-1.2-15.8-1.2-23.2V2.3h26.6v123.9h-28.7L93.3 64.4l-12.2-27h-.8l2.2 22c.8 7.9 1.2 15.5 1.2 22.8v43.9H57.2zM183.5 126.2V2.3h35c9.5 0 18.1 1.2 25.7 3.6A51.9 51.9 0 0 1 263.8 17c5.4 5 9.6 11.4 12.5 19.1a78.3 78.3 0 0 1 4.4 27.6c0 10.6-1.5 19.9-4.4 27.7a49.4 49.4 0 0 1-31.4 31 77.3 77.3 0 0 1-24.8 3.8h-36.6zm28-22.7h5.3c5.3 0 10.1-.7 14.4-2.1 4.3-1.4 8-3.6 11-6.7a32 32 0 0 0 7.1-12.3 59.6 59.6 0 0 0 2.6-18.8 58 58 0 0 0-2.6-18.5c-1.7-5-4.1-9-7.1-12s-6.7-5.1-11-6.4a49.7 49.7 0 0 0-14.4-1.9h-5.3v78.7zM304.2 126.2V2.3h27.9v123.9h-27.9zM361.4 126.2V2.3h77.5v23.6h-49.6v24.9h42.2v23.4h-42.2v28.5h51.5v23.6h-79.4zM503.5 126.2V2.3h27.9V50h42.8V2.3h28.1v123.9h-28.1V74.5h-42.8v51.7h-27.9zM615.8 126.2L654.5 2.3h33.6l38.8 123.9h-29.6l-7.6-29.5h-37.8l-7.6 29.5h-28.5zm44.8-62.7l-3 11.4H684l-2.9-11.4c-1.8-6.2-3.5-12.8-5.1-19.8-1.6-7-3.3-13.7-4.9-20.1h-.8l-4.7 20.2c-1.5 6.9-3.2 13.5-5 19.7zM790.2 128.4c-7.9 0-15.3-1.4-22.2-4.1a50 50 0 0 1-18.3-12.1 54.8 54.8 0 0 1-12.4-19.9c-3-7.9-4.6-17.1-4.6-27.5 0-10.3 1.6-19.4 4.8-27.5 3.2-8 7.4-14.9 12.7-20.4a52.7 52.7 0 0 1 18.6-12.7 58.8 58.8 0 0 1 22.4-4.4c8 0 15.1 1.6 21.5 4.8 6.3 3.2 11.6 7 15.8 11.3L813.6 34a47 47 0 0 0-10-7.1 25.5 25.5 0 0 0-11.9-2.8 28.2 28.2 0 0 0-21.6 10.7 40 40 0 0 0-6.5 12.5 53.9 53.9 0 0 0-2.4 16.7 47 47 0 0 0 8.2 29.7c5.4 7 12.7 10.5 21.9 10.5 5.1 0 9.6-1.1 13.6-3.3 4-2.2 7.5-5 10.5-8.3l14.8 17.5a49.7 49.7 0 0 1-40 18.3zM849.1 126.2V2.3H877V53h.8l36.9-50.7h30.8L908 51.7l44.3 74.5h-30.6L891.5 74l-14.4 19v33.2h-28zM965.8 126.2V2.3h77.5v23.6h-49.6v24.9h42.2v23.4h-42.2v28.5h51.5v23.6h-79.4zM1069.9 126.2V2.3h44.7c6.6 0 12.8.6 18.5 1.9a42 42 0 0 1 15.1 6.4c4.3 3 7.7 6.9 10.3 11.9a40.4 40.4 0 0 1 3.8 18.4c0 9.1-2 16.6-6 22.5a36 36 0 0 1-16.1 13.2l28.1 49.6H1137l-23.8-44.6h-15.4v44.6h-27.9zm27.9-66.9h14.4c7.3 0 12.9-1.5 16.8-4.7 3.9-3.1 5.8-7.7 5.8-13.8s-1.9-10.3-5.8-12.7a32.3 32.3 0 0 0-16.8-3.6h-14.4v34.8zM1221.5 128.4a68.6 68.6 0 0 1-45.8-17.9l16-19.2a59 59 0 0 0 14.7 9.3 39 39 0 0 0 15.9 3.6c5.8 0 10.2-1.1 13-3.2 2.9-2.2 4.3-5.1 4.3-8.7a9.6 9.6 0 0 0-4.8-8.6 30.3 30.3 0 0 0-5.7-3l-7.3-3.1-16.1-6.8a41.5 41.5 0 0 1-17.2-12 33.1 33.1 0 0 1-7.7-21.8c0-5.1 1.1-9.8 3.2-14.3a37 37 0 0 1 9.1-11.8c3.9-3.4 8.6-6 14-7.9a57.8 57.8 0 0 1 57.7 13.5L1250.4 34a52.5 52.5 0 0 0-12.2-7.3 34.6 34.6 0 0 0-13.5-2.6c-4.8 0-8.6 1-11.5 2.9a9.6 9.6 0 0 0-4.3 8.3c0 1.9.5 3.5 1.4 4.8s2.3 2.5 4 3.6c1.7 1.1 3.7 2.1 6 3l7.4 3.1 16 6.5c7.6 3 13.6 7.2 18 12.5s6.6 12.4 6.6 21.1a35 35 0 0 1-12.2 26.9c-4 3.5-8.9 6.3-14.7 8.4-6 2.2-12.6 3.2-19.9 3.2z"/>
</svg>