<svg width="100" fill="none" viewBox="0 0 85 28">
    <path fill="#aaa" d="M78.1 16.555c-.383 1.03-1.34 1.602-2.52 1.602a3.174 3.174 0 1 1 0-6.347c1.18 0 2.107.504 2.52 1.603h3.237c-.536-2.816-2.878-4.624-5.758-4.624a6.196 6.196 0 1 0 0 12.39c2.88 0 5.369-2.023 5.758-4.624H78.1ZM64.767 9.1h3.371v11.86h-3.37V9.1ZM68.477 6.234a2.035 2.035 0 1 1-4.069 0 2.035 2.035 0 0 1 4.07 0ZM55.112 10.552c.566-1.02 1.85-1.717 3.7-1.717 2.99 0 4.573 1.903 4.573 4.728v7.396h-3.37v-7.043c0-1.383-.617-2.335-2.107-2.335-1.634 0-2.539 1.001-2.539 2.58v6.788H52V9.099h3.113v1.453Z" style="--darkreader-inline-fill: #d6d2cd;" data-darkreader-inline-fill=""></path>
    <path fill="#aaa" fill-rule="evenodd" d="M44.711 18.157a3.174 3.174 0 1 0 .001-6.347 3.174 3.174 0 0 0 0 6.347Zm0 3.021a6.196 6.196 0 1 0 0-12.388 6.196 6.196 0 1 0 0 12.388Z" clip-rule="evenodd" style="--darkreader-inline-fill: #d6d2cd;" data-darkreader-inline-fill=""></path>
    <path fill="#aaa" d="M33.96 9.1h3.37v11.86h-3.37V9.1ZM37.67 6.234a2.034 2.034 0 1 1-4.07 0 2.034 2.034 0 0 1 4.07 0Z" style="--darkreader-inline-fill: #d6d2cd;" data-darkreader-inline-fill=""></path>
    <path fill="#176BFF" d="M3.36 14C3.36 8.124 8.124 3.36 14 3.36c2.366 0 4.55.77 6.317 2.077a4.01 4.01 0 0 1 2.547-2.274A13.948 13.948 0 0 0 14 0C6.268 0 0 6.268 0 14s6.268 14 14 14 14-6.268 14-14c0-1.618-.275-3.175-.782-4.624a3.995 3.995 0 0 1-3.008 1.618c.28.952.43 1.96.43 3.006 0 5.876-4.764 10.64-10.64 10.64S3.36 19.876 3.36 14Z" style="--darkreader-inline-fill: #2a94ff;" data-darkreader-inline-fill=""></path>
    <path fill="#176BFF" d="M27.712 11.164a13.91 13.91 0 0 0-.494-1.788 3.995 3.995 0 0 1-3.008 1.618 10.6 10.6 0 0 1 .392 2.098 4.374 4.374 0 0 0 3.11-1.928ZM14 20.125A6.132 6.132 0 0 0 20.125 14 6.132 6.132 0 0 0 14 7.875 6.132 6.132 0 0 0 7.875 14 6.135 6.135 0 0 0 14 20.125ZM23.188 8.75a3.062 3.062 0 1 0 0-6.125 3.062 3.062 0 0 0 0 6.125Z" style="--darkreader-inline-fill: #2a94ff;" data-darkreader-inline-fill=""></path>
</svg>