<svg xmlns="http://www.w3.org/2000/svg" width="100" height="31.06" viewBox="0 0 338.052 104.998">
    <path fill="#31BA98" d="M318.693 46.578c-2.742 5.774-8.127 9.966-14.404 11.212-1.054.21-2.102.946-3.083 1.684a1.614 1.614 0 0 1-2.264-.321 1.619 1.619 0 0 1 .32-2.265c1.282-.961 2.676-1.927 4.396-2.27 5.359-1.063 9.774-4.499 12.114-9.426 4.02-8.469.417-18.657-8.032-22.713l-.067-.032c-8.503-4.037-18.707-.404-22.743 8.101-2.327 4.898-2.213 10.465.313 15.274.792 1.507.989 3.204 1.125 4.813.036.431-.099.85-.378 1.179a1.595 1.595 0 0 1-1.098.566 1.602 1.602 0 0 1-.834-.151 1.62 1.62 0 0 1-.912-1.325c-.111-1.331-.253-2.605-.765-3.578-3.003-5.718-3.14-12.338-.374-18.166 2.324-4.893 6.418-8.59 11.535-10.412 5.114-1.822 10.626-1.546 15.518.777l.081.038c10.048 4.826 14.334 16.944 9.552 27.015z"/>
    <path fill="#31BA98" d="M288.003 34.472a1.287 1.287 0 0 1-.611-1.714c3.231-6.806 11.397-9.714 18.202-6.482a1.286 1.286 0 1 1-1.104 2.324c-5.522-2.622-12.15-.262-14.772 5.262a1.289 1.289 0 0 1-1.715.61zM293.944 70.076c-.354.75-1.265 1.095-1.981.753l-12.073-5.796.065-.151-.071.149a1.47 1.47 0 0 1 1.265-2.653l12.074 5.795c.744.359 1.058 1.194.721 1.903zM296.485 66.689c-.354.749-1.265 1.093-1.981.753l-13.56-6.509.065-.151-.072.148a1.471 1.471 0 0 1-.69-1.954 1.471 1.471 0 0 1 1.956-.698l13.559 6.51c.745.356 1.06 1.191.723 1.901zM299.06 63.23c-.354.75-1.264 1.093-1.98.752l-15.047-7.223.065-.151-.072.149a1.467 1.467 0 0 1 1.265-2.65l15.046 7.222c.745.358 1.06 1.192.723 1.901zM289.456 71.807a.9.9 0 0 0-1.22.451l-5.508 12.515c-.208.47-.382.858-.387.862l-.009-.005c-.172-.082-1.022-1.852-1.022-1.852-.223-.463-.784-1.024-1.248-1.247l-1.744-.838c-.462-.223-1.255-.328-1.76-.232 0 0-2.093.392-2.269.308l-.005-.003c0-.006.195-.383.432-.84l6.306-12.131a.902.902 0 0 0-.412-1.234l-1.357-.65a.967.967 0 0 0-1.269.427l-7.811 15.237c-.234.457-.449 1.252-.477 1.765l-.729 13.362c-.029.514.328 1.116.792 1.338l2.2 1.057c.463.223 1.152.119 1.53-.229l9.802-9.041c.378-.349.859-1.018 1.07-1.487l6.988-15.588a.97.97 0 0 0-.46-1.258l-1.433-.687zm-16.282 23.671c-.378.348-.665.214-.637-.3l.505-9.249c.028-.513.053-.933.056-.932l.813.145c.443.079 3.397-.126 3.768.052.37.176.872.693 1.113 1.147 0 0 .79 1.315 1.155 1.651l.67.613c.004.001-.295.293-.674.642l-6.769 6.231z"/>
    <path fill="#31BA98" d="M270.071 82.833h-.001l.001-.004zM268.411 104.404c.13.063.541-.177.913-.531l2.016-1.92c.374-.355.299-.827-.166-1.049l-1.762-.846c-.464-.223-.879.015-.922.527l-.238 2.774c-.044.511.027.982.159 1.045z"/>
    <g>
        <path fill="#31BA98" d="M336.341 54.9c-.356.749-1.264 1.093-1.983.752l-12.073-5.795.066-.151-.071.149a1.472 1.472 0 0 1-.691-1.955 1.472 1.472 0 0 1 1.957-.698l12.073 5.796c.745.358 1.059 1.193.722 1.902zM279.167 27.454c-.355.749-1.264 1.093-1.981.753l-12.073-5.796.065-.152-.072.148a1.472 1.472 0 0 1-.691-1.954 1.474 1.474 0 0 1 1.958-.698l12.073 5.796c.744.359 1.058 1.194.721 1.903zM337.093 26.359l-12.635 4.438c-.371.133-.772.11-1.127-.06a1.469 1.469 0 0 1 .142-2.708l12.635-4.439c.39-.138.8-.12 1.154.05.327.157.576.436.701.784.278.782-.12 1.668-.87 1.935zM277.259 47.379l-12.637 4.438a1.452 1.452 0 0 1-1.127-.059 1.46 1.46 0 0 1-.748-.831 1.472 1.472 0 0 1 .891-1.877l12.635-4.438a1.49 1.49 0 0 1 1.155.048c.327.157.576.435.699.786.279.781-.12 1.665-.868 1.933z"/>
        <g>
            <path fill="#31BA98" d="M313.645 75.303a1.575 1.575 0 0 1-1.197-.067 1.426 1.426 0 0 1-.737-.802l-4.438-12.635c-.13-.37-.111-.769.058-1.123a1.466 1.466 0 0 1 1.962-.693c.351.169.617.463.749.831l4.438 12.635c.275.773-.091 1.589-.835 1.854zM292.625 15.468a1.57 1.57 0 0 1-1.197-.067 1.423 1.423 0 0 1-.737-.804l-4.438-12.636a1.446 1.446 0 0 1 .058-1.121c.167-.355.463-.622.834-.753a1.463 1.463 0 0 1 1.876.889l4.438 12.636c.276.776-.091 1.591-.834 1.856z"/>
        </g>
        <g>
            <path fill="#31BA98" d="M318.313 3.711l-5.795 12.073c-.168.353-.465.62-.834.752-.37.132-.768.112-1.124-.056l-.003-.002a1.471 1.471 0 0 1-.691-1.955l5.795-12.073c.352-.743 1.188-1.061 1.9-.722.75.36 1.092 1.267.752 1.983z"/>
        </g>
    </g>
    <g fill="#31BA98">
        <path d="M332.634 40.258l-8.03-.441a.784.784 0 1 1 .078-1.563l8.03.441c.432.022.766.354.745.785-.021.432-.391.801-.823.778zM276.052 37.152l-8.031-.441a.783.783 0 1 1 .08-1.564l8.03.441c.432.021.766.354.745.785-.023.432-.392.8-.824.779z"/>
    </g>
    <g>
        <path fill="#31BA98" d="M324.991 16.693L319 22.061a.783.783 0 1 1-1.05-1.162l5.99-5.366c.321-.29.792-.292 1.082.029.29.32.29.841-.031 1.131z"/>
    </g>
    <g>
        <path fill="#31BA98" d="M300.907 13.382l.441-8.031a.782.782 0 1 1 1.564.079l-.44 8.031c-.021.431-.353.766-.785.744-.433-.021-.801-.391-.78-.823z"/>
    </g>
    <g fill="#31BA98">
        <path d="M321.365 62.321l-5.366-5.99a.783.783 0 0 1 1.162-1.049l5.366 5.991c.29.32.292.791-.029 1.08-.32.29-.843.289-1.133-.032zM283.553 20.114l-5.367-5.99a.782.782 0 1 1 1.162-1.05l5.367 5.99c.29.321.292.792-.029 1.082-.321.289-.844.289-1.133-.032z"/>
    </g>
    <g>
        <g fill="#005380">
            <path d="M14.344 52.396h8.881v24.889c0 11.218-5.375 15.132-13.964 15.132-2.104 0-4.791-.351-6.544-.935l.994-7.187c1.227.409 2.804.701 4.557.701 3.739 0 6.076-1.694 6.076-7.771V52.396zM39.76 81.667l-2.746 10.108h-9.231l12.036-39.379h11.627l12.27 39.379h-9.582l-3.038-10.108H39.76zm9.99-6.661l-2.454-8.355c-.643-2.337-1.344-5.317-1.928-7.596h-.175c-.526 2.337-1.168 5.317-1.753 7.596l-2.396 8.355h8.706zM69.265 82.66c2.337 1.227 6.076 2.454 9.874 2.454 4.089 0 6.251-1.694 6.251-4.323 0-2.396-1.87-3.856-6.602-5.492-6.544-2.337-10.867-5.959-10.867-11.744 0-6.719 5.667-11.802 14.898-11.802 4.499 0 7.712.876 10.049 1.987l-1.987 7.128c-1.519-.76-4.382-1.87-8.179-1.87-3.856 0-5.726 1.811-5.726 3.797 0 2.513 2.162 3.623 7.303 5.609 6.953 2.57 10.166 6.193 10.166 11.802 0 6.602-5.024 12.211-15.833 12.211-4.499 0-8.939-1.227-11.16-2.454l1.813-7.303zM100.522 91.774V52.396h10.4l8.18 14.431c2.337 4.148 4.616 9.056 6.427 13.496h.117c-.526-5.2-.701-10.517-.701-16.476V52.396h8.18v39.379h-9.349l-8.413-15.191c-2.337-4.265-4.966-9.29-6.836-13.905h-.233c.292 5.258.409 10.809.409 17.236v11.86h-8.181zM157.545 92.417c-11.627 0-18.521-8.822-18.521-20.04 0-11.802 7.595-20.625 19.164-20.625 12.094 0 18.696 9.056 18.696 19.923 0 12.971-7.771 20.741-19.28 20.741h-.059zm.41-7.069c6.018 0 9.465-5.667 9.465-13.379 0-7.07-3.331-13.146-9.465-13.146-6.135 0-9.582 5.959-9.582 13.321 0 7.42 3.564 13.204 9.523 13.204h.059zM182.727 52.921c2.746-.468 6.602-.818 12.036-.818 5.492 0 9.465 1.052 12.094 3.213 2.513 1.928 4.148 5.2 4.148 9.056 0 3.915-1.227 7.187-3.564 9.348-3.038 2.805-7.595 4.148-12.854 4.148-1.169 0-2.22-.059-3.039-.234v14.139h-8.822V52.921zm8.822 17.878c.76.175 1.694.234 2.98.234 4.732 0 7.654-2.396 7.654-6.368 0-3.623-2.454-5.784-6.953-5.784-1.812 0-3.038.117-3.681.292v11.626zM225.612 52.396v39.379h-8.881V52.396h8.881zM233.616 82.66c2.337 1.227 6.076 2.454 9.874 2.454 4.09 0 6.252-1.694 6.252-4.323 0-2.396-1.87-3.856-6.602-5.492-6.544-2.337-10.868-5.959-10.868-11.744 0-6.719 5.667-11.802 14.899-11.802 4.499 0 7.712.876 10.049 1.987l-1.987 7.128c-1.519-.76-4.382-1.87-8.179-1.87-3.856 0-5.726 1.811-5.726 3.797 0 2.513 2.162 3.623 7.303 5.609 6.953 2.57 10.166 6.193 10.166 11.802 0 6.602-5.024 12.211-15.833 12.211-4.499 0-8.939-1.227-11.16-2.454l1.812-7.303z"/>
        </g>
    </g>
    <path fill="#31BA98" d="M264.034 104.998H0l.971-4.667 263.063 3.356z"/>
</svg>