<svg  xmlns="http://www.w3.org/2000/svg" viewBox="0 0 109.69 109.69" width="48" height="auto">
    <circle fill="#f9dc5c" cx="54.84" cy="54.84" r="54.84"/>
    <path fill="#323330" d="M168.33,312.66l5.92-3.59c1.15,2,2.19,3.74,4.68,3.74s3.9-.93,3.9-4.57V283.48h7.28v24.86c0,7.54-4.42,11-10.86,11C173.42,319.31,170,316.3,168.33,312.66Z" transform="translate(-137.27 -245.16)"/>
    <path fill="#323330" d="M194.06,311.88l5.93-3.44c1.56,2.55,3.59,4.42,7.18,4.42,3,0,4.94-1.5,4.94-3.58,0-2.5-2-3.38-5.31-4.84l-1.82-.78c-5.25-2.24-8.73-5-8.73-11,0-5.46,4.16-9.62,10.66-9.62,4.63,0,8,1.61,10.35,5.82l-5.67,3.64c-1.25-2.24-2.6-3.12-4.68-3.12a3.17,3.17,0,0,0-3.49,3.12c0,2.18,1.36,3.07,4.48,4.42l1.82.78c6.19,2.65,9.67,5.36,9.67,11.44,0,6.55-5.15,10.14-12.06,10.14S196.2,316.09,194.06,311.88Z" transform="translate(-137.27 -245.16)"/>
</svg>