<svg height="45" viewBox="0 0 226 312">
    <g transform="matrix(1.25 0 0 -1.25 0 312)" stroke="none">
        <path d="M178 129c0-49-39-89-88-89-48 0-87 40-87 89 0 50 39 90 87 90 49 0 88-40 88-90" fill="#d33833" />
        <path d="M6 107s-6 93 80 96l-6 10-47-16-13-15-12-22-6-26 2-18" fill="#ef3d3a" fill-rule="nonzero" />
        <path d="M30 190a88 88 0 0 1 0-123v1c16-16 37-26 60-26a88 88 0 0 1 85 87c0 24-10 46-25 61a84 84 0 0 1-120 0zM26 64a93 93 0 0 0 0 130 89 89 0 0 0 128 0c16-17 26-40 26-65 0-26-10-49-26-65a89 89 0 0 0-128 0" fill="#231f20" fill-rule="nonzero" />
        <path d="M127 129l-13-2-18-2-12-1-11 1-9 2-8 9-6 17-1 3-8 3-5 8-3 11 4 9 8 3 7-3 4-7h4l1 2-1 8-1 9 2 14v7l6 10 11 8 19 8 20-3 18-13 9-14 5-9 1-24-4-21-7-18-7-10" fill="#f0d6b7" />
        <path d="M116 71l-48-2v-8l4-28-2-2-33 11-3 4-3 38-8 22-1 6 26 18 9 3 7-9 6-5 8-3 3-1 4-17 3-4 8 3-6-10 29-14-3-2" fill="#335061" />
        <path d="M37 187l8 3 7-3 4-7h4l1 4-2 8 2 18-2 10 6 7 13 11-4 5-18-9-8-6-4-10-7-9-2-10 2-12" fill="#6d6b6d" />
        <path d="M50 219s5 12 25 18 1 4 1 4l-21-8-9-8-3-7 7 1" fill="#dcd9d8" />
        <path d="M40 190s-7 23 20 26l-1 4-18-4-6-17 2-12 3 3" fill="#dcd9d8" />
        <path d="M51 159l4 4s2 0 3-3c0-2 1-23 15-34l-10 1-11 17" fill="#f7e4cd" />
        <path d="M112 165s1 10 4 9c3 0 3-3 3-3s-7-4-7-6" fill="#f7e4cd" />
        <path d="M140 202s-5-1-6-6c0-5 6-1 7-1" fill="#f7e4cd" fill-rule="nonzero" />
        <path d="M100 202s-8-1-8-6 9-4 11-2" fill="#f7e4cd" fill-rule="nonzero" />
        <path d="M54 180s-12 8-14 0c-1-7-4-12 2-20l-4 1-4 11-1 10 7 8 9-1 5-4v-5" fill="#f7e4cd" />
        <path d="M60 201s6 29 35 35c23 5 36-1 40-6 0 0-21 25-41 17s-34-22-34-31v-15" fill="#f7e4cd" />
        <path d="M138 226s-10 1-10-8v-3s8 9 13 4" fill="#f7e4cd" />
        <path d="M95 215s-1 13-13 5c-7-5-6-12-5-13 1-2 1-4 2-2 1 1 1 7 4 9 4 2 10 4 12 1" fill="#f7e4cd" />
        <path d="M64 124l-31-14s13-51 6-67l-5 1v20l-9 37-3 11 32 22 10-10" fill="#49728b" />
        <path d="M67 96l5-6V70h-6v24" fill="#49728b" />
        <path d="M67 67H52l5-3 10-2" fill="#49728b" />
        <path d="M119 71h12l3-31-13-1-2 32" fill="#335061" />
        <path d="M122 71l19 1a446 446 0 0 0 14 48l-15 16-3 2-8-8V99l-7-28" fill="#335061" />
        <path d="M130 73l-11-2 1-10c5-2 12 4 12 4" fill="#49728b" />
        <path d="M131 131l23-17 1 8-18 16-6-7" fill="#49728b" />
        <path d="M79 5l-7 28-3 21-1 15 31 2h20l-2-35 3-27V4L94 2 79 5" fill="#fff" />
        <path d="M114 71s-1-35 4-59c0 0-10-7-25-8l28 1 3 2-4 54-1 12" fill="#dcd9d8" />
        <path d="M135 43l13 4 24 1 4 11-7 20-7 1-11-3-10-5-6 1-4-2" fill="#fff" />
        <path d="M134 50s9 4 10 3l-3 19 4 1 3-19 20-1s4 8 3 16l4-11v-6l-5-8-6-1h-10l-3 4-12-1-4-2" fill="#dcd9d8" />
        <path d="M121 73l-7 19-8 11s2 5 4 5h8l7-3V93l-4-20" fill="#fff" fill-rule="nonzero" />
        <path d="M123 80l-10 20s2 4 4 3l8-3v6l-12 2-7-1 13-30 2-1" fill="#dcd9d8" />
        <path d="M82 124l-9 1-9 2v-3l4-4 14-6" fill="#fff" fill-rule="nonzero" />
        <path d="M67 123s10-5 14-4v-4l-9 2-6 4 1 2" fill="#dcd9d8" />
        <path d="M135 107c-6 0-11 0-16 2l1 5 5 1h-6l-1 3c3 2 11 9 15 7 2-2 3-8 3-12l-1-6" fill="#d33833" />
        <path d="M135 107c-6 0-11 0-16 2l1 5 5 1h-6l-1 3c3 2 11 9 15 7 2-2 3-8 3-12l-1-6z" fill="none" stroke="#d33833" stroke-width="2" stroke-linecap="butt" stroke-linejoin="miter" stroke-miterlimit="4" stroke-opacity="1" stroke-dasharray="none"/>
        <path d="M108 116l-1-1c-1-2-4-2-6-3l7-1v-4l-10-7c-2-1-8-4-10-3l-2 3c-1 2-3 7-3 11 0 5-1 14 5 13l13-5c2-1 3-3 7-3" fill="#d33833" />
        <path d="M108 116l-1-1c-1-2-4-2-6-3l7-1v-4l-10-7c-2-1-8-4-10-3l-2 3c-1 2-3 7-3 11 0 5-1 14 5 13l13-5c2-1 3-3 7-3z" fill="none" stroke="#d33833" stroke-width="2" stroke-linecap="butt" stroke-linejoin="miter" stroke-miterlimit="4" stroke-opacity="1" stroke-dasharray="none"/>
        <path d="M111 110l-1 6c7 5 9-9 1-6" fill="#d33833" />
        <path d="M111 110l-1 6c7 5 9-9 1-6z" fill="none" stroke="#d33833" stroke-width="2" stroke-linecap="butt" stroke-linejoin="miter" stroke-miterlimit="4" stroke-opacity="1" stroke-dasharray="none"/>
        <path d="M122 107s-3 4-1 5l4 1 1 5c0 2 2 2 3 3 2 0 7 1 7-1l-2 6-4 1-12-7-1-4v-7" fill="#ef3d3a" />
        <path d="M87 96l-2 16c0 8 2 6 9 6l7-2c1-3-3-2 2-5 4-3 12 1 10 6-1 2-5 1-7 2l-7 4c-4 1-11 4-15 1-9-6 1-21 4-27" fill="#ef3d3a" />
        <path d="M95 215c-9 2-13-4-16-10-2 0-1 4-1 5 2 5 8 11 14 10 2 0 5-3 3-5" fill="#231f20" />
        <path d="M140 204c2-4 4-9 7-12-2-4-14-8-13-1 2 1 6 0 8 2-1 3-3 6-2 11" fill="#231f20" />
        <path d="M100 204l5-10c2-1 4-3 3-6 0-1-2-3-4-3-4-1-14 0-11 5 4 0 9-2 11 0-2 4-5 10-4 14" fill="#231f20" />
        <path d="M138 168c-6-4-14-9-24-8-3 2-4 6-1 9 1-2 0-5 3-6 6-1 13 4 18 6 2 4 0 6-3 9-5 6-12 13-11 22 2 2 2-2 2-3 3-6 9-14 14-19l3-3c1-3-1-6-1-7" fill="#231f20" />
        <path d="M52 172c-2 1-2 6-5 7-3 0-3-7-3-11-2 2-2 9-1 12-2 1-3-1-4-2 2 11 15 5 13-6" fill="#231f20" />
        <path d="M142 164c-3-6-7-13-16-13v6c7 1 11 4 16 7" fill="#231f20" />
        <path d="M100 160c5-3 16-4 23-3l1-6c-10-1-22 2-24 9" fill="#231f20" />
        <path d="M98 154c4-10 18-9 29-8 0-2-1-3-3-4-3-1-13-2-18 0-4 2-6 6-7 8-1 1-6 4-1 4" fill="#231f20" />
        <path d="M138 100c-5-8-9-16-15-23l4 26c4 3 9 0 11-3" fill="#81b0c4" />
        <path d="M162 71c-5-1-8-6-13-5 2 4 7 5 13 5" fill="#231f20" />
        <path d="M165 63h-14c2 3 10 2 14 0" fill="#231f20" />
        <path d="M166 56l-15 1c3 3 12 1 15-1" fill="#231f20" />
        <path d="M129 37c0-6 3-12 2-18l-7-2-1 20h6" fill="#dcd9d8" />
        <path d="M121 125l-7-5c-5-1-7 0-11 3 6-2 13 1 18 2" fill="#f0d6b7" />
        <path d="M93 88c1 6 7 10 12 13 6-7 9-16 13-24-9 2-18 7-25 11" fill="#81b0c4" />
        <path d="M123 37l1-20 7 2c1 6-2 12-2 18h-6zM69 66c2-21 5-39 11-57 14-5 30-5 42-1-2 10-1 23-2 35l-2 25c-15 3-35 1-49-2zm52 2l2-27 9 2c-1 8-1 18-3 26l-8-1zm18 2h-5l3-24 6 2c0 7-1 16-4 22zm27-25c5 1 9 8 7 14l-4 16c-2 2-6 5-9 3-4-3-13-4-16-8l3-21c6-1 13 1 18-1-3-1-8-1-11-3h12zm-48 32c-4 8-7 17-13 24-5-3-11-7-12-13 7-4 16-9 25-11zm9 26l-4-26c6 7 10 15 15 23-2 3-7 6-11 3zm-11 4c-2 0-3-2-6-1l-2-2c6-7 9-18 13-26 3 8 3 17 3 26-3 0-5 3-8 3zm-6 9l1-6c8-3 6 11-1 6zm-9 3l-13 5c-6 1-5-8-5-13 0-4 2-9 3-11l2-3c2-1 8 2 10 3l10 7v4l-7 1c2 1 5 1 6 3l1 1c-4 0-5 2-7 3zm-33 6c-3-3 8-7 11-7l1 5c-4 0-9 0-12 2zm35-2c4-3 6-4 11-3l7 5c-5-1-12-4-18-2zm33-10c0 4-1 10-3 12-4 2-12-5-15-7l1-3h6l-5-1-1-5c5-2 10-2 16-2l1 6zm-73 9c-1 1-7 9-8 8-11-4-21-12-31-19 9-19 13-42 13-64 10-5 19-12 33-13l-4 32c-3 2-8 0-12 1 0 3 5 1 6 4 0 2-3 2-2 5l7-4c2 6 0 15 0 20 0 1 0 5 2 4s0-10 0-15l1-10 42 4c-4 1-7 2-11 5-3 1-10 3-10 6-1 3 2 5 3 8-7-4-8 3-10 8l-2 11c-6 3-12 5-17 9zm67 7c9 5 11-17 7-23l4-5-17-27c4 2 10 0 15 2l4 8 9 27 1 8c-1 3-5 5-7 7l-10 9-6-6zm-88 82c-5-5-4-14-3-20 8 5 18-1 18-9 4 0 2 5 1 8-2 9 4 20 0 29-7-1-12-3-16-8zm31 28c-10-2-22-10-27-19l9 3 4-1c3 1 5 7 7 9l6 6c1 0 3 0 3 2h-2zm52-2c-10 6-28 10-39 4-9-4-21-11-25-21 4-9-1-17-1-26l2-14c-1-2-5-3-8-2-1 4-2 9-7 10-7 1-12-5-12-11-1-7 5-18 13-17 3 0 4 3 7 3 2-4-2-5-3-7l1-5c1-6 5-14 8-18 4-6 12-7 20-8 2 4 8 3 11 2-4 2-8 6-12 10-4 5-8 9-8 15 8-10 14-19 27-24 10-3 22 2 30 7 3 2 5 6 7 9 9 13 13 30 12 48 0 7 0 14-2 18-3 5-11 10-16 5-1 5 4 8 10 6-5 6-9 12-15 16zm19-160c9 4 24 11 29 0l5-15c1-6-2-18-8-20h-18l-2 3-12-2c0-4-2-4-4-5-2-6 3-14 2-20-1-4-6-5-10-6l1-6c-1-3-5-4-8-5-12-1-30-2-41 2l-9 26c-11-1-20 5-28 9-3 1-7 2-8 4l-1 11c-1 10-1 20-4 31l-5 13-4 14c-1 6 5 7 9 9l16 11 9 5c1 3-3 6-3 8-2 4-3 6-3 10-5 0-9 4-12 7-4 6-7 17-3 25l2 3-1 7c0 11 2 20 9 23 3 12 14 16 24 22l12 5c15 6 38 5 51-5 5-4 14-13 17-19 8-16 7-43 2-63l-4-10-4-9 9-9c3-2 8-6 9-9l-3-12-11-33" fill="#231f20" />
        <path d="M90 157c1 1 3 2 7 0 0 0-4-1-4-7h-2l-1 7" fill="#f7e4cd" />
        <path d="M120 100a2 2 0 1 0-4 0 2 2 0 0 0 4 0" fill="#1d1919" />
        <path d="M122 91a2 2 0 1 0-4 0 2 2 0 0 0 4 0" fill="#1d1919" />
    </g>
</svg>