<svg height="47" viewBox="0 0 256 416" xmlns="http://www.w3.org/2000/svg" preserveAspectRatio="xMidYMid">
    <path d="M201.8 230.2a54 54 0 0 0-40.6 18.5l-25.5-18a69.5 69.5 0 0 0 .2-47.3l25.4-17.8a54 54 0 0 0 94.7-35.8 54.2 54.2 0 1 0-106.1 15.4L124.5 163A70 70 0 0 0 81 137.8v-30.6A54.3 54.3 0 1 0 58 107v31a70 70 0 0 0 .5 137.8v32.8a54.3 54.3 0 1 0 23.2 0v-32.8a70 70 0 0 0 42.6-24.8l25.7 18.2a54 54 0 0 0 52 69.4 54.2 54.2 0 0 0 0-108.4zm0-126.7a26.3 26.3 0 1 1 0 52.6 26.3 26.3 0 0 1 0-52.6zm-158-49.3a26.3 26.3 0 1 1 52.5 0 26.3 26.3 0 0 1-52.6 0zm52.5 307.3a26.3 26.3 0 1 1-52.6-.1 26.3 26.3 0 0 1 52.6 0zM70 243.5a36.7 36.7 0 1 1 0-73.4 36.7 36.7 0 0 1 0 73.4zm131.8 67.2a26.3 26.3 0 1 1 0-52.6 26.3 26.3 0 0 1 0 52.6z" fill="#aaa"/>
</svg>