<svg width="110" xmlns="http://www.w3.org/2000/svg" fill="#888" viewBox="0 0 119 32">
    <path fill-rule="evenodd" clip-rule="evenodd" d="M26.2 4.5c2.1 2.1 1.5 6.2-1.4 10.9l5.8 5.8-.3.5a17.3 17.3 0 0 1-3.9 5 17 17 0 0 1-7.4 3.9H18.6l-.3.1a7.9 7.9 0 0 1-.1 0H18l-.4.2H17a15.5 15.5 0 0 1-12.6-4.3v-.1c-2.1-2-1.5-6.2 1.4-10.8L0 9.8l.3-.4a17.1 17.1 0 0 1 3.9-5A17.2 17.2 0 0 1 9.8 1l1.4-.5a15.3 15.3 0 0 1 1.3-.2l.4-.1a15.4 15.4 0 0 1 13.3 4.3zm-2 .2c-2-.6-5.1.4-8.4 2.6 2.5-.7 5-.4 6.5 1.2 1.5 1.5 2 3.8 1.3 6.2v.4c2.7-4.1 3.5-8 1.8-9.7h-.1v-.1l-.2-.1a3 3 0 0 0-.9-.5zm-1.4 9.2c-.3 2-1.5 4.2-3.2 6a11.2 11.2 0 0 1-6 3.2c-1.9.3-3.6-.1-4.7-1.2C8 20.8 7.4 19 7.7 17c.4-2 1.5-4.1 3.3-5.9 1.7-1.7 3.8-2.9 5.9-3.2 2-.4 3.6 0 4.7 1.2 1.1 1 1.6 2.8 1.2 4.7zM5.2 5.4a15.6 15.6 0 0 0-3.3 4.2l5 5L8.2 13l.5-.6.3-.4h.1a13.3 13.3 0 0 0 .1-.2l.2-.2.1-.1a1.7 1.7 0 0 0 .1-.1.2.2 0 0 0 .1-.1l.1-.2h.1l.1-.1.2-.2.1-.1a33.2 33.2 0 0 1 3.5-3l.1-.2.2-.1a24.7 24.7 0 0 1 1.1-.8 17 17 0 0 1 7.3-3 14 14 0 0 0-9.3-1.8h-.5-.2v.1a16.2 16.2 0 0 0-2.2.6 15.6 15.6 0 0 0-5.1 3zM5.4 26l1 .4c2 .7 5.1-.3 8.4-2.5-2.5.7-5 .3-6.5-1.3-1.5-1.5-2-3.7-1.4-6.1L7 16c-2.7 4-3.5 8-1.8 9.6a2.8 2.8 0 0 0 .2.3zm23.3-4.4a15.7 15.7 0 0 1-3.3 4.1 15.7 15.7 0 0 1-7 3.6 3.2 3.2 0 0 1-.4 0l-.2.1a7.6 7.6 0 0 1-.4 0v.1H16.7a14 14 0 0 1-8.7-1.9c2-.2 4.5-1.1 7-2.8h.1l.2-.2h.2l.3-.3a17.7 17.7 0 0 0 .9-.7 33.9 33.9 0 0 0 3.5-3v-.1l.2-.2h.1a.4.4 0 0 1 0-.1h.1l.1-.2a.2.2 0 0 1 .1 0 .2.2 0 0 0 0-.1.9.9 0 0 0 .1 0v-.1l.2-.1.1-.2.2-.1V19c.2 0 .2-.1.3-.2v-.1l.5-.5.1-.1V18l.2-.2.2-.2a32.8 32.8 0 0 0 1-1.2l5 5zm0 0zM39 6.4h2.8v18H39v-18zm19 0h-2.7v18H58v-18zm58.3 0h2.7v18h-2.7v-18zm-12.3 0l-7 18h3l1.8-4.6h8.3l1.7 4.6h3l-7-18H104zM102.8 17l3.1-8.2 3.2 8.2h-6.3zM60.3 10H63v14.4h-2.7V10zM63 6.4h-2.7v2.2H63V6.4zm5 5.3c.8-1 2.6-1.7 4.3-1.7 4.8 0 6.9 3.1 6.9 7v7.4h-2.7V17c0-2.3-1.3-4.2-4.3-4.2-2.1 0-4 1.2-4.2 3.6v8.1h-2.7V10H68v1.7zM88.2 10a7 7 0 0 1 4.6 1.7V10h2.7v15c0 3.9-3 7-6.8 7H88c-3.3 0-6-2.4-6.6-5.6H84c.6 1.7 2 3 3.9 3h.7c2.3 0 4.1-2 4.1-4.4v-1.5a7 7 0 0 1-4.6 1.8c-4 0-7.3-3.5-7.3-7.7s3.3-7.6 7.3-7.6zm0 12.6c-2.5 0-4.6-2.3-4.6-5s2-5 4.6-5c2.5 0 4.6 2.3 4.6 5s-2 5-4.6 5zM49.9 6.4h3.5l-8 8.9 8.6 9.1h-3.7l-8.5-9.1 8-9z"/>
</svg>