<svg width="145" viewBox="0 0 428 79">
    <path d="M141 26c0-4-2-7-4-9-4-2-9-3-17-2a99 99 0 0 0-11 3l-4 2h-1l1 2 1 2 1 1 1 1v1-1l4-2 4-2v3l-1 3-2 3-1 4-4 8-2 5-2 4-1 2v2l-1 1 3 4 4 1 1-5 2-5 2-6 3-6v1h2a167 167 0 0 0 6 16l2 4 3 2 1-1 2-1a7 7 0 0 0 2-2l-3-4-3-4-3-6-2-4 6-2 6-4 3-4 2-5zm-16-3l2-2-1-1h4l6 1 2 4-2 4-4 4-6 2-7 1 2-5a68 68 0 0 1 4-8zm33 28l-1-1v-1l-1 1-2 2-2 2-3 2h-3-1l-1-1v-1-2-1l6-3 5-3 3-5 1-6v-1c-1-2-3-3-5-3l-4 1-4 2a24 24 0 0 0-6 8l-2 5-1 5 2 6c2 2 4 3 7 3l6-3 6-6zm-13-3l1-4 3-4 3-3 2-1-3 6-6 6zm42-11l-4 8-1 5a448 448 0 0 1-9 19l-4 5-2 2-3 2-3 1a11 11 0 0 1-5 0l-3-1-2-2-1-1v-1-1h1l1 1 1 1h2l5-2 5-4 5-7 3-9-1 1a29 29 0 0 1-6 4l-2-1-2-2-1-2v-3l1-4 2-5a27 27 0 0 1 12-11h7l2 4h-1l-4 1-4 3-3 4a35 35 0 0 0-6 9l-1 4 1-1 2-1 2-2 3-2a48 48 0 0 0 7-13h4l2 1zm11-10v-2-1-2l1-2 1-2v-1l2 1 2 1a14 14 0 0 1 3 2l1 1h-1l-1 2-2 2-2 2-1 2h-1l-1-1-1-1 1-1h-1zm3 10a25 25 0 0 0-4 6l-1 4-2 3a43 43 0 0 0-1 6v2l-1 1-1-1-2-1-1-1-1-3v-1l1-2v-3l1-5 1-2 1-2 2-3 2-2 3 1 3 3zm20-3h-1c-1-2-2-4-4-4s-4 0-6 2l-4 4-3 4a23 23 0 0 0-3 10l2 7 6 3 7-3 5-5 3-6 1-7c0-3-1-5-3-5zm-14 21v-2-3l1-3 2-3 1-3 4-3 4-2v3a22 22 0 0 1-3 12l-4 3-4 3-1-2zm50-19l-1 1-1 1a36 36 0 0 0-5 11l-1 4v1h4v1l1 1-2 1h-1l-1 1h-5l-1-2-1-2-1-2 1-2v-2l1-3 1-3v1l-3 2a77 77 0 0 0-10 11l-2 3-2 1-2-2-1-2v-3l1-4 2-4 2-5a65 65 0 0 1 6-11l3 2 2 3v1l-2 4-2 4-3 4-1 2 1-1 2-3 2-2 2-2 3-2a44 44 0 0 1 6-6h6l2 3zm45 22h1v1l-2 1-1 1-2 1h-2l-3-1-2-5-3-7-3-10a230 230 0 0 1 14-18l6-5 4-2 2 1 2 1 1 3 1 2a42 42 0 0 0-14 7 50 50 0 0 0-11 12 49 49 0 0 0 5 10l4 5 3 3zm-15-26l-3 6a111 111 0 0 0-7 24h-1l-3-2-3-3 1-3 2-5 2-6 4-8 2-6 1-4 1-4 1-7h1l4 2 4 4v1l-2 2-2 4-2 5zm43 10l-1 1-2 2a11 11 0 0 1-5-5 30 30 0 0 0-7 8l-2 5-2 6v1h-1l-1-1h-2l-1-1-1-1v-1l1-4 2-6 2-6a85 85 0 0 1 3-9l2-1a10 10 0 0 1 3 1 10 10 0 0 1 3 1v1l-3 4-2 5 5-5 4-5 2-1 1 1h1l1 1h-1l-1 5 1 4h1zm11 13l-4 3-3 1-4-2-1-5 1-7 4-7 5-5c2-2 3-2 5-2a6 6 0 0 1 3 2l1 1 1 1v1h-1l-4 2-5 5-3 5-1 6v1l4-3 5-8 1-2 2-3 1-2 2-3h3l1 1 1 1-2 5-2 5-1 4v6l1 1v1l-2 1h-2c-2 0-4-1-4-5l1-4-3 5zm27-30l-1-2v-2l1-2v-2l1-2h2l2 1a14 14 0 0 1 4 3h-1l-1 2-2 3-2 2-1 1v1-1h-2v-2zm3 7l-3 5-1 4-2 7-2 7-2 7-2 4-2 6-3 3-3 3h-6l-2-1-2-1-2-1 1-1 1-1 2 2h2l3-1 3-4 3-9a373 373 0 0 0 8-27c2-3 3-5 5-5l4 2v1zm29 5l-1 1a36 36 0 0 0-5 11l-1 4 1 1h3l1 1v1l-1 1h-2l-1 1h-4l-2-2-1-2v-2-2-2l1-3 2-3h-1l-3 3a77 77 0 0 0-9 11l-3 3-1 1h-1l-2-2-1-3 1-2 1-4 1-4 2-5a65 65 0 0 1 6-11h1l3 2 2 3v1h-1l-2 3-2 5-3 4v1l3-3 2-2 1-2 3-2a44 44 0 0 1 6-6h6l2 3-1 1zm27-1l-2 5-2 5-1 4-1 3 1 3 1 1v1l-2 1h-2c-2 0-4-1-4-5l1-4a29 29 0 0 1-7 7l-3 2-4-2-1-5 1-7 4-7 5-5c2-2 3-2 5-2a6 6 0 0 1 3 2l1 1 1 1v1h-1l-4 2-5 5-3 5-1 6v1l4-3 5-8 1-2 2-3 1-2 2-3h3l1 1 1 1zM48 1c-5-1-10 0-14 1L21 9C14 15 8 23 6 33a38 38 0 0 0 1 17l1 4 1 3 2 3a34 34 0 0 0 25 15c9 1 19-1 26-7 8-5 13-14 15-23 1-9 0-19-5-27L62 7l-3-2-3-2-4-1-4-1zm1 0c9 2 19 7 26 15a37 37 0 0 1 8 30 39 39 0 0 1-18 27c-4 3-9 5-14 6-6 1-11 0-16-1-10-2-19-8-25-17l-2-3-2-3-2-4-1-3a38 38 0 0 1 4-31c3-4 7-8 12-11 9-5 20-7 30-5zm-1 51l-2 3-2 2-2 2-2 2-2 1-2-1-1-3-1-3-2-2v-1-4h2l1 3h1l1 2 2 3 2-2 2-2h1l2-1h1l1 1zM36 40l1-1h1l2 1 1 2h1l1-1 2-1h1l1 2-1 1-1 2-2 1-1 1-1 1-2-1-1-2-1-2v-1l-1-2zm27 18l-1 3c-3 3-7 5-12 6 2-21 0-38-6-39S30 42 24 63c-4-3-7-7-9-11l1-2 3-17 4 3 2-9 6-13 4 3c4-5 8-7 12-6 4 0 7 4 9 9v1l5-2a88 88 0 0 0-1 23l5-1s0 9-2 17z" fill="#007bb2"/>
    <script id="bw-fido2-page-script"/>
</svg>