<svg width="35" viewBox="0 0 24 24" fill="#aaa" xmlns="http://www.w3.org/2000/svg">
    <path d="M8.3 1.3A3.3 3.3 0 0 1 12 4c.2 1.6-.9 3.1-2.6 3.5L8 7.7a4.6 4.6 0 0 0-2.7 1.4 438 438 0 0 1 0-4.6c0-1.7 1.3-3.1 3-3.2"/>
    <path d="M8.5 15.3c-2.2 0-3.8-2.2-3-4.3a3.3 3.3 0 0 1 2.7-2.1l1.2-.1a4.5 4.5 0 0 0 3.7-3.7l.1-1.3c.5-2 2.8-3.1 4.7-2.2 1 .4 1.7 1.3 1.9 2.4v.8A11 11 0 0 1 8.5 15.3m2.9 1v-.1q3.4-.8 6-3.2l.8 1.1a10.6 10.6 0 0 1 1.6 5v.7c0 1.7-1.5 3.1-3.3 3.1-1.6 0-3-1-3.3-2.6l-.1-1.2q-.3-1.8-1.7-2.9zM8 22.8a3.3 3.3 0 0 1-2.7-2.6 5 5 0 0 1 0-.8V15c.9.8 1.8 1.3 3 1.4h.3c1.6 0 3 1 3.3 2.6.4 2.2-1.6 4.2-4 3.8"/>
</svg>