<svg width="120" viewBox="0 0 129 40" fill="none">
    <path d="M128.081 30.0006L121.765 22.192L127.98 14.4505H124.856L120.052 20.3153L115.282 14.4505H112.124L118.339 22.192L118.372 22.2256L112.024 30.0006H115.114L120.086 23.9682L124.99 30.0006H128.081Z" fill="white"></path>
    <path d="M106.561 11.6721C107.535 11.6721 108.307 10.9348 108.307 9.99643C108.307 9.02455 107.535 8.28725 106.561 8.28725C105.586 8.28725 104.847 9.02455 104.847 9.99643C104.847 10.9348 105.586 11.6721 106.561 11.6721ZM105.318 14.4505V30.0007H107.871V14.4505H105.318Z" fill="white"></path>
    <path fill-rule="evenodd" clip-rule="evenodd" d="M97.3355 13.3577C96.3013 12.7075 95.0057 12.4907 94.1383 12.5017L94.1303 12.5018H88.679V21.0072H94.1395L94.1569 21.0076C95.0059 21.0308 96.2964 20.8144 97.3311 20.1579C98.2938 19.547 99.0818 18.5376 99.0818 16.7469C99.0818 14.9583 98.2961 13.9615 97.3355 13.3577ZM88.679 23.5072V29.9975H86.1626V10.0018H94.1146C95.3198 9.98794 97.1283 10.2689 98.6812 11.2451C100.311 12.27 101.598 14.0338 101.598 16.7469C101.598 19.4578 100.314 21.2318 98.6856 22.2648C97.1372 23.2473 95.3292 23.5373 94.1058 23.5072H88.679Z" fill="white"></path>
    <path d="M48.5991 3.65234C46.4154 3.65234 44.6361 5.44646 44.6361 7.64832C44.6361 8.46383 44.9192 9.27933 45.364 9.97251H51.8746C52.3599 9.27933 52.6429 8.5046 52.6429 7.64832C52.6025 5.44646 50.7828 3.65234 48.5991 3.65234Z" fill="white"></path>
    <path d="M0 10.0184H5.41876V24.9421H17.3481V29.9983H0V10.0184Z" fill="white"></path>
    <path d="M46.0515 14.3762H51.1872V30.002H46.0515V14.3762Z" fill="white"></path>
    <path fill-rule="evenodd" clip-rule="evenodd" d="M65.986 9.53073C68.3315 9.53073 70.313 10.1831 72.0518 11.8957V9.99936H77.0662V29.9999H72.0518V27.9612C70.313 29.6329 68.3719 30.2853 65.986 30.2853C60.8099 30.2853 56.2808 26.0039 56.2808 19.9284C56.2808 13.8121 60.8099 9.53073 65.986 9.53073ZM67.1183 25.5962C69.1807 25.5962 71.0813 24.6176 72.0518 22.3342V17.5227C71.0813 15.2393 69.1807 14.2607 67.1183 14.2607C63.7619 14.2607 61.4569 16.8295 61.4569 19.9284C61.4569 23.0681 63.7619 25.5962 67.1183 25.5962Z" fill="white"></path>
    <path fill-rule="evenodd" clip-rule="evenodd" d="M20.2584 19.9069C20.2584 13.9426 24.5933 9.53073 30.8729 9.53073C36.9499 9.53073 40.9607 13.9018 40.9607 19.7843C40.9607 20.3971 40.9202 21.0507 40.8392 21.7451H25.4441C26.2139 24.2779 28.5636 25.626 31.1565 25.626C32.9796 25.626 34.8837 25.0132 36.5853 23.4609L39.7048 26.8515C37.9627 28.649 34.7622 30.283 30.9944 30.283C24.5933 30.283 20.2584 25.8711 20.2584 19.9069ZM30.9539 13.9835C28.4826 13.9835 26.4164 15.2499 25.6062 17.6601H35.7345C35.2889 15.8218 33.5468 13.9835 30.9539 13.9835Z" fill="white"></path>
</svg>