<svg width="110" xmlns="http://www.w3.org/2000/svg" fill="none" viewBox="0 0 300 65"><g clip-path="url(#icon-lenso-text-logo-light-theme_a)"><g clip-path="url(#icon-lenso-text-logo-light-theme_b)"><mask id="a" style="mask-type:luminance" maskUnits="userSpaceOnUse" x="0" y="3" width="65" height="59"><path d="M64.6 3.6H0V61h64.6V3.6z" fill="#fff" style="--darkreader-inline-fill:var(--darkreader-text-ffffff, #e8e6e3)"/></mask><g mask="url(#a)"><path d="M26.4 6.9C28 3.9 32 2.8 35 4.6c3 1.7 4 5.7 2.3 8.7L11.9 57.8a6.3 6.3 0 0 1-8.7 2.4c-3-1.8-4-5.7-2.3-8.8L26.4 6.9z" fill="#140EA8" style="--darkreader-inline-fill:var(--darkreader-text-140ea8, #6b9bf3)"/><path fill-rule="evenodd" clip-rule="evenodd" d="M49.3 25.7a6.6 6.6 0 0 0-5.8-3.3 6.6 6.6 0 0 0-5.8 3.3L23.2 51a6.7 6.7 0 0 0 2.5 9.1c3.2 1.8 7.2.8 9-2.4a6.3 6.3 0 0 1 5.5-3.2h6.6a6.3 6.3 0 0 1 5.4 3.2 6.6 6.6 0 0 0 9 2.4c3.3-1.8 4.3-6 2.5-9.1L49.3 25.7z" fill="#A1A6F3" style="--darkreader-inline-fill:var(--darkreader-text-a1a6f3, #90b5f1)"/><path d="M37.7 25.7a6.6 6.6 0 0 1 9-2.5c3.3 1.9 4.3 6 2.5 9.2L34.7 57.7a6.6 6.6 0 0 1-9 2.4 6.7 6.7 0 0 1-2.5-9.1l14.5-25.3z" fill="#5A66E9" style="--darkreader-inline-fill:var(--darkreader-text-5a66e9, #5e96ea)"/></g></g></g><path d="M294.5 55a4.6 4.6 0 0 1-4.6-4.6V29.2a4.6 4.6 0 1 1 9.2 0v21.2a4.6 4.6 0 0 1-4.6 4.6zm-17 0a4.5 4.5 0 0 1-4.4-4.4V36.3c0-1.6-.5-2.7-1.3-3.4-.9-.8-2-1.2-3.6-1.2a9.1 9.1 0 0 0-4.3 1c-2 1-4.4 1.3-5.9-.2-1.5-1.4-1.5-3.8.2-5a20.7 20.7 0 0 1 3.5-2c2.3-1 5-1.6 7.7-1.6 2.6 0 4.8.4 6.7 1.2 1.9.7 3.3 1.9 4.3 3.5 1 1.5 1.6 3.5 1.6 6v16a4.5 4.5 0 0 1-4.5 4.4zm-12.3.6c-2 0-3.7-.4-5.3-1.1a9.5 9.5 0 0 1-3.6-3.2c-1-1.4-1.4-3-1.4-4.8 0-1.6.3-3 .9-4.2a7.5 7.5 0 0 1 2.5-2.9 12 12 0 0 1 4.3-1.8c1.7-.4 3.7-.6 6-.6h6a2.9 2.9 0 0 1 0 5.8h-5.8c-.8 0-1.5 0-2.1.2-.7.2-1.2.4-1.6.7a3 3 0 0 0-1 1 3 3 0 0 0-.3 1.3c0 .6.2 1.1.5 1.5.3.4.7.8 1.2 1 .5.2 1.2.3 1.8.3 1 0 2-.1 2.9-.4a7.6 7.6 0 0 0 2.4-1.5c.8-.6 2.3-.5 2.7.5l.3.8a1.6 1.6 0 0 1-.1 1.4 14.9 14.9 0 0 1-2.5 2.8 13.4 13.4 0 0 1-3.7 2.4 10.1 10.1 0 0 1-4.1.8zm-45.5 0c-3.2 0-6-.7-8.5-2a15.4 15.4 0 0 1-8-13.8c0-3 .8-5.8 2.2-8.2 1.4-2.4 3.3-4.3 5.8-5.6 2.5-1.4 5.3-2.1 8.5-2.1s6 .7 8.4 2c2.5 1.4 4.5 3.3 5.9 5.7 1.4 2.4 2.1 5.1 2.1 8.2 0 3-.7 5.8-2.1 8.2a15.3 15.3 0 0 1-5.9 5.6c-2.4 1.3-5.2 2-8.4 2zm0-8c1.4 0 2.6-.3 3.6-1 1-.6 2-1.6 2.5-2.8.6-1.1 1-2.5.9-4 0-1.6-.3-3-.9-4.1a6.7 6.7 0 0 0-2.5-2.8c-1-.7-2.2-1-3.6-1s-2.6.3-3.6 1c-1.1.7-2 1.6-2.6 2.8a9 9 0 0 0-.9 4.1c0 1.5.3 2.9 1 4a7.2 7.2 0 0 0 2.5 2.9c1 .6 2.2 1 3.6 1zm-32.5 8c-2.9 0-5.5-.4-7.8-1.4a16.4 16.4 0 0 1-2.7-1.3c-1.7-1.2-1.5-3.7 0-5 1.6-1.4 3.9-1.2 5.7-.3l1.1.5c1.5.6 3 .9 4.3.9a4.6 4.6 0 0 0 1.3-.2 3.3 3.3 0 0 0 1-.5l.7-.7.2-1c0-.8-.3-1.4-1-1.8l-1.6-.7-3.1-.9a25 25 0 0 1-4.8-1.7c-1.3-.6-2.3-1.4-3.2-2.2a8.2 8.2 0 0 1-1.8-2.6c-.3-1-.5-2.1-.5-3.4 0-1.9.5-3.5 1.6-5 1.2-1.3 2.7-2.4 4.5-3.2 1.9-.8 3.8-1.2 6-1.2a19.1 19.1 0 0 1 9.7 2.6c1.7 1 1.8 3.2.5 4.7l-.6.7c-1 1.1-2.8 1.2-4.2.4a13.8 13.8 0 0 0-2.7-1.3 6.8 6.8 0 0 0-4-.3c-.4 0-.8.2-1 .4a2 2 0 0 0-.7.8l-.2 1c0 .3 0 .7.3 1 .2.4.5.7.9 1l1.8.7 3.4 1c1.8.5 3.3 1 4.6 1.7 1.3.6 2.3 1.4 3.1 2.2a5.4 5.4 0 0 1 1.4 2.3c.3.8.4 1.8.4 2.8 0 2-.5 3.7-1.6 5.2a11 11 0 0 1-4.5 3.6c-1.9.8-4 1.2-6.5 1.2zm-45-.6a1.9 1.9 0 0 1-1.8-1.9v-24a4.5 4.5 0 0 1 4.5-4.6h.8a3.7 3.7 0 0 1 3.7 3.5l.1 2.2a.7.7 0 0 1-.5.7c-.6.2-1-.3-.8-.8a9.6 9.6 0 0 1 1.7-2.4c1-1.2 2.4-2 4-2.8a11.6 11.6 0 0 1 4.8-1c2.3 0 4.2.5 5.8 1.4 1.5 1 2.7 2.4 3.5 4.2a17 17 0 0 1 1.2 6.9v14a4.6 4.6 0 0 1-9.3 0V37.1c0-1.3-.1-2.3-.5-3-.3-.9-.8-1.5-1.5-1.9-.7-.3-1.6-.5-2.6-.5-.8 0-1.6.2-2.3.4a5 5 0 0 0-1.8 1.1 4.8 4.8 0 0 0-1.6 3.7v13.5A4.7 4.7 0 0 1 145 55h-2.7zm-21 .6c-3.4 0-6.3-.7-8.8-2a14.6 14.6 0 0 1-7.9-13.6c0-2.4.4-4.5 1.2-6.5a15 15 0 0 1 3.2-5.1 14.9 14.9 0 0 1 5-3.3 16 16 0 0 1 12 0 13.8 13.8 0 0 1 4.7 3.2c1.3 1.3 2.3 3 3 4.9.7 1.8 1 3.9 1 6.1a2.6 2.6 0 0 1-2.6 2.5h-19.8a2.6 2.6 0 0 1 0-5.2h14a.3.3 0 1 1-.2.3v-.4c-.1-1-.4-1.8-1-2.5a5.8 5.8 0 0 0-4.8-2.4c-1.4 0-2.7.4-3.8 1-1 .6-1.8 1.4-2.4 2.5a9.5 9.5 0 0 0-.8 4.1 9 9 0 0 0 1 4.4 7.4 7.4 0 0 0 3.2 3c1.3.6 3 1 4.8 1 1.3 0 2.5-.2 3.5-.6 2-.7 4.3-.5 5.6 1.2 1.2 1.7.9 4-.8 5l-1 .5a18.3 18.3 0 0 1-4.1 1.4 17.2 17.2 0 0 1-4.2.5zM94.4 55a4.6 4.6 0 0 1-4.6-4.6V17.1a4.6 4.6 0 0 1 9.2 0v33.3a4.6 4.6 0 0 1-4.6 4.6z" fill="#aaa" style="--darkreader-inline-fill:var(--darkreader-text-aaa, #d3d0ca)"/><circle cx="294.5" cy="13.5" r="4.5" fill="#aaa" style="--darkreader-inline-fill:var(--darkreader-text-aaa, #d3d0ca)"/><circle cx="245.5" cy="50.5" r="4.5" fill="#aaa" style="--darkreader-inline-fill:var(--darkreader-text-aaa, #d3d0ca)"/><defs><clipPath id="icon-lenso-text-logo-light-theme_a"><path fill="#fff" d="M0 0h64.6v64.6H0z" style="--darkreader-inline-fill:var(--darkreader-text-ffffff, #e8e6e3)"/></clipPath><clipPath id="icon-lenso-text-logo-light-theme_b"><path fill="#fff" transform="translate(0 3.6)" d="M0 0h64.6v57.5H0z" style="--darkreader-inline-fill:var(--darkreader-text-ffffff, #e8e6e3)"/></clipPath></defs></svg>