<svg width="113" height="42" fill="none">
    <path d="M51 11.34V0h2.923v9.03h4.385v2.31H51zM66.868 7.476v.315c0 .105-.008.21-.02.315h-5.763c.02.217.092.425.209.609.114.188.263.352.438.483a2.1 2.1 0 0 0 1.274.42c.361.01.72-.069 1.044-.231a2.09 2.09 0 0 0 .71-.609l1.816 1.155a3.68 3.68 0 0 1-1.482 1.26 4.862 4.862 0 0 1-2.13.441 5.068 5.068 0 0 1-1.691-.273 4.108 4.108 0 0 1-1.4-.819 3.801 3.801 0 0 1-.939-1.323 4.453 4.453 0 0 1-.334-1.806c-.01-.612.103-1.22.334-1.785a4.012 4.012 0 0 1 2.276-2.205 4.612 4.612 0 0 1 1.691-.315 4.26 4.26 0 0 1 1.608.294c.475.192.903.486 1.253.861.36.395.637.86.814 1.365.207.593.306 1.22.292 1.848zm-2.4-1.008a1.58 1.58 0 0 0-.397-1.071 1.482 1.482 0 0 0-1.17-.441 1.973 1.973 0 0 0-.71.126c-.206.077-.397.19-.563.336-.155.136-.282.3-.376.483a1.435 1.435 0 0 0-.167.588h3.361l.021-.021zM70.856 5.25V8.4c.008.307.118.603.314.84.139.182.396.273.772.273l.418-.042.355-.105.041 1.932-.689.168a4.836 4.836 0 0 1-.835.063 3.883 3.883 0 0 1-1.336-.21 2.067 2.067 0 0 1-.877-.588c-.226-.26-.39-.57-.48-.903a5.171 5.171 0 0 1-.188-1.281V5.25h-1.253V3.36h1.253v-2.1h2.505v2.1h1.88v1.89h-1.88zM82.34 5.733a2.923 2.923 0 0 0-.752-.504c-.286-.14-.6-.212-.918-.21a1.6 1.6 0 0 0-.69.147.502.502 0 0 0-.312.504.506.506 0 0 0 .334.483c.36.134.73.239 1.106.315.306.067.606.159.898.273.293.113.567.269.814.462.243.194.442.437.585.714.156.305.235.644.23.987a2.405 2.405 0 0 1-1.086 2.121c-.333.216-.7.373-1.086.462a5.213 5.213 0 0 1-1.21.147 5.962 5.962 0 0 1-1.9-.315 4.004 4.004 0 0 1-1.567-.924l1.462-1.554c.243.268.533.489.856.651.337.168.709.255 1.086.252.217 0 .431-.05.626-.147a.544.544 0 0 0 .313-.546.57.57 0 0 0-.376-.546 6.86 6.86 0 0 0-1.19-.378 6.154 6.154 0 0 1-.835-.252 2.627 2.627 0 0 1-.752-.441 2.16 2.16 0 0 1-.543-.672 2.068 2.068 0 0 1-.208-.966 2.34 2.34 0 0 1 .313-1.239c.194-.327.458-.607.772-.819.326-.22.686-.383 1.065-.483.375-.098.761-.147 1.149-.147a5.566 5.566 0 0 1 1.754.273 3.773 3.773 0 0 1 1.44.84L82.34 5.733zM68.539 35.826a4.347 4.347 0 0 1-.355 1.785 3.99 3.99 0 0 1-.96 1.344 4.382 4.382 0 0 1-1.4.861 4.922 4.922 0 0 1-3.403 0 4.275 4.275 0 0 1-1.399-.861 4.032 4.032 0 0 1-.96-1.344 4.348 4.348 0 0 1-.355-1.785 4.283 4.283 0 0 1 .355-1.764c.225-.503.552-.954.96-1.323.407-.37.882-.656 1.4-.84a5.171 5.171 0 0 1 3.403 0c.515.186.99.472 1.398.84.41.368.737.819.96 1.323.243.556.364 1.157.356 1.764zm-2.527 0a2.3 2.3 0 0 0-.125-.756 1.998 1.998 0 0 0-.96-1.113 1.974 1.974 0 0 0-1.629 0c-.225.11-.424.268-.585.462-.158.192-.279.413-.355.651a2.427 2.427 0 0 0 0 1.512c.076.244.197.472.355.672.158.202.358.367.585.483a1.974 1.974 0 0 0 1.629 0c.227-.116.427-.281.584-.483.16-.2.28-.428.355-.672.096-.241.152-.497.167-.756h-.02zM75.45 3.36c.922 0 1.67-.752 1.67-1.68 0-.928-.748-1.68-1.67-1.68-.923 0-1.67.752-1.67 1.68 0 .928.747 1.68 1.67 1.68zM51 25.83V14.49h7.725v2.31h-5.01v2.31h4.802v2.1h-4.803v2.31h5.429v2.31H51zM79.125 18.963a4.59 4.59 0 0 1 1.628-1.008 5.587 5.587 0 0 1 1.9-.336 5.069 5.069 0 0 1 1.692.252c.44.15.83.419 1.127.777.305.388.519.84.627 1.323.145.62.216 1.254.208 1.89l-.02 3.969H83.99v-.84h-.105c-.218.35-.54.62-.918.777a3.242 3.242 0 0 1-1.337.273 4.067 4.067 0 0 1-.981-.126 2.895 2.895 0 0 1-.94-.42 2.266 2.266 0 0 1-.689-.777 2.384 2.384 0 0 1-.271-1.197 2.024 2.024 0 0 1 .48-1.407 3.09 3.09 0 0 1 1.211-.819 6.4 6.4 0 0 1 1.65-.378 16.87 16.87 0 0 1 1.774-.105v-.084a.993.993 0 0 0-.417-.882 1.788 1.788 0 0 0-1.023-.273 2.535 2.535 0 0 0-1.086.231c-.32.15-.616.348-.877.588l-1.336-1.428zm4.468 3.423l-.877.042a3.57 3.57 0 0 0-.772.147 1.44 1.44 0 0 0-.564.336.757.757 0 0 0-.23.567.697.697 0 0 0 .104.378c.07.104.163.19.272.252.115.072.243.122.376.147l.396.042a1.62 1.62 0 0 0 1.232-.441c.292-.328.442-.758.418-1.197v-.273h-.355zM93.177 21.462a3.582 3.582 0 0 0-.063-.651 1.79 1.79 0 0 0-.188-.546.963.963 0 0 0-.355-.378 1.142 1.142 0 0 0-.584-.126 1.33 1.33 0 0 0-.606.126c-.173.09-.324.22-.439.378a1.474 1.474 0 0 0-.27.525c-.063.21-.21.399-.21.63v4.41h-2.505v-8.001h2.547v1.113h.042c.105-.183.23-.352.376-.504.158-.167.341-.309.543-.42.218-.123.449-.222.688-.294.252-.073.512-.108.773-.105a2.93 2.93 0 0 1 1.357.294c.353.18.66.438.898.756.235.313.405.67.501 1.05.105.399.021.693.021 1.092v5.04h-2.526v-4.389zM102.802 20.454a1.589 1.589 0 0 0-.605-.462 1.85 1.85 0 0 0-.773-.168 1.644 1.644 0 0 0-.752.168 1.819 1.819 0 0 0-.584.441 2.12 2.12 0 0 0-.376.651 2.26 2.26 0 0 0-.146.777c-.002.264.04.527.125.777.081.24.209.461.376.651a1.765 1.765 0 0 0 1.357.609c.271.001.54-.049.793-.147.243-.091.459-.243.627-.441l1.461 1.785c-.364.342-.799.6-1.273.756a5.007 5.007 0 0 1-1.671.273 5.23 5.23 0 0 1-1.754-.294 4.088 4.088 0 0 1-1.42-.84 3.97 3.97 0 0 1-.939-1.344 4.728 4.728 0 0 1 0-3.549 3.97 3.97 0 0 1 .94-1.344c.411-.38.894-.672 1.42-.861a5.07 5.07 0 0 1 1.733-.294c.287.001.573.03.856.084.276.05.548.12.814.21.248.087.486.2.71.336.204.124.394.272.564.441l-1.483 1.785zM112.845 21.966v.315c-.001.105-.008.21-.021.315h-5.762c.021.217.092.425.208.609.114.188.263.352.439.483a2.1 2.1 0 0 0 1.273.42c.362.01.721-.069 1.044-.231.28-.146.522-.355.71-.609l1.817 1.155a3.68 3.68 0 0 1-1.483 1.26 4.858 4.858 0 0 1-2.129.441 5.075 5.075 0 0 1-1.692-.273 4.102 4.102 0 0 1-1.398-.819 3.799 3.799 0 0 1-.94-1.323 4.451 4.451 0 0 1-.334-1.806 4.51 4.51 0 0 1 .334-1.785c.211-.507.524-.964.919-1.344a4.04 4.04 0 0 1 1.357-.861 4.612 4.612 0 0 1 1.691-.315 4.26 4.26 0 0 1 1.608.294c.475.192.902.486 1.253.861.36.395.637.86.814 1.365.207.593.306 1.22.292 1.848zm-2.401-1.008a1.579 1.579 0 0 0-.397-1.071 1.479 1.479 0 0 0-1.169-.441 1.973 1.973 0 0 0-.71.126c-.206.077-.397.19-.564.336-.154.136-.282.3-.375.483a1.41 1.41 0 0 0-.167.588h3.361l.021-.021zM58.308 31.92h-2.506v7.98h2.506v-7.98zM52.775 39.795c.922 0 1.67-.752 1.67-1.68 0-.928-.748-1.68-1.67-1.68-.923 0-1.67.752-1.67 1.68 0 .928.747 1.68 1.67 1.68zM57.055 30.975c.923 0 1.67-.752 1.67-1.68 0-.928-.747-1.68-1.67-1.68-.922 0-1.67.752-1.67 1.68 0 .928.748 1.68 1.67 1.68zM65.616 21.42c-.001-.219-.022-.436-.063-.651a1.79 1.79 0 0 0-.188-.546.963.963 0 0 0-.355-.378c-.178-.1-.38-.151-.585-.147-.21 0-.418.05-.605.147-.173.09-.324.22-.438.378a1.705 1.705 0 0 0-.272.546 2.385 2.385 0 0 0-.083.651v4.347h-2.631v-7.98h2.547V18.9h.042c.105-.182.23-.352.376-.504.158-.167.341-.309.543-.42.218-.123.449-.222.689-.294.25-.073.51-.108.772-.105a2.93 2.93 0 0 1 1.357.294c.353.18.66.438.898.756.235.313.405.67.501 1.05.1.391.148.793.146 1.197v4.956h-2.651v-4.41zM75.074 21.462a4.133 4.133 0 0 0-.042-.651 1.538 1.538 0 0 0-.188-.546 1.048 1.048 0 0 0-.354-.378 1.102 1.102 0 0 0-.585-.147 1.225 1.225 0 0 0-1.044.483c-.257.352-.39.781-.376 1.218v4.326H70V13.65h2.485v5.166h.042a2.577 2.577 0 0 1 2.276-1.239c.469-.013.934.088 1.357.294.352.18.66.439.898.756.235.313.405.67.5 1.05.1.391.149.793.147 1.197v4.956h-2.63v-4.368z" fill="currentColor" style="--darkreader-inline-fill:currentColor"/>
    <path d="M21.924 39.9c10.954 0 19.835-8.932 19.835-19.95C41.76 8.932 32.88 0 21.924 0S2.088 8.932 2.088 19.95c0 11.018 8.88 19.95 19.835 19.95z" fill="url(#paint0_linear_2262_8228)"/>
    <path d="M9.396 42c5.189 0 9.396-4.23 9.396-9.45 0-5.22-4.207-9.45-9.396-9.45C4.206 23.1 0 27.33 0 32.55 0 37.77 4.207 42 9.396 42z" fill="url(#paint1_linear_2262_8228)"/>
    <defs>
        <linearGradient id="paint0_linear_2262_8228" x1="2.088" y1="19.95" x2="41.759" y2="19.95" gradientUnits="userSpaceOnUse">
            <stop stop-color="#4844F2" style="--darkreader-inline-stopcolor:#0f0ba0"/>
            <stop offset="1" stop-color="#817DFF" style="--darkreader-inline-stopcolor:#040081"/>
        </linearGradient>
        <linearGradient id="paint1_linear_2262_8228" x1="0" y1="32.55" x2="18.792" y2="32.55" gradientUnits="userSpaceOnUse">
            <stop stop-color="#4844F2" style="--darkreader-inline-stopcolor:#0f0ba0"/>
            <stop offset="1" stop-color="#817DFF" style="--darkreader-inline-stopcolor:#040081"/>
        </linearGradient>
    </defs>
</svg>