<svg viewBox="0 0 112 32" fill="none" xmlns="http://www.w3.org/2000/svg">
    <path d="M6.648 31H.978V2.933h5.67V31zm-1.985 0v-.526h12.231V31H4.664zm28.612-7.614h5.346a10.564 10.564 0 0 1-2.228 4.212 10.9 10.9 0 0 1-3.847 2.835c-1.485.648-3.132.972-4.941.972-2.187 0-4.145-.473-5.873-1.418a10.595 10.595 0 0 1-4.09-3.928c-1-1.701-1.499-3.632-1.499-5.792 0-2.186.5-4.117 1.499-5.791a10.595 10.595 0 0 1 4.09-3.929c1.728-.945 3.686-1.417 5.873-1.417 1.782 0 3.415.324 4.9.972a10.698 10.698 0 0 1 3.848 2.754c1.053 1.161 1.795 2.538 2.227 4.131h-5.346a13.847 13.847 0 0 0-.931-3.402c-.432-1.134-1.04-2.066-1.823-2.795-.756-.755-1.714-1.133-2.875-1.133-1.134 0-2.147.405-3.038 1.214-.864.784-1.552 1.958-2.065 3.524-.486 1.566-.73 3.524-.73 5.872 0 2.107.217 3.956.649 5.549.459 1.593 1.12 2.835 1.984 3.726.891.891 1.958 1.336 3.2 1.336 1.43 0 2.646-.62 3.645-1.863 1.026-1.268 1.7-3.145 2.025-5.629zm-15.066-6.399v-.526h18.71v.526H18.21zm21.388-7.452h5.63L56.486 31h-5.63L39.597 9.535zm7.938 10.57l.405.527L41.217 31h-.688l7.006-10.895zm1.013.527l-.406-.527 6.845-10.57h.688l-7.127 11.097zM65.413 31h-5.468V9.535h5.468V31zM62.7 6.295c-.89 0-1.633-.297-2.227-.891-.567-.594-.85-1.323-.85-2.187 0-.864.283-1.58.85-2.147.594-.594 1.336-.89 2.227-.89.864 0 1.58.296 2.147.89.594.567.89 1.283.89 2.147 0 .864-.296 1.593-.89 2.187-.567.594-1.283.891-2.147.891zm23.175 17.212h5.346a10.25 10.25 0 0 1-2.228 4.131 10.823 10.823 0 0 1-3.766 2.795c-1.485.648-3.119.972-4.9.972-2.188 0-4.145-.473-5.873-1.418a10.595 10.595 0 0 1-4.09-3.928c-1-1.701-1.5-3.632-1.5-5.792 0-2.186.5-4.117 1.5-5.791a10.595 10.595 0 0 1 4.09-3.929c1.728-.945 3.685-1.417 5.872-1.417 1.782 0 3.416.324 4.9.972a10.399 10.399 0 0 1 3.767 2.754c1.053 1.161 1.796 2.538 2.228 4.131h-5.346a15.016 15.016 0 0 0-.891-3.442c-.432-1.134-1.026-2.066-1.782-2.795-.756-.729-1.715-1.094-2.876-1.094-1.134 0-2.146.405-3.037 1.215-.864.784-1.553 1.958-2.066 3.524-.486 1.566-.729 3.524-.729 5.872 0 2.107.216 3.956.648 5.549.46 1.593 1.12 2.835 1.985 3.726.89.891 1.957 1.336 3.2 1.336 1.052 0 1.957-.323 2.713-.971.756-.675 1.377-1.567 1.863-2.674s.81-2.349.972-3.726zM111.286 31h-5.467V14.598c0-1.89-.284-3.187-.851-3.889-.567-.701-1.282-1.053-2.146-1.053-.54 0-1.04.162-1.499.486-.459.325-.823.865-1.093 1.62-.27.73-.405 1.742-.405 3.038v.85c.027.297.054.568.08.81h-5.588c0-1.458.364-2.727 1.093-3.807.756-1.107 1.782-1.97 3.078-2.591 1.296-.621 2.741-.932 4.334-.932 1.62 0 3.064.324 4.333.972a7.107 7.107 0 0 1 2.997 2.713c.756 1.162 1.134 2.552 1.134 4.172V31zm-11.42.405c-1.378 0-2.593-.27-3.646-.81-1.026-.54-1.822-1.269-2.39-2.187-.566-.945-.85-1.998-.85-3.159 0-1.269.297-2.376.891-3.321a6.14 6.14 0 0 1 2.47-2.227c1.054-.54 2.228-.81 3.524-.81h7.209l-.081.526h-4.171c-1.323 0-2.376.513-3.16 1.539-.755.999-1.133 2.295-1.133 3.888 0 1.458.31 2.646.931 3.564.621.918 1.512 1.377 2.673 1.377.729 0 1.364-.203 1.904-.608.567-.404.999-.971 1.296-1.7.324-.73.486-1.567.486-2.512h.567c0 1.971-.594 3.538-1.782 4.698-1.161 1.162-2.741 1.742-4.739 1.742z" fill="#fff" style="--darkreader-inline-fill:#181a1b"/>
</svg>