<svg xmlns="http://www.w3.org/2000/svg" width="136" height="34" xmlns:v="https://vecta.io/nano">
    <path d="M29.216 0H4.784C2.142 0 0 2.142 0 4.784v24.432C0 31.858 2.142 34 4.784 34h24.432C31.858 34 34 31.858 34 29.216V4.784C34 2.142 31.858 0 29.216 0z" fill="url(#Amagic)"/>
    <path d="M27.247 17.815v8.541s-.129.83-.831.83l-9.148.057s-8.715.044-9.978-9.425c0 0-.544-9.776 9.978-10.529 0 0 9.966.258 9.979 10.529v-.003z" stroke="#fff" stroke-miterlimit="10"/>
    <path d="M27.193 18.276a10.11 10.11 0 0 0 .052-1.014 9.98 9.98 0 0 0-9.978-9.977 9.98 9.98 0 0 0-9.978 9.977 9.98 9.98 0 0 0 9.978 9.977 10.47 10.47 0 0 0 1.07-.057v-8.907h8.857z" fill="url(#Bmagic)"/>
    <path d="M18.335 27.181h8.078a.83.83 0 0 0 .831-.83v-8.076h-.052c-.472 4.683-4.183 8.407-8.856 8.907z" fill="url(#Cmagic)"/>
    <path d="M59.392 12.536V24h-1.36v-8.424l.008-.36.032-.392-3.936 7.168c-.123.24-.309.36-.56.36h-.224c-.251 0-.437-.12-.56-.36l-4.016-7.2c.032.283.048.544.048.784V24h-1.36V12.536h1.144c.139 0 .245.013.32.04s.147.101.216.224l3.96 7.056.184.4.176.424.168-.424c.059-.144.123-.28.192-.408l3.888-7.048c.064-.123.133-.197.208-.224.08-.027.189-.04.328-.04h1.144zm6.593 7.816c-.656.021-1.216.075-1.68.16-.459.08-.835.187-1.128.32-.288.133-.499.291-.632.472a1.03 1.03 0 0 0-.192.608c0 .213.035.397.104.552s.163.283.28.384c.123.096.264.168.424.216.165.043.341.064.528.064a3.06 3.06 0 0 0 .688-.072c.208-.053.403-.128.584-.224a3.09 3.09 0 0 0 .528-.344c.171-.133.336-.285.496-.456v-1.68zm-4.6-3.312c.448-.432.931-.755 1.448-.968s1.091-.32 1.72-.32c.453 0 .856.075 1.208.224s.648.357.888.624.421.589.544.968a4.03 4.03 0 0 1 .184 1.248V24h-.632c-.139 0-.245-.021-.32-.064-.075-.048-.133-.139-.176-.272l-.16-.768-.624.528a3.92 3.92 0 0 1-.64.384c-.224.101-.464.179-.72.232a3.69 3.69 0 0 1-.84.088c-.315 0-.611-.043-.888-.128-.277-.091-.52-.224-.728-.4-.203-.176-.365-.397-.488-.664a2.41 2.41 0 0 1-.176-.96c0-.32.088-.627.264-.92.176-.299.461-.563.856-.792s.909-.416 1.544-.56c.635-.149 1.413-.235 2.336-.256v-.632c0-.629-.136-1.104-.408-1.424-.272-.325-.669-.488-1.192-.488-.352 0-.648.045-.888.136a3.15 3.15 0 0 0-.616.296l-.448.296c-.123.085-.245.128-.368.128-.096 0-.179-.024-.248-.072-.069-.053-.128-.117-.176-.192l-.256-.456zm10.825 3c.288 0 .541-.04.76-.12a1.55 1.55 0 0 0 .552-.336 1.38 1.38 0 0 0 .336-.512c.075-.203.112-.424.112-.664 0-.496-.152-.891-.456-1.184-.299-.293-.733-.44-1.304-.44-.576 0-1.016.147-1.32.44-.299.293-.448.688-.448 1.184a1.91 1.91 0 0 0 .112.664 1.47 1.47 0 0 0 .344.512 1.55 1.55 0 0 0 .552.336c.219.08.472.12.76.12zm2.568 4.4c0-.197-.056-.357-.168-.48s-.264-.219-.456-.288c-.187-.069-.405-.117-.656-.144l-.8-.072-.848-.048-.832-.08c-.299.139-.544.315-.736.528-.187.208-.28.453-.28.736a.98.98 0 0 0 .136.504c.096.16.24.296.432.408.192.117.432.208.72.272.293.069.637.104 1.032.104a4.66 4.66 0 0 0 1.032-.104c.304-.069.56-.168.768-.296.213-.128.376-.28.488-.456s.168-.371.168-.584zm1.448-8.224v.528c0 .176-.112.288-.336.336l-.92.12a2.51 2.51 0 0 1 .272 1.168c0 .395-.077.755-.232 1.08a2.43 2.43 0 0 1-.624.824c-.267.229-.587.405-.96.528s-.779.184-1.216.184a4.1 4.1 0 0 1-1.072-.136c-.171.107-.301.221-.392.344-.091.117-.136.237-.136.36 0 .192.077.339.232.44.16.096.368.165.624.208s.547.069.872.08l1.008.056c.347.021.683.061 1.008.12a3.05 3.05 0 0 1 .88.288 1.62 1.62 0 0 1 .616.552c.16.235.24.539.24.912 0 .347-.088.683-.264 1.008a2.64 2.64 0 0 1-.744.864 3.73 3.73 0 0 1-1.2.608c-.469.155-1 .232-1.592.232s-1.109-.059-1.552-.176-.811-.275-1.104-.472-.515-.427-.664-.688c-.144-.256-.216-.525-.216-.808a1.46 1.46 0 0 1 .376-1.016c.251-.277.595-.499 1.032-.664-.24-.107-.432-.248-.576-.424-.139-.181-.208-.424-.208-.728 0-.117.021-.237.064-.36a1.48 1.48 0 0 1 .192-.376 2.07 2.07 0 0 1 .328-.36c.128-.112.277-.211.448-.296a2.5 2.5 0 0 1-.936-.888c-.224-.373-.336-.805-.336-1.296 0-.395.075-.752.224-1.072.155-.325.368-.6.64-.824.272-.229.595-.405.968-.528.379-.123.792-.184 1.24-.184.352 0 .68.04.984.12.304.075.581.187.832.336h2.2zm2.816-.32V24h-1.424v-8.104h1.424zm.304-2.544c0 .139-.029.269-.088.392-.053.117-.128.224-.224.32a1 1 0 0 1-.328.216c-.123.053-.253.08-.392.08s-.269-.027-.392-.08c-.117-.053-.221-.125-.312-.216a1.17 1.17 0 0 1-.216-.32c-.053-.123-.08-.253-.08-.392s.027-.269.08-.392c.053-.128.125-.237.216-.328a.99.99 0 0 1 .312-.224c.123-.053.253-.08.392-.08s.269.027.392.08c.128.053.237.128.328.224.096.091.171.2.224.328.059.123.088.253.088.392zm7.516 3.984c-.043.059-.085.104-.128.136s-.101.048-.176.048c-.08 0-.168-.032-.264-.096a3.66 3.66 0 0 0-.36-.224c-.139-.08-.312-.152-.52-.216-.203-.069-.453-.104-.752-.104-.4 0-.752.072-1.056.216a2.03 2.03 0 0 0-.768.608c-.203.267-.357.589-.464.968a4.92 4.92 0 0 0-.152 1.272 4.69 4.69 0 0 0 .168 1.312c.112.379.269.699.472.96.208.256.456.453.744.592.293.133.621.2.984.2.347 0 .632-.04.856-.12.224-.085.408-.179.552-.28l.368-.272c.101-.085.2-.128.296-.128.117 0 .208.045.272.136l.4.52c-.176.219-.376.405-.6.56s-.467.285-.728.392a4.02 4.02 0 0 1-.808.224 5.15 5.15 0 0 1-.864.072c-.507 0-.979-.093-1.416-.28-.432-.187-.808-.456-1.128-.808-.32-.357-.571-.795-.752-1.312s-.272-1.107-.272-1.768c0-.603.083-1.16.248-1.672a3.83 3.83 0 0 1 .736-1.32 3.37 3.37 0 0 1 1.192-.872c.475-.208 1.019-.312 1.632-.312.571 0 1.072.093 1.504.28.437.181.824.44 1.16.776l-.376.512zm8.094-3.192v3.208h4.048v1.656h-4.048v3.272h5.136V24h-7.296V12.432h7.296v1.712h-5.136zm8.263 3.072c.256-.491.56-.875.912-1.152.352-.283.768-.424 1.248-.424.379 0 .683.083.912.248l-.128 1.48c-.027.096-.067.165-.12.208-.048.037-.115.056-.2.056-.08 0-.2-.013-.36-.04-.155-.027-.307-.04-.456-.04-.219 0-.413.032-.584.096a1.48 1.48 0 0 0-.464.28c-.133.117-.253.261-.36.432-.101.171-.197.365-.288.584V24h-1.976v-8.208h1.16c.203 0 .344.037.424.112.08.069.133.197.16.384l.12.928zm8.171 3.28c-.57.027-1.05.077-1.44.152-.389.069-.701.16-.936.272s-.402.243-.504.392-.152.312-.152.488c0 .347.102.595.304.744.208.149.478.224.808.224.406 0 .755-.072 1.048-.216.299-.149.59-.373.872-.672v-1.384zm-4.528-3.56c.944-.864 2.08-1.296 3.408-1.296.48 0 .91.08 1.288.24.379.155.699.373.96.656a2.71 2.71 0 0 1 .592 1c.139.389.208.816.208 1.28V24h-.896c-.186 0-.33-.027-.432-.08-.101-.059-.181-.173-.24-.344l-.176-.592-.608.496c-.197.139-.402.256-.616.352s-.442.168-.688.216c-.24.053-.506.08-.8.08-.346 0-.666-.045-.96-.136-.293-.096-.546-.237-.76-.424s-.378-.419-.496-.696-.176-.6-.176-.968a1.9 1.9 0 0 1 .104-.616c.07-.208.182-.405.336-.592a2.94 2.94 0 0 1 .616-.528c.251-.165.558-.309.92-.432.368-.123.795-.221 1.28-.296.486-.08 1.04-.128 1.664-.144v-.48c0-.549-.117-.955-.352-1.216-.234-.267-.573-.4-1.016-.4-.32 0-.586.037-.8.112-.208.075-.392.16-.552.256l-.44.248a.84.84 0 0 1-.432.112c-.138 0-.256-.035-.352-.104a.96.96 0 0 1-.232-.256l-.352-.632zm13.165.456c-.053.085-.109.147-.168.184-.058.032-.133.048-.224.048a.73.73 0 0 1-.312-.08l-.376-.176c-.144-.069-.309-.131-.496-.184a2.31 2.31 0 0 0-.648-.08c-.389 0-.696.083-.92.248-.218.165-.328.381-.328.648a.64.64 0 0 0 .168.448c.118.117.27.221.456.312.192.091.408.173.648.248l.728.232a7.27 7.27 0 0 1 .736.296c.24.107.454.245.64.416a1.81 1.81 0 0 1 .456.6 1.87 1.87 0 0 1 .176.848c0 .395-.072.76-.216 1.096-.138.331-.346.619-.624.864-.277.24-.621.429-1.032.568-.405.133-.874.2-1.408.2a4.32 4.32 0 0 1-.832-.08c-.266-.048-.525-.117-.776-.208-.245-.091-.474-.197-.688-.32-.208-.123-.392-.256-.552-.4l.456-.752c.059-.091.128-.16.208-.208s.182-.072.304-.072.238.035.344.104l.384.224a3.46 3.46 0 0 0 .504.224c.198.069.446.104.744.104.235 0 .435-.027.6-.08.171-.059.31-.133.416-.224.112-.091.192-.195.24-.312.054-.123.08-.248.08-.376 0-.192-.058-.349-.176-.472-.112-.123-.264-.229-.456-.32-.186-.091-.402-.171-.648-.24l-.744-.24c-.25-.085-.498-.184-.744-.296a2.72 2.72 0 0 1-.648-.44c-.186-.176-.338-.392-.456-.648-.112-.256-.168-.565-.168-.928a2.37 2.37 0 0 1 .2-.96c.134-.304.328-.568.584-.792.262-.229.584-.411.968-.544.39-.139.838-.208 1.344-.208.566 0 1.08.093 1.544.28s.851.432 1.16.736l-.448.712zm7.152 1.56a2.28 2.28 0 0 0-.112-.72c-.07-.229-.176-.429-.32-.6a1.46 1.46 0 0 0-.552-.4c-.219-.101-.475-.152-.768-.152-.571 0-1.022.163-1.352.488s-.534.787-.624 1.384h3.728zm-3.768 1.192c.032.421.106.787.224 1.096a2.28 2.28 0 0 0 .464.76c.192.197.418.347.68.448a2.58 2.58 0 0 0 .88.144c.32 0 .594-.037.824-.112s.437-.157.608-.248l.456-.248c.133-.075.261-.112.384-.112.165 0 .288.061.368.184l.568.72a3.39 3.39 0 0 1-.736.648c-.272.171-.558.309-.856.416a4.77 4.77 0 0 1-.904.216 6.38 6.38 0 0 1-.888.064c-.571 0-1.102-.093-1.592-.28-.491-.192-.918-.472-1.28-.84-.363-.373-.648-.832-.856-1.376-.208-.549-.312-1.184-.312-1.904 0-.56.09-1.085.272-1.576.181-.496.44-.925.776-1.288.341-.368.754-.659 1.24-.872s1.042-.32 1.656-.32c.517 0 .994.083 1.432.248a3.1 3.1 0 0 1 1.128.728 3.27 3.27 0 0 1 .736 1.168c.181.459.272.984.272 1.576 0 .299-.032.501-.096.608-.064.101-.187.152-.368.152h-5.08zm8.73-2.928c.256-.491.56-.875.912-1.152.352-.283.768-.424 1.248-.424.379 0 .683.083.912.248l-.128 1.48c-.026.096-.066.165-.12.208-.048.037-.114.056-.2.056-.08 0-.2-.013-.36-.04-.154-.027-.306-.04-.456-.04a1.66 1.66 0 0 0-.584.096 1.49 1.49 0 0 0-.464.28c-.133.117-.253.261-.36.432-.101.171-.197.365-.288.584V24h-1.976v-8.208h1.16c.203 0 .344.037.424.112.08.069.134.197.16.384l.12.928z" fill="#aaa"/>
    <defs>
        <linearGradient id="Amagic" x1="31.521" y1="-.156" x2="-.099" y2="33.844" gradientUnits="userSpaceOnUse">
            <stop stop-color="#7f00ff"/>
            <stop offset="1" stop-color="#e100ff"/>
        </linearGradient>
        <linearGradient id="Bmagic" x1="10.694" y1="17.206" x2="24.508" y2="17.325" gradientUnits="userSpaceOnUse">
            <stop stop-color="#fff"/>
            <stop offset=".26" stop-color="#fff" stop-opacity=".76"/>
            <stop offset=".5" stop-color="#fff" stop-opacity=".55"/>
            <stop offset=".72" stop-color="#fff" stop-opacity=".35"/>
            <stop offset=".9" stop-color="#fff" stop-opacity=".21"/>
            <stop offset="1" stop-color="#fff" stop-opacity=".15"/>
        </linearGradient>
        <linearGradient id="Cmagic" x1="19.893" y1="22.704" x2="26.055" y2="22.758" gradientUnits="userSpaceOnUse">
            <stop stop-color="#fff"/>
            <stop offset=".724" stop-color="#fff" stop-opacity=".76"/>
            <stop offset="1" stop-color="#fff" stop-opacity=".55"/>
        </linearGradient>
    </defs>
</svg>