<svg viewBox="0 0 882.6 182.1">
    <defs>
        <linearGradient id="make" x1="-167.5" y1="470.3" x2="-166.5" y2="470.3" gradientTransform="matrix(97.45 0 0 -97.45 16426.9 45936.4)" gradientUnits="userSpaceOnUse">
            <stop offset="0" stop-color="#b02de9"/>
            <stop offset="0" stop-color="#b02de9"/>
            <stop offset=".8" stop-color="#6d00cc"/>
            <stop offset="1" stop-color="#6d00cc"/>
        </linearGradient>
        <linearGradient id="make_2" x1="-167.5" y1="470.3" x2="-166.5" y2="470.3" gradientTransform="matrix(107.08 0 0 -107.08 17962.6 50466.2)" gradientUnits="userSpaceOnUse">
            <stop offset="0" stop-color="#f0f"/>
            <stop offset="0" stop-color="#f0f"/>
            <stop offset=".2" stop-color="#e90cf9"/>
            <stop offset=".5" stop-color="#c023ed"/>
            <stop offset=".7" stop-color="#b02de9"/>
            <stop offset="1" stop-color="#b02de9"/>
        </linearGradient>
        <linearGradient id="make_3" x1="-167.5" y1="470.3" x2="-166.5" y2="470.3" gradientTransform="matrix(214.7 0 0 -214.7 35959.8 101077.6)" gradientUnits="userSpaceOnUse">
            <stop offset="0" stop-color="#f0f"/>
            <stop offset="0" stop-color="#f0f"/>
            <stop offset=".1" stop-color="#e90cf9"/>
            <stop offset=".2" stop-color="#c023ed"/>
            <stop offset=".3" stop-color="#b02de9"/>
            <stop offset=".4" stop-color="#a42be3"/>
            <stop offset=".6" stop-color="#8626d5"/>
            <stop offset=".8" stop-color="#6021c3"/>
            <stop offset="1" stop-color="#6021c3"/>
        </linearGradient>
        <clipPath id="clippath">
            <path d="M156 44.3h34c2.5 0 4.6 2.1 4.6 4.7v125c0 2.7-2.1 4.8-4.7 4.8H156a4.7 4.7 0 0 1-4.6-4.7V49c0-2.7 2-4.8 4.6-4.8z"/>
        </clipPath>
        <clipPath id="clippath-1">
            <path d="M56.7 46L.5 157.7a4.7 4.7 0 0 0 2 6.3L33 179.2c2.3 1.2 5 .3 6.2-2L95.3 65.4c1.1-2.3.2-5.1-2-6.3L62.8 44a4.7 4.7 0 0 0-6.2 2"/>
        </clipPath>
        <clipPath id="clippath-2">
            <path d="M103.9 46.4l-24 121.8c-.5 2.5 1.1 5 3.6 5.5l33.3 6.7c2.5.5 5-1.2 5.5-3.7l24-121.8c.5-2.5-1.1-5-3.7-5.5l-33.2-6.7h-1a4.7 4.7 0 0 0-4.5 3.7"/>
        </clipPath>
    </defs>
    <path fill="#006600" d="M302.3 95v79.5c0 2.6-2.1 4.7-4.7 4.7h-34.4a4.7 4.7 0 0 1-4.6-4.7V48.9c0-2.5 2-4.6 4.6-4.6h34.4c2.6 0 4.7 2 4.7 4.6v10A45.8 45.8 0 0 1 340 41.2c16 0 29.7 6.5 38 18.6a53.6 53.6 0 0 1 42.7-18.6c30.2 0 51 17.8 51 51.8v81.4c0 2.6-2 4.7-4.7 4.7h-34.3a4.7 4.7 0 0 1-4.7-4.7v-72.2c0-14.9-8.4-22.2-19.7-22.2-9.4 0-17 6-21.3 14.9v79.5c0 2.6-2.1 4.7-4.7 4.7h-34.4a4.7 4.7 0 0 1-4.6-4.7v-72.2c0-14.9-8.4-22.1-19.7-22.1-9.7 0-17 5.9-21.4 14.8M529.2 181.9c-25.4 0-46.7-16.8-46.7-42.7 0-23.7 15.6-34.8 44.8-42.3l37.2-9.7c-1-9-8-13.3-19.4-13.3-10 0-17.3 3.9-20.6 11.6a4.8 4.8 0 0 1-5.4 2.8l-29.6-7a4.7 4.7 0 0 1-3.3-6.2c8.5-22.9 32-34.9 60.5-34.9 38.3 0 60.4 18 60.4 50v84.3c0 2.6-2 4.7-4.7 4.7H570c-2.6 0-4.6-2-4.7-4.6l-.2-7-.2.2c-11 9.5-21.9 14-35.6 14m11-33.7c5.7 0 10-1.6 16.5-5.4l7.5-4.6.3-21.8-19.4 5.4c-13.3 3.8-19.2 7-19.2 14.5 0 8.4 7.3 12 14.3 12M677 115.5l-13.3 12.1v46.9c0 2.6-2.1 4.7-4.7 4.7h-33.5a4.7 4.7 0 0 1-4.7-4.7V4.7c0-2.6 2.1-4.7 4.7-4.7H659c2.6 0 4.7 2.1 4.7 4.7v76.8l39.1-36c.9-.8 2-1.2 3.2-1.2h41.4c4.3 0 6.3 5.2 3.2 8L710.4 89l45.8 83.2c1.7 3.1-.5 7-4 7H713c-1.8 0-3.4-1-4.2-2.6L677 115.5z"/>
    <path fill="#006600" d="M819.3 182.1c-37.5 0-71.8-23.4-71.8-71 0-44.7 32.9-70.6 69-70.6s64.8 26.2 65.9 67.4l.2 9.6c0 2.6-2 4.7-4.7 4.7h-87.2c1.3 16.2 14.3 26.5 30.7 26.5a34 34 0 0 0 28-13.7c1.5-2 4.3-2.4 6.3-1l21.8 14.6a4.7 4.7 0 0 1 1.3 6.6c-11.7 17.2-31 27-59.5 27m-27.8-86.4h47.2c-.3-15.4-11.6-22.1-23.5-22.1-11 0-22.4 6.5-23.7 22"/>
    <g clip-path="url(#clippath)">
        <path transform="rotate(-20.2 173 111.5)" fill="url(#make)" d="M129.4 41h87.1v141.1h-87.1z"/>
    </g>
    <g clip-path="url(#clippath-1)">
        <path transform="rotate(-23.4 48 112)" fill="url(#make_2)" d="M-23.9 29.8h143.5v164.3H-23.9z"/>
    </g>
    <g clip-path="url(#clippath-2)">
        <path transform="rotate(-20.2 113 111.8)" fill="url(#make_3)" d="M57.6 35.2h111v153.1h-111z"/>
    </g>
</svg>