<svg xmlns="http://www.w3.org/2000/svg" viewBox="0 0 66 66" width="36" height="auto">
    <defs>
        <linearGradient id="paint0_linear_89_11" x1="30.5" y1="0.0130005" x2="30.5" y2="65.013" gradientUnits="userSpaceOnUse">
            <stop stop-color="#6364FF"></stop>
            <stop offset="1" stop-color="#563ACC"></stop>
        </linearGradient>
    </defs>
    <path d="M60.7539 14.4034C59.8143 7.41942 53.7273 1.91557 46.5117 0.849066C45.2943 0.668854 40.6819 0.0130005 29.9973 0.0130005H29.9175C19.2299 0.0130005 16.937 0.668854 15.7196 0.849066C8.70488 1.88602 2.29885 6.83152 0.744617 13.8982C-0.00294988 17.3784 -0.0827298 21.2367 0.0561464 24.7759C0.254119 29.8514 0.292531 34.918 0.753482 39.9728C1.07215 43.3305 1.62806 46.6614 2.41704 49.9406C3.89445 55.9969 9.87499 61.0369 15.7344 63.0931C22.0077 65.2374 28.7542 65.5934 35.2184 64.1212C35.9295 63.9558 36.6318 63.7638 37.3252 63.5451C38.8971 63.0459 40.738 62.4875 42.0913 61.5067C42.1099 61.4929 42.1251 61.4751 42.1358 61.4547C42.1466 61.4342 42.1526 61.4116 42.1534 61.3885V56.4903C42.153 56.4687 42.1479 56.4475 42.1383 56.4281C42.1287 56.4088 42.1149 56.3918 42.0979 56.3785C42.0809 56.3652 42.0611 56.3559 42.04 56.3512C42.019 56.3465 41.9971 56.3466 41.9761 56.3514C37.8345 57.3406 33.5905 57.8364 29.3324 57.8286C22.0045 57.8286 20.0336 54.3514 19.4693 52.9038C19.0156 51.6527 18.7275 50.3476 18.6124 49.0218C18.6112 48.9996 18.6153 48.9773 18.6243 48.9569C18.6333 48.9366 18.647 48.9186 18.6643 48.9045C18.6816 48.8904 18.7019 48.8805 18.7237 48.8758C18.7455 48.871 18.7681 48.8715 18.7897 48.8771C22.8622 49.8595 27.037 50.3553 31.2265 50.3542C32.234 50.3542 33.2387 50.3542 34.2463 50.3276C38.4598 50.2094 42.9009 49.9938 47.0465 49.1843C47.1499 49.1636 47.2534 49.1459 47.342 49.1193C53.881 47.8637 60.1038 43.9227 60.7362 33.9431C60.7598 33.5502 60.8189 29.8278 60.8189 29.4201C60.8218 28.0345 61.2651 19.5911 60.7539 14.4034Z" fill="url(#paint0_linear_89_11)"></path>
    <path d="M12.3442 18.3034C12.3442 16.2668 13.9777 14.6194 15.997 14.6194C18.0163 14.6194 19.6497 16.2668 19.6497 18.3034C19.6497 20.34 18.0163 21.9874 15.997 21.9874C13.9777 21.9874 12.3442 20.34 12.3442 18.3034Z" fill="#aaa"></path>
    <path d="M66.1484 21.4685V38.3839H59.4988V21.9744C59.4988 18.5109 58.0583 16.7597 55.1643 16.7597C51.9746 16.7597 50.3668 18.8482 50.3668 22.9603V31.9499H43.7687V22.9603C43.7687 18.8352 42.1738 16.7597 38.9712 16.7597C36.0901 16.7597 34.6367 18.5109 34.6367 21.9744V38.3839H28V21.4685C28 18.018 28.8746 15.268 30.6238 13.2314C32.4374 11.1948 34.8039 10.157 37.7365 10.157C41.132 10.157 43.7172 11.4802 45.415 14.1135L47.0742 16.9154L48.7334 14.1135C50.4311 11.4802 53.0035 10.157 56.4119 10.157C59.3444 10.157 61.711 11.1948 63.5246 13.2314C65.2738 15.268 66.1484 18.005 66.1484 21.4685Z" fill="#aaa"></path>
</svg>