<svg width="150" viewBox="0 0 294 42">
    <path id="flame" d="M22 9a51 51 0 0 1 9 1l9 2c2 0 4-2 4-4s-2-3-4-3a13 13 0 0 0-4 0h1a26 26 0 0 1 15-4c6 0 12 2 16 6a20 20 0 0 1 7 18 20 20 0 0 1-13 15 24 24 0 0 1-14 0c-6-1-12-5-17-7a47 47 0 0 0-11-3 9 9 0 0 0 4-1c2-1 2-3 1-4-1-2-3-3-5-3a24 24 0 0 0-10 0 15 15 0 0 0-7 2 6 6 0 0 0-2 2c3-8 9-7 13-10a2 2 0 0 0-1-4 7 7 0 0 0-3 2H9s3-5 13-5z" fill="#07f"/>
    <path fill="#fff" d="M65 20a8 8 0 0 1-6 10c-8 1-17-5-24-8 12 0 15-7 21-8a8 8 0 0 1 9 6z"/>
    <path fill="#fff" d="M88 6h13v17h1l8-17h14l-7 32h-9l5-22-10 22h-7l-2-22-4 22h-9zM145 31c-1 1-2 7-12 7-8 0-12-4-12-10 0-10 8-14 14-14 5 0 11 3 11 10a14 14 0 0 1 0 4h-16c0 3 0 5 3 5a4 4 0 0 0 4-2zm-7-7a4 4 0 0 0 0-1 3 3 0 0 0-3-3c-3 0-4 1-5 4zM162 35a7 7 0 0 1-6 3c-7 0-8-6-8-9 0-9 4-15 11-15 2 0 5 1 6 4l3-12h8l-6 32h-9zm1-10c0-3-1-4-3-4-3 0-5 4-5 7 0 2 1 4 4 4s4-5 4-7zM177 15h9l-5 23h-9zm9-3h-8l1-6h8zM215 6h24l-2 9h-14l-1 4h12l-1 7h-12l-3 12h-9zM240 15h8l-4 23h-9zM291 24c0-7-6-10-11-10a15 15 0 0 0-8 3 12 12 0 0 0-4 4 15 15 0 0 0-1 7c0 6 3 10 11 10 10 0 11-6 12-7h-8a4 4 0 0 1-4 2c-3 0-3-2-3-5h16a14 14 0 0 0 0-4zm-8 0h-8c1-3 3-4 5-4a3 3 0 0 1 3 3 4 4 0 0 1 0 1zM266 22l1-2a14 14 0 0 0-1 2z"/>
    <path fill="#fff" d="M269 15a11 11 0 0 0-3-1 9 9 0 0 0-3 1 10 10 0 0 0-4 3v-3h-8l-5 23h9l2-11c1-4 3-5 6-5a10 10 0 0 1 3 0zM198 14c-5 0-10 2-11 8h8l3-3c2 0 3 1 3 2 0 3-4 3-6 3-7 0-11 2-11 8 0 4 3 6 7 6 3 0 6-1 7-3v3h8l3-15a23 23 0 0 0 1-3c0-5-7-6-12-6zm2 15c-1 2-2 4-5 4-1 0-2 0-2-2s1-2 2-3a13 13 0 0 0 5-1zM249 12h-9l2-6h8l-1 6z"/>
</svg>