<svg xmlns="http://www.w3.org/2000/svg" width="130" viewBox="0 0 70 12.1">
    <path d="M6.4.5A5.9 5.9 0 0 0 .5 6.4a5.9 5.9 0 0 0 .4 2l.3-.6.2-.3a.5.5 0 0 0 0-.4.6.6 0 0 0 0-.1l-.2-.2a.8.8 0 0 1-.1-.5.7.7 0 0 1 .3-.5.7.7 0 0 1 .4-.1.8.8 0 0 1 .2 0 1 1 0 0 1 .5.4l.3.7c0 .2 0 .5-.2.7-.1.5-.5.8-.7 1.3-.1.3-.2.7-.1 1v.2a5.9 5.9 0 0 0 1.6 1.4 8 8 0 0 1 0-1v-.7a1.4 1.4 0 0 1-.4-.4c-.2-.3-.2-.6-.1-1 0-.3.2-.6.4-.8a3.5 3.5 0 0 1 1.3-1 2.2 2.2 0 0 1-.4-1V4.3l.1-.8.1-.8.2-.3a.6.6 0 0 1 .2-.2.6.6 0 0 1 .4 0h.3l.2.3a3.3 3.3 0 0 1 .4.7 1.6 1.6 0 0 1 .5 0 3.3 3.3 0 0 1 .5-.7l.2-.2a.7.7 0 0 1 .3-.1.6.6 0 0 1 .3 0 .6.6 0 0 1 .3.2l.1.3.2.8v1.8a2.2 2.2 0 0 1-.3 1l.4.4a.9.9 0 0 0 .5 0 .7.7 0 0 0 .2-.1.6.6 0 0 0 .2-.2.8.8 0 0 0 0-.3c.1-.3 0-.6 0-.8v-.6a.6.6 0 0 1 .2-.3.5.5 0 0 1 .2-.1.6.6 0 0 1 .3 0 .6.6 0 0 1 .4.2.8.8 0 0 1 .1.3v2.3c-.2.3-.6.5-.9.7a3.2 3.2 0 0 1-.7.3 7.6 7.6 0 0 1 .3 2.3 8 8 0 0 1 0 1 5.9 5.9 0 0 0 2.8-5.1A5.9 5.9 0 0 0 6.4.5zM4.7 7.8v.6a.8.8 0 0 1 .5.2.8.8 0 0 1 .3.3v.4a.7.7 0 0 1-.1.3.7.7 0 0 1-.3.2.8.8 0 0 1-.4 0v1.8l3.6-2-3.6-1.8z" fill="#888"/>
    <path d="M34 3.9V5h1.5V4zm-2.9 0v1.5h-1.7c-.4 0-.7 0-1 .3-.2.3-.3.6-.3 1v2c0 .3 0 .6.3.8.2.3.6.4 1 .4h.3l.7-.1.8-.4v.4h1.4V3.9zm31.7 0v1.5h-1.7c-.4 0-.7 0-1 .3-.2.3-.3.6-.3 1v2c0 .3 0 .6.3.8.2.3.5.4 1 .4h.3l.7-.1.8-.4v.4h1.4V3.9zM18.1 5.3l-.7.1a3 3 0 0 0-.8.4l-.1-.4h-1.3v4.4h1.4V6.7l1-.2a.3.3 0 0 1 .3.3v3h1.5V6.7l1-.2a.3.3 0 0 1 .3.3v3h1.5V6.5c0-.3-.2-.6-.4-.9-.2-.2-.5-.3-.9-.3a3 3 0 0 0-.9.1 2.7 2.7 0 0 0-.8.4c-.3-.3-.6-.5-1-.5zm6.3 0c-.5 0-.8.1-1 .3-.3.3-.4.6-.4 1v2c0 .4.1.7.4 1 .2.2.5.3.9.3.9 0 1.8 0 2.9-.2v-1l-2.4.1a.3.3 0 0 1-.3-.3v-.3h2.9V6.6A1.3 1.3 0 0 0 26 5.3zm15 0c-.8 0-1.7 0-2.8.2v1a73.2 73.2 0 0 0 2.3-.1.3.3 0 0 1 .3.3V7h-1.7c-.4 0-.7.1-1 .3-.2.3-.3.6-.3 1v.3c0 .4.1.7.4 1 .2.2.5.3.9.3h.3l.7-.1.8-.4v.4h1.3V6.5c0-.3 0-.6-.3-.9-.2-.2-.5-.3-1-.3zm27 0c-.4 0-.7.1-1 .3-.2.3-.3.6-.3 1v2c0 .4.1.7.3 1 .3.2.6.3 1 .3.8 0 1.8 0 2.9-.2v-1l-2.4.1a.3.3 0 0 1-.3-.3v-.3h2.9V6.6c0-.4-.2-.7-.4-1-.2-.2-.6-.3-1-.3zm-21.6 0c-.4 0-.8.2-1 .4-.2.3-.3.6-.3 1v2c0 .3 0 .6.3.8.2.3.5.4 1 .4.7 0 1.6 0 2.7-.2v-1h-2.3a.3.3 0 0 1-.3-.2V6.8c0-.2.1-.3.4-.3h2.2V5.4zm4.7 0c-.5 0-.8.2-1 .4-.3.3-.4.6-.4 1v2c0 .3.1.6.4.8.2.3.5.4.9.4.8 0 1.7 0 2.7-.2v-1H50a.3.3 0 0 1-.3-.2V6.8c0-.2 0-.3.3-.3h2.2V5.4zm4.7 0c-.4 0-.8.2-1 .4-.2.3-.4.6-.4 1v2c0 .3.2.6.4.8.2.3.5.4.9.4.8 0 1.7 0 2.8-.2v-1h-2.3a.3.3 0 0 1-.3-.2V6.8c0-.2.1-.3.3-.3H57V5.4zm-20.8.2v1.2h.6v3.1h1.5V5.5zm-8.6.8h.8c.2 0 .3.1.3.4V7h-1.4v-.4c0-.3.1-.4.3-.4zm42.1 0h.8c.2 0 .3.1.3.4V7h-1.4v-.4c0-.3 0-.4.3-.4zm-37 .2H31v2a3.6 3.6 0 0 1-1 .2h-.3a.3.3 0 0 1-.3-.3V6.8c0-.2.2-.3.4-.3zm31.7 0h1.2v2a3.6 3.6 0 0 1-1 .2h-.3a.3.3 0 0 1-.3-.3V6.8c0-.2.1-.3.4-.3zM38 8h1.2v.5a3.6 3.6 0 0 1-1 .2H38a.3.3 0 0 1-.3-.3V8a.3.3 0 0 1 .3 0zm3.4.5v1.3h1.5V8.5zm16.3 0v1.3h1.5V8.5z" fill="#888"/>
</svg>