<svg width="110" viewBox="0 0 206 48" xmlns="http://www.w3.org/2000/svg" class="global-header__logo">
    <path class="global-header__logo-brand" d="M96.802 13.89c-.61-1.155-1.624-2.11-3.004-2.866-1.38-.756-3.044-1.114-4.952-1.114-3.207 0-5.886 1.313-7.996 3.98-1.584-2.667-4.222-3.98-7.916-3.98-2.922 0-5.195.995-6.9 2.985v-2.309h-7.55v25.949h7.55v-13.93c0-.596.04-1.114.122-1.671a9.82 9.82 0 01.527-1.91c.284-.757.73-1.354 1.42-1.791.65-.438 1.503-.677 2.477-.677 2.8 0 4.222 1.632 4.222 4.895v15.124h7.55V22.247c.283-3.82 1.785-5.69 4.505-5.69 1.136 0 2.03.318 2.679.954.65.637 1.096 1.274 1.258 1.91.163.637.244 1.314.244 2.03v15.124h7.55V19.859c0-.875-.122-1.79-.406-2.746a15.89 15.89 0 00-1.38-3.223zM107.924 0c-1.218 0-2.233.438-3.045 1.274-.852.835-1.258 1.83-1.258 2.984 0 1.155.406 2.15 1.258 2.985.853.836 1.868 1.274 3.045 1.274 1.217 0 2.232-.438 3.044-1.274.852-.835 1.258-1.83 1.258-2.985 0-1.154-.406-2.149-1.258-2.984C110.156.438 109.141 0 107.924 0zM111.658 10.626h-7.55v25.949h7.55V10.626zM178.917 38.724c-1.217 0-2.232.438-3.044 1.274-.852.835-1.258 1.83-1.258 2.984 0 1.155.406 2.15 1.258 2.985.852.836 1.867 1.274 3.044 1.274 1.218 0 2.233-.438 3.045-1.274.852-.835 1.258-1.83 1.258-2.985 0-1.154-.406-2.149-1.258-2.984-.853-.876-1.868-1.274-3.045-1.274zM182.692 10.626h-7.55v25.949h7.55V10.626zM133.618 10.626l-4.952 7.204-4.912-7.204h-8.443l9.011 12.895-9.011 13.054h8.443l4.912-7.244 4.952 7.244h8.443L133.09 23.52l8.971-12.895h-8.443zM170.19 10.626h-9.092l-7.834 10.626V10.626h-7.55v25.949h7.55V25.51l8.93 11.064h9.66l-10.716-13.213 9.052-12.736zM199.375 10.626c0-4.1-3.369-7.402-7.55-7.402v7.402h-5.195v6.607h5.195v9.233c0 1.87.284 3.502.893 4.895.609 1.393 1.259 2.388 1.949 3.025.73.637 1.623 1.114 2.638 1.512 1.055.358 1.786.557 2.273.597.487.04.974.08 1.543.08 1.664 0 3.287-.08 4.83-.239v-6.248c-.771.08-1.461.159-2.151.199-.853 0-1.543-.12-2.192-.358-.609-.24-1.056-.518-1.34-.836-.284-.319-.487-.637-.609-1.035-.162-.398-.243-.677-.243-.836-.041-.159-.041-.278-.041-.358v-9.631h6.616v-6.607h-6.616z" fill="#aaa"/>
    <path d="M15.892 36.742a34.619 34.619 0 019.148-15.426 35.196 35.196 0 00-11.473-7.618C9.268 11.931 4.657 10.413 0 10.418v26.323h15.892z" fill="#58C8D1"/>
    <path d="M34.058 36.742h15.845V10.419c-9.32-.011-18.263 4.412-24.863 10.898a34.602 34.602 0 019.018 15.425z" fill="#F3556F"/>
    <path d="M15.892 36.742h18.166a34.603 34.603 0 00-9.018-15.426 34.619 34.619 0 00-9.148 15.426z" fill="#383B76"/>
</svg>