<svg width="38" height="31.567">
  <defs>
    <clipPath clipPathUnits="userSpaceOnUse" id="amonogame">
      <path d="M0 583.94h810.71V0H0z"/>
    </clipPath>
  </defs>
  <g clip-path="url(#amonogame)" transform="matrix(.35278 0 0 -.35278 -127.22 118.785)">
    <path d="M450.09 298.08v12.218c0 14.56-11.845 26.412-26.405 26.412-7.11 0-13.575-2.829-18.33-7.413-4.754 4.584-11.22 7.413-18.33 7.413-14.56 0-26.406-11.852-26.406-26.412v-36.655c0-14.567 11.846-26.413 26.407-26.413h36.659c14.56 0 26.406 11.846 26.406 26.413v17.756h-52.817v-16.166h36.653v-1.59c0-5.652-4.597-10.248-10.242-10.248h-36.66c-5.645 0-10.242 4.596-10.242 10.248v36.655c0 5.651 4.597 10.248 10.243 10.248 5.65 0 10.248-4.597 10.248-10.248V298.08h16.163v12.218c0 5.651 4.597 10.248 10.248 10.248 5.645 0 10.242-4.597 10.242-10.248V298.08z" fill="#b93000"/>
  </g>
</svg>