<svg width="80" viewBox="0 0 153 47" fill="none">
    <path d="M114.663 8.644a4.559 4.559 0 1 1-9.117 0 4.559 4.559 0 0 1 9.117 0z" fill="#fff"/>
    <path fill-rule="evenodd" clip-rule="evenodd" d="M58.837 42.583c3.686 0 6.633-.701 8.842-2.102 2.208-1.401 3.614-3.79 4.218-7.165l1-5.59c.16-.827.24-1.592.24-2.292 0-2.102-.684-3.742-2.05-4.92-1.748-1.497-4.338-2.245-7.77-2.245-7.72 0-12.138 3.152-13.25 9.458l-1 5.589a13.988 13.988 0 0 0-.239 2.436c0 2.101.636 3.678 1.907 4.729 1.715 1.401 4.416 2.102 8.102 2.102zm-.545-15.158a3.267 3.267 0 1 1 6.384 1.392l-1.004 4.609a3.267 3.267 0 1 1-6.384-1.392l1.004-4.609zM124.165 42.583c3.686 0 6.634-.701 8.842-2.102 2.208-1.401 3.614-3.79 4.218-7.165l1.001-5.59c.159-.827.238-1.592.238-2.292 0-2.102-.683-3.742-2.049-4.92-1.748-1.497-4.338-2.245-7.769-2.245-7.722 0-12.138 3.152-13.251 9.458l-1.001 5.589a14.073 14.073 0 0 0-.238 2.436c0 2.101.636 3.678 1.907 4.729 1.716 1.401 4.416 2.102 8.102 2.102zm-.544-15.158a3.266 3.266 0 1 1 6.383 1.392L129 33.426a3.267 3.267 0 1 1-6.384-1.392l1.005-4.609z" fill="#fff"/>
    <path d="M16.355 9.287a4.046 4.046 0 0 0-2.148 2.906l-4.573 25.94a4.052 4.052 0 1 0 7.98 1.407l2.768-15.702 3.578 6.198c.08.138.166.27.259.394a4.05 4.05 0 0 0 6.49 1.055l7.193-7.194-2.44 13.842a4.052 4.052 0 1 0 7.98 1.407l4.572-25.94a4.04 4.04 0 0 0-.032-1.576 4.05 4.05 0 0 0-6.888-2.388l-12.396 12.4-6.583-11.406a4.05 4.05 0 0 0-5.76-1.343zM82.315 16.887a4.051 4.051 0 0 0-4.693 3.287l-3.078 17.46a4.052 4.052 0 1 0 7.98 1.407l3.078-17.46a4.052 4.052 0 0 0-3.287-4.694zM103.956 20.174a4.051 4.051 0 1 1 7.979 1.408L108.77 39.54a4.052 4.052 0 1 1-7.98-1.407l3.166-17.959z" fill="#fff"/>
    <path d="M94.243 17.26a4.052 4.052 0 0 1 5.73 5.73L81.352 41.618a4.053 4.053 0 0 1-5.73-5.73l18.621-18.627z" fill="url(#paint0_linear_5257_107855)"/>
    <defs>
        <linearGradient id="paint0_linear_5257_107855" x1="74.436" y1="42.804" x2="101.166" y2="16.08" gradientUnits="userSpaceOnUse">
            <stop stop-color="#89F2FE"/>
            <stop offset="1" stop-color="#158FFF"/>
        </linearGradient>
    </defs>
</svg>