<svg width="40" height="40" viewBox="0 0 20 20" fill="none">
    <path d="M38.99 4v12H36.9V6.6h-.03L33.14 16h-1.38l-3.81-9.4h-.03V16H26V4h2.99l3.44 8.9h.05L36.13 4h2.86zm1.74.91c0-.33.12-.61.36-.84.25-.23.53-.34.87-.34.36 0 .65.12.89.35.23.23.35.5.35.83 0 .33-.12.6-.36.83-.24.22-.53.33-.88.33s-.64-.1-.88-.33a1.1 1.1 0 0 1-.35-.83zM42.96 16h-2.02V7.4h2.02V16zm6.15-1.47c.3 0 .63-.07 1-.21.36-.14.69-.32 1-.55v1.88c-.33.18-.7.32-1.1.42-.41.1-.86.14-1.35.14-1.27 0-2.3-.4-3.1-1.2a4.18 4.18 0 0 1-1.18-3.07c0-1.38.4-2.52 1.21-3.41a4.4 4.4 0 0 1 3.44-1.35 4.7 4.7 0 0 1 2.08.49V9.6c-.32-.23-.63-.4-.96-.53a2.79 2.79 0 0 0-1-.2c-.8 0-1.44.27-1.94.79-.49.52-.73 1.22-.73 2.1 0 .87.23 1.54.7 2.03.48.48 1.12.73 1.93.73zm7.76-7.27a2.58 2.58 0 0 1 .77.11v2.05a2.3 2.3 0 0 0-1.2-.33c-.5 0-.93.21-1.27.63-.34.42-.51 1.07-.51 1.94V16h-2.03V7.4h2.03v1.35h.03a2.24 2.24 0 0 1 2.18-1.5zm.87 4.56c0-1.42.4-2.54 1.2-3.38A4.44 4.44 0 0 1 62.3 7.2c1.35 0 2.4.4 3.15 1.2.76.8 1.14 1.88 1.14 3.24 0 1.4-.4 2.5-1.2 3.33-.81.83-1.9 1.24-3.29 1.24a4.3 4.3 0 0 1-3.17-1.17 4.35 4.35 0 0 1-1.18-3.21zm2.11-.06c0 .9.2 1.58.61 2.05.41.48 1 .71 1.75.71.74 0 1.3-.23 1.68-.7.4-.48.58-1.18.58-2.11 0-.93-.2-1.63-.6-2.1-.4-.47-.95-.71-1.67-.71-.74 0-1.32.25-1.73.74a3.2 3.2 0 0 0-.62 2.12zm9.74-2.1c0 .29.1.51.28.68.18.16.59.37 1.22.62.8.33 1.38.69 1.7 1.1.33.4.49.89.49 1.46 0 .81-.31 1.46-.93 1.95-.63.5-1.47.74-2.52.74a5.87 5.87 0 0 1-2.29-.46v-2c.37.26.77.47 1.2.62.42.15.8.22 1.15.22.45 0 .79-.06 1-.19.22-.13.33-.34.33-.64a.9.9 0 0 0-.33-.71c-.23-.2-.66-.42-1.29-.67a3.96 3.96 0 0 1-1.59-1.06c-.3-.39-.47-.88-.47-1.48 0-.78.31-1.42.93-1.92.62-.5 1.42-.75 2.4-.75a5.86 5.86 0 0 1 1.95.36v1.93a4.32 4.32 0 0 0-.94-.46c-.36-.13-.71-.2-1.06-.2-.39 0-.69.08-.9.23a.74.74 0 0 0-.33.63zm4.56 2.16c0-1.42.4-2.54 1.2-3.38a4.44 4.44 0 0 1 3.36-1.24c1.34 0 2.39.4 3.15 1.2.75.8 1.13 1.88 1.13 3.24 0 1.4-.4 2.5-1.2 3.33-.8.83-1.9 1.24-3.29 1.24a4.3 4.3 0 0 1-3.17-1.17 4.35 4.35 0 0 1-1.18-3.21zm2.11-.06c0 .9.2 1.58.61 2.05.41.48 1 .71 1.75.71.74 0 1.3-.23 1.69-.7.38-.48.57-1.18.57-2.11 0-.93-.2-1.63-.6-2.1-.4-.47-.95-.71-1.67-.71-.74 0-1.32.25-1.73.74a3.2 3.2 0 0 0-.62 2.12zm13.45-2.7h-3.02V16h-2.05V9.05H83.2V7.4h1.44V6.2a2.98 2.98 0 0 1 3.15-3.09 5.03 5.03 0 0 1 1.15.15v1.75a2.03 2.03 0 0 0-.93-.22c-.42 0-.75.13-.98.4-.22.26-.34.65-.34 1.17V7.4h3.02V5.47l2.03-.62V7.4h2.05v1.66h-2.05v4.02c0 .53.1.9.3 1.12.18.22.48.33.9.33a2 2 0 0 0 .85-.28v1.67a4.38 4.38 0 0 1-1.53.3c-.85 0-1.49-.23-1.91-.69-.43-.45-.64-1.14-.64-2.05V9.05z"/>
    <path d="M9.5 0H0v9.5h9.5V0z" fill="#F25022" style="--darkreader-inline-fill:#f35e34"/>
    <path d="M20 0h-9.5v9.5H20V0z" fill="#7FBA00" style="--darkreader-inline-fill:#c6ff4a"/>
    <path d="M9.5 10.5H0V20h9.5v-9.5z" fill="#00A4EF" style="--darkreader-inline-fill:#25baff"/>
    <path d="M20 10.5h-9.5V20H20v-9.5z" fill="#FFB900" style="--darkreader-inline-fill:#ffc01a"/>
    <path d="M100.74 7.04c0 .44.16.81.47 1.11.3.3.85.66 1.65 1.07a7.4 7.4 0 0 1 2.29 1.66c.46.56.7 1.2.7 1.92a3 3 0 0 1-1.16 2.5c-.77.6-1.76.9-2.96.9-.68 0-1.31-.06-1.88-.2-.57-.14-1-.3-1.29-.49v-2.28c.37.34.84.62 1.42.84.58.22 1.14.34 1.7.34.61 0 1.1-.12 1.45-.35.36-.24.54-.6.54-1.06 0-.41-.18-.79-.52-1.13a8.45 8.45 0 0 0-1.9-1.22 6.3 6.3 0 0 1-2.01-1.53 3 3 0 0 1-.67-1.94c0-.99.39-1.8 1.15-2.43a4.5 4.5 0 0 1 2.96-.95 8.07 8.07 0 0 1 2.64.46v2.18a3.78 3.78 0 0 0-1.19-.62 4.6 4.6 0 0 0-1.42-.22c-.58 0-1.06.13-1.42.4-.37.25-.55.6-.55 1.04zm10.09 7.49a1.99 1.99 0 0 0 .85-.28v1.67a4.39 4.39 0 0 1-1.52.3c-.86 0-1.5-.24-1.92-.7-.43-.45-.64-1.13-.64-2.05V9.05h-1.41V7.4h1.41V5.46l2.03-.62V7.4h2.05v1.66h-2.05v4.03c0 .53.1.9.3 1.12.18.22.48.33.9.33zm8.97-3.92v3.35c0 .82.05 1.5.13 2.04h-2.02l-.1-.92h-.03c-.26.35-.6.61-1.01.8-.42.18-.94.27-1.57.27-.76 0-1.4-.23-1.9-.7a2.38 2.38 0 0 1-.77-1.86c0-.83.33-1.5.98-2 .66-.52 1.69-.85 3.09-1.03l1.23-.15c0-.57-.14-.97-.4-1.21-.27-.24-.68-.36-1.21-.37-.58 0-1.13.09-1.65.26-.52.18-.92.39-1.2.63V7.87a7.3 7.3 0 0 1 3.15-.69c1.07 0 1.88.3 2.44.89.56.59.83 1.44.83 2.54zm-2.88 1.28c-.89.1-1.52.28-1.88.52-.37.24-.55.57-.55.99 0 .36.1.64.32.85.22.21.54.32.98.32.63 0 1.13-.2 1.5-.58.36-.4.55-.88.55-1.46v-.75l-.92.11zm8.91-4.63a2.6 2.6 0 0 1 .77.11v2.05a2.3 2.3 0 0 0-1.2-.33c-.5 0-.92.21-1.27.63-.34.42-.51 1.07-.51 1.94V16h-2.03V7.4h2.03v1.35h.03a2.24 2.24 0 0 1 2.18-1.5zm6.07 7.27a2.02 2.02 0 0 0 .85-.28v1.67a4.39 4.39 0 0 1-1.52.3c-.85 0-1.5-.24-1.92-.7-.43-.45-.64-1.13-.64-2.05V9.05h-1.41V7.4h1.41V5.46l2.04-.62V7.4h2.04v1.66h-2.04v4.03c0 .53.1.9.28 1.12.2.22.5.33.91.33z"/>
</svg>