<svg width="90" viewBox="0 0 311 72">
    <path d="M124.805 37.716c.372.695.73 1.418 1.075 2.169.344.75.675 1.519.991 2.306.317-.806.652-1.588 1.006-2.348.353-.759.716-1.496 1.089-2.21l10.444-20.205c.186-.348.377-.618.572-.81.196-.192.415-.334.657-.426.242-.091.516-.146.823-.165.308-.018.666-.027 1.076-.027h5.204a2 2 0 0 1 2 2v36a2 2 0 0 1-2 2h-4.322a2 2 0 0 1-2-2V32.994c0-1.117.056-2.325.168-3.624l-10.779 20.563c-.335.64-.787 1.125-1.355 1.455-.568.33-1.214.494-1.941.494h-1.284c-.726 0-1.373-.165-1.941-.494-.568-.33-1.019-.815-1.354-1.455l-10.836-20.59a33.016 33.016 0 0 1 .224 3.65V54a2 2 0 0 1-2 2H106a2 2 0 0 1-2-2V18a2 2 0 0 1 2-2h5.205c.409 0 .768.01 1.075.027.307.019.582.074.824.165.242.092.461.233.656.426.196.192.386.462.573.81l10.472 20.288zM171.819 48.315c1.228 0 2.325-.204 3.291-.611a6.655 6.655 0 0 0 2.451-1.752c.668-.76 1.178-1.688 1.53-2.783.352-1.095.528-2.34.528-3.734V18a2 2 0 0 1 2-2h5.154a2 2 0 0 1 2 2v21.435c0 2.426-.392 4.653-1.178 6.68-.785 2.028-1.909 3.775-3.372 5.241-1.462 1.467-3.241 2.607-5.335 3.422-2.095.815-4.451 1.222-7.069 1.222-2.636 0-5.001-.407-7.096-1.222-2.094-.815-3.873-1.955-5.335-3.422-1.463-1.466-2.582-3.213-3.359-5.24-.776-2.028-1.164-4.255-1.164-6.68V18a2 2 0 0 1 2-2h5.154a2 2 0 0 1 2 2v21.408c0 1.394.176 2.639.528 3.734.352 1.095.862 2.027 1.53 2.797a6.585 6.585 0 0 0 2.451 1.765c.966.407 2.063.611 3.291.611zM204.612 41.203V54a2 2 0 0 1-2 2h-5.255a2 2 0 0 1-2-2V18a2 2 0 0 1 2-2h10.978c2.885 0 5.344.297 7.38.892 2.035.595 3.696 1.423 4.983 2.485 1.287 1.061 2.222 2.315 2.806 3.761.585 1.446.877 3.02.877 4.722 0 1.3-.174 2.526-.521 3.679a11.118 11.118 0 0 1-1.547 3.198 11.974 11.974 0 0 1-2.519 2.622 12.74 12.74 0 0 1-2.226 1.372c-.019.01 1.537 2.691 1.939 3.35l6.633 10.878A2 2 0 0 1 224.433 56h-4.817c-1.551 0-2.665-.586-3.34-1.757L209.65 42.63c-.292-.512-.635-.879-1.027-1.098-.393-.22-.945-.33-1.657-.33h-2.354zm0-6.397h3.723c1.26 0 2.332-.16 3.218-.48.885-.321 1.611-.765 2.176-1.332a5.078 5.078 0 0 0 1.233-1.99c.255-.76.383-1.58.383-2.458 0-1.757-.57-3.13-1.711-4.118-1.141-.988-2.907-1.482-5.299-1.482h-3.723v11.86zM257.184 18v3.138a2 2 0 0 1-2 2H240.81v10.13h11.636a2 2 0 0 1 2 2v3.166a2 2 0 0 1-2 2H240.81V54a2 2 0 0 1-2 2h-5.309a2 2 0 0 1-2-2V18a2 2 0 0 1 2-2h21.683a2 2 0 0 1 2 2zM299.716 54.621A1 1 0 0 1 298.79 56h-.722c-.261 0-.476-.065-.644-.196a1.513 1.513 0 0 1-.392-.56l-4.676-11.508h-19.46l-4.648 11.508a1.202 1.202 0 0 1-.392.532c-.187.15-.411.224-.672.224h-.694a1 1 0 0 1-.926-1.379l15.14-36.998a2 2 0 0 1 1.851-1.243h.17a2 2 0 0 1 1.851 1.242l15.14 37zm-25.952-13.013h17.752l-8.092-20.02a16.566 16.566 0 0 1-.392-1.064c-.131-.41-.261-.84-.392-1.288-.131.448-.261.877-.392 1.288-.131.392-.261.756-.392 1.092l-8.092 19.992zM310.474 55a1 1 0 0 1-1 1h-.884a1 1 0 0 1-1-1V17.38a1 1 0 0 1 1-1h.884a1 1 0 0 1 1 1V55zM255 53.557a2.563 2.563 0 0 1 .715-1.787c.238-.238.504-.422.798-.55.311-.147.65-.22 1.017-.22.348 0 .678.073.99.22.312.128.578.312.798.55.238.22.421.486.55.797.146.312.22.642.22.99 0 .367-.074.706-.22 1.018-.129.293-.312.56-.55.797-.22.22-.486.395-.798.523a2.578 2.578 0 0 1-.99.192c-.715 0-1.32-.238-1.815-.715-.477-.495-.715-1.1-.715-1.815z" fill="#fff"/>
    <path d="M52 8a8 8 0 0 1 8-8h4a8 8 0 0 1 8 8v56a8 8 0 0 1-8 8h-4a8 8 0 0 1-8-8V8zM26 26a8 8 0 0 1 8-8h4a8 8 0 0 1 8 8v20a8 8 0 0 1-8 8h-4a8 8 0 0 1-8-8V26zM0 8a8 8 0 0 1 8-8h4a8 8 0 0 1 8 8v56a8 8 0 0 1-8 8H8a8 8 0 0 1-8-8V8z" fill="#FFCE00"/>
</svg>