<svg width="123" viewBox="0 0 111 30" xmlns="http://www.w3.org/2000/svg">
    <path fill="#f72e38" d="M105 14.3l6 15.7-5.3-.8-3.3-8.7-3.5 8-5-.7 6-13.7L94.5 0h5l3 7.9L106 0h5.1l-6 14.3zM90.6 0h-4.6v27.2l4.6.4V0zm-8.6 27c-4.2-.3-8.4-.6-12.6-.7V0h4.6v21.9c2.7 0 5.4.3 8 .4v4.6zM64.2 10.6v4.6h-6.4V26h-4.6V0h13.1v4.7h-8.5v6h6.4zm-18.9-6v21.5l-4.6.1V4.7h-4.9V0h14.4v4.7h-4.9zM30.7 15.6h-6.2v7c2.7-.1 5.5-.4 8.3-.4v4.5l-13 1V0h13v4.7h-8.3V11h6.2v4.6zM4.7 13v16.3L0 30V0h4.5l6 17V0h4.7v28l-5 .7L4.7 13z"/>
</svg>