<svg xmlns="http://www.w3.org/2000/svg" width="60" height="60" viewBox="0 0 79 77">
      <ellipse cx="39.5" cy="38.5" fill="#fff" rx="37.848" ry="36.87"/>
      <path d="M32.681 75.542C25.017 74.15 18.25 70.73 12.761 65.48 6.303 59.3 2.633 52.29 1.358 43.699-.956 28.116 7.06 12.734 21.373 5.291c3.158-1.642 7.01-3.027 10.399-3.738 3.718-.781 12.25-.72 15.975.115 7.821 1.75 13.797 5.028 19.347 10.61 5.632 5.666 9.11 12.26 10.473 19.863.67 3.738.616 9.93-.118 13.412-3.193 15.129-14.57 26.44-29.935 29.765-3.712.803-11.04.914-14.833.224zm12.187-2.156c8.057-1.12 15.206-4.81 21.05-10.862 8.468-8.77 11.68-20.786 8.71-32.57-2.44-9.67-8.99-17.85-18.17-22.682-2.928-1.541-7.227-3.008-10.63-3.627-3.297-.6-9.57-.593-12.734.015C18.324 6.496 7.074 17.29 3.96 31.612c-.757 3.48-.698 10.347.121 14.023 1.517 6.807 4.676 12.576 9.556 17.447 8.246 8.23 19.48 11.938 31.231 10.304zM20.84 60.984c-1.792-.7-3.335-1.35-3.429-1.443-.093-.094.361-.645 1.01-1.226l1.18-1.055-1.912.934c-1.051.514-2.004.933-2.117.931-.112-.002-.46-.396-.77-.877l-.566-.874 7.067-5.469 7.067-5.469 2.48-3.641c10.647-15.636 19.446-26.399 22.946-28.068.83-.395 1.026-.393 2.652.034.966.253 2.321.823 3.01 1.265 1.274.817 4.455 4.004 4.984 4.991.276.518.218.541-1.374.546l-1.663.005-.864 1.321c-.834 1.275-.849 1.345-.426 1.99.682 1.04.337 3.628-1.037 7.793-1.829 5.54-5.014 12.834-6.933 15.874l-.61.965.732 3.817c.402 2.1.812 4.26.91 4.803l.18.986 4.553.072 4.553.072.082 1.125.081 1.124H37.725v-2.38H41.958v-5.46l-1.786-.512-1.786-.512-.132-1.392-.132-1.392-6.615 6.211c-3.638 3.416-6.793 6.205-7.011 6.198-.219-.007-1.864-.586-3.656-1.286zM32.433 52l8.07-7.63.074 3.263c.083 3.658-.093 3.384 2.373 3.697l1.39.177.032 1.628.032 1.63.298-1.713c.297-1.703.306-1.715 1.49-2.169.654-.25 1.328-.462 1.497-.47.168-.008.754 1.116 1.3 2.499.548 1.382 1.043 2.465 1.102 2.406.059-.058-.156-1.52-.477-3.246l-.583-3.14 1.009-1.577c2.83-4.424 8.058-17.603 8.058-20.312 0-.416-.298-1.147-.662-1.624-.896-1.176-.895-2.461.002-2.803.713-.27 2.247-2.456 2.247-3.2 0-.54-2.089-1.981-3.47-2.395-.539-.162-1.264-.223-1.61-.136-2.167.544-13.189 14.407-22.54 28.351-1.367 2.038-2.224 2.995-3.745 4.18-1.085.847-1.973 1.587-1.973 1.645 0 .058 1.734-.793 3.854-1.893 2.119-1.1 3.896-1.956 3.948-1.904.053.053-2.766 2.651-6.263 5.775l-6.359 5.678 1.021.451c.562.249 1.2.454 1.418.457.219.003 4.029-3.429 8.467-7.625zM55.187 19.97c-.616-1.15.9-2.316 1.871-1.438.955.865.475 1.968-.856 1.968-.46 0-.836-.196-1.015-.53zM48.84 58.93c.005-.466-1.693-4.266-1.86-4.163-.101.063-.264.797-.362 1.631-.098.835-.247 1.79-.33 2.124-.145.573-.078.607 1.199.607.743 0 1.352-.09 1.353-.199z"/>
</svg>