<svg width="100" viewBox="0 0 1217 284">
    <path fill="#aaa" d="M753 284a100 100 0 0 1-76-41c-16-21-23-48-20-76a101 101 0 0 1 44-75 104 104 0 0 1 71-18 103 103 0 0 1 94 91h1v46l-1 48c-1 5-3 10-6 14a31 31 0 0 1-23 9h-8c-5-2-10-4-13-8l-4-4-2 1-4 2a98 98 0 0 1-53 11zm17-58c13-2 24-10 31-21a53 53 0 0 0 2-49 44 44 0 0 0-43-25c-6 0-11 1-16 3-7 3-15 9-20 16-3 4-6 10-7 15-2 7-2 17-1 24 2 10 8 20 15 26 7 7 16 11 26 11h13zm-654 55l-3-9a32 32 0 0 0-55-3c-3 5-7 8-12 10-3 2-5 3-8 3H25c-11-2-20-11-24-21l-1-84V96c2-6 5-12 10-16 13-12 33-12 45 1l2 2a111 111 0 0 1 37-11h23a105 105 0 0 1 94 93v89c-1 14-11 25-25 28h-12c-11-2-21-10-24-21-2-5-2-2-2-40v-35l16-5 15-4-16-5-16-5-1-2c0-3-2-7-4-10-6-10-16-17-28-20h-8c-6 0-9 0-14 2-12 4-22 14-26 26-2 7-3 9-3 25l1 15c3 10 11 16 21 16 13 0 25 9 30 22l1 22v20-2zm199 2a105 105 0 0 1-79-47l-8-16a114 114 0 0 1-6-62c7-44 40-77 83-84 12-2 25-2 36-1a102 102 0 0 1 88 88l1 17-1 20a103 103 0 0 1-114 85zm19-58c16-3 29-14 34-29 3-6 3-12 3-20a47 47 0 0 0-24-41c-11-6-25-7-37-3-11 4-21 12-26 23-4 8-5 15-5 25a45 45 0 0 0 40 45h15zm201 58a106 106 0 0 1-79-45c-8-12-14-27-16-42-2-9-2-4-2-88l1-82c1-12 9-21 20-25h17l9 4c6 4 11 11 12 19l1 31v29l4-2c14-7 31-10 49-10a103 103 0 0 1 98 107l-2 20a105 105 0 0 1-55 73 105 105 0 0 1-57 11zm13-58c11 0 19-4 27-11 7-7 12-16 14-25 1-9 1-20-2-28l-6-12-11-12c-8-5-16-7-27-7-10 0-18 2-25 7-10 7-17 18-19 30l-1 18a44 44 0 0 0 50 40zm354 58l-11-4c-8-4-13-10-15-20v-80-80c2-11 9-19 19-22l10-2c5 0 10 1 14 3l7 5 2 2 2-2a85 85 0 0 1 53-9c7 1 12 2 17 5 10 4 16 11 17 20 2 13-4 25-15 31-5 2-10 2-21 2-14-1-21-1-29 3-5 1-7 3-10 6l-5 8c-2 4-2 0-2 57s0 52-2 57c-2 8-8 14-15 17-5 2-11 3-16 3zm200 0a99 99 0 0 1-84-56 109 109 0 0 1-11-60 103 103 0 0 1 119-94 101 101 0 0 1 73 44 104 104 0 0 1 18 47v45l-1 52c-3 8-9 15-17 18l-4 1-8 1-7-1a29 29 0 0 1-18-11l-2 1a97 97 0 0 1-58 13zm19-58c18-4 32-18 36-38v-18c-1-10-6-19-12-26-5-5-13-10-20-12s-17-2-24-1a47 47 0 0 0-35 39v17c3 21 19 37 40 39h15zM100 201c-8-2-14-8-16-16v-5-6c3-7 8-12 15-14l6-1c4 0 6 1 10 3l4 3c3 2 3 3 4 5 6 12 0 27-13 31h-10z"/>
</svg>