<svg width="80" viewBox="0 0 179.66 82.677" xmlns="http://www.w3.org/2000/svg">
   <path d="M27.165 0l-2.288 2.268-2.288 2.267-.094 9.432-.093 9.433-6.672-9.505L9.06 4.39H0v36.336h9.515l.093-10.093.094-10.093 7.204 10.093 7.205 10.093h7.992V4.9l-2.47-2.45zm38.22 3.872c-3.001-.008-6.105.696-9.097 2.195-2.11 1.057-5.438 4.16-6.892 6.425-2.325 3.624-3.343 9.108-2.502 13.482.236 1.226.997 3.39 1.692 4.81 3.697 7.554 12.163 11.576 20.602 9.787 6.35-1.346 11.817-6.327 13.74-12.52 1.058-3.407 1.005-8.335-.125-11.583-2.75-7.91-9.748-12.577-17.418-12.596zm82.43.449v36.49l8.73-.178c6.492-.132 9.254-.323 10.766-.745 8.03-2.238 12.385-8.352 12.348-17.33-.017-4.159-.455-6.267-1.922-9.246-1.194-2.427-4.23-5.577-6.479-6.722-3.429-1.747-4.8-1.949-14.36-2.113zm-47.979.069v36.336H109.361V28.732h3.08l3.714 5.909 3.713 5.908 5.371.098c4.648.085 5.345.027 5.17-.43-.112-.29-1.844-3.032-3.85-6.094a1005.309 1005.309 0 0 1-3.895-5.975c-.154-.252.347-.757 1.308-1.32 3.574-2.095 5.251-5.389 5.215-10.24-.037-5.042-2.034-8.574-5.967-10.555-2.794-1.407-4.863-1.643-14.405-1.643zm9.525 8.023l3.847.159c5.195.214 6.501 1.103 6.501 4.424 0 2.874-1.934 3.974-6.985 3.974h-3.363v-4.278zm47.978.444h2.76c6.913 0 10.244 3.497 9.867 10.36-.327 5.955-3.06 8.527-9.503 8.944l-3.124.203V22.61zm-92.155.368c5.049.006 9.718 4.542 9.15 10.042-.656 6.36-7.55 10.205-13.226 7.378-3.222-1.606-5.08-4.647-5.063-8.286.018-3.776 1.988-6.698 5.643-8.372a8.333 8.333 0 0 1 3.496-.762zm50.26 32.411a18.428 18.428 0 0 0-4.776.585c-9.513 2.465-15.516 12.094-13.509 21.669 1.453 6.926 6.004 11.916 12.908 14.15 2.41.78 7.539.858 10.184.154 8.565-2.28 14.497-10.773 13.678-19.584-.426-4.584-2.264-8.477-5.5-11.653-3.466-3.402-8.19-5.28-12.985-5.32zm-49.967.006c-11.829-.149-21.226 10.795-18.38 22.87 1.537 6.514 6.71 11.903 13.12 13.665 2.421.666 7.69.648 10.01-.033 8.151-2.394 13.458-9.5 13.435-17.987-.016-5.428-1.843-9.692-5.726-13.354-2.586-2.44-5.65-4.108-8.72-4.748a19.493 19.493 0 0 0-3.739-.413zM0 46.018v36.336H9.525V71.065h5.747c7.915 0 10.53-.759 13.55-3.93 2.111-2.218 2.746-4.216 2.73-8.594-.016-4.347-.547-6.047-2.637-8.428-3.074-3.5-5.763-4.08-18.949-4.089zm147.814 0v36.336h28.928V73.887h-19.05V46.018h-4.94zM9.525 54.485h4.923c5.393 0 6.476.27 7.275 1.814.674 1.305.636 3.834-.073 4.847-1.006 1.436-2.546 1.805-7.527 1.805H9.525v-4.233zm106.287.555c3.219.112 6.216 1.97 7.81 5.166 2.467 4.952-.267 11.23-5.578 12.807-2.129.632-3.42.628-5.508-.02-3.367-1.046-5.924-4.268-6.251-7.877-.363-4.008 1.506-7.34 5.112-9.11a9.262 9.262 0 0 1 4.415-.966zm-50.865.02c3.31-.081 6.67 1.617 8.464 5.134 3.664 7.182-3.636 15.408-11.26 12.69-4.988-1.779-7.483-7.494-5.363-12.287 1.591-3.599 4.85-5.458 8.16-5.538z" fill="#aaa"/>
</svg>