<svg viewBox="0 0 298 99" width="96.32" height="32" xmlns="http://www.w3.org/2000/svg">
    <g clip-path="url(#clip0_1_34)">
        <path d="M81.496 67.917l2.356 7.28 2.386 7.34a49.528 49.528 0 0 0 10.308-17.832l-7.54 1.591-7.51 1.621zM57.168 85.601l-3.83 6.632-3.858 6.69c7.157 0 13.99-1.533 20.117-4.273l-6.244-4.54-6.185-4.509zM71.187 79.353l-.795 7.634-.795 7.662c6.361-2.83 12.016-6.985 16.64-12.113l-7.54-1.592-7.51-1.591z" fill="#1E70EB"/>
        <path d="M17.465 67.918l-7.51-1.592-7.54-1.591a49.766 49.766 0 0 0 10.309 17.831l2.385-7.339 2.356-7.31zM86.237 53.299l5.125 5.688 5.153 5.748a49.491 49.491 0 0 0 2.415-15.297c0-1.739-.088-3.478-.264-5.187l-6.244 4.539-6.185 4.509zM84.617 38.002l7.01 3.124 7.039 3.125c-.737-7.074-2.945-13.705-6.362-19.57l-3.859 6.69-3.828 6.631z" fill="#4B8DEF"/>
        <path d="M27.744 79.353l-7.51 1.592-7.54 1.592c4.595 5.128 10.279 9.254 16.64 12.113l-.794-7.663-.796-7.634zM41.793 85.601l-6.214 4.51-6.244 4.539a49.32 49.32 0 0 0 20.116 4.273l-3.83-6.66-3.828-6.662zM57.167 85.601l6.185 4.51 6.244 4.539.795-7.663.796-7.634c-4.124 2.977-8.866 5.158-14.02 6.248zM81.495 67.918c-2.592 4.48-6.126 8.37-10.279 11.406v.03l7.51 1.59 7.54 1.592-2.385-7.338-2.386-7.28z" fill="#4B8DEF"/>
        <path d="M64.501 15.632l-2.356-7.31L59.76.985l-5.154 5.718-5.125 5.718c5.36.029 10.426 1.15 15.02 3.212zM49.45 12.45L44.327 6.73l-5.154-5.718-2.386 7.34-2.356 7.28a37.08 37.08 0 0 1 15.02-3.184zM22.001 24.68a37.137 37.137 0 0 1 12.43-9.048l-7.01-3.124-7.04-3.124.796 7.663L22 24.68z" fill="#D2E2FB"/>
        <path d="M22.001 24.68l-7.657-.03H6.627l3.859 6.691 3.828 6.632c1.62-4.981 4.27-9.49 7.687-13.293zM.265 44.25l6.244 4.54 6.215 4.509c-.118-1.267-.207-2.564-.207-3.861 0-3.979.649-7.84 1.797-11.436l-7.01 3.124-7.039 3.125z" fill="#D2E2FB"/>
        <path d="M22.001 24.68l-.795-7.633-.795-7.663A49.56 49.56 0 0 0 6.656 24.68H22.001zM7.304 41.097l7.01-3.124-3.829-6.632-3.858-6.66A49.303 49.303 0 0 0 .265 44.25l7.04-3.154z" fill="#A5C6F7"/>
        <path d="M34.43 15.632l2.356-7.28 2.386-7.339a49.537 49.537 0 0 0-18.79 8.37l7.038 3.125 7.01 3.124zM49.48 12.42l5.125-5.689L59.759.984A49.241 49.241 0 0 0 49.48-.077c-3.534 0-6.98.383-10.279 1.061l5.154 5.747 5.125 5.689zM84.617 38.002l3.83-6.631 3.857-6.69H76.93v.029c3.446 3.773 6.067 8.311 7.687 13.292zM64.501 15.632A37.135 37.135 0 0 1 76.93 24.68h.03l.795-7.633.795-7.663-7.04 3.124-7.009 3.124zM12.724 53.299l-5.155 5.688-5.154 5.718 7.54 1.591 7.51 1.592a36.27 36.27 0 0 1-4.741-14.59zM27.744 79.353a37.424 37.424 0 0 1-10.279-11.435l-2.356 7.28-2.385 7.338 7.54-1.591 7.48-1.592z" fill="#A5C6F7"/>
        <path d="M12.694 53.299l-6.214-4.51-6.215-4.538A50.133 50.133 0 0 0 0 49.438c0 5.335.854 10.492 2.415 15.297l5.154-5.748 5.125-5.688zM76.93 24.68H92.304A49.937 49.937 0 0 0 78.55 9.384l-.795 7.663-.825 7.633z" fill="#78A9F3"/>
        <path d="M64.501 15.632l7.01-3.124 7.039-3.124a49.139 49.139 0 0 0-18.79-8.4l2.385 7.339 2.356 7.31zM57.167 85.601a36.74 36.74 0 0 1-7.687.796 36.74 36.74 0 0 1-7.687-.796l3.829 6.632 3.858 6.69 3.858-6.69 3.83-6.632zM81.495 67.918l7.51-1.592 7.54-1.591-5.183-5.748-5.125-5.688a37.014 37.014 0 0 1-4.742 14.619zM86.413 49.438c0 1.297-.059 2.594-.206 3.86l6.215-4.509 6.244-4.538-7.04-3.124-7.01-3.125c1.179 3.596 1.797 7.428 1.797 11.436zM27.744 79.353l.795 7.634.795 7.663 6.244-4.54 6.215-4.509c-5.154-1.09-9.926-3.271-14.049-6.248z" fill="#78A9F3"/>
        <path d="M161.223 12.596h28.952c23.002 0 38.995 14.649 38.995 36.812 0 22.164-15.993 36.695-38.995 36.695h-28.952V12.596zm28.834 60.244c14.874 0 23.533-10.7 23.533-23.432 0-13.292-8.1-23.549-23.533-23.549H176.42v46.98h13.637zM239.536 12.596H298v13.44h-42.824v15.975H298v13.44h-42.824v17.094H298v13.558h-58.464V12.596zM145.908 52.562c-2.798-2.476-6.804-4.156-11.928-5.01 4.24-1.268 7.628-3.272 10.131-5.984 2.975-3.183 4.447-7.132 4.447-11.671 0-5.482-2.385-9.815-7.097-12.88-4.625-3.006-10.986-4.539-18.909-4.539-8.07 0-15.286 1.68-21.501 4.952 2.445 3.92 4.419 8.134 5.921 12.585 2.532-1.444 4.888-2.505 7.039-3.124a25.345 25.345 0 0 1 7.421-1.12c6.834 0 10.162 2.416 10.162 7.398 0 3.271-1.237 5.482-3.741 6.837-2.621 1.386-6.833 2.093-12.576 2.093h-5.566a59.87 59.87 0 0 1 .442 7.31 63.62 63.62 0 0 1-.236 5.334h5.242c6.245 0 10.809.678 13.607 2.004 2.71 1.297 4.006 3.419 4.006 6.514 0 3.507-1.149 5.983-3.505 7.545-2.415 1.591-6.244 2.416-11.369 2.416-3.386 0-6.862-.442-10.308-1.296-.53-.148-1.06-.266-1.591-.413a61.183 61.183 0 0 1-6.154 11.76c5.86 2.004 12.487 3.007 19.791 3.007 9.896 0 17.643-1.946 23.003-5.778 5.419-3.89 8.187-9.401 8.187-16.357 0-4.804-1.649-8.724-4.918-11.583zM49.48 12.42c-20.41 0-36.962 16.563-36.962 36.988s16.552 36.99 36.962 36.99c20.41 0 36.963-16.565 36.963-36.99S69.891 12.42 49.48 12.42zm0 60.98c-13.224 0-23.974-10.729-23.974-23.992 0-13.263 10.72-23.99 23.974-23.99s23.974 10.727 23.974 23.99c0 13.263-10.75 23.991-23.974 23.991z" fill="#222"/>
    </g>
    <defs>
        <clipPath id="clip0_1_34">
            <path fill="#fff" d="M0 0h298v99H0z"/>
        </clipPath>
    </defs>
</svg>