<svg xmlns="http://www.w3.org/2000/svg" viewBox="270 200 1660 500" width="120" fill="#aaa" >
    <path id="svg_3" d="m777.49412,362.01501c-58.08,0 -98.69,44.35 -98.92,100.06c-0.23,55.36 40,99.7 98.13,99.7c37.44,0 67.51,-15.94 85.34,-40.53l-42.36,-24.42c-10,9.91 -24.16,16 -36.49,16c-20.05,0 -35.6,-10.92 -43.07,-30.6l129.53,0l0.22,-3l0,-0.17s0.37,-7.44 0.39,-13.12c0.24,-60.63 -33.69,-103.92 -92.77,-103.92zm-35.9,74.16c6.17,-15.27 18.73,-27.95 35.44,-27.95c24.26,0 33.13,15.25 35.37,27.95l-70.81,0z" class="cls-2"/>
    <path id="svg_4" d="m373.11412,355.41501c-58.3,0 -105.91,45.95 -106.14,102.46a100.82,100.82 0 0 0 30.35,72.37a107.63,107.63 0 0 0 76.21,31a107,107 0 0 0 74.75,-29.82a100.93,100.93 0 0 0 0.69,-145.14a107,107 0 0 0 -75.86,-30.87zm-0.6,154.19a48.27,48.27 0 0 1 -34.07,-14a50.72,50.72 0 0 1 -14.93,-36.59c0.11,-28.51 22.82,-51.72 50.61,-51.72a48.06,48.06 0 0 1 34,14a50.65,50.65 0 0 1 15,36.55c-0.15,28.56 -22.82,51.76 -50.61,51.76z" class="cls-2"/>
    <path id="svg_5" d="m1131.19412,362.01501c-20.4,0 -40.49,8.17 -57.07,22.35c-12.59,-15.6 -33,-22.35 -63.23,-22.35c-15.48,0 -30.27,7 -43.3,14.78l0,-11.22l-60.5,0l-0.79,193l60.5,0l0.52,-130.91c8.12,-7.46 19.07,-11.7 32.06,-11.7c22.16,0 30.56,11.35 30.46,36.19l-0.44,106.42l60.57,0l0.43,-105.75c0.08,-17 -0.6,-22 -1.68,-25.55a46.25,46.25 0 0 1 31,-11.35c23.21,0 32.32,11.35 32.22,36.19l-0.42,106.42l60.86,0l0.41,-106.42c0.26,-64.56 -22.5,-90.1 -81.6,-90.1z" class="cls-2"/>
    <polygon id="svg_6" points="1257.244140625,558.5850067138672 1317.734130859375,558.5850067138672 1318.524169921875,365.57501220703125 1257.994140625,365.57501220703125 1257.244140625,558.5850067138672 " class="cls-2"/>
    <path id="svg_7" d="m1467.81412,362.01501a86.28,86.28 0 0 0 -43.67,12.07l0,-8.51l-60.47,0l-0.76,193l60.51,0l0.5,-130.91c8.51,-7.46 19.39,-11.7 32.41,-11.7c23.23,0 32.33,11.35 32.22,36.19l-0.39,106.42l60.81,0l0.42,-106.42c0.28,-64.6 -22.48,-90.14 -81.58,-90.14z" class="cls-2"/>
    <polygon id="svg_8" points="1593.8441162109375,558.5850067138672 1654.3541259765625,558.5850067138672 1655.1041259765625,365.57501220703125 1594.6041259765625,365.57501220703125 1593.8441162109375,558.5850067138672 " class="cls-2"/>
    <path id="svg_9" d="m1804.41412,362.01501a86.24,86.24 0 0 0 -43.66,12.07l0,-8.51l-60.48,0l-0.75,193l60.5,0l0.52,-130.91c8.49,-7.46 19.39,-11.7 32.41,-11.7c23.21,0 32.32,11.35 32.22,36.19l-0.4,106.42l60.84,0l0.41,-106.42c0.25,-64.6 -22.51,-90.14 -81.61,-90.14z" class="cls-2"/>
    <path id="svg_10" d="m542.37412,371.68501l-0.75,64.47l-32,0l0,46.07l31.8,0l0.23,71.11c-0.13,33.35 -1.9,42.23 -27.61,42.23a16.78,16.78 0 0 1 -4.22,-0.36l-0.2,47.9c7.74,2.13 20.41,3.55 34.85,3.55c33,0 57.78,-22 57.91,-62.44l-0.13,-102l46.08,0l0,-46.06l-45.87,0l0.71,-52.4c0.05,-14.91 1.84,-24.5 29.64,-24.5c5.66,0 10.91,0.71 16.52,1.07l0.18,-44.36c-1.4,-0.69 -16.86,-8.14 -49.22,-8.14c-31.63,0 -57.77,21.63 -57.92,63.86z" class="cls-2"/>
</svg>