<svg width="120" viewBox="0 0 150.851 48">
   <g stroke-width=".265">
      <path d="M10.174 45.085c-1.68-.202-2.187-.36-4.373-1.362-1.973-.904-4.61-3.888-5.046-5.713-.098-.412-.311-.917-.473-1.121-.39-.492-.37-8.053.023-8.538.156-.193.368-.856.47-1.474.101-.618.293-1.19.426-1.272.133-.083.242-.328.242-.545 0-.444.82-2.401 1.595-3.807.281-.51.644-1.253.807-1.653.162-.4.403-.728.534-.728s.239-.118.239-.262c0-.552 2.816-3.903 4.871-5.796.57-.525 1.377-1.28 1.795-1.681.418-.4.846-.73.95-.734.104-.003.665-.42 1.247-.926 1.402-1.219 4.651-3.46 5.689-3.923.218-.098.754-.413 1.19-.701.437-.288.973-.597 1.191-.688.218-.09 1.111-.488 1.985-.884 1.855-.842 3.176-1.336 4.1-1.533.364-.078.8-.25.968-.382.169-.133.883-.346 1.588-.475a39.532 39.532 0 0 0 2.472-.548c.69-.182 3.193-.324 5.953-.336 4.224-.02 4.945.043 6.374.545 3.49 1.228 5.398 2.665 6.474 4.877.306.63.665 1.35.8 1.603.596 1.127.066 4.669-.992 6.633-.313.581-.365 1.27-.238 3.175.09 1.338.048 3.088-.092 3.888-.392 2.238-.883 3.969-1.126 3.969-.121 0-.22.15-.22.334 0 1.547-4.393 7.077-7.823 9.848a57.252 57.252 0 0 0-1.812 1.516c-.279.254-.993.791-1.588 1.194-.594.403-1.14.8-1.212.885-.073.083-.311.234-.53.334-.218.1-.754.418-1.19.705-.437.288-.973.593-1.19.678a6.736 6.736 0 0 0-.795.387c-.218.128-.932.482-1.587.787-.655.306-1.528.728-1.94.94-.412.21-.914.383-1.115.383-.202 0-.758.167-1.236.371-3.91 1.67-12.286 2.646-17.405 2.03zm8.07-2.669c1.455-.178 2.765-.415 2.91-.527.146-.112.77-.286 1.388-.388.618-.102 1.19-.294 1.272-.427.082-.133.344-.242.582-.242.452 0 5.183-2.299 6.548-3.182a12.405 12.405 0 0 1 1.389-.776c.327-.144.595-.384.595-.533 0-.15.152-.271.338-.271.186 0 .73-.357 1.207-.794.478-.436.91-.794.96-.794.4 0 4.733-4.196 6.365-6.164 1.361-1.643 3.035-4.417 3.036-5.032 0-.375-.13-.442-.595-.304-.327.097-.727.343-.889.547-.161.203-.379.37-.483.37-.104 0-.886.536-1.737 1.19-.85.655-1.608 1.191-1.683 1.191-.074 0-.928.543-1.896 1.206-1.343.92-1.96 1.186-2.597 1.124-.665-.064-.819-.189-.755-.61.043-.291.4-.811.793-1.156.393-.345 1.132-1 1.643-1.455.51-.456 1.522-1.301 2.249-1.879 3.282-2.61 7.005-6.433 7.007-7.196.002-.595-.774-2.27-1.123-2.425-.109-.049-.198-.244-.198-.435 0-.41-3.003-3.247-3.808-3.598a11.955 11.955 0 0 1-.955-.47c-1.325-.761-2.134-1.097-2.637-1.097-.315 0-.817-.131-1.116-.291-.3-.16-2.344-.369-4.544-.464-3.647-.156-4.008-.216-4.096-.675-.12-.631.413-.943 2.604-1.524 1.969-.521 6.198-.635 7.325-.196.41.16 1.34.385 2.068.5 1.408.224 2.733.644 3.877 1.231.386.198.892.36 1.124.36.233 0 .423.111.423.247s.208.314.463.395c.254.082.998.626 1.653 1.208 1.551 1.38 2.117 1.396 2.117.058 0-1.924-1.719-4.262-4.006-5.449-1.458-.756-4.121-1.331-6.18-1.335-1.76-.003-6.804.628-7.142.893-.147.116-.728.293-1.292.395-.563.102-1.218.288-1.455.414-1.05.56-2.259 1.058-2.569 1.058-.185 0-.494.148-.687.33-.192.182-.924.629-1.627.993-2.328 1.205-2.559 1.35-2.559 1.601 0 .138-.128.25-.285.25-.834 0-8.446 6.895-8.446 7.651 0 .158-.094.287-.208.287-.258 0-2.173 2.54-2.173 2.882 0 .137-.096.289-.213.337-.291.121-2.169 3.262-2.169 3.629 0 .163-.119.296-.264.296-.146 0-.265.13-.265.288 0 .158-.357 1.059-.793 2-.436.943-.869 2.034-.962 2.425-.093.39-.254.83-.357.975-.103.146-.397 1.487-.653 2.98-.443 2.582-.443 2.807-.006 4.63.253 1.053.623 2.103.822 2.333.199.23.362.517.362.638 0 .337 1.62 1.711 2.525 2.142 1.147.545 4.538 1.14 5.941 1.042.655-.046 2.382-.229 3.837-.407zm114.3-.446c-1.694-.215-3.327-1.337-4.241-2.915-.59-1.018-1.033-1.236-1.46-.72-.175.21-.426.38-.56.38-.289 0-1.903 1.105-2.03 1.39-.048.109-.346.202-.66.207-.316.005-.805.183-1.088.396-1.156.875-4.51.298-5.807-1-.734-.734-1.281-2.505-1.143-3.7.153-1.333.625-3.21.966-3.85.98-1.835 2.43-5.14 2.307-5.262-.435-.435-1.709.453-4.328 3.017-1.6 1.567-3.196 3.247-3.546 3.732a29.44 29.44 0 0 1-.9 1.198c-.522.622-1.455 2.002-1.455 2.153 0 .085-.126.298-.279.474-.154.176-.732 1.213-1.285 2.304-.994 1.961-1.019 1.985-2.13 2.067-1.66.122-2.127-.415-2.125-2.439 0-.912.173-1.941.397-2.37.217-.417.395-.935.395-1.15 0-.217.187-.828.416-1.36.925-2.144 1.24-2.836 1.467-3.215.13-.218.307-.575.393-.793.086-.219.502-1.084.925-1.922.422-.84.768-1.69.768-1.89 0-.8-.824-.633-2.034.415-2.39 2.07-4.307 4.086-7.359 7.746-.582.699-1.442 1.702-1.912 2.23-.47.529-.857 1.05-.86 1.16-.003.109-.214.42-.47.692-2.427 2.588-2.836 2.946-3.365 2.946-.655 0-1.771-.888-2.224-1.769-.393-.765-.37-1.576.085-2.862.32-.905.32-1.112.004-1.437-.32-.329-.435-.32-.862.066-.61.553-1.87.582-2.075.048-.283-.737.163-1.58 1.691-3.197 2.485-2.63 4.564-5.2 4.564-5.642 0-.159.104-.289.232-.289.186 0 2.16-2.712 3.604-4.953.146-.226.646-.837 1.112-1.357.778-.868.969-.947 2.303-.947.8 0 1.55.095 1.666.211.445.446.154 2.44-.527 3.61-.379.654-.964 1.723-1.299 2.378-.335.655-.756 1.31-.936 1.455-.18.146-.406.665-.502 1.155-.162.822-.131.876.393.71.313-.1 1.259-.857 2.103-1.684 1.7-1.666 3.807-3.535 5.126-4.546.474-.364 1.055-.84 1.291-1.059a7.47 7.47 0 0 1 2.036-1.317c.328-.141.596-.365.596-.497 0-.133.268-.302.595-.377.327-.075.974-.29 1.437-.479.734-.299.975-.278 1.879.162 1.23.598 1.893 1.785 1.42 2.544-.167.267-.304.652-.304.854 0 .203-.179.517-.397.698-.218.181-.397.553-.397.826 0 .273-.113.497-.252.497-.39 0-1.15 1.794-.965 2.276.142.368.302.327 1.154-.302.544-.402 1.108-.866 1.254-1.03.355-.405 3.153-2.493 4.63-3.457 1.5-.98 2.69-1.55 4.353-2.092 1.268-.413 1.349-.408 2.514.17 1.1.547 1.209.69 1.272 1.657.057.858-.08 1.227-.727 1.954-.439.492-.798.97-.798 1.06 0 .092-.27.462-.6.825-2.042 2.244-5.38 7.027-5.648 8.093-.088.352-.26.702-.38.776-.121.075-.298.656-.393 1.29-.333 2.22.793 2.945 3.044 1.962.732-.32 1.332-.678 1.332-.796 0-.119.155-.215.346-.215.33 0 1.591-.926 2.616-1.919.262-.254.578-.463.701-.463.124 0 .614-.744 1.09-1.653a44.572 44.572 0 0 1 1.82-3.11c.955-1.458 5.2-5.869 6.365-6.614a9.47 9.47 0 0 0 .919-.661c.164-.146.893-.54 1.62-.877.728-.336 1.53-.723 1.783-.86.253-.136 1.306-.248 2.34-.248 2.033 0 2.793.367 3.742 1.806.636.965.589 1.938-.176 3.609-.596 1.303-3.346 4.375-3.916 4.375-.13 0-.615.282-1.078.626-1.787 1.327-5.512 2.852-7.854 3.216-1.775.275-2.116.701-2.116 2.64 0 2.151.498 2.661 2.553 2.611 1.377-.033 4.061-1.013 4.061-1.483 0-.11.132-.202.293-.202.795 0 6.995-5.616 9.277-8.403.886-1.082 2.204-1.427 2.453-.643.195.617-.07 1.903-.392 1.903-.12 0-.287.218-.372.486-.254.8-4.622 5.129-6.927 6.865-1.874 1.41-2.596 1.873-4.596 2.942-1.856.992-3.997 1.41-5.953 1.163zm4.843-11.41c3.712-1.843 6.93-4.756 6.93-6.271 0-.625-.662-1.08-.932-.643-.086.14-.38.253-.651.253-.272 0-.674.179-.892.397-.218.218-.528.397-.689.397-.16 0-.36.178-.444.397-.083.218-.257.397-.385.397-.347 0-1.185.719-3.196 2.743-1.66 1.67-2.092 2.439-1.63 2.901.249.248.222.256 1.89-.572zM45.165 41.375c-1.02-.85-.713-2.21 1.212-5.376a53.818 53.818 0 0 0 1.649-2.922 32.06 32.06 0 0 1 1.834-3.226c.276-.436.776-1.33 1.112-1.984.335-.655.758-1.348.94-1.54.182-.193.33-.52.33-.728 0-.208.09-.378.2-.378.11 0 .494-.566.856-1.257.361-.691.807-1.414.991-1.606.185-.193.335-.51.335-.706 0-.196.09-.395.199-.444.29-.129 1.389-1.743 1.389-2.04 0-.139.094-.293.21-.341.115-.049.498-.565.85-1.147.354-.582.736-1.177.85-1.323.114-.145 1.001-1.336 1.97-2.645.97-1.31 2.216-2.824 2.769-3.365 1.168-1.142 2.958-2.324 3.518-2.324.41 0 1.739 1.57 1.739 2.054 0 .278-.796 1.916-1.058 2.18-.4.4-1.323 1.87-1.323 2.105 0 .152-.09.276-.199.277-.109.001-.496.448-.86.993-.809 1.21-.87 1.29-1.852 2.445-.434.51-.857 1.135-.941 1.39-.084.254-.264.462-.4.462-.135 0-.246.179-.246.397 0 .218-.094.397-.208.397-.273 0-4.29 5.404-4.29 5.771 0 .654.569.513 2.155-.535.925-.611 1.74-1.177 1.814-1.258.176-.195 2.407-1.675 2.91-1.93.218-.111.754-.431 1.19-.71 2.604-1.67 4.705-2.29 6.219-1.836.856.257 1.067.448 1.106 1.003.112 1.591-.111 2.263-1.244 3.734-.652.848-1.186 1.67-1.186 1.826 0 .157-.093.285-.208.285-.212 0-2.173 2.51-2.173 2.782 0 .083-.121.295-.27.47-.967 1.148-1.269 1.581-1.728 2.483-.284.556-.595 1.073-.693 1.147-.098.074-.26.462-.36.862-.1.4-.288.793-.418.873-.395.244-.273 1.968.15 2.131.478.183 2.26-.38 2.26-.714 0-.135.137-.244.304-.244.467 0 2.187-1.503 5.438-4.748 2.642-2.638 3.022-2.927 3.506-2.668.681.365.691 1.161.028 2.225-.494.793-6.377 6.63-7.23 7.175-.228.146-1.07.711-1.87 1.257-1.292.88-1.638.992-3.079.992-1.423 0-1.723-.094-2.439-.763-1.793-1.675-2.032-4.863-.584-7.791.204-.412.37-.868.37-1.012 0-.145.477-1.065 1.059-2.045.918-1.545 1.356-2.941.922-2.941-.16 0-1.259.601-1.451.794-.073.072-.55.422-1.059.776-1.983 1.38-7.635 6.97-8.68 8.584-.39.6-.768 1.15-.843 1.223-.074.073-.459.608-.854 1.19-1.391 2.05-2.225 2.78-3.168 2.77-.48-.005-1.142-.232-1.47-.506z" fill="#fa2184"/>
      <path d="M77.466 42.863c-1.205-.446-1.94-1.504-1.94-2.794 0-1.2.501-1.687 2.071-2.014 1.322-.276 2.596.064 3.623.966 1.126.988 1.2 1.913.233 2.955-1.137 1.227-2.344 1.495-3.987.887zm3.212-10.51c-.225-.364.283-2.57 1.125-4.882 1.708-4.694 6.17-12.185 11.195-18.797 2.346-3.088 3.052-3.83 4.55-4.784 1.169-.744 1.42-.76 3.13-.201 1.515.495 1.637.914.61 2.086-1.358 1.548-5.802 6.897-6.924 8.333-3.978 5.09-8.705 11.51-9.71 13.186-.145.243-.33.501-.41.574-.279.253-1.839 2.92-1.839 3.143 0 .329-1.057 1.62-1.326 1.62-.127 0-.307-.125-.401-.278z" fill="#ba1f68"/>
   </g>
</svg>