<svg width="200" viewBox="0 0 139 24">
    <path fill="#ff3636" d="M9.69,3.72c3.36,0,6.1,2.61,6.1,5.81c0,3.21-2.73,5.81-6.1,5.81c-3.36,0-6.1-2.61-6.1-5.81
    C3.59,6.33,6.32,3.72,9.69,3.72z M9.69,0.06c-5.43,0-9.84,4.24-9.84,9.47c0,5.23,4.41,9.47,9.84,9.47c5.43,0,9.84-4.24,9.84-9.47
    C19.53,4.3,15.12,0.06,9.69,0.06z M42.48,0.25v18.56h19V0.25H42.48z M51.98,16.12c-3.73,0-6.76-2.96-6.76-6.61
    c0-3.65,3.03-6.61,6.76-6.61c3.74,0,6.76,2.96,6.76,6.61C58.74,13.16,55.71,16.12,51.98,16.12z M39.3,18.83L31.66,7.94l7.47-7.7
    H34.6l-8.07,8.34V0.24h-3.67v18.59h3.67v-5.6l2.5-2.58l5.73,8.18H39.3z M67.32,14.49c-1.27,0-2.29,1-2.29,2.24s1.03,2.24,2.29,2.24
    c1.27,0,2.3-1,2.3-2.24S68.59,14.49,67.32,14.49z"></path>
    <path fill="#e8e6e3" d="M86.68,12.13c0,3.58-2.09,6.89-6.02,6.89c-1.9,0-3.36-1.06-3.9-1.99v7.03h-3.53V5.51h3.53v1.72
    c0.54-0.93,2.01-1.99,3.9-1.99C84.59,5.24,86.68,8.55,86.68,12.13z M79.84,8.02c-1.63,0-3.09,1.59-3.09,4.11
    c0,2.52,1.47,4.11,3.09,4.11h0.22c1.76,0,3.09-1.56,3.09-4.08c0-2.52-1.33-4.14-3.09-4.14L79.84,8.02L79.84,8.02z M89.28,5.51h3.53
    v2.65c0.54-1.72,1.9-2.78,3.93-2.78h0.68v3.18H96.2c-2.31,0-3.39,1.06-3.39,3.31v6.89h-3.53L89.28,5.51L89.28,5.51z M105.12,19.02
    c-3.39,0-6.45-2.52-6.45-6.89c0-3.98,2.39-6.89,6.45-6.89c4.07,0,6.18,2.89,6.18,6.73c0,0.4-0.03,0.82-0.06,1.25h-9.17
    c0.14,1.83,1.6,3.02,3.09,3.02h0.16c1.36,0,2.17-0.77,2.41-1.67h3.5C110.6,17.17,108.51,19.02,105.12,19.02z M102.08,10.57h5.8
    c-0.08-1.59-1.33-2.55-2.82-2.55h-0.16C103.41,8.02,102.16,8.98,102.08,10.57z M113.56,14.38h3.61c0,1.19,0.92,1.99,2.28,1.99h0.22
    c1.08,0,1.79-0.5,1.79-1.3c0-0.69-0.41-1.09-1.38-1.32l-1.76-0.42c-2.85-0.69-4.2-1.86-4.2-4c0-2.39,2.09-4.08,5.48-4.08
    c3.53,0,5.53,1.72,5.53,4.64h-3.53c-0.14-1.27-0.82-1.99-2.04-1.99h-0.22c-0.95,0-1.71,0.5-1.71,1.3c0,0.71,0.62,1.09,1.74,1.35
    l1.82,0.45c2.6,0.64,3.8,1.86,3.8,3.95c0,2.25-1.9,4.08-5.56,4.08C115.75,19.02,113.56,17.3,113.56,14.38z M127.12,14.38h3.61
    c0,1.19,0.92,1.99,2.28,1.99h0.22c1.08,0,1.79-0.5,1.79-1.3c0-0.69-0.41-1.09-1.38-1.32l-1.76-0.42c-2.85-0.69-4.2-1.86-4.2-4
    c0-2.39,2.09-4.08,5.48-4.08c3.53,0,5.53,1.72,5.53,4.64h-3.53c-0.14-1.27-0.82-1.99-2.04-1.99h-0.22c-0.95,0-1.71,0.5-1.71,1.3
    c0,0.71,0.62,1.09,1.74,1.35l1.82,0.45c2.6,0.64,3.8,1.86,3.8,3.95c0,2.25-1.9,4.08-5.56,4.08
    C129.31,19.02,127.12,17.3,127.12,14.38z"></path>
</svg>