<svg width="100" viewBox="0 0 18.47 11.13">
  <path fill="#ff3636" d="M2.6.97c.9 0 1.62.69 1.62 1.54 0 .84-.72 1.53-1.62 1.53C1.71 4.04 1 3.35 1 2.51c0-.85.72-1.54 1.61-1.54zm0-.97A2.56 2.56 0 0 0 0 2.5C0 3.9 1.17 5.02 2.6 5.02c1.44 0 2.6-1.12 2.6-2.5C5.2 1.12 4.05 0 2.6 0zm8.68.05v4.91h5.03V.05zm2.51 4.2c-.98 0-1.79-.78-1.79-1.75S12.8.75 13.8.75c.98 0 1.78.78 1.78 1.75s-.8 1.75-1.79 1.75zm-3.35.72L8.42 2.08 10.39.05H9.2l-2.13 2.2V.05h-.97v4.92h.97V3.48l.66-.68 1.52 2.17zm7.41-1.15a.6.6 0 0 0-.6.6c0 .32.27.58.6.58a.6.6 0 0 0 .61-.59.6.6 0 0 0-.6-.6z"/>
  <path fill="#e8e6e3" d="M3.9 7.79c0 1-.6 1.93-1.7 1.93-.53 0-.94-.3-1.09-.56v1.97H.12v-5.2h1v.48a1.3 1.3 0 0 1 1.09-.55c1.1 0 1.68.92 1.68 1.93zM1.97 6.63c-.46 0-.87.45-.87 1.16 0 .7.41 1.15.87 1.15h.06c.5 0 .86-.44.86-1.14 0-.71-.37-1.17-.86-1.17zm2.64-.7h1v.74c.14-.48.52-.77 1.1-.77h.18v.89h-.34c-.65 0-.95.3-.95.92v1.94h-.99zm4.44 3.79c-.95 0-1.8-.7-1.8-1.93 0-1.12.66-1.93 1.8-1.93 1.14 0 1.73.8 1.73 1.88l-.01.35H8.2a.9.9 0 0 0 .86.85h.05c.38 0 .6-.22.67-.47h.98c-.17.73-.76 1.25-1.7 1.25zm-.85-2.37h1.62c-.02-.45-.37-.72-.79-.72H9c-.42 0-.77.27-.8.72zm3.22 1.07h1c0 .33.27.56.65.56h.06c.3 0 .5-.14.5-.37 0-.2-.11-.3-.39-.37l-.49-.12c-.8-.19-1.18-.52-1.18-1.12 0-.67.59-1.14 1.54-1.14.99 0 1.55.48 1.55 1.3h-.99c-.04-.36-.23-.56-.57-.56h-.06c-.27 0-.48.14-.48.37 0 .2.17.3.48.37l.51.13c.73.18 1.07.52 1.07 1.1 0 .64-.53 1.15-1.56 1.15s-1.64-.48-1.64-1.3zm3.8 0h1c0 .33.27.56.65.56h.06c.3 0 .5-.14.5-.37 0-.2-.11-.3-.39-.37l-.49-.12c-.8-.19-1.18-.52-1.18-1.12 0-.67.59-1.14 1.54-1.14.99 0 1.55.48 1.55 1.3h-.99c-.04-.36-.23-.56-.57-.56h-.06c-.27 0-.48.14-.48.37 0 .2.17.3.49.37l.5.13c.73.18 1.07.52 1.07 1.1 0 .64-.53 1.15-1.56 1.15s-1.64-.48-1.64-1.3z"/>
</svg>