<svg width="55" viewBox="0 0 128.04 158.47">
    <path d="M25.65 146.03V133.6H29.62v2.5l.76-.83c1.12-1.23 2.33-1.74 4.42-1.88 3.65-.23 5.97 1.04 6.78 3.71.55 1.82.46 8.73-.13 10.44-.85 2.43-2.67 3.52-5.87 3.52-2.2 0-3.44-.4-4.65-1.5l-1.04-.94v9.85h-4.24zm10.44 1.48c1.43-.6 1.6-1.16 1.6-5.31 0-4.15-.17-4.72-1.6-5.32a7.44 7.44 0 0 0-4.32-.08c-1.44.5-1.75 1.46-1.75 5.44 0 3.13.06 3.57.55 4.24.3.4.84.9 1.2 1.07.85.44 3.22.42 4.32-.04zm-29.96 3.15c-4.36-.95-5.42-2.76-5.8-9.92-.08-1.67-.01-4.42.15-6.1.72-7.34 1.96-8.41 9.96-8.65 10.23-.3 11.86 1.41 11.83 12.37-.02 7.5-.82 10.25-3.34 11.57-2.03 1.05-9.37 1.47-12.8.73zm9.52-4.06c1.08-.42 1.5-1.3 1.83-3.75.37-2.75.17-9.5-.33-10.97-.56-1.63-1.25-1.85-5.78-1.85-6.28 0-6.22-.08-6.22 8.46 0 7.64.06 7.8 3.3 8.44 1.12.21 6.44-.03 7.2-.33zm33.29 4.04a9.36 9.36 0 0 1-2.07-.8c-1.45-.95-2.34-4.9-2.07-9.13.38-5.86 1.93-7.24 8.1-7.24 3 0 3.43.06 4.62.66.72.36 1.54.97 1.82 1.35.68.95 1.23 3.43 1.23 5.6v1.78H48.87l.17 1.63c.3 2.78 1.04 3.4 4.1 3.4 2.25-.01 3-.39 3.3-1.66l.23-.99h3.99l-.13 1.34c-.21 2.17-1.7 3.66-4.2 4.2-1.85.4-5.65.32-7.38-.14zm7.5-11.59c-.08-2.06-.6-2.4-3.67-2.4-3.04 0-3.57.34-3.77 2.49l-.13 1.35 3.8-.07 3.8-.07zm33.64 11.85l-1.9-.39c-2.99-.6-3.99-2.03-4.59-6.55-.43-3.3-.45-10.73-.02-12.48 1.09-4.49 3.77-5.72 12-5.5 3.38.08 4.23.19 5.25.65 1.95.89 2.78 2.46 3.07 5.84l.16 1.92H99.2v-1.06a6.1 6.1 0 0 0-.38-1.97c-.49-1.17-1.54-1.47-5.05-1.44-5.2.03-5.65.5-5.88 6.27-.18 4.75.26 8.93 1.03 9.75.77.83 3.03 1.24 5.91 1.1 3.68-.2 4.63-.95 4.63-3.66v-1.32h4.76v.86c-.01 1.75-.54 4.5-1.07 5.53-.64 1.26-1.89 1.9-4.48 2.33-1.63.26-7.45.34-8.6.12zm-25.8-8.7v-8.6H68.25v2.72l.6-.87a5.28 5.28 0 0 1 1.65-1.43c1.29-.66 4.03-.87 5.69-.42 1.47.4 3.01 1.9 3.4 3.31.18.64.3 3.6.3 7.47v6.42H75.92v-5.92c0-3.64-.1-6.23-.29-6.75-.77-2.21-5.06-2.18-6.7.05-.5.7-.55 1.17-.63 6.68l-.09 5.94H64.28zm48.6 8.4c-.1-.15-5.3-16.44-7.7-24.09-.2-.6-.19-.6 2.26-.53l2.46.08 2.8 8.6c1.53 4.73 3.03 9.43 3.33 10.45l.55 1.85.46-1.59c.25-.87 1.73-5.57 3.3-10.45l2.84-8.86 2.43-.08c1.85-.06 2.44 0 2.43.27 0 .18-1.77 5.75-3.91 12.38l-3.91 12.03-3.6.08c-2 .04-3.67-.02-3.74-.13z" fill="#626262"/>
    <path d="M94.11 118.5a30.22 30.22 0 0 1-23.76-17.03 29.36 29.36 0 0 1 .4-25.95 26.77 26.77 0 0 1 6.05-8.25c2.08-1.97 5.06-4.15 5.49-4 .14.05 2.22 3.48 4.61 7.62l4.36 7.54-.72.52a13.28 13.28 0 0 0-4 4.88c-.93 1.95-.96 2.1-.96 5.05 0 2.88.05 3.15.85 4.83a14.29 14.29 0 0 0 4.78 5.42c3.65 2.13 8.4 2.2 11.95.14 7.6-4.4 8.2-14.82 1.14-20.2l-.86-.65 4.47-7.74 4.46-7.73 2.08 1.48a29.8 29.8 0 0 1 10.19 36.36 30.14 30.14 0 0 1-18.04 16.38 31.85 31.85 0 0 1-12.49 1.34z" fill="#0101ff"/>
    <path d="M46.01 54.17a32.74 32.74 0 0 1-7.52-7.73 29.57 29.57 0 0 1-1.97-29.92A29.9 29.9 0 0 1 53.83 1.48c14-4.57 29.38 1.75 35.92 14.78a28.52 28.52 0 0 1 3.18 13.49c0 8.12-2.95 15.27-8.7 21.07-1.83 1.86-5.8 4.93-6.05 4.69-.05-.06-2.08-3.53-4.5-7.73l-4.42-7.63.62-.41a14.05 14.05 0 0 0 4.1-4.98c3.4-7.13-1.12-15.52-9.03-16.78a11.94 11.94 0 0 0-13.24 8.56c-.7 2.59-.46 5.85.59 8.13a12.4 12.4 0 0 0 3.83 4.74l.98.71-4.42 7.7a165.5 165.5 0 0 1-4.56 7.72c-.08 0-1.04-.61-2.12-1.37z" fill="#ff0101"/>
    <path d="M27.77 118.6c-6.7-.63-11.96-2.7-16.94-6.67A30.46 30.46 0 0 1 .4 94.37c-.53-2.76-.52-8.25.01-11.05a29.8 29.8 0 0 1 40.26-22.18c4.45 1.73 4.5.74-.46 9.36a318.64 318.64 0 0 1-4.45 7.58c-.1.1-1.07-.12-2.16-.49-1.7-.58-2.33-.65-4.5-.57-2.14.1-2.77.23-4.3.95a12.42 12.42 0 0 0-6.83 8.47 12.1 12.1 0 0 0 8.6 13.94 12.1 12.1 0 0 0 11.82-3.35 13.29 13.29 0 0 0 3.09-6.44l.2-1.57 8.92-.07 8.93-.07v1c-.03 5.17-2.54 12.24-6 16.86a30 30 0 0 1-21.14 11.77c-2.63.26-2.88.26-4.61.1z" fill="#01ff01"/>
</svg>