<svg  baseProfile="tiny" xmlns="http://www.w3.org/2000/svg" width="100" height="38,41" viewBox="0 0 1477.357 563.651">
    <g fill="#aaa">
        <path d="M550.521 213.068c0 16.379-2.185 31.147-6.548 44.302-4.36 13.155-10.907 24.362-19.631 33.628-8.727 9.263-19.602 16.381-32.622 21.343-13.021 4.966-28.187 7.451-45.509 7.451-17.717 0-32.891-2.55-45.509-7.647-12.616-5.105-23.023-12.318-31.211-21.649-8.189-9.329-14.195-20.54-18.022-33.63-3.826-13.088-5.738-27.684-5.738-43.797 0-16.106 1.977-30.601 5.941-43.493 3.955-12.892 10.031-23.862 18.225-32.925 8.184-9.06 18.623-16.008 31.31-20.841 12.686-4.834 27.822-7.246 45.409-7.246 17.318 0 32.45 2.412 45.407 7.246 12.956 4.833 23.764 11.781 32.421 20.841 8.657 9.063 15.169 20.033 19.529 32.925 4.363 12.892 6.548 27.386 6.548 43.492zm-44.301.206c0-12.621-1.144-23.896-3.425-33.831-2.284-9.938-5.838-18.394-10.673-25.372-4.833-6.984-11.009-12.317-18.524-16.011-7.519-3.69-16.511-5.54-26.982-5.54-9.131 0-17.619.944-25.475 2.819-7.852 1.883-14.062 4.568-18.627 8.055-4.565 3.494-7.886 11.045-9.968 22.653-2.081 11.615-3.121 27.357-3.121 47.227 0 12.351.937 23.557 2.822 33.625 1.876 10.065 5 18.727 9.361 25.975 4.362 7.253 10.169 12.858 17.417 16.815 7.251 3.962 16.311 5.941 27.186 5.941 11.138 0 20.37-.975 27.688-2.925 7.313-1.94 13.458-4.529 18.426-7.752 2.28-1.469 4.293-4.462 6.041-8.958 1.742-4.492 3.188-9.967 4.329-16.41 1.136-6.442 2.014-13.661 2.616-21.647.608-7.983.909-16.209.909-24.664zM668.01 271.666c0 7.788-1.714 14.164-5.137 19.128-3.42 4.972-7.353 9.332-11.78 13.091a131.213 131.213 0 0 1-7.549 5.842c-2.619 1.878-5.573 3.557-8.863 5.036-3.288 1.475-7.047 2.646-11.274 3.521-4.226.868-9.162 1.306-14.801 1.306-10.203 0-19.534-1.002-27.988-3.019-8.457-2.019-16.384-5.232-23.763-9.662l10.267-25.775a664.51 664.51 0 0 0 9.872 6.139 121.24 121.24 0 0 0 11.374 6.145 83.861 83.861 0 0 0 12.485 4.731c4.36 1.278 8.891 1.909 13.592 1.909 3.223 0 6.07-.23 8.558-.7 2.481-.471 4.598-1.312 6.345-2.52 1.474-1.071 2.547-2.982 3.221-5.737.667-2.753 1.003-6.075 1.003-9.967 0-4.563-1.778-8.118-5.335-10.674-3.557-2.548-7.955-4.797-13.188-6.748-5.233-1.94-10.977-3.892-17.214-5.842-6.244-1.938-11.982-4.494-17.217-7.649-5.236-3.149-9.638-7.25-13.19-12.281-3.56-5.031-5.339-11.644-5.339-19.833 0-2.687.469-5.402 1.411-8.158a40.936 40.936 0 0 1 3.724-7.955 46.404 46.404 0 0 1 5.338-7.148c2.011-2.213 4.024-4.189 6.044-5.935 5.098-4.301 10.699-7.483 16.813-9.566 6.103-2.082 13.188-3.121 21.242-3.121 6.711 0 13.795.364 21.246 1.104 7.45.743 14.531 1.58 21.242 2.521l-4.63 27.383a229.768 229.768 0 0 0-10.572-3.22 242.416 242.416 0 0 0-11.476-2.921c-3.828-.869-7.488-1.58-10.976-2.113-3.494-.539-6.645-.805-9.462-.805-3.496 0-6.213.165-8.158.501-1.95.335-3.457.837-4.528 1.512-1.078.676-1.849 1.983-2.317 3.922a25.262 25.262 0 0 0-.705 5.947c0 4.163 1.777 7.449 5.336 9.862 3.555 2.42 7.983 4.564 13.288 6.45a527.575 527.575 0 0 0 17.218 5.734c6.174 1.946 11.916 4.53 17.217 7.752 5.303 3.222 9.731 7.321 13.289 12.284 3.554 4.965 5.337 11.476 5.337 19.529zM688.622 198.17l-15.504-4.836v-8.458l44.703-29.798h11.278l.603 24.165h43.697l-1.814 15.1c-3.356.538-7.382 1.04-12.08 1.511-4.701.473-9.268.905-13.696 1.308-5.235.543-10.541.942-15.908 1.209v77.522c0 4.972.91 9.098 2.721 12.389 1.813 3.287 5.739 4.932 11.78 4.932 1.608 0 3.724-.1 6.343-.301 2.615-.206 5.367-.435 8.255-.71a336.25 336.25 0 0 0 8.559-.899c2.819-.334 5.167-.638 7.049-.91v11.477c-3.493 2.151-7.52 4.267-12.085 6.346-4.565 2.086-9.363 3.959-14.397 5.637a132.06 132.06 0 0 1-15.403 4.133c-5.236 1.072-10.204 1.604-14.901 1.604a56.45 56.45 0 0 1-10.672-1.002c-3.493-.674-6.614-1.979-9.364-3.93-2.753-1.943-4.967-4.658-6.647-8.158-1.681-3.487-2.515-8.048-2.515-13.688V198.17zM912.417 296.637c3.623 0 8.384-.806 14.297-2.42v9.266c-2.151 2.013-4.702 3.961-7.654 5.835-2.956 1.888-6.11 3.526-9.462 4.941a61.082 61.082 0 0 1-10.474 3.315c-3.625.808-7.184 1.214-10.672 1.214-3.76 0-6.985-.505-9.666-1.513-2.688-1.004-5.005-2.345-6.946-4.023-1.948-1.681-3.591-3.525-4.933-5.538-1.342-2.015-2.487-4.028-3.423-6.041a1241.172 1241.172 0 0 1-10.272 6.641 83.508 83.508 0 0 1-10.569 5.739c-3.695 1.683-7.586 3.021-11.68 4.025-4.096 1.009-8.629 1.511-13.594 1.511-11.273 0-20.169-3.352-26.679-10.066-6.516-6.709-9.767-16.845-9.767-30.402 0-7.255.972-13.525 2.92-18.829 1.944-5.302 5.067-9.733 9.364-13.288 4.293-3.555 9.866-6.247 16.714-8.059 6.847-1.81 15.234-2.854 25.171-3.124l24.767-.804v-19.936c0-5.368-1.542-9.293-4.631-11.774-3.089-2.484-8.253-3.729-15.505-3.729-5.235 0-11.276.605-18.124 1.814-6.843 1.21-13.967 3.223-21.346 6.04l-5.638-14.297a317.75 317.75 0 0 1 15.606-6.238 233.334 233.334 0 0 1 16.513-5.44 146.504 146.504 0 0 1 16.915-3.827 105.94 105.94 0 0 1 17.215-1.407c6.308 0 11.982.57 17.018 1.711 5.034 1.14 9.262 3.053 12.687 5.736 3.421 2.688 6.041 6.244 7.851 10.674 1.813 4.429 2.72 9.937 2.72 16.515v63.627c-.002 14.767 3.757 22.151 11.277 22.151zm-50.747-6.446c-.137-.533-.271-2.041-.4-4.532-.14-2.478-.302-5.636-.506-9.461-.2-3.827-.372-8.157-.503-12.987a553.382 553.382 0 0 1-.202-15.308c-10.068 0-17.718.574-22.953 1.715-5.237 1.14-8.459 2.517-9.67 4.128-.538.672-1.005 1.813-1.408 3.425a49.423 49.423 0 0 0-1.007 5.431 87.077 87.077 0 0 0-.603 6.246 94.082 94.082 0 0 0-.203 5.841c0 6.176.908 11.249 2.719 15.202 1.813 3.964 4.863 5.94 9.162 5.94 4.564 0 8.926-.536 13.091-1.614a111.645 111.645 0 0 0 12.483-4.026zM937.259 198.17l-15.509-4.836v-8.458l44.705-29.798h11.277l.602 24.165h43.698l-1.815 15.1c-3.357.538-7.38 1.04-12.08 1.511-4.698.473-9.265.905-13.693 1.308-5.236.543-10.541.942-15.91 1.209v77.522c0 4.972.907 9.098 2.72 12.389 1.812 3.287 5.741 4.932 11.781 4.932 1.609 0 3.723-.1 6.342-.301 2.62-.206 5.368-.435 8.259-.71 2.886-.268 5.736-.564 8.558-.899 2.817-.334 5.164-.638 7.046-.91v11.477c-3.493 2.151-7.518 4.267-12.082 6.346-4.565 2.086-9.365 3.959-14.4 5.637a132.098 132.098 0 0 1-15.402 4.133c-5.236 1.072-10.203 1.604-14.901 1.604-3.625 0-7.183-.332-10.674-1.002-3.491-.674-6.612-1.979-9.361-3.93-2.754-1.943-4.97-4.658-6.646-8.158-1.681-3.487-2.515-8.048-2.515-13.688V198.17zM1129.837 316.974v-92.426c0-8.185-1.38-14.229-4.13-18.125-2.751-3.891-7.419-5.84-13.995-5.84-2.416 0-5.031.3-7.853.907-2.82.604-5.708 1.479-8.662 2.614a114.123 114.123 0 0 0-8.756 3.83c-2.888 1.41-5.472 2.923-7.754 4.527v104.512h-41.276v-137.73h36.848l3.824 16.104h.403c2.823-1.737 6.245-3.725 10.272-5.936 4.026-2.216 8.385-4.295 13.086-6.243a116.943 116.943 0 0 1 14.602-4.935c5.036-1.344 9.965-2.012 14.799-2.012 5.506 0 10.672.838 15.505 2.514 4.832 1.681 9.062 4.233 12.688 7.654 3.624 3.421 6.473 7.652 8.554 12.686 2.081 5.029 3.125 10.977 3.125 17.818v100.08h-41.28zM1212.441 101.11l25.976 25.775-25.976 25.772-25.776-25.772 25.776-25.775zm21.342 215.864h-41.281v-137.73h41.281v137.73zM1386.493 296.637c3.625 0 8.393-.806 14.298-2.42v9.266c-2.15 2.013-4.699 3.961-7.65 5.835-2.954 1.888-6.111 3.526-9.465 4.941a60.883 60.883 0 0 1-10.471 3.315c-3.624.808-7.183 1.214-10.673 1.214-3.758 0-6.979-.505-9.666-1.513-2.683-1.004-5.001-2.345-6.946-4.023-1.951-1.681-3.594-3.525-4.938-5.538-1.338-2.015-2.484-4.028-3.42-6.041a1258.58 1258.58 0 0 1-10.268 6.641 83.502 83.502 0 0 1-10.574 5.739c-3.692 1.683-7.585 3.021-11.679 4.025-4.096 1.009-8.624 1.511-13.588 1.511-11.28 0-20.174-3.352-26.686-10.066-6.511-6.709-9.764-16.845-9.764-30.402 0-7.255.971-13.525 2.919-18.829 1.945-5.302 5.064-9.733 9.365-13.288 4.294-3.555 9.863-6.247 16.713-8.059 6.848-1.81 15.233-2.854 25.171-3.124l24.768-.804v-19.936c0-5.368-1.546-9.293-4.633-11.774-3.089-2.484-8.252-3.729-15.5-3.729-5.24 0-11.28.605-18.126 1.814-6.844 1.21-13.962 3.223-21.343 6.04l-5.639-14.297a314.507 314.507 0 0 1 15.604-6.238 233.698 233.698 0 0 1 16.514-5.44 146.269 146.269 0 0 1 16.915-3.827 105.9 105.9 0 0 1 17.217-1.407c6.309 0 11.981.57 17.015 1.711 5.032 1.14 9.265 3.053 12.686 5.736 3.423 2.688 6.041 6.244 7.854 10.674 1.81 4.429 2.718 9.937 2.718 16.515v63.627c-.003 14.767 3.754 22.151 11.272 22.151zm-50.743-6.446c-.13-.533-.27-2.041-.405-4.532-.135-2.478-.3-5.636-.5-9.461a520.755 520.755 0 0 1-.503-12.987 549.085 549.085 0 0 1-.205-15.308c-10.066 0-17.717.574-22.952 1.715-5.235 1.14-8.456 2.517-9.665 4.128-.537.672-1.009 1.813-1.411 3.425-.402 1.609-.74 3.418-1.007 5.431a87.664 87.664 0 0 0-.602 6.246 93.365 93.365 0 0 0-.204 5.841c0 6.176.909 11.249 2.725 15.202 1.806 3.964 4.86 5.94 9.158 5.94 4.563 0 8.925-.536 13.088-1.614a111.38 111.38 0 0 0 12.483-4.026zM185.556 563.651V326.715l-83.784-17.439 2.659-27.662h220.506l-2.661 26.865-81.13 2.121v224.045l-55.59 29.006z"/>
        <path d="M439.249 512.617c4.787 0 11.082-1.067 18.882-3.188v12.23c-2.835 2.666-6.209 5.233-10.106 7.714a83.768 83.768 0 0 1-12.5 6.519 81.135 81.135 0 0 1-13.831 4.391c-4.79 1.058-9.491 1.589-14.102 1.589-4.96 0-9.217-.664-12.766-1.992-3.547-1.331-6.606-3.1-9.175-5.322-2.571-2.212-4.746-4.651-6.521-7.317a59.775 59.775 0 0 1-4.517-7.972c-4.614 3.012-9.14 5.938-13.565 8.777a111.492 111.492 0 0 1-13.968 7.579c-4.878 2.216-10.018 3.991-15.427 5.322s-11.392 1.995-17.954 1.995c-14.895 0-26.644-4.435-35.241-13.297-8.603-8.876-12.899-22.259-12.899-40.17 0-9.574 1.281-17.865 3.855-24.867 2.567-7.004 6.693-12.863 12.368-17.56 5.675-4.699 13.033-8.243 22.076-10.642 9.047-2.386 20.124-3.758 33.252-4.123l32.712-1.057v-26.334c0-7.092-2.038-12.281-6.117-15.561-4.079-3.283-10.907-4.92-20.477-4.92-6.916 0-14.898.79-23.942 2.393-9.042 1.602-18.443 4.255-28.194 7.984l-7.448-18.891c6.558-2.836 13.435-5.59 20.614-8.249s14.449-5.052 21.814-7.179a193.626 193.626 0 0 1 22.339-5.055 140.185 140.185 0 0 1 22.744-1.86c8.333 0 15.823.755 22.475 2.26 6.652 1.504 12.234 4.034 16.76 7.575 4.52 3.557 7.976 8.243 10.372 14.106 2.391 5.845 3.59 13.118 3.59 21.809v84.05c0 19.512 4.963 29.263 14.897 29.263zm-67.033-8.511c-.176-.712-.355-2.704-.532-5.983-.173-3.289-.4-7.453-.664-12.504a714.482 714.482 0 0 1-.661-17.156 714.72 714.72 0 0 1-.271-20.223c-13.298 0-23.404.762-30.32 2.27s-11.173 3.32-12.767 5.454c-.711.885-1.33 2.39-1.862 4.521-.532 2.127-.977 4.522-1.331 7.182-.357 2.66-.625 5.414-.798 8.249a123.913 123.913 0 0 0-.265 7.708c0 8.158 1.198 14.853 3.588 20.084 2.398 5.228 6.429 7.843 12.104 7.843 6.027 0 11.792-.702 17.29-2.121a149.365 149.365 0 0 0 16.489-5.324zM689.643 384.145c0-4.076-.359-8.422-1.063-13.036-.715-4.608-1.423-8.067-2.129-10.374l40.694-6.646c.886 2.482 1.596 5.671 2.127 9.567.534 3.909.796 7.632.796 11.177 0 14.188-1.589 28.027-4.784 41.494-3.194 13.483-7.631 26.913-13.302 40.296-5.673 13.392-12.462 26.91-20.346 40.569-7.894 13.656-16.45 27.747-25.667 42.288H626.07a6199.11 6199.11 0 0 1-7.182-28.462 763.409 763.409 0 0 0-7.314-27.124 1025.126 1025.126 0 0 0-8.114-26.604 710.815 710.815 0 0 0-9.309-27.13h-.796c-2.488 8.334-5.499 17.474-9.042 27.395a688.03 688.03 0 0 1-11.439 29.793 825.33 825.33 0 0 1-12.369 28.591c-4.169 9.137-7.941 16.979-11.304 23.542h-40.965c-3.015-11.17-6.073-22.431-9.176-33.777a2399.617 2399.617 0 0 0-9.309-33.116 1801.59 1801.59 0 0 0-9.174-30.719c-3.021-9.757-5.857-18.528-8.517-26.334-2.659-7.806-5.143-14.453-7.446-19.957-2.307-5.489-4.254-9.386-5.851-11.702-2.126-2.833-4.433-4.737-6.913-5.713-2.488-.972-5.234-1.47-8.248-1.47h-3.986v-17.021c4.96-.885 11.077-1.813 18.346-2.792a166.355 166.355 0 0 1 22.083-1.463c5.67 0 10.457.629 14.361 1.863 3.896 1.242 7.178 3.455 9.837 6.652 2.127 2.657 4.394 6.647 6.784 11.967 2.396 5.316 4.831 11.484 7.314 18.484 2.483 7.01 4.965 14.629 7.446 22.879a947.24 947.24 0 0 1 7.186 25.131 1206.042 1206.042 0 0 1 6.515 25.139c2.04 8.246 3.942 15.912 5.717 23.007h.802c4.606-10.638 8.773-20.876 12.5-30.725a603.331 603.331 0 0 0 10.242-29.258 608.109 608.109 0 0 0 8.512-28.99 526.04 526.04 0 0 0 7.05-30.189l38.034-5.584c6.204 16.486 12.676 35.021 19.419 55.586 6.735 20.577 13.828 43.629 21.273 69.16h.803c5.492-9.754 9.927-19.369 13.297-28.854 3.371-9.49 5.988-18.709 7.848-27.663 1.861-8.954 3.102-17.603 3.723-25.94.624-8.333.935-16.311.935-23.937zM837.893 353.556c9.217 0 18.129 1.243 26.732 3.724 8.599 2.479 16.492 6.652 23.674 12.504 7.179 5.845 13.43 13.653 18.749 23.404 5.324 9.76 9.313 21.905 11.971 36.437v2.398c-1.773 2.128-4.081 4.075-6.913 5.856-2.839 1.767-6.52 3.321-11.042 4.649-4.52 1.334-10.062 2.483-16.625 3.456-6.562.979-14.454 1.822-23.671 2.527l-60.375 4.255v7.718c0 7.094.969 13.656 2.922 19.68 1.95 6.027 4.877 11.218 8.779 15.561 3.896 4.347 8.816 7.759 14.761 10.238 5.936 2.486 12.808 3.724 20.614 3.724 6.384 0 13.076-.614 20.082-1.86 7.006-1.236 13.699-2.747 20.083-4.522 6.38-1.769 12.189-3.585 17.424-5.451 5.228-1.863 9.263-3.493 12.102-4.923l4.521 13.033c-5.851 4.256-12.366 8.567-19.55 12.904-7.184 4.347-14.899 8.338-23.141 11.967-8.243 3.638-16.983 6.565-26.202 8.781-9.22 2.209-18.712 3.326-28.458 3.326-11.53 0-22.212-1.602-32.053-4.793-9.843-3.186-18.354-8.334-25.531-15.419-7.184-7.095-12.862-16.366-17.025-27.804-4.172-11.432-6.254-25.312-6.254-41.627 0-18.265 2.396-33.781 7.186-46.553 4.785-12.757 11.436-23.045 19.944-30.848 8.516-7.803 18.53-13.48 30.061-17.021 11.523-3.55 23.934-5.321 37.235-5.321zm-25.799 30.856c-1.594 1.063-3.059 3.235-4.391 6.516-1.328 3.282-2.481 7.087-3.459 11.438-.977 4.346-1.771 9.001-2.394 13.961-.622 4.97-.93 9.672-.93 14.101l60.114-2.659c-.709-5.319-1.729-10.818-3.059-16.489-1.328-5.672-3.15-10.909-5.453-15.702-2.306-4.781-5.232-8.725-8.776-11.834-3.55-3.101-7.804-4.655-12.769-4.655-3.373 0-6.698.399-9.976 1.196-3.282.807-6.246 2.172-8.907 4.127zM1059.294 398.506c-4.258-1.416-8.739-2.568-13.433-3.455-4.701-.892-9.264-1.332-13.699-1.332-3.191 0-6.03.271-8.511.793a23.666 23.666 0 0 0-6.915 2.66c-2.127 1.243-4.304 2.798-6.517 4.658-2.217 1.863-4.657 4.211-7.316 7.05v130.6h-54.53V357.543h48.945l4.787 28.99h.271a429.17 429.17 0 0 1 5.182-7.575 116.63 116.63 0 0 1 6.652-8.649 79.126 79.126 0 0 1 7.576-7.84c2.662-2.398 5.322-4.035 7.983-4.926 4.609-1.769 9.974-2.883 16.091-3.323 6.116-.438 12.635-.664 19.548-.664l-6.114 44.95zM1203.559 539.479V417.394c0-10.817-1.824-18.796-5.455-23.938-3.635-5.137-9.798-7.715-18.489-7.715-3.187 0-6.644.4-10.367 1.196-3.724.802-7.541 1.951-11.44 3.459a146.71 146.71 0 0 0-11.57 5.055c-3.813 1.86-7.227 3.855-10.242 5.979v138.05h-54.526V357.543h48.675l5.055 21.282h.532c3.724-2.307 8.246-4.919 13.565-7.846 5.319-2.931 11.077-5.675 17.29-8.249 6.205-2.572 12.632-4.737 19.285-6.516 6.647-1.769 13.163-2.659 19.549-2.659 7.267 0 14.095 1.104 20.478 3.323 6.386 2.216 11.971 5.59 16.758 10.106 4.793 4.522 8.556 10.112 11.309 16.757 2.741 6.653 4.124 14.5 4.124 23.542v132.195h-54.531zM1458.47 512.617c4.793 0 11.085-1.067 18.887-3.188v12.23c-2.842 2.666-6.207 5.233-10.104 7.714a84.16 84.16 0 0 1-12.5 6.519 81.105 81.105 0 0 1-13.836 4.391c-4.787 1.058-9.484 1.589-14.095 1.589-4.963 0-9.223-.664-12.771-1.992-3.542-1.331-6.606-3.1-9.173-5.322-2.576-2.212-4.746-4.651-6.521-7.317-1.77-2.649-3.279-5.313-4.52-7.972a1875.958 1875.958 0 0 1-13.565 8.777 111.104 111.104 0 0 1-13.965 7.579c-4.878 2.216-10.018 3.991-15.425 5.322-5.411 1.331-11.397 1.995-17.958 1.995-14.892 0-26.642-4.435-35.242-13.297-8.602-8.876-12.903-22.259-12.903-40.17 0-9.574 1.291-17.865 3.86-24.867 2.571-7.004 6.688-12.863 12.372-17.56 5.671-4.699 13.027-8.243 22.071-10.642 9.046-2.386 20.123-3.758 33.254-4.123l32.715-1.057v-26.334c0-7.092-2.044-12.281-6.12-15.561-4.08-3.283-10.901-4.92-20.481-4.92-6.913 0-14.893.79-23.936 2.393-9.045 1.602-18.445 4.255-28.199 7.984l-7.447-18.891a412.086 412.086 0 0 1 20.615-8.249 312.955 312.955 0 0 1 21.814-7.179 192.998 192.998 0 0 1 22.338-5.055 140.148 140.148 0 0 1 22.741-1.86c8.336 0 15.83.755 22.479 2.26 6.649 1.504 12.237 4.034 16.753 7.575 4.522 3.557 7.983 8.243 10.38 14.106 2.391 5.845 3.586 13.118 3.586 21.809v84.05c.002 19.512 4.964 29.263 14.896 29.263zm-67.027-8.511c-.178-.712-.357-2.704-.535-5.983-.178-3.289-.395-7.453-.663-12.504a688.985 688.985 0 0 1-.662-17.156c-.18-6.38-.27-13.122-.27-20.223-13.299 0-23.403.762-30.323 2.27-6.91 1.508-11.167 3.32-12.767 5.454-.708.885-1.33 2.39-1.86 4.521-.53 2.127-.976 4.522-1.332 7.182-.359 2.66-.622 5.414-.794 8.249a121.789 121.789 0 0 0-.268 7.708c0 8.158 1.199 14.853 3.589 20.084 2.392 5.228 6.425 7.843 12.103 7.843 6.027 0 11.792-.702 17.292-2.121a149.997 149.997 0 0 0 16.49-5.324z"/>
    </g>
    <path fill="#aaa" d="M377.367 154.104c5.271 6.001 9.765 3.625 11.889.509 4.482-6.571 2.14-12.871.364-14.611-4.105-4.021-10.389-1.138-12.648 1.836-2.26 2.972-2.438 9.04.395 12.266z"/>
    <g fill="#aaa">
        <path d="M18.807 73.156c.497.332 1.139.27 1.566-.147.425-.411.503-1.05.199-1.563-4.15-6.934-6.111-12.56-5.872-18.492.092-2.304 1.232-5.462 2.041-8.632 2.613-10.36-4.99-16.02-12.004-11.214-2.979 2.05-4.773 6.134-4.736 10.6.075 9.412 6.979 21.799 18.806 29.448z"/>
        <path d="M317.926 90.734c-1.778-6.473-6.036-11.647-11.48-14.749-5.659-3.23-12.283-4.132-18.583-2.411l-19.285 5.267-.227-.83 62.456-51.777 2.865 18.492L354.838 0l-2.216.424-43.897 12.242 16.882 6.884-59.711 49.472-5.635-20.625c-.131-2.541-.578-5.125-1.215-7.744-6.283-25.991-44.796-44.454-74.798-21.038-37.172-27.32-75.933-.988-82.431 26.788-7.533-2.461-13.98-1.993-19.545.37-12.371 5.281-16.604 16.219-23.383 26.41C52.603 82.658 43.116 87.304 32.86 87.2c-11.23-.108-21.698-5.521-28.917-13.947-.386-.436-.972-.572-1.487-.335a1.252 1.252 0 0 0-.739 1.318c2.491 19.35 18.977 38.287 41.281 46.206 12.635 4.491 23.978 3.389 35.89-1.543 2.164-.891 4.247-1.649 6.087-1.919 4.53-.679 7.379 2.412 7.283 5.721-.063 2.551-2.173 5.309-4.7 6.059-2.976.885-5.888 1.666-9.649 1.904-4.458.295-7.082 3.058-7.371 6.137-.53 5.516 3.489 7.967 7.734 7.87 4.387-.112 10.259-4.235 13.759-6.74 3.312-2.386 5.65-3.438 7.054 2.646 1.028 4.493 4.786 4.322 8.158 2.377 3.17-1.82 4.929-5.508 8.023-6.173 1.532-.322 3.358-.054 5.639 1.04 1.302.615 2.552 1.389 3.767 2.153 2.983 1.876 5.783 2.864 8.48 3.086l8.4 30.747-42.738 36.025-36.383 8.554-33.773 23.611 32.231 4.22-4.565 33.225 34.652-28.83 14.594-35.405 38.439-32.403 17.774 65.061c4.785 17.504 40.523 23.005 79.833 12.273 39.309-10.731 67.299-33.642 62.521-51.163l-6.168-22.524 19.287-5.268c6.5-1.77 11.681-6.066 14.785-11.516 3.209-5.631 4.096-12.265 2.372-18.539l-16.487-60.394zM129.25 132.729c-1.499-.954-3.034-1.864-4.639-2.641-3.515-1.676-7.295-2.518-11.134-1.686-1.438.305-1.095.205-2.361.74-2.295.966-4.016 2.372-5.708 4.06-1.306-2.268-3.15-4.095-5.742-5.054.703-1.656 1.115-3.417 1.161-5.222.258-9.324-8.086-15.777-17.12-14.429-2.792.416-5.495 1.418-8.082 2.48-10.134 4.188-19.307 5.103-29.774 1.384-9.955-3.535-19.143-9.801-25.855-17.988-.223-.268-.429-.536-.648-.811a44.876 44.876 0 0 0 13.432 2.21c13.694.133 25.671-6.42 33.253-17.849 5.505-8.297 9.909-19.13 19.61-23.268 4.449-1.905 8.971-1.6 13.507-.115l1.506.498c.098 6.281 1.445 12.654 3.243 18.871.173.606.773.991 1.397.899a1.247 1.247 0 0 0 1.071-1.264c-.28-21.857 5.387-41.488 29.028-51.847 22.813-10.004 42.91 2.239 58.8 16.99a1.274 1.274 0 0 0 1.579.122 1.26 1.26 0 0 0 .478-1.497c-1.614-4.274-3.53-8.307-5.89-11.58 10.946-8.149 24.336-10.572 37.352-6.037 10.339 3.604 20.353 11.98 22.992 22.96 1.225 5.038 1.83 10.091-.85 14.761-5.404 9.486-18.418 17.691-27.913 22.446-7.333 3.663-15.536 5.563-22.43 10.191-7.338 4.912-11.082 11.162-14.438 19.078-.245.575-.847 1.721-1.547 2.589-2.475-4.448-6.192-6.944-12.026-7.02-6.256-.083-12.514 4.942-16.756 9.174-2.839 2.834-4.879 5.932-6.995 9.311-1.433 2.318-2.914 4.745-4.894 6.648-4.471 4.263-8.025 6.422-13.607 2.896zm75.38-8.005c-18.813 5.148-36.704 6.482-50.526 4.491 2.006-3.174 3.826-6.409 6.69-9.262 2.198-2.19 7.278-6.722 10.592-6.685 6.838.093 3.83 6.788 9.116 8.008 3.646.836 9.299-1.336 12.465-8.801 2.427-5.698 5.16-11.171 11.314-15.303 5.613-3.763 14.849-6.315 21.496-9.642 13.677-6.844 24.222-15.084 29.917-23.32l6.875 25.132c-2.289 4.295-6.27 8.754-11.584 13.104-10.892 8.922-27.215 17.047-46.355 22.278zm75.036 82.721a76.117 76.117 0 0 1-4.537 3.452l-26.515-97.064c2.388-1.604 4.643-3.244 6.723-4.922l26.422 96.741a65.957 65.957 0 0 1-2.093 1.793zm36.344-46.902a5.938 5.938 0 0 1-3.613 2.83l-19.288 5.27-19.668-71.994 19.299-5.268a6.024 6.024 0 0 1 4.55.576 5.967 5.967 0 0 1 2.818 3.638l16.505 60.402c.432 1.603.158 3.214-.603 4.546z"/>
    </g>
</svg>