<svg xmlns="http://www.w3.org/2000/svg" viewBox="0 0 271.3 86.4"><path d="M257.5 0c-.7 0-1.3.6-1.3 1.3v14.5a14 14 0 0 0-10.4-3.9c-4.6 0-7.9 1.3-11 4.3-2 2-3.2 4.1-3.9 6.7-.6 2.4-.6 6.3 0 8.7 2.1 8 10 12.5 18.5 10.8 2.7-.6 4.9-1.9 6.8-3.7v2.5c0 .7.6 1.3 1.3 1.3h2.6c.7 0 1.3-.6 1.3-1.3v-40c0-.6-.6-1.2-1.3-1.2h-1.3zM11.7 2.3c-.7 0-1.3.6-1.3 1.3v37.6c0 .7.6 1.3 1.3 1.3h2.9c.7 0 1.3-.6 1.3-1.3V30h5.8c3.9 0 6.3-.1 8.2-.4 1.8-.2 3.2-.7 4.6-1.4 5.3-2.5 8-7.9 7.2-14-.6-5.2-3.8-8.9-9.2-10.8l-2-.7H30l-9.2-.2zm4.2 4.2l5.6.1c3.6 0 5.8.2 7.2.4 1.5.2 2.2.4 3.3 1 3.6 1.8 5.3 6 4.2 10.8-.7 3.1-2.6 5-6.4 6.3-1 .3-2.4.4-8.2.5l-5.7.1v-9.6zm134.8 5.4a2.4 2.4 0 0 0-1.5.4l-.4.4-.1.2-.1.2a26.6 26.6 0 0 0-1.5 3.5 619.6 619.6 0 0 0-6.6 17l-.2.5-.3-.5a971.8 971.8 0 0 1-7.8-20.3 6.4 6.4 0 0 0-.2-.4l-.2-.3c-.5-.5-.8-.5-1.1-.6a5.7 5.7 0 0 0-2.5.1c-.2 0-.5.2-.8.6l-.1.3a1.2 1.2 0 0 0 0 .4v.7l.3.7a157 157 0 0 0 4.2 11.2l5.2 13.8.8 2c.2.4.7.8 1.3.7h1.3l1.3-.1c.5 0 1-.4 1.1-.8l4.7-12 3.3-8.4.2-.5.2.6 3.3 8.4 4.6 11.9c.2.5.7.8 1.2.8h2.8c.5 0 1-.3 1.2-.8l5.2-13.8a757.3 757.3 0 0 0 5.2-14v-.2a1.2 1.2 0 0 0 0-.4 1.3 1.3 0 0 0-.2-.5c-.5-.8-1-.7-1.3-.7h-2c-.4.1-.7.1-1.2.7l-.2.4a8.5 8.5 0 0 0-.4 1 250.5 250.5 0 0 0-4.3 11.1l-3.2 8.4-.2.5-.2-.5a968.6 968.6 0 0 1-7.6-19.5 29.6 29.6 0 0 0-.5-1l-.3-.4c-.7-.8-1.3-.7-2-.8h-.4zm-91.8 0c-4.4 0-8 1-11.2 3.4-.5.4-1 .5-1.3 1.3-.2.4-.1 1 0 1.4l.4.6c.4.6 1.2 1.1 2 1.1 1 0 1.6-.4 2.3-.9 3.4-2.5 8.1-3.3 11-2 1.3.5 2 1.1 2.6 2 .5 1 .8 2.5 1 4.4v1.4h-4.8c-3.5 0-5.7 0-7.5.3-1.7.3-3 .8-4.1 1.5a8.6 8.6 0 0 0 .7 14.8 17 17 0 0 0 10.2 1.3c2-.3 4-1.2 5.5-2.4v1.1c0 .7.6 1.3 1.3 1.3h2.6c.7 0 1.3-.6 1.3-1.3V30.4l-.2-9.6c-.1-1.6-.4-2.4-.7-3a10 10 0 0 0-2.4-3.2C65.5 12.6 63 12 59 12zm166.7 0a13 13 0 0 0-8 2.8c0-.5 0-1-.2-1.6a2 2 0 0 0-.9-1l-.8-.1a5 5 0 0 0-1.8 0l-.7.2c-.5.2-1 .7-1 1.3v27.8c0 .6.6 1.2 1.3 1.2h2.9c.8 0 1.3-.6 1.3-1.3v-8.4c0-6.4.2-8.7.4-9.7 1-4.2 3.4-6.4 7.2-6.7l2-.2c.6 0 1-.6 1.1-1.2l.1-.8.1-.9c0-.7-.5-1.4-1.3-1.4zM88.8 12c-4.4 0-7.4 1-9.6 3.2a7.6 7.6 0 0 0-2.1 5.6 7 7 0 0 0 2.7 5.9c2 1.3 4.6 2.2 8.5 3 4.3.8 5.7 1.3 6.6 2.2a3 3 0 0 1 .7 3.4 4.7 4.7 0 0 1-3.2 2.8c-1 .3-1.8.4-4.2.3-3.3-.1-4.3-.4-7-2-.9-.6-1.6-1-2.4-1-.9-.2-1.9.4-2.3 1l-.4 1c0 .5.2 1 .4 1.3.4.7 1 1 1.7 1.5 3.9 2.4 9.5 3.2 14.7 2.3 3.5-.6 6.2-2.3 7.5-5 .4-1 .6-2 .6-3.2 0-1.2 0-2.3-.4-3.3-1.2-2.7-4.1-4.2-8.6-5.2-3.8-.8-6-1.3-7.2-1.8-1.3-.5-1.5-.8-2-1.5-1-1.5-.2-4.3 1.6-5.3 2.3-1.4 6.8-1.3 10.2.4a36.8 36.8 0 0 0 2.5 1.1l.5.1c.7 0 1-.3 1.2-.6l.6-.7.4-.8c0-.3.3-.7-.1-1.5-.4-.6-.7-.6-1-.9l-1.4-.6c-1-.4-2.2-.9-3.2-1.1-1.6-.4-3.2-.6-5.3-.6zm101.8 0c-4.7 0-8 1.2-11 4.3-3 3-4.4 6.5-4.4 11.2 0 7.4 4.6 13.4 11.6 15 2.7.6 6.6.4 9.2-.5 5.8-2 9.6-7 10-13.4.3-5-1.2-9.2-4.4-12.4-3-3-6.3-4.2-11-4.2zm-74.9 0h-1.5c-3 .2-3.8.3-5.6 1.1-1.1.6-2.4 1.4-3.2 2.2-3.1 3.3-2.7 9 1 11.5 1.7 1.3 3.7 1.9 8.2 2.8 3 .6 5 1.2 6 1.8 1 .6 1.3 1 1.5 2 .3 2-1 4-3.3 4.7-1 .3-1.8.4-4.1.3-3.3-.1-4.4-.4-7-2-1-.6-1.7-1-2.5-1-.4-.1-.9 0-1.3.1-.5.2-.8.6-1 1l-.4.8c0 .4 0 1 .2 1.3.4.8 1 1 1.7 1.4 1.8 1.2 4.7 2.2 7 2.6 2.8.4 7.2.2 9.7-.5 3.6-1.2 6-3.8 6.3-7.2a7 7 0 0 0-2-6 9 9 0 0 0-3.2-2 42 42 0 0 0-5.8-1.5c-2.8-.6-4.7-1.1-5.7-1.6-1-.6-1.4-1-1.7-1.7a4 4 0 0 1-.1-2.3c.1-.8.6-1.6 1-2 1.2-1.1 2.4-1.5 5.2-1.5 3 0 4 .3 6.5 1.6l1.7.9c.5.3 1.1.2 1.5-.3l.7-.8.7-.7c.5-.6.4-1.5-.2-2l-.6-.4a20.9 20.9 0 0 0-6-2.3c-1-.2-2.2-.3-3.7-.3zm74.7 4.3c2.5 0 5 .8 7 2.6 2.2 2.2 3.2 4.6 3.2 8.3 0 3.4-.5 5-2.3 7.6-2 2.8-6.7 4.3-10.4 3.3-4-1-7-4.9-7.4-9.8-.2-3.5.8-6.6 3-9 1.9-2 4.3-3 6.9-3zm55.4 0c3.3 0 6.5 1.5 8.5 4.6 2 3.1 2.2 8.7.4 12.2-2 4-7 6.2-11.5 5-4-1-7-4.9-7.4-9.8-.2-3.5.8-6.6 3-9 2-2 4.5-3 7-3zM65.7 28.7v1.7l-.1 2.5c0 .4-.2.6-.6 1.2A10 10 0 0 1 61 38c-1.4.5-4 .7-5.4.5-1.7-.3-3-1-3.7-1.8-.7-.9-1-2-1-3.5.2-2 .7-2.8 2.4-3.6.7-.4.8-.4 1.7-.5.9-.1 2.5-.2 5.7-.2zM21.3 46A20.3 20.3 0 0 0 .6 60.8c-.8 2.8-.8 7.8 0 10.7A20 20 0 0 0 13 85c4.1 1.4 9 1.7 13.3.8a19 19 0 0 0 7.7-3.3l1.7-1.2c.3-.2.5-.6.5-1v-14c0-.7-.5-1.3-1.2-1.3h-3c-.7 0-1.2.6-1.2 1.3V79l-.4.3c-2.6 2.2-8.8 3.4-13.2 2.2-2.9-.7-5.1-2-7.3-4.1C5 72.6 4 65 7.2 58.5a17 17 0 0 1 6.7-6.5c3-1.5 4.4-1.8 7.5-1.8 4 0 6.7.9 9.5 3 .8.6 1.5 1 2.4 1.2.9 0 1.8-.5 2.3-1.1.1-.2.3-.3.4-.7.2-.4.1-1 0-1.4-.5-.7-.9-.9-1.6-1.4a21.1 21.1 0 0 0-7-3.4c-1.5-.4-3.8-.5-6.1-.5zm180.4 3.6c-.7 0-1.2.6-1.2 1.3v4.8H199l-2.6.1c-.6 0-1.1.5-1.2 1.2v.8l-.2.9c0 .7.6 1.4 1.3 1.4h4.1v9c0 5.6 0 8.6.2 10.6s.8 3 1.6 4c1 1.3 2.6 2.1 4.3 2.6 1 .2 2.3.2 3.6.1 1.3-.1 2.6-.3 3.6-.7 1-.4 1.5-.7 2-1.3.4-.3.6-.8.6-1.2 0-.5-.1-.9-.3-1.2a2.5 2.5 0 0 0-2.1-1.2 5 5 0 0 0-2.4.8c-.7.5-1 .5-2 .5-2 0-2.5-.3-3.3-1.8l-.5-1V69l-.2-9.1h8.1c.7 0 1.3-.7 1.3-1.4l-.1-.9-.1-.8c0-.7-.6-1.2-1.3-1.2H209l-3.3-.1v-4.8c0-.7-.6-1.3-1.3-1.3H203zm-74.3 6c-1.7 0-3.3.2-4.6.5-10 3-13.7 16-7.3 24.6 3.6 4.7 10.1 6.8 16.5 5.4 2.4-.5 4.5-1.5 6.4-3 .8-.6 1.3-.9 1.7-1.7.2-.5.2-1 0-1.5-.1-.4-.4-.6-.6-.8-.2-.3-.5-.6-1-.8h-1.4c-.8.2-1.4.7-2.2 1.5-2 1.7-3.4 2.2-6.7 2.2-2.2 0-2.7-.1-3.8-.5-3.6-1.5-6.2-5-6.5-8.7v-.3h23c.7 0 1.3-.6 1.3-1.3v-1c0-1.8-.7-4.7-1.6-6.5a14.1 14.1 0 0 0-8.5-7.4c-1.3-.4-3-.6-4.7-.6zm34.3 0c-2.9 0-5.9 1.1-8 2.9 0-.6 0-1.1-.2-1.6a2 2 0 0 0-1-1c-.3-.2-.5-.2-.7-.2a5 5 0 0 0-1.9.1l-.6.2c-.6.1-1 .6-1 1.2V85c0 .7.6 1.3 1.3 1.3h2.9c.7 0 1.3-.6 1.3-1.3v-8.4c0-6.5.1-8.8.4-9.8 1-4.1 3.4-6.3 7.2-6.7l2-.1c.6-.1 1-.6 1.1-1.2l.1-.9V57c.2-.8-.4-1.4-1.2-1.4zm106.6 0c-2.9 0-5.8 1.1-8 2.9v-1.5c0-.7-.6-1.2-1.3-1.2h-2.4c-.7 0-1.2.6-1.2 1.3l-.1 14v13.9c0 .7.5 1.3 1.2 1.3h2.6c.7 0 1.3-.6 1.3-1.3l.1-9c0-4.3 0-6.6.2-8 0-1.3.1-1.6.4-2.3 1.3-3.5 4.1-5.6 7.5-5.6h1.4c.7 0 1.3-.6 1.3-1.3V57c0-.8-.6-1.3-1.3-1.3zm-35 0c-3 0-5.1.5-7.5 1.7-2.1 1-4.5 3.3-5.7 5.4-2.7 4.7-2.9 10.8-.4 15.7 3 6.2 10 9.3 17.4 7.7 5.5-1.2 9.8-5.2 11.2-10.7.7-2.4.7-6.3 0-8.7-.6-2.6-1.9-4.7-3.8-6.7-3-3-6.4-4.3-11.1-4.3zm-55.2 0a19 19 0 0 0-4 .5c-2.3.5-5.3 1.8-6.9 3.2-.4.3-.8.4-1 1.3-.1.4 0 .9.1 1.1l.3.6c.5.6 1.3 1.2 2.1 1.2.9 0 1.6-.4 2.2-1 1-.8 4-2.1 5.7-2.4 3.2-.6 5.7.2 7.2 1.8 1.1 1.2 1.6 2.5 1.6 5.4v1l-5.6.1c-3.8 0-5.9.1-7.5.4-1.6.3-2.7 1-3.9 1.8a8 8 0 0 0-3.1 6.7c0 2.3.6 4.3 2 5.8 1.3 1.5 3.3 2.5 5.7 3 2.4.5 5.2.5 7.6 0 2-.4 3.4-1.1 4.8-2.2V85c0 .7.5 1.3 1.3 1.3h2.9c.7 0 1.3-.6 1.3-1.3l-.1-10.5c0-5.2 0-7.8-.2-9.4a9.7 9.7 0 0 0-6-8.5c-1.7-.7-4.1-1-6.5-1zm-121 0c-1.5.1-3 .2-4 .5-5 1.3-8.8 5.3-10.2 10.5-.6 2.4-.6 6.3 0 8.6 1.1 4.1 4 7.7 7.6 9.5 2.8 1.4 5.2 1.9 8.6 1.7 1.5 0 3.1-.2 4.1-.5 2.1-.7 4.2-1.8 5.7-3.2l1.2-1c.5-.6.5-1.4 0-1.9l-.6-.6c-.2-.3-.5-.5-.9-.7-.3-.2-.9-.3-1.3-.3-1 .2-1.5.7-2.1 1.4A10.5 10.5 0 0 1 49 76.7c-.5-1-1-3.2-1.2-4.3h22.9c.7 0 1.3-.6 1.3-1.3v-1.5c0-6.4-4.7-12.3-10.9-13.7-1-.3-2.5-.3-4-.3zm35.4.1a13 13 0 0 0-8.9 3.2V57c0-.6-.6-1.2-1.3-1.2h-2.4c-.7 0-1.3.6-1.3 1.3v14l-.1 13.9c0 .7.5 1.3 1.3 1.3h2.9c.7 0 1.2-.6 1.2-1.3l.1-9.3v-9l.8-1.6 1.6-2.5c1.6-1.7 5.4-3 8.3-2.5 2.9.4 4.4 1.6 5.6 4l.5 1.2.1 9.7.1 10c0 .7.6 1.3 1.3 1.3h2.9c.7 0 1.2-.6 1.2-1.3v-9a262.9 262.9 0 0 0-.3-10.7 11.4 11.4 0 0 0-11.7-9.6h-1.9zm-35.3 4.2c4.5 0 8.8 3.5 9.5 8.7h-9.2a352.5 352.5 0 0 1-9.6 0v-.6c.3-.8.6-1.9 1-2.5.6-1.3 2.7-3.7 3.9-4.4 1.4-.8 3-1.2 4.4-1.2zm70 0c3.5 0 7 2.1 8.6 5.7.3.6.6 1.6.8 2.5v.5a153.3 153.3 0 0 1-9.4 0H118c.1-1 .9-3.2 1.7-4.5a9 9 0 0 1 7.6-4.2zm106.2 0a10 10 0 0 1 8.4 4.6c2 3.2 2.3 8.3.6 12a9.5 9.5 0 0 1-4.6 4.6c-1.8.9-1.8.9-4 1-1.7 0-2.4 0-3.4-.4-3-1-5.7-3.8-6.6-7.1-.5-1.7-.5-6 0-7.5a10 10 0 0 1 9.6-7.1zm-48 12.6V74l-.1 2.5c0 .5-.2.7-.4 1.2a8.5 8.5 0 0 1-6.3 4.4c-1.7.2-1.7.2-3.4 0l-2.3-.9a4.5 4.5 0 0 1 1.9-8.6l5.5-.1z" fill="#006600"/></svg>