<svg width="100" viewBox="0 0 176 44">
    <g clip-path="url(#clip0_3645_16869)">
        <path fill="#EA6E55" d="M0 2h40v40H0z"/>
        <path fill="#FFF0BA" d="M14.5 31.6h2L11.6 42h-2l4.9-10.4z"/>
        <path fill="#fff" d="M18.5 19.8l2.6 1.4c-.2.4 0 .6.3.7.8.2 1.4-.3 1.6-1 .2-.8 0-1.5-.7-2.1-.7-.7-1.5-1-2.5-.8-1.9.3-3 1.8-3.2 3.4a5 5 0 0 0 2.9 5.1c1.6.8 3.2.7 4.9 0 2.1-1 3.4-2.6 3.8-4.9a7.7 7.7 0 0 0-4.3-8.2 8.3 8.3 0 0 0-4.3-.7 9.2 9.2 0 0 0-8.2 7.2c-.5 2.2-.2 4.4.7 6.5 1.6 3.2 4.2 5.2 7.7 5.9 3 .5 5.8-.1 8.4-1.7l1.3-1-.2.3c-2 2-4.2 3.3-7 3.7-6.1 1-12.1-3-13.4-9.1A11.8 11.8 0 0 1 28.2 13a10.3 10.3 0 0 1 3 6.4A9.6 9.6 0 0 1 23 30a8.3 8.3 0 0 1-9.4-7.2c-.3-2.2.4-4.2 2-5.9 1.4-1.3 3-2 4.9-1.9 2 0 3.7 1 4.7 2.7.9 1.4 1 3 .5 4.5a4 4 0 0 1-3 2.6c-1.4.3-2.7 0-3.7-1a3.3 3.3 0 0 1-.5-4z"/>
    </g>
    <path fill="#49494A" d="M105 29a8.9 8.9 0 0 1-.4-2v-2.1a19.7 19.7 0 0 1 2.4-7.7 16.5 16.5 0 0 1 3.9-4.5 9.8 9.8 0 0 1 2.6-1.4 5.2 5.2 0 0 1 1-.3 10.5 10.5 0 0 1 2.7-.5h1.5l.5.1a27.6 27.6 0 0 1 2 .6 4.6 4.6 0 0 1 .8.5 4.2 4.2 0 0 1 1.1 1.4l.3.5a5 5 0 0 1 .2 1.9l-.1.6-.4 1.1-.5 1-.8 1a7.6 7.6 0 0 1-2.6 1.8l-.5.2a10.4 10.4 0 0 0-.7.3h-.2l-.2.1h-.2l-.1.1c-.4 0-.8 0-1.1-.2-.3-.2-.5-.5-.6-.9-.1-.4 0-.7.1-1 .2-.4.5-.6.8-.7l.3-.1h.2l.1-.1h.2l.8-.4.3-.1.4-.2a6.8 6.8 0 0 0 1.2-.8l.5-.6.7-1.1.1-.7v-.6l-.1-.7a2 2 0 0 0-.3-.6 3.9 3.9 0 0 0-.8-1l-.3-.1-.8-.4a3.8 3.8 0 0 0-1.7-.2h-.5l-.4.2a7.1 7.1 0 0 0-2 .7l-.4.3a9.5 9.5 0 0 0-2 1.7 15.3 15.3 0 0 0-2.7 4.3 23.2 23.2 0 0 0-1.5 5.9v.8a10.4 10.4 0 0 0 .2 3.2 57 57 0 0 0 .4 1.5l.7 1.3a4.2 4.2 0 0 0 1.3 1.2l.3.2a3.7 3.7 0 0 0 .7.3 14.5 14.5 0 0 0 1 .2h.7a8.5 8.5 0 0 0 5-1l1.5-1a9.2 9.2 0 0 0 2-2l.2-.3a23.7 23.7 0 0 0 .4-.6V28h.1l.2-.2h.3c.1 0 .2 0 .2.2v.4h-.1v.1l-.2.2-.1.2-.2.3-.2.2-.1.2-.6.7a11.6 11.6 0 0 1-6.5 4 14.4 14.4 0 0 1-2.4.3h-.2-.3a5.5 5.5 0 0 1-1 0 13.3 13.3 0 0 1-1.6-.3c-.1 0-.3 0-.5-.2a17.3 17.3 0 0 0-1-.5 12.8 12.8 0 0 1-.9-.7l-.4-.4a8.9 8.9 0 0 1-1-1.4 9 9 0 0 1-.8-2z"/>
    <path fill="#49494A" d="M132.5 34l-.4.3-.3.2a2.3 2.3 0 0 1-.7.3H130.8a2.5 2.5 0 0 1-1 0l-.4-.1-.7-.4-.6-.7a2 2 0 0 1-.3-.6 3 3 0 0 1-.2-.6V32v-.4l-.1-.2v-.3.2l-.2.2-.2.4s0 .2-.2.3a4.8 4.8 0 0 1-.7 1.1 3.4 3.4 0 0 1-.7.7 4.3 4.3 0 0 1-.7.4h-.6-.1-.2-.3l-.3-.1c-.2 0-.4-.2-.5-.4l-.4-.4-.2-.3a3.4 3.4 0 0 1-.2-.7 4.8 4.8 0 0 1-.2-1v-.4-.4-.5-.8a9 9 0 0 1 .4-1.7l.2-.9a24.6 24.6 0 0 1 1.5-3.1 7.1 7.1 0 0 1 2-2.2l1-.4.6-.2h.6l1.2.2c.3.2.7.3 1 .6l.2.1.2.2.2.2h.1v.1c.4.3.6.7.6 1.1 0 .5-.1.8-.4 1.1-.3.4-.7.5-1 .6-.5 0-.9-.2-1.2-.5v-.1h-.1l-.1-.1-.2-.3-.2-.1-.2-.1h-.1l-.2-.1a1 1 0 0 0-.3 0l-.4.1a1.5 1.5 0 0 0-.4.3l-.5.4a117.4 117.4 0 0 1-1.2 1.7 9 9 0 0 0-.6 1.3 11 11 0 0 0-.8 2.8 3.5 3.5 0 0 0 0 .7v1.3l.1.2a3.8 3.8 0 0 1 .1.1l.1.1a29.4 29.4 0 0 0 .2.1H124.5c.2 0 .3-.2.5-.3l.2-.2.3-.3.2-.2.2-.3.4-.6a26.3 26.3 0 0 0 1.3-2.8l.1-.3.1-.2.1-.4v-.2l.1-.3v-.2l.1-.2v-.1c.2-.4.5-.8.8-1 .4-.1.8-.2 1.3 0 .4 0 .7.4.9.8.2.3.2.7 0 1.2v.2l-.1.3-.1.2-.1.2a65.8 65.8 0 0 1-.6 2.1v.4a4.2 4.2 0 0 0 0 1.8v.1l.2.1h.3v.1h.4l.2-.2h.1l.3-.3.3-.3.6-.7.2-.4.3-.4.1-.1.2-.2.2-.4.2-.2v-.2l.3-.4.1-.2.2-.2.2-.5.2-.1h.3c.2 0 .2.2.2.4v.1l-.1.2-.1.2a550.5 550.5 0 0 0-.2.5v.2l-.1.2-.2.5-.1.2-.1.2-.1.3-.1.2-.2.4-.2.5a11 11 0 0 1-1.3 1.7z"/>
    <path fill="#49494A" d="M148.7 28v.5l-.2.3a2 2 0 0 1-.3.4l-.1.3-.1.2-.2.5a13.5 13.5 0 0 0-.6 1 7.7 7.7 0 0 1-.6.9l-.2.2-.1.2a143 143 0 0 0-1.7 1.7 3.3 3.3 0 0 1-.5.4 7.6 7.6 0 0 1-.7.3h-.7-.2-.1-.2-.1l-.2-.2h-.1a3 3 0 0 1-.4-.4l-.1-.2a2.3 2.3 0 0 1-.3-.7v-.2l-.1-.5v-.3-.4-.3a13.2 13.2 0 0 1 .2-1.2l.1-.5.3-1.1a395.9 395.9 0 0 0 .7-2.6l.1-.5a7.2 7.2 0 0 0 .2-1v-.3l-.2.1-.2.1-.2.1a5.8 5.8 0 0 0-.8.6l-.2.2-.1.1-.2.2-.2.2a19.3 19.3 0 0 0-1.5 2.1l-.1.3a25.7 25.7 0 0 0-.6 1.1l-.5 1a26.9 26.9 0 0 0-1.2 3v.2c-.1.4-.3.8-.7 1-.3.3-.7.4-1.2.3-.4 0-.7-.3-1-.7-.2-.3-.3-.8-.2-1.2v-.1l3-11c0-.3.2-.5.4-.6.3-.2.6-.2.9-.1.2 0 .4.2.6.4.1.3.2.5.1.8l-1.1 6.5c0-.1 0-.3.2-.4a16.4 16.4 0 0 0 .4-1.3l.2-.3a9973 9973 0 0 0 1.2-2.5l.3-.5.2-.5a10.8 10.8 0 0 1 .6-.8l.1-.3.3-.2a3.7 3.7 0 0 1 .7-.7l.7-.5a3.6 3.6 0 0 1 1-.3h1.4l.4.2a2.4 2.4 0 0 1 .6.5l.2.2.1.2.1.2.2.4v.3l.1.5v.5a4 4 0 0 1 0 1l-.2.4a7.3 7.3 0 0 1-.1.6l-.2.5-.2.6a18.4 18.4 0 0 1-.9 2l-.4 1-.4 1a20.6 20.6 0 0 0-.5 1.4c0 .1 0 .2.2.2l.3-.1.5-.3a2.5 2.5 0 0 0 .4-.3l.4-.3a16.2 16.2 0 0 0 1.8-1.9l.3-.4.3-.4.3-.4.2-.2.1-.2c.2-.2.3-.2.5 0z"/>
    <path fill="#49494A" d="M162.3 32.2a5.4 5.4 0 0 1-.7 1.1c0 .2-.2.3-.3.4l-.8.6a13.8 13.8 0 0 1-.9.4h-.3-.5a1.8 1.8 0 0 1-.7 0 2 2 0 0 1-.8-.6l-.4-.5-.2-.3v-.2a6.4 6.4 0 0 1-.6-1.7l-.2-.9v-.8-.6l-.1-.5-.1.3-.3.4-.1.4-.2.4-.2.3a8.9 8.9 0 0 0-.5.8l-.4.7-.2.4a5.2 5.2 0 0 1-.6.7 40.7 40.7 0 0 1-1.2 1.2l-.2.1-.6.2h-.2v.1h-.4l-.7-.1-.6-.4-.2-.3-.2-.2-.3-.5-.2-.3v-.2l-.2-.5a8.4 8.4 0 0 1-.1-1v-1-.3-.2a18 18 0 0 1 .5-2.8v-.2l.1-.2.1-.2.1-.3a12.2 12.2 0 0 0 .4-.9l1.2-1.5.3-.4.4-.3.2-.2a6.6 6.6 0 0 0 .4-.3l.2-.1a2.2 2.2 0 0 1 .5-.3h.2a2 2 0 0 1 .5-.3 6.6 6.6 0 0 1 .6 0 7.6 7.6 0 0 1 .6-.1h.3l.7.2.3.2.2.2.2.3.2.2a46.5 46.5 0 0 1 2.4-8.8l.4-.7a10 10 0 0 1 2-2.6l.3-.1.2-.1.3-.2.5-.1h.7l.3.2.3.3s.2.1.2.3l.1.2v1.4l-.1.4a15.4 15.4 0 0 1-.4 1.4v.2l-.1.2v.2a14 14 0 0 1-.6 1.5 11 11 0 0 1-.5 1.5 45.6 45.6 0 0 0-1.1 3l-.3.6-.3.8-.3.7-.4.7-.3.8-.4.7-.2.4-.1.3-.2.4-.1.2v.2a15.2 15.2 0 0 0-.2 2.2V31.7l.2.5.2.5a2 2 0 0 1 .1.1h.3l.5-.1.5-.3a4.2 4.2 0 0 0 .9-1l.4-.6a12.1 12.1 0 0 0 1.1-2.1l.1-.2v-.2l.1-.2.3-.2h.3c.3 0 .4.3.3.5v.4a3.5 3.5 0 0 1-.2.4v.4l-.2.4a9.5 9.5 0 0 0-.3.8l-.3.7-.4.7zm-2-14.5l-.4 1.5-.4 1.4v.3l-.1.2.3-.5.4-.5a22.5 22.5 0 0 0 1.3-2.7 61.5 61.5 0 0 0 1.4-3.5v-.1-.4a47.6 47.6 0 0 0 .3-1V12a1.4 1.4 0 0 0-.1-.4v-.1-.1l-.1-.1h-.1v.1l-.2.1-.1.1h-.1a6.3 6.3 0 0 1-.3.6l-.3.6-.1.3-.2.4a12.5 12.5 0 0 1-.4 1.3 31.3 31.3 0 0 0-.9 2.9zm-4.6 9.3l.1-.1v-.3-.2-.3l.1-.5v-.4-.4V24.5h-.1v-.2l-.1-.2-.1-.1-.5-.5H154.7h-.1-.1-.2-.1l-.1.2h-.1l-.1.1-.3.2-.1.1-.1.1a7 7 0 0 0-1.4 1.6l-.1.3-.1.2-.1.2-.2.3-.1.3v.2l-.2.1-.1.4a12.2 12.2 0 0 0-.8 2.9v.7a2.8 2.8 0 0 0 0 .7v.5l.1.2h.1l.1.1h.2l.5-.1a3.4 3.4 0 0 0 .9-.7 5.1 5.1 0 0 0 .8-.9 11.7 11.7 0 0 0 1.2-1.6 6.7 6.7 0 0 0 .4-.7l.2-.4a11.8 11.8 0 0 0 .4-.7l.4-.8z"/>
    <path fill="#49494A" d="M175.9 27.8v.2c.1 0 .1.1 0 .2a16.6 16.6 0 0 1-.8 1.5l-.5.6-.4.5a23.2 23.2 0 0 1-3.4 3.2 49.5 49.5 0 0 1-3.7 8l-.3.3a42.4 42.4 0 0 1-1 1l-.2.1-.2.2h-.2l-.2.2-1 .2h-1a3 3 0 0 1-1.5-.8l-.2-.2-.2-.3-.2-.2-.1-.3v-.3a1.7 1.7 0 0 1-.2-.6V41a26.1 26.1 0 0 0 0-.5 6 6 0 0 1 1-1.8v-.2l.2-.2.2-.1a6 6 0 0 1 .6-.6l.6-.5a14.4 14.4 0 0 1 1.2-.8l2.4-1.5.9-.5.2-.6a14.7 14.7 0 0 0 .4-1.2 178 178 0 0 0 .4-1.6l-.3.3-.3.3a6.9 6.9 0 0 1-1 .7l-.4.1a3 3 0 0 1-.8.2H165.6h-.1-.3-.2a8.5 8.5 0 0 0-.5 0l-.5-.3a3 3 0 0 1-.7-.6l-.2-.3a34.6 34.6 0 0 1-.3-1l-.1-1v-.8l.1-.4v-.2a12.2 12.2 0 0 0 .2-1 11 11 0 0 1 .6-1.7l.1-.3.2-.4.1-.3a13 13 0 0 1 1-2l.1-.2.1-.2.1-.2.5-.5.6-.2h.6c.2 0 .4 0 .6.2.4.3.6.6.7 1 .1.5 0 .9-.2 1.3l-.1.3-.2.3-.1.2-.2.3a22 22 0 0 1-.8 1.4v.3l-.2.3-.2.3-.1.3-.1.2a6.6 6.6 0 0 1-.3.6l-.1.3-.1.2v.3l-.2.3v.5l-.1.2V30.4l.2.1.2.1h.1l.6.1.5-.1.5-.2.2-.1.2-.2.9-1a9.6 9.6 0 0 0 .8-1.2v-.2l.3-1.3.3-1.4a10.6 10.6 0 0 0 .3-1.4l.2-.6.1-.7c.1-.5.3-.8.7-1 .3-.3.7-.4 1.2-.3.4.1.7.4 1 .7.2.4.3.8.2 1.2l-.1.4v.4l-.3.7-.1.7-.2.6-.3 1.4-.4 1.4-.2.7-.6 2-.2.7a17.9 17.9 0 0 0 3.3-3l.2-.2a8 8 0 0 0 .6-.8l.2-.1h.2zm-9.6 10.5a35.2 35.2 0 0 0 .4-1.3h-.2l-.5.5-.6.4-.5.4a7 7 0 0 0-1 .8l-.2.2-.2.3a7.6 7.6 0 0 1-.1.2h-.1v.2a2.2 2.2 0 0 0-.4 1v.4h.2l.3.2h.4l.3-.1h.1l.1-.1h.1l.4-.4.1-.2.2-.3.3-.5.3-.5.3-.6.3-.6zM53 22h1.6c1.5 0 2.7-.3 3.4-1 .8-.6 1.1-1.5 1.1-2.7 0-1.1-.3-2-1-2.6-.5-.5-1.5-.8-2.9-.8H53v7zM64 18.2c0 2.5-.7 4.5-2.3 5.9a10 10 0 0 1-6.7 2H53v8.5h-5V10.7h7.5c2.8 0 5 .6 6.4 1.9 1.5 1.2 2.2 3.1 2.2 5.6zM86 22.4c0 4-1 7-3.2 9-2.2 2.2-5.4 3.2-9.5 3.2h-6.6V10.7H74c3.8 0 6.8 1 9 3.1 2 2 3 5 3 8.6zm-5 .2c0-5.2-2.3-7.7-6.7-7.7h-2.7v15.5h2.2c4.7 0 7.1-2.6 7.1-7.8zM94 34.6h-5V10.7h13.5V15h-8.6V21h8v4.2h-8v9.4z"/>
    <defs>
        <clipPath id="clip0_3645_16869">
            <path fill="#fff" d="M0 0h40v40H0z" transform="translate(0 2)"/>
        </clipPath>
    </defs>
</svg>