<svg width="180" viewBox="0 0 400 91" fill="none">
    <path d="M197 28h3v6h-4l-7 2-2 8v20h-6V28h6v6h1c1-4 4-6 9-6zm41 8l2 10-2 11a17 17 0 0 1-15 8c-6 0-10-2-13-7h-1v20h-6V28h6v6l1 1v-1c3-5 7-7 13-7l8 2 7 7zm-4 10c0-4-1-7-3-10-3-2-6-3-10-3l-9 3c-2 3-3 6-3 10 0 5 1 8 3 10 3 3 6 4 9 4 4 0 7-1 10-4 2-2 3-5 3-10zm-99-10l2 10-2 11a17 17 0 0 1-15 9c-6 0-10-3-13-8h-1v20h-6V28h6v6l1 1v-1c3-5 7-7 13-7l8 2 7 7zm-4 10c0-4-1-7-4-10-2-2-5-3-9-3l-9 3c-2 3-3 6-3 10 0 5 1 8 3 10 3 3 6 4 9 4 4 0 7-1 9-4 3-2 4-5 4-10zm38 7h7l-6 9c-2 2-6 3-11 3-4 0-7 0-10-2-3-1-5-4-7-7-2-2-2-6-2-10s0-7 2-10c1-3 4-5 6-7l10-2 9 2 6 6 2 9v4h-29c0 4 2 6 4 9 2 2 5 3 9 3l7-2 3-5zm-23-10h22l-2-8c-2-2-5-2-8-2s-6 0-8 2l-4 8zm99 21h6V14h-6v50zm87-40h7v-8h-7v8zm26 35h-3l-1-1 1-2V33h9l-2-5h-7V18h-6v10h-7v5h7v20l2 8c2 2 5 3 9 3h5v-5h-7zm36-31l-10 31h-2l-11-31h-6l12 36h5v2l-2 5-2 1h-11v6h7l8-2 5-7 13-40v-1h-6zm-83 14l-9-14h-7v1l11 16-14 18v1h7l12-14 10 14h7v-1l-12-17 13-16v-2h-7l-11 14zm21 22h7V28h-7v36zm-40-11c0 3-2 6-5 9-3 2-6 3-12 3-3 0-7 0-10-2-2-1-5-4-6-7-2-2-3-6-3-10s1-7 3-10c1-3 3-5 6-7l10-2 9 2 6 6 2 9v4h-29c0 4 1 6 4 9 2 2 5 3 8 3l7-2 4-5h6zm-29-10h22c0-3-1-6-3-8-1-2-4-2-7-2s-6 0-8 2l-4 8z" fill="#d9d6d1"/>
    <path d="M39 30L13 6v24h26zM40 30L65 6v24H40zM39 2v88M65 54L39 30v33l26 23V54zM13 54l26-24v33L13 86V54z" stroke="#42cee3" stroke-width="4.3" stroke-miterlimit="10"/>
    <path d="M2 30v34h11V54l26-24H2zM39 30l26 24v11h10V30H39z" stroke="#42cee3" stroke-width="4.3" stroke-miterlimit="10"/>
</svg>