<svg width="150" viewBox="0 0 222 47">
        <path d="M167 41v-5l2 1h3l6-1c2-2 4-6 3-10 0-3-1-6-4-7-1-2-2-2-5-2l-3 1-2 1-1-1v-1h-4v30h5zm3-8l-3-3v-6c1-2 3-3 5-3 3 1 4 3 4 7 0 3-2 5-4 5h-2zm-53 4c3-1 4-3 5-5 3-5 1-12-4-14l-5-1-4 1-5 5-1 4 1 5c2 4 5 6 10 5h3zm-6-4c-4-1-4-10 0-12 3 0 5 0 6 3 2 3 1 7-1 9h-5zm25 3l1-2v-1h-4l-1-6v-6h5v-4h-5v-5l-1 1h-4v4h-2v2l1 2h1v6l1 8c1 2 3 3 6 3h2v-2zm17 1l5-5 1-5-1-5-5-4-4-1-4 1c-5 2-7 6-6 11 0 4 3 7 7 8h7zm-6-4c-3-1-4-7-2-10 2-2 6-2 7 0l2 4c0 3-2 5-3 6h-4zm52 4l2-1v-2-2h-2l-4 1-4-1-2-2c-1-2-1-2 6-2h6l1-1c0-3-1-6-3-8l-6-2-6 2c-2 2-4 5-4 8 0 5 4 9 8 10h8zm-10-13c1-2 3-3 5-3l2 3 1 1h-8zm23 13l2-1 1-1 1 1 4 2 2-1v-4h-1l-2-6-1-8-6-2-6 1-1 1v2l1 2 2-1c3-1 6-1 6 1 1 1 0 1-2 2-3 0-7 2-8 4s-1 6 2 7c1 2 3 2 6 1zm-2-4l-1-2c0-1 3-3 5-3v5h-4zM65 32v-4h4l8-2c2-2 3-5 3-9-1-3-2-5-5-7h-8l-7-1v28h5zm0-13v-5h3c4 0 5 0 6 2v5c-1 2-2 2-6 2h-3zm22 11c0-8 0-8 2-8 3-1 4-1 5 1l1 7v7h5v-7l-1-9-4-4-6 1h-2V7h-5v30h5z" fill="#e6e6e6"/>
        <path d="M7 34V22l1-2c2-5 5-9 9-11 7-3 13-2 18 2 5 5 5 14 0 19-6 6-14 5-16 0-3-4-1-9 3-11h5v3l-2 1c-2 1-3 4-1 6 2 0 5 0 7-2l2-3v-4c0-3-1-5-4-7-5-2-12 1-15 7-2 3-2 4-2 16v10h15l15-1c2-1 3-2 4-5V6l-1-1-2-3c-2-2-1-2-20-2S5 0 3 2L1 5 0 6v34l1 2 4 4c2 0 2 1 2-12z" fill="#18a497"/>
</svg>