<svg viewBox="0 0 735 289">
    <g clip-path="url(#clip0_7_84)">
        <path d="M304.2 288V90H244.3a20 20 0 0 0-19.3 19.8v158.6l.1 1.1A20.5 20.5 0 0 0 246 288h58.2zM548.2 288c11-1 19.8-10 19.8-21V110.1v-.2c0-11-8.9-19.9-19.8-20h-59.3v198h59.3z" fill="#E72264"/>
        <path d="M293 90h62c6.1 0 14.8 5 19.3 11l131.5 176c4.5 6 3.3 11-2.8 11h-62c-6.1 0-14.7-5-19.2-11L290.3 101c-4.6-6-3.3-11 2.8-11z" fill="#E72264"/>
        <path d="M498 90h-62c-6 0-14.6 5-19.1 11L285.4 277c-4.6 6-3.3 11 2.8 11h62c6 0 14.6-5 19.2-11l131.5-176c4.5-6 3.2-11-2.8-11zM529 0a38 38 0 1 1 0 76 38 38 0 0 1 0-76zM265 0a38 38 0 1 1 0 76 38 38 0 0 1 0-76zM695 0h-60a39 39 0 0 0-39 39v60a39 39 0 0 0 39 39h60a39 39 0 0 0 39-39V39a39 39 0 0 0-39-39zm-39.6 39.3v40.5c0 5.5-1 10.2-3.2 14.3a23 23 0 0 1-9.4 9.3c-4 2.2-8.8 3.3-14.3 3.3a24.5 24.5 0 0 1-20.9-9.6s-6.5-7.1-.5-12.1c6.1-5.1 11.4 1.6 11.4 1.6 1.3 1.7 2.7 3 4.4 3.9 1.7.8 3.6 1.3 5.8 1.3 2 0 3.8-.4 5.3-1.3a9 9 0 0 0 3.6-3.7c1-1.7 1.4-3.7 1.4-6.1V39.3s-.2-8.3 8-8.3c8.4 0 8.5 8.4 8.5 8.4zm59 59a32.3 32.3 0 0 1-20 8.2 38 38 0 0 1-15.9-1.3c-4.5-1.4-8.7-4-12.6-7.6 0 0-6.1-5.3-1.2-11.8 3.7-5 10.6.2 10.6.2 2.6 2.4 5.4 4.2 8.4 5.4 3 1.2 6.4 1.5 10.2 1.1a14 14 0 0 0 7.7-2.7 6 6 0 0 0 2.3-5.5c-.2-2-1-3.4-2.3-4.5-1.3-1.2-3-2-5.2-2.7a79 79 0 0 0-7-1.8l-7.6-2.1c-2.5-.9-4.9-2-7.1-3.3-2.2-1.4-4-3.3-5.5-5.6a20.5 20.5 0 0 1-2.9-9c-.4-4.5.2-8.5 2-12 1.9-3.4 4.7-6.2 8.4-8.3a35.8 35.8 0 0 1 27.3-2.7c4.4 1.3 8.2 3.3 11.2 6 0 0 4.3 3.7.8 9.9-2.7 4.8-10.3 2-10.3 2-2.4-2.1-4.8-3.6-7.2-4.4-2.3-.9-4.9-1.2-7.6-.9-2.8.3-5 1-6.5 2.3a5.2 5.2 0 0 0-2 4.8c.2 1.8 1 3.2 2.3 4.2 1.3 1 3 1.8 5.2 2.5 2.1.6 4.4 1.2 7 1.7l7.6 2.1c2.5.8 4.9 2 7 3.5 2.2 1.5 4.1 3.5 5.6 5.9 1.6 2.4 2.5 5.5 3 9.3.7 7-1.2 12.7-5.8 17.2zM107.2.3A107.2 107.2 0 0 0 0 111v141a37 37 0 0 0 74 0v-38h33.1c59.1 0 107.1-47.3 107.1-106.5S166.3.3 107.2.3zm0 139.7H74v-32.5a33 33 0 0 1 66 0 32.6 32.6 0 0 1-33 32.5z" fill="#E72264"/>
        <path opacity=".1" d="M36 214h38v38h-.2A37 37 0 0 1 0 252v-.5-.6-3.2A37.6 37.6 0 0 1 36 214z" fill="#1D1D1B"/>
        <g opacity=".1" fill="#000">
            <path opacity=".5" d="M0 168.3V214a75.2 75.2 0 0 1 74-74v-14.5a106.8 106.8 0 0 0-74 42.8z"/>
            <path d="M.1 248.4a51.7 51.7 0 0 1 30.7-10.2h43.3V214H37a37 37 0 0 0-37 34.4z"/>
        </g>
        <g opacity=".1" fill="#000">
            <path opacity=".5" d="M74 140v-13.2a104 104 0 0 0-74 43.5V214a75.2 75.2 0 0 1 74-74z"/>
            <path d="M37 214A37 37 0 0 0 .3 246.8 50.4 50.4 0 0 1 31.4 236H74v-22H37z"/>
        </g>
        <g opacity=".1" fill="#000">
            <path opacity=".5" d="M74 140v-11.9a101.1 101.1 0 0 0-74 44.2V214a75.2 75.2 0 0 1 74-74z"/>
            <path d="M37 214A37 37 0 0 0 .5 245.3 49.1 49.1 0 0 1 32 233.8h42V214H37z"/>
        </g>
        <g opacity=".1" fill="#000">
            <path opacity=".5" d="M74 140v-10.5a98.3 98.3 0 0 0-74 45V214a75.2 75.2 0 0 1 74-74z"/>
            <path d="M37 214A37 37 0 0 0 .7 243.8a47.8 47.8 0 0 1 31.8-12.2h41.6V214H37z"/>
        </g>
        <g opacity=".1" fill="#000">
            <path opacity=".5" d="M74 140v-9.2a95.4 95.4 0 0 0-74 46V214a75.2 75.2 0 0 1 74-74z"/>
            <path d="M37 214a37 37 0 0 0-36 28.2c8.5-8 19.8-12.8 32-12.8h41V214H37z"/>
        </g>
        <g opacity=".1" fill="#000">
            <path opacity=".5" d="M74 140v-7.8a92.5 92.5 0 0 0-74 47.1V214a75.2 75.2 0 0 1 74-74z"/>
            <path d="M37 214a37 37 0 0 0-35.5 26.7 45.2 45.2 0 0 1 32.2-13.5H74V214H37z"/>
        </g>
        <g opacity=".1" fill="#000">
            <path opacity=".5" d="M74 140v-6.5c-31.9 1.8-59.6 21-74 48.5v32a75.2 75.2 0 0 1 74-74z"/>
            <path d="M37 214a37 37 0 0 0-35 25.2A44 44 0 0 1 34.2 225H74v-11H37z"/>
        </g>
        <g opacity=".1" fill="#000">
            <path opacity=".5" d="M74 140V135A86.6 86.6 0 0 0 0 185v29a75.2 75.2 0 0 1 74-74z"/>
            <path d="M37 214a37 37 0 0 0-34.5 23.7c7.9-9.1 19.4-15 32.3-15H74V214H37z"/>
        </g>
        <g opacity=".1" fill="#000">
            <path opacity=".5" d="M74 140v-3.7a83.6 83.6 0 0 0-74 52.2V214a75.2 75.2 0 0 1 74-74z"/>
            <path d="M37 214a37 37 0 0 0-33.9 22.2 41.2 41.2 0 0 1 32.3-15.6H74V214H37z"/>
        </g>
    </g>
    <defs>
        <clipPath id="clip0_7_84">
            <path fill="#fff" d="M0 0h734.1v288H0z"/>
        </clipPath>
    </defs>
</svg>