<svg width="60" viewBox="0 0 400 400">
    <path d="M136 222c-12 3-21 10-26 16 5-5 12-9 22-12 10-2 18-2 25-1v-6c-6 0-13 0-21 3zm-27-46l-48 12 3 3 40-10s0 7-5 14c9-7 10-19 10-19zm40 112C82 306 46 228 35 188a227 227 0 0 1-7-45c-4 1-6 2-5 8 0 9 2 23 7 42 11 40 47 118 114 100 15-4 26-11 34-20-7 7-17 12-29 15zm13-160v5h26l-2-5h-24z" fill="#2D4552"/>
    <path d="M194 168c12 3 18 11 21 19l14 3s-2-25-25-32c-22-6-36 12-37 14 6-4 15-8 27-4zm105 19c-21-6-35 12-36 14 6-4 15-8 27-5 12 4 18 12 21 19l14 4s-2-26-26-32zm-13 68l-110-31s1 6 6 14l93 26 11-9zm-76 66c-87-23-77-134-63-187 6-22 12-38 17-49-3 0-5 1-8 6-5 11-12 28-18 52-14 53-25 164 62 188 41 11 73-6 97-32a90 90 0 0 1-87 22z" fill="#2D4552"/>
    <path d="M162 262v-22l-63 18s5-27 37-36c10-3 19-3 26-2v-92h31l-10-24c-4-9-9-3-19 6-8 6-27 19-55 27-29 8-52 6-61 4-14-2-21-5-20 5 0 9 2 23 7 42 11 40 47 118 114 100 18-4 30-14 39-26h-26zM61 188l48-12s-1 18-19 23-29-11-29-11z" fill="#E2574C"/>
    <path d="M342 129c-13 2-43 5-79-5-37-10-62-27-71-35-14-12-20-20-26-8-5 11-12 29-19 53-14 53-24 164 63 187s134-78 148-131c6-24 9-42 10-54 1-14-9-10-26-7zm-176 44s14-22 38-15c23 7 25 32 25 32l-63-17zm57 96c-41-12-47-45-47-45l110 31s-22 26-63 14zm39-68s14-21 37-14c24 6 26 32 26 32l-63-18z" fill="#2EAD33"/>
    <path d="M140 246l-41 12s5-26 35-36l-23-86-2 1c-29 8-52 6-61 4-14-2-21-5-20 5 0 9 2 23 7 42 11 40 47 118 114 100h2l-11-42zm-79-58l48-12s-1 18-19 23-29-11-29-11z" fill="#D65348"/>
    <path d="M225 269h-2c-41-12-47-45-47-45l57 16 30-116c-37-10-62-27-71-35-14-12-20-20-26-8-5 11-12 29-19 53-14 53-24 164 63 187l2 1 13-53zm-59-96s14-22 38-15c23 7 25 32 25 32l-63-17z" fill="#1D8D22"/>
    <path d="M142 245l-11 4c3 14 7 28 14 40l4-1 9-3c-8-12-13-25-16-40zm-4-102c-6 21-11 51-10 81l8-2 2-1a273 273 0 0 1 14-103l-8 5-6 20z" fill="#C04B41"/>
</svg>