<svg width="145"viewBox="0 0 123.7 17.2" xmlns="http://www.w3.org/2000/svg">
  <path d="M95.9 4.5c-1.4-.6-1.8-2-.9-3.4l.6-.9H98l.6.6.5.6v1.9l-.5.6-.4.6-1 .1-1.4-.1z" fill="#d00023"/>
  <path d="M14.3 17a2 2 0 0 0-1-.3c-.8 0-2.2-1.9-2.2-3 0-.4-.1-.8-.3-.9l-.2-1 .2-1.1c.2-.1.3-.6.3-1 0-.6.1-1 .2-1s.4-.3.7-.8c.3-.4.7-.8.9-.8l.6-.4.3-.4h2.8l1 .5c.4.2 1.2 1 1.6 1.5l.8 1v5.1h-.4c-.1.1-.3.3-.3.5 0 .5-1.4 1.7-2.2 1.9-1.7.3-2.4.4-2.8.1zm2.4-2.6c0-.2.1-.5.4-.7l.4-.3v-3.1l-.5-.8-.5-.8-.5-.1-1.3.1-.7.3-.2.8c-.2.5-.3 1.4-.3 2V13l.4.9.4.9h2.4zM28 17l-1.3-.4-.8-.1v-.8c0-.3.1-.8.3-1l.2-.4.5.3c.3.2 1.3.3 2.2.3h1.6l.4-.4.3-.3-.3-.4c-.2-.3-.5-.5-.7-.5l-1-.3-1.6-.9-1-.4-.4-1c-.6-1.2-.6-1.4 0-2.5l.4-.8 1-.5 1-.5h3.8l.3.5.5.4-.1.7v.7h-.7c-.4.1-1.1 0-1.7-.2l-1-.3-.6.5c-.4.2-.7.6-.7.8 0 .3 1.7 1.2 2.3 1.2.4 0 1.6.7 2 1.1.3.3.8 1.3 1.1 2 .1.3-.8 2-1.2 2.4-.7.7-3.6 1.2-4.8.8zm24.8 0c-.1-.1-.5-.3-.8-.3h-.6l-.8-.6c-.5-.4-.9-.9-.9-1.1 0-.2 0-.4-.2-.4s-.3-.2-.3-.4l-.3-1.3-.3-.8.4-1.7.3-1.6.7-.8c.4-.4.8-.8 1-.8l.6-.4.3-.4h3.4l.4.4.6.4c.2 0 .3.2.3.4s.2.4.4.5l.4.2v.6c0 .3.1.7.3.9l.3.3-.1 1.1v1.2h-3.2l-3.1.1v.5c0 .3.3.8.6 1.2l.6.7h2.5l2.5.1v.7l.2.8-.8.1-1.3.4c-.8.4-3 .3-3.1 0zM55 9.6l-.8-1-.6-.5-.9.5c-1.7 1-1.5 1.4.8 1.4h1.7zm19.8 7.2l-1.4-.9-.5-.5v-3l.8-1 1-.8h.5l1.7-.4 1-.3v-.4c0-.8-2.4-1-3.3-.2-.5.4-.9 0-.9-1.1v-1l.6-.5.6-.4H79.3l.4.4.6.4c.1 0 .4.2.6.5l.3.4v6l.7.6.6.7v1.2l-.7.3c-1 .6-2.4.3-3-.5l-.2-.2-.1.3-.8.2c-.4 0-.7.2-.8.3-.2.3-.8.3-2-.1zm2.7-2.4l.5-.3V12.4h-.5c-.3 0-.7.3-1 .5l-.5.6.3.6c.4.8.5.8 1.2.3zm8.1 2.4l-1.3-1.2-.7-.8-.2-1.3v-3l.2-1.5.3-.4.4-.6c0-.2.7-.9 1-.9l.6-.4.3-.4h3.1V5c0-.7.2-1.6.4-2l.3-.7h2.4l.6.2v14.3h-2.3l-2.3-.2-.6.4c-.7.4-1.3.3-2.2-.1zm3.6-3.4V8.8h-.7a2 2 0 0 0-1.2.5l-.4.4v4l.5.2c.2.2.7.2 1 .2l.7-.2zm15 3.5l-1.1-.2h-.7l-.8-.9c-.5-.4-1-1.2-1.3-1.6l-.4-.8V9.7l1-1.3c.5-.7 1-1.3 1.3-1.3l.6-.4.4-.4h4l.5.4.5.4c.3 0 1.2 1 1.2 1.2l.4.6c.8.8.8 4.7 0 5.5l-.4.6c0 .5-1.3 1.5-2.3 1.7-1.9.4-2.6.5-3 .2zm2-2.9l.6-.7v-1.5c0-.8-.2-1.7-.3-2.1l-.4-.7h-1l-1 .1-.3 1a9 9 0 0 0-.1 2.4l.1 1.5.4.4c.2.2.6.4 1 .4h.5zM0 9.4V2H7.7l.9.5c2.7 1.5 3 4.2.5 6.8l-.7.9h-.6c-.3 0-.7.1-.9.3l-.3.3-2 .1-2.2.2v2.6l-.2 2.7-1 .1H0zm7.1-1.5l.6-.6V6.1L7.4 5 7 4.7l-2.6-.2h-2v4h4.2zM22 16.5c-.1-.1-.2-3.3-.2-7V2.7l.3-.3c.4-.4 1.7-.4 2 0l.4.4-.1 6.9v6.8h-2.4zm14 0c-.1-.1-.2-3.3-.2-7V2.7l.3-.3c.4-.4 1.6-.4 2 0l.4.3v7.4l.6-.8.7-.8c.2 0 .3-.3.3-.5 0-1 1.7-2 2.6-1.4l.3.2-.3 1c-.2.5-.4 1-.6 1 0 0-.2 0-.2.2 0 .1-.3.7-.7 1.1-.6.9-.8 2-.4 2l1.1 1.4 1.5 1.8c.8 1 .7 1.2-.8 1.3h-1.3l-.6-.7c-.4-.4-.6-.8-.6-.9a4 4 0 0 0-.8-1l-.8-.8V15l-.2 1.6H36zm9-4.7v-5l.6-.2.6-.3.6.1.7.2v10H45zm15.6 4.7c-.2-.2-.2-13.4 0-14l.1-.4h7.6l.3.4.8.4h.4l.5.8.4.8v3.1l-1 1.1-1 1.2.4.8.6 1a24.7 24.7 0 0 1 2.2 3.5c.3.2.4.7.4 1v.4h-3.7l-.3-.5-.5-1.2-1.4-2.3-1-1.8h-1.5v2.9l-.2 2.8H60.5zm6.3-9.3c.8-.9.8-1 0-1.8l-.5-.7h-2.5V8H66zm28.4 9.3c-.1-.1-.2-2.3-.2-4.8V7.2l.4-.5.4-.4h2.3l.3.4.3.4v4.7l-.1 4.7H97a5 5 0 0 1-1.8 0zM113 13l-.3-.7v-8l.4-.7.3-.7h.7l.8-.1.6.4.6.4.3-.4.3-.4H118.4l.8.6.7.6.4 1c.4 1.3.5 3.2 0 3.5l-.2.6c0 .2-.2.7-.6 1l-.5.6-1.6.5-1.5.4v.6c0 .3 0 .8-.2 1l-.1.4h-2.4zm4.4-5.8l.1-1.8h-.7l-.8.2v1.8l-.1 1.8.7-.1h.7zm4.1 3.6l-.3-.1V.3l.6-.2h1.9V11h-2.2zm-76-5.3l-.5-.4V3.7l.6-.3.6-.3.6.3.6.3v1.5l-.6.4-.6.4z" fill="#fff"/>
</svg>