<svg width="115" viewBox="0 0 287.7 145.2" xmlns="http://www.w3.org/2000/svg">
  <path d="M6 45.8V20.4h5.5l5.5.2.1 2.6.1 2.5 1.7-2c1.4-1.6 2-2 3.7-3 2-.9 2.1-1 4.8-1 2.7 0 3 .1 4.6 1 3.3 1.6 5.4 4.3 6.9 8.9 1.2 3.8 1.6 6.4 1.4 10.8-.3 6.7-1.7 11-4.8 14a11.4 11.4 0 0 1-16 .5 9.4 9.4 0 0 0-1.4-1.1c-.1 0-.2 3.9-.2 8.7v8.7h-12zm19.2 1.4c2.2-1 3.3-3.8 3.3-8.4 0-4-.6-6-2.2-7.7-1.5-1.6-3.9-1.7-5.7-.4-1.9 1.4-2.9 5-2.6 9.4 0 2.2.2 2.9 1 4.3 1.4 2.9 3.7 4 6.2 2.8zm36.6 11c-10.3-1.3-19.3-10.7-19.3-20a19 19 0 0 1 4.7-12.5c2.9-2.9 7.1-4.3 10.3-3.4 1.6.4 1.7.5 1.3 1.7-.5 1.3-.5 2.9-.2 3.6.5.9 1.2.6 2-1a7 7 0 0 1 1.7-2.1c.9-.6 1.1-.6 3-.4 3.3.3 4.2.2 5.9-.6 1.3-.7 1.7-.7 3-.6 5 .6 9 5.2 10.4 11.6a14 14 0 0 1-.2 7.8c-1.4 5.5-3.2 8.5-6.7 11.2a21.7 21.7 0 0 1-15.9 4.8zm-8.5-5.6c0-.3-.6-1.2-1.4-2.2-1.8-2.2-3.3-5.1-4.3-7.9-2-5.9 0-11.8 5.3-16.2 1.2-1 2.7-2.2 3.3-2.5 1-.7 1.1-.8.8-1.1-.3-.4-.6-.3-2 0-2.8 1-4.6 2-6.4 3.8A16 16 0 0 0 43.9 37a16 16 0 0 0 7.2 15c1.7 1 2.2 1.2 2.2.6zm123.8 5.1c-1.6-.4-3.6-1.5-5-2.7-1.9-1.9-4-6.2-4.7-9.8-.9-4-.8-11 .1-14.6 1-3.7 3.2-7.2 5.8-9a11 11 0 0 1 7.2-1.9c3 .1 5 1 7.2 3 .7.6 1.4 1 1.5 1l.1-8.7V6.4h12v50.8H190v-2.6c0-1.5 0-2.7-.2-2.7-.1 0-.7.6-1.2 1.3a10.8 10.8 0 0 1-11.6 4.5zm8.8-10.4c1.1-.6 2.4-2.3 2.8-3.9.7-2 .7-7.3 0-9.2-1.2-3.6-4.4-5.2-7.2-3.6-2.4 1.5-3.6 6.3-2.7 11.6.7 4.5 3.9 6.7 7.1 5zm36 10.5c-8.8-1.5-14.6-8.9-14.6-19a20 20 0 0 1 6-15c1.9-1.6 5-3.2 7.7-3.8 3.1-.7 7.7-.4 10.7.6 4.5 1.6 7.4 4.1 9.5 8.4 1.5 3 2 5.1 2 9.7 0 4.4-.4 6.3-1.8 9.3a16.1 16.1 0 0 1-10.4 9.2c-2 .6-6.7 1-9 .6zm6.4-10.2c2.2-1.7 3.3-5 3-9.7-.1-3.5-.6-5.1-2-6.8-1.3-1.4-2.4-2-4-2-2.4 0-4.3 1.6-5.3 4.3-1.1 3-1 9.3.3 11.8s2.7 3.3 5.3 3.2c1.5 0 2-.2 2.7-.8zm-141-8.8V20.4h5.4l5.5.2.1 2.6.2 2.6 1.1-1.5c1.7-1.9 3.4-3.2 5-4 1.3-.4 2-.5 4.7-.5 3.5 0 4.1.2 6.2 1.7 1 .7 1.4 1.2 2.8 3.5l.4.7 2-2c1.5-1.5 2.6-2.4 4-3 1.7-.9 1.9-1 4.8-1 3 0 3.2.1 4.9 1 2.1 1 4 3 4.7 5 1.2 3.2 1.3 4.6 1.3 18.4v13.1h-5.9l-5.9-.1-.1-11.8c-.1-11.3-.2-11.8-.7-12.7-.9-1.5-2.1-2.2-3.6-2-1.7.1-2.6.8-3.5 2.7l-.8 1.5-.1 11.2-.2 11H108l-.1-11.6c-.2-12.8-.2-12.8-1.9-14.2-1.4-1.2-3.7-1-5.2.7-1.5 1.6-1.5 1.8-1.7 14L99 57H93l-5.9.1zm61 0V20.4h12v36.8h-12zm101.2 18V20.7l5.5-.1h5.5v2.9l.1 3 1-1.7c1-2.2 2.9-4.1 4.4-4.7 1.7-.7 4.3-.4 6.3.7l1.7.8-1 2.6a697.7 697.7 0 0 0-2.6 7.1s-.5 0-1-.3c-2.2-1-4.6-.4-5.7 1.2-1.7 2.3-2 5.3-2.3 16.3l-.2 8.8h-5.8c-4.3 0-5.8 0-5.9-.3zM148.3 11V6.4h12v9.3h-12z" fill="#d70200"/>
  <path d="M229.1 115.4V90.3h10.6v2.5c0 2.8.3 3.2 1.3 1.6.8-1.3 3-3.3 4.6-4 3-1.3 5.3-1.4 8.6-.3a14 14 0 0 1 7.4 8.7c1.2 3.4 1.5 5.7 1.5 10.4-.1 8-1.7 12.3-5.8 15.7-2.2 1.8-3.7 2.3-7.2 2.3s-5-.5-7.4-2.5l-1.8-1.3s-.2 3.8-.2 8.6v8.6h-11.6zm19.2 1.3c2-.9 2.9-3 3.2-7.2.2-2.6-.4-6-1.3-7.6a4.6 4.6 0 0 0-7-1.5c-2.6 2-3.4 9.7-1.4 13.6.8 1.8 1.3 2.3 2.7 2.9 1.2.5 2.5.5 3.8-.2zM32 127c-5-1.5-7.7-5.3-7.3-10.9.2-2.9.7-4.4 2.3-6.1 1.8-2 3.5-2.7 10-4.4 3-.7 6.6-1.8 8-2.3l2.5-1-.1-1.3c-.1-2.3-1.2-3.4-3.6-3.7-1.5-.2-3.8.3-5 1-.6.5-1.2 1.2-1.5 2-.5 1.1-.7 1.3-1.2 1.2l-5.6-.7-5-.5.4-1.9c1-3.3 2.9-5.8 5.5-7.2a29 29 0 0 1 13.7-1.7c4.2.3 6 .6 7.6 1.4 2.8 1.3 4.2 3 5.4 6.8.7 2 .7 2 .9 13.6.2 11.7.2 12.5 1.2 14.8.1.4-.2.4-5.4.4h-5.5l-.5-1.3-.4-1.8c0-.2-.1-.6-.3-.8-.1-.3-.5 0-1.8 1a14 14 0 0 1-10.5 3.7c-1.4 0-3.2-.2-3.8-.3zm11.4-7.7c1.5-.8 3-2.4 3.5-3.8.2-.7.5-2.3.6-3.7.1-2 .1-2.5-.2-2.5-1 0-8.5 2.8-9.3 3.5-1 .9-1.8 2.2-1.8 3.3 0 1 1 2.8 1.7 3.3 1.4.9 3.5.8 5.5-.1zm71.5 7.5a12 12 0 0 1-4.7-3.2 29.1 29.1 0 0 1-1.8-28c1.4-2.3 2-3 4-4.2 2.5-1.8 4.9-2.3 7.8-2 2.6.4 4.5 1.3 6.2 2.9l1.5 1.2.1-8.8V76h12v50.5H129V124c0-1.5-.1-2.7-.3-2.6l-1.4 1.7c-.7.8-1.7 2-2.3 2.4a12 12 0 0 1-10.2 1.4zm10.2-10c1.9-1.1 2.8-3.3 3-7.1.5-5.8-1.4-9.7-5-10-1.5-.3-2.3 0-3.4 1-1.5 1.3-2 3-2.2 7-.1 4.4.3 6.3 1.8 8 1.6 1.9 3.7 2.2 5.8 1zm48.6 10c-2-.5-3.3-1.3-4.5-2.6-2.1-2.4-3-5.6-2.5-9 .4-3.4 2.4-6.1 5.3-7.4 1-.4 3.9-1.3 6.6-2 2.7-.7 6.2-1.7 7.8-2.3l3-1.1v-1.1c0-1.3-.7-2.7-1.7-3.4-.6-.5-1-.6-3-.6-1.9 0-2.3.1-3.4.8-1 .6-1.4 1.1-2 2.2-.5 1.1-.7 1.3-1.3 1.2a390.2 390.2 0 0 0-10.2-1.3c-.3-.2.6-3 1.3-4.5 1.2-2.7 3.8-4.6 7.2-5.5 4.2-1 11.6-1 16.2 0 4 .9 6.6 3.5 7.8 7.8.6 2.1.6 2.7.8 13.9a64.3 64.3 0 0 0 1 14.4c0 .2-2.4.2-5.3.2h-5.3l-.5-1-.7-2.1c0-.6-.2-1-.3-1l-1.7 1.3a14 14 0 0 1-10.4 3.6 17 17 0 0 1-4.2-.5zm11.9-7.6c1.5-.8 3-2.4 3.4-4 .5-1.6.6-5.9.2-5.9-.8 0-8.3 2.8-9 3.4-1.9 1.2-2.5 3.8-1.4 5.6 1.2 1.9 4.1 2.3 6.8.9zM6 101.2V76H18v50.5H6zm60.5 7.2V90.3h10.9v3l.1 2.9 1.8-2.1c2.8-3.4 5.6-4.7 9.7-4.7 3.1 0 5 .8 7 2.7a7.6 7.6 0 0 1 2.1 3.4c1.2 3.1 1.3 4.5 1.3 18.2v12.8H87.8v-10.7c0-11-.1-12.4-1-14-.9-1.7-3.6-2.2-5.6-1.2-1.3.7-2.3 2.6-2.7 5l-.2 11.4v9.5H66.6zm81.5 0V90.3h11.7v36.2H148zm60.4 11.3v-7h12.7v13.8h-12.7zm61.3-18.4V76h11.7v50.5h-11.7zM148.1 80.6V76h11.7v9.3H148z" fill="#017600"/>
</svg>