<svg width="146" viewBox="0 0 112.94 16.93">
    <path d="M.5 14.28L0 13.9l2.4-2.64c1.33-1.45 2.4-2.7 2.4-2.8 0-.08-1.07-1.34-2.4-2.79L0 3.03l.5-.38c.27-.2 1.06-.38 1.74-.38l1.24-.01 2.78 2.9c1.52 1.58 2.77 3.07 2.77 3.3 0 .24-1.25 1.73-2.77 3.32l-2.78 2.9-1.24-.01c-.68 0-1.47-.18-1.74-.4zm12.8-2.63a38.95 38.95 0 0 1-2.85-3.2c0-.1 1.3-1.54 2.9-3.2l2.89-3h1.14c.63 0 1.4.19 1.7.41l.55.4L18.5 4.3l-2.53 2.7-1.4 1.48 1.4 1.48 2.53 2.7 1.13 1.22-.55.4c-.3.22-1.09.4-1.74.4h-1.2zm46.73 1.82l-.5-.36 2-2.15c1.09-1.19 1.98-2.3 1.98-2.47 0-.17-.9-1.28-1.99-2.46L59.53 3.9l.51-.38c1.18-.9 2.54-.38 4.33 1.65l1.19 1.36L67 4.97c1.63-1.74 2.64-2.14 3.9-1.55l.83.4-2.16 2.32-2.15 2.32 2.14 2.33 2.14 2.33-.48.36c-.26.19-.92.35-1.46.35h-.97l-1.55-1.55c-.86-.86-1.61-1.56-1.68-1.56-.07 0-.78.7-1.59 1.56l-1.47 1.55h-1c-.54 0-1.2-.16-1.47-.36zm41.2 0l-.47-.35 2.13-2.31 2.13-2.32-2.15-2.33-2.15-2.33.84-.4c1.26-.6 2.27-.2 3.85 1.54l1.4 1.54 1.42-1.54c1.6-1.74 2.62-2.14 3.87-1.54l.84.4-2.14 2.33-2.15 2.33 2.13 2.32 2.13 2.31-.48.36c-.27.19-.93.35-1.47.35h-1l-1.5-1.55a14.8 14.8 0 0 0-1.63-1.56c-.07 0-.8.7-1.63 1.56l-1.5 1.55h-1c-.54 0-1.2-.16-1.46-.35z" fill="#e57000"/>
    <path d="M3.82 16.54l-.54-.39.96-1.09c2.94-3.37 5.48-6 5.68-5.87.12.08 1.65 1.68 3.39 3.55l3.16 3.42-.68.38c-.37.2-1.1.38-1.63.38l-.94.01-1.69-1.72-1.68-1.72-1.79 1.72-1.8 1.72h-.95a3 3 0 0 1-1.5-.39zm18.55-8l.08-5.3 4.54-.07 4.54-.08.74.74c.9.9 1.17 2.16.95 4.29l-.16 1.57-.72.73-.73.73-3.25.1-3.24.09-.4.94c-.4.95-1.16 1.55-1.98 1.55h-.45zm8-.5c.1-.38.1-1.02 0-1.4l-.17-.71h-5.07v2.82h5.07zm4.35.87c0-2.7.08-5.11.18-5.36l.17-.45h8.86l.64.6c.8.75 1.16 1.7 1.16 3.1 0 1.52-.67 3-1.53 3.4l-.71.33.98 1.33c.54.74.98 1.48.98 1.65 0 .4-1.83.42-2.55.03-.3-.16-.93-.85-1.4-1.55l-.88-1.27h-3l-.17.86c-.21 1.04-1.36 2.25-2.15 2.25h-.58zm7.9-1.13c.18-.23.3-.7.24-1.06l-.1-.65-2.6-.08-2.61-.08V8.18h2.36c1.72 0 2.46-.1 2.7-.4zM47.96 13l-.83-.82V4.75l.83-.82.82-.83h7.59l.7.71c.88.87 1.07 1.76 1.07 4.93 0 2.83-.33 4.02-1.28 4.65l-.68.44h-7.4zm7.19-2.44c.09-.25.17-1.19.17-2.1 0-.9-.08-1.84-.17-2.09l-.18-.44h-5.02V11h5.02zM73.1 8.81c0-3.54.1-5.13.34-5.37.48-.48 3.35-.42 4.08.08a8.57 8.57 0 0 1 1.53 2.42L80 7.95l.93-1.93c1.22-2.53 1.71-2.92 3.72-2.92.89 0 1.76.16 1.95.34.23.24.34 1.83.34 5.37v5.02h-.68c-.42 0-.97-.34-1.42-.87l-.73-.87V9.01c0-1.7-.1-3.08-.2-3.08-.12 0-.92 1.56-1.78 3.46l-1.56 3.45h-1.09L77.9 9.4c-.86-1.9-1.65-3.46-1.77-3.46-.12 0-.21 1.38-.21 3.08v3.08l-.73.87c-.45.53-1 .87-1.41.87h-.68zM89.17 13l-.82-.83V4.75l.82-.82.83-.83h7.55l.64.6c.96.9 1.16 1.72 1.16 4.74 0 3.13-.3 4.3-1.28 4.95l-.67.44H90zm7.22-4.54v-2.4l-2.61-.08-2.61-.08v5.12l2.6-.08 2.62-.08zM7.44 5.42a292.01 292.01 0 0 1-3.2-3.55L3.28.78 3.82.4A3 3 0 0 1 5.32 0h.95l1.79 1.72 1.8 1.72 1.67-1.72L13.22 0l.94.01c.52 0 1.26.18 1.63.39l.68.37L13.3 4.2a94.04 94.04 0 0 1-3.4 3.55c-.12.08-1.23-.96-2.47-2.32z" fill="#3a3a3a"/>
</svg>