<svg width="50" viewBox="0 0 105.8 48.1">
  <path fill="#aaa" d="M46.2 47.4c-1.3-.4-5.2-1.1-8.5-1.7-3.3-.5-6.8-1.3-7.6-1.6-4-1.4-7.8-5-12-11.3-1.4-2-1.7-2.7-1.2-2.7.2 0 1.8 1 3.7 2.2C29.2 38 35 40.6 35.4 39c.1-.5-.7-1.2-3.8-3.2-2.7-1.7-3.9-2.8-3.4-3.3a47 47 0 0 1 10.5 2.7c3.8 1.3 6.8 3.8 8.3 7 1 1.8 2.1 6 1.8 5.9l-2.6-.7zm8.3-.2c1.6-6.7 4.7-10.3 10.8-12.4a138 138 0 0 1 9.6-2.6c.5 0 .2 1-.6 1.8L71.2 36c-2.6 1.6-3.6 2.5-3.4 3.1.5 1.4 6.3-1.3 14.5-6.6 3.8-2.6 5-3 4-1.5a39 39 0 0 1-11 12c-2.5 1.3-4 1.7-9 2.5-4.2.6-9.7 1.8-11 2.3-1 .3-1 .3-.8-.7zM46 34.4L42 33.2l.8-2.6.8-2.6-1.3-1.4c-.8-.8-1.6-1.8-1.8-2.3l-.5-.9-1.8.2-2.8.3c-1 .2-1.2.1-1.3-.4l-1-7.3c0-.2 1-.5 2.9-.7 2.1-.2 2.8-.4 2.9-.7l.6-1.8.6-1.3-2-1.9c-1-1-1.8-2-1.7-2.1.1-.3 6.3-5.6 6.5-5.6 0 0 1 .8 1.9 1.8l1.7 2 1.4-.5 2.3-.6c1-.1 1-.2 1.7-2.4l1-2.4c.3-.1 2.5.5 7 1.8l1.8.6-1 2.5-.8 2.5L61.2 9c.9.8 1.7 2 2 2.4.3.7.4.7 1.2.6 1.8-.3 5-.5 5-.3a177.6 177.6 0 0 0 .8 7.8c0 .1-1 .3-2.1.4-3.5.3-3.4.2-4 2.2l-.6 1.7 1.9 2c1.9 1.9 2 2 1.4 2.4l-3.4 3-2.8 2.4-1.8-2-1.8-1.9-1.7.5-2.4.5c-.5 0-.7.4-1.4 2.5l-1 2.4-4.5-1.2zM54 22c2.1-1.1 3.3-3.7 2.7-5.9a6 6 0 0 0-3-3.5c-4.4-2-9 2.5-7 6.8 1.2 2.8 4.6 4 7.3 2.6zM0 16.3V4.4h3.9c7.8 0 10.4.7 11.6 2.8.4 1 .5 1.5.5 4.8 0 4.4-.2 5-2.2 6-1 .4-1.8.6-3.8.7H7.4v9.5H0zm9.2-2c.5-.3.6-.6.6-2.6 0-2.5-.3-3-1.6-3h-.8v3c0 3 0 3 .6 3 .3 0 .9-.1 1.2-.4zm12.2 4.5l-.1-9.5h-2.2L17 9.2V4.4l8.2.1h8.1V7l.2 2.3h-4.6v19h-7.4zm51.9-2.4v-12H76l6.2.3c4.1.3 5.4.8 6.3 2.8.7 1.3.7 1.3.7 9.4 0 7.6 0 8.1-.5 9a4 4 0 0 1-1.6 1.7c-1 .5-1.6.5-7.5.6h-6.4V16.5zm8.6 7.5c.3-.4.4-1.4.4-7.5 0-7.6 0-7.7-1.4-7.7h-.7v15.6h.6c.4 0 .8-.2 1-.4zm12.8-5.2V9.2h-4V4.4h15.1v4.8h-2l-2 .1-.1 9.5-.1 9.4h-6.9z"/>
</svg>