<svg width="60" viewBox="0 0 96 96" fill="none" xmlns="http://www.w3.org/2000/svg">
    <path d="M96 0H0V96H96V0Z" fill="#333"></path>
    <path d="M64.3684 11.7122H71.7004L87.1804 48.0961H78.8764L75.5764 39.9961H60.3004L57.0004 48.0961H48.9004L64.3684 11.7122ZM72.7324 32.9761L67.9324 21.2641L63.1324 32.9761H72.7324Z" fill="white"></path>
    <path d="M42.5769 49.1761L38.6049 45.6121C35.5569 47.5681 31.8969 48.7081 27.8649 48.7081C16.7169 48.7081 8.71289 40.4041 8.71289 30.1321V30.0241C8.71289 19.7521 16.8129 11.3401 27.9609 11.3401C39.1089 11.3401 47.1129 19.6441 47.1129 29.9161V30.0241C47.1129 33.8401 45.9249 37.4041 43.9089 40.4041L47.6289 43.5481L42.5769 49.1761ZM32.7249 40.4041L26.8449 35.4001L31.8969 29.7241L37.8369 35.0881C38.4609 33.6481 38.8209 31.9441 38.8209 30.1321V30.0241C38.8209 23.8321 34.2849 18.6721 27.8769 18.6721C21.4809 18.6721 17.0409 23.7361 17.0409 29.9281V30.0361C17.0409 36.2281 21.5889 41.3881 27.9849 41.3881C29.7249 41.3881 31.3209 41.0761 32.7249 40.4041Z" fill="white"></path>
    <path d="M45 78H9V84H45V78Z" fill="white"></path>
</svg>