<svg height="42" viewBox="0 0 44.2 47" fill="none" xmlns="http://www.w3.org/2000/svg">
    <g clip-path="url(#clip0_961_2973)">
        <path d="M16.4 1.3h7.3l12.4 12.2-1 23-11.4 8.2h-7.3l-8-8.4.5-23.2z" fill="#f0f0f0" paint-order="stroke fill markers"/>
        <path d="M21.1 7.3V6h-1.4l-3 2.6.1.6a8 8 0 0 1 4.3-2z" fill="#d4de25"/>
        <path d="M16.6 8.6l2-2.6 2.5-4.7C20.1.4 18.8 0 17.5 0h-.2C14.7 0 12 1.4 11 3l3.3 3.7z" fill="#7ac143"/>
        <path d="M10.1 18.3l4-4.6c.4-1.4 1-2.6 1.8-3.6l.7-1.5L11 3.1l-.9 7z" fill="#00a64c"/>
        <path d="M10.1 18.3L7.6 15 4 12c-2.6 1.1-3.9 5.1-4 9.1l6-1.3 4.1-1.5z" fill="#00733d"/>
        <path d="M18.8 19.5l-1 1.3a1 1 0 0 0 1-1.3zm-2.2 3.1l-1.2 2.2h2.4a1 1 0 0 0 0-2.2zm-1.3 4l1.7 2.1.2.1h.6c.6 0 1-.5 1-1 0-.6-.4-1.1-1-1.1z" fill="#faa41a"/>
        <path d="M21.1 37.8v-1.6a8 8 0 0 1-5.2-2.8l-1.4.7.8 1a9.6 9.6 0 0 0 5.8 2.7zm-7.8-3l1 1.2a11 11 0 0 0 4.3 2.7l-2.4-.5-5-2.2z" fill="#ca2026"/>
        <path d="M17.9 28.8l-2.5-2.1H15l-.5-.2-1.8 3.4c.3 1.7 1.1 3.3 2.2 4.5l1.5-.6c-1.3-1.3-2.1-3-2.3-5h3.8zm-6 3.6c.4 1 1 1.8 1.5 2.6l-2.3 1 .8-3.6z" fill="#ed1c24"/>
        <path d="M14 25.7l-5-2.3L0 21c0 4 1 8.2 3.4 9.4l6.1-1.3c.1-.2.3-.4.6-.4l4-2.5a1 1 0 0 1 0-.6z" fill="#ef6323"/>
        <path d="M11.1 36l-3-3-4.7-2.5c-1 2-1 4.3-.3 6.3h4.1l4-.8z" fill="#ed1c24"/>
        <path d="M17 46.9L14 40.3l-3-4.3-1 3.6v3.8c.5 2.7 3.9 4 6.8 3.5z" fill="#a21b1f"/>
        <path d="M16.6 37.8L11 36 17 47c1.4-.3 2.7-1 3.5-2.1V39c-1.4-.2-2.7-.7-3.8-1.3z" fill="#b71e23"/>
        <path d="M10.1 43.4l1-7.4-8 .8c1.2 3.4 4.2 6.2 7 6.6z" fill="#b71e23"/>
        <path d="M11.1 36l1-3-.8-2.8H10a.7.7 0 0 1 0-1.4h2.4c0 .8.2 1.5.4 2.2l1.6-4.5a1 1 0 0 1-.4-.3L3.4 30.5z" fill="#ec3824"/>
        <path d="M15.5 24.8l1.5-2.2h-2a1 1 0 0 1-1-.9c0-.5.4-1 1-1h2.8a1 1 0 0 0 0-2h-2.9a1 1 0 0 1-.8-1.3l-4 1 1.5 3.4 2.5 3.5c.2-.3.5-.5.8-.5z" fill="#f8bc16"/>
        <path d="M14.2 25.2l-4-6.9L0 21.1l14 4.7c0-.3 0-.5.2-.6z" fill="#f38920"/>
        <path d="M10.1 18.3l1-15.2c-2.2-.2-7.5 3.3-7 9l6 6.2z" fill="#008945"/>
        <path d="M21.1 6V1.3l-4.5 7.3z" fill="#a1cd3a"/>
        <path d="M17 9.1l-.4-.5-6.5 9.7 4-.5v-.1c0-.5.3-1 .8-1h2.9a1 1 0 0 0 0-2H14A8.2 8.2 0 0 1 17 9z" fill="#ffcd03"/>
        <path d="M23 7.3V6h1.5l3 2.6-.1.6a8 8 0 0 0-4.4-2zM27.5 8.6l-2-2.6L23 1.3C24 .4 25.4 0 26.7 0h.2c2.5 0 5.2 1.4 6.3 3l-3.3 3.7z" fill="#203f82"/>
        <path d="M34 18.3l-4-4.6c-.3-1.4-.9-2.6-1.8-3.7l-.7-1.4 5.7-5.5.8 7z" fill="#0057a8"/>
        <path d="M34 18.3l2.6-3.3 3.6-3c2.6 1.1 3.9 5.1 4 9.1l-6-1.3-4.2-1.5z" fill="#0098d6"/>
        <path d="M25.4 19.6l1 1.2a1 1 0 0 1-1-1.1v-.1zm2.1 3l1.3 2.2h-2.4a1 1 0 0 1 0-2.2h1.1zm1.4 4l-1.7 2.1-.2.1h-.6a1 1 0 0 1 0-2.1H29z" fill="#ec008c"/>
        <path d="M23 37.8v-1.6a8 8 0 0 0 5.3-2.8l1.4.8a9.8 9.8 0 0 1-6.7 3.6zm7.9-3l-1 1.2a11 11 0 0 1-4.3 2.7l2.3-.5 5.2-2.2z" fill="#a91f6a"/>
        <path d="M26.3 28.8l2.5-2.1h.5l.5-.2 1.8 3.5c-.4 1.6-1.1 3.2-2.2 4.4l-1.5-.6c1.3-1.3 2.1-3 2.3-5h-3.8-.1zm6 3.6c-.4 1-1 1.8-1.5 2.6l2.3 1-.8-3.6z" fill="#de0a86"/>
        <path d="M30.2 25.7l5-2.3 9-2.3c0 4-1 8.2-3.4 9.4l-6.1-1.3a.7.7 0 0 0-.6-.4L30 26.3l.2-.6z" fill="#a91f6a"/>
        <path d="M33 36l3.1-3 4.7-2.5c1 2 1 4.3.3 6.3H37l-4-.8z" fill="#be1d71"/>
        <path d="M27.2 46.9l2.9-6.6 3-4.3 1 3.6v3.8c-.5 2.7-4 4-6.9 3.5z" fill="#781651"/>
        <path d="M27.7 37.7L33 36 27.2 47c-1.4-.3-2.7-1-3.5-2.2v-5.6c1.4-.2 2.8-.7 4-1.4z" fill="#4a0631"/>
        <path d="M34 43.4L33 36l8 .8C40 40.2 37 43 34 43.4z" fill="#a91f6a"/>
        <path d="M33 36l-1-3 1-2.8H34c.4 0 .7-.3.7-.7 0-.4-.3-.7-.7-.7h-2.4c0 .8-.2 1.5-.4 2.2l-1.6-4.5.4-.3 10.7 4.3z" fill="#c7187f"/>
        <path d="M28.7 24.8L27 22.6h2.2c.5 0 .9-.4.9-.9s-.4-1-1-1h-2.8a1 1 0 0 1 0-2.2h2.9a1 1 0 0 0 .8-1.1l4 1-1.6 3.4-2.4 3.4a1 1 0 0 0-.8-.4h-.6z" fill="#0057a8"/>
        <path d="M30 25.2l4-6.9 10.2 2.8-14 4.7c0-.3 0-.5-.2-.6z" fill="#006db7"/>
        <path d="M34 18.3l-.8-15.2c2-.2 7.4 3.3 7 9L34 18.2z" fill="#0088cb"/>
        <path d="M23 6V1.3l4.5 7.3z" fill="#233676"/>
        <path d="M27.3 9.1l.2-.5 6.5 9.7-3.8-.5v-.1c0-.5-.4-1-1-1h-2.8a1 1 0 0 1 0-2.1h3.8a8.2 8.2 0 0 0-3-5.5z" fill="#0061af"/>
    </g>
    <defs id="defs47">
        <clipPath id="clip0_961_2973">
            <path fill="#fff" d="M0 0h153v47H0z"/>
        </clipPath>
    </defs>
</svg>