<svg width="65" height="26" viewBox="0 0 26.6069 10" xmlns="http://www.w3.org/2000/svg">
    <rect fill="#ddd" x="-1" y="-1" mask="url(#mask)" width="120%" height="120%" ></rect>
    <mask id="mask">
        <rect x="-1" y="-1" width="120%" height="120%" fill="white"  ></rect>
        <path fill="#333" d="m26.2752 2.96218c0.218514 0.622131 0.329259 1.33 0.331722 2.12384v0.42319c-9.93e-4 0.119066-0.0068 0.232224-0.01784 0.339772h-6.47534c0.02375 0.264135 0.09868 0.503277 0.224241 0.717052 0.125557 0.214118 0.286878 0.399457 0.484275 0.556555 0.197221 0.157452 0.418404 0.280174 0.663728 0.36797 0.244959 0.08818 0.499145 0.132075 0.762233 0.132075 0.466334 0 0.860952-0.09105 1.18392-0.273501 0.322791-0.182293 0.585701-0.418188 0.789106-0.707546l2.04486 1.35837c-0.418755 0.641487-0.971635 1.13542-1.65912 1.48126-0.687825 0.345667-1.48598 0.518777-2.39466 0.518777-0.66971 0-1.30349-0.11031-1.90135-0.330194-0.598027-0.219897-1.12096-0.540727-1.56949-0.962329-0.446329-0.419349-0.798041-0.935392-1.05468-1.54823l2.48547-6.78045c0.0163-0.0068 0.03265-0.01365 0.04906-0.02035 0.585707-0.238783 1.21967-0.358445 1.90134-0.358445 0.657543 0 1.26157 0.116431 1.8117 0.348912 0.549794 0.233019 1.02243 0.56932 1.4169 1.00946 0.394656 0.44049 0.702401 0.975096 0.923925 1.60382zm-6.16144 0.962314h3.78471c0-0.490523-0.146596-0.911941-0.439456-1.26408-0.293198-0.352143-0.732669-0.5283-1.31836-0.5283-0.287041 0-0.550129 0.047142-0.789284 0.141427-0.239302 0.094298-0.448348 0.223497-0.627789 0.386873-0.179249 0.163574-0.322792 0.355388-0.430392 0.575456-0.107764 0.220253-0.167626 0.449843-0.179426 0.688629zm-4.73781 3.23476-1.81297-5.77567-0.37507-1.20347h4.46955l-1.10949 3.39915zm-7.15653-6.97915h2.21873l3.49306 9.70651h-2.49259l-2.13742-6.88216h-0.05201l-2.1244 6.88216h-2.46328l3.51609-9.5924 0.04189-0.113952h-1.63e-4zm-3.09853 2.71032c-0.126927-0.01241-0.250941-0.01909-0.371539-0.01907-0.39875 0-0.73403 0.07629-1.00584 0.228159-0.271819 0.152239-0.489246 0.336131-0.652426 0.551339-0.163033 0.215746-0.280885 0.450211-0.353247 0.703564-0.07253 0.253537-0.108802 0.47522-0.108802 0.665233v4.86702h-2.62903v-9.48212h2.52024v1.37258h0.03626c0.229392-0.486202 0.555606-0.882965 0.978641-1.18994 0.42269-0.307169 0.912097-0.460838 1.46787-0.460838 0.120599 0 0.238466 0.0065 0.35342 0.01909 0.114779 0.01277 0.208348 0.03184 0.280872 0.05722l-0.126755 2.76405c-0.133075-0.03815-0.262744-0.06334-0.389676-0.07629z"  ></path>
    </mask>
    <path fill="#666" pointer-events="bounding-box" d="m26.2752 2.96218c0.218514 0.622131 0.329259 1.33 0.331722 2.12384v0.42319c-9.93e-4 0.119066-0.0068 0.232224-0.01784 0.339772h-6.47534c0.02375 0.264135 0.09868 0.503277 0.224241 0.717052 0.125557 0.214118 0.286878 0.399457 0.484275 0.556555 0.197221 0.157452 0.418404 0.280174 0.663728 0.36797 0.244959 0.08818 0.499145 0.132075 0.762233 0.132075 0.466334 0 0.860952-0.09105 1.18392-0.273501 0.322791-0.182293 0.585701-0.418188 0.789106-0.707546l2.04486 1.35837c-0.418755 0.641487-0.971635 1.13542-1.65912 1.48126-0.687825 0.345667-1.48598 0.518777-2.39466 0.518777-0.66971 0-1.30349-0.11031-1.90135-0.330194-0.598027-0.219897-1.12096-0.540727-1.56949-0.962329-0.446329-0.419349-0.798041-0.935392-1.05468-1.54823l2.48547-6.78045c0.0163-0.0068 0.03265-0.01365 0.04906-0.02035 0.585707-0.238783 1.21967-0.358445 1.90134-0.358445 0.657543 0 1.26157 0.116431 1.8117 0.348912 0.549794 0.233019 1.02243 0.56932 1.4169 1.00946 0.394656 0.44049 0.702401 0.975096 0.923925 1.60382zm-6.16144 0.962314h3.78471c0-0.490523-0.146596-0.911941-0.439456-1.26408-0.293198-0.352143-0.732669-0.5283-1.31836-0.5283-0.287041 0-0.550129 0.047142-0.789284 0.141427-0.239302 0.094298-0.448348 0.223497-0.627789 0.386873-0.179249 0.163574-0.322792 0.355388-0.430392 0.575456-0.107764 0.220253-0.167626 0.449843-0.179426 0.688629zm-4.73781 3.23476-1.81297-5.77567-0.37507-1.20347h4.46955l-1.10949 3.39915zm-7.15653-6.97915h2.21873l3.49306 9.70651h-2.49259l-2.13742-6.88216h-0.05201l-2.1244 6.88216h-2.46328l3.51609-9.5924 0.04189-0.113952h-1.63e-4zm-3.09853 2.71032c-0.126927-0.01241-0.250941-0.01909-0.371539-0.01907-0.39875 0-0.73403 0.07629-1.00584 0.228159-0.271819 0.152239-0.489246 0.336131-0.652426 0.551339-0.163033 0.215746-0.280885 0.450211-0.353247 0.703564-0.07253 0.253537-0.108802 0.47522-0.108802 0.665233v4.86702h-2.62903v-9.48212h2.52024v1.37258h0.03626c0.229392-0.486202 0.555606-0.882965 0.978641-1.18994 0.42269-0.307169 0.912097-0.460838 1.46787-0.460838 0.120599 0 0.238466 0.0065 0.35342 0.01909 0.114779 0.01277 0.208348 0.03184 0.280872 0.05722l-0.126755 2.76405c-0.133075-0.03815-0.262744-0.06334-0.389676-0.07629z"  ></path>
</svg>