<svg width="140" height="25.124" viewBox="0 0 5706 1024" fill="none" xmlns="http://www.w3.org/2000/svg">
    <path d="M1102.61 512C1102.61 447.297 1021.62 385.979 897.455 347.954C926.109 221.336 913.374 120.6 857.26 88.3478C844.326 80.7826 829.203 77.1991 812.688 77.1991V121.595C821.841 121.595 829.204 123.387 835.372 126.771C862.434 142.3 874.174 201.428 865.021 277.478C862.832 296.192 859.25 315.902 854.872 336.009C815.872 326.453 773.289 319.087 728.518 314.309C701.655 277.478 673.797 244.032 645.741 214.767C710.609 154.444 771.498 121.396 812.887 121.396V77C758.166 77 686.532 116.021 614.102 183.709C541.672 116.419 470.038 77.7963 415.317 77.7963V122.192C456.507 122.192 517.595 155.041 582.464 214.966C554.606 244.231 526.748 277.478 500.283 314.309C455.313 319.087 412.731 326.453 373.73 336.208C369.153 316.3 365.77 296.989 363.383 278.474C354.03 202.423 365.571 143.295 392.434 127.568C398.404 123.984 406.164 122.391 415.317 122.391V77.9954C398.603 77.9954 383.48 81.5789 370.347 89.1442C314.433 121.396 301.897 221.934 330.749 348.153C206.981 386.378 126.393 447.497 126.393 512C126.393 576.703 207.379 638.021 331.545 676.046C302.892 802.664 315.626 903.4 371.74 935.652C384.674 943.217 399.797 946.801 416.511 946.801C471.232 946.801 542.866 907.78 615.296 840.091C687.726 907.382 759.36 946.005 814.081 946.005C830.795 946.005 845.918 942.421 859.051 934.856C914.966 902.604 927.501 802.066 898.649 675.847C1022.02 637.821 1102.61 576.503 1102.61 512ZM843.53 379.211C836.168 404.892 827.015 431.371 816.668 457.849C808.509 441.922 799.953 425.995 790.601 410.069C781.447 394.142 771.697 378.613 761.947 363.483C790.203 367.664 817.463 372.84 843.53 379.211ZM752.396 591.236C736.875 618.112 720.956 643.595 704.441 667.286C674.792 669.874 644.746 671.268 614.5 671.268C584.454 671.268 554.407 669.874 524.957 667.485C508.442 643.794 492.324 618.51 476.803 591.833C461.681 565.753 447.951 539.275 435.415 512.597C447.752 485.92 461.681 459.243 476.604 433.162C492.125 406.286 508.044 380.803 524.559 357.112C554.208 354.524 584.255 353.13 614.5 353.13C644.547 353.13 674.593 354.524 704.043 356.913C720.558 380.604 736.676 405.888 752.197 432.565C767.32 458.645 781.049 485.124 793.585 511.801C781.049 538.478 767.32 565.156 752.396 591.236ZM816.668 565.355C827.413 592.032 836.566 618.709 844.127 644.59C818.06 650.961 790.601 656.336 762.146 660.517C771.896 645.188 781.646 629.46 790.8 613.334C799.953 597.407 808.509 581.281 816.668 565.355ZM614.898 777.778C596.393 758.666 577.887 737.364 559.581 714.071C577.489 714.867 595.796 715.465 614.301 715.465C633.006 715.465 651.511 715.066 669.619 714.071C651.71 737.364 633.205 758.666 614.898 777.778ZM466.854 660.517C438.598 656.336 411.338 651.16 385.271 644.789C392.633 619.108 401.786 592.629 412.134 566.151C420.292 582.078 428.848 598.005 438.2 613.931C447.553 629.858 457.104 645.387 466.854 660.517ZM613.903 246.222C632.409 265.334 650.914 286.636 669.221 309.929C651.312 309.133 633.006 308.535 614.5 308.535C595.796 308.535 577.29 308.934 559.183 309.929C577.091 286.636 595.597 265.334 613.903 246.222ZM466.655 363.483C456.905 378.812 447.155 394.54 438.001 410.666C428.848 426.593 420.292 442.519 412.134 458.446C401.388 431.769 392.235 405.092 384.674 379.211C410.741 373.039 438.201 367.664 466.655 363.483ZM286.575 612.737C216.135 582.675 170.567 543.256 170.567 512C170.567 480.744 216.135 441.126 286.575 411.263C303.687 403.897 322.392 397.327 341.693 391.156C353.035 430.176 367.959 470.789 386.465 512.398C368.158 553.808 353.433 594.222 342.29 633.043C322.591 626.872 303.886 620.103 286.575 612.737ZM393.628 897.229C366.566 881.7 354.826 822.572 363.98 746.522C366.168 727.808 369.75 708.098 374.128 687.991C413.129 697.547 455.711 704.913 500.482 709.691C527.345 746.522 555.203 779.968 583.26 809.233C518.391 869.556 457.502 902.604 416.113 902.604C407.159 902.405 399.598 900.613 393.628 897.229ZM865.618 745.526C874.97 821.577 863.429 880.705 836.566 896.432C830.596 900.016 822.836 901.609 813.683 901.609C772.493 901.609 711.405 868.76 646.537 808.835C674.394 779.57 702.252 746.323 728.717 709.492C773.687 704.714 816.27 697.348 855.27 687.593C859.847 707.7 863.429 727.011 865.618 745.526ZM942.226 612.737C925.114 620.103 906.409 626.673 887.108 632.844C875.766 593.824 860.842 553.21 842.336 511.602C860.643 470.192 875.368 429.778 886.511 390.957C906.21 397.128 924.915 403.897 942.425 411.263C1012.87 441.325 1058.43 480.744 1058.43 512C1058.23 543.256 1012.67 582.874 942.226 612.737Z" fill="white"/>
    <g clip-path="url(#clip0)">
        <path d="M614.501 536.579L539.625 513.533V536.206V552.023C539.625 569.817 573.159 584.244 614.523 584.244C655.885 584.244 689.425 569.817 689.425 552.023C689.425 551.883 689.379 551.742 689.376 551.605V513.533L614.501 536.579Z" fill="white"/>
        <path d="M489 487.038L515.749 496.607L518.029 491.725L527.856 490.889L529.257 492.347L520.824 494.347L519.595 497.984C519.593 497.984 500.548 537.801 503.345 557.279C503.345 557.279 515.233 564.37 527.116 557.279L530.274 504.023V499.59L547.963 495.6L546.713 498.676L533.525 502.965L539.625 505.144L614.5 528.19L689.376 505.144L740 487.038L614.5 438.755L489 487.038Z" fill="white"/>
    </g>
    <path d="M1386.62 512.305C1392.35 513.477 1397.29 516.211 1401.46 520.508C1405.76 524.674 1410.97 532.878 1417.09 545.117L1469.82 650H1406.54L1371.38 576.367C1370.34 574.284 1368.97 571.419 1367.28 567.773C1356.99 545.768 1344.89 534.766 1330.95 534.766H1312.59V650H1254.98V358.398H1338.18C1375.68 358.398 1402.57 365.039 1418.84 378.32C1435.25 391.602 1443.45 413.216 1443.45 443.164C1443.45 463.216 1438.57 479.167 1428.8 491.016C1419.04 502.865 1404.98 509.961 1386.62 512.305ZM1312.59 406.836V486.328H1339.74C1355.5 486.328 1366.76 483.268 1373.53 477.148C1380.43 470.898 1383.88 460.677 1383.88 446.484C1383.88 432.292 1380.5 422.135 1373.73 416.016C1366.96 409.896 1355.63 406.836 1339.74 406.836H1312.59ZM1673.25 639.258C1659.97 644.727 1646.43 648.828 1632.62 651.562C1618.82 654.297 1604.24 655.664 1588.88 655.664C1552.29 655.664 1524.29 645.898 1504.89 626.367C1485.62 606.706 1475.98 578.451 1475.98 541.602C1475.98 505.924 1485.29 477.734 1503.91 457.031C1522.53 436.328 1547.92 425.977 1580.09 425.977C1612.51 425.977 1637.64 435.612 1655.48 454.883C1673.45 474.023 1682.43 501.042 1682.43 535.938V559.18H1534.19C1534.32 576.367 1539.4 589.193 1549.42 597.656C1559.45 606.12 1574.42 610.352 1594.34 610.352C1607.49 610.352 1620.45 608.464 1633.21 604.688C1645.97 600.911 1659.32 594.922 1673.25 586.719V639.258ZM1624.81 516.211C1624.55 501.107 1620.65 489.714 1613.09 482.031C1605.67 474.219 1594.67 470.312 1580.09 470.312C1566.93 470.312 1556.45 474.349 1548.64 482.422C1540.83 490.365 1536.21 501.693 1534.77 516.406L1624.81 516.211ZM1823.75 547.266C1802.4 547.266 1787.49 550 1779.02 555.469C1770.56 560.938 1766.33 570.312 1766.33 583.594C1766.33 593.49 1769.26 601.367 1775.12 607.227C1780.98 613.086 1788.92 616.016 1798.95 616.016C1814.05 616.016 1825.77 610.352 1834.1 599.023C1842.43 587.565 1846.6 571.615 1846.6 551.172V547.266H1823.75ZM1903.44 525.195V650H1846.6V625.586C1839.7 635.221 1830.85 642.643 1820.04 647.852C1809.23 653.06 1797.32 655.664 1784.3 655.664C1759.43 655.664 1740.03 649.089 1726.09 635.938C1712.29 622.786 1705.39 604.427 1705.39 580.859C1705.39 555.339 1713.66 536.523 1730.2 524.414C1746.73 512.174 1772.32 506.055 1806.95 506.055H1846.6V496.484C1846.6 487.24 1843.22 480.273 1836.45 475.586C1829.8 470.768 1819.97 468.359 1806.95 468.359C1793.28 468.359 1780 470.117 1767.11 473.633C1754.35 477.018 1741 482.487 1727.07 490.039V441.211C1739.7 436.003 1752.53 432.161 1765.55 429.688C1778.57 427.214 1792.37 425.977 1806.95 425.977C1842.5 425.977 1867.43 433.203 1881.76 447.656C1896.21 462.109 1903.44 487.956 1903.44 525.195ZM2123.27 638.867C2113.64 644.466 2103.29 648.633 2092.22 651.367C2081.15 654.232 2069.24 655.664 2056.48 655.664C2022.75 655.664 1996.39 645.508 1977.38 625.195C1958.36 604.883 1948.86 576.758 1948.86 540.82C1948.86 504.753 1958.43 476.562 1977.57 456.25C1996.71 435.807 2023.14 425.586 2056.87 425.586C2068.59 425.586 2079.85 426.953 2090.66 429.688C2101.59 432.422 2112.47 436.654 2123.27 442.383V494.727C2114.94 487.565 2105.76 482.096 2095.73 478.32C2085.84 474.414 2075.55 472.461 2064.88 472.461C2046.26 472.461 2031.93 478.385 2021.91 490.234C2011.88 502.083 2006.87 518.945 2006.87 540.82C2006.87 562.695 2011.88 579.492 2021.91 591.211C2031.93 602.93 2046.26 608.789 2064.88 608.789C2075.94 608.789 2086.29 606.966 2095.93 603.32C2105.57 599.544 2114.68 593.88 2123.27 586.328V638.867ZM2279.83 369.141V431.25H2354.63V475.195H2279.83V578.711C2279.83 588.477 2282.17 595.508 2286.86 599.805C2291.68 603.971 2299.62 606.055 2310.69 606.055H2354.63V650H2306.59C2273.77 650 2251.57 644.792 2239.98 634.375C2228.4 623.828 2222.6 604.362 2222.6 575.977V475.195H2166.74V431.25H2222.6V369.141H2279.83ZM2626.34 358.398H2688.25L2769.5 570.312V358.398H2820.28V650H2758.76L2677.12 438.086V650H2626.34V358.398ZM2968.83 547.266C2947.47 547.266 2932.57 550 2924.1 555.469C2915.64 560.938 2911.41 570.312 2911.41 583.594C2911.41 593.49 2914.34 601.367 2920.2 607.227C2926.05 613.086 2934 616.016 2944.02 616.016C2959.13 616.016 2970.85 610.352 2979.18 599.023C2987.51 587.565 2991.68 571.615 2991.68 551.172V547.266H2968.83ZM3048.52 525.195V650H2991.68V625.586C2984.78 635.221 2975.92 642.643 2965.12 647.852C2954.31 653.06 2942.4 655.664 2929.38 655.664C2904.51 655.664 2885.1 649.089 2871.17 635.938C2857.37 622.786 2850.47 604.427 2850.47 580.859C2850.47 555.339 2858.74 536.523 2875.27 524.414C2891.81 512.174 2917.4 506.055 2952.03 506.055H2991.68V496.484C2991.68 487.24 2988.29 480.273 2981.52 475.586C2974.88 470.768 2965.05 468.359 2952.03 468.359C2938.36 468.359 2925.08 470.117 2912.19 473.633C2899.43 477.018 2886.08 482.487 2872.15 490.039V441.211C2884.78 436.003 2897.6 432.161 2910.62 429.688C2923.65 427.214 2937.45 425.977 2952.03 425.977C2987.58 425.977 3012.51 433.203 3026.84 447.656C3041.29 462.109 3048.52 487.956 3048.52 525.195ZM3195.89 369.141V431.25H3270.7V475.195H3195.89V578.711C3195.89 588.477 3198.23 595.508 3202.92 599.805C3207.74 603.971 3215.68 606.055 3226.75 606.055H3270.7V650H3222.65C3189.84 650 3167.64 644.792 3156.05 634.375C3144.46 623.828 3138.66 604.362 3138.66 575.977V475.195H3082.8V431.25H3138.66V369.141H3195.89ZM3333.3 431.25H3446.59V606.055H3517.68V650H3318.07V606.055H3389.36V475.195H3333.3V431.25ZM3389.36 324.805H3446.59V391.602H3389.36V324.805ZM3744.35 431.25L3674.82 650H3604.31L3534.78 431.25H3592.79L3639.47 601.953L3686.34 431.25H3744.35ZM3963.41 639.258C3950.12 644.727 3936.58 648.828 3922.78 651.562C3908.98 654.297 3894.4 655.664 3879.03 655.664C3842.44 655.664 3814.45 645.898 3795.05 626.367C3775.78 606.706 3766.14 578.451 3766.14 541.602C3766.14 505.924 3775.45 477.734 3794.07 457.031C3812.69 436.328 3838.08 425.977 3870.24 425.977C3902.66 425.977 3927.79 435.612 3945.63 454.883C3963.6 474.023 3972.59 501.042 3972.59 535.938V559.18H3824.34C3824.47 576.367 3829.55 589.193 3839.58 597.656C3849.6 606.12 3864.58 610.352 3884.5 610.352C3897.65 610.352 3910.61 608.464 3923.37 604.688C3936.13 600.911 3949.47 594.922 3963.41 586.719V639.258ZM3914.97 516.211C3914.71 501.107 3910.8 489.714 3903.25 482.031C3895.83 474.219 3884.83 470.312 3870.24 470.312C3857.09 470.312 3846.61 474.349 3838.8 482.422C3830.98 490.365 3826.36 501.693 3824.93 516.406L3914.97 516.211ZM4305.81 522.07C4276.78 511.003 4257.11 499.414 4246.83 487.305C4236.54 475.065 4231.4 458.659 4231.4 438.086C4231.4 411.654 4239.86 390.885 4256.79 375.781C4273.72 360.677 4296.96 353.125 4326.52 353.125C4339.93 353.125 4353.34 354.688 4366.75 357.812C4380.16 360.807 4393.44 365.299 4406.59 371.289V427.539C4394.22 418.815 4381.66 412.174 4368.9 407.617C4356.14 403.06 4343.51 400.781 4331.01 400.781C4317.08 400.781 4306.4 403.581 4298.98 409.18C4291.55 414.779 4287.84 422.786 4287.84 433.203C4287.84 441.276 4290.51 447.982 4295.85 453.32C4301.32 458.529 4312.65 464.323 4329.84 470.703L4354.64 480.078C4378.08 488.672 4395.33 500.065 4406.4 514.258C4417.47 528.451 4423 546.354 4423 567.969C4423 597.396 4414.28 619.401 4396.83 633.984C4379.51 648.438 4353.27 655.664 4318.12 655.664C4303.66 655.664 4289.15 653.906 4274.56 650.391C4260.11 647.005 4246.11 641.927 4232.57 635.156V575.586C4247.93 586.523 4262.78 594.661 4277.1 600C4291.55 605.339 4305.81 608.008 4319.88 608.008C4334.07 608.008 4345.07 604.818 4352.88 598.438C4360.7 591.927 4364.6 582.878 4364.6 571.289C4364.6 562.565 4362 554.948 4356.79 548.438C4351.58 541.797 4344.03 536.589 4334.13 532.812L4305.81 522.07ZM4642.45 638.867C4632.81 644.466 4622.46 648.633 4611.39 651.367C4600.32 654.232 4588.41 655.664 4575.65 655.664C4541.92 655.664 4515.56 645.508 4496.55 625.195C4477.54 604.883 4468.03 576.758 4468.03 540.82C4468.03 504.753 4477.6 476.562 4496.74 456.25C4515.88 435.807 4542.32 425.586 4576.04 425.586C4587.76 425.586 4599.02 426.953 4609.83 429.688C4620.77 432.422 4631.64 436.654 4642.45 442.383V494.727C4634.11 487.565 4624.93 482.096 4614.91 478.32C4605.01 474.414 4594.72 472.461 4584.05 472.461C4565.43 472.461 4551.1 478.385 4541.08 490.234C4531.05 502.083 4526.04 518.945 4526.04 540.82C4526.04 562.695 4531.05 579.492 4541.08 591.211C4551.1 602.93 4565.43 608.789 4584.05 608.789C4595.11 608.789 4605.47 606.966 4615.1 603.32C4624.74 599.544 4633.85 593.88 4642.45 586.328V638.867ZM4873.41 508.008V650H4816.58V516.797C4816.58 501.042 4814.3 489.779 4809.74 483.008C4805.32 476.237 4798.02 472.852 4787.87 472.852C4777.45 472.852 4769.31 477.474 4763.45 486.719C4757.59 495.833 4754.66 508.529 4754.66 524.805V650H4697.83V346.094H4754.66V464.062C4758.7 451.953 4765.6 442.578 4775.37 435.938C4785.13 429.297 4796.92 425.977 4810.72 425.977C4831.42 425.977 4847.05 432.878 4857.59 446.68C4868.14 460.352 4873.41 480.794 4873.41 508.008ZM5013.56 472.461C4999.89 472.461 4989.15 478.516 4981.34 490.625C4973.52 502.604 4969.62 519.336 4969.62 540.82C4969.62 562.305 4973.52 579.102 4981.34 591.211C4989.15 603.19 4999.89 609.18 5013.56 609.18C5027.36 609.18 5038.17 603.19 5045.98 591.211C5053.8 579.102 5057.7 562.305 5057.7 540.82C5057.7 519.336 5053.8 502.604 5045.98 490.625C5038.17 478.516 5027.36 472.461 5013.56 472.461ZM4912.39 540.82C4912.39 505.534 4921.51 477.604 4939.73 457.031C4958.09 436.328 4982.7 425.977 5013.56 425.977C5044.55 425.977 5069.16 436.328 5087.39 457.031C5105.75 477.604 5114.93 505.534 5114.93 540.82C5114.93 576.107 5105.75 604.102 5087.39 624.805C5069.16 645.378 5044.55 655.664 5013.56 655.664C4982.7 655.664 4958.09 645.378 4939.73 624.805C4921.51 604.102 4912.39 576.107 4912.39 540.82ZM5242.58 472.461C5228.91 472.461 5218.16 478.516 5210.35 490.625C5202.54 502.604 5198.63 519.336 5198.63 540.82C5198.63 562.305 5202.54 579.102 5210.35 591.211C5218.16 603.19 5228.91 609.18 5242.58 609.18C5256.38 609.18 5267.19 603.19 5275 591.211C5282.81 579.102 5286.72 562.305 5286.72 540.82C5286.72 519.336 5282.81 502.604 5275 490.625C5267.19 478.516 5256.38 472.461 5242.58 472.461ZM5141.41 540.82C5141.41 505.534 5150.52 477.604 5168.75 457.031C5187.11 436.328 5211.72 425.977 5242.58 425.977C5273.57 425.977 5298.18 436.328 5316.41 457.031C5334.77 477.604 5343.95 505.534 5343.95 540.82C5343.95 576.107 5334.77 604.102 5316.41 624.805C5298.18 645.378 5273.57 655.664 5242.58 655.664C5211.72 655.664 5187.11 645.378 5168.75 624.805C5150.52 604.102 5141.41 576.107 5141.41 540.82ZM5426.87 558.789V390.039H5368.86V346.094H5484.09V558.789C5484.09 575.977 5486.76 588.151 5492.1 595.312C5497.44 602.474 5506.49 606.055 5519.25 606.055H5564.95V650H5503.23C5476.02 650 5456.49 642.969 5444.64 628.906C5432.79 614.844 5426.87 591.471 5426.87 558.789Z" fill="white"/>
    <defs>
        <clipPath id="clip0">
            <rect width="251" height="251" fill="white" transform="translate(489 386)"/>
        </clipPath>
    </defs>
</svg>