<svg width="130" viewBox="0 0 35.3 10.6">
  <path d="M1.2 8.9c-.6-.4-.8-.6-1-1C0 7.3 0 7.2 0 5.3V3c.2-.4.6-.9 1.3-1.3a153.7 153.7 0 0 0 1.2-.5v.3c-.1 0-.1.1 0 .1v.2l-.2.2-.2.2-.2.2h-.1c-.2 0-.8.5-1 .8v2.2c0 2.2 0 2.3.7 2.7.1 0 .3.2.2.3v.3c.1 0 .1 0 0 0V9c0 .2 0 .2-.5 0z" fill="#fd6847"/>
  <path d="M8 8.8l.1-.6.5-.4.4-.3V3.2L8.8 3c-.2-.3-.3-.6-.2-.9 0-.2.2-.1.5.2.7.5.7.6.7 3.1 0 2 0 2.2-.2 2.5-.2.5-.5.8-1 1-.7.5-.7.4-.7 0z" fill="#6947f5"/>
  <path d="M5.4 10.2c0-.5 0-.4 1.6-1.3.7-.5 1-.6 1-.5-.1.5-.1.8 0 .8l-2.6 1.4v-.4zm3-7.6l-1-.6-1-.6V1 .6l1.2.6c1 .6 1.1.7 1 .8v.8l-.2-.2z" fill="#a749ad"/>
  <path d="M3.9 10.3A3310.2 3310.2 0 0 0 1.7 9v-.1c.1 0 .1 0 0-.1v-.3c.1-.1.3 0 1.5.7s1.4.8 1.8.8h.5v.2l-.1.4-.5.1c-.4 0-.6 0-1-.3zM2.4 1.8c.1-.1.1-.2 0-.2v-.1-.3l1-.6C4.3 0 4.4 0 5 0c.4 0 .6 0 1 .3.4.2.4.2.4.6v.5L5.7 1A3 3 0 0 0 5 .7a6 6 0 0 0-1.6.8l-.4.2-.5.3v-.2z" fill="#fb5149"/>
  <path d="M2.8 8.8c-2.1-1.2-2-1-2-3.5 0-2.3 0-2.3 1-3C4.5 1 4.7.9 5 .9 5.4.8 8.5 2.6 8.8 3c.2.3.2.4.2 2.3 0 1.7 0 2-.2 2.2-.1.3-.4.5-1.8 1.3-1.5.9-1.8 1-2.1 1-.3 0-.7-.2-2-1zm5.3-3.2V4l-1.4.8-1.4.8v3.1L6.7 8l1.4-.8zM6.3 4c1.4-.8 1.4-.8 1.2-.9L4.9 1.6 2.2 3.2l2.7 1.6L6.3 4zm11.8 3.4a2 2 0 0 1-.6-.3c-.7-.6-.6-2.2.1-2.7 1.3-.9 2.8-.2 2.8 1.3v.2H19c-1.3 0-1.3 0-1 .6.2.4 1 .5 1.3.1l.6-.1h.4l-.2.3c0 .2-.3.4-.4.5-.4.2-1.3.3-1.7.1zm1.4-2.2c0-.4-.7-.7-1.2-.5l-.4.7h.8c.7 0 .8 0 .8-.2zM23 7.4c-.4-.2-.5-.5-.5-2V4.1h.9v1.2c0 1.4 0 1.5.6 1.5.2 0 .4 0 .5-.2.2-.2.2-.4.2-1.4V4.1h.9v3.3H25c-.4 0-.4 0-.4-.2V7l-.2.2c-.4.4-1 .4-1.5.2zm10 0c-1-.3-1.4-1.9-.6-2.8.5-.6 1.5-.8 2.2-.3.4.2.7.8.7 1.3v.3h-2.5v.3c.2.6 1 1 1.5.5.1-.2.3-.2.6-.2h.4c0 .2-.4.7-.7.8-.3.2-1.1.3-1.6.1zm1.4-2.2c0-.3-.4-.6-.8-.6-.3 0-.7.4-.7.7l.7.1c.8 0 .8 0 .8-.2zm-21.2 0V2.9h1.1c1.2 0 1.7 0 2 .4.6.7.4 1.6-.5 2.2l.5 1 .5 1h-1l-.5-1c-.5-.7-.6-.8-.8-.8h-.3V7.4h-1zm2.2-.3c.2-.1.3-.5.2-.8 0-.3-.4-.5-1-.5h-.4V5h.5l.7-.1zm5.5 0V2.6h.9v4.9h-.9zm5.4.9V4h.4c.4 0 .5 0 .5.2 0 .3 0 .3.3 0 .4-.4 1.2-.4 1.5 0 .2.3.2.3.3.2L30 4c.7-.2 1.3 0 1.5.7v2.6h-.8V6.3c0-1.1 0-1.2-.2-1.4-.3-.2-.5-.2-.8 0-.2.2-.2.2-.2 1.4v1.1h-1V6.2c0-1.3 0-1.3-.3-1.4h-.5c-.4.2-.4.4-.4 1.6v1h-.9z" fill="#989898"/>
</svg>