<svg xmlns="http://www.w3.org/2000/svg" width="62.4" height="30" viewBox="12.1 8.4 575.152 272.2">
   <linearGradient id="arxjs" x1="53.496" x2="177.932" y1="247.701" y2="115.323" gradientUnits="userSpaceOnUse">
      <stop offset="0" stop-color="#e01d84"/>
      <stop offset=".401" stop-color="#df1d85"/>
      <stop offset=".77" stop-color="#932c87"/>
      <stop offset="1" stop-color="#5d2f88"/>
   </linearGradient>
   <radialGradient id="brxjs" cx="190.456" cy="80.2" r="121.582" gradientTransform="matrix(1 .00239 -.002 .8362 .16 12.685)" gradientUnits="userSpaceOnUse">
      <stop offset="0" stop-color="#e01d84"/>
      <stop offset=".139" stop-color="#de1e85"/>
      <stop offset=".285" stop-color="#d62085"/>
      <stop offset=".434" stop-color="#c92386"/>
      <stop offset=".586" stop-color="#b72786"/>
      <stop offset=".739" stop-color="#9d2b87"/>
      <stop offset=".891" stop-color="#7c2e88"/>
      <stop offset="1" stop-color="#5d2f88"/>
   </radialGradient>
   <linearGradient id="crxjs" x1="83.212" x2="137.371" y1="62.336" y2="62.336" gradientUnits="userSpaceOnUse">
      <stop offset="0" stop-color="#e01d84"/>
      <stop offset=".238" stop-color="#da1e85"/>
      <stop offset=".658" stop-color="#c72085"/>
      <stop offset=".999" stop-color="#b52284"/>
   </linearGradient>
   <path fill="#e32286" d="M36.789 178.05c-5.2-16.2-6.7-33.3-3.7-50.9 1.3-7.3 3.3-14.3 5.5-21.4 0 0 13.8-45.3 60.5-66 0 0 16.1-8.5 40.3-9.1 0 0-3.3-3.2-5.4-4.6-11.4-7.6-28.4-10.1-38.7.6-3.1 3.2-5.7 6.7-8.6 9.9-3.3 3.6-7.3 6.6-11.9 8.3-4 1.5-8 1.2-12.1 1.9-4.2.7-8.5 2.2-11.9 4.9-3.7 3-5.2 7-5.6 11.6-.4 3.6-.3 7.3-.5 10.9-.5 10.6-3.9 13.6-11.5 19.5-3.2 2.4-5.9 5.6-7.9 9-6 10.6 3.6 21.6 4.1 32.3.1 2.2-.1 4.4-.9 6.5-.8 2.3-2.4 3.8-3.7 5.7-1.8 2.5-3 5.5-2.5 8.6.5 3.1 2.1 6 3.6 8.7 2.9 4.8 6.5 9.1 10.3 13.2.2 0 .4.2.6.4"/>
   <path fill="url(#arxjs)" d="M220.4 213.7c23-10 32.8-27.3 32.8-27.3 21.5-29.3 14.2-60.2 14.2-60.2-13.7 29.8-26.2 38-26.2 38 33.7-51.3.2-82.3.2-82.3 13.7 29.2-4.5 64.8-4.5 64.8-15.3 32.2-37 43.7-37 43.7 24.2 4.5 42-11.8 42-11.8-34.7 37.5-72.3 35.7-72.3 35.7 15.8 17.7 39.5 16.2 39.5 16.2-31 7.3-60.1-3-84-22.9-4.5-3.7-8.8-7.7-12.8-12 0 0-3.6-3.8-4.3-4.8l-.1-.1c-.5 18.5 18.8 35.7 18.8 35.7-24.2-10-35.3-31.7-35.3-31.7s-16.3-27.8-4.5-59.5 47.5-38.5 47.5-38.5c29.5 14.3 54.5 18.8 54.5 18.8 52.7 8.8 49.7-17 49.7-17 .5-22.2-33-45.8-33-45.8C145.9 8.4 91.9 37 91.9 37c-46.7 20.7-60.5 66-60.5 66-2.2 7.1-4.2 14.1-5.5 21.4-5.1 29.7 2.6 57.8 19.3 82.8 26 38.8 68.2 52.2 68.2 52.2 62.5 21.2 105.2-10 105.2-10 39.3-27 47.2-58.2 47.2-58.2-31.7 24.8-45.4 22.5-45.4 22.5zM171.6 67.8c3 0 5.4 2.4 5.4 5.4 0 3-2.4 5.4-5.4 5.4-3 0-5.4-2.4-5.4-5.4 0-3 2.4-5.4 5.4-5.4z" transform="translate(7.189 2.75)"/>
   <path fill="url(#brxjs)" d="M238.5 98.4c.5-22.2-33-45.8-33-45.8C145.8 8.4 91.8 37 91.8 37c-46.7 20.7-60.5 66-60.5 66-2.7 7.7-5.1 19.5-5.1 19.5-2.9 14.8-1.6 28.5-1.6 28.5 1.2 13.1 4.1 21.9 4.1 21.9 3 9.4 4.4 12.3 4.4 12.3-.1-.3-.6-2.5-.6-2.5s-4.2-20.2-.3-39.6c0 0 3.4-20.2 17.2-35.8 0 0 22.4-31.9 64.1-19.4 0 0 9 3.2 12.1 4.8 3.1 1.5 8.5 3.8 8.5 3.8 29.5 14.3 54.5 18.8 54.5 18.8 52.9 8.9 49.9-16.9 49.9-16.9zm-66.9-19.7c-3 0-5.4-2.4-5.4-5.4 0-3 2.4-5.4 5.4-5.4 3 0 5.4 2.4 5.4 5.4 0 3-2.4 5.4-5.4 5.4z" transform="translate(7.189 2.75)"/>
   <path fill="url(#crxjs)" d="M137.4 58.2l-34.1-10.6c-.2 0-1.2-.5-3 0 0 0-20.1 5.1-16.6 16.1 0 0 2.1 6.9 7.8 13.6l37.5-1.8z" transform="translate(7.189 2.75)"/>
   <path fill="#aaa" d="M349.1 200.228l-20.113-40.152h-21.314v40.152H289.51V94.483h43.303q8.106 0 14.185 2.251 6.079 2.177 10.131 6.305 4.053 4.052 6.004 9.906 2.027 5.779 2.027 13.059 0 5.929-1.426 10.882-1.426 4.878-3.978 8.706-2.552 3.827-6.079 6.454-3.527 2.552-7.655 3.753l23.49 44.429zm-2.176-73.324q0-7.73-4.203-11.482-4.128-3.753-11.783-3.753h-23.265v31.221h23.715q4.053 0 6.98-1.126 2.927-1.2 4.803-3.302 1.876-2.176 2.777-5.103.976-2.927.976-6.455zM422.499 200.228l-15.536-29.42-15.61 29.42h-18.462l24.391-41.953-23.19-39.25h18.687l14.185 26.567 14.184-26.568h18.762l-23.19 39.026 24.541 42.178zM474.433 201.729q-6.529 0-11.632-1.651-5.104-1.651-8.856-5.254-3.753-3.602-6.23-9.306-2.401-5.779-3.677-13.959l18.087-3.227q.6 4.428 1.651 7.505 1.126 3.002 2.702 4.953 1.576 1.876 3.602 2.777 2.027.825 4.428.825 5.404 0 8.18-4.427 2.853-4.428 2.853-12.684V111.82h-17.262V94.483h35.349v72.273q0 8.03-1.952 14.56-1.876 6.454-5.628 11.032-3.678 4.503-9.156 6.98-5.404 2.401-12.459 2.401zM577.176 176.512q0 5.854-2.026 10.507-1.951 4.653-5.779 7.956-3.827 3.227-9.38 5.028-5.48 1.726-12.61 1.726-6.303 0-11.407-1.126-5.103-1.126-9.006-3.677-3.827-2.627-6.454-6.755-2.552-4.127-3.828-10.206l15.235-2.777q.75 3.377 2.027 5.478 1.276 2.102 3.152 3.227 1.951 1.126 4.503 1.501 2.552.376 5.779.376 2.927 0 5.478-.376 2.627-.45 4.503-1.425 1.877-1.051 2.927-2.852 1.05-1.877 1.05-4.653 0-3.153-1.575-4.954-1.501-1.876-4.128-3.002-2.552-1.2-6.154-2.026-3.527-.9-7.505-2.026-4.203-1.126-8.255-2.702-4.053-1.576-7.28-4.278-3.152-2.702-5.179-6.83-1.95-4.202-1.95-10.582 0-5.778 1.875-10.281 1.877-4.578 5.404-7.73 3.602-3.228 8.856-4.879 5.253-1.726 12.083-1.726 5.403 0 10.056 1.276 4.729 1.2 8.406 3.902 3.677 2.627 6.154 6.755 2.552 4.128 3.527 9.982l-15.385 1.95q-.45-2.926-1.576-4.802-1.05-1.952-2.702-3.077-1.576-1.126-3.752-1.501-2.177-.45-4.728-.45-6.154 0-9.231 1.95-3.077 1.877-3.077 6.38 0 2.777 1.2 4.428 1.276 1.65 3.603 2.777 2.326 1.05 5.478 1.876 3.153.75 6.905 1.876 4.653 1.201 9.081 2.852 4.503 1.576 7.955 4.428 3.528 2.777 5.63 7.205 2.1 4.428 2.1 11.257z"/>
</svg>