<svg xmlns="http://www.w3.org/2000/svg" xmlns:xlink="http://www.w3.org/1999/xlink" width="120" viewBox="0 0 394.9 68.2" >
    <g fill="#AECF33">
        <path class="st0" d="M109.7,32.7c-10.2-10.9-18.1-3.5-24.4,5.8c0.1,0.2,0.2,0.4,0.4,0.6c1.9,3.3,2.5,7.6,2,11.9  c4.5-2.5,10-3.9,13.1,1.2c0.7,1.1,1.1,2.3,1.3,3.4c6.1-4.3,11.4-9.5,15.8-15.4C114.8,38.1,112.2,35.4,109.7,32.7"/>
        <path class="st0" d="M93.7,56c-3,0-5.7,1-7.8,2.5c-2.2,1.5-3.9,0.7-3.8-1.6c0.2-7,1.1-20.4-7.9-19c-7.5,1.2-12.2,9.6-14.4,17.8  c-0.9,3.4-5.5,3-5.4-0.9c0-0.9-1.1-24.2-7.8-14.6c-2.9,4.1-3.4,8.4-4,13.4c-0.3,2.7-3.5,2.6-4.5,0.7c-3-9-8.3-7.8-12.1,1.9  c0.1,0.5,0.3,1,0.4,1.5c10.5,6.7,23,10.5,36.4,10.5c12.3,0,23.8-3.3,33.7-8.9C96.5,57.4,95.9,56,93.7,56"/>
        <path class="st0" d="M38.6,45.7c0.5-2,1.1-4,1.9-5.8c-5.3-7.1-12-12.9-20.5-4.6c-2.7,2.6-5.5,5.4-8.9,6.9c-0.5,0.2-1.1,0.5-1.6,0.7  c3.4,4.2,7.4,8,11.7,11.3C19.6,40.7,30,36.4,38.6,45.7"/>
        <path class="st0" d="M43.8,32.9c1.7-1.6,3.9-2.5,6.8-2.2c1.4,0.1,2.5,0.6,3.5,1.4c5.7-8.7,6.6-17.9,3.4-26.4  c-2-5.2-9.8-6.9-17.1,3.7c-1,1.4-3.1,1.2-4.1,0c-11.5-8.5-18.4-6.5-20.8,6.2c-0.5,1.8-2.4,2.9-4,1.8C5.2,12.8-1,18.4,0.1,26.2  c0.6,4.2,3.2,7.9,5.2,11c4.2-1.7,8.4-3.9,12.1-7.6C28.3,18.6,35.6,22.2,43.8,32.9"/>
        <path class="st0" d="M114,15.3c-1.5,1.1-3.4,0-4-1.8c-2.4-12.6-9.3-14.7-20.8-6.2c-1,1.1-3.1,1.4-4.1,0C75.2-7.1,65.3,2.8,64.9,12  c-0.4,8.5-0.2,13.1-7.3,24.4c0.6,1.3,1.2,4.1,1.5,5.7c1.2-1.8,2.5-3.4,4-4.9c5.1-4.7,7.4-6.7,12.2-7.2c2.8-0.3,5,0.6,6.8,2.2  c0-0.1,0.1-0.1,0.1-0.2c0,0.1,13.2-21.7,30.6-3.9c2.6,3,5.5,5.1,8.4,6.9c1.8-2.9,3.8-7.7,4.2-10.8C126.2,16.4,120.3,10.8,114,15.3"/>
    </g>
    <g fill="#1F9447">
        <path class="st1" d="M144.5,47.9c0-3.9,5.5-4.7,5.7-0.9c0.3,3,2.1,3.8,4.8,3.1c1-0.3,2.6-2.6,2.3-5.8c-0.5-3.6-11.1-0.5-11.9-8.7  c-0.5-4.6,2.6-8.8,9.3-9.9c5.9-1.1,10,1.2,10.8,4.2c1.2,3.4-4.7,5-5.3,1.3c-0.3-1.5-1-2.5-2.7-2c-2.4,0.6-3,3.3-2.9,5.2  c0.3,4,12.5,2.6,13.1,10.7c0.4,4.9-4.5,8.9-12,10C150.1,55.7,143.9,52.8,144.5,47.9"/>
        <path class="st1" d="M188.8,44.7v-3c0-0.3-0.3-0.5-0.5-0.5c-1.6-0.2-2.6,0.2-4.1,0.9c-1.3,0.6-2.6,2.3-2.4,4.3  c0.3,2.9,2.6,2.7,4.7,2C189.3,47.3,188.8,47.5,188.8,44.7 M188.1,52c-1.7,1.1-12.3,5.4-15-2c-2.6-7.6,5.9-13.4,15.1-12.9  c0.9,0,1.5-0.4,1.1-4.1c-0.3-2.4-1.7-3.7-3.8-4.1c-2.7-0.5-5.8,1.5-6.8,4.7c-0.7,2.2-4.9,2.3-4.7-1.4c0.3-3.6,5-7.6,11.6-7.4  c8.7,0.3,13.2,4.7,12.1,16.4c-0.7,7.6-0.2,8.9,0.7,10.4c1.6,2.7-6.4,5.4-8.4,2.2C189,52.1,189.3,51.2,188.1,52"/>
        <path class="st1" d="M205.2,16.7c0.1-4.2,9.3-3.4,9.3,0.4c0,1.5-0.4-2.5-0.5,20.7c-0.1,8.2,1.1,11.5,1,13.8c-0.2,4.4-9.6,3.7-9.6,0  C205.4,49.6,205.1,19.6,205.2,16.7"/>
        <path class="st1" d="M236.5,44.7v-3c0-0.3-0.3-0.5-0.5-0.5c-1.6-0.2-2.6,0.2-4.1,0.9c-1.3,0.6-2.6,2.3-2.4,4.3  c0.3,2.9,2.6,2.7,4.7,2C237,47.3,236.5,47.5,236.5,44.7 M235.8,52c-1.7,1.1-12.3,5.4-15-2c-2.6-7.6,5.9-13.4,15.1-12.9  c0.9,0,1.5-0.4,1.1-4.1c-0.3-2.4-1.7-3.7-3.8-4.1c-2.7-0.5-5.8,1.5-6.8,4.7c-0.7,2.2-4.9,2.3-4.7-1.4c0.3-3.6,5-7.6,11.6-7.4  c8.7,0.3,13.2,4.7,12.1,16.4c-0.7,7.6-0.2,8.9,0.7,10.4c1.6,2.7-6.4,5.4-8.4,2.2C236.7,52.1,237,51.2,235.8,52"/>
        <path class="st1" d="M275,50c-1.8,1.5-5.6,3.6-9,3.6c-8.4,0-11.1-6.8-11.2-13.3c0-2.6,0.1-4.8,0.4-8.2l-1.6,0.3  c-4.7,0.7-5.1-5.7-1.2-6.1c1.4,0.2,2.3,0.2,3.2,0.1c0.4-3.8,0.6-7,0.6-8.1c0-4.7,9.8-3.7,9.3-0.2c-0.2,1.5-0.5,4.1-0.8,8.2  c0.7-0.1,1.5-0.1,2.1-0.1c2.3-0.1,3.7,0.6,2.9,3.6c-0.5,2.1-3.2,2.3-5.5,2.1v0.7c-0.5,9-1.8,14.3,3.3,14.9c1.8,0.2,3.2-0.8,4.3-1.8  C275,42.1,278.3,47.1,275,50"/>
        <path class="st1" d="M288.6,39.2c3.7,0.1,6.6-1.6,7.3-5.7c0-2.6-1.4-5-2.8-4.7C290.8,29.5,289.1,34.3,288.6,39.2 M304.8,50.7  c-1.5,1.8-6.4,3.7-13.2,3.7c-5.8-0.1-11.8-4.6-12.3-12.3c-0.5-7.8,3.7-14.5,10.3-16.5c6-1.8,11,0.1,12.9,2.5  c1.8,2.4,3.4,10.9-6.6,14.1c-2.6,0.8-5.1,1.2-7.3,1.3c1,6.5,7.5,8.3,12.7,5.3C305,46.5,306.3,48.9,304.8,50.7"/>
        <path class="st1" d="M309.6,27.9c0.1-4.2,9.8-3.4,9.8,0.4c0,0.5-0.1,1.1-0.1,2c1.7-2.6,5.3-4.5,9.4-4.2c2.5,0.2,4.4,1.4,5.2,2.6  c1.6,2.1-0.7,5.4-3,4.5c-1.6-0.6-1.1-1.6-2.7-2c-3.2-0.5-6.7,1.6-8.4,5.9c-0.4,0.8-0.6,1.7-0.9,3.7c0.1,4.6,0.5,8.3,0.5,10.6  c-0.2,4.4-9.5,3.9-9.5,0.3C309.8,49.6,309.5,30.7,309.6,27.9"/>
        <path class="st1" d="M350.1,43.5c-1.5-0.9-1.7-0.6-2,1.2c-0.4,2.7-0.7,4.2-0.7,7.1c0,4.8-9.4,3.3-9.4,0.5c0-1.9,0.7-33.2,0.7-34.9  c0-4.2,9.6-3.7,9.6,0.7c0,2.4-0.2,13.4-0.1,15.9c0.1,2.6,3.4,2,6.6-1c2.9-2.7,4.3-4.4,4.9-6.2c0.6-1.8,2.5-1.6,3.7-1.2  c1.2,0.5,1.3,2.1-0.8,5.2c-2.6,3.7-4.3,5.6-6.5,7.2c-1.6,1.2-1.3,1.6,0,2.7c1.3,1.1,3.9,2.8,6.4,6.3c2.5,3.5,2.9,3.9,3.2,5.2  c0.3,1.3-6.3,3.8-8.9,0.5C354.2,49.4,352.4,44.9,350.1,43.5"/>
        <path class="st1" d="M384.9,44.7v-3c0-0.3-0.3-0.5-0.5-0.5c-1.6-0.2-2.6,0.2-4.1,0.9c-1.3,0.6-2.6,2.3-2.4,4.3  c0.3,2.9,2.6,2.7,4.7,2C385.5,47.3,384.9,47.5,384.9,44.7 M384.3,52c-1.7,1.1-12.3,5.4-15-2c-2.7-7.6,5.9-13.4,15.1-12.9  c0.9,0,1.5-0.4,1.1-4.1c-0.3-2.4-1.7-3.7-3.8-4.1c-2.7-0.5-5.8,1.5-6.8,4.7c-0.7,2.2-4.9,2.3-4.7-1.4c0.3-3.6,5-7.6,11.6-7.4  c8.7,0.3,13.2,4.7,12.1,16.4c-0.7,7.6-0.2,8.9,0.7,10.4c1.6,2.7-6.4,5.4-8.4,2.2C385.2,52.1,385.5,51.2,384.3,52"/>
    </g>
</svg>