<?xml version="1.0" encoding="UTF-8" standalone="no"?>
<!-- Created with Inkscape (http://www.inkscape.org/) -->

<svg
   width="266mm"
   height="58mm"
   viewBox="0 0 266 58"
   version="1.1"
   id="svg5"
   inkscape:version="1.1.2 (b8e25be833, 2022-02-05)"
   sodipodi:docname="sketchup.svg"
   xmlns:inkscape="http://www.inkscape.org/namespaces/inkscape"
   xmlns:sodipodi="http://sodipodi.sourceforge.net/DTD/sodipodi-0.dtd"
   xmlns="http://www.w3.org/2000/svg"
   xmlns:svg="http://www.w3.org/2000/svg">
  <sodipodi:namedview
     id="namedview7"
     pagecolor="#505050"
     bordercolor="#eeeeee"
     borderopacity="1"
     inkscape:pageshadow="0"
     inkscape:pageopacity="0"
     inkscape:pagecheckerboard="0"
     inkscape:document-units="mm"
     showgrid="false"
     inkscape:zoom="1.0998546"
     inkscape:cx="536.43454"
     inkscape:cy="232.75804"
     inkscape:window-width="3715"
     inkscape:window-height="2126"
     inkscape:window-x="114"
     inkscape:window-y="-11"
     inkscape:window-maximized="1"
     inkscape:current-layer="layer1" />
  <defs
     id="defs2" />
  <g
     inkscape:label="Warstwa 1"
     inkscape:groupmode="layer"
     id="layer1">
    <g
       id="g7934"
       transform="translate(0.36909099,0.06550564)">
      <path
         id="rect896"
         style="fill:#5dbfff;fill-opacity:1;stroke-width:2.1;stroke-linecap:round;stroke-linejoin:round"
         d="m 27.125344,2.4042792 c -1.606449,0.026326 -3.219246,0.2619507 -4.683437,0.7100358 -1.435684,0.4393618 -17.1300622,9.03569 -18.0371403,9.879499 -0.2774839,0.25813 2.0775183,1.704689 11.8401043,7.271909 l 12.186335,6.949445 V 41.34092 c 0,9.134062 0.09232,14.126271 0.261482,14.126271 0.143889,0 3.978701,-2.113365 8.521962,-4.696354 9.06821,-5.155581 10.680041,-6.366764 12.456086,-9.361702 0.549426,-0.926502 1.293566,-2.613837 1.653646,-3.749127 0.652185,-2.056289 0.65474,-2.10529 0.65474,-12.8788 V 13.966364 L 43.084058,8.8824379 C 38.191796,6.0863187 33.637656,3.5894484 32.963746,3.3339403 31.246161,2.6827319 29.190777,2.3704442 27.125344,2.4042792 Z m 0.115237,6.670913 c 1.764586,-0.00601 3.130524,0.1402662 4.101042,0.4397639 0.800364,0.2469912 4.402007,2.1367249 8.003645,4.1997449 l 6.548438,3.751193 v 7.568012 c 0,8.377171 -0.13824,9.401942 -1.657263,12.287623 -1.235662,2.347389 -3.316859,4.301487 -6.452319,6.058027 -1.476995,0.827439 -2.762745,1.504302 -2.857707,1.504302 -0.09496,0 -0.136998,-0.619609 -0.09302,-1.376662 l 0.0801,-1.376143 2.248958,-1.289325 c 2.650318,-1.519372 3.548814,-2.329413 4.707723,-4.241604 1.388811,-2.29153 1.662457,-4.275159 1.580782,-11.465449 l -0.0708,-6.243547 -3.439583,-1.978689 c -8.106836,-4.66389 -8.92126,-5.068983 -10.781771,-5.360914 -3.170399,-0.49748 -6.028941,0.314889 -9.857795,2.80138 -0.460833,0.299259 -0.700993,0.246007 -1.81591,-0.405144 L 16.200429,13.196903 18.94238,11.652295 C 22.817724,9.4685138 24.047161,9.0865508 27.240581,9.0751922 Z M 2.7955627,15.662386 c -0.08623,0.0862 -0.1579335,1.649566 -0.1591633,3.474206 l -0.00206,3.317627 8.5989586,4.867404 8.598956,4.867402 0.07958,1.452624 c 0.04364,0.79893 0.02553,1.452626 -0.04031,1.452626 -0.06583,0 -2.244889,-1.205233 -4.842081,-2.677875 -2.597191,-1.472639 -4.841254,-2.678644 -4.986775,-2.680454 -0.5312252,-0.007 -5.9861109,3.31398 -5.7743249,3.515029 0.1200682,0.11398 3.7006522,2.190152 7.9571369,4.613672 l 7.739061,4.40645 v 1.306381 c 0,0.718539 -0.105592,1.30638 -0.234611,1.30638 -0.129019,0 -3.968785,-2.136455 -8.532811,-4.747514 -4.5640288,-2.611051 -8.3345584,-4.64562 -8.3788163,-4.521171 -0.1627762,0.457719 1.3380833,4.414073 2.2334553,5.888014 1.020708,1.680268 2.8517079,3.624442 4.3434041,4.611602 1.3515759,0.894432 16.2125099,9.329486 16.4589429,9.342067 0.110474,0.006 0.170006,-6.027851 0.132292,-13.40745 L 25.917664,28.632136 14.435162,22.068713 C 8.1197013,18.458913 2.8817877,15.576166 2.7955627,15.662386 Z m 24.3039423,2.809647 c 1.027258,0.02669 2.563061,0.211119 3.448368,0.468704 0.509323,0.148201 2.176198,0.964404 3.704166,1.813843 l 2.778125,1.544609 0.0739,3.660243 c 0.08216,4.070681 -0.159932,5.224759 -1.528587,7.282759 l -0.7922,1.190625 -0.0011,-5.310788 -0.0011,-5.311304 -4.365625,-2.46703 c -2.401093,-1.356942 -4.365625,-2.5859 -4.365625,-2.731101 0,-0.115811 0.433195,-0.156575 1.04955,-0.14056 z" />
      <path
         id="rect898"
         style="fill:#c1bcb4;fill-opacity:1;stroke-width:2.1;stroke-linecap:round;stroke-linejoin:round"
         d="m 75.677095,10.779995 c -1.312175,-0.0043 -2.420025,0.07576 -3.124875,0.231511 -3.390085,0.7479 -6.113298,2.689299 -7.350971,5.240509 -0.634828,1.308568 -0.733981,1.832171 -0.734841,3.893301 -0.0021,5.28877 2.184461,7.245758 11.360547,10.168888 4.715102,1.502039 6.784157,2.541606 7.542694,3.788915 2.392838,3.934722 -0.910302,7.12674 -6.982521,6.747909 -3.486436,-0.217508 -6.515407,-1.951704 -8.14524,-4.664315 -0.317275,-0.528058 -0.601435,-0.996019 -0.632002,-1.039728 -0.03057,-0.0437 -1.075926,0.426487 -2.322854,1.044898 l -2.267045,1.124479 0.810802,1.521354 c 1.090639,2.04624 3.725587,4.533442 5.86269,5.533512 3.4074,1.594519 7.922504,2.005046 11.626165,1.057817 1.102907,-0.28208 2.50776,-0.769112 3.122289,-1.082622 1.592961,-0.81266 3.624348,-2.802811 4.442106,-4.35219 0.62293,-1.180261 0.701069,-1.622718 0.701249,-3.973917 1.9e-4,-2.43886 -0.06156,-2.756905 -0.785482,-4.063836 -1.52786,-2.758469 -3.850518,-4.127254 -10.856185,-6.397024 -6.462381,-2.093751 -7.805208,-3.074771 -7.805208,-5.703012 0,-2.00874 1.01115,-3.100517 3.435451,-3.708818 3.890012,-0.976079 8.034054,0.413774 10.316683,3.460256 l 0.880565,1.174604 1.952337,-1.349788 c 1.073899,-0.742389 2.006227,-1.436065 2.071706,-1.542026 0.255362,-0.413168 -2.589133,-3.727582 -4.041614,-4.709271 -2.476452,-1.673762 -4.253553,-2.219873 -7.703404,-2.368333 -0.47538,-0.02045 -0.935652,-0.03164 -1.373042,-0.03307 z m 16.686318,0.50178 V 28.3474 45.413024 h 2.778128 2.77812 V 41.852 38.290978 l 1.91823,-2.103231 c 1.055029,-1.156539 1.977759,-2.11152 2.050519,-2.12235 0.0728,-0.01079 1.55491,2.537767 3.29386,5.663737 l 3.16208,5.68389 h 2.85719 c 1.57165,0 2.8577,-0.108106 2.8577,-0.240294 0,-0.132202 -1.91341,-3.648348 -4.25193,-7.813477 l -4.25194,-7.573182 3.50522,-3.894335 c 1.92776,-2.141972 3.74276,-4.16223 4.03334,-4.489649 l 0.52813,-0.595312 -3.15484,0.0098 -3.15485,0.01035 -4.63021,5.323705 -4.630209,5.323708 -0.0692,-10.096543 -0.0692,-10.096023 h -2.77502 z m 90.487497,0 V 28.3474 45.413024 h 2.77813 2.77812 v -8.445997 -8.445995 l 1.08831,-0.931727 c 1.88632,-1.61462 3.27306,-2.148763 5.58622,-2.150772 3.71679,-0.003 3.9088,0.589545 3.9088,12.073165 v 7.901326 h 2.77813 2.77812 V 35.79759 c 0,-10.401729 -0.0929,-11.243942 -1.43092,-12.998172 -0.37485,-0.491472 -1.34028,-1.215721 -2.1456,-1.609722 -1.37336,-0.671928 -1.63193,-0.708316 -4.16926,-0.589627 -2.27784,0.10655 -2.97843,0.251256 -4.43332,0.917257 -0.95029,0.43501 -2.15633,1.167628 -2.68045,1.627807 -0.52412,0.460179 -1.0268,0.836642 -1.11673,0.836642 -0.0899,0 -0.1633,-2.8575 -0.1633,-6.35 v -6.35 h -2.77812 z m 26.19375,0 0.004,11.972396 c 0.004,12.940879 0.0806,13.813093 1.46606,16.741613 1.27054,2.685709 4.29572,4.778034 8.0548,5.570201 2.0706,0.436362 6.0589,0.296823 8.31474,-0.290938 2.19677,-0.572368 3.91286,-1.575554 5.41724,-3.166213 1.47089,-1.55525 2.22036,-2.89468 2.84737,-5.088578 0.36893,-1.290921 0.45497,-3.416795 0.55242,-13.633794 l 0.11524,-12.104687 h -2.92229 -2.92282 l -0.0858,11.972396 c -0.0759,10.592008 -0.13835,12.109669 -0.54415,13.16302 -0.96151,2.495849 -3.15692,3.948547 -6.30659,4.173905 -3.59656,0.257332 -6.10211,-0.971695 -7.33288,-3.597195 l -0.70435,-1.502751 -0.0765,-12.104688 -0.076,-12.104687 h -2.9006 z m -66.14583,1.058333 v 4.22248 4.222483 l -2.18281,0.077 -2.18282,0.077 -0.077,2.17196 -0.0765,2.171962 2.19314,0.077 2.19367,0.077 0.13229,8.334375 c 0.14624,9.213519 0.17818,9.391012 1.90634,10.621573 1.49024,1.061151 4.94341,1.521841 8.34626,1.11311 l 1.38906,-0.166915 v -2.172478 -2.171959 l -1.91822,0.105421 c -2.2677,0.124809 -3.04125,-0.190836 -3.70365,-1.511536 -0.40382,-0.80514 -0.46266,-1.771425 -0.46302,-7.603154 l -5.3e-4,-6.680729 h 3.175 3.175 v -2.248958 -2.248958 h -3.175 -3.175 v -4.233334 -4.233333 h -2.77813 z m -17.07286,8.216553 c -1.31406,0.0013 -2.62957,0.128977 -3.48454,0.382921 -5.32276,1.58069 -8.28219,5.929498 -8.28219,12.170318 0,3.94182 0.99472,6.911133 3.05202,9.110553 1.47108,1.572721 2.91284,2.46424 4.88859,3.02204 2.5084,0.708178 3.74683,0.795673 6.02598,0.425812 0.91485,-0.14846 2.3118,-0.512572 3.10473,-0.809252 1.71124,-0.64026 4.50081,-2.446912 4.73976,-3.069579 0.11769,-0.306711 -0.24935,-0.864637 -1.2082,-1.835547 l -1.37717,-1.39423 -0.94775,0.744657 c -1.43219,1.125098 -2.40939,1.550434 -4.33152,1.885156 -1.86545,0.32485 -3.75471,0.08745 -5.16247,-0.648023 -1.59384,-0.83266 -2.81245,-2.720184 -3.00395,-4.653462 l -0.0915,-0.926042 8.44031,-0.06976 8.44031,-0.07028 -0.15865,-2.575552 c -0.36539,-5.938512 -2.98354,-10.070862 -7.16803,-11.313522 -0.84929,-0.252209 -2.1617,-0.377521 -3.47576,-0.376204 z m 42.98601,0.02066 c -4.46428,0.02397 -7.63147,1.653988 -9.7963,5.0276 -2.32199,3.618492 -2.48041,10.599988 -0.3297,14.551567 1.55888,2.864159 4.5048,4.945525 7.76076,5.483386 2.01157,0.332301 2.29062,0.334389 4.15376,0.03204 3.34398,-0.542708 5.64114,-2.026074 7.46827,-4.822444 0.59291,-0.90741 1.07797,-1.784469 1.07797,-1.948717 0,-0.164241 -0.89932,-0.617541 -1.99832,-1.007693 -1.099,-0.390159 -2.15639,-0.770202 -2.34973,-0.844391 -0.2159,-0.0829 -0.45694,0.167595 -0.62477,0.649055 -0.40509,1.162039 -2.07414,2.879955 -3.14038,3.231846 -0.51411,0.169669 -1.68324,0.260799 -2.59777,0.20257 -3.16169,-0.201319 -4.8879,-2.161662 -5.44773,-6.186702 -0.32862,-2.36271 0.008,-5.152191 0.8108,-6.726721 1.11797,-2.191401 3.62362,-3.38708 6.08749,-2.90525 0.65484,0.128051 1.27569,0.237583 1.37976,0.243914 0.45078,0.0274 2.13458,1.766668 2.60707,2.692858 l 0.51574,1.011309 2.31303,-0.826823 c 1.272,-0.454922 2.35007,-0.857292 2.39624,-0.894003 0.2423,-0.19268 -1.47869,-3.006675 -2.51974,-4.119645 -1.8416,-1.96882 -3.60079,-2.694199 -6.85643,-2.827218 -0.30924,-0.01265 -0.61241,-0.01812 -0.91002,-0.01654 z m 84.15353,0.09715 c -2.53151,0 -2.91738,0.06801 -4.34496,0.768945 -0.86167,0.423079 -2.02255,1.181291 -2.5797,1.684652 l -1.01286,0.915189 V 22.42475 20.806762 h -2.77812 -2.77813 v 16.933334 16.933333 h 2.77813 2.77812 V 48.72082 42.767695 l 1.25677,0.902271 c 2.12084,1.522119 3.31178,1.876232 6.28387,1.868104 2.85819,-0.008 4.2654,-0.438978 6.16551,-1.888257 1.24648,-0.950722 2.78251,-3.418689 3.37603,-5.423958 0.68379,-2.310392 0.69112,-7.877014 0.0135,-10.131682 -1.03497,-3.44315 -2.6317,-5.575054 -5.07772,-6.778916 -1.1276,-0.554958 -1.67537,-0.640786 -4.08035,-0.640786 z M 125.3552,25.068517 c 1.60267,-0.0799 3.15739,0.362371 4.14393,1.238168 0.68966,0.612241 1.75226,2.92875 1.75545,3.82664 l 0.003,0.727604 h -5.68854 c -5.0874,0 -5.68854,-0.04591 -5.68854,-0.432533 h -5.3e-4 c 0,-1.948159 2.00046,-4.581821 3.87574,-5.102529 0.52569,-0.145973 1.06516,-0.230717 1.59938,-0.25735 z m 126.06363,0.245465 c 0.82757,0.02845 1.62523,0.220789 2.34818,0.58601 2.154,1.088149 3.16725,3.479088 3.16725,7.474479 0,3.11844 -0.53803,4.965644 -1.81954,6.247164 -1.37237,1.372349 -3.83757,1.924174 -5.85494,1.310513 -1.09448,-0.33292 -2.3174,-1.037082 -3.30213,-1.901693 l -0.92966,-0.815969 v -4.972307 -4.972307 l 0.97462,-0.856279 c 1.6304,-1.43152 3.59557,-2.162206 5.41622,-2.099611 z" />
    </g>
  </g>
</svg>
