<svg xmlns="http://www.w3.org/2000/svg" width="120" viewBox="0 0 948 191">
    <defs>
        <linearGradient id="a-metademolab" x1="61" y1="117" x2="259" y2="127" gradientUnits="userSpaceOnUse">
            <stop offset="0" stop-color="#0064e1"/>
            <stop offset=".4" stop-color="#0064e1"/>
            <stop offset=".8" stop-color="#0073ee"/>
            <stop offset="1" stop-color="#0082fb"/>
        </linearGradient>
        <linearGradient id="b-metademolab" x1="45" y1="139" x2="45" y2="66" gradientUnits="userSpaceOnUse">
            <stop offset="0" stop-color="#0082fb"/>
            <stop offset="1" stop-color="#0064e0"/>
        </linearGradient>
    </defs>
    <path d="M31 126a48 48 0 0 0 5.6 24.5 19 19 0 0 0 16.6 9.5c8 0 15.5-2 29.8-21.8 11.4-15.8 24.9-38 34-52l15.3-23.6c10.7-16.3 23-34.6 37.2-47 11.6-10 24-15.6 36.6-15.6 21 0 41.1 12.2 56.5 35.1 16.8 25 25 56.7 25 89.3 0 19.4-3.9 33.6-10.4 44.8a43.1 43.1 0 0 1-39 21.8v-31c17.6 0 22-16.2 22-34.8 0-26.4-6.2-55.7-19.8-76.7-9.6-14.8-22-23.9-35.8-23.9-14.9 0-26.8 11.2-40.2 31.2a594.6 594.6 0 0 0-22.7 38.1l-9.1 16c-18.2 32.3-22.8 39.7-32 51.8C84.8 183 71.2 191 53.3 191a46.6 46.6 0 0 1-43-23A83.7 83.7 0 0 1 0 124.7z" fill="#0081fb"/>
    <path d="M24.5 37.3C38.7 15.3 59.3 0 82.8 0a63 63 0 0 1 41.4 15.6c15.5 12.7 32 33.5 52.7 67.8l7.4 12.3c17.8 29.8 28 45 33.9 52.3 7.6 9.2 13 12 20 12 17.6 0 22-16.2 22-34.8l27.4-.8c0 19.4-3.9 33.6-10.4 44.9a43.1 43.1 0 0 1-39 21.7 48.7 48.7 0 0 1-36.8-14.6c-9.6-9-20.9-25.2-29.5-39.7L146 93.6a296.2 296.2 0 0 0-31.7-45c-7.4-7.9-16.9-17.4-32-17.4-12.3 0-22.7 8.6-31.5 21.8z" fill="url(#a-metademolab)"/>
    <path d="M82.3 31.2C70.1 31.2 59.7 39.8 51 53a138.5 138.5 0 0 0-19.8 73 48 48 0 0 0 5.5 24.5l-26.5 17.4A83.7 83.7 0 0 1 0 125C0 94 8.4 62 24.5 37.3 38.7 15.3 59.3 0 82.8 0z" fill="url(#b-metademolab)"/>
    <path d="M348 6h35.9l61 110.6L506.2 6h35.1v181.6H512V48.5l-53.6 96.3h-27.5l-53.5-96.3v139.1h-29.4zm285 67.8c-21 0-33.6 15.8-36.7 35.4h71.4C666.2 89 654.6 73.7 633 73.7zm-65.7 46.5c0-41.2 26.6-71.2 66.3-71.2 39 0 62.2 29.6 62.2 73.4v8h-99.5c3.6 21.4 17.7 35.7 40.5 35.7 18.2 0 29.6-5.5 40.3-15.7l15.6 19.1a81 81 0 0 1-57 21.3c-42.8 0-68.4-31.3-68.4-70.6zm164-44h-27v-24h27V12.7h28.4v39.6h41v24h-41v60.9c0 20.8 6.6 28.1 23 28.1a95 95 0 0 0 18-1.7v23.8a84.2 84.2 0 0 1-23.5 3.2c-30.6 0-45.8-16.7-45.8-50zm188.4 23.4a38.2 38.2 0 0 0-37-25c-24.2 0-39.6 17.3-39.6 45.2 0 27.3 14.2 45.3 38.5 45.3 19 0 32.7-11.1 38.1-25zm28.3 88h-27.8v-19a52.2 52.2 0 0 1-44.7 22.2c-36.8 0-61.4-30.8-61.4-71 0-40.5 25.2-70.8 63-70.8 18.6 0 33.2 7.5 43.1 20.6V52.3H948z" fill="#aaa"/>
</svg>