<svg width="61" height="24" viewBox="0 0 61 24" fill="none" xmlns="http://www.w3.org/2000/svg">
    <path fill-rule="evenodd" clip-rule="evenodd" d="M28.7448 0.617241C29.638 1.51042 29.3966 3.1999 28.2057 4.3908C27.0148 5.5817 25.3254 5.82305 24.4322 4.92988C23.539 4.0367 23.7804 2.34722 24.9713 1.15632C26.1622 -0.034581 27.8516 -0.275935 28.7448 0.617241ZM16.5732 0.340837L20.8998 0.326825L20.9742 23.3126L16.6477 23.3266L16.5732 0.340837ZM24.4536 6.97597H28.7801V23.3195H24.4536V6.97597ZM11.8074 14.5711C10.9878 14.1042 9.98719 13.7325 8.78644 13.4466C7.91923 13.2084 7.23309 12.9892 6.71848 12.7891C6.20387 12.589 5.84174 12.3698 5.63209 12.1411C5.41291 11.9123 5.30808 11.655 5.30808 11.3691C5.30808 10.9403 5.48914 10.5972 5.8608 10.3495C6.23246 10.1017 6.7566 9.9778 7.44274 9.9778C8.05265 9.9778 8.75785 10.1112 9.54882 10.3685C10.3398 10.6354 11.0545 10.9975 11.693 11.474L13.8372 8.5388C12.9986 7.91937 12.0266 7.44288 10.9116 7.10934C9.80612 6.7758 8.67208 6.60426 7.52851 6.60426C6.23246 6.60426 5.08889 6.81392 4.10733 7.23323C3.12576 7.65254 2.35385 8.22432 1.77254 8.94859C1.20075 9.67285 0.914858 10.521 0.914858 11.474C0.914858 12.4555 1.14357 13.2751 1.601 13.9422C2.05843 14.6093 2.72551 15.162 3.59272 15.5908C4.45993 16.0197 5.5082 16.3913 6.72801 16.6963C7.54757 16.9345 8.18606 17.1442 8.66255 17.3252C9.12951 17.5063 9.46305 17.6969 9.65365 17.897C9.84424 18.0972 9.93954 18.3545 9.93954 18.6689C9.93954 19.174 9.71083 19.5647 9.2534 19.8697C8.79597 20.1651 8.18606 20.3176 7.41415 20.3176C6.54694 20.3176 5.66068 20.1365 4.75535 19.7839C3.85002 19.4218 2.99235 18.9262 2.17279 18.2782L0 21.2801C1.14357 22.0901 2.33479 22.6905 3.5546 23.0908C4.77441 23.4815 6.06093 23.6816 7.41415 23.6816C9.606 23.6816 11.3023 23.2146 12.5126 22.2712C13.7229 21.3277 14.3232 20.0984 14.3232 18.5736C14.3232 17.6874 14.104 16.925 13.6752 16.2674C13.2464 15.6004 12.6269 15.0381 11.8074 14.5711ZM56.9496 7.7383C58.1885 8.49115 59.1796 9.51083 59.9038 10.7974C60.6281 12.0839 60.9902 13.5324 60.9998 15.1143C60.9998 15.3628 60.982 15.6203 60.9636 15.8866L60.9616 15.9148C60.9426 16.1912 60.9045 16.4294 60.8568 16.6486H48.5634C48.6683 17.0298 48.8112 17.3919 49.0018 17.7255C49.4116 18.4688 49.9738 19.0501 50.679 19.479C51.3747 19.9078 52.1847 20.127 53.0901 20.127C53.9192 20.127 54.6911 19.9936 55.3963 19.7172C56.0919 19.4408 56.759 19.012 57.3785 18.4116L59.8085 21.0609C58.9318 21.9281 57.9312 22.5761 56.8067 23.0145C55.6822 23.4529 54.4814 23.6721 53.1949 23.6721C51.5272 23.6721 50.0215 23.3004 48.6873 22.5475C47.3532 21.7947 46.3049 20.775 45.5425 19.4885C44.7801 18.202 44.3989 16.763 44.3989 15.162C44.3989 13.561 44.7611 12.1125 45.5044 10.8164C46.2382 9.51083 47.2388 8.49115 48.5062 7.7383C49.7737 6.98545 51.1746 6.61379 52.7279 6.61379C54.3003 6.61379 55.7107 6.98545 56.9496 7.7383ZM48.9256 12.5699C48.7731 12.8748 48.6492 13.2084 48.5634 13.5515H56.9115C56.8162 13.1893 56.6923 12.8558 56.5208 12.5318C56.1396 11.8075 55.625 11.2167 54.9674 10.7783C54.3099 10.3399 53.557 10.1207 52.6993 10.1207C51.8893 10.1207 51.146 10.3399 50.4789 10.7783C49.8118 11.2262 49.2972 11.817 48.9256 12.5699ZM42.1596 18.9358C41.4448 19.4694 40.7491 19.7363 40.0916 19.7363C39.3959 19.7363 38.8623 19.498 38.462 19.0215C38.0713 18.545 37.8712 17.8875 37.8712 17.0584V10.7306H42.8838V6.9759H37.8807V1.57253L33.7638 3.11635V6.9759H30.7715V10.7306H33.5446V17.1346C33.5446 19.1835 34.0688 20.7845 35.1171 21.9472C36.1653 23.1003 37.6424 23.6816 39.5484 23.6816C40.4347 23.6816 41.3019 23.5196 42.1786 23.1956C42.9029 22.9287 43.5509 22.5475 44.1417 22.0615C44.2561 21.9662 44.38 21.8614 44.4848 21.747L42.4073 18.7452C42.3311 18.8119 42.2453 18.8786 42.1596 18.9358Z" fill="#ddd"></path>
</svg>