<svg width="60" viewBox="0 0 60 60" fill="#aaa">
    <defs>
        <linearGradient id="linear-gradient" x1="25.7" x2="25.7" y1="46.7" y2="88.5" gradientUnits="userSpaceOnUse">
            <stop offset="0" stop-color="#fff" stop-opacity=".3"/>
            <stop offset="0" stop-color="#fff" stop-opacity=".3"/>
            <stop offset=".3" stop-color="#fff" stop-opacity=".1"/>
            <stop offset=".5" stop-color="#fff" stop-opacity="0"/>
            <stop offset=".6" stop-color="#fff" stop-opacity="0"/>
        </linearGradient>
        <linearGradient id="linear-gradient-2" x1="44.4" x2="44.4" y1="52.6" y2="93.7" gradientUnits="userSpaceOnUse">
            <stop offset="0" stop-color="#fff" stop-opacity=".2"/>
            <stop offset=".1" stop-color="#fff" stop-opacity=".1"/>
            <stop offset=".4" stop-color="#fff" stop-opacity="0"/>
            <stop offset=".5" stop-color="#fff" stop-opacity="0"/>
        </linearGradient>
    </defs>
    <ellipse cx="30.7" cy="48.4" opacity=".4" rx="24.6" ry="3.4"/>
    <path d="M38.5 30.3a27.6 27.6 0 0 0-7-3.7 28.3 28.3 0 0 1-5.4-3q-6-4-6-10.3a10.6 10.6 0 0 1 2.3-6.9 10.2 10.2 0 0 1 .9-1l-8.6 2a4.6 4.6 0 0 0-3.5 5.6l7 30.6a4.6 4.6 0 0 0 5.6 3.4l3.5-.8H27a33.8 33.8 0 0 1-6.8-3l3.7-8.1a16.3 16.3 0 0 0 10.4 3.6c4 0 6-1.4 6-4.3a5.3 5.3 0 0 0-1.8-4zM57.9 34.5L50.8 3.9A4.6 4.6 0 0 0 45.2.4l-5.1 1.2 1.7.3a28.1 28.1 0 0 1 6.7 2.4l-3 8a14 14 0 0 0-9.4-2.9q-5.3 0-5.4 4.3a3.9 3.9 0 0 0 1.8 3 36.8 36.8 0 0 0 7.6 3.7 23.6 23.6 0 0 1 6.4 3.5 12.7 12.7 0 0 1 2 2 12.3 12.3 0 0 1 2.5 7.9 11.8 11.8 0 0 1-2.5 7.5l5.9-1.3a4.6 4.6 0 0 0 3.5-5.5z"/>
</svg>