<svg width="120" viewBox="0 0 108.347 20.997">
    <path d="M36.723 18.667c-2.455-.51-4.14-2.057-4.677-4.298l-.174-.727h1.587c1.456 0 1.601.052 1.748.636.087.35.457.916.82 1.257.549.515.942.62 2.33.62 2.096 0 2.852-.543 2.732-1.962-.096-1.13-1.026-1.839-3.495-2.66-3.306-1.1-5.158-2.895-5.177-5.018-.011-1.234 1.036-2.896 2.288-3.63 1.401-.82 4.088-1.114 5.846-.639 1.927.522 3.766 2.527 3.766 4.106 0 .649-.062.675-1.587.675-1.423 0-1.588-.056-1.588-.541 0-.298-.292-.834-.649-1.19-.535-.535-.91-.65-2.129-.65-1.218 0-1.594.115-2.128.65-1.353 1.352-.495 2.626 2.409 3.58 4.197 1.38 5.672 2.813 5.672 5.507 0 1.674-.797 2.904-2.381 3.674-1.389.675-3.633.937-5.213.61zm32.96-.135c-1.469-.468-2.98-2.022-3.386-3.483-.526-1.895-.356-4.334.41-5.871.913-1.832 2.186-2.68 4.314-2.872 3.432-.312 5.63 1.497 6.226 5.125.25 1.515-.256 3.98-1.052 5.128-1.32 1.903-4.092 2.744-6.512 1.973zm3.224-2.517c.959-.513 1.37-1.766 1.265-3.85-.081-1.605-.207-2.046-.746-2.62-.556-.591-.834-.678-1.953-.612-1.64.098-2.249.814-2.464 2.9-.173 1.681.222 3.17 1.048 3.938.605.564 2.025.686 2.85.244zm9.488 2.665c-1.261-.382-2.064-1.104-2.743-2.467-.555-1.114-.674-1.728-.673-3.483.001-1.172.127-2.58.28-3.13.339-1.223 1.557-2.658 2.632-3.103 1.074-.445 2.937-.203 3.942.513l.818.582V1.206h2.91V18.67h-1.323c-1.234 0-1.323-.044-1.323-.662 0-.798-.285-.84-.924-.133-.263.29-.907.646-1.43.792-1.082.3-1.22.301-2.166.014zm3.559-2.94c.67-.527.697-.653.697-3.176 0-2.296-.069-2.695-.543-3.17-.818-.817-2.789-.634-3.502.325-.59.794-.877 2.86-.6 4.334.38 2.026 2.412 2.894 3.948 1.686zm-39.255-3.157V6.498h1.323c1.146 0 1.323.07 1.323.53 0 .694.301.667 1.48-.133 1.641-1.114 4.38-.746 5.15.69.295.553.297.553 1-.117 2.03-1.938 5.37-1.586 6.395.674.447.985.516 1.75.52 5.83l.007 4.697h-2.911l-.004-4.167c-.005-5.074-.135-5.456-1.906-5.57-.965-.063-1.356.039-1.78.462-.504.504-.543.859-.543 4.91v4.365h-2.866L53.8 14.21c-.103-5.168-.167-5.332-2.065-5.332-2.041 0-2.125.212-2.125 5.379v4.41H46.7zm45.773 0V6.498h2.91v12.171h-2.91zm5.556 0V6.498h1.437c1.33 0 1.444.05 1.522.652l.084.653 1.164-.785c1.432-.965 3.143-1.06 4.474-.249 1.437.876 1.638 1.75 1.638 7.129v4.77h-2.911v-4.306c0-5.172-.119-5.483-2.09-5.483-2.062 0-2.143.204-2.143 5.379v4.41h-3.175zm-4.953-7.942c-1.175-.473-1.086-2.47.13-2.933 2.015-.766 3.45 2.008 1.498 2.898-.77.35-.839.352-1.628.034z" fill="#cecac3"/>
    <path d="M9.52 20.632c-2.982-.434-3.946-.956-5.964-3.23-1.697-1.912-1.705-1.957-1.077-6.374.23-1.618.634-3.233.984-3.934.799-1.6 2.697-3.25 5.459-4.747l2.285-1.239h5.557l2.285 1.24c2.761 1.496 4.66 3.147 5.459 4.746.35.7.754 2.316.984 3.934.627 4.417.62 4.462-1.077 6.374-2.064 2.325-2.935 2.78-6.217 3.246-3.304.47-5.366.466-8.678-.016zm7.647-.915c2.697-.33 4.85-1.275 5.422-2.38.284-.55.392-1.655.392-4.023 0-3.934-.473-5.226-2.249-6.14-.971-.5-1.524-.544-6.747-.544-5.222 0-5.775.045-6.746.545-1.776.913-2.25 2.205-2.25 6.139 0 2.368.108 3.473.393 4.023 1.04 2.013 6.227 3.06 11.785 2.38zM15.374 15.5c-1.36-.578-.444-2.134 2.377-4.04 1.258-.85 2.063-.921 2.684-.235.562.621 1.003 2.125.806 2.747-.35 1.1-4.395 2.155-5.867 1.528zm-5.473-1.184c-1.423-.489-2.699-1-2.836-1.138-.36-.36.294-1.652.838-1.652.52 0 5.024 2.857 5.024 3.186 0 .52-.582.444-3.026-.396zm-9.255.672c-.714-.744-.729-.82-.552-2.841C.245 10.42 1.492 2.632 1.963.468c.072-.334.247-.535.389-.448.435.27.273 7.66-.257 11.722-.272 2.084-.544 3.839-.605 3.9-.061.061-.44-.234-.844-.655zm25.663-.047C25.44 9.773 25.008.398 25.619.02c.142-.087.318.114.391.448.483 2.179 1.564 8.973 1.777 11.168l.255 2.624-.791.79-.79.79z" fill="#f32523"/>
</svg>