<svg xmlns:xlink="http://www.w3.org/1999/xlink" width="38" viewBox="0 0 100 108.79">
    <path fill="#FF8001" d="M63.02,42.75L63.02,42.75c-1.93-1.62-2.18-4.51-0.56-6.44l29.1-34.68C93.18-0.3,96.07-0.55,98,1.07l0,0   c1.83,1.54,2.07,4.3,0.54,6.13L69.16,42.21C67.61,44.05,64.85,44.29,63.02,42.75z"/>
    <path fill="#FF6601" d="M53.69,40.84L53.69,40.84c-2.44,0.89-5.17-0.38-6.06-2.83l-4.94-13.57c-0.89-2.44,0.38-5.17,2.83-6.06l0,0   c2.17-0.79,4.59,0.34,5.38,2.51l5.3,14.57C56.99,37.63,55.86,40.05,53.69,40.84z"/>
    <path fill="#FFB301" d="M64.89,57.4L64.89,57.4c2.36-0.86,5,0.37,5.86,2.73l15.48,42.54c0.86,2.36-0.37,5-2.73,5.86l0,0   c-2.25,0.82-4.76-0.35-5.58-2.6L62.29,62.98C61.47,60.73,62.64,58.22,64.89,57.4z"/>
    <path fill="#0B0146" d="M57.33,61.42L57.33,61.42c1.99,1.67,2.25,4.67,0.58,6.66l-9.28,11.06c-1.67,1.99-4.67,2.25-6.66,0.58l0,0   c-1.77-1.48-2-4.14-0.52-5.91l9.97-11.88C52.9,60.17,55.56,59.94,57.33,61.42z"/>
    <path fill="#FFCC01" d="M53.66,52.53L53.66,52.53c-0.44,2.48-2.82,4.14-5.3,3.71L3.78,48.38c-2.48-0.44-4.14-2.82-3.71-5.3l0,0   c0.42-2.36,2.68-3.94,5.04-3.53l45.01,7.94C52.49,47.91,54.08,50.17,53.66,52.53z"/>
    <path fill="#FF9901" d="M94.53,51.43L94.53,51.43c-0.45,2.56-2.92,4.29-5.48,3.83l-14.22-2.51c-2.56-0.45-4.29-2.92-3.83-5.48l0,0   c0.4-2.27,2.59-3.8,4.86-3.4l15.27,2.69C93.4,46.97,94.93,49.16,94.53,51.43z"/>
</svg>