<svg width="130" height="16.487" viewBox="0 0 102.024 12.939" xmlns="http://www.w3.org/2000/svg">
   <path d="M16.005 10.424c-.691-.213-1.257-.449-1.257-.524 0-.076.18-.486.4-.912.4-.773.403-.774 1.296-.348.558.266 1.16.36 1.6.249.578-.145.691-.307.624-.889-.069-.587-.314-.795-1.406-1.19-1.805-.655-2.338-1.337-2.175-2.784.07-.626.323-1.353.56-1.616.694-.766 2.257-1.123 3.478-.793 1.385.375 1.53.55 1.145 1.395-.226.496-.45.658-.74.535-.954-.405-1.547-.395-1.974.032-.41.41-.414.493-.038.909.228.251.882.597 1.454.768.572.172 1.284.623 1.583 1.003 1.14 1.449.324 3.8-1.493 4.306-1.255.348-1.502.337-3.057-.141zm10.924.112c-1.376-.395-2.284-1.153-2.898-2.42-.646-1.335-.697-2.414-.175-3.653.8-1.898 2.365-2.876 4.6-2.876 3.619 0 5.882 3.483 4.29 6.602-.615 1.206-1.583 1.956-3.049 2.362-1.232.341-1.533.34-2.768-.015zm3.145-2.49c1.483-1.248.973-3.816-.852-4.289-1.16-.3-1.905-.115-2.693.673-1.162 1.162-.74 3.437.75 4.038 1.03.416 1.967.274 2.795-.423zm8.34 2.532c-.445-.137-1.1-.558-1.455-.936-.61-.648-.652-.896-.734-4.24l-.086-3.55H38.297v2.991c0 3.243.169 3.74 1.375 4.03.554.134.866.021 1.39-.502.64-.642.674-.818.674-3.597V1.85H43.923l-.124 3.419c-.134 3.733-.421 4.574-1.728 5.071-1.061.404-2.757.513-3.657.237zm8.614-4.361V1.85h2.35l2.066 2.697 2.066 2.696.075-2.696.076-2.697h2.098v8.731h-1.046c-1.013 0-1.113-.085-3.241-2.8l-2.196-2.8-.075 2.8-.075 2.8h-2.098zm12.17.032V1.851h2.284c1.841 0 2.454.105 3.162.543 1.298.802 1.963 2.044 1.963 3.669 0 1.662-.484 2.668-1.747 3.632-.837.638-1.242.74-3.308.84l-2.354.112zm4.36 1.886c1.397-1.214 1.109-3.635-.513-4.312-1.702-.712-1.73-.675-1.73 2.261V8.73h.779c.428 0 1.087-.268 1.464-.595zm5.96-1.918V1.85h2.454c2.846 0 3.456.283 3.916 1.819.25.834.227 1.15-.137 1.854-.241.466-.727.98-1.08 1.14l-.642.293 1.316 1.675c.724.92 1.316 1.736 1.316 1.812 0 .076-.58.138-1.29.138h-1.29l-1.09-1.786-1.09-1.786-.001 1.786-.002 1.786h-2.38zm3.72-.671c.635-.34.7-1.714.094-1.947-1.122-.43-1.434-.206-1.434 1.03 0 1.27.3 1.474 1.34.917zm5.275 4.833c0-.13.282-.94.626-1.802.344-.861 1.07-2.727 1.615-4.146l.989-2.58h2.476l1.579 4.145c.868 2.28 1.618 4.244 1.667 4.366.048.121-.43.22-1.061.22h-1.15l-1.041-3.059c-.573-1.682-1.111-3.102-1.197-3.155-.085-.053-.63 1.294-1.212 2.993l-1.057 3.09-1.117.08c-.614.045-1.117-.024-1.117-.152zM90.064 6.38c-.678-2.31-1.232-4.275-1.232-4.366 0-.09.468-.164 1.04-.164 1.028 0 1.043.015 1.449 1.41.225.775.552 2.025.725 2.778.174.753.386 1.368.472 1.368.086 0 .561-1.256 1.056-2.791l.898-2.792.92.08c.916.079.925.092 1.758 2.65.46 1.415.901 2.636.98 2.715.139.139 1.052-2.805 1.414-4.558.168-.811.243-.86 1.329-.86h1.15l-.53 1.786c-.293.982-.69 2.322-.885 2.977-.194.654-.548 1.822-.787 2.594l-.435 1.403-1.11-.08-1.11-.081-.669-1.984c-1.038-3.078-1.052-3.107-1.299-2.646-.117.218-.542 1.379-.945 2.58l-.733 2.182h-2.223z" fill="#fbf892"/>
   <path d="M.057 12.687c-.233-.376.265-.925 1.184-1.305.437-.181.913-.673 1.115-1.153.48-1.137.407-4.714-.135-6.567-.524-1.792-.548-2.34-.104-2.34.185 0 .733 1.184 1.24 2.68.957 2.829 1.753 4.277 2.42 4.405.282.055.774-.725 1.626-2.577C8.476 3.5 8.707 3.174 9.287 3.174c.777 0 1.588.926 2.042 2.332.724 2.239 1.355 3.753 1.565 3.753.123 0 .476-.744.784-1.653.308-.91.73-1.952.938-2.315l.378-.662.004.662c.002.363-.287 1.485-.642 2.491-.59 1.675-.983 2.256-1.53 2.267-.36.007-1.243-1.67-1.827-3.472-.313-.965-.777-2.031-1.03-2.368-.618-.818-1.105-.411-1.83 1.524-.794 2.122-1.266 2.945-1.878 3.273-.772.413-1.618-.21-2.324-1.712-.313-.665-.598-1.209-.633-1.208-.036 0-.07.923-.076 2.05-.013 2.377-.485 3.515-1.788 4.31-.972.592-1.147.623-1.383.241zM18.32 1.342l-.794-.18.927-.581C18.962.262 19.53.001 19.718 0c.498-.001.696.739.32 1.193-.35.42-.483.432-1.718.15z" fill="#26a5db"/>
   <path d="M2.657 7.672c0-.8.05-1.128.11-.728.06.4.06 1.055 0 1.456-.06.4-.11.072-.11-.728zm6.335-3.575c.385-.42.516-.444.794-.145.267.288.266.32-.01.164-.188-.107-.546-.041-.794.145-.406.305-.405.29.01-.164zm1.272-.51c-.174-.21-.576-.432-.893-.493-.56-.11-.56-.114-.021-.149.304-.02.77.203 1.033.494.263.29.415.529.338.529-.078 0-.283-.172-.457-.381z" fill="#1a6f95"/>
   <path d="M46.871 6.217c0-2.474.04-3.522.089-2.328.048 1.193.049 3.217 0 4.498-.048 1.28-.089.304-.089-2.17zM21.12 7.782c.013-.308.076-.37.16-.16.077.191.067.42-.02.507-.089.088-.151-.068-.14-.347zm12.192-1.698c0-.363.06-.512.133-.33.074.182.074.48 0 .661-.073.182-.133.033-.133-.33z" fill="#666a46"/>
   <path d="M24.645 9.458l-.504-.595.595.504c.56.473.716.686.504.686-.05 0-.318-.268-.595-.595zM6.282 9.16c0-.055.208-.264.463-.463.42-.33.429-.32.1.1-.346.44-.563.58-.563.363zm32.112-4.928c0-1.528.044-2.153.097-1.389.054.764.054 2.014 0 2.778-.053.764-.097.14-.097-1.389zM23.257 6.084c0-.363.06-.512.133-.33.074.182.074.48 0 .661-.073.182-.133.033-.133-.33zm2.646 0c0-.363.06-.512.133-.33.073.182.073.48 0 .661-.073.182-.133.033-.133-.33zm-10.625 0c-.239-.154-.272-.258-.082-.26a.615.615 0 0 1 .478.26c.203.329.112.329-.396 0zm58.229-1.477c.012-.308.075-.37.16-.16.076.191.067.42-.021.507-.088.088-.15-.068-.14-.347zm-58.738-.529c.013-.308.076-.37.16-.16.077.191.067.42-.02.507-.089.088-.151-.068-.14-.347zm50.622-1.235l-.504-.595.595.504c.328.277.596.545.596.595 0 .212-.213.056-.687-.504zm-33.478-.132c-.33-.42-.32-.429.1-.1.44.346.58.563.363.563-.055 0-.264-.208-.463-.463z" fill="#4c5137"/>
</svg>