<svg width="176" height="19" viewBox="0 0 176 19" fill="#aaa">
    <path d="M0 15.7673L2.43867 12.1415C3.19173 12.8996 4.08559 13.5001 5.069 13.9086C6.05241 14.3171 7.10602 14.5255 8.16939 14.522C9.72666 14.522 10.6859 13.9811 10.6859 13.088C10.6859 10.7107 0.588645 12.6824 0.588645 5.7327C0.588645 2.7044 3.10829 0 7.68664 0C10.552 0 13.0436 0.86478 14.9466 2.51572L12.4269 6.00314C10.9525 4.78666 9.10797 4.12033 7.20389 4.11635C5.86465 4.11635 5.276 4.57547 5.276 5.37421C5.276 7.59119 15.3733 5.91509 15.3733 12.6226C15.3733 16.2453 12.7228 18.6509 7.92646 18.6509C4.31361 18.6509 1.79397 17.4874 0 15.7862"  ></path>
    <path d="M17.918 18.3082V0.270508H26.866C30.8837 0.270508 33.095 3.00321 33.095 6.27365C33.095 9.54409 30.8993 12.2485 26.866 12.2485H22.5244V18.3051L17.918 18.3082ZM28.3921 6.27365C28.3921 5.03151 27.4017 4.32711 26.1683 4.32711H22.5244V8.19504H26.1621C27.4079 8.19504 28.3859 7.49063 28.3859 6.27365"  ></path>
    <path d="M40.1474 0.270508H35.541V18.3082H40.1474V0.270508Z"></path>
    <path d="M43.7656 18.3082V0.270508H51.2654C56.8902 0.270508 60.9204 3.67931 60.9204 9.2768C60.9204 14.8743 56.8715 18.3082 51.2654 18.3082H43.7656ZM56.2237 9.2768C56.2237 6.49063 54.5637 4.32711 51.2965 4.32711H48.3751V14.2516H51.2685C54.4017 14.2516 56.2237 11.9529 56.2237 9.2768Z"  ></path>
    <path d="M63.6387 18.3082V0.270508H76.7384V4.32711H68.245V7.13843H76.5484V11.195H68.245V14.2516H76.7384V18.3082H63.6387Z"></path>
    <path d="M89.7817 18.3082L86.7793 12.2516H84.4247V18.3082H79.8184V0.270508H88.7633C92.7281 0.270508 94.9767 2.92145 94.9767 6.27365C94.9767 9.41831 93.108 11.0881 91.4137 11.6825L95.0577 18.3082H89.7817ZM90.2894 6.24849C90.2894 4.99063 89.299 4.32711 88.0656 4.32711H84.4247V8.19504H88.0656C89.3114 8.19504 90.2894 7.51893 90.2894 6.24849Z"  ></path>
    <path d="M99.315 8.60063L97.6021 7.22013C98.4585 6.78931 99.5829 5.62579 99.8788 4.62579C99.6795 4.70026 99.4683 4.73652 99.2559 4.73271C98.1035 4.73271 97.166 3.83962 97.166 2.48742C97.1733 1.82946 97.4356 1.20057 97.8968 0.735589C98.3579 0.270605 98.9811 0.00653875 99.6327 0C101.078 0 102.364 1.13522 102.364 3.14465C102.364 5.34591 101.184 7.27987 99.3088 8.60692"  ></path>
    <path d="M104.004 15.7673L106.443 12.1415C107.965 13.6708 110.026 14.5271 112.173 14.522C113.731 14.522 114.693 13.9811 114.693 13.088C114.693 10.7107 104.593 12.6824 104.593 5.7327C104.593 2.7044 107.112 0 111.691 0C114.559 0 117.048 0.86478 118.951 2.51572L116.434 6.00314C114.959 4.78757 113.115 4.12136 111.211 4.11635C109.872 4.11635 109.28 4.57547 109.28 5.37421C109.28 7.59119 119.377 5.91509 119.377 12.6226C119.377 16.2453 116.727 18.6509 111.933 18.6509C108.318 18.6509 105.798 17.4874 104.004 15.7862"  ></path>
    <path d="M136.065 18.3082L132.128 3.75793L128.191 18.3082H125.781L120.691 0.270508H123.155L127.12 15.3082L131.218 0.270508H133.065L137.164 15.3082L141.101 0.270508H143.593L138.475 18.3082H136.065Z"  ></path>
    <path d="M146.457 18.3082V0.270508H158.161V2.27365H148.681V8.08497H157.975V10.0881H148.681V16.3082H158.161V18.3082H146.457Z"></path>
    <path d="M162.098 18.3082V0.270508H170.052C173.167 0.270508 175.063 2.1573 175.063 4.86799C175.099 5.81932 174.804 6.75329 174.231 7.50878C173.657 8.26428 172.84 8.79393 171.921 9.00636C173.821 9.30195 175.403 11.2768 175.403 13.4403C175.403 16.3334 173.5 18.3082 170.233 18.3082H162.098ZM172.759 5.18875C172.759 3.56611 171.687 2.26737 169.678 2.26737H164.321V8.08183H169.678C171.687 8.08183 172.759 6.82397 172.759 5.18875ZM173.107 13.195C173.107 11.5441 171.983 10.085 169.812 10.085H164.321V16.3051H169.812C171.874 16.3051 173.107 15.1133 173.107 13.195Z"  ></path>
</svg>