<svg viewBox="0 0 378.53 225.33" width="50">
    <g fill="#fff">
        <path d="M195.57,46.53H184.34c-8.28,0-12.12,5.32-12.12,13.3V76.68c0,10.93,2.36,15.07,11.82,20.1l47.58,26c10.35,5.62,14.78,14.48,14.78,26.31v49.35c0,18-7.39,26.89-26,26.89H159.81c-18.62,0-25.72-8.86-25.72-26.89V140.22l36.06,19.51V184c0,8,4.14,13.3,12.12,13.3h14.78c8,0,11.82-5.32,11.82-13.3V165.05c0-10.94-2.37-15.08-11.53-20.1l-47.88-25.71C139.12,113.62,135,104.76,135,92.93V45.35c0-18,7.39-26.89,25.71-26.89h57c18.62,0,26,8.86,26,26.89V99.73l-36.06-19.5V59.83C207.68,51.85,203.84,46.53,195.57,46.53Z"></path>
        <path d="M258.69,18.46h94.16c18.3,0,25.68,8.85,25.68,26.86v66.12c0,18-7.38,26.57-25.68,26.57H305v70.55l9.45,16.53H258.69l9.15-16.53V35Zm82.65,45.46c0-10.33-5-17.42-15.94-17.42H305v63.76H325.4c10.92,0,15.94-7.08,15.94-17.41Z"></path>
        <polygon points="111.27 0 111.27 225.33 111.21 225.33 100.53 225.33 102.42 186.56 102.96 173.26 88.09 181.07 74.8 188.06 44.92 203.78 68.92 164.35 0 130.94 0 130.86 67.32 130.86 67.31 130.85 10.55 61.95 19 66.04 91.64 101.25 102.65 44.47 108.4 14.82 111.27 0"></polygon>
    </g>
</svg>