<svg width="120" xmlns="http://www.w3.org/2000/svg" viewBox="0 0 4556.4 979.9">
    <linearGradient id="db001" x1="3824.8" x2="4261.4" y1="872.9" y2="116.8" gradientTransform="matrix(1 0 0 -1 0 980)" gradientUnits="userSpaceOnUse">
        <stop offset="0" stop-color="#ff00a0"/>
        <stop offset="1" stop-color="#9600ff"/>
    </linearGradient>
    <path fill="url(#db001)" d="M4485.5 470.9c84.5-64.2 39.3-205.8-52.4-238a166.9 166.9 0 0 0-64.2-11.9h-221.3v536.6h251c42.8 0 83.3-15.5 113-44 66.8-64.2 59.6-195.1-26.1-242.7zm-230.8-141.6h110.6c28.6 0 52.3 20.2 51.2 50a49.4 49.4 0 0 1-51.2 51.2h-110.6V329.3zm138 321.3h-138V534h138c28.6-1.2 52.4 30.9 51.2 59.5 1.2 27.3-22.6 58.3-51.2 57.1zm-454.9-409.3a299.9 299.9 0 0 0-110.6-20.2h-199.9v536.6h199.9c42.8 0 80.9-7.1 114.2-20.2 102.3-39.3 159.4-140.4 158.2-248.7 1.2-108.3-59.5-208.3-161.8-247.5zm47.6 248.6c1.1 84.5-69.1 161.9-154.7 160.7h-97.6V329.3h97.6c85.7-1.2 155.9 77.3 154.7 160.6z"/>
    <g fill="#aaa" >
        <path d="M3472.2 221.1v536.6h107.1V221.1h-107.1z"/>
        <path d="M3216.5 349.5c-115.1 0-207.7 91.4-207.7 204.1s92.5 204.1 207.7 204.1c36.8 0 71.2-9.5 100.9-26.1v26.1h106.8V553.6c0-112.7-92.6-204.1-207.7-204.1zm-1.2 309.7c-60.6 0-108-47.5-108-106.8 0-58.2 48.7-106.8 108-106.8 60.6 0 108 47.5 108 106.8s-48.7 106.8-108 106.8z"/>
        <path d="M2751.3 349.6c123.5-3.6 231.7 115.3 205.5 241.2h-304.2c28.6 78.4 131.9 95.1 180.6 28.6h116.5c-48.7 145-242.4 184.2-347 78.4-134.2-132-33.3-349.4 148.6-348.2zm98.6 167.4a104.8 104.8 0 0 0-197.3 0h197.3z"/>
        <path d="M2517.1 349.6a209.7 209.7 0 0 0-199.9 146.3 226.3 226.3 0 0 0-9.5 63.1v198.7h107.1V559c2.4-71.4 52.3-107.1 102.3-107.1V349.6z"/>
        <path  d="M2283.7 349.6a209.7 209.7 0 0 0-199.9 146.3 226.3 226.3 0 0 0-9.5 63.1v198.7h107.1V559c2.4-71.4 52.4-107.1 102.3-107.1V349.6z"/>
        <path d="M1919.2 349.6v198.6c-5.9 141.6-199.9 141.6-204.6 0V349.5h-107.1v198.7c0 21.4 3.6 42.8 9.5 63.1a209.6 209.6 0 0 0 409.3-63.1V349.6h-107.1z"/>
        <path d="M1412.1 444.4c-45.1-7.1-98.7-15.4-134.3-43.8-22.6-17.9-13.1-46.3 10.7-61.8 46.3-29.8 123.5-13.1 139 41.5h121.2c0-97.4-104.6-160.4-202-159.2-54.7 0-105.8 13.1-145 45.1-47.4 38-71.2 110.5-41.5 164 48.7 79.6 166.4 78.4 246 110.4 21.4 10.7 34.5 22.6 34.5 45.1 0 48.7-43.9 68.9-93.9 68.9a86.2 86.2 0 0 1-87.9-78.4H1140c3.6 172.3 232.9 234.1 362.4 131.8a158 158 0 0 0 57-122.3c1.2-77.2-72.4-129.4-147.3-141.3z"/>
    </g>
    <linearGradient id="ico001" x1="203.3" x2="636.7" y1="-1815.3" y2="-1064.7" gradientTransform="translate(0 1930)" gradientUnits="userSpaceOnUse">
        <stop offset="0" stop-color="#ff00a0"/>
        <stop offset="1" stop-color="#9600ff"/>
    </linearGradient>
    <path id="Icon" fill="url(#ico001)" d="M420 257.8L653.3 387v-51.8L420 206.3 186.7 335.2 700 618.8v51.6L420 825.1 140 670.4V515.7l280 154.7 46.7-25.8L93.3 438.4v257.9L420 876.7l326.6-180.5V593.1L280 335.2l140-77.4zM93.3 283.6v103.2l466.6 257.9-140 77.4-233.3-129.2v51.8l233.3 128.9 233.3-128.9L140 361v-51.6l280-154.7 280 154.7v154.7L420 309.4l-46.7 25.8 373.3 206.3V283.6L420 103.1 93.3 283.6zM420 0L0 232.1v515.7l420 232.1 420-232V232.1L420 0zm373.2 722L420 928.3 46.7 722V257.9L420 51.6l373.3 206.3-.1 464.1z"/>
</svg>