<svg width="32" viewBox="0 0 93.2 112">
    <path id="path4" fill="#ff3e00" d="M87.3 14.8A34.2 34.2 0 0 0 41.5 5L15.4 21.6a30 30 0 0 0-13.5 20 31.5 31.5 0 0 0 3 20.3A30 30 0 0 0 .6 73 31.9 31.9 0 0 0 6 97a34.2 34.2 0 0 0 45.7 10l26.1-16.7a30 30 0 0 0 13.5-20 31.5 31.5 0 0 0-3-20.3A30 30 0 0 0 92.6 39a31.9 31.9 0 0 0-5.4-24"/>
    <path id="path6" fill="#fff" d="M39 98.6a20.7 20.7 0 0 1-22.3-8.3 19.2 19.2 0 0 1-3.3-14.5 18.1 18.1 0 0 1 .6-2.4l.5-1.5 1.4 1a33.6 33.6 0 0 0 10.2 5l1 .4-.2 1A5.8 5.8 0 0 0 28 83a6.2 6.2 0 0 0 6.7 2.5 5.7 5.7 0 0 0 1.6-.7l26-16.6a5.4 5.4 0 0 0 2.5-3.6 5.8 5.8 0 0 0-1-4.4 6.2 6.2 0 0 0-6.7-2.5 5.8 5.8 0 0 0-1.6.7l-10 6.3a19 19 0 0 1-5.2 2.4A20.7 20.7 0 0 1 18 58.9a19.2 19.2 0 0 1-3.3-14.5 18 18 0 0 1 8.1-12L49 15.7a19 19 0 0 1 5.3-2.3 20.7 20.7 0 0 1 22.2 8.3 19.2 19.2 0 0 1 3.3 14.5 18.5 18.5 0 0 1-.6 2.4l-.5 1.5-1.3-1a33.6 33.6 0 0 0-10.2-5l-1-.4v-1a5.9 5.9 0 0 0-1-3.8 6.2 6.2 0 0 0-6.7-2.5 5.7 5.7 0 0 0-1.6.7L31 43.7a5.4 5.4 0 0 0-2.5 3.6 5.8 5.8 0 0 0 1 4.4 6.2 6.2 0 0 0 6.7 2.5 5.8 5.8 0 0 0 1.6-.7l10-6.3a19 19 0 0 1 5.2-2.4 20.7 20.7 0 0 1 22.3 8.3 19.2 19.2 0 0 1 3.2 14.5 18 18 0 0 1-8 12L44.1 96.3a19 19 0 0 1-5.3 2.3"/>
</svg>