<svg width="230" height="28.75" viewBox="0 0 240 30">
   <path fill="#ceced1" fill-opacity=".991" d="M11.946 1.503c-1.365 0-1.727.09-1.875.463-.636 1.604-1.99 5.462-1.99 5.67 0 .137.445.212.988.167.947-.08 1.061-.202 2.778-2.974.985-1.59 1.79-2.99 1.79-3.11 0-.119-.761-.216-1.691-.216zm41.137 1.865c-.588-.006-1.115.244-1.63.76-.426.425-.774.953-.774 1.173 0 .91.575 1.803 1.387 2.154.9.39 1.538.318 2.483-.276 1.192-.75.99-2.925-.328-3.526-.41-.186-.785-.281-1.138-.285zm63.741.234l-3.108.075-3.11.075v2.116l1.522.08 1.521.079v19.526l-1.52.08-1.522.08-.081 1.124-.082 1.124H119.501l-.081-1.124-.082-1.125-1.257-.08-1.256-.081v-5.654l4.038 4.032 4.038 4.032h4.888V25.58h-3.315l-3.162-3.17c-1.932-1.937-3.063-3.26-2.907-3.401.141-.127 1.699-1.38 3.462-2.783 3.114-2.48 3.245-2.552 4.564-2.552h1.358V11.293h-8.996v2.354l1.421.08 1.42.079-3.404 2.593-3.405 2.594v-7.695zm75.671.017V6h2.911v3.204c0 2.949-.037 3.188-.463 3.009-2.643-1.11-3.247-1.26-5.096-1.272-2.399-.013-4.374.773-5.939 2.365-1.718 1.748-2.128 2.967-2.128 6.32 0 3.197.312 4.14 2.004 6.069 2.388 2.719 6.627 3.524 10.126 1.922 1.423-.652 1.496-.66 1.496-.17 0 .478.204.514 2.926.514h2.925l-.081-1.124-.082-1.125-1.256-.08-1.257-.081V3.619h-3.043zm-108.61.846l-1.456.585-1.455.585-.075 2.829-.075 2.828h-2.628V13.674h2.6l.09 5.622c.08 5.066.14 5.714.623 6.548.84 1.455 2.429 2.117 5.077 2.117h2.193V25.58h-1.811c-2.821 0-2.8.045-2.905-6.51l-.086-5.396h4.538V11.293H84.032l-.074-3.414zm128.043 6.355c-2.118.022-4.278.75-5.924 2.229-4.67 4.2-3.418 12.13 2.3 14.568 1.683.718 2.502.852 4.738.778 1.796-.06 2.44-.211 3.846-.903 2.75-1.354 3.27-2.198 2.209-3.593-.359-.471-.406-.465-1.25.168-3.157 2.364-6.974 2.577-9.255.516-1.199-1.082-1.685-1.91-1.948-3.312l-.184-.983H220.339l-.182-1.521c-.27-2.27-.577-3.25-1.458-4.638-1.395-2.201-4.048-3.338-6.77-3.309zm-61.746.02a9.666 9.666 0 0 0-4.177.993c-1.763.864-2.895 2.03-3.834 3.949-.478.975-.589 1.668-.597 3.712-.01 2.225.074 2.686.725 4.012 1.815 3.695 5.856 5.552 10.265 4.716 1.834-.348 3.375-1.106 4.774-2.348l1.123-.996-.742-.974-.742-.973-1.056.954c-1.472 1.33-2.964 1.947-4.727 1.954-3.9.015-6.33-2.421-6.317-6.33.009-2.766 1.22-4.741 3.49-5.69 1.133-.472 3.533-.54 4.622-.13 1.063.401 2.405 1.78 2.75 2.824.278.845.354.888 1.394.813l1.1-.08.074-2.977.075-2.977h-2.664V13.2l-.927-.814c-1.174-1.031-2.834-1.554-4.609-1.546zm80.354.035a8.207 8.207 0 0 0-2.209.241c-2.188.54-3.217 1.272-3.872 2.753-.618 1.397-.461 3.382.35 4.413.749.952 2.936 1.913 5.776 2.538 3.193.703 4.139 1.156 4.484 2.145.611 1.753-.907 3.141-3.438 3.143-2.816.002-4.885-1.169-5.165-2.922-.162-1.01-.203-1.046-1.192-1.046h-1.024v5.821h1.19c1.098 0 1.191-.053 1.191-.67v-.669l.728.53c.802.586 3.193 1.296 4.431 1.317.437.007 1.476-.147 2.309-.344 2.757-.649 4.174-2.277 4.174-4.799 0-2.816-1.53-4.073-6.278-5.158-3.145-.718-4.198-1.214-4.59-2.162-.28-.675-.253-.874.204-1.49 1.105-1.488 4.044-1.734 6.237-.522.916.507 1.143.8 1.385 1.796.282 1.162.314 1.19 1.334 1.19h1.046l.075-2.843.075-2.845h-1.332c-1.152 0-1.331.071-1.331.525 0 .523-.003.523-1.003.002a8.159 8.159 0 0 0-3.555-.944zm-222.696.01c-1.993.01-3.978.681-5.034 1.884-.97 1.105-1.179 1.843-1.013 3.573.222 2.311 1.67 3.313 6.517 4.507 3.364.83 4.181 1.245 4.435 2.258.648 2.583-3.257 3.96-6.694 2.36-1.493-.696-1.939-1.274-1.939-2.516 0-.785-.038-.81-1.19-.81h-1.19v5.82h1.19c1.014 0 1.19-.078 1.19-.53 0-.653.042-.653 1.33.004 2.43 1.24 5.457 1.286 7.838.121 1.828-.894 2.597-2.107 2.597-4.094 0-2.938-1.295-4.014-6.383-5.306-3.535-.897-4.419-1.393-4.535-2.545-.179-1.77 2.12-2.834 4.819-2.23 1.948.436 3.01 1.327 3.116 2.618.08.955.11.982 1.14.982h1.059l.075-2.844.075-2.845H13.91c-1.119 0-1.332.078-1.332.489 0 .452-.1.44-1.341-.175-1.003-.496-2.202-.727-3.398-.72zm162.442.022c-2.145.006-2.746.108-3.992.686-2.018.934-3.274 2.11-4.145 3.885-.658 1.34-.738 1.789-.738 4.149 0 2.363.08 2.807.742 4.158 1.859 3.784 6.568 5.61 11.043 4.28 3.898-1.157 6.075-4.242 6.075-8.609 0-3.532-1.611-6.168-4.697-7.687-1.624-.8-1.963-.867-4.288-.862zm-71.052.02c-2.145.001-5.288.744-6.306 1.49-.466.342-.467.391-.013 1.343.338.71.586.939.881.814 3.062-1.294 6.584-1.56 7.815-.591.936.735 1.46 2.001 1.46 3.528v1.208l-1.39-.208c-.764-.114-2.353-.2-3.531-.192-3.872.027-6.074 1.645-6.362 4.676-.224 2.353 1.04 4.205 3.492 5.116 1.594.593 4.196.353 6.095-.562.86-.415 1.653-.799 1.762-.854.109-.055.198.206.198.582v.684h5.586l-.08-1.124-.082-1.125-1.257-.08-1.257-.081-.002-4.682c0-2.575-.131-5.158-.29-5.74-.737-2.698-3.147-4.206-6.72-4.203zm-31.616.02c-4.132.032-6.468 2.174-5.973 5.477.344 2.29 1.912 3.364 6.41 4.392 4.09.935 4.763 1.428 4.543 3.334-.375 3.247-8.686 2.162-8.686-1.133 0-.863-.019-.877-1.19-.877h-1.19v5.821h1.322c1.239 0 1.323-.043 1.323-.67v-.669l.728.53c.801.585 3.184 1.293 4.442 1.32.442.01 1.509-.166 2.37-.39 2.735-.712 4.102-2.242 4.102-4.593 0-3.01-1.631-4.327-6.747-5.446-3.694-.807-4.776-1.684-4.098-3.32.683-1.649 3.724-2.015 6.268-.753 1.082.537 1.29.767 1.417 1.564.21 1.34.431 1.58 1.455 1.58h.91v-5.821h-1.19c-1.003 0-1.19.08-1.19.514 0 .488-.077.48-1.52-.181-1.228-.563-1.9-.693-3.506-.68zm-49.743.345v2.351l1.118.081 1.119.082 2.453 6.747c1.35 3.71 2.509 6.895 2.577 7.077.08.214.68.331 1.688.331h1.563l2.06-5.69c1.132-3.13 2.128-5.623 2.214-5.54.086.082 1.058 2.613 2.16 5.624l2.005 5.474 1.588.077 1.588.078 2.464-7.155 2.464-7.155h2.308V11.293H39.83v2.38h1.059c.582 0 1.058.07 1.058.157 0 .328-3.249 10.305-3.416 10.49-.14.154-1.526-3.482-3.926-10.3-.072-.204.291-.343 1.036-.397 1.145-.082 1.146-.083 1.228-1.206l.08-1.125h-8.526l.08 1.125c.082 1.119.088 1.124 1.207 1.205.618.045 1.124.12 1.124.167 0 .206-3.465 10.031-3.662 10.384-.15.267-.811-1.32-2.079-4.988l-1.86-5.38 1.09-.131c1.066-.13 1.089-.155 1.169-1.257l.08-1.125h-3.85zm30.956 0V13.673h3.175V25.556l-1.654.078-1.653.08-.082 1.124-.081 1.124h9.585l-.08-1.124-.082-1.125-1.521-.08-1.521-.079v-14.26H51.87zm163.367 1.892c1.04.03 2.08.36 3 .997.702.486 1.499 1.899 1.764 3.13l.186.86h-5.313c-4.077 0-5.311-.076-5.307-.33.014-.764 1.037-2.512 1.93-3.296a5.416 5.416 0 0 1 3.74-1.36zm-41.981.23c2.386-.01 4.074.982 5.172 3.038.803 1.505.803 4.847-.002 6.35-.685 1.28-1.807 2.38-2.815 2.76-1.119.423-3.885.335-4.88-.155-1.266-.624-2.367-2.014-2.83-3.576-.513-1.727-.514-2.678-.005-4.393.763-2.571 2.683-4.012 5.36-4.023zm19.913.004c1.278-.007 2.745.275 3.897.776l1.395.608-.073 4.926-.072 4.926-1.19.575c-1.452.701-3.443.929-4.996.572-1.705-.392-3.55-2.314-3.992-4.16-.856-3.565 1.048-7.596 3.835-8.118a6.73 6.73 0 0 1 1.196-.105zm-90.397 6.875c.844.003 1.686.056 2.345.165l.993.164V24.543l-1.654.783c-1.29.61-2.023.782-3.328.782-1.498 0-1.755-.08-2.447-.773-.633-.632-.773-.996-.773-2.001 0-1.567.35-2.205 1.467-2.672.578-.241 1.99-.374 3.397-.369zm33.236 3.7v3.968H137.198V23.992h-2.117z" />
</svg>