<svg width="109" height="33" fill="none" xmlns="http://www.w3.org/2000/svg">
    <path fill-rule="evenodd" clip-rule="evenodd" d="M15.2 3.7a3.7 3.7 0 1 1 7.5 0 3.7 3.7 0 0 1-7.5 0zm1.8 0a2 2 0 1 0 3.8 0 2 2 0 0 0-3.8 0zM0 11.1a3 3 0 1 1 5.9 0 3 3 0 0 1-5.9 0zm1.8 0a1.1 1.1 0 1 0 2.3 0 1.1 1.1 0 0 0-2.3 0zm33 .7a2.6 2.6 0 1 0 0 5.2 2.6 2.6 0 0 0 0-5.2zm0 3.4a.8.8 0 0 1 0-1.6.8.8 0 0 1 0 1.6zm-6.3 4.4h.3c3.5 0 6.3 2.9 6.3 6.5 0 3.5-2.7 6.3-6.1 6.4H7.5A7 7 0 0 1 1.6 29C.8 27.8.3 26.2.3 24.6c0-4.6 3.6-8.3 8-8.3.7 0 1.4.1 2 .3a9.7 9.7 0 0 1 8.6-5.8c4.7 0 8.6 3.7 9.6 8.8zm-21 10.3h21.3c2 0 3.4-1.6 3.4-3.6 0-2.1-1.6-3.8-3.5-3.8h-.3c-1.3 0-2.4-.9-2.6-2.2-.8-3.8-3.6-6.5-6.9-6.5-2.5 0-4.8 1.6-6 4.2a2.7 2.7 0 0 1-3.2 1.5l-1.3-.2c-2.9 0-5.2 2.5-5.2 5.5 0 1.1.3 2.2.9 3v.1c.7 1.3 2 2 3.5 2z" fill="url(#tactiq)"/>
    <path d="M52.8 24.3V10.5h-4.9V8.1h12.6v2.4h-4.8v13.8h-3zM62.7 24.5c-2.4 0-4-1.5-4-3.6 0-2.2 1.6-3.4 4.5-3.6l3.1-.2v-.8c0-1.2-.8-2-2.2-2-1.3 0-2.1.7-2.3 1.5v.1h-2.6c.2-2.2 2-3.8 5-3.8s4.9 1.6 4.9 4v8.2h-2.8v-1.9a4 4 0 0 1-3.6 2zm-1.2-3.7c0 1 .8 1.5 2 1.5 1.6 0 2.8-1 2.8-2.4v-1l-2.7.2c-1.4.1-2.1.7-2.1 1.7zM76.4 24.5c-3.6 0-5.8-2.4-5.8-6.2 0-3.8 2.3-6.2 5.7-6.2 3.2 0 5.1 2 5.3 4.4H79c-.3-1.2-1.1-2.1-2.6-2.1-1.8 0-3 1.5-3 4 0 2.4 1.2 3.8 3 3.8 1.4 0 2.3-.8 2.6-2V20h2.6c-.2 2.5-2.2 4.4-5.2 4.4zM87.5 24.5c-2.5 0-3.7-1-3.7-3.5v-6.5h-1.7v-2.1h1.7v-3h2.9v3h2.2v2.1h-2.2v6.3c0 1.2.5 1.5 1.5 1.5h.7v2.1l-1.4.1zM92 10.7c-.8 0-1.5-.7-1.5-1.6 0-.8.7-1.5 1.5-1.5 1 0 1.6.7 1.6 1.5 0 .9-.7 1.6-1.6 1.6zm-1.4 13.6v-12h2.8v12h-2.8zM103.8 28.2v-6a4 4 0 0 1-3.8 2.3c-3 0-4.9-2.4-4.9-6.2 0-3.8 2-6.2 5-6.2a4 4 0 0 1 3.6 2.3v-2h2.9v15.8h-2.8zm-3-6c1.8 0 3-1.6 3-3.9s-1.2-3.8-3-3.8c-1.7 0-2.8 1.5-2.8 3.8 0 2.4 1 3.8 2.9 3.8z" fill="#aaa"/>
    <defs>
        <linearGradient id="tactiq" x1="26.5" y1="34" x2="17" y2="16.5" gradientUnits="userSpaceOnUse">
            <stop stop-color="color(display-p3 .5373 .4431 .8784)"/>
            <stop offset="1" stop-color="color(display-p3 .8976 .4624 .767)"/>
        </linearGradient>
    </defs>
</svg>