<svg xmlns="http://www.w3.org/2000/svg" width="125" viewBox="0 0 180 76.81">
    <g fill="#422918">
        <path d="M79.66,56.61l-4.32-5.8-.93,.73v4.18c0,.87-.7,1.51-1.57,1.51s-1.57-.64-1.57-1.51v-17.87c0-.87,.67-1.51,1.57-1.51s1.57,.64,1.57,1.51v10.24l5.25-4.12c.38-.29,.67-.38,1.02-.38,.84,0,1.51,.67,1.51,1.51,0,.43-.2,.9-.58,1.19l-3.8,2.9,4.26,5.6c.23,.32,.32,.64,.32,.93,0,.84-.67,1.51-1.51,1.51-.55,0-.96-.26-1.22-.61Z"/>
        <path d="M87.04,47.24c0,2.15,7.14,1.16,7.14,5.95,0,2.73-2.32,4.12-5.31,4.12-2.49,0-4.41-1.13-5.13-2.03-.23-.29-.35-.55-.35-.9,0-.75,.64-1.39,1.39-1.39,.29,0,.58,.09,.9,.35,.78,.64,1.74,1.19,3.19,1.19,1.31,0,2.15-.35,2.15-1.16,0-2.35-7.11-1.13-7.11-6.06,0-2.61,2.18-3.89,4.84-3.89,2.06,0,3.89,.78,4.7,1.8,.17,.23,.29,.43,.29,.87,0,.75-.64,1.39-1.39,1.39-.41,0-.67-.17-.99-.41-.64-.47-1.42-.93-2.61-.93-1.07,0-1.71,.38-1.71,1.1Z"/>
        <path d="M95.98,40.19c0-1.33,.67-1.92,1.86-1.92s1.89,.58,1.89,1.92c0,1.13-.67,1.83-1.89,1.83s-1.86-.7-1.86-1.83Zm3.42,15.46c0,.87-.7,1.57-1.57,1.57s-1.57-.7-1.57-1.57v-10.5c0-.87,.7-1.57,1.57-1.57s1.57,.7,1.57,1.57v10.5Z"/>
        <path d="M104.33,47.3c-.29,.2-.52,.29-.87,.29-.76,0-1.36-.61-1.36-1.36,0-.32,.12-.67,.38-.96,.81-.9,2.26-1.86,4.76-1.86,3.6,0,5.75,1.77,5.75,4.84v7.43c0,.84-.7,1.54-1.54,1.54s-1.54-.7-1.54-1.54c-.78,1.25-2.06,1.68-3.8,1.68-2.84,0-4.73-1.77-4.73-4.38s2.17-4.09,4.7-4.09h3.8v-.52c0-1.31-.96-2.17-2.64-2.17-1.27,0-2.17,.58-2.9,1.1Zm5.54,4.84v-.81h-3.39c-1.28,0-1.97,.61-1.97,1.65,0,1.1,.78,1.77,2.41,1.77,1.54,0,2.96-.99,2.96-2.61Z"/>
        <path d="M116.3,43.81h7.46c.75,0,1.39,.64,1.39,1.39,0,.41-.15,.67-.32,.9l-6.12,8.21h5.28c.72,0,1.33,.61,1.33,1.33s-.61,1.33-1.33,1.33h-8.01c-.73,0-1.33-.61-1.33-1.33,0-.41,.14-.64,.32-.87l6.24-8.35h-4.9c-.72,0-1.3-.58-1.3-1.31s.58-1.31,1.3-1.31Z"/>
        <path d="M135.61,56.61l-4.32-5.8-.93,.73v4.18c0,.87-.7,1.51-1.57,1.51s-1.57-.64-1.57-1.51v-17.87c0-.87,.67-1.51,1.57-1.51s1.57,.64,1.57,1.51v10.24l5.25-4.12c.38-.29,.67-.38,1.02-.38,.84,0,1.51,.67,1.51,1.51,0,.43-.2,.9-.58,1.19l-3.8,2.9,4.26,5.6c.23,.32,.32,.64,.32,.93,0,.84-.67,1.51-1.51,1.51-.55,0-.96-.26-1.22-.61Z"/>
        <path d="M142.49,47.3c-.29,.2-.52,.29-.87,.29-.76,0-1.36-.61-1.36-1.36,0-.32,.12-.67,.38-.96,.81-.9,2.26-1.86,4.76-1.86,3.6,0,5.75,1.77,5.75,4.84v7.43c0,.84-.7,1.54-1.54,1.54s-1.54-.7-1.54-1.54c-.78,1.25-2.06,1.68-3.8,1.68-2.84,0-4.73-1.77-4.73-4.38s2.18-4.09,4.7-4.09h3.8v-.52c0-1.31-.96-2.17-2.64-2.17-1.27,0-2.17,.58-2.9,1.1Zm5.54,4.84v-.81h-3.39c-1.28,0-1.97,.61-1.97,1.65,0,1.1,.78,1.77,2.41,1.77,1.54,0,2.96-.99,2.96-2.61Z"/>
        <path d="M166.73,43.41c3.8,0,5.89,2.23,5.89,6.96s-2.12,6.99-5.89,6.99c-1.45,0-2.73-.47-3.43-1.25v5.13c0,.87-.7,1.57-1.57,1.57s-1.57-.7-1.57-1.57v-16.1c0-.87,.7-1.57,1.57-1.57s1.57,.7,1.57,1.57c.44-.73,1.8-1.74,3.43-1.74Zm-.41,2.67c-2.03,0-3.1,1.45-3.1,4.32s1.07,4.29,3.1,4.29,3.1-1.45,3.1-4.29-1.07-4.32-3.1-4.32Z"/>
        <path d="M178,37.9v15.9c0,.35,.35,.52,.55,.52,.81,0,1.45,.64,1.45,1.45s-.64,1.45-1.45,1.45c-2.26,0-3.68-1.28-3.68-3.71v-15.61c0-.87,.69-1.57,1.57-1.57s1.57,.69,1.57,1.57Z"/>
        <g fill="#e64f13">
            <path d="M72.15,19.63c0-.84,.7-1.54,1.54-1.54s1.54,.7,1.54,1.54v2.44h1.31c.72,0,1.31,.58,1.31,1.31s-.58,1.31-1.31,1.31h-1.31v7.02c0,.67,.58,1.04,1.1,1.04,.76,0,1.37,.61,1.37,1.36s-.61,1.36-1.37,1.36c-2.58,0-4.18-1.65-4.18-3.95v-6.85h-.67c-.72,0-1.31-.58-1.31-1.31s.58-1.31,1.31-1.31h.67v-2.44Z"/>
            <path d="M82.02,25.54c-.29,.2-.52,.29-.87,.29-.76,0-1.37-.61-1.37-1.36,0-.32,.12-.67,.38-.96,.81-.9,2.26-1.86,4.76-1.86,3.6,0,5.74,1.77,5.74,4.84v7.43c0,.84-.7,1.54-1.54,1.54s-1.54-.7-1.54-1.54c-.78,1.25-2.06,1.68-3.8,1.68-2.84,0-4.73-1.77-4.73-4.38s2.18-4.09,4.7-4.09h3.8v-.52c0-1.31-.96-2.18-2.64-2.18-1.27,0-2.18,.58-2.9,1.1Zm5.54,4.84v-.81h-3.39c-1.28,0-1.97,.61-1.97,1.65,0,1.1,.79,1.77,2.41,1.77,1.54,0,2.96-.99,2.96-2.61Z"/>
            <path d="M105.02,26.7v7.25c0,.87-.7,1.51-1.57,1.51-.93,0-1.57-.64-1.57-1.51v-6.67c0-1.65-.67-2.79-2.55-2.79-2.18,0-2.9,1.28-2.9,2.99v6.47c0,.87-.67,1.51-1.57,1.51s-1.57-.64-1.57-1.51v-10.56c0-.87,.7-1.57,1.57-1.57s1.57,.7,1.57,1.57c.55-.84,1.77-1.74,3.71-1.74,3.95,0,4.87,2.52,4.87,5.05Z"/>
            <path d="M107.42,18.44c0-1.33,.66-1.91,1.86-1.91s1.89,.58,1.89,1.91c0,1.13-.67,1.83-1.89,1.83s-1.86-.7-1.86-1.83Zm3.42,15.46c0,.87-.7,1.57-1.57,1.57s-1.57-.7-1.57-1.57v-10.5c0-.87,.7-1.57,1.57-1.57s1.57,.7,1.57,1.57v10.5Z"/>
            <path d="M115.76,25.54c-.29,.2-.52,.29-.87,.29-.75,0-1.36-.61-1.36-1.36,0-.32,.12-.67,.38-.96,.81-.9,2.26-1.86,4.76-1.86,3.6,0,5.74,1.77,5.74,4.84v7.43c0,.84-.7,1.54-1.54,1.54s-1.54-.7-1.54-1.54c-.78,1.25-2.06,1.68-3.8,1.68-2.84,0-4.73-1.77-4.73-4.38s2.17-4.09,4.7-4.09h3.8v-.52c0-1.31-.96-2.18-2.64-2.18-1.28,0-2.17,.58-2.9,1.1Zm5.54,4.84v-.81h-3.4c-1.27,0-1.97,.61-1.97,1.65,0,1.1,.78,1.77,2.41,1.77,1.54,0,2.96-.99,2.96-2.61Z"/>
            <path d="M153.68,55.33c0-1.31,.7-1.94,1.91-1.94s1.89,.64,1.89,1.94-.67,1.89-1.89,1.89-1.91-.61-1.91-1.89Z"/>
            <polygon points="27.72 68.7 27.72 76.81 30.43 74.44 33 76.81 33 68.7 30.4 67.88 27.72 68.7"/>
        </g>
        <g>
            <path d="M23.28,13.54c-.3,0-.59,.05-.87,.15,.41,.21,.69,.63,.69,1.12,0,.7-.57,1.27-1.27,1.27-.49,0-.91-.28-1.12-.69-.09,.27-.14,.56-.14,.86,0,1.49,1.21,2.71,2.71,2.71s2.7-1.21,2.7-2.71-1.21-2.7-2.7-2.7Z"/>
            <path d="M37.56,13.54c-.3,0-.59,.05-.87,.15,.41,.21,.69,.63,.69,1.12,0,.7-.57,1.27-1.27,1.27-.49,0-.91-.28-1.12-.69-.09,.27-.14,.56-.14,.86,0,1.49,1.21,2.71,2.7,2.71s2.7-1.21,2.7-2.71-1.21-2.7-2.7-2.7Z"/>
            <path d="M41.93,7.03c-.26,0-.52-.05-.77-.17l-7.24-3.36c-.92-.43-1.32-1.52-.89-2.44,.43-.92,1.52-1.32,2.43-.89l7.24,3.36c.92,.43,1.32,1.52,.89,2.44-.31,.67-.97,1.06-1.66,1.06Z"/>
            <path d="M18.93,7.03c-.69,0-1.35-.39-1.66-1.06-.43-.92-.03-2.01,.89-2.44L25.39,.17c.92-.43,2.01-.03,2.43,.89,.43,.92,.03,2.01-.89,2.44l-7.24,3.36c-.25,.12-.51,.17-.77,.17Z"/>
            <path d="M57.02,21.64c-2.25-.04-6.24-.06-11.86-.06-.2,0-.39,0-.58,0,1.12-1.49,1.79-3.34,1.79-5.34,0-4.92-4-8.92-8.92-8.92-2.89,0-5.46,1.39-7.08,3.52-1.63-2.14-4.2-3.52-7.09-3.52-4.92,0-8.92,4-8.92,8.92,0,2.07,.72,3.98,1.9,5.49-.19,0-.37-.01-.57-.01-11.99,0-13.57-.02-13.77-.02-.14,0-.27,0-.41,.03-.88,.15-1.52,.92-1.52,1.8v31.68c0,1.01,.82,1.83,1.83,1.83,.19,0,.37-.03,.54-.08,.25-.03,1.09-.11,3.65-.17v4.65c0,1.01,.82,1.83,1.83,1.83h3.36v5.13c0,.58,.28,1.13,.74,1.47,.32,.24,.7,.36,1.09,.36,.18,0,.36-.02,.53-.08l14.14-4.27,2.55-.77h.17s2.55,.83,2.55,.83l13.93,4.21c.17,.05,.35,.08,.53,.08,.39,0,.77-.12,1.09-.36,.47-.35,.74-.89,.74-1.47v-5.13h3.36c1.01,0,1.83-.82,1.83-1.83v-4.9c2.31,.11,3.14,.25,3.39,.31,.38,.19,.83,.24,1.26,.13,.81-.21,1.38-.94,1.38-1.78V23.53c0-1.83-1.54-1.86-3.49-1.89Zm-19.57-10.65c2.9,0,5.25,2.36,5.25,5.25s-2.36,5.25-5.25,5.25-5.25-2.35-5.25-5.25,2.36-5.25,5.25-5.25Zm-14.17,0c2.9,0,5.25,2.36,5.25,5.25s-2.35,5.25-5.25,5.25-5.25-2.35-5.25-5.25,2.36-5.25,5.25-5.25Zm-8.39,54.96v-2.67h8.82l-8.82,2.67Zm-5.2-6.33v-2.88c1.44-.01,3.14-.02,5.18-.02,6.11,0,9.57,1.48,11.48,2.9H9.69Zm18.73-26.96c-1.72-1.43-4.93-2.82-10.92-2.82-4.79,0-6.9,0-7.8,0-.05,0-.11-.01-.16-.01-.1,0-.24,0-.37,0-.05,0-.07,0-.09,0h0c-.47,.06-.97,.23-.97,.92,0,.72,.57,.87,.97,.91h0s.02,0,.04,0c.09,0,.17,0,.23,0h1.25c1.23,0,3.34,0,6.9,0,8.27,0,10.4,2.74,10.92,3.84v5.34c-1.72-1.43-4.93-2.82-10.92-2.82-1.95,0-3.33,0-4.3,0-.06-.01-.14-.03-.2-.02h-1.05c-.28,0-.52,0-.74,.02-.17,0-.24,0-.26,0v.02c-.64,.06-.96,.25-.96,.89,0,.63,.23,.83,.96,.89v.02s.16,0,.32,0c.27,0,.6,0,.99,0,1,0,2.65,0,5.23,0,8.27,0,10.4,2.74,10.92,3.84v4.64c-1.63-1.35-4.59-2.67-9.96-2.8-.08-.02-.16-.03-.25-.03h-4.74c-.2,.01-.38,.01-.55,.02-.18,0-.27,0-.29,0v.02c-.59,.06-.95,.25-.95,.9,0,.64,.3,.83,.95,.89v.02s.16,0,.35,0c.21,0,.44,0,.69,0h3.83c8.27,0,10.4,2.74,10.92,3.84v5.4c-2.53-1.83-6.72-3.56-13.55-3.56-5.2,0-8.97,.05-11.21,.15V25.38c1.77,0,5.24,.01,12.03,.01,10.96,0,12.55,3.98,12.72,4.56v2.7Zm-.83-8.6c1.09-.6,2.03-1.43,2.78-2.41,.76,.99,1.71,1.83,2.82,2.43-1.21,.67-2.12,1.41-2.8,2.12-.65-.72-1.56-1.47-2.8-2.14Zm18.03,41.9l-8.82-2.67h8.82v2.67Zm5.2-6.33h-16.1c2.26-1.57,5.98-3.22,11.67-3.22,1.72,0,3.18,.02,4.43,.04v3.18Zm6.03-6.59c-1.97-.19-5.17-.3-10.46-.3-6.98,0-11.55,2.21-14.3,4.27v-6.91c1.23-1.23,3.98-2.73,10.12-2.73h3.83c.26,0,.49,0,.7,0,.2,0,.32,0,.35,0v-.02c.65-.06,.95-.25,.95-.89s-.36-.84-.95-.9v-.02s-.11,0-.29,0c-.17,0-.36,0-.55,0h-4.74s0-.01,0-.01c-.09,0-.17,.01-.25,.03-4.59,.12-7.42,1.09-9.16,2.21v-5.17c1.23-1.23,3.98-2.73,10.12-2.73,2.58,0,4.23,0,5.23,0,.39,0,.72,0,.99,0,.16,0,.28,0,.32,0v-.02c.73-.06,.96-.26,.96-.89,0-.64-.32-.84-.96-.89v-.02s-.1,0-.27,0c-.22,0-.46-.01-.74-.01h-1.05c-.06,0-.13,0-.19,.02-.97,0-2.35,0-4.3,0-5.16,0-8.26,1.03-10.12,2.23v-5.87c1.23-1.23,3.98-2.73,10.12-2.73,2.99,0,4.85,0,5.96,0,.44,0,.8,0,1.1-.01,.15,0,.27,0,.31,0v-.02c.75-.07,.96-.26,.96-.89,0-.64-.28-.84-.96-.9v-.02s-.1,0-.25,0c-.25-.01-.55-.01-.89-.01v.02c-1.01,0-2.86,0-6.23,0-5.16,0-8.26,1.03-10.12,2.23v-2c.35-.81,2.59-4.83,13.07-4.83,6.68,0,10.02,.03,11.68,.06v27.73Z"/>
        </g>
    </g>
</svg>