<svg width="170" height="auto" viewBox="0 0 66.129 6.103" xmlns="http://www.w3.org/2000/svg">
   <path d="M34.793 17.816c-3.19 0-5.775-2.57-5.775-5.743 0-3.17 2.586-5.741 5.775-5.741 3.189 0 5.774 2.57 5.774 5.741 0 3.172-2.585 5.743-5.774 5.743m-23.195 0c-3.19 0-5.775-2.57-5.775-5.743 0-3.17 2.585-5.741 5.775-5.741 3.189 0 5.774 2.57 5.774 5.741 0 3.172-2.585 5.743-5.774 5.743m34.76-6.362c-.001-.032-.002-.065-.005-.097a11.367 11.367 0 0 0-.123-1.116c-.004-.018-.005-.038-.009-.057a11.143 11.143 0 0 0-.246-1.128v-.002A11.582 11.582 0 0 0 34.792.54H11.597C5.78.54.975 4.808.142 10.364l-.003.024c-.053.355-.088.714-.107 1.078-.001.02-.005.038-.006.058v.05c-.007.166-.025.33-.025.5 0 .209.02.413.032.62l.004.096c.024.377.065.75.124 1.117l.009.055c.908 5.469 5.672 9.644 11.429 9.644H46.39V12.074c0-.21-.02-.414-.031-.62" fill="#7b7b82" mask="url(#b-3)" transform="matrix(.26458 0 0 .26458 0 -.143)" fill-rule="evenodd"/>
   <path d="M11.927 17.816a5.742 5.742 0 1 1 0-11.485 5.742 5.742 0 0 1 0 11.485m0-17.275C5.557.54.394 5.704.394 12.073v11.533h11.533c6.369 0 11.532-5.163 11.532-11.532C23.46 5.703 18.296.54 11.927.54" fill="#ffbc00" transform="matrix(.26458 0 0 .26458 12.964 -.143)" fill-rule="evenodd"/>
   <path d="M23.503 5.826V1.428h1.574V.413H20.76v1.015h1.583v4.398zm9.778 0V.413h-1.16V2.54h-2.557V.413h-1.152v5.413h1.152v-2.28h2.556v2.28zm8.71 0L39.905.413h-1.444l-2.085 5.413h1.306l.341-.917h2.32l.341.917zm-1.964-1.932H38.34l.844-2.328zm9.904 1.932V.413H48.78v3.4l-2.507-3.4h-1.185v5.413h1.152v-3.53l2.58 3.53zm6.293.097c.974 0 1.744-.398 2.296-1.014V2.83h-2.58v1.007h1.428v.649c-.22.203-.665.414-1.144.414-.99 0-1.704-.755-1.704-1.777 0-1.023.714-1.777 1.704-1.777.568 0 1.03.324 1.282.706l.95-.52C58.05.893 57.343.324 56.223.324c-1.59 0-2.889 1.088-2.889 2.8 0 1.704 1.299 2.799 2.889 2.799zm7.739 0c1.452 0 2.166-.747 2.166-1.736 0-2.02-3.108-1.445-3.108-2.297 0-.324.276-.535.763-.535.552 0 1.136.186 1.574.592l.641-.86c-.535-.495-1.25-.755-2.11-.755-1.273 0-2.052.747-2.052 1.647 0 2.037 3.116 1.38 3.116 2.321 0 .317-.3.6-.942.6-.746 0-1.339-.34-1.72-.738l-.633.9c.511.512 1.258.861 2.305.861z" fill="#aeafaf"/>
</svg>