<svg width="100" viewBox="0 0 248.1 88.5">
  <path fill="#a1d9f9" d="M52 87.4c3.2-25.9 9.9-77.7 10-77.8l2.4 1.2a58.6 58.6 0 0 0 13 5.6c.1.1-20.7 58.8-25 70.7l-.5 1.4zm29.9-70.3c-1.9-.2-4.1-.7-4.1-.9L83.6 0c.2-.4 4.7 2.9 7 5.2 3.4 3.4 4.5 6.6 3 9.2-.2.5-.5 1-.5.8l-1 .5c-.5.4-1.5.8-2.3 1a25 25 0 0 1-8 .4z"/>
  <path fill="#f79b2b" d="M48.5 87c0-.3-.2-.7-.3-.8l-.3-.6-.2-.7a112.2 112.2 0 0 0-3.4-8.7A70 70 0 0 0 41 68a19.1 19.1 0 0 0-2-5.2c.1-.5-.6-2.5-.8-2.5-.2 0-.2 0-.1-.2a38.6 38.6 0 0 0-2.4-7A301.3 301.3 0 0 0 31 39.8a41.8 41.8 0 0 0-2.5-6.8c.1 0-.1-.9-.5-2-.4-1-.6-2-.5-2a428.6 428.6 0 0 0 19.3 3.2h1.5l.1 2.8c.3 4.7.5 52.5.3 52.5s-.3-.2-.3-.5zM21.3 27a57 57 0 0 1-18.4-7c0 .2-2.1-2.3-2.5-3.1-.6-1.1-.5-3 .2-4.5 1.3-2.8 5.7-6 12.7-9.5l4.3-2c.2 0 9.4 27.5 9.3 27.5 0 0-2.6-.5-5.6-1.3z"/>
  <path fill="#f9431b" d="M28.8 58.8l-23-34L2 19.6l1.7 1.1c3.6 2.4 9.2 4.6 17.9 6.7l5.5 1.4 1 2.8 3 8.4a1385.1 1385.1 0 0 0 17.2 47.3L28.8 58.8z"/>
  <path fill="#5f5e5f" d="M165.8 73.9H166.7h-.9zm-50.5-.8c-.1-.2 1.1-.2 2.7-.2 5.2.2 5.7.2 1.5.3l-4.2-.1zm87.5-21.7V40.7a1977.8 1977.8 0 0 1 0 10.7zm7.1 0c0-12 0-16.8.1-10.7a1975.4 1975.4 0 0 1 0 10.7zm-44.7 15h.9c.2.1 0 .2-.5.2s-.7 0-.4-.1zm2 0h1c.3.1 0 .2-.5.2s-.7 0-.4-.1zM218 65l-.1-14V37.4h10.4-5.1l-5.1.1V65l5.2.1h5.3l-5.3.2c-4 0-5.2 0-5.3-.3zm-37.1-13.6v-.8.8zm8-.1v-.7.7zm-36.3 0v-.6.6z"/>
  <path fill="#aaa" d="M52.7 86.7l25-70s1.2 0 2.6.3c1.8.4 3.4.5 5.7.4 3-.1 3.4-.2 5-1l1.9-.8-.5.8A14000.6 14000.6 0 0 0 52.8 87c-.1.2-.2.1-.1-.2zm108.6-13.3a20 20 0 0 1-13.4-9.4c-2-3.3-2.9-6.6-3.1-11.1a23 23 0 0 1 8.2-19.5c3.7-2.8 8.5-4.3 13.5-4.3 6.7 0 11.7 1.9 15.8 6 3.1 3.2 5 7 6 11.6.6 3.4.4 8.7-.6 11.8A20 20 0 0 1 173.6 73c-2.7.8-9.6 1-12.3.4zm8.3-7a14 14 0 0 0 7.4-3.9c2.6-2.8 3.8-6.4 3.8-11 0-3.5-.5-5.6-1.9-8.2a13 13 0 0 0-11.2-7A13.7 13.7 0 0 0 153 47.1c-.6 2.2-.6 6.4 0 8.8 1.8 7.6 8.4 11.7 16.6 10.5zM115 72.5L97.6 30h8.9l6.2 16.2 6.5 16.8c.2.4 1.6-3 6.8-16.2l6.5-16.8h8.8l-8.8 21.6-8.8 21.4h-4.2c-3.7 0-4.2 0-4.4-.5zm79.6-21V29.8h8V73h-8zm15.4 0V29.8h9.6c9.8 0 11.7.1 14.7 1 3.2 1 5.3 2.4 7.7 4.8 4.4 4.4 6.3 9.9 6 17-.4 8.4-4.5 15-11.3 18.2-3.9 1.7-6.7 2-18 2H210zm21.3 13c2.3-.7 3.7-1.5 5.3-3.2 2.5-2.6 3.5-5.6 3.5-10 0-6.6-3-11.3-8.7-13.3-1.6-.5-2.2-.6-7.7-.6h-6V65c.2.3 1.3.3 6 .2 5 0 6.2-.2 7.6-.6z"/>
</svg>