<svg xmlns="http://www.w3.org/2000/svg" width="145" height="19.777" viewBox="0 0 124.681 17.006" >
   <path fill="#fbfaf9" d="M22.457 16.883c-1.537-.327-3.776-1.54-4.685-2.539-1.106-1.215-1.78-2.582-2.176-4.419-.275-1.275-.258-1.764.118-3.257.745-2.966 2.106-4.606 4.925-5.934 1.275-.6 1.782-.683 4.1-.666 2.333.016 2.826.105 4.159.754 1.684.819 3.314 2.431 4.186 4.141.885 1.735.814 5.164-.15 7.199-1.329 2.807-4.161 4.603-7.588 4.809-1.06.064-2.361.024-2.889-.088zm3.984-3.893c1.998-.8 3.336-3.545 2.717-5.576-.493-1.619-1.275-2.673-2.413-3.254-3.185-1.625-6.635.569-6.635 4.218 0 3.707 3.046 5.926 6.33 4.612zm16.29 3.898c-2.507-.45-4.904-2.149-6.081-4.31-.642-1.177-.79-1.803-.882-3.706-.097-2.012-.031-2.463.543-3.716.938-2.05 2.124-3.265 4.132-4.237C42.066.133 42.407.068 44.848.07c2.33.003 2.822.088 4.127.719 4.533 2.19 6.206 7.24 3.922 11.841-1.156 2.332-4.137 4.124-7.19 4.323-1.055.07-2.394.04-2.976-.065zm4.018-3.992c1.672-.76 2.527-2.222 2.547-4.356.013-1.42-.102-1.88-.695-2.776-.85-1.283-2.405-2.143-3.878-2.143-2.444 0-4.505 2.239-4.505 4.894 0 3.611 3.32 5.838 6.53 4.381zm48.9 3.96c-2.7-.59-4.94-2.271-6.167-4.626-.6-1.151-.695-1.658-.694-3.715 0-1.92.117-2.627.598-3.65.773-1.64 2.355-3.16 4.235-4.068 2.199-1.063 6.088-1.063 8.287 0 1.873.904 3.383 2.351 4.212 4.037.538 1.091.639 1.683.63 3.681-.01 2.048-.11 2.571-.714 3.733-.903 1.74-2.933 3.548-4.658 4.148-1.628.567-4.273.78-5.73.46zm4.076-3.922c.497-.247 1.27-.907 1.72-1.467.747-.928.818-1.185.818-2.952 0-1.766-.071-2.023-.818-2.952-1.503-1.87-3.676-2.428-5.609-1.441-1.213.618-1.77 1.22-2.295 2.476-1.322 3.167.935 6.795 4.224 6.789.582-.001 1.464-.205 1.96-.453zm-94.697-2.55V3.894l-.637-.16c-.35-.088-1.482-.12-2.514-.07L0 3.752V1.967L.002.181h14.552v3.42l-2.447.076-2.448.076-.132 6.482-.132 6.483-2.183.076-2.183.077zm51.775 6.294c-.1-.1-.181-3.852-.181-8.339V.181h4.498v12.965l.86.045c.473.026 2.229.055 3.902.067l3.043.02v3.44l-5.97.07c-3.284.04-6.052-.01-6.152-.11zm14.547-.005c-.097-.097-.176-3.847-.176-8.334V.18l4.829.003c6.406.004 8.268.488 9.47 2.459.573.938.676 2.556.22 3.442-.162.318-.609.914-.991 1.325-.768.825-.833.672.786 1.854.701.512 1.297 1.935 1.297 3.1 0 2.099-1.355 3.43-4.174 4.105-1.574.376-10.92.546-11.26.204zm10.407-3.792c.689-.689.672-1.534-.046-2.298-.529-.564-.793-.613-3.307-.613h-2.732v3.44h2.778c2.426 0 2.845-.067 3.307-.53zm-.793-6.615c.683-.683.674-1.638-.022-2.268-.448-.406-.974-.5-2.844-.504l-2.294-.006-.079 1.654-.078 1.653h2.394c2.04 0 2.471-.078 2.923-.529zm26.723 10.416c0-.207 1.1-2.032 1.333-2.214.094-.072.627-.787 1.183-1.587.557-.8 1.47-2.061 2.027-2.802.557-.741 1.013-1.504 1.013-1.697 0-.192-.627-1.193-1.394-2.224a142.665 142.665 0 0 1-2.448-3.405 736.62 736.62 0 0 0-1.416-2.05c-.353-.508-.297-.522 2.154-.522h2.517l1.623 2.37c.975 1.423 1.759 2.319 1.961 2.24.186-.07.562-.512.835-.98.273-.469.955-1.477 1.516-2.241L119.61.18h2.268c1.826 0 2.242.073 2.129.368-.078.201-1.338 1.997-2.802 3.99l-2.66 3.625 1.232 1.764c.678.97 1.847 2.597 2.597 3.615.75 1.019 1.576 2.18 1.835 2.58l.472.728h-5.074l-1.63-2.448c-.896-1.346-1.723-2.55-1.837-2.677-.115-.126-.992.975-1.95 2.448l-1.744 2.677h-2.38c-1.308 0-2.38-.076-2.38-.168z"/>
</svg>