<svg width="80" height="auto" viewBox="0 0 100.821 34.737" fill="none" xmlns="http://www.w3.org/2000/svg">
    <path fill-rule="evenodd" clip-rule="evenodd" d="M78.12 24.6l2.444.84c2.61.89 3.804 2.314 3.804 4.629 0 3.063-2.622 4.628-5.93 4.628-2.088 0-3.919-.61-5.039-1.323v-3.206a8.507 8.507 0 0 0 4.977 1.727c1.577 0 2.772-.483 2.772-1.704 0-1.012-.658-1.393-1.827-1.826l-2.293-.762c-2.313-.764-3.84-1.96-3.84-4.553 0-2.911 2.493-4.477 5.548-4.477a9.002 9.002 0 0 1 4.75 1.221v3.18c-1.348-.993-2.823-1.627-4.633-1.627-1.399 0-2.467.482-2.467 1.55 0 .967.627 1.348 1.734 1.703zm-45.184-5.776h-3.255v15.615h9.425l1.102-2.875h-7.272zm8.943 15.615l5.978-15.615h3.23l5.98 15.615h-3.3l-1.4-3.765H46.51l-1.376 3.765zm7.555-11.699l-1.908 5.19h3.817zm19.007 3.637c1.147-.407 2.063-1.628 2.063-3.306 0-2.797-2.01-4.247-5.269-4.247h-5.98v15.615h6.49c3.258 0 5.242-1.566 5.242-4.436a3.802 3.802 0 0 0-2.546-3.627zm-6.057-4.806h2.648c1.566 0 2.365.558 2.365 1.806 0 1.247-.812 1.855-2.365 1.855h-2.648zm3.081 10.12h-3.08v-3.913h3.08c1.527 0 2.35.738 2.35 1.96 0 1.22-.828 1.953-2.35 1.953zM25.867 10.674L19.476.156h6.391zM15.793.325L.248 6.885l12.776 2.684zm8.75 11.661L17.613.576l-2.81 9.369zm-9.21-.075l10.534 22.826v-20.57l-.034-.053zm7.852 21.341L0 8.689l13.122 2.756zM49.99 0c-4.352 0-7.38 3.392-7.38 8.062s3.028 8.062 7.38 8.062c4.353 0 7.405-3.408 7.405-8.062C57.395 3.407 54.34 0 49.99 0zm0 13.225c-2.47 0-4.072-2.11-4.072-5.163 0-3.053 1.603-5.16 4.072-5.16 2.47 0 4.123 2.11 4.123 5.16 0 3.05-1.63 5.163-4.123 5.163zM29.054.25V3.1h5.013v12.765h3.284V3.1h3.945L42.39.25zm31.114 0h6.362c3.308 0 5.499 1.806 5.499 5.111 0 3.306-2.188 5.088-5.496 5.088H63.4v5.416h-3.232zM63.4 7.68h2.927c1.678 0 2.493-.97 2.493-2.308 0-1.409-.815-2.348-2.493-2.348H63.4zM77.613.25l-5.979 15.615h3.256l1.376-3.765h5.85l1.4 3.765h3.31L80.847.25zm-.331 9.106l1.908-5.19 1.909 5.19zm18.5-6.257h-7.047V.25h12.086v.102L93.492 12.99h7.227v2.875H88.404v-.102z" fill="#fff"/>
    <defs id="defs11">
        <clipPath id="clip0_158_386">
            <path fill="#fff" id="rect8" d="M0 0h165.415v24H0z"/>
        </clipPath>
    </defs>
</svg>