<svg width="100" viewBox="0 0 48.052 17.862">
   <g data-name="Layer 3" transform="matrix(.4036 0 0 .4036 13.422 4.468)" fill="#aaa">
      <path d="M11.73 6.7H5.91V1.4A1.4 1.4 0 0 0 4.51 0a1.4 1.4 0 0 0-1.4 1.4v5.3H1.36A1.36 1.36 0 0 0 0 8.06a1.36 1.36 0 0 0 1.36 1.38h1.7v12.67a6.52 6.52 0 0 0 1.55 4.61 5.8 5.8 0 0 0 4.45 1.69 7.88 7.88 0 0 0 3.39-.73 1 1 0 0 0 .55-.89v-.85a1 1 0 0 0-1.45-.89 5.53 5.53 0 0 1-2.49.59 2.93 2.93 0 0 1-2.36-.85A4.19 4.19 0 0 1 5.91 22V9.44h5.82a1.36 1.36 0 0 0 1.35-1.35V8a1.35 1.35 0 0 0-1.35-1.3zM26.27 6.23a8.39 8.39 0 0 0-3.33.67 9.05 9.05 0 0 0-2.6 1.72 9.91 9.91 0 0 0-1 1.12V8.11A1.41 1.41 0 0 0 17.9 6.7a1.41 1.41 0 0 0-1.41 1.41v18.54a1.41 1.41 0 0 0 1.41 1.41 1.41 1.41 0 0 0 1.41-1.41V17a8.46 8.46 0 0 1 .49-2.66 9.7 9.7 0 0 1 1.4-2.64 7.9 7.9 0 0 1 2.17-2A5 5 0 0 1 26.1 9h.19a1 1 0 0 0 1-1v-.77a1 1 0 0 0-1.02-1zM32.1 6.7a1.43 1.43 0 0 0-1.42 1.42v18.55a1.39 1.39 0 0 0 1.39 1.39h.08a1.39 1.39 0 0 0 1.39-1.39V8.12A1.43 1.43 0 0 0 32.1 6.7zM54.29 9a8.07 8.07 0 0 0-2.89-2 10 10 0 0 0-3.87-.72 8.87 8.87 0 0 0-6 2.26 8.15 8.15 0 0 0-.72.72V8.1a1.41 1.41 0 0 0-1.41-1.4 1.41 1.41 0 0 0-1.41 1.4v18.57a1.4 1.4 0 0 0 1.4 1.39h.06a1.4 1.4 0 0 0 1.4-1.39V16.34a7.78 7.78 0 0 1 .52-2.89 7.61 7.61 0 0 1 1.45-2.35 6.45 6.45 0 0 1 2.1-1.54A6 6 0 0 1 47.43 9a6.89 6.89 0 0 1 2.8.52 5.52 5.52 0 0 1 2 1.4 6 6 0 0 1 1.18 2.21 10.34 10.34 0 0 1 .42 3v10.56a1.37 1.37 0 0 0 1.38 1.37h.1a1.37 1.37 0 0 0 1.37-1.37V16.1a12.6 12.6 0 0 0-.59-4 9 9 0 0 0-1.8-3.1zM81.42 13.09a10.63 10.63 0 0 0-2.27-3.55 11 11 0 0 0-3.51-2.41 11.28 11.28 0 0 0-4.51-.9 11.11 11.11 0 0 0-4.55.92 11 11 0 0 0-3.49 2.46 10.7 10.7 0 0 0-2.24 3.56 11.91 11.91 0 0 0 0 8.53 10.6 10.6 0 0 0 2.27 3.52 10.89 10.89 0 0 0 3.49 2.41 11 11 0 0 0 4.52.9 11.2 11.2 0 0 0 4.55-.9 10.6 10.6 0 0 0 3.5-2.44 10.92 10.92 0 0 0 2.24-3.55 11.83 11.83 0 0 0 .78-4.34 11.6 11.6 0 0 0-.78-4.21zM71.17 25.75a8.31 8.31 0 0 1-3.33-.65 8 8 0 0 1-4.32-4.45 8.86 8.86 0 0 1-.6-3.31 9 9 0 0 1 .59-3.24 8 8 0 0 1 1.67-2.65 7.9 7.9 0 0 1 2.58-1.79A8.33 8.33 0 0 1 71.1 9a8.44 8.44 0 0 1 3.32.65A8.16 8.16 0 0 1 77 11.46a8 8 0 0 1 1.7 2.65 8.67 8.67 0 0 1 .61 3.31 9 9 0 0 1-.59 3.24 7.91 7.91 0 0 1-1.67 2.65 7.81 7.81 0 0 1-2.58 1.79 8.33 8.33 0 0 1-3.3.65z"/>
      <circle cx="32.12" cy="2.16" r="1.62"/>
   </g>
   <g transform="matrix(.26458 0 0 .26458 1.287 .764)">
      <path fill="#fff" d="M14.24 55.36c.92-.61-1.49-.38-1.69-.79a15 15 0 0 1-2.82-.51C8 53.62 3.9 50.85 3.47 48.25c-.43-2.6 0-7.65 1.83-10.61A17 17 0 0 1 9.73 33s-3.57-8.49-3.88-14.9C5.54 11.69 6 .21 10.24 0c4.24-.21 3.49 10.48 2.82 17.43a89.47 89.47 0 0 0-.21 13.89 19.45 19.45 0 0 1 5.51-.92 21.2 21.2 0 0 1 4.9.46s1.32-9.86 5.74-16C33.42 8.72 38 2.4 41 4.19c3 1.79-.81 8.19-3.46 11.52s-7.25 8.33-8.78 11a47.26 47.26 0 0 0-2.65 5.51 15 15 0 0 1 6.4 6.32c2.07 4.28 2.27 9.59 1.15 11.83a8.1 8.1 0 0 1-5.61 4c-1.32.1-6.91 1.48-6.91 1.48z"/>
      <path fill="#dd00a1" d="M24 30.94s3.33-8.7 6.32-13.6 7-8.59 8.26-7.84c1.26.75-2.58 5.35-5.92 9.82a112.3 112.3 0 0 0-7.44 12.37zM10.64 32.44l.95-.75s-.13-8.7 0-14c.13-5.3.41-11.91-1.36-11.84-1.77.07-3 5.15-2.31 12.38a86.92 86.92 0 0 0 2.72 14.21z"/>
      <circle fill="#f9d8d2" cx="7.65" cy="49.17" r="1.94"/>
      <circle fill="#f9d8d2" cx="30.57" cy="49.17" r="1.94"/>
      <path fill="#10110e" d="M22.33 49a.19.19 0 0 0-.25 0s-.57 1-1.41 1.06a2.11 2.11 0 0 1-1.5-.7V48c.54-.29 1.41-1.19 1.41-1.5a1.4 1.4 0 0 0-1.5-1.09c-1 0-1.7.65-1.7 1.19 0 .54 1.1 1.23 1.41 1.44v1.45a1.77 1.77 0 0 1-1.3.7c-.8 0-1.4-1.08-1.4-1.09a.19.19 0 0 0-.25-.08.18.18 0 0 0-.08.23c0 .06.71 1.29 1.73 1.29a2.07 2.07 0 0 0 1.5-.72 2.46 2.46 0 0 0 1.59.73h.14a2.47 2.47 0 0 0 1.71-1.25.18.18 0 0 0 0-.25.24.24 0 0 0-.1-.05z"/>
      <path fill="#e5e5e5" d="M9.73 33S7 26 6.42 22.29c-.58-3.71-1-9.78-.3-13.85a46.3 46.3 0 0 1 1.19-5.59S6 12.34 6.49 16.49C6.98 20.64 9.73 33 9.73 33zM23.26 30.85s2-10.59 4.91-14.76 6.56-9.19 8.35-10.47l1.82-1.28S31 12 28.17 18.34s-4.91 12.51-4.91 12.51z"/>
      <path fill="#10110e" d="M11.6 42.85a1.52 1.52 0 1 0 1.52 1.52 1.52 1.52 0 0 0-1.5-1.52zm.4 1.41a.42.42 0 1 1 .42-.42.42.42 0 0 1-.41.43zM26.55 42.85a1.52 1.52 0 1 0 1.51 1.53 1.52 1.52 0 0 0-1.51-1.53zm.45 1.41a.42.42 0 0 1-.43-.41.43.43 0 0 1 .41-.43.42.42 0 0 1 .43.41.41.41 0 0 1-.4.42z"/>
      <ellipse fill="#8accce" opacity=".2" cx="19.36" cy="44.95" rx="14.1" ry="10.16"/>
      <path fill="#fff" d="M36.43 39.3v-6.72a2.46 2.46 0 0 0 1.91-2.29 2.65 2.65 0 0 0-5.27 0A2.48 2.48 0 0 0 35 32.58v6.55h-.2c-2-6.94-7.91-11.28-15.63-11.28-7.72 0-13.66 4.3-15.62 11.28h-.67A2.76 2.76 0 0 0 0 41.71v5.14a2.75 2.75 0 0 0 2.88 2.59h.91a13 13 0 0 0 3.59 5.11l-1.29 1.17a.78.78 0 0 0-.09 1.1c2.93 3.53 7.72 5.6 13.13 5.6 5.41 0 10.21-2 13.14-5.6a.79.79 0 0 0-.09-1.11l-1.3-1.19a13 13 0 0 0 3.59-5.08h1a2.74 2.74 0 0 0 2.87-2.6v-5.13a2.58 2.58 0 0 0-1.91-2.41zm-17.26-4c7.14 0 12.94 4.7 12.94 10.47 0 6.25-6.51 9-12.94 9S6.23 52 6.23 45.72C6.23 40 12 35.25 19.17 35.25z"/>
      <path fill="#515151" d="M36.91 45.16H35v-1a18.61 18.61 0 0 0-.39-3.79h.82a1.35 1.35 0 0 1 1.44 1.25zM35.47 48.18h-1a16.13 16.13 0 0 0 .42-2.18h2v.85a1.34 1.34 0 0 1-1.36 1.32h-.06zM19.17 61.1c-4.79 0-9.06-1.72-11.74-4.78l1.3-1.21a17.87 17.87 0 0 0 10.4 3 17.73 17.73 0 0 0 10.4-3l1.35 1.21C28.23 59.38 24 61.1 19.17 61.1zM2.88 40.42h.85a19.33 19.33 0 0 0-.38 3.79 8.34 8.34 0 0 0 0 1H1.49v-3.5a1.27 1.27 0 0 1 1.24-1.29z"/>
      <path d="M19.17 34.39a17.66 17.66 0 0 0-4.79.69v-5.23a17.23 17.23 0 0 1 4.79-.64 17.3 17.3 0 0 1 4.8.64v5.26a15.91 15.91 0 0 0-4.8-.72z"/>
      <path fill="#515151" d="M1.44 46h2a17.56 17.56 0 0 0 .43 2.16h-1a1.35 1.35 0 0 1-1.44-1.25V46z"/>
      <ellipse fill="#515151" cx="35.71" cy="30.29" rx="1.2" ry="1.08"/>
   </g>
</svg>