<svg width="80" fill="none" viewBox="0 0 429 128">
    <g clip-path="url(#clip0_1_10)">
        <path fill="#398CCB" d="M91.5 0h-53A37.5 37.5 0 0 0 1 37.5v53A37.5 37.5 0 0 0 38.5 128h53A37.5 37.5 0 0 0 129 90.5v-53A37.5 37.5 0 0 0 91.5 0z"/>
        <path fill="#fff" fill-rule="evenodd" d="M64.9 18.8L82.6 29v5.6l21.5 12.5v21.2l5.8 3.3v20.6l-17.8 10.2-7.8-4.6L65 109l-19-11-7.8 4.5-17.8-10.3V71.6l5.6-3.2V47.1l21-12.2V29L65 18.7zM82.6 40v9.5L65 59.8 47 49.5v-9.3l-16.4 9.5v16l7.6-4.3L56 71.6v20.5l-5.3 3.1 14.4 8.4 14.6-8.4-5.3-3V71.5l17.8-10.2 7.3 4.2V49.7L82.6 40zM79 89.5V77l10.8 6.2v12.5L79 89.5zM105.3 77l-10.8 6.2v12.5l10.8-6.2V77zM25 89.5V77L36 83.2v12.5L25 89.5zM51.4 77l-10.8 6.2v12.5l10.8-6.2V77zm30-4l10.8-6.3L103 73l-10.8 6.2L81.3 73zm-43.1-6.3L27.4 73l10.9 6.2L49 73l-10.8-6.3zm13.4-19.9V34.3l10.9 6.3V53l-10.9-6.3zM78 34.3l-10.8 6.3V53L78 46.8V34.3zm-24-4L65 24.1l10.8 6.2-10.8 6.3L54 30.3z" clip-rule="evenodd"/>
        <path fill="#fff" d="M192.6 42.5V58h-41.3V42.5h41.3zM159.9 27h20.8v60.5a7 7 0 0 0 .6 3.1c.5.8 1 1.3 1.9 1.7.8.3 1.7.5 2.8.5a15.8 15.8 0 0 0 4.6-.7l3.1 15-4.2 1.1c-1.8.5-4 .7-6.4.8-4.9.3-9-.3-12.6-1.7a16.3 16.3 0 0 1-8-6.4 20 20 0 0 1-2.6-11v-63zm39.9 81.1V20.7h36c6.6 0 12.2 1.2 17 3.6 4.7 2.3 8.4 5.6 11 10 2.6 4.4 3.9 9.5 3.9 15.5s-1.3 11.2-4 15.4a25.3 25.3 0 0 1-11.2 9.6 41.8 41.8 0 0 1-17.3 3.3h-22.8V61.5h18.9c3.2 0 5.8-.4 8-1.2a10 10 0 0 0 4.8-3.9c1.2-1.7 1.7-4 1.7-6.6 0-2.7-.5-5-1.7-6.7a10 10 0 0 0-4.8-4c-2.2-1-4.9-1.4-8-1.4h-10.4V108h-21.1zm49.1-39.9l21.8 39.9h-23l-21.4-39.9H249zm25.5 39.9V20.7h36c6.6 0 12.3 1.3 17 3.9 4.8 2.5 8.5 6 11 10.6 2.6 4.5 4 9.7 4 15.7s-1.4 11.3-4 15.9c-2.7 4.4-6.4 8-11.2 10.4a37.7 37.7 0 0 1-17.3 3.7h-22.3V64.3H306c3.2 0 5.9-.6 8-1.7 2.2-1 3.8-2.6 4.9-4.6 1.1-2 1.7-4.4 1.7-7 0-2.8-.6-5-1.7-7s-2.7-3.6-4.9-4.7c-2.2-1-4.8-1.6-8-1.6h-10.4V108h-21zm152.7-55.7h-21.3c-.2-2.1-.8-4.1-1.7-5.9a14.4 14.4 0 0 0-8.7-7.3c-2-.7-4-1-6.5-1a19 19 0 0 0-11 3c-3 2.1-5.3 5.1-7 9-1.6 4-2.4 8.7-2.4 14.3 0 5.8.8 10.6 2.5 14.5 1.7 4 4 6.9 7 8.9s6.6 2.9 10.8 2.9c2.3 0 4.4-.3 6.3-.9a14.4 14.4 0 0 0 8.7-6.8c1-1.7 1.7-3.6 2-5.7l21.3.1c-.3 4-1.4 7.7-3.3 11.5a36.4 36.4 0 0 1-19.5 17.6c-4.6 1.8-10 2.7-16 2.7a43 43 0 0 1-21.2-5.2 37.4 37.4 0 0 1-14.7-15.3 50.7 50.7 0 0 1-5.4-24.3c0-9.6 1.8-17.8 5.5-24.5a37.6 37.6 0 0 1 14.9-15.2 46.6 46.6 0 0 1 35.7-3c4.4 1.5 8.4 3.6 11.8 6.4 3.4 2.8 6.1 6.2 8.3 10.3 2.1 4 3.4 8.7 4 14z"/>
    </g>
    <defs>
        <clipPath id="clip0_1_10">
            <path fill="#fff" d="M0 0h429v128H0z"/>
        </clipPath>
    </defs>
</svg>