<svg width="91" height="35">
    <path d="M8 18v2l2 1 4-1v1l-6 3-4-1-1-4V7H0V5h3V2l5-2v5h5v2H8v11zM18 35h-1l-2-6h1l2 1 4-2 1-4-7-16-1-1-1-1V5a58 58 0 0 0 10 0v1h-1l-1 1v1l4 10 4-10V7l-2-1-1-1a26 26 0 0 0 9 0v1l-2 1-1 1-9 22c-1 3-4 5-6 5zM49 22l3-2 1-6c0-4-1-6-4-6l-3 1v11l1 1 2 1zm0 13a70 70 0 0 0-11 0l-1-2h3V9l-1-2-2 1V6l7-2 1 1 1 2 2-1 3-2c3 0 5 1 6 3l2 7c0 3-1 5-3 7s-4 3-7 3l-3-1v10h4l-1 2zM67 22h2l1-2v-2l-1-1-3-1-2-1-2-2-1-3 2-4 5-2 7 1-1 5-2 1c-1-3-2-5-4-5-1 0-2 1-2 3l1 1 2 2a27 27 0 0 1 4 2l2 4-2 5-6 1-6-1a26 26 0 0 1 0-5l2-1 1 4 3 1zM84 18l1 2 2 1 3-1 1 1-6 3-4-1-2-4V7h-2V5h2V2l5-2v5h6l-1 2h-5v11z" fill="currentColor"/>
</svg>