<svg width="90" height="auto" viewBox="0 0 118.504 31.672" xmlns="http://www.w3.org/2000/svg">
   <path fill="#b9ffff" d="M6.428 8.732h19.137V24.51H6.428z"/>
   <path d="M10.87 31.451c-4.936-.686-9.217-4.423-10.437-9.11-.577-2.216-.577-10.77 0-12.986C1.439 5.49 4.628 2.15 8.643.753 10.628.062 16.544-.227 19.975.2c2.598.323 5.006 1.287 6.835 2.736 1.568 1.241 3.242 3.66 3.947 5.702.568 1.644.617 2.215.617 7.21 0 4.59-.075 5.64-.488 6.824-1.708 4.902-5.58 8.14-10.495 8.777-2.284.297-7.396.298-9.522.002zm7.14-8.35c2.045-.608 4.297-2.894 4.902-4.978.61-2.095.47-2.32-1.374-2.222-1.469.077-1.514.102-1.74.973-.536 2.081-1.991 3.207-4.144 3.207-1.643 0-2.676-.486-3.506-1.65-.544-.762-.632-1.253-.749-4.17l-.132-3.308H8.092l-.076 2.877c-.126 4.84.976 7.188 4.146 8.829 1.927.997 3.56 1.12 5.848.441zm4.812-9.279c1.011-.915.45-2.668-.996-3.107-.825-.25-1.96.742-1.96 1.712 0 1.528 1.846 2.4 2.956 1.395z" fill="#fdc024"/>
   <path d="M41.451 24.717c-1.916-.788-3.624-2.41-4.433-4.213-.538-1.196-.617-1.85-.7-5.78l-.093-4.432h4.014v3.78c0 3.399.06 3.898.595 4.945.75 1.469 1.672 2.145 3.153 2.312 1.536.173 2.864-.404 3.824-1.661.755-.99.763-1.036.846-5.188l.085-4.188h3.976l-.09 4.564c-.086 4.338-.125 4.63-.792 5.897-2.033 3.864-6.49 5.565-10.385 3.964zm38.486.09c-1.917-.758-3.777-2.666-4.406-4.521-1.318-3.88.277-7.763 3.964-9.657 1.69-.867 4.18-.96 6.096-.228 1.085.414 1.474.44 2.739.187.81-.163 1.633-.297 1.827-.297.285 0 .353 1.412.353 7.409v7.408h-1.308c-1 0-1.394-.122-1.672-.52-.361-.515-.374-.514-1.489.037-1.67.826-4.277.904-6.104.182zm4.482-3.866c1.235-.62 2.122-1.998 2.122-3.293 0-3.551-4.24-5.126-6.59-2.449-.692.788-.818 1.146-.818 2.319 0 2.98 2.694 4.725 5.286 3.423zm23.685 3.964c-1.985-.653-4.188-2.942-4.775-4.963-1.135-3.903.664-7.809 4.365-9.476 1.489-.67 4.431-.717 5.9-.093l.993.42V2.72l1.786-.43c.982-.236 1.876-.341 1.987-.233.11.108.17 5.31.132 11.558l-.069 11.36-1.204.08c-.92.06-1.314-.042-1.664-.43-.453-.5-.484-.498-1.97.114-1.783.733-3.59.788-5.48.166zm4.37-3.994c3.388-1.811 2.046-7.017-1.809-7.017-3.94 0-5.143 5.248-1.616 7.047 1.17.596 2.272.586 3.425-.03zm-57.771 4.02c-.097-.096-.177-3.43-.177-7.408v-7.232H58.495v14.817h-1.808c-.994 0-1.887-.08-1.984-.176zm5.82 0c-.097-.096-.176-.903-.176-1.791v-1.615l3.887-3.699 3.886-3.698-3.412-.132-3.413-.133-.3-1.058a62.067 62.067 0 0 1-.48-1.786l-.178-.728h13.768l-.004 1.522c-.002.837-.091 1.647-.198 1.8-.107.153-1.92 1.875-4.03 3.826-2.11 1.95-3.876 3.637-3.923 3.748-.047.111 1.553.235 3.555.276l3.64.073.343 1.323c.636 2.456 1.21 2.25-6.218 2.25-3.613 0-6.65-.08-6.746-.177zm31.958-.158c-.07-.185-.097-3.361-.058-7.06l.071-6.724 1.67-.37c.919-.205 1.842-.306 2.05-.225.318.121.381 1.285.381 7.011 0 3.776-.072 7.054-.16 7.285-.208.54-3.75.615-3.954.083zm6.854-10.505c-.312-.129-.758-.508-.992-.841-1.348-1.926.86-4.382 2.963-3.294.884.457 1.11.888 1.11 2.118 0 1.445-1.729 2.576-3.08 2.017zM55.68 6.331c-1.43-.591-1.827-2.413-.79-3.618 1.324-1.54 3.87-.558 3.87 1.493 0 1.552-1.673 2.707-3.08 2.125z" fill="#aaa"/>
</svg>