<svg width="160" height="auto" viewBox="0 0 94.842 10.284" xmlns="http://www.w3.org/2000/svg">
   <path fill="#aaa" d="M87.098 8.885c-.305-.309-.243-5.404.066-5.404.145 0 .264.121.264.27 0 .15.29.081.644-.15 1.463-.96 2.93 1.32 1.986 3.085-.379.708-1.467 1.102-2.102.763-.437-.234-.505-.153-.578.686-.045.524-.171.861-.28.75zm2.296-2.116c.516-.516.54-1.959.044-2.637-.308-.421-.498-.462-1.124-.244-.649.227-.765.422-.836 1.403-.123 1.71.896 2.497 1.916 1.478zM3.03 7.38c-.36-.186-.805-.633-.988-.994-.395-.781-.454-4.391-.075-4.625.168-.104.264.618.264 1.98 0 1.924.067 2.212.65 2.794.357.357.839.65 1.07.65.232 0 .713-.293 1.07-.65.585-.584.65-.867.65-2.83 0-1.6.079-2.104.294-1.889.184.184.257 1.09.196 2.429-.077 1.7-.204 2.24-.624 2.653-.712.7-1.712.892-2.507.482zm23.543.037c-2.318-.925-2.777-3.756-.854-5.268.883-.695 2.678-.695 3.56 0 1.96 1.54 1.456 4.376-.937 5.283-.871.33-.904.33-1.769-.015zm2.162-1.464c.594-.537.63-1.881.072-2.678-.288-.411-.682-.588-1.308-.588-1.513 0-2.332 2.059-1.282 3.22.546.603 1.876.627 2.518.046zm41.065 1.38c-1.107-.481-1.687-1.376-1.687-2.602 0-1.957 1.109-3.103 3.004-3.103.99 0 1.926.573 1.655 1.012-.116.188-.603.24-1.315.143-.857-.117-1.239-.047-1.576.29-.653.653-.806 1.59-.397 2.439.33.682.485.747 1.789.75 1.73.004 2.058.495.708 1.059-1.123.469-1.132.47-2.18.013zm4.69.137c-.21-.132-.296-.42-.2-.672.093-.242.294-.363.447-.269.153.095.451.028.663-.148.282-.233.386-.918.386-2.536 0-2.188.009-2.217.661-2.217.653 0 .662.028.662 2.235 0 1.946-.077 2.318-.596 2.889-.692.761-1.498 1.047-2.023.718zM8.318 4.687c0-1.52.107-2.83.239-2.91.131-.081 1.024.943 1.984 2.276l1.746 2.423V4.2c0-1.251.119-2.35.264-2.44.17-.104.265.88.265 2.763 0 1.61-.1 2.926-.223 2.926s-.956-1.033-1.852-2.296L9.11 2.856v2.297c0 1.865-.074 2.296-.396 2.296-.328 0-.397-.483-.397-2.762zm7.2-.082c.045-1.67.185-2.844.34-2.844.156 0 .296 1.174.34 2.844.065 2.438.016 2.844-.34 2.844-.355 0-.404-.406-.34-2.844zm2.911 0c.072-2.722.101-2.848.67-2.929.544-.077.596.022.596 1.125 0 .665.105 1.209.233 1.209s.671-.536 1.208-1.19c.688-.84 1.173-1.192 1.644-1.192.656 0 .648.024-.438 1.322l-1.107 1.322.908 1.258c1.362 1.888 1.372 1.92.627 1.92-.48 0-.895-.326-1.516-1.191-.47-.655-1.013-1.191-1.207-1.191-.24 0-.352.376-.352 1.19 0 1.099-.052 1.191-.67 1.191h-.67zm13.701-.066c0-2.599.05-2.91.463-2.902.258.005 1.109.856 1.919 1.919l1.455 1.909.078-1.918c.068-1.701.136-1.919.595-1.919.482 0 .517.199.517 2.91 0 2.652-.043 2.911-.487 2.911-.289 0-1.098-.771-1.985-1.891L33.19 3.666v1.892c0 1.715-.05 1.891-.53 1.891-.497 0-.529-.176-.529-2.91zm6.88 0v-2.91h1.871c1.64 0 1.86.057 1.784.462-.064.338-.392.486-1.21.545-.983.071-1.123.16-1.123.711 0 .538.147.643.99.713.692.057 1.017.221 1.078.545.072.38-.106.463-.99.463h-1.078v1.19c0 1.094-.053 1.191-.661 1.191h-.661zm5.348.066l.076-2.844h1.852c1.47 0 1.852.082 1.852.397 0 .285-.352.42-1.257.477-1.126.072-1.257.147-1.257.712 0 .538.146.643.992.713.67.055.993.211.993.479s-.324.423-.993.479c-.846.07-.992.175-.992.713 0 .565.132.64 1.255.712.945.06 1.276.194 1.342.543.077.408-.15.463-1.925.463h-2.013zm5.5-.066v-2.91h1.467c1.205 0 1.583.116 2.116.649.788.788.811 1.19.12 2.068-.664.845-.664.845.133 1.89.818 1.072.822 1.213.035 1.213-.437 0-.837-.319-1.327-1.058-.385-.582-.817-1.058-.96-1.058-.144 0-.262.476-.262 1.058 0 .952-.066 1.058-.661 1.058h-.661zm2.778-1.058c0-.525-.15-.68-.728-.746-.657-.075-.728-.003-.728.746 0 .748.071.82.728.745.577-.067.728-.22.728-.745zM56 4.605l.075-2.844h1.852c1.47 0 1.852.082 1.852.397 0 .285-.351.42-1.256.477-1.126.072-1.257.147-1.257.712 0 .538.146.643.992.713.67.055.992.211.992.479 0 .267-.323.423-.992.479-.846.07-.992.175-.992.713 0 .565.131.64 1.254.712.945.06 1.276.194 1.343.543.077.408-.151.463-1.925.463h-2.013zm5.5-.066c0-2.599.049-2.91.462-2.902.258.005 1.108.856 1.918 1.919l1.456 1.909.077-1.918c.07-1.701.137-1.919.596-1.919.482 0 .517.199.517 2.91 0 2.652-.043 2.911-.487 2.911-.29 0-1.099-.771-1.985-1.891l-1.497-1.892v1.892c0 1.715-.049 1.891-.529 1.891-.497 0-.529-.176-.529-2.91zm17.462 0v-2.91h1.852c1.675 0 1.852.05 1.852.529 0 .45-.177.529-1.19.529-1.094 0-1.191.054-1.191.661 0 .58.114.662.926.662.75 0 .926.1.926.529 0 .428-.177.529-.926.529-.806 0-.926.084-.926.646 0 .571.13.656 1.122.728.818.06 1.146.207 1.21.544.077.406-.144.463-1.784.463h-1.871zm5.352 2.596c.163-.49.733-.572.733-.105a.42.42 0 0 1-.419.42c-.23 0-.372-.142-.314-.315zm7.877-2.596c0-1.764.104-2.91.264-2.91.16 0 .265 1.146.265 2.91 0 1.764-.104 2.91-.265 2.91-.16 0-.264-1.146-.264-2.91z"/>
</svg>