<svg viewBox="0 0 205.8 205.8" width="38">
    <g font-family="sans-serif" font-size="219.8" letter-spacing="0" word-spacing="0">
        <path fill="#f19237" stroke="#000" stroke-width="2.5442329999999997" d="M191.8 123.8c0 26-7.5 46-22.5 60-15 13.8-37.2 20.8-66.4 20.8-29.3 0-51.5-7-66.5-20.9C21.4 169.8 14 150 14 124V1.3h51.8v119.5c0 14.6 3 9.9 8.7 17 5.9 7.3 15.3 10.9 28.4 10.9 12.8 0 22.2-3.5 28.1-10.4 6-6.9 9-2.3 9-17.5V1.3h51.8z" font-weight="700" style="line-height:1.25;-inkscape-font-specification:'sans-serif Bold'"/>
        <path stroke="#fffbfb" stroke-width="3.481582" d="M151.2 110.3a47.5 47.5 0 0 1-47.5 47.5 47.5 47.5 0 0 1-47.5-47.5 47.5 47.5 0 0 1 47.5-47.5 47.5 47.5 0 0 1 47.5 47.5z" font-weight="400" style="line-height:1.25"/>
        <path fill="#0a0400" stroke="#fff" stroke-width="2.9459540000000004" d="M156 157l-62.3-25c-5.6-2.3-12.1.8-14.8 6.9-2.6 6 .5 13 6 15.3l61.6 24.6c5.6 2.2 12.1-.9 14.8-7 2.6-6 .3-12.6-5.2-14.8zM118 41.6l9.5 66.6c.8 5.8 6.8 10 13.4 9.3 6.5-.7 11-7 10.2-12.9L141.6 39c-.9-6-6.8-10-13.3-9.4-6.6.8-11.2 6.1-10.3 12zM37.1 132.3L90 90.8c4.7-3.7 5.3-11 1.4-16.3-4-5.3-11.6-6.1-16.3-2.4l-52 41c-4.8 3.7-5.4 11-1.5 16.3 4 5.3 10.8 6.6 15.5 3z" font-weight="400" style="line-height:1.25"/>
        <path fill="none" stroke="#000" stroke-width="24.906702000000003" d="M137.5 110.3a33.8 33.8 0 0 1-33.8 33.8A33.8 33.8 0 0 1 70 110.3a33.8 33.8 0 0 1 33.8-33.8 33.8 33.8 0 0 1 33.8 33.8z" font-weight="400" paint-order="markers stroke fill" style="line-height:1.25"/>
        <path fill="#fcfcfc" d="M131.8 110.3a28 27.3 0 0 1-28 27.3 28 27.3 0 0 1-28.1-27.3 28 27.3 0 0 1 28-27.3 28 27.3 0 0 1 28 27.3z" font-weight="400" paint-order="markers stroke fill" style="line-height:1.25"/>
        <path fill="#f19237" d="M123.4 110.3a19.7 19.7 0 0 1-19.7 19.7 19.7 19.7 0 0 1-19.6-19.7 19.7 19.7 0 0 1 19.6-19.7 19.7 19.7 0 0 1 19.7 19.7z" font-weight="400" paint-order="markers stroke fill" style="line-height:1.25"/>
    </g>
</svg>