<svg  width="30" height="30" viewBox="0 0 128 128" >
    <defs>
        <radialGradient id="e" cx="-457.18" cy="-211.34" r="163.56" gradientTransform="matrix(1.6957 -.12227 .01888 .78155 276.62 -12.388)" gradientUnits="userSpaceOnUse">
            <stop stop-color="#f5fdff" offset="0"/>
            <stop stop-color="#f3f2f1" offset=".485"/>
            <stop stop-color="#c7ff59" offset="1"/>
        </radialGradient>
        <radialGradient id="a" cx="-402.33" cy="13.755" r="61.496" gradientTransform="matrix(1.3791 -1.0393 .36139 .44831 -97.395 -565.19)" gradientUnits="userSpaceOnUse" spreadMethod="reflect">
            <stop stop-color="#248243" offset="0"/>
            <stop stop-color="#00aa03" offset=".5"/>
            <stop stop-color="#50ae1b" offset="1"/>
        </radialGradient>
        <radialGradient id="b" cx="-763.07" cy="-18.404" r="63.259" gradientTransform="matrix(-1.0185 1.2449 -3.1464 -2.3407 -1383.3 715.33)" gradientUnits="userSpaceOnUse" spreadMethod="reflect">
            <stop stop-color="#053515" offset="0"/>
            <stop stop-color="#007b58" offset=".5"/>
            <stop stop-color="#8af800" offset="1"/>
        </radialGradient>
        <filter id="d" x="-.009" y="-.018" width="1.018" height="1.036" color-interpolation-filters="sRGB">
            <feGaussianBlur stdDeviation="1.198"/>
        </filter>
        <filter id="f" x="-.125" y="-.074" width="1.249" height="1.148" color-interpolation-filters="sRGB">
            <feGaussianBlur stdDeviation="3.454"/>
        </filter>
        <linearGradient id="c" x1="-469.98" x2="-469.98" y1="-133.68" y2="-272.84" gradientTransform="matrix(.89637 -.06463 .02047 .84713 -88.466 27.821)" gradientUnits="userSpaceOnUse" spreadMethod="reflect">
            <stop stop-color="#00413d" offset="0"/>
            <stop stop-color="#003501" offset=".5"/>
            <stop stop-color="#527027" offset="1"/>
        </linearGradient>
    </defs>
    <g transform="translate(615.622 169.673) scale(.91038)" fill-rule="evenodd">
        <path d="M-605.82-177.28c-37.29-1.092-67.54 27.446-67.54 63.717s26.986 66.184 67.54 67.671 67.538-27.444 67.538-63.715-30.248-66.581-67.538-67.673z" color="#000" fill-opacity=".875" style="block-progression:tb;isolation:auto;mix-blend-mode:normal;text-decoration-color:#000;text-decoration-line:none;text-decoration-style:solid;text-indent:0;text-transform:none;white-space:normal"/>
        <ellipse transform="skewY(1.647) scale(.99959 1)" cx="-605.35" cy="-98.373" rx="65.059" ry="62.906" color="#000" fill="url(#a)" stroke="url(#b)" stroke-linecap="round" stroke-linejoin="round" stroke-width="2.954" style="isolation:auto;mix-blend-mode:normal"/>
        <path d="M-578.35-131.49c-2.47-4.432-4.412-5.155-4.803-18.597-.12-4.1-6.513-8.844-10.05-4.825-1.043 1.185-1.724 9.05-2.787 14.357-1.75 8.733-3.469 13.045-6.348 17.633-2.239 3.566-.695 17.596-3.453 24.529-9.604-2.192-17.898-12.71-12.918-21.993 4.658-8.684 6.61-25.024 12.71-29.984 4.435-3.605 5.549-9.359 8.931-15.22 3.797-6.579 8.177-11.262 14.105-13.775 2.956-1.253 6.306-2.401 7.48-4.06-6.507-3.382-15.803-.953-26.03 3.858-6.583 3.096-12.54 7.5-18.102 12.082-13.308 10.96-18.671 27.492-27.708 41.356-3.112 4.773-8.84 10.857-3.263 17.33-1.533 1.84-2.136 5.17-1.203 8.795 2.03 7.892 5.891 3.86 7.554 11.36 1.685 7.598 9.777 14.254 17.201 18.41 9.755 5.462 20.915 8.33 31.808 11.393 6.769 1.903 14.05-4.21 14.913-10.93.5-3.896 4.46-6.14 6.563-9.261 3.933-5.838.742-14.088-6.337-17.118-5.522-2.364.419-8.105 1.792-10.674 2.211-4.136 1.673-8.087.354-12.781-.788-2.804.696-9.905-.409-11.887z" fill="url(#c)" stroke="#0d1521" stroke-linecap="round" stroke-linejoin="round" stroke-width="1.024"/>
        <path transform="matrix(.89637 -.06463 .02047 .84713 -52.647 -40.944)" d="M-582.3-148.96c-2.544-4.8-4.28-10.716-7.766-27.266-5.81-4.826-6.835 42.136-6.274 55.232-.398 6.607-2.858 5.666-6.082 11.535-19.961 1.14-23.313-3.331-27.138-20.937-2.537-11.676 4.615-16.618 7.274-27.488 4.006-11.15 3.05-12.249 11.853-20.297 8.53-20.7 20.308-30.926 31.48-33.192-18.231-.381-31.143 11.722-54.49 49.67-5.425 9.9-11.76 19.596-16.877 29.49.56 5.508 1.672 11.147.039 16.541 1.221 6.068 2.84 9.563 3.48 16.013 3.53 13.701 22.053 21.121 34.08 25.802 4.077 4.979 10.075 7.692 18.969 4.27 6.042-1.71 6.875-8.331 8.683-13.204 2.963-4.574 9.472-8.007 7.247-14.412-1.354-6.322-10.74-7.167-9.985-14.395-.086-7.16 1.423-6.177 4.542-12.193 2.549-4.917-.331-15.693.597-11.596.596 2.627-.272-8.572.368-13.574z" fill-opacity=".353" filter="url(#d)"/>
        <path d="M-603.31-175.62c-5.965 4.248-12.367 7.902-17.727 13.799-6.128 6.742-10.407 15.72-15.266 23.857l-12.388 20.745c-1.412 2.364-.231 6.384 2.425 8.878-1.631 2.673-2.371 3.253-2.343 6.106.068 6.863 5.343 1.629 7.256 11.668.782 4.11 2.684 5.515 5.217 8.462 4.313 5.017 9.815 7.77 15.213 10.128 7.634 3.334 14.206 4.338 21.699 8.308 2.69 1.425 6.022 1.532 8.496-.693 2.892-2.6 4.39-6.899 6.206-10.666 2.22-4.604 3.724-2.271 4.77-7.62.634-3.244-1.124-6.588-3.378-8.122-2.366-1.612-4.714-3.826-5.726-7.178-1.089-3.606.07-7.749 2.078-10.356 1.012-1.316 2.59-3.431 2.356-4.702-.495-2.708-1.248-5.107-.977-7.716.316-3.045.934-7.682.092-8.953-1.392-2.1-3.287-4.01-3.642-6.912-.578-4.734-.003-9.61-.87-14.29-.228-1.221-1.78-.506-2.001.563-.27 1.296-.435 2.631-.67 3.94-2.567 14.349-1.972 17.378-7.029 26.092-1.21 2.084-.47 24.756-4.955 26.756-6.625 2.953-18.566-5.18-22.129-13.078-4.717-10.456 3.125-20.025 4.379-23.421 1.8-4.88 3.31-9.938 5.39-14.622 2.054-4.628 4.586-8.895 7.617-12.484 7.063-8.366 7.94-14.061 16.56-20.438 6.124-4.53 11.96-5.167 8.72-5.357-1.624-.095-12.915 2.706-19.373 7.306z" fill="url(#e)"/>
        <path transform="matrix(.89637 -.06463 .02047 .84713 -88.466 27.821)" d="M-582.44-272.84c-15.061 12.157-21.448 31.233-32.452 46.49-1.36 3.652-5.892 7.263-4.686 11.303 1.984 3.013 3.997 6.978.716 9.861-2.133 2.544 2.315 3.232 2.666 5.64 3.954 5.898 3.66 14.116 9.686 18.476 10.99 10.182 26.046 14.102 38.826 21.232 6.946-1.491 6.253-10.99 11.281-15.041 2.492-1.84 3.62-5.409.379-7.05-6.598-7.107-11.533-18.787-5.336-27.66 1.844-2.496 3.245-4.913 2.06-8.003-.536-4.81.896-9.686.208-14.432-1.692 8.464-7.79 15.561-6.894 24.547-.794 7.63-.439 17.401-6.854 22.621-9.173 4.08-18.57-3.372-24.377-9.904-8.764-9.61-13.456-24.602-6.452-36.514 6.585-11.65 8.552-25.518 17.145-36.07 1.31-1.828 2.904-3.875 4.084-5.496z" fill="#fff" filter="url(#f)"/>
    </g>
</svg>