<svg width="44" viewBox="0 0 708.9 700">
    <g data-name="Group 20">
        <g data-name="Group 15">
            <path fill="#087955" d="M354.5 0c195.7 0 354.4 156.7 354.4 350S550.2 700 354.5 700C158.7 700 0 543.3 0 350S158.7 0 354.5 0z" data-name="Path 1"/>
            <path fill="#fff" d="M219.8 227.1q-5.1 4.2-10.7 8a22.7 22.7 0 0 1-13 3.7q-7.2 0-7.2-12.6 0-25.7 23.9-42.1 23-16.9 54.8-16.9 31.8 0 47.7 26.2 12.2 19.2 12.2 43.3a211 211 0 0 1-5.2 46.8q-5.1 22.7-11 46.6-5.8 23.9-11 48.4-5.1 24.6-5.1 40.3 0 15.7 1.4 20.8 6.5 20.6 35.5 20.6a73.5 73.5 0 0 0 41.2-12.6q52.9-34.7 67.4-137.2-37.9-2.3-58.3-24-20.3-21.8-20.3-58.8 0-26.7 17.3-45 17.3-18.2 47.3-18.4 30-.2 45 20.8 14.9 21 14.9 57.1V253q0 5.6-.5 10.7a89.4 89.4 0 0 0 13.6-7.7 19.3 19.3 0 0 1 11.2-4q9.4 0 9.4 8a40.6 40.6 0 0 1-9.6 27q-9.6 11.4-26 17.5-4.7 60.3-15.2 92.2-10.5 31.8-22.5 52.8a136.6 136.6 0 0 1-30.6 37q-39.3 33.2-101.6 33.2-41.6 0-66.2-20.8T224 433.1q0-10.8 12-57 11.9-46 19-75.7 7-29.7 7-47 0-38-19.2-38a20.4 20.4 0 0 0-12 3.8q-5.4 3.7-11 8zM445 262.2q1-13 1-26.6 0-30.5-14-30.5-9.9-.4-9.9 15.5 0 29 23 41.6z" data-name="Path 6"/>
            <g fill="none" data-name="Path 3">
                <path d="M354 29c179.5 0 325 143.7 325 320.9S533.5 670.8 354 670.8 29 527.1 29 349.9 174.5 29 354 29z"/>
                <path fill="#fff" d="M354 49C185.8 49 49 184 49 349.9c0 166 136.8 300.9 305 300.9s305-135 305-300.9C659 183.9 522.2 49 354 49m0-20c179.5 0 325 143.7 325 320.9S533.5 670.8 354 670.8 29 527.1 29 349.9 174.5 29 354 29z"/>
            </g>
        </g>
    </g>
</svg>