<svg width="88" viewBox="0 0 2214 455">
    <path fill="#e8e6e3" d="M346 334L272 95h-58l-73 239L68 95H1l106 348h54l82-252 82 252h54L485 95h-66zM959 155h179L940 433v10h296v-60h-188l198-277V95H959zM806 131c-30-31-71-47-119-47-102 0-178 79-178 185s76 185 178 185c48 0 89-16 119-47v40h68V91h-68v40zM694 390c-67 0-116-51-116-121s49-121 116-121 115 51 115 121-48 121-115 121zM1563 292c0 62-35 98-95 98s-94-36-94-98V91h-69v206c0 116 88 157 163 157s163-41 163-157V91h-68v201zM2026 212c-2-14-6-29-11-44s-13-28-24-41c-10-12-23-23-39-30-17-8-37-12-61-12-31 0-58 7-80 20-14 9-26 19-35 31V1h-61v442h69V262c0-21 2-39 7-53 4-14 11-26 19-35s17-15 28-19 22-6 34-6c19 0 34 4 45 11s21 18 27 30 11 25 13 40l3 42v171h69V249l-3-37z"/>
    <circle  r="55" fill="#007aff" transform="translate(2159 395)"/>
</svg>