<svg width="120" viewBox="0 0 63.7 27.2">
  <path fill="#f2e696" stroke="#6c6a33" stroke-linejoin="round" stroke-width=".7" d="M28 26.6c2-1 1.7-5.6-.2-8.1l-1-1.3.9-.7c.7-.6.9-.9.9-1.7 0-1.9-2-2.7-3.3-1.4-1.1 1-1 2 .9 4.3 2 2.5 2.4 3.4 2.6 5.5 0 1.5 0 1.8-.4 2.4-1.3 1.6-3-.7-3-4 0-1.2-.2-1.5-.4-1.3-.1.2-.3 1-.2 2 0 3.2 1.6 5.2 3.3 4.3zm-2.3-10.8c-.8-.5-.6-1.4.4-2 .7-.5 1.5-.2 1.8.7.2.5 0 .8-.5 1.2-.9.8-1 .8-1.7.1zm12.1 6.4a55.5 55.5 0 0 0-1.7-8.6c-.2-1-.8-.9-1.4.5-.7 1.5-1.1 1.5-1.1.1 0-1.3-.5-1.6-1.5-.8-.9.7-1 .7-1.3 0 0-.3-.3-.5-.4-.5-.3 0-.3.9 0 1.2.2.2.3 1 .3 2 0 1.4 0 1.6.6 1.6.5 0 .5-.1.3-1.6-.1-1.3 0-1.6.4-2 .8-.7 1-.3 1.2 2 .1 1.2.3 1.8.5 1.7.2 0 .3-.3.3-.7 0-.8 1-3.2 1.2-3.2.3 0 .5.9 1.5 5.4.4 1.9.8 3.4 1 3.4l.1-.5zm-26-4.3l.6-4c1-5.4 2.2-8.4 4.7-11 .8-.7 2-1.7 2.7-2 1.5-.9.4-.6-1.5.3A10.7 10.7 0 0 0 13 7.5c-.6 1.8-1.4 5.4-1.4 6.2 0 .5-.1.8-.4.8-.2 0-.4-.3-.4-.6 0-.7-1-4.1-1.3-4.3-.3-.2-.8.5-1.8 2.3-.9 1.5-1.6 2-1.6 1 0-1.1-.7-2.7-1.3-3.2-1.3-1-3.6-.3-4.3 1.3-.3.7-.2 1 .1 2 .7 1.8 1.1 1.8.9.2-.2-1.7 0-2.3 1.2-2.7 2-.6 2.6.5 2.8 4.7l.2 3 .7-.5c.6-.5.7-.7.6-1.6-.2-.9 0-1.3 1-3 .5-1.2 1.1-2 1.3-2a42 42 0 0 1 1.7 6.8c0 .3.2.5.4.5.1 0 .3-.2.3-.5zm50-1.2c.8-.8.8-1.2 0-2.2-.8-.9-.8-1-.3-1.2.2 0 .7.1 1 .4.7.5.7.5.9 0 .3-1.1-1.6-1.5-2.6-.5-.6.6-.6.9.2 1.8.7 1 .6 1.4-.6 2.1-.5.3-.9.7-.9.8 0 .4 1.6-.4 2.3-1.2zm-39.3-1.3l.7-2.3c0-.3 0-.5-.2-.5-.3 0-.6.7-1 2-.2 1.1-.5 2-.7 2l-.8-1.8c-1-2.8-1.7-3-1.7-.3 0 1.3-.1 1.6-.6 2.1s-.5.6-.2.8l.6.2c.3 0 .7-1.2.7-2.5 0-1.5.4-1.5.8 0l.7 2.1c.4.7.5.7.8.4.2-.2.6-1.2.9-2.2zm20.7 1.1c-.2-1.2-1-3.2-1.4-3.5-.5-.3-1 .2-2.2 2.2-1 1.4-1.2 2-1 2.2.2.3.3.2.5-.2.3-.8 2-3.2 2.3-3.2l.9 2c.6 2 1.2 2.4 1 .5zm2.9.7l-.2-1.1c-.2-1 .3-2.1 1-2.3 1-.3 1.2 0 .5.8-.7.7-.7.8.7 2.3.6.7 1.6 1 1.6.5 0 0-.4-.6-.9-1-1-1.1-1-1.2-.4-2 .8-.7.5-1.1-1-1.2H46V9c.1-2.6 0-4.2-.1-4.3-.1 0-.5.3-.9.8-.7 1-.7 1.5-.1.9.3-.4.5-.4.6-.1 0 .2 0 2.8-.3 5.7-.3 4.6-.2 5.5 0 5.7.6.3 1 .1.9-.5zm-30.1-1c.3-3.1 0-4.2-.9-3.3-.2.2-.2.5.1.9.3.4.3.9.1 2.1l-.2 1.7h.3c.3 0 .5-.4.6-1.3zm37.4 1.1c0-.2-.3-.5-.8-.8-1-.6-1-1 .2-1.6.8-.4 1-.6.9-1.2-.2-1-1.3-1-2.2 0-.9 1-.9 1.8-.1 2.7.7 1 2 1.6 2 1zM51.6 15c0-.3.6-1.5.8-1.5l.5.4c.2.3.2.5-.3.8-.6.4-1 .5-1 .3zM57 16c0-2 .4-2.7 1-2 .4.7.9.4.5-.3-.4-.5-1.2-.7-1.5-.3-.1.3-.3.2-.8-.1-.7-.4-1.3-.4-1.3.1 0 .2.2.3.4.3.7 0 1 1 .9 2.5-.2 1.3-.1 1.5.3 1.5.5 0 .5-.2.5-1.7zM17.4 9.6c.2-.7-.4-1.1-.9-.7-.3.3-.3.4 0 .7.3.5.7.5.9 0z" paint-order="stroke fill markers"/>
</svg>