<svg width="116" height="32" viewBox="0 0 116 32" fill="none">
    <path d="M12.4537 5.88783H29.6472L29.892 4.79558C30.2498 3.10071 28.9692 1.5 27.2367 1.5H10.5328C8.36715 1.5 6.50279 3.00655 6.032 5.11572L2.37861 21.9891C2.0208 23.684 3.30137 25.2847 5.03391 25.2847H6.05083L9.77955 8.03467C10.062 6.79176 11.1731 5.88783 12.4537 5.88783Z" fill="#00CDFA"/>
    <path d="M30.6642 5.88867H29.6472L25.9185 23.1387C25.6549 24.3816 24.5438 25.2855 23.2632 25.2855H6.06971L5.8249 26.3778C5.46709 28.0726 6.74766 29.6734 8.48019 29.6734H25.1841C27.3498 29.6734 29.2141 28.1668 29.6849 26.0576L33.3383 9.20309C33.6961 7.48938 32.3967 5.88867 30.6642 5.88867Z" fill="url(#paint0_linear_4137_211930)"/>
    <path d="M25.9182 23.1387L29.6469 5.88867H12.4533C11.1728 5.88867 10.0617 6.77377 9.79805 8.03551L6.06934 25.2855H23.2629C24.5434 25.2855 25.6357 24.3816 25.9182 23.1387Z" fill="#3A00FF"/>
    <path d="M11.6632 18.7029L10.4189 12.2344H12.3701L12.971 16.271L14.9434 12.2344H16.2583L17.0288 16.271L18.8386 12.2344H20.7898L17.6297 18.7029H15.9967L15.2191 14.9137L13.3174 18.7029H11.6632Z" fill="white"/>
    <path d="M20.1045 17.6563L21.1225 16.4757C21.582 17.0412 22.1617 17.3311 22.8757 17.3311C23.3352 17.3311 23.7382 17.1402 23.8018 16.8221C23.823 16.6312 23.6958 16.4686 23.3988 16.3272C23.3281 16.2919 23.1726 16.2353 22.9252 16.1505C22.4374 15.9596 22.2253 15.8889 21.8012 15.6203C21.2073 15.2527 20.9245 14.7437 21.0235 13.8671C21.2144 12.6723 22.3102 12.0078 23.6958 12.0078C24.6431 12.0078 25.4207 12.3189 26.0499 12.9339L25.046 14.1074C24.6289 13.7186 24.1482 13.5277 23.6039 13.5277C23.1655 13.5277 22.904 13.655 22.8474 13.9307C22.7979 14.1569 22.9181 14.3478 23.2009 14.475C23.2928 14.5245 23.4837 14.6023 23.7665 14.7083C24.0492 14.8144 24.2896 14.9063 24.4875 15.0194C25.1238 15.288 25.8731 15.9172 25.6469 16.8786C25.5409 17.5078 25.2228 18.0027 24.6855 18.3562C24.1553 18.7096 23.512 18.8864 22.7909 18.8864C21.6315 18.8793 20.7337 18.4763 20.1045 17.6563Z" fill="white"/>
    <path d="M43.8043 21.3156H41.9772L38.3984 10.5039H40.7717L42.9567 17.7745L45.4053 10.5039H46.7803L49.2855 17.7745L51.4328 10.5039H53.8061L50.2461 21.3156H48.419L46.1211 14.2334L43.8043 21.3156Z" fill="white"/>
    <path d="M55.8395 21.3153H53.7676V13.3478H55.7642V14.4215C56.2351 13.555 56.9697 13.1406 57.9491 13.1406C58.2693 13.1406 58.5895 13.1971 58.9097 13.3101L58.7402 15.2879C58.3823 15.1749 58.081 15.1184 57.7984 15.1184C57.1957 15.1184 56.7248 15.3256 56.3669 15.7211C56.0279 16.1167 55.8395 16.7194 55.8395 17.5293V21.3153V21.3153Z" fill="white"/>
    <path d="M61.6988 11.1826C61.6988 11.5405 61.5858 11.8419 61.3409 12.0867C61.096 12.3316 60.7947 12.4446 60.4368 12.4446C60.0789 12.4446 59.7775 12.3316 59.5327 12.0867C59.2878 11.8419 59.1748 11.5405 59.1748 11.1826C59.1748 10.8247 59.2878 10.5234 59.5327 10.2973C59.7775 10.0525 60.0789 9.93945 60.4368 9.93945C60.7947 9.93945 61.096 10.0525 61.3409 10.2973C61.5858 10.5234 61.6988 10.8247 61.6988 11.1826ZM61.4539 13.3487V21.3162H59.382V13.3487H61.4539V13.3487Z" fill="white"/>
    <path d="M67.858 19.2248L68.4796 20.8447C67.8204 21.2779 67.0293 21.504 66.1252 21.504C65.2022 21.504 64.5241 21.2403 64.0532 20.7129C63.5823 20.1855 63.3563 19.3944 63.3563 18.3584V15.0622H62.0566V13.3293H63.3751V10.5039H65.4282V13.3293H68.0652V15.0622H65.4282V18.2266C65.4282 19.1683 65.8049 19.6392 66.5584 19.6392C66.9351 19.6392 67.3871 19.5074 67.858 19.2248Z" fill="white"/>
    <path d="M76.4843 17.1526C76.4843 17.3975 76.4654 17.6989 76.4089 18.0567H70.4192C70.7205 19.1869 71.4928 19.752 72.736 19.752C73.6589 19.752 74.5254 19.4883 75.3165 18.942L76.1264 20.3924C75.1093 21.127 73.9603 21.4848 72.6418 21.4848C71.2479 21.4848 70.1743 21.0893 69.4209 20.2794C68.6863 19.4883 68.3096 18.49 68.3096 17.3222C68.3096 16.0978 68.6863 15.0995 69.4586 14.3273C70.2308 13.5362 71.2291 13.1406 72.4534 13.1406C73.6212 13.1406 74.563 13.4985 75.3165 14.2143C76.1076 14.9489 76.4843 15.9283 76.4843 17.1526ZM72.4911 14.8547C71.9825 14.8547 71.5305 15.0054 71.1726 15.3067C70.8147 15.6081 70.5699 16.0037 70.438 16.5311H74.4877C74.3935 16.0225 74.1675 15.6081 73.8096 15.3067C73.4517 15.0054 73.0185 14.8547 72.4911 14.8547Z" fill="white"/>
    <path d="M79.9505 21.5229C78.5567 21.5229 77.4642 21.0144 76.6543 19.9784L77.7468 18.6788C78.0293 19.0178 78.3683 19.2815 78.7639 19.4887C79.1594 19.6959 79.555 19.7901 79.9505 19.7901C80.2708 19.7901 80.5156 19.7147 80.7416 19.564C80.9488 19.4133 81.0618 19.225 81.0618 18.999C81.0618 18.7164 80.8735 18.4904 80.4968 18.3209C80.3838 18.2644 80.0636 18.1514 79.555 17.963C79.1029 17.7935 78.7639 17.6616 78.5379 17.5298C77.6149 17.0966 77.1629 16.3996 77.1629 15.4578C77.1629 14.7609 77.4266 14.1959 77.9728 13.725C78.5002 13.2729 79.2348 13.0469 80.1389 13.0469C81.269 13.0469 82.2108 13.4236 82.9266 14.1959L81.9095 15.5332C81.3444 15.0058 80.7416 14.7421 80.0824 14.7421C79.8187 14.7421 79.5927 14.7986 79.4231 14.9304C79.2536 15.0623 79.1594 15.213 79.1594 15.4013C79.1594 15.7404 79.3855 15.9852 79.8564 16.1359C80.8923 16.5315 81.5327 16.7763 81.7776 16.9082C82.6817 17.3791 83.1149 18.0572 83.1149 18.9236C83.1149 19.6771 82.8136 20.2798 82.2297 20.7695C81.6646 21.2781 80.9112 21.5229 79.9505 21.5229Z" fill="white"/>
    <path d="M83.4902 17.3234C83.4902 16.1368 83.8858 15.1573 84.6957 14.3474C85.5056 13.5374 86.5228 13.123 87.7659 13.123C89.0091 13.123 90.0262 13.5374 90.8362 14.3474C91.6273 15.1385 92.0416 16.1368 92.0416 17.3234C92.0416 18.5101 91.6461 19.5084 90.8362 20.2995C90.0262 21.1094 89.0091 21.5049 87.7659 21.5049C86.5228 21.5049 85.5056 21.1094 84.6957 20.2995C83.8858 19.5084 83.4902 18.5101 83.4902 17.3234ZM86.1837 18.9433C86.5981 19.3765 87.1255 19.6025 87.7659 19.6025C88.3875 19.6025 88.8961 19.3765 89.3293 18.9433C89.7625 18.4912 89.9697 17.945 89.9697 17.3234C89.9697 16.7018 89.7625 16.1556 89.3293 15.7224C88.8961 15.2892 88.3875 15.0631 87.7659 15.0631C87.1255 15.0631 86.5981 15.2892 86.1837 15.7224C85.7694 16.1556 85.5622 16.683 85.5622 17.3234C85.5622 17.9638 85.7694 18.5101 86.1837 18.9433Z" fill="white"/>
    <path d="M94.9616 21.3153H92.8896V13.3478H94.9051V14.4591C95.1123 14.0636 95.4513 13.7434 95.9034 13.4985C96.3554 13.2536 96.8451 13.1406 97.4102 13.1406C98.2767 13.1406 99.0113 13.4232 99.614 14.0071C100.217 14.591 100.518 15.4009 100.518 16.4557V21.3342H98.4462V17.0208C98.4462 16.3992 98.2955 15.9095 97.9941 15.5704C97.6928 15.2314 97.2784 15.043 96.7698 15.043C96.2236 15.043 95.7904 15.2314 95.4513 15.6081C95.1123 15.9848 94.9427 16.4745 94.9427 17.0585V21.3153H94.9616Z" fill="white"/>
    <path d="M104.059 11.1826C104.059 11.5405 103.946 11.8419 103.701 12.0867C103.456 12.3316 103.155 12.4446 102.797 12.4446C102.439 12.4446 102.138 12.3316 101.893 12.0867C101.648 11.8419 101.535 11.5405 101.535 11.1826C101.535 10.8247 101.648 10.5234 101.893 10.2973C102.138 10.0525 102.439 9.93945 102.797 9.93945C103.155 9.93945 103.456 10.0525 103.701 10.2973C103.946 10.5234 104.059 10.8247 104.059 11.1826ZM103.814 13.3487V21.3162H101.742V13.3487H103.814V13.3487Z" fill="white"/>
    <path d="M108.882 21.5044C107.657 21.5044 106.64 21.1088 105.83 20.3366C105.039 19.5643 104.644 18.566 104.644 17.3417C104.644 16.1174 105.039 15.1191 105.849 14.3468C106.659 13.5557 107.695 13.1602 108.938 13.1602C109.748 13.1602 110.501 13.3485 111.161 13.7441C111.82 14.1396 112.329 14.6858 112.649 15.3828L110.991 16.2869C110.501 15.477 109.823 15.0814 108.957 15.0814C108.298 15.0814 107.751 15.3074 107.337 15.7406C106.904 16.1739 106.697 16.7013 106.697 17.3417C106.697 18.0009 106.904 18.5472 107.318 18.9804C107.751 19.4136 108.279 19.6208 108.919 19.6208C109.334 19.6208 109.729 19.5078 110.125 19.2818C110.501 19.0557 110.784 18.7732 110.954 18.4153L112.63 19.3948C112.291 20.0352 111.782 20.5438 111.123 20.9393C110.445 21.2972 109.692 21.5044 108.882 21.5044Z" fill="white"/>
    <defs>
        <linearGradient id="paint0_linear_4137_211930" x1="5.76428" y1="17.7837" x2="33.391" y2="17.7837" gradientUnits="userSpaceOnUse">
            <stop stop-color="#FFB3FF"/>
            <stop offset="0.5335" stop-color="#FF76DF"/>
            <stop offset="1" stop-color="#C239C6"/>
        </linearGradient>
    </defs>
</svg>