<svg width="200" viewBox="0 0 320 51">
    <path
     d="m 64.4,38.8 h 4.5 l 6,-19 c 0.7,-2.5 1.1,-3.6 1.6,-4.4 0.4,-0.6 0.7,-1 1.2,-1.3 a 4,4 0 0 1 1.5,-0.5 V 13.2 H 72 v 0.4 c 0.5,0.1 0.9,0.2 1.4,0.5 0.6,0.3 1,0.7 1,1.7 0,1.1 -0.1,1.7 -0.8,4 L 70.1,31.2 H 70 L 66.8,19.7 c -0.5,-1.9 -0.9,-3 -0.9,-3.9 0,-0.8 0.5,-1.4 1,-1.7 l 1.5,-0.5 v -0.4 h -14 v 0.4 c 0.4,0.2 0.8,0.2 1.3,0.5 0.6,0.3 0.8,0.8 1.3,1.7 l 1,3 -4,12.4 -3.2,-11.4 c -0.5,-1.8 -0.9,-3 -0.9,-4 0,-0.8 0.3,-1.3 0.9,-1.7 l 1.5,-0.5 V 13.2 H 38 v 0.4 l 1,0.3 c 0.4,0 0.7,0.2 1,0.5 0.6,0.5 1.1,1.5 2.3,5.6 l 6.2,18.8 h 4.3 l 5.8,-18.4 z m 26.5,4.7 c 1,-2.2 7.7,-19.9 9.3,-24 0.7,-1.9 1.3,-3 1.7,-3.8 0.5,-0.8 1,-1.3 1.6,-1.6 0.4,-0.3 0.9,-0.4 1.4,-0.5 v -0.4 h -7.7 v 0.4 c 0.6,0.1 1,0.2 1.5,0.5 0.6,0.3 1,0.8 1,1.8 0,1.1 0,2 -0.9,4 L 94.8,30.3 91,19.6 c -0.6,-1.8 -1,-3 -1,-3.9 0,-0.8 0.4,-1.2 0.8,-1.6 l 1.8,-0.5 v -0.4 h -15 v 0.4 a 5,5 0 0 1 1.7,0.5 c 0.7,0.4 1,1 1.6,2 0.5,0.9 1.3,2.5 2.1,4.6 l 7,17.9 c 0.3,0.6 0.5,1.4 0.4,2.4 0,0.4 -0.8,2.7 -1,3.2 -1,2.3 -1.9,3.8 -3,3.8 -0.5,0 -0.8,-0.2 -1,-0.7 0,-0.6 -0.2,-1.5 -0.7,-2.3 -0.7,-1.2 -1.8,-1.7 -3.3,-1.7 -2,0 -3.3,1.6 -3.3,3.3 0,2.5 2.3,4 4.9,4 2.2,0 3.7,-0.7 5,-2.2 1.3,-1.4 2,-3 2.9,-4.9 z M 114.4,0.2 h -10.7 v 0.6 c 0.7,0 1.4,0 2.1,0.5 0.3,0.3 0.6,0.6 0.8,1.2 0.2,0.6 0.3,1.6 0.3,3.2 v 28 c 0,1.7 0,3.3 -0.2,5 h 0.7 l 4,-3.2 h 0.3 a 10,10 0 0 0 8,3.7 c 6.9,0 13.1,-4 13.1,-13.2 0,-9.3 -4.7,-13.4 -10.5,-13.4 -3.5,0 -6.2,1.5 -7.5,4.4 h -0.2 V 7.3 l 0.2,-6.7 c 0,-0.3 -0.2,-0.4 -0.4,-0.4 z m 5.6,14.2 c 3,0 4.7,2.4 4.7,11.6 0,8.8 -1.8,12.1 -5.2,12.1 -1.5,0 -2.8,-0.6 -3.8,-2.5 -0.8,-1.5 -1,-3.6 -1,-6.7 v -5.8 c 0,-3.1 0.7,-5.1 1.3,-6.5 1.2,-1.6 2.5,-2.2 4,-2.2 z m 15.3,11.5 c 0,8.2 5.9,13.3 13.4,13.3 7.6,0 13.4,-5.1 13.4,-13.3 0,-8.2 -5.9,-13.3 -13.4,-13.3 -7.4,0 -13.4,5.1 -13.4,13.3 z m 8.1,0 c 0,-5.8 0.6,-9.6 2.2,-11.1 0.9,-1 2,-1.3 3.1,-1.3 1,0 2.3,0.4 3.2,1.3 1.5,1.5 2.1,5.3 2.1,11.1 0,5.7 -0.7,9.5 -2.1,11.1 -1,1 -2,1.3 -3.2,1.3 -1.1,0 -2.2,-0.4 -3.1,-1.3 -1.6,-1.6 -2.2,-5.4 -2.2,-11 z m 31.5,-6.6 h -0.2 l 0.1,-5.8 c 0,-0.2 0,-0.3 -0.4,-0.3 H 164 v 0.5 a 4,4 0 0 1 2,0.4 c 0.5,0.4 0.8,0.9 1,1.7 l 0.1,3.5 v 12.4 c 0,1.8 0,3.3 -0.2,4.3 -0.3,1 -0.7,1.4 -1.3,1.8 l -1.6,0.4 v 0.5 h 14 v -0.5 c -0.5,0 -1,-0.2 -1.4,-0.4 -0.5,-0.2 -0.9,-0.6 -1.1,-1.3 -0.4,-1 -0.6,-2.3 -0.6,-5 v -4.9 l 0.1,-4.3 c 0.5,-3.5 2.2,-6.5 3.4,-6.5 0.8,0 1,1.2 1.4,2.4 0.6,1.3 1.5,2.4 3.6,2.4 2,0 3.5,-1.6 3.5,-3.8 a 4,4 0 0 0 -1,-2.9 c -0.9,-0.8 -2.1,-1.3 -3.6,-1.3 -2,0 -3.4,0.8 -4.4,1.6 a 9.6,9.6 0 0 0 -2.9,5 z m 25.5,-5.8 c 2.2,0 2.8,1.3 3.2,4.3 0.2,2.5 1.6,3.9 3.7,3.9 1.9,0 3.4,-1 3.4,-3.2 0,-1.5 -1,-2.8 -2.1,-3.7 -1.4,-1.1 -3.6,-2.2 -8.2,-2.2 a 13,13 0 0 0 -13.3,13.5 c 0,4.9 1.9,8.3 4.7,10.4 2,1.7 4.9,2.7 8.6,2.7 6.4,0 9.6,-4 10.8,-8.4 l -0.9,-0.3 c -1,3.2 -3.3,7 -8.5,7 -1.9,0 -3.2,-0.7 -4,-1.7 -1.5,-1.5 -2.5,-4 -2.5,-10.4 0,-5.7 0.9,-9.2 2.1,-10.6 a 4,4 0 0 1 3,-1.3 z M 235,29.7 h -0.5 l -3.7,5.5 c -1.4,1.9 -2.7,2.6 -5,2.6 h -5.1 v -0.3 l 13.6,-23.9 v -0.4 h -20 l -2,8.3 h 0.6 c 1.1,-2 2.6,-4 3.6,-5.2 1.2,-1.5 2.3,-2.2 4.1,-2.2 h 4.9 v 0.3 L 212,38.3 v 0.4 h 21.3 z m 28,7.8 -0.2,-0.5 c -0.5,0.3 -1,0.5 -1.7,0.5 -0.6,0 -1.1,-0.2 -1.4,-0.7 -0.5,-0.6 -0.6,-1.6 -0.6,-4 V 19 c 0,-4.2 -3.4,-6.5 -10.7,-6.5 -3.1,0 -6.7,1 -8.5,2.7 -1,0.8 -1.5,1.9 -1.5,3.2 0,1.9 1.5,2.9 3.4,2.9 2.3,0 3.6,-1 3.6,-3.5 0,-1.7 0,-3 0.6,-3.6 0.5,-0.5 1.4,-0.8 2.4,-0.8 2,0 3,0.8 3,3.7 v 4 c -0.1,2.1 -2,3.4 -6.7,4.4 -2.6,0.8 -4.5,1.2 -6,2.6 a 6,6 0 0 0 -1.8,4.5 c 0,4.2 3.2,6.5 7.6,6.5 4,0 6.1,-1.7 7,-3.8 h 0.2 c 0.1,1.5 0.5,2.3 1.2,2.8 0.6,0.5 1.9,1 3.7,1 3.4,0 5.6,-0.9 6.4,-1.7 z M 251.3,23.7 v 9.5 c 0,2.4 -2,3.8 -3.6,3.8 -2,0 -3.1,-1.4 -3.1,-5.3 0,-1.9 0.1,-3 0.8,-4 0.5,-0.8 1.5,-1.4 2.8,-2 1.2,-0.6 2.5,-1.1 3.1,-2 z m 17.4,15.7 c 2.7,0 4.4,-1.9 4.4,-4.3 0,-2.3 -1.7,-4.2 -4.4,-4.2 -2.6,0 -4.3,1.9 -4.3,4.2 0,2.4 1.7,4.3 4.3,4.3 z m 27,-13 c 0,9 -1.8,11.8 -5,11.8 A 4,4 0 0 1 287,36.3 c -0.8,-1.5 -1.3,-3.2 -1.3,-6.6 v -6.9 c 0,-2.2 0.5,-4.5 1.5,-6 1,-1.4 2.3,-2.3 3.9,-2.3 2.8,0 4.7,2.3 4.7,12 z m -17.7,17.7 -0.1,3.8 c -0.3,1.1 -0.8,1.5 -1.4,1.8 -0.3,0.2 -0.8,0.3 -1.5,0.3 v 0.5 h 14 V 50 c -0.7,0 -1.3,0 -1.6,-0.4 -0.6,-0.2 -1.1,-0.7 -1.2,-1.7 -0.3,-0.9 -0.3,-2 -0.3,-3.8 v -7 h 0.2 c 1.5,1.5 3.4,2 6.1,2 6,0 11.8,-4.5 11.8,-13.3 0,-9 -4.8,-13.2 -10.5,-13.2 -3.8,0 -6.3,2.1 -7.5,4.9 h -0.2 v -3.9 c 0,-0.3 0,-0.4 -0.3,-0.4 H 275 v 0.4 c 0.8,0.1 1.5,0.3 2.1,0.7 0.5,0.4 0.7,0.9 1,1.7 v 28 z m 38.6,-38.8 0.1,-4.6 c 0,-0.4 -0.1,-0.5 -0.4,-0.5 H 306 v 0.5 c 0.8,0 1.3,0.1 1.8,0.5 0.5,0.4 0.8,0.9 1,1.6 l 0.1,3.4 v 26.1 c 0,1.7 0,2.8 -0.2,3.8 -0.2,0.8 -0.7,1.3 -1.4,1.7 -0.3,0.2 -1,0.3 -1.5,0.4 v 0.5 h 14.1 v -0.5 c -0.6,0 -1.1,-0.2 -1.6,-0.4 -0.7,-0.4 -1.2,-0.9 -1.4,-1.9 -0.2,-0.8 -0.2,-2 -0.2,-3.6 z" fill="#b2b2b2" id="path2"/>
    <path d="M 0,49.5 H 31.2 V 0 H 0 Z" fill="#dc1a21"/>
</svg>