<svg width="62" height="25" viewBox="0 0 131.233 52.917">
    <g fill="none">
        <path d="M129.95 18.519a14.72 14.447 0 0 0-2.81-3.933 6.352 6.235 0 0 0-.744-.608 6.722 6.597 0 0 0-.618-.418h-.044l-.056-.032a7.51 7.37 0 0 0-.712-.334h-.063a5.231 5.135 0 0 0-1.918-.36h-.273a5.302 5.302 0 0 0-2.067.561 8.89 8.725 0 0 0-2.068 1.489h-.038l-.037.037a.48.47 0 0 1-.08.072l-.119.11c-.42.388-.842.808-1.33 1.3l-.347.354a112.49 110.407 0 0 0-1.306 1.304c.134-2.296.279-4.648.395-6.982 0-.298.031-.607.056-.9.087-1.02.108-2.045.062-3.068v-.25c-.062-1.166-.16-2.923-1.345-4.429-.87-1.121-2.606-2.432-5.911-2.432a16.492 16.187 0 0 0-2.235.164 21.727 21.324 0 0 0-3.586.809c-3.677 1.185-5.8 3.037-6.334 5.555-.39 1.865.31 3.488.768 4.563l.099.232a23.01 23.01 0 0 0 1.43 2.734l.447.785a506.022 496.652 0 0 0 3.46 6.077l-1.772-.608-.45-.157a47.475 47.475 0 0 0-1.778-.61l-.148-.041-.105-.03h-.1a8.796 8.633 0 0 0-2.527-.444h-.135a5.026 4.933 0 0 0-1.975.389 5.242 5.242 0 0 0-1.822 1.257 9.42 9.245 0 0 0-.482.61l-.036.048-.038.054a7.234 7.1 0 0 0-.762 1.495v.037a14.61 14.34 0 0 0-.774 4.72c-1.579-6.076-6.754-10.568-12.86-10.568a12.537 12.305 0 0 0-6.304 1.691 6.236 6.12 0 0 0-7.765-.225v-3.198a6.34 6.222 0 0 0-6.254-6.076 6.278 6.162 0 0 0-6.255 6.175v6.642a7.106 6.974 0 0 0-.5-.578 14.823 14.549 0 0 0-6.571-3.92 14.19 13.927 0 0 0-7.71.006h-.067a13.443 13.194 0 0 0-5.486 2.868 6.1 5.987 0 0 0-5.536-3.414 6.18 6.18 0 0 0-1.733.248c-3.097.918-4.336 3.872-5.09 5.634-.07.164-.132.317-.198.462-.187.438-.366.826-.508 1.137a13.686 13.432 0 0 0-.397.918c-.087.237-.161.4-.247.607a328.97 322.879 0 0 0-1.567-3.08l-.312-.645c-.779-1.643-1.949-4.109-4.859-4.972a6.118 6.004 0 0 0-7.43 3.423c-1.406 3.263.34 6.143 1.275 7.687a81.991 81.991 0 0 1 2.335 4.054c.345.607.476.863 1.238 2.314l.111.202L8 36.854c.23.419.482.899.78 1.46.316.606.675 1.262 1.07 1.991-.067.092-.135.189-.216.28l-.056.067-.087-.042a8.107 7.956 0 0 0-1.95-.681 6.474 6.354 0 0 0-1.455-.165A6.105 5.991 0 0 0 .796 42.76a6.024 5.913 0 0 0 .082 6.012c1.856 3.038 5.64 4.145 8.583 4.145.78.003 1.559-.076 2.32-.237 6.608-1.41 9.469-7.659 11.556-12.221l.42-.919a90.074 88.406 0 0 1 1.344-2.88l.415-.895a14.46 14.193 0 0 0 1.838 3.745 15.716 15.716 0 0 0 1.648 2.024 15.143 15.143 0 0 0 2 1.683c.722.493 1.493.919 2.298 1.27.82.377 1.678.66 2.563.852.541.13 1.093.23 1.647.296.51.053 1.018.076 1.53.068h.451a15.962 15.666 0 0 0 5.382-.912 13.796 13.796 0 0 0 2.298-.984 8.223 8.07 0 0 0 3.095-3.125 6.278 6.162 0 0 0 6.191 5.391c1.341 0 2.644-.427 3.717-1.216v1.922a6.254 6.138 0 1 0 12.508 0v-1.677c1.32.45 2.707.681 4.106.68 7.343 0 13.318-6.419 13.331-14.307.151.478.36.937.619 1.369.393.608.909 1.132 1.518 1.536a5.573 5.47 0 0 0 2.947.918h.482a10.368 10.176 0 0 0 2.42-.34h.132l3.423-.76c-.538.73-1.065 1.44-1.572 2.145l-.285.395a37.71 37.71 0 0 0-1.084 1.525l-.087.134-.062.092-.03.042v.043a8.929 8.763 0 0 0-1.14 2.28 5.207 5.11 0 0 0-.197 2.12c.095.728.35 1.429.742 2.054v.03c.143.22.303.432.464.608l.038.037.031.042a7.4 7.4 0 0 0 .558.571c.227.22.471.424.73.61a15.601 15.601 0 0 0 3.975 1.913c1.203.392 2.452.628 3.715.699h.361a5.103 5.009 0 0 0 .619-.031c.257-.021.513-.055.766-.103h.112c.259-.06.517-.134.768-.22h.037a5.3 5.202 0 0 0 1.858-1.154 5.35 5.25 0 0 0 1.17-1.78 8.916 8.75 0 0 0 .533-2.48v-.11a.576.565 0 0 0 0-.11v-.14c.055-.606.08-1.165.11-1.822v-.935l.212.376.241.444c.335.607.619 1.118.916 1.604l.075.121.068.11v.037l.033.048a8.846 8.846 0 0 0 1.72 1.926 5.187 5.187 0 0 0 1.857 1.1h.038c.536.178 1.1.268 1.665.268.176 0 .351-.012.525-.03h.058c.266-.03.53-.073.792-.135h.11c.255-.064.506-.146.75-.241a6.78 6.78 0 0 0 .849-.383 14.244 13.98 0 0 0 3.034-2.231 15.642 15.352 0 0 0 2.724-3.428 6.772 6.647 0 0 0 .645-1.599v-.103a6.58 6.459 0 0 0 .136-.765v-.08a5.317 5.218 0 0 0-.248-2.14 5.184 5.088 0 0 0-1.14-1.823 9.06 8.892 0 0 0-2.037-1.555h-.044l-.05-.03-.098-.054-.124-.08c-.494-.286-1.046-.608-1.628-.887l-.483-.256a62.194 61.042 0 0 0-2.335-1.216l3.394-.771h.131a9.367 9.193 0 0 0 2.754-.967 5.573 5.47 0 0 0 2.236-2.09c.348-.62.56-1.305.619-2.012.272-2.193-.668-4.133-1.23-5.292z" fill="#fff" fill-opacity=".96"/>
        <path d="M104.371 30.428l2.043-.464c.043-.01.115-.026.2-.053a2.255 2.213 0 0 0 1.613-2.635l-.008-.036a2.251 2.21 0 0 0-.348-.745 2.845 2.793 0 0 0-.833-.703 7.72 7.578 0 0 0-1.185-.538l-2.24-.803a209.575 209.575 0 0 0-3.784-1.342c-.822-.287-1.52-.54-2.125-.725a6.595 6.473 0 0 1-.343-.103c-.732-.219-1.247-.31-1.682-.314a2.002 1.965 0 0 0-.849.151 2.178 2.137 0 0 0-.738.516 4.49 4.407 0 0 0-.289.357 4.294 4.215 0 0 0-.43.841 11.626 11.411 0 0 0-.614 3.746c.009 1.15.04 2.627.685 3.63.156.257.364.48.612.651.46.311.922.353 1.406.387.722.05 1.42-.122 2.117-.282l6.787-1.538zm22.793-10.645a11.605 11.39 0 0 0-2.218-3.104 3.413 3.35 0 0 0-.378-.318 4.401 4.32 0 0 0-.384-.253 4.375 4.294 0 0 0-.42-.198 2.163 2.123 0 0 0-.89-.145c-.291.016-.575.096-.833.23-.389.19-.81.496-1.372 1.007-.077.075-.174.16-.262.241-.461.427-.977.954-1.589 1.566-.946.939-1.877 1.882-2.804 2.834l-1.658 1.688a7.73 7.586 0 0 0-.823.994 2.849 2.796 0 0 0-.438.99 2.314 2.271 0 0 0 .02.822l.007.035a2.253 2.211 0 0 0 2.623 1.675 2.1 2.062 0 0 0 .205-.038l8.832-2.004c.697-.158 1.403-.303 2.028-.66.42-.237.819-.474 1.093-.95a2.183 2.142 0 0 0 .26-.85c.135-1.183-.493-2.525-.999-3.562zm-15.81 3.645c.64-.79.64-1.965.695-2.928.194-3.213.396-6.426.558-9.641.06-1.218.194-2.42.12-3.647-.06-1.011-.067-2.174-.719-3.005-1.148-1.466-3.6-1.345-5.272-1.116a16.005 15.708 0 0 0-1.535.283c-.508.12-1.014.25-1.506.406-1.605.515-3.861 1.463-4.242 3.278-.217 1.026.295 2.074.69 3.012.48 1.133 1.135 2.156 1.732 3.224 1.58 2.82 3.189 5.624 4.792 8.43.48.837 1 1.897 1.928 2.332.062.026.125.048.189.07.415.154.87.183 1.301.085l.077-.016c.4-.108.762-.323 1.045-.617.053-.049.1-.097.148-.15zm-.767 8.602a2.043 2.005 0 0 0-2.274-.752 2.084 2.045 0 0 0-.283.114 2.74 2.69 0 0 0-.402.247 5.305 5.207 0 0 0-.96.965c-.07.088-.136.206-.221.283l-1.421 1.917c-.804 1.076-1.6 2.153-2.386 3.247-.515.707-.959 1.304-1.311 1.83-.066.1-.135.21-.197.3-.422.638-.66 1.105-.783 1.52a2.023 1.986 0 0 0-.085.858c.039.3.142.588.302.847.085.129.177.254.275.375a4.339 4.258 0 0 0 .714.644c.981.67 2.055 1.152 3.184 1.524.94.306 1.916.49 2.904.544.17.009.338.005.506-.01a4.907 4.816 0 0 0 .462-.064 4.414 4.333 0 0 0 .453-.128 2.199 2.158 0 0 0 .772-.484c.208-.204.369-.45.469-.723.164-.402.272-.911.344-1.668.005-.108.022-.237.033-.355.056-.628.082-1.369.122-2.235.07-1.335.124-2.664.167-3.996l.092-2.371c.021-.544.003-1.15-.151-1.693a2.583 2.535 0 0 0-.325-.736zm16.038 3.71c-.296-.321-.716-.638-1.379-1.031-.095-.054-.208-.123-.312-.184-.551-.327-1.216-.668-1.992-1.082a210.72 210.72 0 0 0-3.592-1.891l-2.128-1.108c-.11-.032-.222-.11-.327-.16a5.307 5.209 0 0 0-1.293-.452 2.74 2.69 0 0 0-.47-.049 2.38 2.335 0 0 0-.305.018 2.046 2.008 0 0 0-1.706 1.657c-.031.266-.022.535.031.796.103.557.356 1.107.619 1.588l1.135 2.092a216.752 216.752 0 0 0 1.93 3.521c.423.762.776 1.414 1.106 1.955.062.102.133.211.187.306.402.65.724 1.059 1.05 1.353a2.046 2.008 0 0 0 1.655.548 4.398 4.316 0 0 0 .464-.08 4.286 4.207 0 0 0 .904-.35 11.269 11.06 0 0 0 2.368-1.74c.85-.821 1.602-1.716 2.186-2.74a3.23 3.23 0 0 0 .21-.452 4.66 4.574 0 0 0 .143-.436 4.34 4.34 0 0 0 .078-.456 2.199 2.158 0 0 0-.103-.89 2.017 1.98 0 0 0-.46-.735z" fill="#ff1a1a"/>
        <path d="M53.33 15.396c0-1.724 1.429-3.131 3.155-3.131 1.702 0 3.084 1.407 3.157 3.157V39.86c0 1.723-1.43 3.131-3.157 3.131a3.157 3.099 0 0 1-3.155-3.131zm-2.936 15.096c-.025.485-.148 1.384-.788 2.04-.69.703-1.628.872-2.17.872-2.257.013-4.514.02-6.77.024-2.256.007-4.513.013-6.77.024.198.608.592 1.53 1.48 2.38.54.51 1.06.8 1.283.922.27.17 1.207.656 2.366.656 1.234 0 2.319-.39 3.38-.923l.087-.045c.739-.376 1.499-.762 2.304-.902.788-.121 1.628.024 2.244.559.74.63 1.037 1.552.764 2.5-.32 1.067-1.232 1.99-2.194 2.547a10.847 10.646 0 0 1-1.726.8 13.021 12.78 0 0 1-4.759.73c-.394 0-.814 0-1.234-.048a11.39 11.39 0 0 1-1.306-.243 9.268 9.097 0 0 1-1.974-.656 10.808 10.607 0 0 1-1.8-.995 11.77 11.553 0 0 1-1.577-1.335 12.225 11.999 0 0 1-1.308-1.601c-1.331-1.99-1.948-4.442-1.825-6.821.098-2.33.888-4.66 2.319-6.552.154-.238.333-.44.502-.63.074-.084.146-.164.213-.245 1.766-2.12 4.126-2.79 5.099-3.066l.054-.016a11.06 10.856 0 0 1 6.042 0c.47.122 3.108.923 5.154 3.082.099.097.371.413.716.875a11.777 11.56 0 0 1 1.895 3.894l.003.013a8.01 8.01 0 0 1 .296 2.158zm-14.475-4.004a5.57 5.466 0 0 0-1.924 3.057h10.752a5.739 5.632 0 0 0-1.948-3.059 5.622 5.518 0 0 0-3.452-1.212 5.53 5.428 0 0 0-3.43 1.212zm40.887-6.433c-2.811 0-5.376 1.239-7.201 3.254v-.074a3.146 3.088 0 0 0-6.288.17V46.73a3.15 3.092 0 0 0 3.157 3.106 3.15 3.092 0 0 0 3.156-3.106v-7.282c1.824 1.99 4.365 3.253 7.2 3.253 5.649 0 10.235-5.025 10.235-11.287-.025-6.26-4.611-11.358-10.26-11.358zm-1.38 17.572c-3.207 0-5.821-2.743-5.821-6.164 0-3.446 2.59-6.19 5.82-6.19 3.205 0 5.82 2.744 5.82 6.19-.025 3.421-2.615 6.164-5.82 6.164zm-52.06-4.587l-1.035 2.234c-.47.97-.938 1.965-1.382 2.96l-.428.934c-1.972 4.304-4.31 9.413-9.411 10.497-2.466.534-6.19-.194-7.572-2.476-1.38-2.305.667-4.95 3.305-4.344.417.09.826.29 1.24.493.687.339 1.384.678 2.14.527.715-.12 1.158-.631 1.726-1.287a6.01 6.01 0 0 0 1.281-2.403l-.036-.084a1.206 1.184 0 0 0-.038-.085 344.766 344.766 0 0 1-1.67-3.104 181.822 178.456 0 0 0-.796-1.483l-1.075-2.004a227.295 227.295 0 0 0-1.267-2.34 90.706 89.026 0 0 0-2.417-4.199c-.912-1.506-1.85-3.18-1.085-4.952a3.016 2.96 0 0 1 3.7-1.698c1.586.472 2.29 1.955 2.946 3.34.12.252.237.5.358.736a730.18 730.18 0 0 1 3.131 6.19c.092.205.23.483.4.825.152.302.327.655.513 1.043l.274.56c.106.22.2.407.269.557.48-1.176.968-2.347 1.454-3.52.487-1.17.974-2.341 1.455-3.519.013-.064.128-.316.302-.694.146-.32.333-.731.537-1.198l.208-.495c.64-1.53 1.411-3.37 3.121-3.873a3.042 2.986 0 0 1 3.33 1.14c.37.509.517 1.092.541 1.675.02 1.289-.613 2.67-1.158 3.856-.131.29-.26.567-.37.828l-.065.141a165.93 165.93 0 0 1-1.267 2.722c-.254.532-.499 1.067-.746 1.606z" clip-rule="evenodd" fill="#000" fill-rule="evenodd"/>
    </g>
</svg>