<svg width="220" viewBox="0 0 369 47">
  <g stroke-width=".3">
    <path fill="#921818" d="M2 46l-1-1h5v-2l-1-1-4-1v-3c1-1 5-2 6-1v1H5c-2 0-3 0-2 2l1 1h1l1 1h1v4H2zm14 0l-2-4 1-3c2-3 6-3 8 0v5c-2 2-4 3-7 2zm5-1l1-2 1-1-1-1c-1-3-2-3-4-3-2 1-3 3-2 5l1 2h4zm25 1v-3-4l-2-1h-1l4-1 3 1h-1c-2 0-2 1-2 5v3h-1zm13 0l-1-2-1-2v-2l-1-1v-2l1 2 1 1 1 2v1l2-1v-2l1-2 1-1 2 6c1 1 1 1 2-1l1-2v-1l1-2v3l-1 2v1l-1 2-1 1-2-5-1-1-2 2-1 4h-1zm16 0l1-2v-2l3-5 2 2 1 1v1l1 1v1l1 1v2l-1-1-1-1h-5l-1 1-1 1zm6-4l-1-2v-1l-2 2v2l3-1zm10 4v-4-5h6l1 3-1 2 1 3v1l-2-1-2-2-2 2-1 1zm5-4l1-3-3-1c-2 0-2 0-2 2s0 2 2 2h2zm9 4v-9h4c3 0 3 0 2 1h-2c-2 0-2 1-2 2l2 1 2 1h-2c-2 0-2 1-2 2l3 1 2 1h-7zm24 0l-2-2c-3-4 2-9 6-7 2 1 2 2 0 1l-4 1-1 3c0 1 0 2 2 3h4v1h-5zm19 0h-1c0-2-1-2-2-3-2 0-2 1-2 2l-1 1h-1v-4l1-5h2l4 2v3 4zm-2-4l2-2-1-1-2-1-2 1v3h3zm40 4v-3l-1-4-1-1h-1v-1h7v1h-1l-2 1v7h-1zm11 0h-1v-1h5c1-1 0-2-1-3-5-1-6-2-3-4l2-1 3 1h-2l-3 1 3 2 3 3c-1 2-2 2-4 2h-2zm29 0l1-4 1-2 2-3 1 1 1 1 1 2 1 2 1 2v1c-1 1-1 0-2-1v-1h-2l-3 1-1 1h-1zm6-4v-1l-1-2-2 3 2 1 1-1zm10 4v-4-5l3 3 3 3v-3l1-3 1 5v4c-1 1-2 0-3-1l-2-3c-2-2-2-2-2 2v2h-1zm16 0l-1-1h5v-2l-2-1c-3 0-4-1-3-3 0-1 1-2 3-2l3 1h-1l-4 1 2 2 4 3-1 2h-5zm19 0v-2-1l-3-1c-2 0-3 0-3 3v1h-1v-4l1-5v2l1 2h2c3 0 3 0 3-2l1-2v9h-1zm9 0v-9h1v9h-1zm9 0v-8l2-1c3 0 4 0 5 2v3l-4 1-2 1v1l-1 1zm5-4v-3h-4v3h4zm17 4v-4c0-5 0-5 3-5 4 0 5 1 4 3l1 2v2l-2 2h-6zm6-1v-2h-4v2h4zm-2-4h1c2-1 1-2-1-3s-3 0-3 2c1 1 2 2 3 1zm11 5v-4-5l1 4c0 4 0 4 3 4l2 1h-6zm15 0l-4-4 2-4 3-1 4 1 1 2c1 2 0 4-1 5l-2 1h-3zm3-1c2-1 2-2 2-3l-1-3c-2-2-6-1-6 3l1 2c1 1 3 2 4 1zm13 1c-1 0-3-1-3-3v-1l1-4 4-1 3 1-1 1c-3-2-6-1-6 2l2 4h3l1-2 1-1v1l-1 3h-4zM31 42v-4l3-1c3 0 3 0 2 1h-2l-2 1v2l2 1c3 0 3 0 0 0l-2 1v2l-1 1v-4zm124 4v-2h1l1-3 1-2 2-2 1 2a204 204 0 0 0 3 7h-1c-1-2-2-2-4-2h-2l-1 1-1 1zm6-3v-1l-2-3v1l-1 1v1l3 1zm10-1v-5h3c2 0 3 0 2 1h-2l-2 1v2l2 1h0l-2 1v2l-1 1v-4zm38 0l1-5 1 1 1 1v1l2 3 1-1 1-2 1-1 2-2v9l-1-2v-3l-2 2-1 1c0 1-1 1-2-1l-2-2-1 3v2l-1-4z"/>
    <path fill="#5f1819" d="M3 47c-2 0-3-1-3-2l2-1h4l-2-1c-2-1-3-1-3-3l-1-1 1-1 1-1 3-1 3 2-3 1H3l1 1 2 1c2 1 3 2 2 3 0 2-2 3-5 3zm4-1v-4H6l-1-1H4l-1-1c-1-2 0-2 2-2h2v-1c-1-1-5 0-6 1v3l4 1 1 1v2H2 1l4 1h2zm10 1l-2-1c-1-2-2-4-1-6l2-3h6l2 3v4l-1 2-3 1h-3zm4-1c2-1 3-2 3-4l-1-3c-2-3-6-3-8 0l-1 3 1 2c1 2 4 3 6 2zm-4-1l-1-2c-1-2 0-4 2-5 2 0 3 0 4 3l1 1-1 1-3 2h-2zm4-1v-5h-2c-2 0-3 0-3 3l1 2h4zm109 3l-4-2v-3l1-3c1-2 2-3 4-3l3 1 1 2h-2-2l-2 1-1 2c0 2 2 3 5 2 2 0 3 1 1 2l-1 1h-3zm4-1v-1h-4c-2-1-2-2-2-3l1-3 4-1c2 1 2 0 0-1-3-1-7 1-7 5 0 2 1 3 3 4h5zm63 1l-2-3h5c1 0 1 0 0 0l-1-1-3-1-1-2 1-3 3-1 3 1v1l-2 1h-2l1 1 1 1h2l1 1v2l-1 3h-5zm5-1v-3l-2-2-3-2 3-1h2l-3-1-2 1c-3 2-2 3 3 4 1 1 2 2 1 3h-4-1v1h6zm56 1l-2-1c-1-1 0-2 3-2h3l-1-1h-1l-4-2v-2l1-1v-1l3-1 3 1c1 1 1 2-2 2h-2l1 1 3 2 1 2c0 2-2 3-6 3zm5-1l1-2-4-3-2-2 4-1h1l-3-1c-2 0-3 1-3 2-1 2 0 3 3 3l2 1v2h-5l3 1h3zm84 1l-3-3-1-2c0-2 1-4 3-5l3-1 4 2 1 4-2 4-5 1zm3-1l2-1c1-1 2-3 1-5l-1-2-4-1-3 1-2 4 4 4h3zm-3-1l-1-1-1-2c0-4 4-5 6-3l1 3c0 1 0 2-2 3h-3zm3-1l1-1v-3l-2-1-3 1v2l3 3 1-1zm13 3c-1 0-3-1-3-3l-1-5 2-2h7v2h-5l-2 3 1 1 2 1c1 1 2 0 2-1l1-2c2 0 2 1 2 2l-1 3-2 1h-3zm3-1c2 0 2-1 2-3v-1l-1 1-1 2h-3l-2-4c0-3 3-4 6-2l1-1-3-1-4 1-1 4 1 3c2 1 3 2 5 1zM30 46v-4c0-6 0-6 4-6 3 0 4 1 4 2l-3 1c-2 0-3 0-2 1l2 1 2 1-2 1c-2 0-2 0-2 2l-2 2-1-1zm2-1v-2l2-1c3 0 3 0 0 0l-2-1v-2l2-1h2c1-1 1-1-2-1l-3 1v8l1-1zm13 1v-7h-1l-2-1c0-1 0-2 5-2h4v1c0 1 0 2-2 2h-1v7h-3zm2-3c0-4 0-5 2-5h1l-3-1-4 1h1l2 1v7h1v-3zm11 3l-1-2v-1l-1-1v-2l-1-2 1-2 2 2v1l1 2v1l1-1 1-2v-2h1c1-1 2 0 3 1v2l1 2v1l1-1v-3l2-3 1 1-1 4-1 4-2 2-2-2v-2l-1-1v-1l-1 3-1 1-2 2-1-1zm3-1v-3l2-2 1 1 2 5 1-1 1-2v-1l1-2v-3l-1 2v1l-1 2c-1 2-1 2-2 1l-2-6-1 1-1 2v2l-2 1v-1l-1-2-1-1-1-2v2l1 1v2l1 2 1 2h1l1-1zm13 1l1-2 1-3 1-1 1-2c1-2 2-2 3-1v1l1 1a2362486 2362486 0 0 0 3 7h-3l-3-1-2 1-1 1-2-1zm2-1l1-1h5l1 1 1 1v-1-1l-1-1v-1l-1-1v-1l-1-1-2-2-3 5v2l-1 2 1-1zm2-2v-2l2-2v1l1 2-3 1zm2-1c1 0 1 0 0 0v-1h-1c-1 1 0 2 1 1zm10 5l1-10 3-1 3 1c2 1 3 4 1 6v2c1 1 1 2-1 2l-1-1-1-2h-2v1l-1 1-2 1zm2-2l2-2 2 2 2 1v-1l-1-3 1-2-1-3h-6v9l1-1zm0-3v-3l2-1 3 1-1 3h-4zm3 0l1-3h-3v3h2zm10 4v-9l4-1 3 1v1l-3 1-2 1h2l3 2-3 1h-2c0 1 1 2 3 2h2c1 2 1 2-3 2l-4-1zm7 0l-2-1-3-1c0-1 0-2 2-2h2l-2-1-2-1c0-1 0-2 2-2h2c1-1 1-1-2-1h-4v9h7zm29 1V37l3-1c3 0 4 1 5 3v4 2c1 1 0 2-1 2l-2-1-2-2-1 1-1 2h-1zm7-2v-3-3l-4-2h-2l-1 5v4h1l1-1c0-1 0-2 2-2 1 1 2 1 2 3h2l-1-1zm-5-3v-3l2-1 2 1c1 2 0 3-3 3h-1zm3 0l1-3h-4v3h3zm8 4l1-3 1-2 2-3 2-2 1 1 1 2 1 3 1 2 1 1-1 2-2-1v-1h-5c0 2-2 2-3 1zm2-1l1-1h2c2 0 3 0 4 2h1v-1l-1-3a204 204 0 0 1-3-5l-2 2-1 2-1 3h-1v2l1-1zm2-2v-2l1-1v-1l2 3-3 1zm2-1v-1l-1-1v2c-1 0-1 0 0 0h1zm10 4v-4c0-6 0-6 4-6l3 1v1c1 1 0 1-2 1s-3 0-2 1l1 1h3v2h-2c-2 0-2 0-2 2l-1 1h-2zm2-1v-2l2-1h0l-2-1v-2l2-1h2c1-1 0-1-2-1h-3v9l1-1zm13 1v-7h-1c-2 0-2-1-2-2l4-1 5 1v1l-2 1h-1v4l-1 4h-1l-1-1zm2-3v-4l2-1h1v-1h-7v1h1l1 1 1 4v3h1v-3zm22 3v-9h2l1 1 2 4 1-1 1-1 2-3h2v9l-1 1h-1v-2l-1-2-2 3-2-2-1-1-1 1v2h-2zm1-2l1-3 2 2c1 2 2 2 2 1l1-1 2-2v3l1 2v-4-5l-2 2-1 1-1 2-1 1-2-3v-1l-1-1-1-1-1 5 1 4v-2zm15 3l1-2a66 66 0 0 0 3-8c1-1 3-1 3 1l1 2 1 3 1 2v2l-2-1v-1h-5l-1 2h-2zm3-2l3-1h2v1c1 1 1 2 2 1v-1l-1-2-1-2-1-2-1-1-1-1-2 3-1 2-1 4h1l1-1zm1-2v-1l2-3 1 2c1 1 0 2-1 2h-2zm3-1l-1-1v-1l-1 1c-1 1-1 2 1 1h1zm9 4v-9c1-1 2-1 3 1l3 4 1-2v-3h2v9h-2l-3-4h-1l-1 1v3h-2zm2-2c0-4 0-4 2-2l2 3c1 1 2 2 3 1a41 41 0 0 0-1-9l-1 3v3l-3-3-3-3v9h1v-2zm27 3v-5l1-6 1 3v1h4v-1c0-2 1-3 2-3l1 6v5h-2v-2l-1-2h-4v4h-2zm8-5v-5l-1 2c0 2 0 2-3 2h-2l-1-2v-2l-1 5v4h1v-1c0-3 1-3 3-3l3 1v1l1 2v-4zm8 5V37h1l1 9-2 1zm1-5v-5h-1v9h1v-4zm7 4v-4c0-6 0-6 4-6h2l1 2 2 2-1 3-3 1h-2l-1 1v1h-2zm2-1v-1l2-1 4-1v-3c-1-2-2-2-5-2l-2 1v8l1-1zm0-3v-3h4v3h-4zm3-1c1 0 2-1 1-2h-2l-2 1 1 1h2zm17 5l1-9 3-1 4 1 1 1v8l-5 1-4-1zm7 0l2-2v-2l-1-2c1-2 0-3-4-3-3 0-3 0-3 5v4h6zm-4-1v-2h4v2h-4zm3-1h1l-2-1h-2v1h3zm-3-3l-1-2 3-1c2 1 3 2 1 3a2683 2683 0 0 1-3 0zm3-1v-1h-3v1h3zm9 7v-5l1-6c2 0 2 1 2 5s-1 4 2 4l3 1-4 1h-4zm7-1l-2-1c-3 0-3 0-3-4l-1-4v9h6z"/>
    <path fill="#b0b2b2" d="M25 35l-3-2 1-1 2-2 4 1 1-3-2-6a111 111 0 0 0-4-9l-1-2V9h4l2 4v1a72 72 0 0 1 4 7v1l1-2a72 72 0 0 0 4-10c1-1 1-2 3-2s2 1 2 2l-1 2a34 34 0 0 0-2 4 196 196 0 0 0-6 14l-3 4-6 1zm312-1V9h2l1 1h3l5-1 3 1h1l3 3v1l1 4-1 4v1l-4 4h-1-6l-1-1h-1-1l-1 4-1 4h-2zm11-10h1l3-3v-6-1l-2-2h-6l-2 2-1 2-1 3 1 2v1h1l2 2h4zM56 28c-3-1-7-3-8-6a12 12 0 0 1 1-9l4-4h7l5 2 1 2-3 2-1-1c-2-2-4-2-5-2-3 1-4 3-5 5l2 5c1 2 2 2 5 2l2-1 2-1h1c2 1 2 2 1 4l-9 2zm38 0l-7-4-1-4 1-7 3-3 4-2c6 0 11 3 11 9v2l-7 1h-7l2 3 4 1 3-1h3v3l-9 2zm7-12l-3-4-5 1-2 2c-1 2-1 2 4 2l6-1zm44 12l-4-3-1-3v-2l1-1 2-2 5-1h5l-1-1c0-1-2-3-4-3l-4 1h-3v-3c2-1 6-2 9-1 3 0 5 1 6 3l1 10c0 6 1 6-2 6l-2-1h-1l-4 1h-3zm5-4l3-3v-1h-8v3c0 2 3 2 5 1zm48 4c-3-1-6-3-7-6l-1-4 1-4 5-5 7-1 7 5v10c-2 4-7 6-12 5zm6-5c2-2 3-5 1-8 0-1-1-2-3-2h-3c-3 0-4 3-4 7l2 2 1 2h3l3-1zm20 5l-5-3-1-2-1-5 1-4c2-4 6-6 11-5h4V5c0-4 0-4 2-4s2-1 2 13v13l-2 1-2-1-1-1c-1 2-5 2-8 2zm5-4c2-1 4-4 4-6l-2-4-3-2-3 1c-2 0-4 3-4 5s2 5 4 6h4zm21 4c-4-1-6-5-4-8 1-3 2-3 8-4h4c0-2-3-4-6-4l-3 1h-2l-1-1c-1-2 6-4 10-3 4 0 5 1 6 4l1 8c0 7 0 7-3 7l-2-1h-2l-6 1zm6-4l2-3-3-1c-4 0-5 0-5 2l1 2h5zm23 4l-8-5v-9l5-5c3-1 8-1 10 1l3 2-2 2h-2l-3-1c-5-2-9 3-6 8 1 2 2 3 4 3l4-1 2-1 3 2-4 3-6 1zM2 27a86585 86585 0 0 0 9-15H2v-2-1h8l8 1-4 6a52 52 0 0 0-4 4l-2 3 5 1h5v3H2zm72 0V9h3l1 9v9l-1 1-3-1zm39 0V9h13c3 0 5 2 6 4v15h-2c-3 0-3 0-3-7l-1-8h-5c-3 1-3 2-3 10l-1 5-4-1zm54 0l-1-13c1-14 0-13 3-13 2 0 2-1 2 8v7h1l3-2 5-5h5l-3 4-4 3 6 8 1 2v2h-4l-3-3-3-4-1-1-1 1-2 4c0 3 0 3-2 3l-2-1zm130 1l-1-14c0-14 0-13 3-13 2 0 2 0 2 5v4l1-1h7l3 1c3 2 3 3 3 11v7l-4-1-1-6v-7c-1-1-3-2-5-1-2 0-3 0-4 2v12l-4 1zm27-1v-2-2h2l2 1-1 2-1 1h-2zm41-12V2h4v25h-4zM8 5C7 4 6 3 8 1h1l3 1-1 3H8zm66 0l-1-3c0-1 1-2 3-2 3 0 4 4 1 5h-3z"/>
  </g>
</svg>